<svg xmlns="http://www.w3.org/2000/svg" viewBox="0 0 1080 1080">
    <defs>
        <style>.Bletia-1{fill:#2a4024;}.Bletia-2{fill:#a89551;}.Bletia-3{fill:#fea770;}.Bletia-4{fill:#de8447;}.Bletia-5{fill:#c88937;}.Bletia-6{fill:#ddb05d;}.Bletia-7{fill:#ba8723;}.Bletia-8{fill:#fce39d;}.Bletia-9{fill:#a85ab9;}.Bletia-10{fill:#9949a5;}.Bletia-11{fill:#9048a3;}.Bletia-12{fill:#baa5db;}.Bletia-13{fill:#ba82d4;}.Bletia-14{fill:#ad75ca;}.Bletia-15{fill:#f4ffff;}.Bletia-16{fill:#b4a2d2;}.Bletia-17{fill:#b966b6;}.Bletia-18{fill:#a267b8;}.Bletia-19{fill:#b578c7;}.Bletia-20{fill:#e4d4fe;}.Bletia-21{fill:#dbadef;}.Bletia-22{fill:#922384;}.Bletia-23{fill:#d348d0;}.Bletia-24{fill:#8e0f75;}.Bletia-25{fill:#9c0470;}.Bletia-26{fill:#a93e45;}.Bletia-27{fill:#e25640;}.Bletia-28{fill:#ffd698;}.Bletia-29{fill:#fec5aa;}.Bletia-30{fill:#ffd6d4;}.Bletia-31{fill:#eaa98d;}.Bletia-32{fill:#d54f51;}.Bletia-33{fill:#bc207c;}.Bletia-34{fill:#f1cef4;}.Bletia-35{fill:#d1a0df;}.Bletia-36{fill:#cb9fd6;}.Bletia-37{fill:#cf6be0;}.Bletia-38{fill:#e62880;}.Bletia-39{fill:#f6e8f9;}
        </style>
    </defs>
        <title>ORCHIDS</title><g id="bletiaPurpurea"><circle class="Bletia-1" cx="540" cy="540" r="540"/><path class="Bletia-2" d="M573.54,966.44V780.5s-150.17-62-181.16-97.73l21.45-9.54s31,47.68,159.71,83.44V532.59s0-31-28.6-33.37c0,0-135.88-54.83-143-85.81l-9.53-38.14s62,85.81,181.16,114.42c0,0,4.77-164.48-28.6-185.94,0,0-40.53-57.21-40.53-64.36s11.92,0,11.92,0,28.61,47.68,33.38,50.06c0,0,19.07,26.22,11.91-26.22,0,0-2.38-71.51-16.68-90.58,0,0-19.07-35.76-19.07-47.68h9.53s23.84,78.67,16.69,0l21.45-9.53s-13.11,65.55,1.2,79.85c0,0,9.53,4.77,23.83-42.91h11.92s-2.38,45.3-23.84,54.83c0,0-11.91,2.38-9.53,35.76L589,390.76s-4.77,21.45,59.59-11.92c0,0,42.91-28.6,54.83-45.29L713,345.47s-54.82,57.21-104.88,64.36c0,0-11.92-4.77-14.3,40.52V650.59s0,11.92,16.68,7.15c0,0,116.81-2.38,114.42-19.07,0,0,9.54,33.37-23.84,35.76l-78.66-7.16s-11.92,11.92-23.84,11.92c0,0-4.76,0-2.38,23.84,0,0,4.77,269.37-14.3,298C581.89,1001,562.82,986.7,573.54,966.44Z"/><path class="Bletia-3" d="M468.66,177.41s26.22-4.76,40.52,21.46c0,0,33.37,47.67,16.69,66.74,0,0-14.3,11.92-45.29-28.6C480.58,237,456.74,194.1,468.66,177.41Z"/><path class="Bletia-4" d="M695.11,353.81s-33.37-16.68,0-38.14c0,0,40.53-33.37,42.91-47.67,0,0,33.37-28.61,28.61,0C766.63,268,771.39,375.27,695.11,353.81Z"/><path class="Bletia-5" d="M637.9,101.13s-35.75,2.39-38.14,31c0,0-11.91,28.49,0,32.13,0,0,16.69,10.78,33.38-41.66,0,0-2.39-14.3,0-14.3S645.06,98.75,637.9,101.13Z"/><path class="Bletia-6" d="M509.18,89.22s45.29,19.07,26.22,52.44c0,0-14.3,4.77-19.07-9.54l-7.15-11.92S502,101.13,509.18,89.22Z"/><path class="Bletia-7" d="M573.54,70.15s14.31-2.39,7.15,19.07c0,0-14.3,7.15-7.15,16.68,0,0,19.07,28.61-9.53,23.84,0,0-21.46,4.77-21.46-9.54,0,0-35.75-23.83-19.07-38.14,0,0,13.12-1.19,22.65,6,0,0-7.15-26.22-16.69-28.6,0,0,21.46,9.53,21.46-11.92,0,0,0,11.92,4.77,0,0,0,2.38,21.45,14.3,7.15C570,54.65,579.5,64.19,573.54,70.15Z"/><path class="Bletia-8" d="M749.94,268s-40.52,54.82-52.44,54.82c0,0,26.22-2.38,47.67-28.6C745.17,294.22,761.86,268,749.94,268Z"/><path class="Bletia-9" d="M517.33,657.54C540.61,641.89,551,597.12,551,597.12s51.61-242.45-39-330c0,0-4.25-5.36-9.72-2.83a16.43,16.43,0,0,1-10.93.74c-5.19-.8-9.46,3.58-9.46,3.58-83.4,94.51-12.69,332.09-12.69,332.09S482.9,643.85,507,657.93C512.59,661.17,512.16,661,517.33,657.54Z"/><path class="Bletia-10" d="M496.46,320.94s-15.13,204.54,5.2,237c0,0,21.23,46.24,27.41,8.59,0,0-4.09-55.59,2.85-95,0,0,10.64-75.19-9.31-141.43C522.61,330.05,504.48,291.4,496.46,320.94Z"/><path class="Bletia-11" d="M458.24,378.46s-15,37.86-15.89,68.85c0,0,8.11,76.17,13.41,97.54,0,0,8.93,10.74,2.1-66.76,0,0-4.67-44.74,2.08-73.76C459.94,404.33,475,357.43,458.24,378.46Z"/><path class="Bletia-12" d="M531.74,581.93s19.12-72.72,17.41-98.59c0,0-3.77-17.94,1.93-36.5,0,0-8.45-128.5-30.45-147,0,0-15.74-15.42-29.55-1.52,0,0-25.88,10.66-24.63-7.76,0,0,12.7-28.7,25-26,0,0,3.62,2.36,10.35-.68,0,0,8.22-5.25,18,11.62,0,0,32.4,31,41.86,110.65,0,0,7.16,67.65,2,115,0,0-6.29,82.15-15.8,108.74C548,609.9,520.6,604.75,531.74,581.93Z"/><path class="Bletia-13" d="M504.06,574.66s-25.22-27.8-22.24-74.76c0,0-.32-31.16-11-8.81,0,0-14.52,56.5-12,68.41,0,0,13.31,57.1,15.26,60.43Z"/><path class="Bletia-14" d="M448,367.87s13.23-62.37,32.87-40.27c0,0,14.58,24.15-.35,73.64,0,0-9.23,30.92-14.41,31.26,0,0-7.36,6.55-3-18.86,0,0,7.86-34.1,3-38.2,0,0-1.55-6.06-7.88,3l-10.76,73.46L442,447.09S443.86,383.73,448,367.87Z"/><path class="Bletia-15" d="M563.42,490.74s-1.92,9.11-3.39-13.31c0,0,1-10.46-.91-13.8,0,0-2.87-4.14,1.85-11.38,0,0-.37-45-7.23-83.54,0,0-16.21-62.16-26.55-74.48,0,0-14.41-21.57-20.86-14.21,0,0-3.91,6.32-14.32,6.13,0,0-8.22-6.38-13.8.91,0,0-17.32,18.74-26.88,68.17,0,0-12.17,75.58-1.86,126.87,0,0,6.87,25.54,6.52,33.35,0,0,1.6,16.82-2.51,17.29,0,0-16-74.1-11.48-139.12,0,0-2.54-38.86,18.26-90.56,0,0,18.67-44.63,32.06-38.58,0,0,3.62,2.36,9.48-.62,0,0,8-7.21,21.24,15.18,0,0,26.88,32.68,33.77,77.74,0,0,9.26,41.43,8.77,101.39C565.58,458.17,564.88,487.71,563.42,490.74Z"/><path class="Bletia-16" d="M519.24,700.11s94-72,187.68-30.53c0,0,36.21,10.61,52.59,9.53,0,0,83.17,26.58,91.71,117,0,0,7.4,86.13-34.9,75.06,0,0-53.63-12.07-67.25-21.57,0,0-9.53-13.23-46.16-3.89,0,0-2.42,2.76-27.53-10.31,0,0-25.06-12.21-28.57.14,0,0-21.69,12.69-49-8,0,0-7.58-9.9-15.34-9.39,0,0-59.55-9.94-77.49-72C504.94,746.09,497.61,713.66,519.24,700.11Z"/><path class="Bletia-17" d="M823.29,786.22l28.37,29s.28,51.05-22.77,56.22l-93.37-37-21,9.18a41.31,41.31,0,0,0-11.1,2.46s-7,.37-20.45-6.93L677,814,578.43,790.2,528,747.61l13.18-38.11,62.6-34.43L733.32,722Z"/><path class="Bletia-18" d="M851.66,815.18s-5.67,37.36-61.5-10.42l-66.24-43.13-26.1-10.87-50.5-7.51-33.78,7.83-24.26-2.79s36.22.27,36.88-29.22l-21.93-43.6,35.49-13.6,100.47,26.31S813.88,687.83,851.66,815.18Z"/><path class="Bletia-19" d="M836.41,867.39s-10.86-40.18-41.15-39.92c0,0-17.82-7.49-22.53-13.24,0,0-22.68-28.82-45.92-13.44,0,0-32.74,20.36-22.43,36.57,0,0,2.56,3.72,9.63,5.85,0,0,26.5-5.21,35.06,6.35a190.7,190.7,0,0,0,54.71,18.56S828.9,878.46,836.41,867.39Z"/><path class="Bletia-20" d="M624.87,657.91s-5.81,19.18,38.12,15.43c0,0,12.3,2.65,13,13.86,0,0-1,24.32,51.27,15.69,0,0,31.24-10.14,20-24.41,0,0-20.12-1.52-47.57-11.87C699.71,666.61,654.93,651.87,624.87,657.91Z"/><path class="Bletia-21" d="M797.77,866.58s-32.22-56.21-71.84-52.74c0,0-41.77,19.5-11.79,29.51,0,0,22.87-6,36.66,6.1C750.8,849.45,768,861.92,797.77,866.58Z"/><path class="Bletia-22" d="M550.5,715.24s-17.75,45.48,31.4,55.24c0,0,13.05.88,21.16-7.45,0,0,40.21-20.84,56.26,25.74,0,0,8.09,17.66,20.92,15.09,0,0,22.94-.36,15.45,40.7,0,0-43.92-25.84-48.88-9.06,0,0-18.18,13.33-49.9-8,0,0-4-8.4-11.89-9.62,0,0-71.91-13.46-80.08-71.82C504.94,746.09,550.82,681.31,550.5,715.24Z"/><path class="Bletia-22" d="M569.85,745.29s34.37,9,67.44-1.84c0,0,69.91-3.73,95.76,20.55,0,0,69.52,43.07,70.49,57.73,0,0-42.51-40.51-71-51.63,0,0-14.25-6-21.49-10.71,0,0-17.29-12.73-63.86-9.66C647.23,749.73,592.54,761.12,569.85,745.29Z"/><path class="Bletia-22" d="M646.9,731.56s38.76-16.41,77.32,3.58c0,0,71.83,38.58,82.79,60.38,0,0-52.39-45.93-100.26-62.7,0,0-30.93-9.23-50.19.7C656.56,733.52,629.88,736.14,646.9,731.56Z"/><path class="Bletia-16" d="M489.3,700.35s-102.63-59.08-190.06-5.69c0,0-34.51,15.27-50.9,16.34,0,0-79,37.24-75.6,128,0,0,3.95,86.35,44.44,69.83,0,0,51.59-19,63.84-30.18,0,0,7.72-14.37,45.26-9.91,0,0,2.75,2.42,25.94-13.83,0,0,23.24-15.39,28.34-3.6,0,0,23.16,9.74,47.56-14.38,0,0,6.22-10.81,14-11.32,0,0,57.74-17.65,67.4-81.52C509.5,744.06,512.51,711,489.3,700.35Z"/><path class="Bletia-17" d="M199.14,825.54,174.81,858s6.41,50.64,29.94,52.75l87.73-48.88,22.07,6.34a41.34,41.34,0,0,1,11.32,1s7-.56,19.37-9.55L347.81,834l94.6-36.54,44.43-48.83-18-36.05-66.58-25.94L279.93,750.07Z"/><path class="Bletia-18" d="M174.81,858s10.52,36.29,59.61-18.39l60-51.43L318.89,774,368,759.89l34.52,3.34,23.68-6s-35.87,5-40.39-24.14l16-46.09-37-8.83-96.16,39.24S195.59,726.76,174.81,858Z"/><path class="Bletia-19" d="M196.77,907.73s5.5-41.25,35.57-45c0,0,16.68-9.76,20.6-16.08,0,0,18.71-31.55,43.76-19.34,0,0,35.13,15.9,27,33.31,0,0-2.05,4-8.78,7.07,0,0-27-1.7-33.93,10.89a190.77,190.77,0,0,1-51.81,25.56S205.67,917.72,196.77,907.73Z"/><path class="Bletia-20" d="M379.05,672.35s8.27,18.25-35.77,20.28c0,0-11.85,4.25-11.11,15.46,0,0,4.17,24-48.77,22.26,0,0-32.31-6-23-21.58,0,0,19.75-4.14,45.6-18C306,690.78,348.46,670.29,379.05,672.35Z"/><path class="Bletia-21" d="M235,901.87s24.58-60,64.31-61.7c0,0,44,13.86,15.56,27.71,0,0-23.46-2.94-35.54,10.85C279.3,878.73,263.92,893.34,235,901.87Z"/><path class="Bletia-22" d="M460.28,719.45s23.56,42.76-23.89,58.87c0,0-12.82,2.58-21.95-4.62,0,0-42.59-15.39-52.41,32.9,0,0-5.7,18.56-18.75,17.69,0,0-22.79,2.65-10,42.38,0,0,40.17-31.38,47.28-15.39,0,0,19.77,10.83,48.42-14.44,0,0,2.89-8.85,10.53-11.09,0,0,69.53-22.76,70-81.69C509.5,744.06,455.52,685.84,460.28,719.45Z"/><path class="Bletia-22" d="M445,751.77s-32.9,13.42-67.1,7c0,0-69.8,5.46-92.24,32.92,0,0-63.29,51.8-62.32,66.46,0,0,36.83-45.73,63.58-60.48,0,0,13.34-7.81,19.9-13.44,0,0,15.48-14.88,62.05-17.94C368.91,766.3,424.62,770.43,445,751.77Z"/><path class="Bletia-22" d="M366.86,748.25s-40.58-11.19-76.19,13.67c0,0-66.16,47.66-74.17,70.71,0,0,45.92-52.4,91.19-75.29,0,0,29.45-13.2,49.85-5.88C357.54,751.46,384.33,750.56,366.86,748.25Z"/><path class="Bletia-23" d="M489.48,785.43s-5.49,57.2-27.09,57.74c0,0-30.11,5.93-18.75,10.84,0,0,25.32,9.74,36.74,17.24,0,0,7.87,3.26,6.66-10.54,0,0-.17-6.92,6.74-7.09,0,0,19.8-3.09,20.39-14.34,0,0,1.53-7.82,4.15-7l.92-.49c2.53-1,4.76,6.61,4.76,6.61,1.6,11.16,21.61,12.44,21.61,12.44,6.9-.45,7.35,6.45,7.35,6.45,0,13.85,7.58,9.89,7.58,9.89,10.7-8.5,35-20.49,35-20.49,10.87-5.91-19.65-9.1-19.65-9.1-21.56,1.42-32.21-55.05-32.21-55.05l-13.93-40.66-28.4,2.74L495,778.8Z"/><path class="Bletia-24" d="M534.11,805.43s.95,16.64,19.1,29.3c0,0,17.18,11,30.06,9.28,0,0,5.25-.86-2.06-5.75,0,0,25.23,2.5,14.36,8.41l-35,20.49s-6.61,4.77-7.58-9.89c0,0,2.1-7.3-12.17-7.11,0,0-16.14-2.08-17.84-14.63,0,0-3-6.94-7.4-.76,0,0-10.41,6.59-5.62-12.78,0,0,3.7-22.77.55-31.22l-13.21-24.26,3.19-22.72,13.59-.41,10.21,59.47Z"/><path class="Bletia-24" d="M494.77,809.66s-2.73,30-18.89,34.49c0,0-6.1-.47-9.32,3.21,0,0-1.47,4-11.43-2.51l7.7-1.58s9.12.42,14.57-12.14c0,0,8.62-17.1,11.93-45.9l10.28,11.45Z"/><path class="Bletia-25" d="M523.69,807.22s8,15.94-1.51,16.56c0,0-10.23,1.5-11.08-11,0,0,2.25-17.89-1.94-28.87s10.69,4.49,10.69,4.49Z"/><path class="Bletia-26" d="M515.62,763.58l3,32.72s-10.17-9.73-12.63-20.83l-4.53-16.16,1.74-13.1,6.15,1.33Z"/><path class="Bletia-27" d="M483.72,716.25s14,24.15,8.09,43.77c0,0-10.2,52.13,11.84,52.29,0,0,13.8-10.59,7.69-33.17,0,0-9.84-23.63-5.24-27.16,0,0,1.41,16.45,6.15,18.18,0,0,7.74,8.19,2.66,32.05,0,0-1.82,10,5.1,11.22a36.47,36.47,0,0,0,8.3,0c9.7-1.64,4.47-12.85,4.47-12.85-11-21.8-5.55-31.68-5.55-31.68,4.14-2.87,1.34-19.14,1.34-19.14,5.34,2.24,1.81,27.59,1.81,27.59-.19,23.4,15.84,30.14,15.84,30.14,21.28-5.73-1.79-53.58-1.79-53.58-10.68-17.49-2.38-42.72-2.38-42.72l-5.9-23.86-36.34,1.32-11.44,9.62-4.65,18"/><path class="Bletia-28" d="M527.23,768.88s-1.89-15.47-7.12-16a22.83,22.83,0,0,1-4.19-11s-4.13-10.12-3,6.26c0,0,3.5,13.63.22,16.44,0,0-2.53,1-.52,5.23,0,0,5.28,9,3.83,22.61,0,0-4.54,14.69-.09,18.72,0,0,.87,2.54,8.69,2.9,0,0,7.28.32,8.93-5,0,0,.8-5.22-1.15-8.56,0,0-6.91-13-6.86-25.31C525.92,775.25,525.62,770.72,527.23,768.88Z"/><path class="Bletia-29" d="M490,774.11s7.57-7.61,6.73-16.25c0,0-.49-20.17,3.91-15.76,0,0,2.54,3.9,1.34,15.59,0,0,.46,7.72,5.4,9.88,0,0,2.72,8.78,4.08,11.15,0,0,4.25,13.18-.69,23.45,0,0-3.58,8.24-6.8,9.77,0,0-9.41.34-12.15-10.69C491.82,801.25,487.84,791.21,490,774.11Z"/><path class="Bletia-30" d="M526.22,781.1s-6.53-1.76-3.15,10.14c0,0,5.44,17,.27,17.31,0,0-7.58,3.2,1.64,5.14,0,0,10.93.52,8.93-9.52a36.46,36.46,0,0,0-2.56-6.57S526.43,785.44,526.22,781.1Z"/><path class="Bletia-30" d="M508.88,805.88s-2.2-7.06-7.21-4.14c0,0-3.39,1.09-5.63-6.56,0,0-2.54-16.54-6.58-10.08,0,0-1,26.17,13.75,26.93C503.21,812,507.41,809.72,508.88,805.88Z"/><path class="Bletia-31" d="M549.91,767.32s-9.28-5.38-10.71-14c0,0-4.76-19.61-7.87-14.21,0,0-1.44,4.43,2.75,15.41,0,0,1.56,7.57-2.65,10.94,0,0-.36,9.18-1,11.82,0,0-.69,13.84,6.74,22.48,0,0,5.6,7,9.1,7.66,0,0,9.18-2.1,9-13.46C555.19,794,556.42,783.28,549.91,767.32Z"/><path class="Bletia-32" d="M539.08,737.15s-6.88,2-8.94-16.1c0,0-5.73-21.28-12.34-16.51,0,0-10,5.85-15.58.16,0,0-9.08-6.33-9,8.38,0,0,2,20.76-2.16,21.42,0,0-9.42-30-23.65-40.41l37.3-30.27,41.43,11.77S536.08,729.77,539.08,737.15Z"/><path class="Bletia-33" d="M609.62,691.57S614,718.14,589,719.78c0,0-30.24,1.12-36-20.15Z"/><path class="Bletia-34" d="M499.6,568.65c-11.87,1.45-27.79,10.34-26.34,32.28,0,0-12.22-27.78-23.07,18,0,0-22.19-8.07-19.74,16,0,0-8.76,24.83-19.11,25.51,0,0-14.67,14-7.44,31.67,0,0,5.21,26.51-7.73,27.36,0,0-8.74-1.16.74,11.21,0,0,5.16,12.65,18.23-12.46,0,0,18.88-16,45.54-5.59,0,0,20.28,18.58,24.62-7.68,0,0,2.89-21.85,23.59-23.21l2.2-.15c20.7-1.36,26.43,19.92,26.43,19.92,7.74,25.48,25.41,4.39,25.41,4.39,25.08-13.77,45.88-.42,45.88-.42,16.24,23.19,19.71,10,19.71,10,7.77-13.51-.74-11.22-.74-11.22-12.94.86-11.25-26.11-11.25-26.11C621.38,659.62,605,647.7,605,647.7c-10.34.68-22.28-22.79-22.28-22.79-.73-24.2-21.66-13.3-21.66-13.3-16.75-43.93-25.23-14.79-25.23-14.79-1.47-22.32-17-27.9-31-28.61A47.19,47.19,0,0,0,499.6,568.65Z"/><path class="Bletia-35" d="M624.84,719.14c-2.64,1.69-11.27-7-16-13.66a66.88,66.88,0,0,0-9.48-4s9.48,4,17.93.82c0,0-2.59.17,3.73,4.08C621,706.41,629.39,716.24,624.84,719.14Z"/><path class="Bletia-36" d="M618.94,697.44s-28.23-3.76-29.14-17.56c0,0-2.63-13.68-18.34-2.26,0,0-21.74,28.61-32.5,27.86,0,0-4.9-11-4.78-12.12l34.9-52L599,649l17.69,18.76a24,24,0,0,1-.18,10.4S617.24,693.64,618.94,697.44Z"/><path class="Bletia-37" d="M617.13,667.49S577.88,630.43,570.9,656c0,0-15.5,40.86-32.52,45.44,0,0-7.2-17.17-14.57-17.39l22.1-39.4-10.08-47.84s9.45-27.47,25.23,14.79c0,0,19.26-9.92,22.52,13.25,0,0,11.19,25.25,23.15,22.73C606.73,647.59,618.1,662.43,617.13,667.49Z"/><path class="Bletia-33" d="M412.51,704.54s-.83,26.9,24.18,25.26c0,0,30.13-2.85,33-24.7Z"/><path class="Bletia-35" d="M401,733.86c2.84,1.33,10.25-8.46,14.1-15.64A65.82,65.82,0,0,1,424,713s-8.88,5.18-17.67,3.16c0,0,2.59-.17-3.17,4.54C403.18,720.74,396.14,731.58,401,733.86Z"/><path class="Bletia-37" d="M401.91,681.64s34.06-41.88,44.33-17.43c0,0,20.72,38.48,38.19,40.79,0,0,4.89-18,12.17-19.15l-27.07-36.17,3.73-48.75s-13-26-23.07,18c0,0-20.41-7.32-20.6,16.08,0,0-7.78,26.49-20,25.56C409.62,660.55,400.29,676.76,401.91,681.64Z"/><path class="Bletia-38" d="M530.37,599.34,542,632.07l1.61,24.43-13.18,23.39s-13.87,13-30.36-.6-15.33-22.38-15.33-22.38l-2.21-33.64L493,597.47l17.26-14.13Z"/><path class="Bletia-39" d="M482,607.29s-6,14.25-4.45,24.55c0,0,2.58,12.82-1.68,14,0,0,13.64,49.34,34.17,45.39,0,0,11.39-11.14-7.23-17.71,0,0-7.87-1.21-2.4-10.23,0,0-21.32-8.13-8.48-36.69,0,0,3.71-35.76,16-33.1,0,0,1.84,1.61,5.18-.34,11.84-4.25,20.21,30.72,20.21,30.72,16.47,26.63-3.6,37.48-3.6,37.48,6.6,8.22-1,10.46-1,10.46-17.61,9-4.85,18.51-4.85,18.51,20.87,1.22,27.93-49.48,27.93-49.48-4.37-.58-3.5-13.63-3.5-13.63.18-10.4-7.62-23.75-7.62-23.75s-16-31.86-27.92-29.34-13.17,10.39-13.17,10.39a9.61,9.61,0,0,1-9,7.53c-7.76.51-5.69,5.57-5.69,5.57S486.84,602.64,482,607.29Z"/><path class="Bletia-36" d="M404,711.57s27.5-7.42,26.59-21.22c0,0,.82-13.91,17.89-4.64,0,0,25.3,25.51,35.87,23.36,0,0,3.42-11.5,3.15-12.64l-41.4-46.94-28.7,11.41-15.08,20.92a24.06,24.06,0,0,0,1.54,10.29S405.23,707.58,404,711.57Z"/>
    </g>
</svg>