<svg xmlns="http://www.w3.org/2000/svg" viewBox="0 0 1080 1080">
    <defs>
        <style>.encyclia-1{fill:#4e6845;}.encyclia-2{fill:#c1bc51;}.encyclia-3{fill:#98a612;}.encyclia-4{fill:#7f7800;}.encyclia-5{fill:#918708;}.encyclia-6{fill:#846502;}.encyclia-7{fill:#7c4f00;}.encyclia-8{fill:#793909;}.encyclia-9{fill:#c1c144;}.encyclia-10{fill:#aca91c;}.encyclia-11{fill:#7f640a;}.encyclia-12{fill:#bec658;}.encyclia-13{fill:#dcd591;}.encyclia-14{fill:#c3b67e;}.encyclia-15{fill:#acb836;}.encyclia-16{fill:#d9da6d;}.encyclia-17{fill:#a3784e;}.encyclia-18{fill:#b3ad69;}.encyclia-19{fill:#816e30;}.encyclia-20{fill:#cec380;}.encyclia-21{fill:#e5e6a3;}.encyclia-22{fill:#d1cf52;}.encyclia-23{fill:#b2a76c;}.encyclia-24{fill:#dedc77;}.encyclia-25{fill:#a77673;}.encyclia-26{fill:#ebf2b9;}.encyclia-27{fill:#cdd284;}.encyclia-28{fill:#c789ad;}.encyclia-29{fill:#844352;}.encyclia-30{fill:#951d74;}.encyclia-31{fill:#cecd7b;}.encyclia-32{fill:#92146e;}.encyclia-33{fill:#e2eba2;}.encyclia-34{fill:#89561d;}.encyclia-35{fill:#f5f3a7;}
        </style>
    </defs>
    <title>ORCHIDS</title>
        <g id="encycliaTampensis"><circle class="encyclia-1" cx="540" cy="540" r="540"/><path class="encyclia-2" d="M492.09,538.35S373,624.6,351.43,624.6c0,0-56.47,14.37-135.53,121.15,0,0-67.76,99.59-38,144.77,0,0,4.11,14.37,20.54,9.24,0,0,12.32-5.14,23.61-4.11,0,0,45.18,0,112.94-77,0,0,115-156.07,162.23-181.73l45.17-64.69Z"/><path class="encyclia-3" d="M276.19,698s-67.47,51.82-90.06,122.66c0,0-12.78,44.5-6.39,73.59,0,0,5.36,8.55,15.63-1.72,0,0,14.37-8.21,28.75-6.16,0,0,32.2-4.49,67.95-35.1Z"/><path class="encyclia-4" d="M199.8,819.64s-1.35,25.7-9.57,37c0,0-12.32,32.85,0,32.85,0,0,16.43-4.11,21.57-11.29,0,0,7.18-5.14,11.29-1,0,0,9.24,10.27,20.53-23.61l-18.48-35.94Z"/><path class="encyclia-3" d="M497.9,542.26s-12-2.88-12,9.44c0,0-1,8.21-7.18,1,0,0-12.33-5.13-7.19,18.49,0,0,11.29,25.66,10.27,35.93,0,0-5.14,24.64,20.53,18.48l29.94-60.19Z"/><path class="encyclia-5" d="M431.52,587.63s46.2-40,47.23-24.64,19.5,41.07,19.5,41.07l-18.48,48.26-26.49,22.44Z"/><path class="encyclia-6" d="M408.93,605.09s42.09-29.78,44.15-23.62c0,0,9.24,18.48,4.1,34.91,0,0-6.16,23.62,4.11,25.67,0,0,16.55.74,1.6,23,0,0-74.81,78.93-112.13,132.71,0,0-90.71,103.12-121,62.54l12.84-63.17L359.17,635.35S402.77,612.27,408.93,605.09Z"/><path class="encyclia-7" d="M333,805.3s65.71-71.87,112.94-135.53-57.5,42.1-57.5,42.1-13.34,5.13,28.75-38c0,0,18.48-20.54,11.3-21.56,0,0-3.08-4.11-24.65,20.53,0,0-28.74,28.75-23.61,8.22,0,0-1-5.14,13.35-16.43,0,0,50.31-40,50.31-50.31,0,0,1-12.32-8.22-2.06,0,0-52.36,48.26-61.6,48.26,0,0-10.27,1-5.13-10.27,0,0,8.21-15.4,66.73-55.44L353.7,638.25s-51.18,32-58.55,43.57l-4.3,81.38Z"/><path class="encyclia-8" d="M365.29,632.3S224.63,714.43,201,802.73c0,0-8.22,35.94,15.4,32.86,0,0,11.29-2.06,10.26,15.4,0,0-3.08,19.51,29.78,11.29,0,0,66.74-31.83,103.7-91.38,0,0,27.21-42.6-3.6-23.1,0,0-9.24,1,8.22-21.56,0,0-2-14.37-24.64,13.35,0,0-34.91,19.51-15.4-13.35,0,0,30.8-32.85,31.82-42.09,0,0-5.13-14.38-46.2,27.72,0,0-22.59,8.21-7.19-13.35,0,0,16.43-27.72,61.61-54.42C364.78,644.1,385.31,625.62,365.29,632.3Z"/><path class="encyclia-2" d="M581,543.48s119.1,86.25,140.66,86.25c0,0,56.47,14.37,135.53,121.15,0,0,67.77,99.6,38,144.77,0,0-4.11,14.38-20.53,9.24,0,0-12.32-5.13-23.62-4.1,0,0-45.17,0-112.94-77,0,0-115-156.06-162.22-181.73l-45.18-64.68Z"/><path class="encyclia-3" d="M796.94,703.17S864.42,755,887,825.83c0,0,12.78,44.51,6.39,73.59,0,0-5.37,8.55-15.63-1.71,0,0-14.38-8.22-28.75-6.17,0,0-32.2-4.49-67.95-35.1Z"/><path class="encyclia-4" d="M873.33,824.78s1.36,25.7,9.57,37c0,0,12.32,32.85,0,32.85,0,0-16.43-4.1-21.56-11.29,0,0-7.19-5.13-11.29-1,0,0-9.24,10.27-20.54-23.61L848,822.75Z"/><path class="encyclia-3" d="M575.24,547.39s12-2.88,12,9.44c0,0,1,8.22,7.19,1,0,0,12.32-5.14,7.19,18.48,0,0-11.3,25.67-10.27,35.93,0,0,5.13,24.65-20.53,18.49l-29.95-60.19Z"/><path class="encyclia-5" d="M641.62,592.77s-46.2-40-47.23-24.64-19.51,41.06-19.51,41.06l18.48,48.26,26.5,22.44Z"/><path class="encyclia-6" d="M664.21,610.22s-42.1-29.77-44.15-23.61c0,0-9.24,18.48-4.11,34.91,0,0,6.16,23.61-4.1,25.66,0,0-16.56.75-1.61,23,0,0,74.82,78.93,112.14,132.71,0,0,90.71,103.13,121,62.54l-12.84-63.17L714,640.49S670.37,617.41,664.21,610.22Z"/><path class="encyclia-7" d="M740.19,810.43s-65.71-71.87-112.94-135.52S684.74,717,684.74,717s13.35,5.13-28.75-38c0,0-18.48-20.53-11.29-21.56,0,0,3.08-4.11,24.64,20.54,0,0,28.75,28.74,23.62,8.21,0,0,1-5.13-13.35-16.43,0,0-50.31-40-50.31-50.31,0,0-1-12.32,8.21-2.05,0,0,52.37,48.25,61.61,48.25,0,0,10.26,1,5.13-10.26,0,0-8.21-15.4-66.74-55.45l81.92,43.44s51.18,32,58.56,43.57l4.29,81.38Z"/><path class="encyclia-8" d="M707.84,637.43s140.67,82.14,164.28,170.44c0,0,8.21,35.93-15.4,32.85,0,0-11.29-2.05-10.27,15.4,0,0,3.08,19.51-29.77,11.3,0,0-66.74-31.83-103.7-91.38,0,0-27.21-42.61,3.59-23.1,0,0,9.24,1-8.21-21.56,0,0,2-14.38,24.64,13.34,0,0,34.91,19.51,15.4-13.34,0,0-30.8-32.86-31.83-42.1,0,0,5.13-14.37,46.2,27.72,0,0,22.59,8.21,7.19-13.35,0,0-16.43-27.72-61.6-54.41C708.36,649.24,687.82,630.76,707.84,637.43Z"/><path class="encyclia-9" d="M576.8,561.45S558.32,543,595.28,505c0,0,71.87-65.71,96.51-94.46,0,0,98.57-119.1,156.06-135.53,0,0,17.46-11.29,27.73-3.08,0,0,9.24,4.11,18.48,3.08,0,0,9.24-1,15.4,4.11,0,0,6.16,4.11,24.64,0,0,0,31.83-18.48,13.35,24.64,0,0-11.81,14.89-15.92,45.69,0,0,1,40.05-54.41,69.82,0,0-68.8,34.91-106.78,47.23,0,0-87.28,39-115,59.55C655.34,526,586.55,584.55,576.8,561.45Z"/><path class="encyclia-3" d="M762.53,351.33S804.9,292.22,837.16,279s42.52.11,42.52.11S890,274,903.3,284.24c0,0,17.45,6.16,32.85,0,0,0,14.48-14.49,17,.45,0,0-1.59,12.89-5.69,19.05,0,0-13.13,20-16.32,50.55,0,0-27.83,69.58-123.32,87C730.81,462.89,762.53,351.33,762.53,351.33Z"/><path class="encyclia-10" d="M542.92,550.16H529.57c-39,0-22.59-88.3-22.59-88.3,3.08-26.7-13.35-96.51-13.35-96.51-34.91-123.21-9.24-216.64-9.24-216.64C520.33,38.85,568.58,45,568.58,45l1.78-.31S619,43.38,643.8,156.27c0,0,16.23,95.52-30.77,214.64,0,0-23.3,67.83-22.9,94.7,0,0,7.55,89.5-31.27,85.61l-13.28-1.33Z"/><path class="encyclia-4" d="M614.79,132.28S587.06,48.09,561.4,57.33c0,0-24.64,8.21-45.18,78Z"/><path class="encyclia-5" d="M511.6,494.2c.51,4.62-1,33.88,21.56,24.64,0,0,25.67-4.1,33.88,6.16,0,0,11.3,9.24,11.3-34.91a244.56,244.56,0,0,1,.38-35.63l-64.06-4.36s.72,20.49-1.52,24.08A138.82,138.82,0,0,0,511.6,494.2Z"/><path class="encyclia-6" d="M514.58,459.15S514.45,490,532.93,490c0,0,20.53,2.14,27.74-4,0,0,18.05-10.43,20.5-49.32l-14.92-55.38-41.1,7S512.66,427.32,514.58,459.15Z"/><path class="encyclia-7" d="M502.36,348.41c2.57,11.8,6.67,67.25,12.32,82.13,0,0,9.24,31.83,18.48,8.22,0,0,10.27-38,24.64-30.8,0,0,11.3,9.24,11.3,27.72,0,0,3.08,39,15.4-11.3,0,0,11.81-40.55,15.4-62.63s8.73-26.18,17.45-52.36,2.06-51.34,12.32-88.3c0,0,13.35-81.11-14.37-73.92l-63.66,43.12-26-61.69s-16.09-10.18-28.41,28.83c0,0-18.48,52.37-9.24,103.7C488,261.13,499.79,336.6,502.36,348.41Z"/><path class="encyclia-11" d="M538.81,139.47s-15.4-35.94,6.16-39c6.42-.64,10,2.33,12.58,9.41,1.54,4.24-.26,11.13,3.85,17.29,0,0,5.13,8.21,11.29-3.08,1-4.11-1-4.11-3.12-9.35-.68-5.62,1.07-12.22,11.33-15.3,0,0,21.57-5.13,29.42,20.54l-6.83,71.87H538.81Z"/><path class="encyclia-8" d="M583.47,112.26s24.64-18.48,38,30.8c0,0,8.21,70.84,0,93.43,0,0-19.51,56.47-17.45,66.74,0,0-11.3,55.44-31.83,53.39,0,0-11.3,5.13-6.16-22.59,0,0,2.05-28.75-14.38-5.13,0,0-9.24,39-21.56,31.83,0,0-9.24-6.16-9.24-48.26,0,0,3.08-41.07-9.24-42.1,0,0-9.24,5.14,0,47.23,0,0,2,30.81-14.37-5.13,0,0-13.35-55.44,0-130.39,0,0,8.72-60.07,41.07-57.5,7.7-1.54,14.37,7.19,16.42,23.61,0,0,4.11,24.65,14.38,13.35,0,0,18.48-16.43,16.42-32.85C585.52,128.69,575.26,115.34,583.47,112.26Z"/><path class="encyclia-4" d="M885.84,391s32.92-43.66,38-51.34c12-18.24,28.49-39.85,15.74-47.82,0,0-6.57-5.09-30.11-1.46-13.35,2.05-21.56-13.35-38-5.14-7.4,3.7,1.24,15-6,17.84Z"/><path class="encyclia-3" d="M576,531.46c8.59-5.21,21.8-11.91,34.65-13.13,0,0,15.19,2.4,35.83-45.52L691.79,467,674,510.13s-63.14,14.44-81.78,55.78c-2.1,1.7-8.81.94-8.81.94s-10.8-2.54-11.29-19.37C571.66,547.08,571.66,539.89,576,531.46Z"/><path class="encyclia-5" d="M659,457.45c-2.78,2.8-22.75,17.66-5.58,26.19,0,0,15.32,13.14,12.62,23.59,0,0-.52,11.74,28.46-12.07a229.71,229.71,0,0,1,23.58-19L689.44,435.5s-13.1,11.48-16.55,12.07A130,130,0,0,0,659,457.45Z"/><path class="encyclia-6" d="M667.66,452.81s-19.68,17.26-9.32,29.06c0,0,10.19,14.26,18.15,15.4,0,0,16.8,5.61,42.93-14.72l26.83-40.67-27.6-22.2S686.83,433.67,667.66,452.81Z"/><path class="encyclia-7" d="M722.56,404.23c-5.53,7-35.24,35.36-41.08,45.58,0,0-13.82,20.21,4,14.43,0,0,26.51-11.94,29.17-.34,0,0,0,10.79-10.51,19.46,0,0-20.82,20.06,13.69,3.52,0,0,28.7-12.26,43-20.56s19-7.28,38.1-14.57,30.26-22.9,56.19-34.36c0,0,20.9-9.85,40-38.7l14.38-20.53-73.47.12,23-43.81s-1.76-14-29.83-2.74c0,0-38.57,14-63.53,43.34C765.61,355.07,728.09,397.23,722.56,404.23Z"/><path class="encyclia-11" d="M829.37,304.77s53.14-33.49,67-17.63c3.88,4.88,3.08,9.5-1.94,15.59-3,3.65-10.1,6.07-13.51,12.91,0,0-4.71,8.83,8.58,7.48,4.21-1.49,3.15-3.16,6.76-7.83,4.68-3.73,11.49-6,19.54.61,0,0,15.7,14.7-3.25,35.61l-67.88,35-52.26-48.92Z"/><path class="encyclia-8" d="M908.58,319s24.57,2.92.48,39.46c0,0-40.37,46.37-58.92,55.08,0,0-45.84,22.36-51.24,29.56,0,0-40.88,26.36-50.35,13.63,0,0-9.16-3.3,11-16.77,0,0,19.2-15.79-4.3-11.08,0,0-29.45,17.82-31.37,6.67,0,0-1-8.81,25.59-33.63,0,0,27.51-22.48,21.7-30,0,0-8.08-2.15-29.78,27.85,0,0-18.35,19.31-4.3-11.09,0,0,28-40.17,82.24-76.87,0,0,42.45-30.52,57.78-10.87,5,3.41,3,12.29-6.28,23.13,0,0-13.39,16.83-.89,15.93,0,0,20,.67,29.34-10.16C899.3,329.81,902.33,316.18,908.58,319Z"/><path class="encyclia-9" d="M522.63,547s16.82-20-23.27-54.67c0,0-77.26-59.28-104.29-85.8,0,0-108.45-110.17-167.14-121.59,0,0-18.37-9.75-27.89-.69,0,0-8.85,4.89-18.15,4.66,0,0-9.29-.22-15,5.42,0,0-5.78,4.62-24.55,2.12,0,0-33.3-15.67-11.17,25.7,0,0,13,13.82,19.78,44.15,0,0,2.43,40,60.23,64.88,0,0,71.54,28.86,110.45,37.86,0,0,90.3,31.36,119.69,49.43C441.33,518.45,514.9,570.84,522.63,547Z"/><path class="encyclia-3" d="M319.5,353.62S272.2,298.38,238.93,288s-42.36,3.78-42.36,3.78-10.67-4.23-23.09,7.15c0,0-16.86,7.64-32.73,2.82,0,0-15.67-13.18-16.89,1.92,0,0,2.69,12.71,7.32,18.49,0,0,14.79,18.77,20.6,48.95,0,0,33.72,66.93,130.35,76.1C360.71,462,319.5,353.62,319.5,353.62Z"/><path class="encyclia-4" d="M200.06,403.78s-36.55-40.66-42.26-47.88C144.25,338.77,126,318.65,138,309.61c0,0,6.11-5.63,29.88-4.05,13.47.9,20.33-15.15,37.4-8.38,7.69,3.05.06,15,7.52,17.25Z"/><path class="encyclia-3" d="M520.81,517c-9-4.45-22.74-10-35.65-10.09,0,0-14.92,3.7-39.61-42.27l-45.62-1.9,21.41,41.45s64.15,8.95,86.28,48.54c2.24,1.51,8.85.17,8.85.17s10.55-3.46,9.59-20.27C526.51,532.22,525.89,525.06,520.81,517Z"/><path class="encyclia-5" d="M431.79,450.44c3,2.55,24.18,15.64,7.81,25.62,0,0-14.13,14.41-10.54,24.59,0,0,1.53,11.65-29.39-9.58a228.82,228.82,0,0,0-25.12-16.89l25-43s14,10.32,17.53,10.61A129.52,129.52,0,0,1,431.79,450.44Z"/><path class="encyclia-6" d="M422.76,446.56s21.08,15.5,11.78,28.15c0,0-8.93,15.09-16.76,16.91,0,0-16.25,7-44-11l-30.24-38.21,25.59-24.5S402,429.14,422.76,446.56Z"/><path class="encyclia-7" d="M363.87,402.89c6.12,6.51,38.16,32.2,44.86,41.87,0,0,15.51,19-2.75,14.73,0,0-27.44-9.62-29.09,2.16,0,0,.89,10.77,12.15,18.49,0,0,22.47,18.2-13.34,4.69,0,0-29.65-9.75-44.6-16.79s-19.6-5.61-39.21-11.23S259.77,436.6,233,427.41c0,0-21.67-8-43.15-35.11l-16.09-19.22,73.21-6.2L220.25,325.2s.55-14.09,29.48-5.3c0,0,39.63,10.61,67,37.72C316.75,357.62,357.76,396.39,363.87,402.89Z"/><path class="encyclia-8" d="M171.21,334s-24.23,5,2.91,39.35c0,0,44.22,42.72,63.45,49.81,0,0,47.59,18.33,53.59,25,0,0,43,22.74,51.34,9.25,0,0,8.84-4.09-12.42-15.76,0,0-20.5-14.09,3.32-11.42,0,0,30.88,15.22,31.84,3.95,0,0,.19-8.86-28.39-31.3,0,0-29.35-20-24.21-28,0,0,7.87-2.84,32.07,25.18,0,0,19.94,17.66,3.33-11.42,0,0-31.33-37.61-88.55-69.51,0,0-44.92-26.75-58.5-5.86-4.7,3.83-1.94,12.51,8.25,22.51,0,0,14.78,15.61,2.25,15.79,0,0-19.92,2.4-30.1-7.6C181.39,344,177.19,330.64,171.21,334Z"/><path class="encyclia-12" d="M499.28,563.66s20.53-5.8,21.56-22.23c0,0,3.08-14.37,24.64-15.4,0,0,15.4-2,21.56,12.32,0,0,0,21.56,18.48,13.35,0,0-6.16,27.72,21.57,20.53l-23.11,21-31.11,6-49.48-8.52Z"/><path class="encyclia-13" d="M557.47,862.79c13.28-2.44,16.79,11.83,16.79,11.83,30.21,14.52,74-.13,74-.13,11-8.54,23.66,1.35,23.66,1.35,6.43,9.06,21.55-.63,21.55-.63,16.06-12.8,11.8-17.81,11.8-17.81-4.86-25.54,2-37,2-37,3.92-6.28,1.57-16.48,1.57-16.48a27.39,27.39,0,0,1,1.62-14.43c5-5.28,3.38-24.75,3.38-24.75-1.45-14.34,13.55-28.14,13.55-28.14,9.84-14.67-8.54-11-8.54-11-21.37,6.79-16.65-7-16.65-7l-.69-23.26c-3.62-18.38-26.68.79-26.68.79-12.16,5.5-21.49,2.69-21.49,2.69-10.51-7.9-33.3-14.42-33.3-14.42-17.56-3.59-17-22.71-17-22.71L584.5,659.5l-70.85,6.16s-1.54,15.92-19,20c0,0-22.59,7.18-32.86,15.4,0,0-9.24,3.08-21.56-2.06,0,0-23.61-18.48-26.69,0V722.3s5.13,13.7-16.43,7.54c0,0-18.48-3.08-8.21,11.29,0,0,15.4,13.35,14.37,27.72,0,0-1,19.51,4.11,24.64a27.34,27.34,0,0,1,2.05,14.38s-2.05,10.26,2.05,16.42c0,0,7.19,11.3,3.08,37,0,0-4.1,5.13,12.33,17.45,0,0,15.4,9.24,21.56,0,0,0,12.32-10.27,23.61-2.05,0,0,44.15,13.34,73.93-2.06,0,0,3.08-14.37,16.42-12.32"/><path class="encyclia-14" d="M522.89,652.32s-14.37,16.42-5.13,34.91c0,0,10.27,16.42,30.8,18.48,0,0,33.88-2.06,46.21-13.35,0,0,10.26-39,3.08-49.28l-25.67-30.81H538.3Z"/><path class="encyclia-15" d="M559.35,606.57,590.13,598s-7.57-39.49-4.45-45.87c0,0,3.94-7.58-12.28.65,0,0-9.25,4.46-17.21,5.42l-1.47-.36s-4.1-3.08-6.16,0a4.16,4.16,0,0,1-.5.61v-.1c-8.21,1-19.51-2-19.51-2-17.45-5.14-12.2,1.6-12.2,1.6,4.23,5.71,4,45.92,4,45.92l31.83,2.79L549,569.15h6.68Z"/><path class="encyclia-16" d="M565.21,562.15l-4.31.73h0l-1.16.21c-5.08.73-17,.85-17,.85v0c-2.41,0-4.5.06-4.5.06-18.49-2-15.41,46.2-15.41,46.2l29.78-3.08h6.16l.09-.16,0,.19,29.83-2.4S583,556.76,565.21,562.15Z"/><path class="encyclia-17" d="M524.43,642.56s18.49,9.24,32.86,5.14V612.79Z"/><path class="encyclia-18" d="M510.57,659.5l13.35-1s-9.24,22.59,2.05,32.85c0,0,9.25,9.24-2.05,8.22,0,0-11.29-7.19-11.29-13.35,0,0-14.38,27.72-25.67,30.8,0,0-7.19,8.21-14.38,8.21,0,0-18.48,6.17-20.53,15.41,0,0-9.24,7.18-4.11-5.14,0,0,13.35-19.51,28.75-20.53,0,0,11.3-3.08,20.54-21.56,0,0-1-7.21,3.08-9.26C500.31,684.13,512.63,678,510.57,659.5Z"/><path class="encyclia-18" d="M603.3,658.54l-13.37-.63s9.9,22.3-1.08,32.9c0,0-9,9.51,2.29,8.15,0,0,11.08-7.52,10.9-13.68,0,0,15.19,27.29,26.57,30,0,0,7.42,8,14.61,7.79,0,0,18.65,5.61,21,14.79,0,0,9.45,6.91,3.95-5.26,0,0-13.92-19.1-29.34-19.67,0,0-11.38-2.75-21.16-21,0,0,.81-7.24-3.36-9.16C614.29,682.85,601.8,677.07,603.3,658.54Z"/><path class="encyclia-19" d="M485.42,669.26s26.69,2,34.91-6.16l-9.24-17.46-25.21,1.87Z"/><path class="encyclia-20" d="M510.06,655.91s-23.61-14.37-26.69,3.08l18.48-33.88,18.48,5.13S520.33,660,510.06,655.91Z"/><path class="encyclia-21" d="M479.77,641h27.72l13.35-10.26,2-20.54-10.26-18.48-19.51-12.32c11.29,24.64-17.45,61.6-17.45,61.6"/><path class="encyclia-22" d="M494.15,551.7s20.37,21.54,14.8,27.71l-9.67,5.14S484.91,562,485.93,551.7C485.93,551.7,490,546.56,494.15,551.7Z"/><path class="encyclia-23" d="M506,635.35s-17.46,18.51-6.17,33.91c0,0-14.37,2-24.12-2.59C475.67,666.67,489.53,635.33,506,635.35Z"/><path class="encyclia-24" d="M485.93,551.7s-5.13,33.88,17.46,39c0,0,27.72,18.48,9.24,43.13a144.89,144.89,0,0,1-32.86,0s-13.35,2-13.35,5.13c0,0-21.56-7.19-10.26,7.19,0,0,5.13,4.1,8.21,3.08,0,0,7.19,22.59,21.56,19.5,0,0-2.05-28.74,21.56-26.69S528,606.11,528,606.11s-10.27-27.72-28.75-30.8C499.28,575.31,484.91,565.05,485.93,551.7Z"/><path class="encyclia-21" d="M472.72,635.35s5.51,7.21.38,14.4c0,0-1.13,7.78,12.78,13.64l-.46,5.87s-14.38,2-21.56-19.51c0,0-10.88-1.12-10.58-11.34,0,0,1.85-5.6,13.14.56C466.42,639,467.72,635.84,472.72,635.35Z"/><path class="encyclia-25" d="M516.22,638.46s-15.4,10.26-6.16,21.56c1,2.05,14.37,15.4,31.83-1l-6.16-31.83Z"/><path class="encyclia-26" d="M494.15,845.34S485.93,842.26,488,832c0,0,3.08-15.4-8.22,0,0,0-7.19,13.35-19.51,13.35,0,0-22.58,8.22-23.61,26.7,0,0-2.85,10.28,4.74,10.27,0,0,3.47,2.05,14.77-11.3l46.2-11.29S518.79,841.24,494.15,845.34Z"/><path class="encyclia-27" d="M389.42,740.62s11.29,3.08,19.51,2c0,0,10.27-3.08,5.13,7.19,0,0-5.13,13.34-1,15.4,0,0,4.11,4.1,6.17-2.06,0,0,6.16-9.24,9.24,3.08,0,0-3.08,19.51-10.27,18.49,0,0-3.08-1-2.06-6.17,0,0,1-3.08-4.1-4.1,0,0-6.33-.39-9.84-14.06C402.17,760.44,399.69,750.88,389.42,740.62Z"/><path class="encyclia-28" d="M563.64,845.66,597,861.11l52.72-20.68c8.27,4.26,4.93-9.79,4.93-9.79-.28-9.23,11.34,1.72,11.34,1.72,7.46,9,8.22-.24,8.22-.24,1.77-9.3-15.53-38.57-15.53-38.57-10.47-6.88-5.46-11.14-5.46-11.14,6.19.84,23.49,30.12,23.49,30.12,10.72,15.09,10.44,5.85,10.44,5.85,1.66-13.4-18.84-46.69-18.84-46.69-6.58-14.18,8.24.79,8.24.79,9.69,15.12,8.36,4.88,8.36,4.88,2.66-14.46-7.7-17.23-7.7-17.23-4,2.17-9.57-11-9.57-11-9.84-20.25-21-14.78-21-14.78-10.57-10-33.14-9.29-33.14-9.29-15.37,1.48-18.75-8.7-18.75-8.7-15-20.1-29.94-5.27-29.94-5.27-8.41,3.3-14.18-.23-14.18-.23s-15.4-14.37-29.78,6.16c0,0-3.08,10.27-18.48,9.24,0,0-22.59,0-32.86,10.27,0,0-11.29-5.13-20.53,15.4,0,0-5.13,13.35-9.24,11.29,0,0-10.27,3.08-7.19,17.46,0,0-1,10.27,8.22-5.14,0,0,14.37-15.4,8.21-1,0,0-19.51,33.88-17.45,47.23,0,0,0,9.24,10.26-6.16,0,0,16.43-29.78,22.59-30.8,0,0,5.13,4.1-5.13,11.29,0,0-16.43,29.77-14.38,39,0,0,1,9.25,8.22,0,0,0,11.29-11.29,11.29-2.05,0,0-2.93,14.14,5.21,9.64l53.31,19.11,32.86-16.43Z"/><path class="encyclia-29" d="M481.83,748.83s-5.14-2.05-15.41,9.24c0,0-26.69,35.94-27.72,52.36,0,0,2.06,3.08,10.27-14.37,0,0,20.53-31.83,26.7-37C475.67,759.1,487,750.88,481.83,748.83Z"/><path class="encyclia-30" d="M513.65,731.38s-21.56-4.11-23.61,11.29c0,0,0,18.48-6.16,22.59,0,0-14.38,15.4-14.38,23.61,0,0-12.32,14.38-12.32,28.75,0,0,4.11,6.16,7.19-8.21,0,0,23.62-46.21,22.59-26.7,0,0,0,13.35-6.16,18.48,0,0-14.38,14.38-11.3,23.62,0,0,2.06,8.21,8.22-5.14,0,0,19.51-29.77,21.56-26.69a13.72,13.72,0,0,1,3.08,11.29s-8.21,10.27-5.13,13.35c0,0,8.21-1,10.26-13.35a56.13,56.13,0,0,0,4.11-20.53s-7.19-12.32-4.11-19.51c0,0,13.35-31.83,13.35-15.4,0,0-1,22.59,2,25.67,0,0,2.06,13.35,0,19.51,0,0-10.26,15.4-8.21,22.58,0,0-4.11,12.32-7.19,12.32,0,0-5.13,7.19,6.16,2.06,0,0,8.22-9.24,7.19-20.54,0,0,6.16-16.42,7.19-1,0,0-1,19.5-7.19,30.8,0,0-3.08,11.29,4.11,3.08,0,0,14.37-22.59,13.35-34.91,0,0-4.11-30.8-2.06-44.15,0,0,7.19-33.88,5.14-42.1,0,0-4.11-20.53-16.43-2C525,720.08,519.81,733.43,513.65,731.38Z"/><path class="encyclia-26" d="M625.22,843.84s8.12-3.32,5.76-13.52c0,0-3.53-15.31,8.21-.25,0,0,7.58,13.13,19.89,12.77,0,0,22.83,7.54,24.4,26,0,0,3.15,10.2-4.43,10.42,0,0-3.42,2.14-15.1-10.87l-46.52-9.92S600.47,840.46,625.22,843.84Z"/><path class="encyclia-31" d="M562.94,862.8c-14.38-2.06-16.43,11.29-16.43,11.29-4.11,3.08-22.68,7.09-22.68,7.09-22.68,4-49.72-4-49.72-4a20.65,20.65,0,0,0-25.14,1l4.11-8.22s11.29-13.34,32.85-13.34c0,0,13.35-3.08,13.35-6.16,0,0,3.08-11.3,12.32,2a18.48,18.48,0,0,0,20.54-2s9.24-13.35,13.34-12.33c0,0,6.16-3.08,5.14-9.24,0,0-2.18-19.6,6.29-24a6.7,6.7,0,0,1,3-.63c7.94-3.28,8.43,24.82,8.43,24.82-.85,6.19,5.4,9.08,5.4,9.08,4.08-1.14,13.71,11.93,13.71,11.93A18.47,18.47,0,0,0,608,851.54c8.84-13.61,12.26-2.42,12.26-2.42.09,3.08,13.52,5.77,13.52,5.77,21.55-.64,33.24,12.37,33.24,12.37l4.34,8.09a20.64,20.64,0,0,0-25.16-.23s-26.79,8.77-49.57,5.42c0,0-18.69-3.46-22.88-6.42,0,0-2.45-13.28-16.76-10.8"/><path class="encyclia-27" d="M726.8,736.06s-11.2,3.42-19.44,2.63c0,0-10.35-2.77-4.92,7.34,0,0,5.53,13.19,1.49,15.36,0,0-4,4.23-6.22-1.87,0,0-6.43-9-9.15,3.35,0,0,3.66,19.41,10.81,18.17,0,0,3-1.11,1.87-6.21,0,0-1.12-3.05,4-4.23,0,0,6.31-.57,9.41-14.34C714.64,756.26,716.84,746.63,726.8,736.06Z"/><path class="encyclia-29" d="M634.68,747s5.07-2.21,15.67,8.78c0,0,27.74,35.13,29.25,51.52,0,0-2,3.14-10.68-14.07,0,0-21.47-31.2-27.78-36.15C641.14,757.09,629.61,749.21,634.68,747Z"/><path class="encyclia-30" d="M602.35,730.5s21.43-4.74,23.94,10.59c0,0,.54,18.47,6.82,22.4,0,0,14.83,15,15.07,23.18,0,0,12.74,14,13.16,28.37,0,0-3.92,6.28-7.42-8,0,0-25-45.48-23.37-26,0,0,.39,13.34,6.7,18.29,0,0,14.8,13.94,12,23.27,0,0-1.81,8.27-8.36-4.89,0,0-20.38-29.19-22.34-26.05A13.73,13.73,0,0,0,615.79,803s8.52,10,5.53,13.19c0,0-8.24-.78-10.66-13a56.07,56.07,0,0,1-4.71-20.4s6.82-12.53,3.53-19.62c0,0-14.28-31.42-13.8-15,0,0,1.69,22.55-1.29,25.72,0,0-1.66,13.4.57,19.5,0,0,10.72,15.09,8.88,22.33,0,0,4.47,12.2,7.55,12.1,0,0,5.34,7-6.1,2.24,0,0-8.48-9-7.79-20.31,0,0-6.64-16.24-7.21-.82,0,0,1.6,19.47,8.09,30.58,0,0,3.41,11.2-4,3.2,0,0-15-22.15-14.38-34.5,0,0,3.2-30.91.75-44.19,0,0-8.18-33.66-6.37-41.93,0,0,3.49-20.64,16.36-2.53C590.73,719.55,596.25,732.74,602.35,730.5Z"/><path class="encyclia-32" d="M562.94,797.09c-3.41,3.83-11.3,5.13-11.3,5.13-15.4,0-2-37-2-37,4.11-5.14-2.05-16.43-2.05-16.43-3.08-2.05-2.06-26.7-2.06-26.7-1-14.37,8.22-6.16,8.22-6.16s8.21,6.16,9.24,8.22c0,0,4.1,4.11,0,18.48,0,0-1,12.32,1,16.43C564,759.1,571.15,787.85,562.94,797.09Z"/><path class="encyclia-33" d="M388.91,740.1s-11.3-12.32,8.21-10.26c0,0,32.34,4.62,34.4,14.88,0,0-2.06,8.22,7.18,9.24,0,0,11.3,2.06,0,9.24,0,0-21.56-2.05-21.56-12.32,0,0,2.06-12.32-8.21-8.21C408.93,742.67,401.74,746.78,388.91,740.1Z"/><path class="encyclia-33" d="M499.28,684.13s-25.67,6.18-38,16.44c0,0-16.45,3.57-25.16-4.37,0,0-18-14.11-21,2.32,0,0,2.05,13.35,11.29,13.35s8.22,9.24,8.22,9.24-4.11,11.29,14.37,0c0,0,10.27-8.22,18.48-7.19a14,14,0,0,0,12.32-13.35s-2-5.13,7.19-6.16C487,694.41,507.49,686.18,499.28,684.13Z"/><path class="encyclia-33" d="M727.51,735s10.82-12.74-8.6-10c0,0-32.14,5.82-33.81,16.16,0,0,2.36,8.13-6.84,9.5,0,0-11.21,2.48.35,9.24,0,0,21.47-2.86,21.08-13.12,0,0-2.51-12.24,7.9-8.52C707.59,738.28,714.93,742.12,727.51,735Z"/><path class="encyclia-33" d="M616.14,684.2s25.88,5.21,38.58,15c0,0,16.57,2.94,25-5.32,0,0,17.42-14.77,21.11,1.53,0,0-1.55,13.42-10.79,13.76s-7.86,9.55-7.86,9.55,4.53,11.13-14.36.53c0,0-10.57-7.82-18.74-6.49a14,14,0,0,1-12.81-12.87s1.86-5.21-7.41-5.89C628.84,694,608,686.55,616.14,684.2Z"/><path class="encyclia-19" d="M624.49,665.33s-26.56,3.41-35.18-4.38l8.34-17.9,25.27.59Z"/><path class="encyclia-20" d="M599.2,653.25S622.05,637.69,626,655l-20.18-32.9-18.2,6.07S589.15,657.87,599.2,653.25Z"/><path class="encyclia-21" d="M628.69,636.84,601,638.25l-13.86-9.57-3.09-20.41,9.32-19L612.23,576c-10,25.18,20.56,60.63,20.56,60.63"/><path class="encyclia-22" d="M609.8,548.36s-19.25,22.56-13.38,28.43l9.92,4.65S619.55,558.15,618,548C618,548,613.64,543,609.8,548.36Z"/><path class="encyclia-23" d="M602.25,632.51s18.38,17.59,7.88,33.55c0,0,14.46,1.28,24-3.81C634.1,662.25,618.66,631.65,602.25,632.51Z"/><path class="encyclia-24" d="M618,548s6.85,33.57-15.45,39.85c0,0-26.74,19.86-7,43.53a144.67,144.67,0,0,0,32.82-1.67s13.43,1.38,13.59,4.45c0,0,21.17-8.27,10.62,6.66,0,0-4.92,4.36-8,3.49,0,0-6,22.93-20.54,20.58,0,0,.59-28.81-22.89-25.56s-22.34-34.85-22.34-34.85,8.85-28.21,27.15-32.22C605.87,572.21,619.7,561.22,618,548Z"/><path class="encyclia-21" d="M635.45,630.82s-5.14,7.48.35,14.4c0,0,1.53,7.71-12.07,14.28l.76,5.83S639,666.65,645,644.75c0,0,10.81-1.67,10-11.86,0,0-2.13-5.5-13.09,1.22C641.92,634.11,640.46,631.06,635.45,630.82Z"/><path class="encyclia-25" d="M607.07,638s13.35,12.82,2.26,22.31c-1.37,1.84-16.86,12.62-31.15-6.63l11.68-30.24Z"/><path class="encyclia-29" d="M583.84,629.28l-26.53,4.59-19.6-3.39s-11.06,33.45-.28,32.25c0,0,6-8.38,6,3.59,0,0,1.2,6,3.6,0,0,0,2.39-3.59,0,9.58,0,0-1.2,9.58,4.78-2.4,0,0,6-9.57,8.39-2.39l1.19-1.2c2.4-7.18,8.38,2.4,8.38,2.4,6,12,4.79,2.39,4.79,2.39-2.39-13.17,0-9.58,0-9.58,2.4,6,3.59,0,3.59,0,0-12,6-3.59,6-3.59C594.9,662.73,583.84,629.28,583.84,629.28Z"/><path class="encyclia-34" d="M538.3,621.52s3.08,29.77,16.42,30.8c0,0,22.59,0,21.56-26.7l-4.1-13.35Z"/><path class="encyclia-35" d="M556.73,627.79a5.65,5.65,0,0,1-3-2.17c-16.43-6.16-1,5.14-1,5.14,4.11,5.13-3.08,4.1-3.08,4.1-11.29-4.1-24.64,7.19-24.64,7.19-10.27,12.32-12.49,6.65-12.49,6.65-4.27-3.61,7.67-13.35,7.67-13.35l7.47-16s6.69-45.52,22-43.75a9.22,9.22,0,0,0,6.52,0c14.77-4.54,29.65,39,29.65,39L596.07,629s13.52,7.4,10,11.73c0,0-1.15,6-13.49-4.26,0,0-15.19-8.68-25.54-2.58,0,0-6.88,2.32-3.78-3.48,0,0,13.08-13.91-2-4.86a6,6,0,0,1-1.56,2.05C559,628.19,557.35,627.93,556.73,627.79Z"/>
    </g>
</svg>