<svg xmlns="http://www.w3.org/2000/svg" viewBox="0 0 1080 1080">
    <defs>
        <style>
            .graminea-1{fill:#4e6845;}.graminea-2{fill:#6c7e17;}.graminea-3{fill:#8f891c;}.graminea-4{fill:#acb438;}.graminea-5{fill:#e0e282;}.graminea-6{fill:#d2b8a7;}.graminea-7{fill:#896240;}.graminea-8{fill:#9bb09b;}.graminea-9{fill:#252803;}.graminea-10{fill:#40410b;}.graminea-11{fill:#5d5338;}.graminea-12{fill:#333900;}.graminea-13{fill:#5f6924;}.graminea-14{fill:#b6c12a;}.graminea-15{fill:#93a55c;}.graminea-16{fill:#535416;}.graminea-17{fill:#9ea879;}.graminea-18{fill:#7b9034;}.graminea-19{fill:#9dae91;}.graminea-20{fill:#5a452f;}.graminea-21{fill:#abc39f;}.graminea-22{fill:#dee6f8;}.graminea-23{fill:#c3cbdf;}.graminea-24{fill:#a2adc0;}.graminea-25{fill:#939787;}.graminea-26{fill:#9faac3;}.graminea-27{fill:#c0bcde;}.graminea-28{fill:#ac9eb8;}.graminea-29{fill:none;stroke:#7b9034;stroke-miterlimit:10;}.graminea-30{fill:#a667a6;}.graminea-31{fill:#a37eb6;}.graminea-32{fill:#a662b1;}.graminea-33{fill:#ba8bcf;}.graminea-34{fill:#9b7faf;}.graminea-35{fill:#9b82a5;}.graminea-36{fill:#bb66ba;}.graminea-37{fill:#cda4e4;}.graminea-38{fill:#900d6e;}.graminea-39{fill:#c436a0;}.graminea-40{fill:#a52b82;}.graminea-41{fill:#681b4d;}.graminea-42{fill:#bdafda;}.graminea-43{fill:#6e6f32;}.graminea-44{fill:#959475;}.graminea-45{fill:#423120;}.graminea-46{fill:#45330e;}.graminea-47{fill:#5e4f2a;}.graminea-48{fill:#59203d;}.graminea-49{opacity:0.89;}.graminea-50{fill:#c4ba84;}.graminea-51{fill:#e6d546;}.graminea-52{fill:#665817;}.graminea-53{fill:#a7a438;opacity:0.72;}.graminea-54{fill:#c2a784;opacity:0.55;}.graminea-55{fill:#8e4055;}
        </style>
    </defs>
    <title>ORCHIDS</title>
        <g id="eulophiaGraminea"><circle class="graminea-1" cx="540" cy="539" r="540"/><g id="petals"><g id="top_petal"><path class="graminea-2" d="M581,471.35s7.72-65.63,29-108.1c0,0,23.17-73.36-7.72-137.06,0,0-17.37-63.71-56-63.71,0,0-17.37-1.93-21.24,1.93a20.38,20.38,0,0,1-11.58,0s-29-5.79-42.47,27c0,0-25.09,102.31-13.51,152.5,0,0,5.79,32.82,3.86,52.13,0,0-1.93,146.71,30.89,164.08,0,0,77.21,32.82,86.87-56Z"/><path class="graminea-3" d="M461.33,407.14s17.76,65.93,20,18.26L494,378.34s4.92,16.06,8.78,0c0,0,15.81,29.16,29.14-4.07,0,0,28-6.4,35.13-35.26,0,0,12.21,5.35,19.34-16.57l7.13-14.21-1.94-90.73-117.75,5.79L457.46,343.94S464.24,380.57,461.33,407.14Z"/><path class="graminea-4" d="M456.71,340.3S470,397,489.31,371.94l-3.86-23.17-5.79-40.54,1.93-40.54L466.15,260s1.15,11-10,19C456.1,279,453.06,326.05,456.71,340.3Z"/><path class="graminea-4" d="M617.83,287.75s2.75,43.65-14.62,53.3c0,0-13.52,7.72-13.52-17.38l1.93-28.95v-29s7.86-38.16,18.41-20C610,245.72,617,271.14,617.83,287.75Z"/><path class="graminea-5" d="M535.64,177s6.21-17.54,28.2-9.73c0,0,26.27,9.9,43.43,70.62,0,0,.84,50.81-30.57,40.33,0,0-29.67-10.66-37.29-2.85,0,0-22.53,20.85-35.35,8.53,0,0-41.77,12.79-37.91-23.89,0,0,.92-70.67,20.73-89.39,0,0,7.76-5.4,16.68-6.27,0,0,2.48-1.87,10.52,11.18C514.08,175.49,526,186.61,535.64,177Z"/><path class="graminea-6" d="M495.1,186.61s-12.62,45.58-1.48,76.85c0,0,9.2,23.54,20.79-1.56,0,0,8.91-16.85,15.07-17.11,0,0,21.61-13.78,29.33-2.19,0,0,2.89,30.86,9.16,30.87,0,0,25.59,11.6,17.86-23.15,0,0-15.27-49.25-23.07-57.44,0,0-8.07-28.43-34-19.28C528.76,173.6,500.89,169.24,495.1,186.61Z"/><path class="graminea-7" d="M487.38,256.11s-9.65,54.05,3.86,96.52c0,0,7.72,56,5.79,115.83,0,0-1.93,32.81,0,34.75s5.79,9.65,5.79-27V371.94s0-30.89-3.86-52.13c0,0-15.44-102.31,3.86-137.06,0,0,9.66-11.58,3.87,9.65,0,0-9.66,32.82-3.87,77.22,0,0,5.8,63.71,5.8,86.87,0,0,1.93,139,1.93,152.51,0,0,5.79,30.88,11.58-11.59,0,0,5.79-44.4,3.86-90.73,0,0,0-11.58,3.86-21.23,0,0,3.86-7.72,1.93-34.75,0,0,1.93-127.41-11.58-181.46,0,0,3.86-7.72,7.72,0,0,0,13.51,65.63,11.58,139,0,0,1.93,84.94-5.79,96.52,0,0-1.93,21.24,0,27,0,0,11.58,42.47,21.24-17.37,0,0,5.79-57.92,11.58-71.43a251,251,0,0,0,1.93-52.12s1.93-56-23.17-110c0,0-5.79-9.65,5.8-5.79,0,0,11.58,7.72,19.3,42.47,0,0,9.65,56,5.79,100.38,0,0-3.86,50.19-7.72,61.78,0,0-11.58,44.4-1.93,40.54,0,0,5.79,1.93,13.51-48.26,0,0,11.58-69.5,7.72-104.25,0,0,0-19.3,5.8-5.79,0,0,5.79,32.82,0,73.36,0,0-17.38,113.89-17.38,129.34,0,0,.43,64.86-11.37,81.66,0,0-81.29-6.38-79.36-50.78,0,0,0-40.54-3.86-63.7,0,0-1.93-30.89,1.93-54,0,0,1.93-11.59-3.86-30.89,0,0-9.65-44.4-1.93-83,0,0,3.86-19.3,7.72-15.44A20,20,0,0,1,487.38,256.11Z"/><path class="graminea-8" d="M485.24,171.78s-15.23,11-19,41.4c0,0-6.35,32.59-7.07,40.66,0,0-2.65,19.64-2.65,25.43A30.14,30.14,0,0,0,465.71,265s.7-30.79,4.43-49.74C470.14,215.21,473.44,185.91,485.24,171.78Z"/></g><g id="left_petal"><path class="graminea-9" d="M457.46,537S384.1,550.5,310.75,521.54c0,0-108.11-52.12-121.62-52.12,0,0-9.65,1.93-32.82-15.44,0,0-50.19-30.89-79.15-27,0,0,0-7.72-11.58,0,0,0-38.61,29-23.17,73.36,0,0,23.17,79.15,63.71,102.31,0,0,63.7,38.61,150.57,32.82,0,0,84-12.55,124.52-6.76,0,0,88.8,11.59,129.34-34.74l-25.1-67.57S468.08,534.09,457.46,537Z"/><path class="graminea-10" d="M207.57,634.24s72.29-6.52,89.66-22-47.29-16.41-47.29-16.41,60.81-1,28-28l-34.75,5.79-43.36-13.62s51.08-11.48,43.36-21.13c0,0,36.68-9.65,15.44-21.24l-103.35-55-105.45,56s21,57.27,41.55,72.55c-.69-.16,42,36,116.2,43"/><path class="graminea-11" d="M54.7,533.24s24.39,23,24.39,1.82c0,0,23.17,33.53,25.1-1.58l10.93-100s-28.31-10.37-38-6.51h0L42.42,459s-9.47,18.58-.88,38.63a350.26,350.26,0,0,1,13.16,35.6"/><path class="graminea-12" d="M178.51,580.42l27,11.59,27-3.87,17.38,7.73s-7.05-17.19-30.55-26.94S192,555.33,192,555.33l-29-27,16-17.34,32.28,19.27,10.8-1.87s37.23,3.92,8.39-10.62-34.64-18.4-34.64-18.4L157.28,509l-9.66,36.68Z"/><path class="graminea-13" d="M76.24,485s14.44,42.3,49.18,69.32l27,21.24,21.23,1.93-17.37-36.68L166,502.24s15.45,9.65,30.89,7.72,9.65-15.44,9.65-15.44l-59.84-34.75-42.47,23.17L76.24,485"/><path class="graminea-14" d="M198.78,471.85l108.87,48.21s50.67,19.2,75.63,18.55S414,557.26,414,557.26L348.39,565,207.47,512.86l-50.19-29-13.52-21.23,55,9.18"/><path class="graminea-15" d="M147.18,481.6s13.1,14.81,31.87,10.49c-.54-.47,49.65,5.32,34.21-6.26L184.7,469.08l-50.59-12.21,13.07,24.73"/><path class="graminea-16" d="M125.42,471.35l34.75,27,29,19.3S210.36,537,193,535.06c0,0-23.17-9.65-11.58,3.86l6.17,10.65-8.1,2.86-31.35-20.21-38.92-43.15L94.54,465.56,104.19,454Z"/><path class="graminea-17" d="M44.49,454s20.12-37.64,33.64-28h0l-9.65,15.44L49.17,456.87,44.49,454"/><path class="graminea-18" d="M97.79,437.32s-20.63-14.23-26.42-2.65L43.59,456S34.69,492.59,54,513.82c0,0,10.17,12.21,8-6.44s-6-32.17,5.53-51.47c0,0,36.68,11.58,36.68-11.58l-6.4-7"/><path class="graminea-19" d="M99.36,433.71s-7.72,13.51,1.93,21.23c0,0-11.58,11.59-21.23-3.86,0,0-5.79-11.58-7.72,3.86,0,0-3.86,29,7.72,32.82,0,0,9.65-1.93,15.44,3.86,0,0,11.58,15.45,32.82,0,0,0,13.51-13.51,36.68-11.58,0,0,21.95,4.93,11-13.94,0,0-16.48-9.17-26.28-16C149.69,450.14,107.08,424.06,99.36,433.71Z"/><path class="graminea-20" d="M157.28,470.39s59.84,44.4,129.33,59.84c0,0,38.61,5.79,56,15.45a214.55,214.55,0,0,0,67.56,7.72l85.42.25s-23.64,71.17-97,59.59a134,134,0,0,0-36.68,1.93S282.75,622.89,221,617.1c0,0-44.4-9.65-65.63-19.3,0,0-3.87-5.79-15.45-3.86,0,0-44.4-3.86-75.29-77.22,0,0-9.65-29,0-25.1,0,0,3.87-1.93,11.59,29,0,0,13.51,36.68,54.05,59.84,0,0,3.86,3.86,17.37,1.93A27.06,27.06,0,0,1,170.79,592s15.44,13.51,34.75,11.58c0,0,23.16-7.72,34.74,1.93,0,0,11.59,7.72,38.61,3.86,0,0,42.47-7.72,17.38-7.72,0,0-40.54,0-56-5.79,0,0-9.65-3.86-25.09-1.93,0,0-19.31,3.86-36.68-7.73a23.43,23.43,0,0,0-19.3-5.79s-9.66,1.93-34.75-21.23c0,0-40.54-40.54-38.61-48.26,0,0,0-5.79,5.79,1.93,0,0,29,36.68,48.26,48.26,0,0,17.38,11.58,25.1,11.58,0,0,13.51-1.93,21.23,5.79,0,0,11.58,11.59,27,7.72,0,0,17.37-5.79,29,1.93,0,0,30.89,17.38,65.64-1.93,0,0,9.65-5.79-13.51-5.79,0,0-21.24-5.79-36.68-1.93,0,0-13.51,5.79-23.17-5.79,0,0-1.93-3.86-11.58-3.86,0,0-17.37,3.86-71.43-29,0,0-36.67-30.88-59.84-69.49,0,0-9.65-15.45-1.93-21.24,0,0,7.72-7.72,23.17,7.72,0,0,61.77,52.13,90.73,63.71,0,0,52.12,23.16,69.49,23.16,0,0,23.17,0-11.58-13.51,0,0-69.5-25.09-106.17-54.05C155.35,476.18,141.83,462.67,157.28,470.39Zm-56-9.65c-5.79,1.93,5.79,19.3,5.79,19.3,5.8,11.58,48.27,50.19,48.27,50.19,34.74,27,79.14,34.75,79.14,34.75,19.31,3.86-7.72-9.65-7.72-9.65-19.3-9.65,21.24-1.93,21.24-1.93,34.74,0,17.37-3.86,17.37-3.86-9.65-1.93-54-15.45-54-15.45C194,532.16,109,464.6,109,464.6,103.22,460.74,101.29,460.74,101.29,460.74Z"/></g><g id="right_petal"><path class="graminea-9" d="M635,533s71.84,6.88,145.2-22.07c0,0,108.1-52.12,121.61-52.12,0,0,9.66,1.93,32.82-15.45,0,0,50.19-30.89,79.15-27,0,0,0-7.73,11.58,0,0,0,38.61,29,23.17,73.35,0,0-23.17,79.15-63.71,102.32,0,0-63.7,38.6-150.57,32.81,0,0-84-12.54-124.52-6.75A236.53,236.53,0,0,1,646.52,616C622.57,611.73,544,706.43,527,687c0,0-69.58-85.87-82-92-17.45-8.61,75.33-42.47,89-47,23.4-7.75,69-9,69-9S624.38,530.1,635,533Z"/><path class="graminea-10" d="M883.38,623.62s-72.3-6.52-89.67-22S841,585.25,841,585.25s-60.8-1-28-28l34.75,5.79,43.36-13.62S840,538,847.76,528.3c0,0-36.68-9.65-15.44-21.23l103.35-55,105.45,56s-21,57.27-41.55,72.56c.7-.17-42,36-116.19,43"/><path class="graminea-11" d="M1036.24,522.62s-24.39,23.06-24.39,1.82c0,0-23.17,33.53-25.1-1.57l-10.92-100s28.3-10.37,37.95-6.5h0l34.74,32.05S1058,467,1049.4,487a351.27,351.27,0,0,0-13.16,35.6"/><path class="graminea-12" d="M912.43,569.81l-27,11.58-27-3.86L841,585.25s7-17.19,30.55-26.93,27.37-13.61,27.37-13.61l29-27-16-17.33-32.28,19.26-10.8-1.87s-37.23,3.93-8.38-10.61,34.63-18.4,34.63-18.4l38.61,9.65,9.65,36.68Z"/><path class="graminea-13" d="M1014.7,474.42s-14.43,42.3-49.18,69.32l-27,21.24-21.23,1.93,17.37-36.68L925,491.62s-15.45,9.65-30.89,7.72-9.65-15.44-9.65-15.44l59.84-34.75,42.47,23.17,28,2.1"/><path class="graminea-14" d="M892.16,461.23,783.29,509.44S732.62,528.65,707.67,528s-30.75,18.65-30.75,18.65l65.63,7.72,140.92-52.12,50.2-29,13.51-21.23-55,9.18"/><path class="graminea-15" d="M943.76,471s-13.1,14.8-31.87,10.48c.54-.46-49.65,5.33-34.21-6.26l28.56-16.74,50.59-12.21L943.76,471"/><path class="graminea-16" d="M965.52,460.74l-34.75,27-29,19.31s-21.23,19.3-3.86,17.37c0,0,23.17-9.65,11.58,3.86L903.36,539l8.11,2.86,31.34-20.21,38.92-43.15,14.67-23.51-9.65-11.58Z"/><path class="graminea-17" d="M1046.45,443.36s-20.12-37.64-33.64-28h0l9.66,15.44,19.3,15.45,4.68-2.9"/><path class="graminea-18" d="M993.15,426.7s20.63-14.23,26.42-2.64l27.78,21.36s8.9,36.55-10.41,57.79c0,0-10.17,12.2-8-6.45s6-32.16-5.53-51.47c0,0-36.68,11.58-36.68-11.58l6.4-7"/><path class="graminea-19" d="M991.58,423.09s7.72,13.52-1.93,21.24c0,0,11.58,11.58,21.23-3.86,0,0,5.79-11.59,7.72,3.86,0,0,3.87,28.95-7.72,32.81,0,0-9.65-1.93-15.44,3.87,0,0-11.58,15.44-32.82,0,0,0-13.51-13.52-36.68-11.59,0,0-22,4.94-11-13.94,0,0,16.48-9.17,26.28-16C941.25,439.53,983.86,413.44,991.58,423.09Z"/><path class="graminea-20" d="M933.67,459.77s-59.85,44.4-129.34,59.84c0,0-38.61,5.8-56,15.45a214.55,214.55,0,0,1-67.56,7.72l-85.42.25s23.64,71.18,97,59.59A134,134,0,0,1,729,604.55s79.15,7.73,140.92,1.93c0,0,44.4-9.65,65.64-19.3,0,0,3.86-5.79,15.44-3.86,0,0,44.4-3.86,75.29-77.22,0,0,9.65-29,0-25.09,0,0-3.86-1.94-11.59,28.95,0,0-13.51,36.68-54,59.85,0,0-3.86,3.86-17.37,1.93a27.07,27.07,0,0,0-23.17,9.65S904.71,594.9,885.4,593c0,0-23.16-7.72-34.74,1.93,0,0-11.59,7.72-38.61,3.86,0,0-42.47-7.72-17.38-7.72,0,0,40.54,0,56-5.79,0,0,9.65-3.86,25.09-1.93,0,0,19.31,3.86,36.68-7.72a23.44,23.44,0,0,1,19.31-5.79s9.65,1.93,34.74-21.24c0,0,40.54-40.54,38.61-48.26,0,0,0-5.79-5.79,1.93,0,0-29,36.68-48.26,48.26,0,0-17.37,11.58-25.1,11.58,0,0-13.51-1.93-21.23,5.8,0,0-11.58,11.58-27,7.72,0,0-17.37-5.79-28.95,1.93,0,0-30.89,17.37-65.64-1.93,0,0-9.65-5.79,13.51-5.79,0,0,21.24-5.8,36.68-1.93,0,0,13.52,5.79,23.17-5.8,0,0,1.93-3.86,11.58-3.86,0,0,17.37,3.86,71.43-29,0,0,36.68-30.89,59.84-69.5,0,0,9.65-15.44,1.93-21.23,0,0-7.72-7.73-23.16,7.72,0,0-61.78,52.12-90.74,63.7,0,0-52.12,23.17-69.49,23.17,0,0-23.17,0,11.58-13.52,0,0,69.5-25.09,106.18-54.05C935.6,465.56,949.11,452.05,933.67,459.77Zm56-9.65c5.79,1.93-5.79,19.3-5.79,19.3-5.79,11.59-48.26,50.19-48.26,50.19-34.75,27-79.15,34.75-79.15,34.75-19.31,3.86,7.72-9.65,7.72-9.65,19.3-9.65-21.24-1.93-21.24-1.93-34.74,0-17.37-3.86-17.37-3.86,9.65-1.93,54.05-15.44,54.05-15.44C897,521.54,981.93,454,981.93,454,987.72,450.12,989.65,450.12,989.65,450.12Z"/></g></g><g id="colorful_thing"><path class="graminea-21" d="M494.14,649l17.37,25.1,30.27,11.78L561.7,676l27,1.93,13.51-21.23,16.06-2.82a32.06,32.06,0,0,0,20.62,12.47s7.72-1.93,3.86,9.65c0,0,0,9.65,15.44,5.79,0,0,13.95-6.23,7.94-13.73,0,0-6-3.64-6-7.5,0,0,1.93-13.52-7.73-13.52,0,0-28.95-9.65-30.88-15.44,0,0-1.93-19.3-7.73-15.44,0,0-4.89,6.71,0,15.42,0,0,8.91,16.12,13.64,19.17,0,0,7.19,10.15.17,9.5,0,0-8.76-5.77-12.72-10l-11.67-13.85s-20.08,6.39-32.24,5.13c0,0-16.78-4.61-19.3,0a10.7,10.7,0,0,0,.6,9.24s4.61,8.84-1.18,8.84c0,0-3.87,0-4.83-8.69,0,0-4.42-11.64-11.38-11.13,0,0-5-1.41-11.79,11.13,0,0-1-24.13-10.61-12.54,0,0-4.28-16.81-15.65-14.2l-5.59,2.61s1.66,14.42-2.06,18.79Z"/><path class="graminea-22" d="M546.26,650.88s-9.65-25.09-23.17,0c0,0,0-25.09-11.58-11.58,0,0-3.86-25.09-21.23-11.58,0,0,5.79,23.16-11.59,23.16,0,0-5.79-9.65-17.37,7.73,0,0-17.37,7.72-3.86-9.66,0,0,21.23-23.16,11.58-32.81,0,0-5.79-1.93-5.79,11.58,0,0-17.37,19.3-32.82,19.3,0,0-7.72,0-7.72,13.52,0,0-3.86,15.44-23.16,7.72,0,0-9.66-11.58-11.59,1.93,0,0-19.3,13.51-3.86,17.37,0,0,23.17,3.86,9.65,9.65,0,0-7.72,13.52-15.44,13.52,0,0-3.86,3.86,5.79,3.86,0,0,3.86,1.93-5.79,9.65,0,0-23.16,27-1.93,38.61s5.79,19.3,5.79,19.3-7.72,1.93,0,30.89c0,0,1.93,15.44,7.72,15.44,0,0,3.86,1.94,3.86,7.73a37.21,37.21,0,0,0,13.52,13.51S424.64,861.3,422.71,871c0,0-3.86,9.66,17.38,7.73,0,0,9.65-3.86,34.74,1.93,0,0,57.92,11.58,65.64-5.79a90.2,90.2,0,0,0-1-22.2c0-11.59,5.79-5.8,5.79-5.8,7.73,9.66,0,19.31,0,19.31-3.86,1.93-2.2,8.69-2.2,8.69,7.72,17.37,65.63,5.79,65.63,5.79,25.1-5.79,34.75-1.93,34.75-1.93,21.24,1.93,17.38-7.73,17.38-7.73-1.93-9.65,15.44-21.23,15.44-21.23a37.13,37.13,0,0,0,13.51-13.51c0-5.79,3.86-7.73,3.86-7.73,5.79,0,7.72-15.44,7.72-15.44,7.73-29,0-30.89,0-30.89s-15.44-7.72,5.8-19.3-1.93-38.61-1.93-38.61c-9.66-7.72-5.8-9.65-5.8-9.65,9.66,0,5.8-3.86,5.8-3.86-7.73,0-15.45-13.52-15.45-13.52-13.51-5.79,9.65-9.65,9.65-9.65,15.45-3.86-3.86-17.37-3.86-17.37-1.93-13.51-11.58-1.93-11.58-1.93-19.3,7.72-23.16-7.72-23.16-7.72,0-13.52-7.73-13.52-7.73-13.52-15.44,0-32.81-19.3-32.81-19.3,0-13.51-5.8-11.58-5.8-11.58C604.86,625.79,626.1,649,626.1,649c13.51,17.38-3.86,9.66-3.86,9.66-11.59-17.38-17.38-7.73-17.38-7.73-17.37,0-3.58-14.47-3.58-14.47-11.3,1.73-23.17,7.72-42.47,3.86-11.12-2.23-7.72,7.72-7.72,7.72s5.79,11.58,0,11.58c0,0-3.87,0-4.83-8.69"/><path class="graminea-23" d="M381.21,732.93s15.44,3.86,15.44,17.37c0,0,3.86,11.58,13.51,11.58,0,0,7.72-9.65,21.24,0,0,0,17.37,5.8,7.72,9.66a87.55,87.55,0,0,1-19.3,1.93s-15.45-1.93-23.17-11.59c0,0-1.93,5.8-13.51-1.93,0,0-9.66-7.72-7.72-15.44C375.42,744.51,375.42,731,381.21,732.93Z"/><path class="graminea-24" d="M392.79,717.48s29,7.73,38.61,17.38c0,0,15.44,5.79,11.58,0,0,0-1.93-7.72,11.58,0,0,0,9.66,11.58-1.93,17.37,0,0-11.58,3.86-25.09-5.79,0,0-5.79-7.72-11.59-7.72,0,0-11.58-1.93-17.37-5.79,0,0-7.72-3.86-13.51-3.86,0,0-5.79,0,1.93-7.72C387,721.35,390.86,713.62,392.79,717.48Z"/><path class="graminea-25" d="M431.4,651.85s-5.79,19.3-11.58,21.23c0,0-7.73,3.87,5.79,5.8,0,0,13.51-1.93,17.37-11.59,0,0,0-3.86,5.79-3.86,0,0,7.83,5.05,4.88-3.27,0,0-5-.73,8.59-17.07l8.12-14.25s-17.73,24.94-33.17,23C437.19,651.85,429.47,648,431.4,651.85Z"/><path class="graminea-26" d="M437.19,860.34s-19.31,7.72-9.65,9.65c0,0,15.44.39,9.65,8.88,0,0,11-1.7,15.17-1.43,0,0,15.1.28,27.95,4.13,0,0,31.16,4.68,47.1,1.38,0,0,14-7.17-5.28-11,0,0,9.65-11.58,7.72-19.3,0,0-1.93-7.73-7.72,3.86,0,0-7.72,15.44-15.44,15.44,0,0-3.87-1.93,0-7.72s3.86-5.79,3.86-9.65c0,0-1.93-5.8-9.66,3.86,0,0-7.72,15.44-15.44,13.51,0,0-11.58,0-3.86-11.58,0,0,3.86-9.66,1.93-17.38,0,0-1.93-7.72-7.72,3.86,0,0-7.72,29-17.38,27,0,0-9.65,3.86-7.72-7.72C450.7,866.13,456.49,852.62,437.19,860.34Z"/><path class="graminea-27" d="M470,792.77s-19.31,15.45-17.38,27c0,0,7.72,11.58-3.86,15.44,0,0,11.58,1.93,11.58-11.58,0,0,3.87-3.86,3.87-11.58,0,0,0-9.66,7.72-9.66,0,0,5.79,1.93,5.79-7.72C477.73,794.7,477.73,785.05,470,792.77Z"/><path class="graminea-28" d="M444.91,686.6s-9.65-3.86-9.65,5.79c0,0,0,11.58,7.72,7.72C443,700.11,450.7,690.46,444.91,686.6Z"/><path class="graminea-29" d="M479.66,677s-3.86-15.45-11.58-7.73c0,0-3.86,1.93,0,9.66,0,0,3.86,5.79,9.65,3.86C477.73,682.74,481.59,680.81,479.66,677Z"/><path class="graminea-30" d="M491.24,721.35S468.08,711.69,470,705.9c0,0-7.72-11.58-9.66,0,0,0-3.86,13.51,1.94,15.45,0,0,7.72,9.65,0,9.65,0,0-9.66,1.93-3.87,5.79,0,0,15.45,5.79,17.38-1.93,0,0,1.93-7.72,7.72-3.86,0,0,9.65,3.86,11.58-1.93C495.1,729.07,500.89,721.35,491.24,721.35Z"/><path class="graminea-31" d="M499.44,784.56s-8.2,6.28-6.27,15.93c0,0-1.93,11.59-7.72,13.52,0,0-5.79,7.72-1.93,13.51,0,0,3.86,3.86,7.72-5.79,0,0,5.79-17.38,9.65-17.38,0,0,7.73-7.72,5.8-11.58,0,0,1.93-5.79,5.79,0,0,0,5.79,11.58-1.93,13.51,0,0-3.86,5.8,1.93,9.66,0,0,7.72,7.72,7.72-3.86,0,0,1.93-13.52,1.93-19.31,0,0,1.93-9.65,7.72-3.86a14.77,14.77,0,0,1,3.86,9.65s0,9.66,1.93,9.66-1.93,13.51,7.72,15.44c0,0,11.59,3.86,5.79-5.79,0,0-1.93-9.65,0-11.59,0,0,11.59-19.3-1.93-19.3,0,0-9.65,0-9.65-7.72,0,0,1.1-16.56-5.24-20.83Z"/><path class="graminea-32" d="M491.24,744.51s-17.37-5.79-13.51,3.86a28.23,28.23,0,0,1,9.65,5.79s19.31,13.52,15.44,21.24c0,0-7.72,13.51,0,13.51,0,0,17.38,0,17.38-9.65,0,0,3.86-5.79,7.72-3.86,0,0,9.65,3.86,3.86-19.31,0,0-3.86-7.72-11.58,0,0,0-3.86,7.72-11.58,3.86C508.62,760,497,744.51,491.24,744.51Z"/><path class="graminea-33" d="M491.24,765.75l-17.37-11.59s-13.52-3.86-9.65,1.93c0,0,9.65,13.52,19.3,15.45C483.52,771.54,502.82,769.61,491.24,765.75Z"/><path class="graminea-34" d="M467.45,774.6s12.21,10.45.63,14.31a28.33,28.33,0,0,0-9.66,5.79s-17.37,11.58-27,3.86c0,0-3.86-3.86,5.79-3.86,0,0,6.75-1.36,7.24-8.4Z"/><path class="graminea-23" d="M702.16,732.93s-15.44,3.86-15.44,17.37c0,0-3.86,11.58-13.51,11.58,0,0-7.72-9.65-21.24,0,0,0-17.37,5.8-7.72,9.66a87.6,87.6,0,0,0,19.31,1.93s15.44-1.93,23.16-11.59c0,0,1.93,5.8,13.51-1.93,0,0,9.66-7.72,7.73-15.44C708,744.51,708,731,702.16,732.93Z"/><path class="graminea-24" d="M690.58,717.48s-29,7.73-38.61,17.38c0,0-15.44,5.79-11.58,0,0,0,1.93-7.72-11.58,0,0,0-9.66,11.58,1.93,17.37,0,0,11.58,3.86,25.09-5.79,0,0,5.79-7.72,11.59-7.72,0,0,11.58-1.93,17.37-5.79,0,0,7.72-3.86,13.51-3.86,0,0,5.79,0-1.93-7.72C696.37,721.35,692.51,713.62,690.58,717.48Z"/><path class="graminea-26" d="M646.18,860.34s19.31,7.72,9.65,9.65c0,0-15.44.39-9.65,8.88,0,0-11-1.7-15.17-1.43,0,0-15.1.28-28,4.13,0,0-31.16,4.68-47.1,1.38,0,0-14-7.17,5.28-11,0,0-9.65-11.58-7.72-19.3,0,0,1.93-7.73,7.72,3.86,0,0,7.72,15.44,15.45,15.44,0,0,3.86-1.93,0-7.72s-3.87-5.79-3.87-9.65c0,0,1.93-5.8,9.66,3.86,0,0,7.72,15.44,15.44,13.51,0,0,11.58,0,3.86-11.58,0,0-3.86-9.66-1.93-17.38,0,0,1.93-7.72,7.72,3.86,0,0,7.72,29,17.38,27,0,0,9.65,3.86,7.72-7.72C632.67,866.13,626.88,852.62,646.18,860.34Z"/><path class="graminea-27" d="M613.36,792.77s19.31,15.45,17.38,27c0,0-7.72,11.58,3.86,15.44,0,0-11.58,1.93-11.58-11.58,0,0-3.87-3.86-3.87-11.58,0,0,0-9.66-7.72-9.66,0,0-5.79,1.93-5.79-7.72C605.64,794.7,605.64,785.05,613.36,792.77Z"/><path class="graminea-28" d="M638.46,686.6s9.65-3.86,9.65,5.79c0,0,0,11.58-7.72,7.72C640.39,700.11,632.67,690.46,638.46,686.6Z"/><path class="graminea-29" d="M603.71,677s3.86-15.45,11.58-7.73c0,0,3.86,1.93,0,9.66,0,0-3.86,5.79-9.65,3.86C605.64,682.74,601.78,680.81,603.71,677Z"/><path class="graminea-35" d="M458.42,665.36s-7.72,0-5.79,5.79c0,0,1.93,3.86,5.79,3.86C458.42,675,468.08,667.29,458.42,665.36Z"/><path class="graminea-35" d="M625,665.36s7.72,0,5.79,5.79c0,0-1.93,3.86-5.79,3.86C625,675,615.29,667.29,625,665.36Z"/><path class="graminea-30" d="M592.13,721.35s23.16-9.66,21.23-15.45c0,0,7.73-11.58,9.66,0,0,0,3.86,13.51-1.93,15.45,0,0-7.73,9.65,0,9.65,0,0,9.65,1.93,3.86,5.79,0,0-15.45,5.79-17.38-1.93,0,0-1.93-7.72-7.72-3.86,0,0-9.65,3.86-11.58-1.93C588.27,729.07,582.48,721.35,592.13,721.35Z"/><path class="graminea-31" d="M583.93,784.56s8.2,6.28,6.27,15.93c0,0,1.93,11.59,7.72,13.52,0,0,5.79,7.72,1.93,13.51,0,0-3.86,3.86-7.72-5.79,0,0-5.79-17.38-9.65-17.38,0,0-7.73-7.72-5.79-11.58,0,0-1.94-5.79-5.8,0,0,0-5.79,11.58,1.93,13.51,0,0,3.87,5.8-1.93,9.66,0,0-7.72,7.72-7.72-3.86,0,0-1.93-13.52-1.93-19.31,0,0-1.93-9.65-7.72-3.86a14.77,14.77,0,0,0-3.86,9.65s0,9.66-1.93,9.66,1.93,13.51-7.72,15.44c0,0-11.59,3.86-5.79-5.79,0,0,1.93-9.65,0-11.59,0,0-11.59-19.3,1.93-19.3,0,0,9.65,0,9.65-7.72,0,0-1.1-16.56,5.24-20.83Z"/><path class="graminea-32" d="M592.13,744.51s17.37-5.79,13.51,3.86a28.23,28.23,0,0,0-9.65,5.79s-19.3,13.52-15.44,21.24c0,0,7.72,13.51,0,13.51,0,0-17.38,0-17.38-9.65,0,0-3.86-5.79-7.72-3.86,0,0-9.65,3.86-3.86-19.31,0,0,3.86-7.72,11.58,0,0,0,3.86,7.72,11.58,3.86C574.75,760,586.34,744.51,592.13,744.51Z"/><path class="graminea-33" d="M592.13,765.75l17.37-11.59s13.52-3.86,9.65,1.93c0,0-9.65,13.52-19.3,15.45C599.85,771.54,580.55,769.61,592.13,765.75Z"/><path class="graminea-34" d="M615.93,774.6s-12.22,10.45-.64,14.31A28.23,28.23,0,0,1,625,794.7s17.37,11.58,27,3.86c0,0,3.86-3.86-5.79-3.86,0,0-6.75-1.36-7.24-8.4Z"/><path class="graminea-36" d="M506.69,657.64a18,18,0,0,1-1.94-13.51s1.94-1.93-5.79-1.93c0,0-7.82,1-7.77-7.22,0,0-.43,11.94-6,14.4,0,0,9.89,6.33,2.17,10.19,0,0-7.72,0-3.86,9.65a8.45,8.45,0,0,0,5.79,1.93s3.86,9.66-1.93,9.66c0,0-5.79,1.93-7.72-3.86l-6.59,5.79a23.08,23.08,0,0,1,6.59,11.58s0,11.58,9.65,11.58c0,0,7.72,1.93,7.72,7.72,0,0,1.93,9.66,11.59,3.86,0,0,17.37-11.58,17.37,7.73,0,0,3.86,13.51-5.79,13.51,0,0-13.51,5.79-9.65,13.51,0,0,3.86,5.79,9.65,3.86l9.16-2.62s8.21,2.62,8.21-16.68c0,0-1.93-21.24,5.79-23.17,0,0,7.73-1.93,7.73-5.79,0,0,3.86-3.86,7.72-1.93,0,0,3.86-1.93,1.93-9.65,0,0,1.93-23.17,11.58-15.44,0,0,3.86,15.44-3.86,17.37,0,0-5.79,0-3.86,9.65,0,0,1.93,9.65-5.79,7.72,0,0-13.52,3.86-9.66,17.38,0,0,3.87,5.79,1.94,11.58,0,0-1.94,7.72,3.86,3.86,0,0,5.79-5.79,5.79,7.72,0,0-3.86,34.75,7.72,32.82,0,0,13.51,1.93,13.51-17.37,0,0,0-5.79-5.79-5.79,0,0-9.65-1.94,0-19.31,0,0,25.1-19.3,25.1-30.89,0,0,9.65-5.79,9.65,3.86,0,0-7.72,19.31,3.86,17.38,0,0,15.44,0,13.51-17.38,0,0-1.93-5.79-7.72,0,0,0-9.65-7.72-3.86-15.44,0,0,15.44-9.65,9.65-17.37,0,0-3.86-7.72-7.72-7.72l-1.93-7.73s1.93-19.3-7.72-19.3a61.63,61.63,0,0,1,17.37-17.37v-5.8s-9.65-7.72-25.09,7.73c0,0-9.66,7.72-17.38,7.72,0,0-5.79,0-5.79,9.65,0,0,3.86,21.23-3.86,21.23,0,0-5.79,1.94-3.86-11.58,0,0,3.86-17.37-3.86-17.37,0,0-9.65-1.93-7.72,11.58,0,0,1.93,19.31-7.72,19.31,0,0-7.73,3.86-3.87-13.52,0,0,1.93-13.51-3.86-13.51,0,0-5.79-1.93-5.79,13.51,0,0,0,15.45-5.79,13.52,0,0-6.65-1.74-4.29-32.72l-5.36,9.55.33-10.26s-6.12-3.25-6.12,10.26c0,0,1.93,11.58-3.86,9.65C512.48,663.43,506.69,661.5,506.69,657.64Z"/><path class="graminea-37" d="M585.83,700.11s9.66-15.44-1.93-13.51c0,0-11.58,11.58-11.58,28.95,0,0,5.79,3.86,9.65-5.79Z"/><path class="graminea-38" d="M526,686.6s9.65-1.93,9.65,9.65c0,0,0,9.65-11.58,7.72,0,0-7.72,0-5.79-7.72C518.27,696.25,520.2,686.6,526,686.6Z"/><path class="graminea-39" d="M549.15,694.32s-7.72-15.44-7.72-1.93c0,0,0,9.65-5.79,11.58,0,0-3.86,7.72,5.79,5.79,0,0,5.79,0,1.93,3.86,0,0,7.73-1.93,7.73-5.79a4.58,4.58,0,0,1,4.59-2.39s3.13-5.33-.73-5.33C555,700.11,549.15,696.25,549.15,694.32Z"/><path class="graminea-29" d="M591.62,715.55s-5.79,7.73-11.58,7.73c0,0-5.79-1.93-5.79,7.72,0,0,1.93,7.72-5.79,7.72,0,0-7.72,0-5.79,9.65,0,0,3.86,10.57,9.65,6.25l3.86-8.18s23.17-19.3,25.1-30.89c0,0,0-3.86-5.79-1.93A6,6,0,0,0,591.62,715.55Z"/><path class="graminea-40" d="M596.54,643.7s-12.64,2.36-12.64,13.94c0,0-1.93,13.51-5.79,15.44,0,0-5.79,9.66,0,9.66,0,0,7.72-3.86,11.58,1.93,0,0,3.87,7.72,11.59,5.79,0,0,15.44,7.72,15.44-7.72,0,0-3.86-15.45-11.58-15.45a9.7,9.7,0,0,1-1.93-9.65S603.38,643.27,596.54,643.7Z"/><path class="graminea-41" d="M493.17,659.57s7.72-7.72,13.52-1.93c0,0,1.93,11.58-3.87,15.44,0,0-3.86,7.73,1.93,7.73,0,0,7.73-1.93,5.8,5.79,0,0-1.93,7.72-9.66,5.79,0,0-11.15-5.6-10.4-14.38l-1.18-6.86S483.52,663.43,493.17,659.57Z"/><path class="graminea-42" d="M438.87,753.1S439.12,758,443,760c0,0,3.86,1.93,1.93,3.86,0,0-5.79,7.73,5.79,7.73,0,0,5.79,0-1.93,5.79,0,0-17.37,0-17.37,5.79a37.79,37.79,0,0,0,25.09,1.93s15.45-3.86,9.66-15.44c0,0-1.93-3.86-9.66-1.93,0,0,4-13.92-5.7-14.69C450.79,753,440.55,750.11,438.87,753.1Z"/><path class="graminea-42" d="M644.5,753.1s-.25,4.92-4.11,6.85c0,0-3.86,1.93-1.93,3.86,0,0,5.79,7.73-5.79,7.73,0,0-5.79,0,1.93,5.79,0,0,17.37,0,17.37,5.79a37.79,37.79,0,0,1-25.09,1.93s-15.45-3.86-9.66-15.44c0,0,1.93-3.86,9.66-1.93,0,0-4-13.92,5.7-14.69C632.58,753,642.82,750.11,644.5,753.1Z"/></g><g id="inside_parts"><path class="graminea-43" d="M391.82,513.82s-13.51-19.3-11.58,5.79c0,0,7.72,61.78-9.65,73.36,0,0-9.65,3.86,3.86,17.37,0,0,27,13.52,50.19-3.86,0,0,72.39-56.94,66.6-84,0,0-1.93-19.3-11.58-13.51a36,36,0,0,0-5.79,7.72S470,528.3,454.56,528.3C454.56,528.3,414,536,391.82,513.82Z"/><path class="graminea-44" d="M383,566.08S403,578,406.6,557l2-7.67s30.52,4.06,34.38-9.46c0,0,1.93-5.79-11.58-5.79,0,0-8.21-1.55-8-5.6,0,0-22.92-2.12-30.64-15.63,0,0-5.79-13.52-13.51-5.79,0,0-2.57,6.88,1.61,18.88,0,0,2.1,35.44.25,40.13Z"/><path class="graminea-45" d="M396.65,534.09s29,38.61,38.61,42.47c0,0,17.37-1.93,9.65-15.44,0,0-15.44-15.44-5.79-15.44,0,0,15.44,13.51,25.1,7.72,0,0-1.93-19.31,9.65-19.31,0,0,9.65-3.86,7.72-19.3,0,0,5.52-9.6,7.59-.94,0,0,4.41,15.83-1.59,25.76,0,0-30.36,48.9-79,75.74,0,0-25.46,1.75-33.18-6,0,0,5.79-29,9.65-13.51,0,0,7.72,17.37,27,3.86,0,0-19.3-21.24-7.72-29,0,0,7.72-3.86,3.86,7.72,0,0,3.86,15.45,11.59,13.52,0,0,9.65-5.8,0-17.38l-23.17-30.89S388.93,524.44,396.65,534.09Z"/><path class="graminea-43" d="M665.83,513.69s13.52-19.31,11.58,5.79c0,0-7.72,61.77,9.66,73.35,0,0,9.65,3.87-3.86,17.38,0,0-27,13.51-50.2-3.86,0,0-72.39-57-66.6-84,0,0,1.93-19.3,11.59-13.51a36,36,0,0,1,5.79,7.72s3.86,11.58,19.3,11.58C603.09,528.16,643.63,535.89,665.83,513.69Z"/><path class="graminea-44" d="M674.67,565.94s-20.06,11.93-23.62-9.06l-2-7.68s-30.52,4.06-34.38-9.45c0,0-1.93-5.79,11.58-5.79,0,0,8.2-1.55,8-5.6,0,0,22.93-2.13,30.65-15.64,0,0,5.79-13.51,13.51-5.79,0,0,2.56,6.89-1.61,18.89,0,0-2.11,35.43-.25,40.12Z"/><path class="graminea-45" d="M661,534s-29,38.6-38.61,42.47c0,0-17.38-1.93-9.65-15.45,0,0,15.44-15.44,5.79-15.44,0,0-15.45,13.51-25.1,7.72,0,0,1.93-19.3-9.65-19.3,0,0-9.65-3.86-7.72-19.31,0,0-5.52-9.59-7.59-.93,0,0-4.41,15.83,1.59,25.75,0,0,30.36,48.9,79,75.75,0,0,25.46,1.75,33.18-6,0,0-5.79-29-9.65-13.51,0,0-7.72,17.37-27,3.86,0,0,19.31-21.23,7.72-29,0,0-7.72-3.86-3.86,7.73,0,0-3.86,15.44-11.58,13.51,0,0-9.65-5.79,0-17.37L661,543.61S668.73,524.3,661,534Z"/><path class="graminea-46" d="M602.24,567.88S586.8,564,606.1,550.5c0,0,23.17-9.65,42.47,36.68,0,0,8.69,10.62,4.83,18.34,0,0,9.65,27-3.86,36.68,0,0-5.79,32.81-30.89,17.37l-47.68-18s-8.3-5.13,18.72-12.86c0,0,23.17-7.72,21.24-25.09,0,0-3.86-9.65,0-15.45,0,0,5.79-5.79,0-15.44Z"/><path class="graminea-47" d="M655.89,615.44l-2.49-9.92s4-8.72-3.77-16.91a4.54,4.54,0,0,0-1-.79l-.08-.64s-15.94-32.81-29.34-35.59c-.09-.19-.16-.36-.27-.56,0,0-3-1.23-9.37-1.36,0,0-15.67,4.73-13,13.88,0,0,2.72,5.29,8.51,1.43a18.67,18.67,0,0,1,4.81-4.84l4.84,4.84s21.23,17.37,21.23,29c0,0-1.93,9.65,0,11.58,0,0,2.74,17-.52,16.27-3-1.35-6.46-1.41-9.13,3,0,0-3.86,9.66,0,17.38,0,0,7.72,9.65-3.86,7.72,0,0-13.33-4-6.66,8.59,0,0,13,9.15,20.46,4.14,0,0,9.37-3.08,13.23-20.45C649.54,642.2,660.32,636.94,655.89,615.44Z"/><path class="graminea-48" d="M655.89,615.44l-2.49-9.92s4-8.72-3.77-16.91c0,0-2-2.4-4-.47,0,0-5.79,1.94-1.93,7.73,0,0,7.72,9.65,1.93,9.65,0,0-5.79,1.93-1.93,7.72,0,0,9.65,9.65,1.93,9.65,0,0,5.79,21.24-3.86,3.86,0,0-7.88-9.44-13.67-4.16L626.37,619c-3.86-5.79-9.65,3.86-9.65,3.86-5.79,13.52-17.37,9.65-17.37,9.65-13.52,1.94-5.89,17.5-5.89,17.5,3,1.62,16.81,6.57,22.62,8.63,1.69,1.14,13.34,8.62,20.23,4,0,0,9.37-3.08,13.23-20.45C649.54,642.2,660.32,636.94,655.89,615.44Z"/><g class="graminea-49"><path class="graminea-50" d="M619,551s-3-1.23-9.37-1.36c0,0-15.67,4.73-13,13.88,0,0,2.72,5.29,8.51,1.43,0,0,3.86-5.79,7.72-5.79C612.86,559.19,623.13,558.31,619,551Z"/><path class="graminea-50" d="M655.89,615.44l-2.49-9.92s4-8.72-3.77-16.91c0,0-2-2.4-4-.47,0,0-5.79,1.94-1.93,7.73,0,0,7.72,9.65,1.93,9.65,0,0-5.79,1.93-1.93,7.72,0,0,9.65,9.65,1.93,9.65,0,0,5.79,21.24-3.86,3.86,0,0-9.66-11.58-15.45-1.93,0,0-3.86,9.66,0,17.38,0,0,7.72,9.65-3.86,7.72,0,0-13.33-4-6.66,8.59,0,0,13,9.15,20.46,4.14,0,0,9.37-3.08,13.23-20.45C649.54,642.2,660.32,636.94,655.89,615.44Z"/></g><path class="graminea-46" d="M477.77,565.94s15.44-3.86-3.86-17.37c0,0-23.17-9.65-42.47,36.68,0,0-8.69,10.62-4.83,18.34,0,0-9.65,27,3.86,36.68,0,0,5.8,32.81,30.89,17.37l47.68-18s8.3-5.13-18.72-12.86c0,0-23.17-7.72-21.24-25.09,0,0,3.86-9.65,0-15.45,0,0-5.79-5.79,0-15.44Z"/><path class="graminea-47" d="M424.12,613.51l2.49-9.92s-4-8.72,3.77-16.91a4.54,4.54,0,0,1,1-.79l.08-.64s15.94-32.81,29.34-35.59c.1-.19.16-.36.27-.56,0,0,3-1.23,9.38-1.36,0,0,15.66,4.73,12.95,13.88,0,0-2.71,5.29-8.51,1.43a18.67,18.67,0,0,0-4.81-4.84l-4.84,4.84S444,580.42,444,592c0,0,1.93,9.65,0,11.58,0,0-2.73,17,.53,16.27,3-1.35,6.46-1.41,9.12,3,0,0,3.86,9.65,0,17.38,0,0-7.72,9.65,3.86,7.72,0,0,13.33-4,6.67,8.59,0,0-13,9.15-20.46,4.14,0,0-9.37-3.08-13.24-20.45C430.47,640.27,419.7,635,424.12,613.51Z"/><path class="graminea-48" d="M424.12,613.51l2.49-9.92s-4-8.72,3.77-16.91c0,0,2-2.4,4-.47,0,0,5.79,1.93,1.93,7.73,0,0-7.73,9.65-1.93,9.65,0,0,5.79,1.93,1.93,7.72,0,0-9.66,9.65-1.93,9.65,0,0-5.8,21.24,3.86,3.86,0,0,7.87-9.44,13.66-4.16l1.78-3.56c3.86-5.79,9.65,3.86,9.65,3.86,5.79,13.52,17.38,9.65,17.38,9.65,13.51,1.93,5.88,17.5,5.88,17.5-2.95,1.61-16.8,6.57-22.61,8.62-1.7,1.14-13.34,8.63-20.23,4,0,0-9.37-3.08-13.24-20.45C430.47,640.27,419.7,635,424.12,613.51Z"/><g class="graminea-49"><path class="graminea-50" d="M461.05,549.1s3-1.23,9.38-1.36c0,0,15.66,4.73,12.95,13.88,0,0-2.71,5.29-8.51,1.43,0,0-3.86-5.79-7.72-5.79C467.15,557.26,456.88,556.38,461.05,549.1Z"/><path class="graminea-50" d="M424.12,613.51l2.49-9.92s-4-8.72,3.77-16.91c0,0,2-2.4,4-.47,0,0,5.79,1.93,1.93,7.73,0,0-7.73,9.65-1.93,9.65,0,0,5.79,1.93,1.93,7.72,0,0-9.66,9.65-1.93,9.65,0,0-5.8,21.24,3.86,3.86,0,0,9.65-11.58,15.44-1.93,0,0,3.86,9.65,0,17.38,0,0-7.72,9.65,3.86,7.72,0,0,13.33-4,6.67,8.59,0,0-13,9.15-20.46,4.14,0,0-9.37-3.08-13.24-20.45C430.47,640.27,419.7,635,424.12,613.51Z"/></g><path class="graminea-51" d="M550.9,585.25S547,593,558.63,594.9c0,0,13.51,13.51-3.86,19.31,0,0-15.45,5.79-15.45-7.73,0,0-.78-5.79-.78,0,0,13.52-15.45,7.73-15.45,7.73-17.37-5.8-3.86-19.31-3.86-19.31,11.59-1.93,7.72-9.65,7.72-9.65Z"/><path class="graminea-52" d="M582.94,591s7.72-5.79-3.86-21.23c0,0-21.24-34.75-40.54-32.82,0,0-21.24-9.65-38.61,23.16,0,0-5.79,9.66-11.58,13.52,0,0-19.31,23.16,7.72,21.23,0,0,43.43-8.69,60.81-2.89C556.88,592,580,595.87,582.94,591Z"/><path class="graminea-53" d="M516.34,574.63s-22.55,12.45-5.48,17.81c0,0,37.37-5.4,59.07.94,0,0,12-11-3.4-18.75a14.48,14.48,0,0,1-5.79-11.58l-4.8-11.58H522.13l-7.72,11.58S524.06,570.77,516.34,574.63Z"/><path class="graminea-54" d="M520.72,538s-11.09,12.54,2.88,10.12l17.83,7.24,9.34-3.86,8.71,8.55s5.12,20.4,18.63,16.54c0,0,3.94-3.64-2.86-12.44,0,0-22.23-30-35.75-26.17A18.52,18.52,0,0,0,520.72,538Z"/><path class="graminea-55" d="M564.6,561.12s-9.65-17.38-23.17-11.58c0,0-21.23-11.59-30.88,13.51,0,0-1.93,11.58,7.72,1.93,0,0,5.79-11.58,11.58-11.58,0,0,9.65,7.72,15.44,1.93,0,0,5.8-7.72,15.45,7.72C560.74,563.05,562.67,568.84,564.6,561.12Z"/>
        </g>
    </g>
</svg>