<svg xmlns="http://www.w3.org/2000/svg" viewBox="0 0 1080 1080">
    <defs>
        <style>
            .Habenaria-1{fill:#4e6845;}.Habenaria-2{fill:#8a8c7f;}.Habenaria-3{fill:#ebeee4;}.Habenaria-4{fill:#c5cab7;opacity:0.69;}.Habenaria-5{fill:#687b1a;}.Habenaria-6{fill:#adc47c;}.Habenaria-7{fill:#d7dee2;}.Habenaria-8{fill:#a9ac8e;}.Habenaria-9{fill:#d5d2ad;}.Habenaria-10{fill:#bfc490;}.Habenaria-11{fill:#898b2b;}.Habenaria-12{fill:#d1cfb2;}.Habenaria-13{fill:#bdbf95;}.Habenaria-14{fill:#9ea856;}.Habenaria-15{fill:#b6aa6e;}
        </style>
    </defs>
    <title>ORCHIDS</title>
    <g id="habenariaQuinqueseta">
        <circle class="Habenaria-1" cx="540" cy="545" r="540"/><g id="petals"><path class="Habenaria-2" d="M269.24,790.14s-3.13,80.1-32,84.71c0,0-17.05-3.53-4.94-20.25l-35.27,5s4.32,54,71.68,16.5c0,0,23.89-24.86,15.46-102.54Z"/><path class="Habenaria-2" d="M875.51,772.59s9.77,79.56,38.88,81.76c0,0,16.7-4.94,3.24-20.59l35.57,2s.18,54.15-70.06,22.39c0,0-25.88-22.78-23.93-100.9Z"/><path class="Habenaria-3" d="M653.25,408.12s-.75,54.69,42,50.78c0,0,174.69-7.35,254.21-112.36,0,0,19.93-65.07-9.64-105.49,0,0-47.19-44.55-110.94-18.6,0,0-32.64,36-33.95,21.79,0,0,8-38.11,53.12-48,0,0,105.74-6.79,122.62,52,0,0,27,75.15,2.65,123.37,0,0-25.63,65.59-93.27,80.4,0,0-126.71,60.45-191.52,43.38,0,0-44.07-10.35-77.53-61.91,0,0,8.32,59.61,66.4,97.42,0,0,138,125.38,200.46,211.66,0,0,51.87,64.26,64.06,71.77,0,0,32.68,43-6.72,52.36,0,0-1.82-20-17.38-32.91l-86.62-98.45s-194.76-205.55-199.94-206c-13.31-12.19-19.36-3.83-19.36-3.83-11.56,2.42-22.68,214-22.68,214,2.26,88.9-41.8,190.32-41.8,190.32C532,958,512.65,940,512.65,940c-41-50.31,17.51-228.52,17.51-228.52,12.56-28.16,7.62-48.41,7.62-48.41-10.21-31.92-9.84-115-9.84-115-1.3-40.16-25.3-12.45-25.3-12.45C476,557.55,313.71,751.77,313.71,751.77L232.34,854.6c-14.86,13.75-15.64,33.77-15.64,33.77-39.83-7.28-9.43-51.94-9.43-51.94,11.77-8.13,60.22-75,60.22-75C325.42,672,456.65,539.6,456.65,539.6c56-40.79,61.23-100.75,61.23-100.75-30.73,53.23-74.2,65.86-74.2,65.86-63.83,20.43-193.52-33.33-193.52-33.33C181.84,460.12,152.82,396,152.82,396,126,349.07,149,272.61,149,272.61c13.79-59.63,119.74-58.36,119.74-58.36,45.55,7.51,55.54,45.14,55.54,45.14-.55,14.31-35-20-35-20-65-22.59-109.82,24.37-109.82,24.37-27.42,41.91-4.13,105.85-4.13,105.85,84.89,100.72,259.72,98.94,259.72,98.94C478,470.24,473,414.18,473,414.18l172.31-10.47,7.94,4.41"/><path class="Habenaria-4" d="M464.94,454.74s22.19,1.18,5.05,36.5c0,0,39.79-28.36,46.51-53.88,0,0-5.91,52.49-33.62,78,0,0,46.59-43.16,18.39,18.77,0,0,25.26-19.51,26.26,8s-1.08,7.34-1.08,7.34,7.85-54.13,23.34-10.55c0,0,9.77,43.35,9.1,60.52,0,0,2,23,9.14-14,0,0-1.19-43,9.92-34,0,0,10.21,31.92,6.68,49,0,0-.72,26,13,.64,0,0-7.26-74.91,20.31-83.86,0,0,8.58.34,3.31-11.33-15.74-34.8,24.39-2.91,24.39-2.91-28.82-24.31-37-76.49-37-76.49,7.85,25.21,48.85,51.78,48.85,51.78-18.68-34.53,3.44-36.69,3.44-36.69s-13.3-18-4.53-61.93l-185.12,5.79S482.44,427.55,464.94,454.74Z"/></g><g id="inner_parts"><path class="Habenaria-5" d="M515.8,198.35s48.62-10.85,74.89,1.44L636,238.6l17.46,66.58L622.39,367l-81.92-3.2-49.67-1.93-32-61.42,22.71-67.87Z"/><path class="Habenaria-6" d="M524.5,195.57s-59.87,15.21-61.92,56.5l25.36-.62s20.31-14.79,20.95-27C508.89,224.42,538.58,201.85,524.5,195.57Z"/><path class="Habenaria-7" d="M506.45,217.79s-5.39-8.8-26.64,21.88c0,0-12,13.86-23.45,13.41,0,0-49.86,29.57-36.89,64.46,0,0,16.72,12.11,22.33,15.2,0,0,8.24,8.91,7.35,31.8,0,0,4.61,28.83,23.85,49.64,0,0,16.61,15,25.86-1.86l11.82-82.63s-27.61-26.86-26.94-44c0,0-7.46-28.95,4.2-34.22C487.94,251.45,517.44,229.68,506.45,217.79Z"/><path class="Habenaria-8" d="M492.27,307.58s-2.4,41.36-28.15,40.35c0,0-11.55,2.42-22.32-15.19,0,0,8.27,8.1,7.14,37.11L473,414.18l25.86-1.86,11.82-82.63Z"/><path class="Habenaria-6" d="M580.88,196.67s60,14.83,62.28,56.1l-25.37-.45s-20.4-14.66-21.12-26.9C596.67,225.42,566.84,203,580.88,196.67Z"/><path class="Habenaria-7" d="M599.08,218.78s5.33-8.84,26.77,21.71c0,0,12.09,13.78,23.53,13.26,0,0,50,29.25,37.3,64.22,0,0-16.64,12.22-22.23,15.34,0,0-8.19,9-7.15,31.85,0,0-4.42,28.86-23.53,49.78,0,0-16.51,15.08-25.87-1.69L595.56,330.7s27.43-27,26.65-44.19c0,0,7.28-29-4.42-34.19C617.79,252.32,588.15,230.73,599.08,218.78Z"/><path class="Habenaria-8" d="M613.82,308.47s2.66,41.34,28.4,40.18c0,0,11.57,2.34,22.23-15.34,0,0-8.22,8.15-6.91,37.16l-23.77,44.47-25.87-1.69L595.56,330.7Z"/><path class="Habenaria-9" d="M498.1,351s2.91,42.77,14.36,43.22,83.29-5.35,83.29-5.35l9.28,5.19s5.83,16.61,13.62,16.34l-4.82,9.26-25.7,17.62-82.73-9-19.81-6.5-10-18.79s12.74,9.61,25.89-8.87Z"/><path class="Habenaria-10" d="M449.15,364.54s.74,54.46,23.18,66.8c0,0,30.08,17,31.59,24.92,0,0,3.07-32.16,12-40.41,0,0-39.94-4.42-45.1-19,0,0-16.5-17.83-16.05-29.28C454.76,367.62,452.46,353.21,449.15,364.54Z"/><path class="Habenaria-10" d="M657.3,365.16s-.39,54.47-22.76,66.94c0,0-30,17.23-31.43,25.13,0,0-3.27-32.15-12.24-40.34,0,0,39.91-4.68,45-19.24,0,0,16.38-17.93,15.86-29.37C651.71,368.28,653.92,353.85,657.3,365.16Z"/><path class="Habenaria-11" d="M498.68,343.55S490.13,268.73,544.6,268c0,0,22.66,6.61,40,1.56,0,0,34,9.92,32.88,38.53,0,0,.53,44.12-6.68,53.3l-64.44,6.95L498.1,351"/><path class="Habenaria-12" d="M514.78,417S498,435.2,508,472.84c0,0,23.85,49.64,58.51,42.39,0,0,40.38-7,48-55.43,0,0-2.37-28.49-24.38-43.8Z"/><path class="Habenaria-13" d="M557,473.16c6,.22,3.46-11.47,3.46-11.47.48-11.58,7.26-31.62,7.26-31.62s51.16-12.61,32.38-62.59c0,0-24.5-56-42.35-56.64l-5,1c-17.85.79-42.18,57-42.18,57-18.64,50.12,32.56,62.35,32.56,62.35s6.85,20,7.36,31.57c0,0-2.46,11.7,3.49,11.44Z"/><path class="Habenaria-14" d="M571.94,375.06s-51.27-7.73-35.34,24.41c0,0,16,29.27,36.64,15.75,0,0,11.77-8.14,9.69-28.27C582.93,387,580.52,375.39,571.94,375.06Z"/><path class="Habenaria-15" d="M524,281.51s21.41,5.69,12,43c0,0-32.42,40-29.29,69.85,0,0-13.26,9.14-8.05-50.82C498.68,343.55,500.91,286.34,524,281.51Z"/><path class="Habenaria-15" d="M585.2,281.66s-21.32,6.07-11.26,43.21c0,0,33.1,39.46,30.49,69.34,0,0,13.41,8.91,7.17-50.95C611.6,343.26,608.38,286.09,585.2,281.66Z"/>
        </g>
    </g>
</svg>