<svg xmlns="http://www.w3.org/2000/svg" viewBox="0 0 1080 1080">
    <defs>
        <style>
            .Ponthieva-1{fill:#4e6845;}.Ponthieva-2{fill:#667821;}.Ponthieva-3{fill:#9cab00;}.Ponthieva-4{fill:#bcbf2f;}.Ponthieva-5{fill:#d5dc77;}.Ponthieva-6{fill:#aab7a9;}.Ponthieva-7{fill:#cdd3ce;}.Ponthieva-8{fill:#e5f0e9;}.Ponthieva-9{fill:#a9b48f;}.Ponthieva-10{fill:#566c0d;}.Ponthieva-11{fill:#8da05a;}.Ponthieva-12{fill:#96a647;}.Ponthieva-13{fill:#658100;}.Ponthieva-14{fill:#566702;}.Ponthieva-15{fill:#c2d3d3;}.Ponthieva-16{fill:#b2c1ba;}.Ponthieva-17{fill:#909a71;}.Ponthieva-18{fill:#bec7b8;}.Ponthieva-19{fill:#acbb8f;}.Ponthieva-20{fill:#9cb268;}.Ponthieva-21{fill:#a2b264;}.Ponthieva-22{fill:#99ad47;}.Ponthieva-23{fill:#9dad5c;}.Ponthieva-24{fill:#7c9800;}.Ponthieva-25{fill:#f0fbe7;}.Ponthieva-26{fill:#bfc87a;}.Ponthieva-27{fill:#907945;}.Ponthieva-28{fill:#7c622a;}.Ponthieva-29{fill:#ae9864;}.Ponthieva-30{fill:#bbab66;}.Ponthieva-31{fill:#cbc491;}.Ponthieva-32{fill:#ecd4a5;}.Ponthieva-33{fill:#96a65d;}.Ponthieva-34{fill:#8ea365;}.Ponthieva-35{fill:#c6d6c5;}.Ponthieva-36{fill:#bfd691;}.Ponthieva-37{fill:#7c9d12;}.Ponthieva-38{fill:#a1a963;}.Ponthieva-39{fill:#ddf597;}.Ponthieva-40{fill:#c3c5ae;}.Ponthieva-41{fill:#a5b384;}.Ponthieva-42{fill:#a9b39c;}.Ponthieva-43{fill:#87a52e;}.Ponthieva-44{fill:#88a34a;}.Ponthieva-45{fill:#9da968;}.Ponthieva-46{fill:#93a64f;}.Ponthieva-47{fill:#8b9a3b;}.Ponthieva-48{fill:#838c3d;}.Ponthieva-49{fill:#5f7417;}.Ponthieva-50{fill:#cedbcb;}.Ponthieva-51{fill:#aec565;}.Ponthieva-52{fill:#8db01b;}.Ponthieva-53{fill:#729b0b;}.Ponthieva-54{fill:#63831d;}.Ponthieva-55{fill:#a3b767;}.Ponthieva-56{fill:#d3e1b8;}.Ponthieva-57{fill:#e0f3bc;}.Ponthieva-58{fill:#8ca23b;}.Ponthieva-59{fill:#778d1a;}.Ponthieva-60{fill:#7e9614;}.Ponthieva-61{fill:#7f9d1a;}.Ponthieva-62{fill:#b2c2b4;}
        </style>
    </defs>
    <title>ORCHIDS</title>
        <g id="PonthievaRacemosa">
            <circle class="Ponthieva-1" cx="541" cy="540" r="540"/><path class="Ponthieva-2" d="M512.31,366.84l-15.06-14.66s-8.9-12.12-4.67-37.49L520.77,240l62,16.91,16.92,57.8s5.44,31.29-2.92,43.13Z"/><path class="Ponthieva-3" d="M512.82,360.94s15-66.7,27.7-65.72c0,0,13.3-7.45,21.93,27.14,0,0,8.31,38.82.2,52.33Z"/><path class="Ponthieva-4" d="M516.28,371.1s12.13-65.5,26.29-65.82c0,0,18.92-7,20.08,69.41Z"/><path class="Ponthieva-5" d="M526.54,375.43s6.3-63.13,18.94-62.15c0,0,10.17-3.46,12,64.54Z"/><polygon class="Ponthieva-6" points="542.73 156.84 562.4 158.36 576.97 225.94 572.85 279.34 513.82 274.78 542.73 156.84"/><path class="Ponthieva-7" d="M555.06,125.28s24.1,17.41,30.55,135.25c0,0-.23,39.57-21.52,22.37,0,0-5.3-4.65,1.74-22.48,0,0,8.23-51.67-16-86.06,0,0-13.3-10.92-19.38,67.78,0,0-.77,46.59-13.09,41.4,0,0-14.49,4.53-7.13-35.9,0,0,15.71-93.5,34.75-120.31C545,127.33,549.88,119.22,555.06,125.28Z"/><path class="Ponthieva-8" d="M545.58,339.44s-15.67,1.61-10-34.71c0,0,.22-21.19-12-27.79,0,0-12.65-1,3.26-42.16,0,0,16.12-44,25.74-40.42,0,0,14.7,11,18.36,73.52,0,0-2.5,13.95-9.63,14.81,0,0-7.45,4.95-9.9,27.45C551.38,310.14,556.93,338.9,545.58,339.44Z"/><path class="Ponthieva-9" d="M533.59,365.66s5.5,8.23,9.73,6.82A15.27,15.27,0,0,0,551,367.1l-.58,13.83,1.41,40.88-21.14-12.68Z"/><path class="Ponthieva-10" d="M630.18,298.44s9.32,39.77,3.09,62.9L618.34,354l-17.21-46.75,19-39.68S628.46,285.56,630.18,298.44Z"/><path class="Ponthieva-11" d="M621,273.6s5.82,14.65-2,23.87c0,0-4,13.81,4.49,30.1,0,0,12,8.11,10.22,29.17,0,0-3.45,23.76-15.77,35.43,0,0-9.21,9.11-9.33,18.3l-17.15-55.94,5.75-50.44,20.41-47.74S619.28,260.72,621,273.6Z"/><path class="Ponthieva-12" d="M626.28,360.35s4.77,10.32-5.78,17.9c0,0-5.67,7.77-5.39,17.11,0,0-8.14,8.61-7.06,20.72L597.8,375.36Z"/><path class="Ponthieva-13" d="M600,369.42s18.09,19.94,21.79-6.62L606,333.14l-9.19,24.68Z"/><path class="Ponthieva-14" d="M596.79,357.82s15.28,19.7,19.66,1.69L606,333.14Z"/><path class="Ponthieva-15" d="M618.39,262.77s-5.8-64.17-51.39-44c0,0-9.27,9.1,3.16,45.54,0,0,4.6,78.21,31,83.31,0,0,12.16,6.7,12.84,15.25,0,0,1.84,11.48,11.48-1.84,0,0,5.14-18.66-3.73-30.74,0,0-11.87-26.49-9.94-49C611.85,281.3,615.5,271.71,618.39,262.77Z"/><path class="Ponthieva-16" d="M575.59,225.84s16.81,18.42,13.47,40.77c0,0-5.78,17.9-2.89,33.71,0,0,8.43,33.59-2.49,28.95,0,0-13.57-23.26-14.28-64.35,0,0,1.58-2.77-3.62-15.91,0,0-7.53-19,1.86-29.51C567.64,219.5,570.94,214.12,575.59,225.84Z"/><path class="Ponthieva-17" d="M608.23,230.46s4.63,22.63-3,29c0,0-7.74,7.83.4,28.33,0,0,11.15,34.91,11.35,49.08,0,0,4.29,15.93-3.66,9.59,0,0-17.29-12.81-12.88,1.72,0,0,8.31,2.13,13,13.85,0,0,4.41,14.52,12.88-1.73,0,0,3.09-19.54-4.49-30.09,0,0-10.24-20-10.13-42.25,0,0,.48-11.49,4.75-19.33,0,0,4.45-3.56.29-16C616.7,252.73,612.43,236.87,608.23,230.46Z"/><path class="Ponthieva-18" d="M547.55,372.48s35.24-40.88,60.61-5.64c0,0,29.6,46.51,22.56,83.16,0,0-12.69,49.34-28.2,55L553.9,464.8Z"/><path class="Ponthieva-19" d="M598.3,409.13s11.27-7.05,21.14,12.68c0,0,4.23,14.1,8.46,12.69,0,0,1.41-7.05-5.64-25.37S616.94,383,616.94,383s14.37,27.69,14.78,51.56c0,0-1,33.73-20.33,62.52Z"/><path class="Ponthieva-20" d="M608.87,439.43s11.27-1.41,11.27,11.28c0,0,1.41,7.05,2.82,7.05,0,0,5.64,12.68-8.45,24Z"/><path class="Ponthieva-21" d="M575,407c4.93-6.34,29.6-24,33.83,21.14,0,0,12.74,38.54,7.07,61.56l-12.71,16L575.74,426S570.1,413.35,575,407Z"/><path class="Ponthieva-22" d="M608.87,478.9s9.86,43.69-7,62c0,0-18.32,18.32-25.37,18.32,0,0-28.19-18.32,0-32.42L596,454.51S601.82,459.16,608.87,478.9Z"/><path class="Ponthieva-23" d="M560.94,445.07s-4.6-36.78,18.14-18.39c0,0,19.92,25.44,19.92,43.76l-24.15,23.1Z"/><path class="Ponthieva-24" d="M575,422.52s19.73,16.91,28.19,55c0,0,8.46,47.92-9.87,57.79,0,0-14.09,11.28-19.73,0,0,0,1.41-42.59,1.41-53,0,0,20.73-2.68,13.19-29.1C588.23,453.17,562.35,418.29,575,422.52Z"/><path class="Ponthieva-9" d="M563.92,358.86s4.07,4.45-5.8,14.32c0,0-8.45,2.82,2.82,5.64,0,0,15.51,4.23,5.64,12.69,0,0-17.27,0-17.09,9.14l-2.64-28.88S558.44,357.22,563.92,358.86Z"/><path class="Ponthieva-25" d="M565.17,409.83s-5.64-5.64-5.64,0c0,0-1.41,4.23,2.82,4.23,0,0,0,2.82,5.64,14.09,0,0,4.13,11.32,9.11,8.48,0,0,2.17-2.84-7.7-16.93a10.53,10.53,0,0,0-4.23-4.23s-2.82-2.82,0-4.23Z"/><path class="Ponthieva-26" d="M584.91,463.39s-7-1.41-5.64,2.82c0,0,1.41,5.64,5.64,4.23C584.91,470.44,589.13,464.8,584.91,463.39Z"/><path class="Ponthieva-10" d="M463.85,292.8s-9.32,39.77-3.09,62.9l14.94-7.33,17.2-46.75-19-39.68S465.57,279.92,463.85,292.8Z"/><path class="Ponthieva-11" d="M473,268s-5.81,14.65,2.05,23.88c0,0,4,13.8-4.48,30.09,0,0-12,8.11-10.23,29.18,0,0,3.46,23.75,15.78,35.42,0,0,9.21,9.12,9.32,18.3l17.15-55.94-5.75-50.44-20.41-47.74S474.76,255.08,473,268Z"/><path class="Ponthieva-12" d="M467.75,354.72S463,365,473.54,372.61c0,0,5.67,7.77,5.38,17.11,0,0,8.14,8.61,7.06,20.73l10.25-40.72Z"/><path class="Ponthieva-13" d="M494,363.78s-18.1,19.94-21.79-6.62l15.84-29.65,9.2,24.67Z"/><path class="Ponthieva-14" d="M497.25,352.18s-15.29,19.71-19.67,1.69l10.47-26.36Z"/><path class="Ponthieva-15" d="M475.64,257.13s5.8-64.16,51.39-44c0,0,9.27,9.11-3.16,45.54,0,0-4.6,78.21-31,83.31,0,0-12.16,6.7-12.84,15.25,0,0-1.84,11.48-11.47-1.84,0,0-5.14-18.66,3.72-30.74,0,0,11.87-26.49,9.94-49C482.18,275.66,478.53,266.08,475.64,257.13Z"/><path class="Ponthieva-16" d="M518.45,220.2S501.64,238.62,505,261c0,0,5.78,17.9,2.9,33.71,0,0-8.43,33.59,2.48,28.95,0,0,13.57-23.26,14.28-64.35,0,0-1.58-2.77,3.62-15.91,0,0,7.53-19-1.86-29.51C526.39,213.86,523.1,208.49,518.45,220.2Z"/><path class="Ponthieva-17" d="M485.8,224.82s-4.63,22.64,3,29.05c0,0,7.75,7.83-.4,28.33,0,0-11.14,34.92-11.34,49.08,0,0-4.29,15.93,3.65,9.59,0,0,17.29-12.8,12.88,1.72,0,0-8.3,2.13-13,13.85,0,0-4.41,14.52-12.88-1.72,0,0-3.09-19.55,4.49-30.1,0,0,10.25-20,10.13-42.25,0,0-.48-11.49-4.75-19.33,0,0-4.45-3.55-.29-16C477.33,247.09,481.6,231.23,485.8,224.82Z"/><path class="Ponthieva-18" d="M538.39,372.48s-35.24-40.88-60.61-5.64c0,0-29.6,46.51-22.55,83.16,0,0,12.68,49.34,28.19,55l48.63-40.18Z"/><path class="Ponthieva-19" d="M487.65,409.13s-11.28-7.05-21.15,12.68c0,0-4.23,14.1-8.45,12.69,0,0-1.41-7.05,5.63-25.37S469,383,469,383s-14.37,27.69-14.78,51.56c0,0,1,33.73,20.33,62.52Z"/><path class="Ponthieva-20" d="M477.07,439.43S465.8,438,465.8,450.71c0,0-1.41,7.05-2.82,7.05,0,0-5.64,12.68,8.46,24Z"/><path class="Ponthieva-21" d="M510.9,407c-4.93-6.34-29.6-24-33.83,21.14,0,0-12.74,38.54-7.07,61.56l12.71,16L510.2,426S515.84,413.35,510.9,407Z"/><path class="Ponthieva-22" d="M477.07,478.9s-9.86,43.69,7.05,62c0,0,18.33,18.32,25.37,18.32,0,0,28.2-18.32,0-32.42L490,454.51S484.12,459.16,477.07,478.9Z"/><path class="Ponthieva-23" d="M525,445.07s4.6-36.78-18.14-18.39c0,0-19.92,25.44-19.92,43.76l24.15,23.1Z"/><path class="Ponthieva-24" d="M510.9,422.52s-19.73,16.91-28.19,55c0,0-8.45,47.92,9.87,57.79,0,0,14.1,11.28,19.73,0,0,0-1.41-42.59-1.41-53,0,0-20.73-2.68-13.18-29.1C497.72,453.17,523.59,418.29,510.9,422.52Z"/><path class="Ponthieva-9" d="M522,358.86s-4.07,4.45,5.8,14.32c0,0,8.46,2.82-2.82,5.64,0,0-15.51,4.23-5.64,12.69,0,0,17.27,0,17.09,9.14l2.64-28.88S527.51,357.22,522,358.86Z"/><path class="Ponthieva-25" d="M520.77,409.83s5.64-5.64,5.64,0c0,0,1.41,4.23-2.82,4.23,0,0,0,2.82-5.64,14.09,0,0-4.12,11.32-9.11,8.48,0,0-2.16-2.84,7.7-16.93a10.53,10.53,0,0,1,4.23-4.23s2.82-2.82,0-4.23Z"/><path class="Ponthieva-26" d="M501,463.39s7-1.41,5.64,2.82c0,0-1.41,5.64-5.64,4.23C501,470.44,496.81,464.8,501,463.39Z"/><path class="Ponthieva-27" d="M525,416.17s5.64-16.91,15.5-12.68c0,0,8.46,5.64,18.33,31,0,0,28.19,80.34,8.46,102.89,0,0-8.46,12.69-26.79,9.87,0,0-28.19,16.92-32.42-25.37C508.08,521.89,503.86,462.69,525,416.17Z"/><path class="Ponthieva-28" d="M508.08,521.89s1.41-22.55,9.87-12.69c0,0,2.82,28.19,18.33,25.38,0,0,26.78-9.87,26.78-24,0,0,1.41-15.5,7-9.86,0,0,7.17,7.37,1.47,29.06,0,0-7.1,21.68-31.07,17.45,0,0-18.54,10.67-28.3-9.47C512.2,537.79,508.08,528.94,508.08,521.89Z"/><path class="Ponthieva-29" d="M552.49,438s-14.1-22.55-25.38-8.46c0,0-13,13.63-10.74,40.65l22,3.05,19.73-8.46S563.76,456.35,552.49,438Z"/><path class="Ponthieva-30" d="M558.12,464.8s-2.9,71,2.78,78.49l-39,7.37s2.37-23.84-.44-46.39c0,0-14.1-33.83,0-39.47,0,0,12.68-5.64,16.91-2.82C538.39,462,563.76,452.12,558.12,464.8Z"/><path class="Ponthieva-31" d="M552.49,478.9s-25.38-12.69-28.2,9.87c0,0-1.41,16.91,14.1,19.73,0,0,11.28,1.41,15.51-16.92C553.9,491.58,556.71,484.54,552.49,478.9Z"/><circle class="Ponthieva-32" cx="537.69" cy="496.52" r="2.11"/><circle class="Ponthieva-32" cx="531.34" cy="487.36" r="1.41"/><circle class="Ponthieva-32" cx="528.52" cy="497.22" r="1.41"/><circle class="Ponthieva-32" cx="536.98" cy="502.86" r="1.41"/><circle class="Ponthieva-32" cx="534.87" cy="413.35" r="2.11"/><circle class="Ponthieva-32" cx="539.09" cy="421.81" r="2.11"/><circle class="Ponthieva-32" cx="528.52" cy="421.11" r="1.41"/><path class="Ponthieva-33" d="M567.29,550.08s4.22-15.5-32.42-9.87c0,0-18.33,2.82-9.87,24,0,0,7,39.46-4.23,59.2,0,0-52.15,38.06-36.65,83.16L494,815.08l77.52,28.19,33.83-136.73-4.93-105Z"/><path class="Ponthieva-34" d="M538.19,579.67s8.68,22.87-3.67,31.18l11.62,9.71H568.7s22.55,12.68,24,2.82c0,0-9-38.32-18.58-41.71Z"/><path class="Ponthieva-35" d="M573.63,608.58s-12.69-2.82-15.51,5.64c0,0-19.73-15.51-25.37,0,0,0-2.82,16.91,14.1,16.91,0,0,16.91-11.28,22.55-4.23,0,0,12.69,7.05,12.69-2.82C582.09,624.08,579.27,611.4,573.63,608.58Z"/><path class="Ponthieva-36" d="M532.75,643.82s-16.91,2.82-8.46,15.5c0,0,14.1,16.92,1.41,26.78,0,0-18.32,22.56,4.23,22.56A13.24,13.24,0,0,0,538.39,696s4.23-22.55,14.1-18.32l-.53-18s4.75-15.85-5.11-15.85Z"/><path class="Ponthieva-37" d="M562.35,665s-21.14-15.51-19.73,4.23c0,0,7,5.64,5.64,24,0,0-9.87,22.55-7,33.83,0,0,15.5,26.78,1.41,26.78,0,0-22.55-4.23-15.51,9.87,0,0,7,22.55,22.56,8.46,0,0,15.5-2.82,12.68-31,0,0-11.27-22.56,4.23-16.92l22.55-5.64s-26.78-19.73-26.78-36.65C562.35,681.87,569.4,669.19,562.35,665Z"/><path class="Ponthieva-38" d="M528.3,543s-11.76,4.25-3.3,21.17a24.27,24.27,0,0,1,14.09,22.55s0,16.91,8.46,4.23c0,0,8.46-4.23,9.87,9.86,0,0,4.23,9.87,14.09-7,0,0,9.87-32.42-4.22-43.7,0,0,1.05-10.37-12.87-10.82C554.42,539.26,537.24,537.34,528.3,543Z"/><circle class="Ponthieva-39" cx="577.15" cy="641.7" r="2.82"/><circle class="Ponthieva-39" cx="559.53" cy="648.04" r="2.11"/><circle class="Ponthieva-39" cx="563.76" cy="656.5" r="2.11"/><circle class="Ponthieva-39" cx="556.01" cy="629.02" r="4.23"/><ellipse class="Ponthieva-39" cx="517.95" cy="667.78" rx="2.82" ry="2.11"/><circle class="Ponthieva-39" cx="527.11" cy="729.8" r="3.52"/><circle class="Ponthieva-39" cx="545.44" cy="690.33" r="2.11"/><ellipse class="Ponthieva-39" cx="560.94" cy="712.18" rx="3.52" ry="2.82"/><ellipse class="Ponthieva-39" cx="581.38" cy="655.09" rx="1.41" ry="2.11"/><path class="Ponthieva-34" d="M520.77,657.91c0,.39-.95.71-2.11.71s-2.12-.32-2.12-.71"/><path class="Ponthieva-40" d="M602.52,551.49s39.47-22.55,45.11-60.61c0,0,33.83-117,272-111.36,0,0,91.63-9.86,91.63,32.42,0,0-26.79,42.29-88.81,53.57,0,0-19.73,4.23-38,43.69,0,0-66.25,124-111.36,124C773.08,633.24,611.69,629.72,602.52,551.49Z"/><path class="Ponthieva-41" d="M827.93,404S833,470.44,802,490.17c0,0-156.46,78.14-179,61.63V535.58s18.33-14.4,24.67-44.7l55.68-48.63,60.61-32.42Z"/><path class="Ponthieva-42" d="M802,467.62s21.14-73.29,38-76.11c0,0,38.86-13.84,85-11.85,0,0,33.44,3.39-7.44,23.12,0,0-26.78,2.82-25.37,21.15,0,0,8.46,9.86,26.78,0,0,0,38.06-11.28,1.41,18.32,0,0-42.29,49.33-59.2,52.15l-141,125.45L629.86,595s-23.81-32.92-21-38.56l94.44-31Z"/><path class="Ponthieva-43" d="M625.78,543.74s94.44-32.42,110-47.93c0,0,24-18.32,46.51-21.14,0,0,32.42-18.32,43.7-40.88,0,0,24-36.65,60.61-38.06,0,0,12.69,1.41,0,9.87,0,0-21.14,12.69-29.6,14.1,0,0-14.1,4.23-21.14,21.14,0,0-21.15,39.47-50.75,46.52,0,0-28.19,12.68-46.51,28.19a376.32,376.32,0,0,1-40.88,19.73s-66.25,24-74.71,24Z"/><path class="Ponthieva-33" d="M646.58,496.32s-1.06,19.23,14.44-.51c0,0,47.93-62,81.76-71.88,0,0,43.69-8.46,57.79,0,0,0,21.14,5.63,39.46-21.15,0,0,18.8-20.88,42.52-23.12,0,0-61-.22-118,18.5C764.56,398.16,666,424.94,646.58,496.32Z"/><path class="Ponthieva-44" d="M626,569.83S707.54,548,727.27,539.51c0,0,26.78-8.46,50.74-21.14,0,0,45.11-26.79,52.16-40.88,0,0,29.6-36.65,55-39.47,0,0,16.91-1.41-2.82,12.69,0,0-29.6,16.91-38.06,31,0,0-15.5,19.73-52.15,38.06,0,0-80.34,42.28-104.31,46.51,0,0-63.43,19.73-69.07,11.28C618.73,577.57,617.79,569.14,626,569.83Z"/><path class="Ponthieva-45" d="M865.41,504.27S838.62,571.93,818.89,579l-98.67,40.87s4.23-26.78-22.55-26.78c0,0-31,4.23-25.37-7.05,0,0,98.67-36.64,138.13-56.38Z"/><path class="Ponthieva-46" d="M676.53,586s66.25-12.68,148-73.29c0,0,39.47-33.83,57.79-35.24,0,0,9.87,2.82-18.32,21.14,0,0-11.28,7.05-29.6,28.19,0,0-15.51,1.41-49.34,26.78C785.06,553.6,711.77,588.84,676.53,586Z"/><path class="Ponthieva-47" d="M861.36,548s-29.78,21.07-53.75,22.48c0,0-66.24,21.14-66.24,46.51,0,0,0,12.69,32.42,16.92C773.79,634,813.61,629.87,861.36,548Z"/><path class="Ponthieva-48" d="M1012,411.24s-25.37-1.41-29.6,4.23c0,0-4.23,11.27,9.87,7C992.27,422.52,1006.36,418.29,1012,411.24Z"/><path class="Ponthieva-49" d="M632.83,538.1s1.41,35.24-14.1,35.24c0,0-14.09-8.46-15.5-22.55,0,0,17.71-11.91,22.95-18.64C626.18,532.15,634.24,524,632.83,538.1Z"/><path class="Ponthieva-40" d="M521.48,551.49S482,528.94,476.37,490.88c0,0-33.83-117-272-111.36,0,0-91.63-9.86-91.63,32.42,0,0,26.79,42.29,88.81,53.57,0,0,19.73,4.23,38.05,43.69,0,0,66.25,124,111.36,124C350.92,633.24,512.31,629.72,521.48,551.49Z"/><path class="Ponthieva-41" d="M296.07,404S291,470.44,322,490.17c0,0,156.46,78.14,179,61.63V535.58s-18.33-14.4-24.67-44.7l-55.68-48.63-60.61-32.42Z"/><path class="Ponthieva-42" d="M322,467.62s-21.14-73.29-38-76.11c0,0-38.86-13.84-85-11.85,0,0-33.44,3.39,7.44,23.12,0,0,26.78,2.82,25.37,21.15,0,0-8.46,9.86-26.78,0,0,0-38.06-11.28-1.41,18.32,0,0,42.29,49.33,59.2,52.15l141,125.45L494.14,595s23.81-32.92,21-38.56l-94.44-31Z"/><path class="Ponthieva-43" d="M498.22,543.74s-94.44-32.42-110-47.93c0,0-24-18.32-46.51-21.14,0,0-32.42-18.32-43.7-40.88,0,0-24-36.65-60.61-38.06,0,0-12.69,1.41,0,9.87,0,0,21.14,12.69,29.6,14.1,0,0,14.1,4.23,21.14,21.14,0,0,21.15,39.47,50.75,46.52,0,0,28.19,12.68,46.51,28.19a376.32,376.32,0,0,0,40.88,19.73s66.25,24,74.71,24Z"/><path class="Ponthieva-33" d="M477.42,496.32s1.06,19.23-14.44-.51c0,0-47.93-62-81.76-71.88,0,0-43.69-8.46-57.79,0,0,0-21.14,5.63-39.46-21.15,0,0-18.8-20.88-42.52-23.12,0,0,61-.22,118,18.5C359.44,398.16,458,424.94,477.42,496.32Z"/><path class="Ponthieva-44" d="M498,569.83S416.46,548,396.73,539.51c0,0-26.78-8.46-50.74-21.14,0,0-45.11-26.79-52.16-40.88,0,0-29.6-36.65-55-39.47,0,0-16.91-1.41,2.82,12.69,0,0,29.6,16.91,38.06,31,0,0,15.5,19.73,52.15,38.06,0,0,80.34,42.28,104.31,46.51,0,0,63.43,19.73,69.07,11.28C505.27,577.57,506.21,569.14,498,569.83Z"/><path class="Ponthieva-45" d="M258.59,504.27s26.79,67.66,46.52,74.71l98.67,40.87s-4.23-26.78,22.55-26.78c0,0,31,4.23,25.37-7.05,0,0-98.67-36.64-138.13-56.38Z"/><path class="Ponthieva-46" d="M447.47,586s-66.25-12.68-148-73.29c0,0-39.47-33.83-57.79-35.24,0,0-9.87,2.82,18.32,21.14,0,0,11.28,7.05,29.6,28.19,0,0,15.51,1.41,49.34,26.78C338.94,553.6,412.23,588.84,447.47,586Z"/><path class="Ponthieva-47" d="M262.64,548s29.78,21.07,53.75,22.48c0,0,66.24,21.14,66.24,46.51,0,0,0,12.69-32.42,16.92C350.21,634,310.39,629.87,262.64,548Z"/><path class="Ponthieva-48" d="M112,411.24s25.37-1.41,29.6,4.23c0,0,4.23,11.27-9.87,7C131.73,422.52,117.64,418.29,112,411.24Z"/><path class="Ponthieva-49" d="M491.17,538.1s-1.41,35.24,14.1,35.24c0,0,14.09-8.46,15.5-22.55,0,0-17.71-11.91-22.95-18.64C497.82,532.15,489.76,524,491.17,538.1Z"/><path class="Ponthieva-50" d="M585.61,548.67s-32.42-18.32-31,12.69c0,0,1.41,19.73,15.5,25.37,0,0,39.47,40.88,15.51,87.39,0,0-32.42,15.51-18.32,43.7,0,0,14.09,53.56-12.69,62,0,0-22.55,4.23-11.28,80.34,0,0,15.51,45.11,0,60.61,0,0-22.55,15.51,28.19,18.33,0,0,60.62-9.87,83.17-36.65,0,0,32.42-28.19,62-18.32,0,0,12.68,12.68,24-31,0,0,42.29-91.62,108.54-111.35,0,0,49.33-36.65,15.5-77.53,0,0-40.17-57.08-100.78-52.85,0,0-52.15,7-67.66,1.41,0,0-70.48-21.15-78.94-42.29C617.32,570.52,607.46,552.2,585.61,548.67Z"/><path class="Ponthieva-51" d="M778,622.67s78.94,66.25,43.7,94.44c0,0-46.52,7-43.7,35.24,0,0,6.81,17.32-.12,42.49,0,0-28.07,36.45-36.52,57.59,0,0-6.47,33-20.86,33.4,0,0-17.2-5.21-15.79-24.94,0,0,7-16.92-26.78-7,0,0-29.6,24-11.28-19.73,0,0,22.55-64.84,9.87-71.89,0,0-9.87-8.46-15.51,15.5,0,0-16.91,35.24-19.73,11.28,0,0-2.82-19.73,0-35.24,0,0,7.05-29.6-5.64-28.19,0,0-5.64-1.41-7,15.51,0,0-4.23,16.91-9.87,12.68,0,0-9.86-2.82,0-31,0,0,5.64-47.92-9.86-45.1,0,0-12.69,15.5-19.74,15.5,0,0-14.09,0-8.45,28.19,0,0,12.68,50.75-5.64,60.61,0,0-31,15.51-21.14-2.82,0,0,10.61,1.35,15.87-19.06a100.48,100.48,0,0,0-4.43-46.9s-8.53-16.74,9.75-31.77c0,0,13.59-6.71,18-33.42,0,0,2.41-24-13.49-48.61,0,0-5-9.87-14-15.13,0,0-17.29-12.55-8.2-36.39,0,0,8.68-8.14,18-3.31L594.22,551s18.5,6.11,26.44,24.8c0,0,24.67,23.91,86.78,38.92,0,0,28.29.92,56.48-3.31C763.92,611.4,773.79,618.44,778,622.67Z"/><path class="Ponthieva-52" d="M641.29,667.78s21.14,24,11.27,52.15c0,0-8.45,36.65,2.82,33.83,0,0,12.69-2.82,12.69-42.29,0,0-15.51-59.2-2.82-62,0,0,14.1-7,32.42,42.29,0,0,4.23,15.51-9.87,46.52,0,0-5.64,19.73-4.23,38a93.42,93.42,0,0,1-8.91,31.24s-6.59,26.56,7.5,20.92c0,0,1.41,5.64,14.1-43.7,0,0,4.23-46.51,16.91-49.33,0,0,15.51-7.05,4.23-35.24,0,0-19.73-39.47-9.86-50.75,0,0,14.09,0,14.09-9.86a14.48,14.48,0,0,0-8.46-9.87s-9.16-8.79,25-15.67c0,0-37.58,5.51-77.81-14.78l-43.06-7.61-10.25-33.07s-2.73-5.87-37.11-15.3c0,0-17.47-2.37-15.36,18.07,0,0,.7,19,15.5,25.37,0,0,29.85,30.7,20.22,72.79,0,0,1.63,11.08,7.27-1.61,0,0,4.23-22.55-1.41-43.69,0,0-2.82-16.92,9.87,8.45,0,0,21.14,35.24,19.73,70.48,0,0-1.41,16.92,5.64,12.69,0,0,7.05-1.41,4.23-19.74C635.65,686.1,631.42,659.32,641.29,667.78Z"/><path class="Ponthieva-53" d="M602.5,560.29s-17.59,20.1,5,34.19c0,0,11.27,15.51,11.27,39.47,0,0,1.41,22.55,8.46,14.09,0,0,2.82-9.86,0-26.78,0,0,0-19.73,14.1,22.56,0,0,5.64,24,11.27,21.14,0,0,4.23-4.23-2.82-28.19,0,0-9.86-32.42,9.87-12.69,0,0,25.37,31,33.83,24,0,0,7-8.45-5.64-22.55,0,0-8.45-14.09,9.87-1.41,0,0,14.1,5.64-1.41-11.27,0,0-51-16.1-66.37-29.9a49.67,49.67,0,0,1-15-16.8S606,554.3,602.5,560.29Z"/><path class="Ponthieva-54" d="M621.55,583.21s11.28,21.14,22.56,22.55c0,0,18.65,1.41,31.88,0,0,0-42.13-13.42-55.33-30C620.66,575.79,618.73,579,621.55,583.21Z"/><path class="Ponthieva-55" d="M566.58,550.79s5.64-7,15.51,0c0,0,8.45,5.63,7,14.09,0,0-4.22,14.1-11.27,15.51,0,0-10.86,5.19-17.41-1.64C560.45,578.75,552.49,560.65,566.58,550.79Z"/><path class="Ponthieva-56" d="M572.22,553.6s9.87-5.63,9.87,9.87c0,0-2.82,15.51-9.87,12.69C572.22,576.16,560.94,570.52,572.22,553.6Z"/><path class="Ponthieva-57" d="M686.39,681.87s-16.91-4.22-14.09,14.1,21.14,0,21.14,0S700.49,687.51,686.39,681.87Z"/><path class="Ponthieva-58" d="M695.2,795.44s10.93.61,8.11,24.57c0,0-2.82,22.55,8.46,9.87,0,0,7-9.87,5.63-21.15,0,0,7.05-15.5,8.46,25.38,0,0,8.46,24,0,24,0,0-12.69,7,0,14.09,0,0,9.87,4.23,15.51-19.73,0,0,12.33-22.75,21-36,0,0,14.27-34.44,4.41-44.3,0,0-12.69-14.1,8.45-36.65,0,0,9.87-12.69-4.22-21.15,0,0-8.46-9.86-4.23-32.42,0,0,0-32.42-22.56-25.37,0,0-8.45,4.23-12.68-4.23,0,0-11.28-11.27-14.1,2.82,0,0-1.41,11.28,9.87,14.1,0,0,15.51,11.27,15.51,24L717.4,732.62s-14.15-3.87-19,36.83C698.35,769.45,691.33,792,695.2,795.44Z"/><path class="Ponthieva-59" d="M741.37,624.08S771,634,771,659.32c0,0,11.27,32.42,22.55,33.83,0,0,22.55,7.05,25.37,15.51,0,0,1.41,11.27-9.87,2.81,0,0-5.63-5.63-18.32-7,0,0-26.78-5.64-33.83-39.47,0,0-2.82-18.32-14.09-21.14,0,0-15.51-7.05-9.87-18.33C732.91,625.49,732.91,622.67,741.37,624.08Z"/><path class="Ponthieva-60" d="M731.5,676.24s19.73-8.46,19.73,24c0,0-1.41,33.83-15.5,33.83,0,0-11.28,2.82-7.05,14.09,0,0,7.05,22.56-2.82,24,0,0-9.87,4.22-8.46-12.69,0,0,0-15.51,5.64-25.37,0,0,2.54-8.31-5.77-2,0,0,10-6.42.13-31.79C717.4,700.2,718.81,681.87,731.5,676.24Z"/><path class="Ponthieva-61" d="M565.82,692.78s9.22-6.68,7.81,14.47c0,0,0,8.45,4.23,26.78,0,0,7,32.42-4.23,38.06,0,0-13,8.45-8.64,0,0,0,10.88-14.62,3.42-48.19a85.83,85.83,0,0,0-4.33-14.37S560.83,700.87,565.82,692.78Z"/><path class="Ponthieva-62" d="M640.17,775.84s-11.57,42.76-49.63,80.82c0,0-38,29.6-38,60.61,0,0-2.82,21.14,19.73-9.87,0,0,16.91-38.06,28.19-18.32,0,0,11.28,19.73,28.19,5.64,0,0,22.55-18.33,8.46-31,0,0-19.74-2.82-14.1-21.15C623,842.56,653.14,796.52,640.17,775.84Z"/><path class="Ponthieva-50" d="M493.8,551.49s32.42-18.32,31,12.69c0,0-1.41,19.73-15.5,25.37,0,0-39.47,40.88-15.51,87.39,0,0,32.42,15.51,18.32,43.7,0,0-14.09,53.56,12.69,62,0,0,22.55,4.23,11.28,80.34,0,0-15.51,45.11,0,60.61,0,0,22.55,15.51-28.19,18.33,0,0-60.62-9.87-83.17-36.65,0,0-32.42-28.19-62-18.33,0,0-12.68,12.69-24-31,0,0-42.29-91.62-108.54-111.35,0,0-49.33-36.65-15.5-77.53,0,0,40.17-57.08,100.78-52.85,0,0,52.16,7,67.66,1.41,0,0,70.48-21.15,78.94-42.29C462.09,573.34,472,555,493.8,551.49Z"/><path class="Ponthieva-51" d="M301.4,625.49s-78.94,66.25-43.7,94.44c0,0,46.52,7.05,43.7,35.24,0,0-6.81,17.32.12,42.49,0,0,28.07,36.45,36.52,57.59,0,0,6.47,33,20.86,33.39,0,0,17.2-5.2,15.79-24.93,0,0-7-16.92,26.78-7.05,0,0,29.6,24,11.28-19.74,0,0-22.55-64.83-9.87-71.88,0,0,9.87-8.46,15.51,15.5,0,0,16.91,35.24,19.73,11.28,0,0,2.82-19.73,0-35.24,0,0-7.05-29.6,5.64-28.19,0,0,5.64-1.41,7.05,15.5,0,0,4.23,16.92,9.87,12.69,0,0,9.86-2.82,0-31,0,0-5.64-47.92,9.86-45.11,0,0,12.69,15.51,19.74,15.51,0,0,14.09,0,8.45,28.19,0,0-12.68,50.74,5.64,60.61,0,0,31,15.51,21.15-2.82,0,0-10.62,1.35-15.88-19.06a100.48,100.48,0,0,1,4.43-46.9s8.53-16.74-9.75-31.77c0,0-13.59-6.71-18.05-33.43,0,0-2.41-24,13.49-48.6,0,0,5-9.87,14-15.13,0,0,17.29-12.55,8.2-36.4,0,0-8.68-8.13-18-3.3l-18.68,6.45s-18.5,6.11-26.44,24.8c0,0-24.67,23.91-86.78,38.92,0,0-28.29.91-56.48-3.31C315.49,614.22,305.62,621.26,301.4,625.49Z"/><path class="Ponthieva-52" d="M438.12,670.6s-21.14,24-11.27,52.15c0,0,8.45,36.65-2.82,33.83,0,0-12.69-2.82-12.69-42.29,0,0,15.51-59.2,2.82-62,0,0-14.1-7-32.42,42.29,0,0-4.23,15.51,9.87,46.52,0,0,5.64,19.73,4.23,38a93.42,93.42,0,0,0,8.91,31.24s6.59,26.55-7.5,20.92c0,0-1.41,5.63-14.1-43.7,0,0-4.23-46.51-16.91-49.33,0,0-15.51-7-4.23-35.24,0,0,19.73-39.47,9.86-50.75,0,0-14.09,0-14.09-9.86a14.48,14.48,0,0,1,8.46-9.87s9.17-8.79-25-15.67c0,0,37.58,5.51,77.81-14.78l43.06-7.61,10.25-33.07s2.73-5.87,37.11-15.3c0,0,17.47-2.37,15.36,18.07,0,0-.7,19-15.5,25.37,0,0-29.85,30.7-20.22,72.79,0,0-1.63,11.08-7.27-1.61,0,0-4.23-22.55,1.41-43.7,0,0,2.82-16.91-9.87,8.46,0,0-21.14,35.24-19.73,70.48,0,0,1.41,16.91-5.64,12.69,0,0-7.05-1.41-4.23-19.74C443.76,688.92,448,662.14,438.12,670.6Z"/><path class="Ponthieva-53" d="M476.91,563.11s17.59,20.1-5,34.19c0,0-11.27,15.51-11.27,39.47,0,0-1.41,22.55-8.46,14.09,0,0-2.82-9.86,0-26.78,0,0,0-19.73-14.1,22.56,0,0-5.64,24-11.27,21.14,0,0-4.23-4.23,2.82-28.19,0,0,9.86-32.42-9.87-12.69,0,0-25.37,31-33.83,24,0,0-7.05-8.45,5.64-22.55,0,0,8.45-14.09-9.87-1.41,0,0-14.09,5.64,1.41-11.27,0,0,51-16.1,66.37-29.9a49.67,49.67,0,0,0,15-16.8S473.41,557.11,476.91,563.11Z"/><path class="Ponthieva-54" d="M457.86,586s-11.28,21.15-22.56,22.56c0,0-18.65,1.41-31.87,0,0,0,42.12-13.42,55.32-30C458.75,578.61,460.68,581.8,457.86,586Z"/><path class="Ponthieva-55" d="M512.83,553.6s-5.64-7-15.51,0c0,0-8.45,5.64-7,14.1,0,0,4.22,14.1,11.27,15.51,0,0,10.86,5.19,17.41-1.64C519,581.57,526.92,563.47,512.83,553.6Z"/><path class="Ponthieva-56" d="M507.19,556.42s-9.87-5.63-9.87,9.87c0,0,2.82,15.51,9.87,12.69C507.19,579,518.47,573.34,507.19,556.42Z"/><path class="Ponthieva-57" d="M393,684.69s16.91-4.23,14.09,14.1-21.14,0-21.14,0S378.92,690.33,393,684.69Z"/><path class="Ponthieva-58" d="M384.21,798.26s-10.93.61-8.11,24.57c0,0,2.82,22.55-8.45,9.87,0,0-7-9.87-5.64-21.15,0,0-7.05-15.5-8.46,25.37,0,0-8.46,24,0,24,0,0,12.69,7.05,0,14.09,0,0-9.87,4.23-15.51-19.73,0,0-12.33-22.75-21-36,0,0-14.27-34.44-4.41-44.31,0,0,12.69-14.09-8.45-36.64,0,0-9.87-12.69,4.22-21.15,0,0,8.46-9.86,4.23-32.42,0,0,0-32.42,22.56-25.37,0,0,8.45,4.23,12.68-4.23,0,0,11.28-11.27,14.1,2.82,0,0,1.41,11.28-9.87,14.1,0,0-15.51,11.27-15.51,24L362,735.44s14.15-3.87,19.05,36.83C381.06,772.27,388.08,794.82,384.21,798.26Z"/><path class="Ponthieva-59" d="M338,626.9s-29.6,9.87-29.6,35.24c0,0-11.27,32.42-22.55,33.83,0,0-22.55,7-25.37,15.5,0,0-1.41,11.28,9.87,2.82,0,0,5.63-5.63,18.32-7,0,0,26.78-5.64,33.83-39.47,0,0,2.82-18.33,14.09-21.14,0,0,15.51-7,9.87-18.33C346.5,628.31,346.5,625.49,338,626.9Z"/><path class="Ponthieva-60" d="M347.91,679.05s-19.73-8.45-19.73,24c0,0,1.41,33.83,15.5,33.83,0,0,11.28,2.82,7.05,14.09,0,0-7.05,22.56,2.82,24,0,0,9.87,4.23,8.46-12.68,0,0,0-15.51-5.64-25.37,0,0-2.54-8.31,5.77-2,0,0-10-6.42-.13-31.79C362,703,360.6,684.69,347.91,679.05Z"/><path class="Ponthieva-61" d="M513.59,695.6s-9.22-6.68-7.81,14.47c0,0,0,8.45-4.23,26.78,0,0-7.05,32.42,4.23,38,0,0,13.05,8.46,8.64,0,0,0-10.88-14.62-3.42-48.18a85.83,85.83,0,0,1,4.33-14.37S518.58,703.69,513.59,695.6Z"/><path class="Ponthieva-62" d="M439.24,778.66s11.57,42.76,49.63,80.82c0,0,38,29.6,38,60.61,0,0,2.82,21.14-19.73-9.87,0,0-16.91-38.06-28.19-18.32,0,0-11.28,19.73-28.19,5.64,0,0-22.55-18.33-8.46-31,0,0,19.74-2.82,14.1-21.15C456.45,845.38,426.27,799.34,439.24,778.66Z"/>
    </g>
</svg>