<svg xmlns="http://www.w3.org/2000/svg" viewBox="0 0 864 864">
    <defs>
        <style>
            .Catesbaea-1{fill:#2a4024;}.Catesbaea-2{fill:#63790f;}.Catesbaea-3{fill:#91a335;}.Catesbaea-4{fill:#719136;}.Catesbaea-5{fill:#ffffb3;}.Catesbaea-6{fill:#556f00;}.Catesbaea-7{fill:#949127;}.Catesbaea-8{fill:#2d4800;}.Catesbaea-9{fill:#778b2c;}.Catesbaea-10{fill:#9ea413;}.Catesbaea-11{fill:#8a9a2b;}.Catesbaea-12{fill:#6d8427;}.Catesbaea-13{fill:#2f4709;}.Catesbaea-14{fill:#e7cc61;}.Catesbaea-15{fill:#97990d;}.Catesbaea-16{fill:#798101;}.Catesbaea-17{fill:#a7a927;}.Catesbaea-18{fill:#788313;}.Catesbaea-19{fill:#8d9a30;}.Catesbaea-20{fill:#979a3c;}.Catesbaea-21{fill:#6a7f24;}.Catesbaea-22{fill:#879a23;}.Catesbaea-23{fill:#788f39;}.Catesbaea-24{fill:#7b901d;}.Catesbaea-25{fill:#898e12;}.Catesbaea-26{fill:#526c12;}.Catesbaea-27{fill:#a8b325;}.Catesbaea-28{fill:#a9b647;}.Catesbaea-29{fill:#acad33;}.Catesbaea-30{fill:#889423;}.Catesbaea-31{fill:#8d9d23;}.Catesbaea-32{fill:#728a14;}.Catesbaea-33{fill:#8a9b1b;}.Catesbaea-34{fill:#708012;}.Catesbaea-35{fill:#b3aa1e;}.Catesbaea-36{fill:#86971b;}.Catesbaea-37{fill:#546e03;}.Catesbaea-38{fill:#758515;}.Catesbaea-39{fill:#8ea336;}.Catesbaea-40{fill:#708129;}.Catesbaea-41{fill:#939b27;}.Catesbaea-42{fill:#6a8208;}.Catesbaea-43{fill:#5a7308;}.Catesbaea-44{fill:#839417;}.Catesbaea-45{fill:#5f7911;}.Catesbaea-46{fill:#4f7007;}.Catesbaea-47{fill:#9da81c;}.Catesbaea-48{fill:#667611;}.Catesbaea-49{fill:#808b14;}.Catesbaea-50{fill:#77800d;}.Catesbaea-51{fill:#51600c;}.Catesbaea-52{fill:#e6e7ea;}.Catesbaea-53{fill:#c6c6af;}.Catesbaea-54{fill:#9d9971;}.Catesbaea-55{fill:#f0f1f3;}.Catesbaea-56{fill:#d9dac8;}.Catesbaea-57{fill:#afad81;}.Catesbaea-58{fill:#ecefe9;}.Catesbaea-59{fill:#cfcebb;}.Catesbaea-60{fill:#c2be94;}.Catesbaea-61{fill:#ada673;}.Catesbaea-62,.Catesbaea-65,.Catesbaea-66,.Catesbaea-67,.Catesbaea-79{fill:none;stroke-linecap:round;stroke-miterlimit:10;}.Catesbaea-62{stroke:#e1dcad;}.Catesbaea-62,.Catesbaea-65,.Catesbaea-66,.Catesbaea-67{stroke-width:11px;}.Catesbaea-63{fill:#f2f5f1;}.Catesbaea-64{fill:#e0dfcf;}.Catesbaea-65{stroke:#ede8b4;}.Catesbaea-66{stroke:#f1f1db;}.Catesbaea-67{stroke:#f1edc3;}.Catesbaea-68{fill:#b5b891;}.Catesbaea-69{fill:#898f3d;}.Catesbaea-70{fill:#f2f2f0;}.Catesbaea-71{fill:#d0d3c3;}.Catesbaea-72{fill:#f0f1f2;}.Catesbaea-73{fill:#cdccb9;}.Catesbaea-74{fill:#b2ae82;}.Catesbaea-75{fill:#878148;}.Catesbaea-76{fill:#e8edf0;}.Catesbaea-77{fill:#c2c2a4;}.Catesbaea-78{fill:#9c9c67;}.Catesbaea-79{stroke:#f5f0bf;stroke-width:14px;}.Catesbaea-80{fill:#f4f4e9;}.Catesbaea-81{fill:#d7d5c6;}
        </style>
    </defs>
    <title>rubiaceae</title>
        <g id="c_parviflora_flower">
            <circle class="Catesbaea-1" cx="432" cy="433" r="432"/>
                <g id="leaves-2" data-name="leaves">
                    <path class="Catesbaea-2" d="M397,356.17s12.3-35.38,49.22-29.23c0,0,16.92,16.92-18.46,35.38Z"/><circle class="Catesbaea-3" cx="164.71" cy="331.56" r="31.53"/><ellipse class="Catesbaea-3" cx="318.51" cy="374.62" rx="46.91" ry="37.68"/><path class="Catesbaea-4" d="M398.49,308.49s29.22,1.54,20,24.61c0,0-18.45,26.14-32.3,6.15C386.18,339.25,373.88,310,398.49,308.49Z"/><path class="Catesbaea-5" d="M418.48,333.1s-9.56-2-10.93,10.56C407.55,343.66,416.94,337.71,418.48,333.1Z"/><path class="Catesbaea-6" d="M406.23,318.78s7.64,8.16-1.59,18.93c0,0-16.92,7.69-16.92-10.77C387.72,326.94,397,307.55,406.23,318.78Z"/><path class="Catesbaea-7" d="M370.8,297.72s36.92-13.84,35.38,23.07c0,0-3.08,30.76-40,30.76,0,0-26.15-20-23.07-36.91C343.12,314.64,358.5,300.8,370.8,297.72Z"/><path class="Catesbaea-8" d="M357,320.79s6.15-12.3,13.84-12.3c0,0,7.69-1.54,6.16,12.3,0,0-1.68,14.3-8.53,14.84C368.43,335.63,343.12,343.86,357,320.79Z"/><path class="Catesbaea-5" d="M400,323.87s-3.08-6.15-9.23,3.07c0,0-7.69,12.31,0,12.31C390.8,339.25,401.56,336.17,400,323.87Z"/><path class="Catesbaea-9" d="M258.72,290.8s16.72-22.3,39.8-6.92c0,0,13.84,24.61-10.77,36.91,0,0-23.07,9.23-32.3,0C255.45,320.79,246.6,305.41,258.72,290.8Z"/><path class="Catesbaea-10" d="M275.44,470s-1.53,30.76,27.69,30.76c0,0,27.93-4.39,27.81-33C330.94,467.78,292.36,443.84,275.44,470Z"/><ellipse class="Catesbaea-11" cx="346.96" cy="492.28" rx="31.53" ry="28.45"/><ellipse class="Catesbaea-12" cx="350.04" cy="455.37" rx="36.14" ry="33.07"/><path class="Catesbaea-13" d="M351.94,441.77s-13.44,3.6-10.36,12.83c0,0,6.15,9.23,13.84,12.31,0,0,24.61,4.61,15.38,12.3,0,0-12.77,10.69-28.69,8.42,0,0-25.22-7.42-27.49-27.14C314.62,460.49,343.85,424.33,351.94,441.77Z"/><path class="Catesbaea-5" d="M375.42,457.68s-6.29-25-17-18.66c0,0-4.54-1.34.07,9.43,0,0,10.77,18.46,15.38,15.38C373.88,463.83,375.42,463.83,375.42,457.68Z"/><ellipse class="Catesbaea-14" cx="287.75" cy="443.07" rx="44.6" ry="34.61" transform="translate(-136.84 128.69) rotate(-20.48)"/><path class="Catesbaea-5" d="M320.05,451.53s-3.08-9.23-18.46,0c0,0-12.64,4.14-20.93,5.91,0,0-16,3.31-11.37,6.39,0,0,27.69,6.15,47.68-6.15C317,457.68,321.59,454.6,320.05,451.53Z"/><path class="Catesbaea-15" d="M435.4,376.16s43.07-6.15,43.07,24.61c0,0-6.16,50.76-43.07,41.53C435.4,442.3,389.26,406.92,435.4,376.16Z"/><path class="Catesbaea-16" d="M437.43,393.68s18-8.29,18,7.09c0,0-7.69,6.15-4.62,10.77,0,0,9.23,10.76-4.61,13.84,0,0-15.38,9.23-23.07-7.69C423.1,417.69,416.39,400.43,437.43,393.68Z"/><path class="Catesbaea-5" d="M474.21,386.69a27.5,27.5,0,0,0-21.52-10.48s-8.06,3-.37,7.64c0,0,18.46,7.69,16.92,21.54,0,0-1.54,13.84,4.61,9.22C473.85,414.61,482.25,398.75,474.21,386.69Z"/><path class="Catesbaea-17" d="M412.33,430s35.38,0,32.3,33.84c0,0-15.38,55.37-49.22,24.61,0,0-30.76-35.38,3.08-55.37Z"/><path class="Catesbaea-18" d="M409.2,451.82s26.2,18.16,17,22.78c0,0-9.23-1.54-7.69,4.61,0,0,4.62,6.15-6.15,6.15,0,0-19.82,2.83-23.75-7,0,0-13.51-21,1.27-38.49Z"/><path class="Catesbaea-5" d="M443.12,449s-12.33-22.11-29.25-9.81c0,0-6.15,6.15,6.15,9.23,0,0,15.38,0,15.38,6.15,0,0,4.62,18.46-10.76,30.76,0,0-11.5,7.35,1.94,8.29C426.58,493.65,449.29,474.21,443.12,449Z"/><path class="Catesbaea-19" d="M321.59,314.64s27.68-18.46,35.37,6.15c0,0-1.54,39-35.37,37.18C321.59,358,303.13,331.56,321.59,314.64Z"/><path class="Catesbaea-20" d="M324.66,296.18s29.23,46.15-10.76,72.29c0,0-36.92,9.23-36.92-26.14,0,0-6.15-61.53,29.23-58.45C306.21,283.88,320.05,288.49,324.66,296.18Z"/><path class="Catesbaea-21" d="M284.67,310s26.15-18.46,21.54,7.69l-6.16,7.69s-6.15,4.61,0,15.38c0,0,7.69,10.76-10.76,10.76,0,0-14.66-9.56-12.72-21.7C276.57,329.85,277,316.18,284.67,310Z"/><path class="Catesbaea-5" d="M330.81,326.94s0-27.68-9.22-15.38c0,0-6.16,9.23,0,21.54C321.59,333.1,329.28,346.94,330.81,326.94Z"/><path class="Catesbaea-5" d="M290.83,354.63s9.22-1.54,9.22,4.61c0,0,3.08,7.69,9.23-4.61,0,0,7.69-9.23,4.62,7.69,0,0,0,7.69-20,1.54C293.9,363.86,283.13,357.71,290.83,354.63Z"/><path class="Catesbaea-22" d="M398.49,360.78s21.53-26.14,43.06-9.23c0,0,13.85,43.07-21.53,53.84C420,405.39,389.26,393.08,398.49,360.78Z"/><path class="Catesbaea-5" d="M441.55,368.47s-7.69-1.54-6.15,12.31c0,0,3.08,10.76,6.15,4.61C441.55,385.39,446.17,368.47,441.55,368.47Z"/><path class="Catesbaea-23" d="M418.48,347s10.77,3,1.54,9.14c0,0-9.23,6.15,1.54,20,0,0,13.84,10.77,12.3,15.38L420,405.39l-21.53-44.61Z"/><path class="Catesbaea-24" d="M287.75,339.25s26.15,35.37,0,53.83c0,0-26.15,18.46-35.38,0C252.37,393.08,237,311.56,287.75,339.25Z"/><path class="Catesbaea-25" d="M259.24,339.33s27-3.16,7,47.6c0,0-12.08,23.86-37.57,8.85C228.65,395.78,206.12,342.49,259.24,339.33Z"/><path class="Catesbaea-26" d="M232.31,351.55s21.6-7.69,13.91,6.16c0,0-4.61,6.15-3.07,18.45,0,0,9.22,13.84,6.15,18.46,0,0-1.51,6.76-12.29,4.92C237,399.54,216.86,396.16,232.31,351.55Z"/><ellipse class="Catesbaea-27" cx="165.47" cy="274.65" rx="41.53" ry="33.07" transform="translate(-55.96 42.74) rotate(-12.61)"/><ellipse class="Catesbaea-28" cx="124.72" cy="386.16" rx="29.22" ry="25.38"/><ellipse class="Catesbaea-29" cx="199.31" cy="386.16" rx="33.07" ry="25.38" transform="translate(-59.2 36.85) rotate(-9.2)"/><ellipse class="Catesbaea-30" cx="246.22" cy="315.41" rx="19.99" ry="31.53"/><ellipse class="Catesbaea-31" cx="210.85" cy="290.8" rx="24.61" ry="29.99"/><ellipse class="Catesbaea-32" cx="218.2" cy="339.33" rx="32.3" ry="29.22" transform="translate(-28.7 20.27) rotate(-4.99)"/><path class="Catesbaea-33" d="M386.18,339.25s40,12.3,20,41.53l-56.91,13.84,4.62-36.91Z"/><path class="Catesbaea-34" d="M377.32,355.46s16.55,19.16,1.17,26.85l-29.22,12.31,3.08-36.91Z"/><path class="Catesbaea-5" d="M406.18,365.4S400,350,393.87,363.86c0,0,0,13.84,6.16,12.3C400,376.16,407.72,376.16,406.18,365.4Z"/><ellipse class="Catesbaea-35" cx="396.18" cy="413.08" rx="36.14" ry="41.53"/><path class="Catesbaea-36" d="M335.17,339.33s29.48-15.46,43.32,4.53c0,0,10.77,13.85-32.3,33.84,0,0-33.83,13.84-35.37-16.92C310.82,360.78,314.92,345.57,335.17,339.33Z"/><path class="Catesbaea-37" d="M324.66,350s24.61-3.08,15.38,12.3c0,0-6.15,6.15-3.07,9.23,0,0,7.87,9,1.63,8.36,0,0-24.7,5.34-27.78-16.12C310.82,363.79,312.36,350,324.66,350Z"/><path class="Catesbaea-5" d="M379,352.12s-14.31,2.51-17.38,7.12c0,0-10.77,12.14-4.62,13C357,372.23,377.89,358.83,379,352.12Z"/><path class="Catesbaea-5" d="M360,351.55s-7.69-3.07-9.23,6.16c0,0,0,12.3,4.61,4.61,0,0,1.54-7,4.62-8.13A1.62,1.62,0,0,0,360,351.55Z"/><path class="Catesbaea-38" d="M129,262.16s34.21-9,46.51,4.8c0,0,16,17.19,9.54,35.51l-60.29-29.29Z"/><ellipse class="Catesbaea-39" cx="129.33" cy="231.59" rx="28.45" ry="36.14"/><path class="Catesbaea-40" d="M129.33,196.21s22.56,32.63-21.79,58.61C107.54,254.82,84.73,205.44,129.33,196.21Z"/><ellipse class="Catesbaea-41" cx="133.18" cy="307.72" rx="52.29" ry="39.99"/><path class="Catesbaea-42" d="M187.91,301.68s7.56-36.26,19.86-16.26c0,0,4.61,21.53,12.3,20,0,0,16.36-9.81,11.26,2,0,0-12.79,21.75-32,9.86C199.31,317.29,189.58,308.72,187.91,301.68Z"/><path class="Catesbaea-43" d="M109.83,271.93s33.34,7.34,19.5,30.41c0,0-4.61,6.15-12.3,6.15,0,0-13.85,3.07-7.69,12.3,0,0,30.76,26.15,15.38,26.15,0,0-46.76-4.35-43.38-44.47C81.34,302.47,82.65,281.52,109.83,271.93Z"/><path class="Catesbaea-44" d="M124.72,360.78s20,6.15,6.15,10.77c0,0-15.38,3.07-10.77,21.53,0,0,16.92,18.46,4.62,18.46,0,0-27.69-1.54-29.23-26.15C95.49,385.39,94,365.4,124.72,360.78Z"/><path class="Catesbaea-45" d="M187.91,363s30.63-.65,15.25,10.12c0,0-20,13.84-18.46,20,0,0,3,17.25-10.81,10.93C173.89,404,151.13,380.54,187.91,363Z"/><path class="Catesbaea-46" d="M207.48,311.91s24.9,4.27,11.06,13.5c0,0-18.46,15.38-6.16,26.14,0,0,28.17,7.61,13.32,16.11,0,0-30.46,5.43-38.81-20.72C186.89,346.94,178,326.11,207.48,311.91Z"/><path class="Catesbaea-5" d="M138.56,231.59s6.15-16.92,10.76-13.85c0,0,9.23,13.85-6.15,26.15,0,0-16.92,10.77-13.84,1.54C129.33,245.43,129.33,240.81,138.56,231.59Z"/><path class="Catesbaea-5" d="M167.62,241.17s17.08,1.18,18.62,10.41c0,0,3.07,9.23-6.15,9.23C180.09,260.81,147.47,244.6,167.62,241.17Z"/><path class="Catesbaea-5" d="M230.84,282.34s-9.23-15.38-10.77,0c0,0,.94,21.06,9.7,15.15C229.77,297.49,232.38,288.49,230.84,282.34Z"/><path class="Catesbaea-5" d="M256.25,294.25s-13.1-8.83-13.1,1.93c0,0-.09,11.59,9.18,8.1Z"/><path class="Catesbaea-5" d="M167.78,319.25s-6.15-6.15-16.92,7.69c0,0-10.76,15.39,3.08,10.77C153.94,337.71,178.55,322.33,167.78,319.25Z"/><path class="Catesbaea-5" d="M146.25,391.54s-7.69-12.3-10.77,0c0,0-3.07,10.77,4.62,9.23C140.1,400.77,149.32,399.23,146.25,391.54Z"/><path class="Catesbaea-5" d="M226.23,385.39s-6.16-18.46-15.38-3.08c0,0-12.31,13.85-1.54,18.46C209.31,400.77,227.77,400.77,226.23,385.39Z"/><path class="Catesbaea-5" d="M246.22,334.64s-9.23-9.23-10.76,1.53,4.61,15.38,4.61,15.38S253.91,348.48,246.22,334.64Z"/><path class="Catesbaea-5" d="M270.83,351.55s-3.08-7.69-9.23,1.54c0,0-12.3,18.46-6.15,35.38,0,0,4.61,4.61,10.77-13.85,0,0,1.53-10.76,3.07-12.3C269.29,362.32,272.37,356.17,270.83,351.55Z"/><ellipse class="Catesbaea-47" cx="275.44" cy="429.99" rx="43.07" ry="27.68" transform="translate(-110.91 96.09) rotate(-16.52)"/><path class="Catesbaea-48" d="M271.26,402.48s21.1-4.78,19.57,10.6c0,0-4.62,7.69,0,9.22,0,0,13.84,3.08-6.16,7.69,0,0-15.38,0-16.92-6.15,0,0-7.69-10.76-7.69,6.15,0,0,0,12.31,6.16,16.92,0,0,21.89,7.18,10.17,11.28,0,0-37.15,7.86-42.89-19.4,0,0-1.49-17.79,20.23-29.44C253.73,409.35,267.08,402.64,271.26,402.48Z"/><path class="Catesbaea-5" d="M307.74,430s-4.61-4.61-16.91,6.16c0,0-4.62,4.61-7.7,4.61,0,0-12.3,1.54-3.07,7.69,0,0,13.84,4.61,27.68-12.3C307.74,436.15,310.82,430,307.74,430Z"/><path class="Catesbaea-5" d="M427.71,414.61s-1.54-26.14-15.38-20c0,0-6.15,4.61,0,15.38,0,0,9.23,10.77,4.61,15.38,0,0-2.67,5.72,4.82,3.63C421.76,429,429.25,422.3,427.71,414.61Z"/><ellipse class="Catesbaea-49" cx="370.8" cy="400.77" rx="27.68" ry="32.3"/><ellipse class="Catesbaea-50" cx="340.81" cy="408.46" rx="32.3" ry="28.45"/><path class="Catesbaea-51" d="M317,389.24s39.19-3.08,28.43,15.38c0,0-10.77,10.76-6.16,16.91,0,0,23.89,8.6,10.41,14.3,0,0-24.31,3.65-35-10.71,0,0-9.38-9.74-4.68-25.12C310,400,311.65,392.31,317,389.24Z"/><path class="Catesbaea-5" d="M368.5,401.54s-6.16-10.77-9.23,3.08c0,0-3.08,7.69-6.15,7.69,0,0-7.69,0,7.69,10.76,0,0,6.15,6.16,9.22-10.76C370,412.31,370,404.62,368.5,401.54Z"/>
                </g>
                <g id="leaves-3" data-name="leaves">
                    <path class="Catesbaea-2" d="M466.93,532.27s-12.3,35.38-49.22,29.23c0,0-16.91-16.92,18.46-35.38Z"/><circle class="Catesbaea-3" cx="699.18" cy="556.88" r="31.53"/><ellipse class="Catesbaea-3" cx="545.37" cy="513.82" rx="46.91" ry="37.68"/><path class="Catesbaea-4" d="M465.39,580s-29.22-1.53-20-24.61c0,0,18.46-26.14,32.3-6.15C477.7,549.19,490,578.42,465.39,580Z"/><path class="Catesbaea-5" d="M445.4,555.34s9.57,2,10.93-10.55C456.33,544.79,446.94,550.73,445.4,555.34Z"/><path class="Catesbaea-6" d="M457.66,569.66s-7.65-8.16,1.58-18.93c0,0,16.92-7.69,16.92,10.77C476.16,561.5,466.84,580.89,457.66,569.66Z"/><path class="Catesbaea-7" d="M493.08,590.72s-36.91,13.84-35.38-23.07c0,0,3.08-30.76,40-30.76,0,0,26.15,20,23.07,36.91C520.76,573.8,505.38,587.64,493.08,590.72Z"/><path class="Catesbaea-8" d="M506.92,567.65S500.77,580,493.08,580c0,0-7.69,1.54-6.15-12.3,0,0,1.67-14.3,8.52-14.84C495.45,552.81,520.76,544.58,506.92,567.65Z"/><path class="Catesbaea-5" d="M463.86,564.57s3.07,6.16,9.22-3.07c0,0,7.69-12.31,0-12.31C473.08,549.19,462.32,552.27,463.86,564.57Z"/><path class="Catesbaea-9" d="M605.17,597.64s-16.73,22.3-39.8,6.92c0,0-13.85-24.61,10.76-36.91,0,0,23.07-9.23,32.3,0C608.43,567.65,617.28,583,605.17,597.64Z"/><path class="Catesbaea-10" d="M588.44,418.46S590,387.7,560.75,387.7c0,0-27.92,4.4-27.8,33C533,420.66,571.52,444.61,588.44,418.46Z"/><ellipse class="Catesbaea-11" cx="516.92" cy="396.16" rx="31.53" ry="28.45"/><ellipse class="Catesbaea-12" cx="513.84" cy="433.07" rx="36.14" ry="33.07"/><path class="Catesbaea-13" d="M511.94,446.67s13.44-3.6,10.36-12.83c0,0-6.15-9.23-13.84-12.31,0,0-24.61-4.61-15.38-12.3,0,0,12.78-10.69,28.69-8.42,0,0,25.23,7.42,27.49,27.15C549.26,428,520,464.12,511.94,446.67Z"/><path class="Catesbaea-5" d="M488.46,430.76s6.29,25,17,18.66c0,0,4.55,1.34-.07-9.43,0,0-10.76-18.46-15.38-15.38C490,424.61,488.46,424.61,488.46,430.76Z"/><ellipse class="Catesbaea-14" cx="576.13" cy="445.37" rx="44.6" ry="34.61" transform="translate(-119.42 229.75) rotate(-20.48)"/><path class="Catesbaea-5" d="M543.83,436.92s3.08,9.22,18.46,0c0,0,12.64-4.14,20.93-5.92,0,0,16-3.31,11.37-6.39,0,0-27.69-6.15-47.68,6.15C546.91,430.76,542.3,433.84,543.83,436.92Z"/><path class="Catesbaea-15" d="M428.48,512.28s-43.07,6.15-43.07-24.61c0,0,6.16-50.75,43.07-41.53C428.48,446.14,474.62,481.52,428.48,512.28Z"/><path class="Catesbaea-16" d="M426.45,494.76s-18,8.29-18-7.09c0,0,7.69-6.15,4.61-10.77,0,0-9.23-10.76,4.61-13.84,0,0,15.38-9.23,23.07,7.69C440.78,470.75,447.49,488,426.45,494.76Z"/><path class="Catesbaea-5" d="M389.67,501.75a27.47,27.47,0,0,0,21.52,10.48s8.06-3,.37-7.64c0,0-18.45-7.69-16.92-21.53,0,0,1.54-13.85-4.61-9.23C390,473.83,381.63,489.69,389.67,501.75Z"/><path class="Catesbaea-17" d="M451.55,458.45s-35.37,0-32.3-33.84c0,0,15.38-55.37,49.22-24.61,0,0,30.76,35.38-3.08,55.37Z"/><path class="Catesbaea-18" d="M454.68,436.63s-26.2-18.17-17-22.79c0,0,9.23,1.54,7.69-4.61,0,0-4.62-6.15,6.15-6.15,0,0,19.82-2.82,23.75,7.05,0,0,13.51,21-1.27,38.48Z"/><path class="Catesbaea-5" d="M420.77,439.42s12.32,22.1,29.24,9.8c0,0,6.16-6.15-6.15-9.23,0,0-15.38,0-15.38-6.15,0,0-4.61-18.46,10.77-30.76,0,0,11.49-7.35-1.95-8.29C437.3,394.79,414.59,414.23,420.77,439.42Z"/><path class="Catesbaea-19" d="M542.3,573.8s-27.69,18.46-35.38-6.15c0,0,1.54-39,35.38-37.18C542.3,530.47,560.75,556.88,542.3,573.8Z"/><path class="Catesbaea-20" d="M539.22,592.26S510,546.12,550,520c0,0,36.91-9.23,36.91,26.15,0,0,6.15,61.52-29.22,58.44C557.68,604.56,543.83,600,539.22,592.26Z"/><path class="Catesbaea-21" d="M579.21,578.42s-26.15,18.45-21.53-7.69l6.15-7.69s6.15-4.62,0-15.39c0,0-7.69-10.76,10.76-10.76,0,0,14.67,9.56,12.72,21.7C587.31,558.59,586.9,572.26,579.21,578.42Z"/><path class="Catesbaea-5" d="M533.07,561.5s0,27.68,9.23,15.38c0,0,6.15-9.23,0-21.54C542.3,555.34,534.61,541.5,533.07,561.5Z"/><path class="Catesbaea-5" d="M573.06,533.81s-9.23,1.54-9.23-4.61c0,0-3.08-7.69-9.23,4.61,0,0-7.69,9.23-4.61-7.69,0,0,0-7.69,20-1.54C570,524.58,580.75,530.74,573.06,533.81Z"/><path class="Catesbaea-22" d="M465.39,527.66s-21.53,26.15-43.06,9.23c0,0-13.84-43.07,21.53-53.83C443.86,483.06,474.62,495.36,465.39,527.66Z"/><path class="Catesbaea-5" d="M422.33,520s7.69,1.54,6.15-12.3c0,0-3.08-10.77-6.15-4.62C422.33,503.05,417.71,520,422.33,520Z"/><path class="Catesbaea-23" d="M445.4,541.41s-10.77-3-1.54-9.14c0,0,9.23-6.15-1.54-20,0,0-13.84-10.77-12.3-15.38l13.84-13.84,21.53,44.6Z"/><path class="Catesbaea-24" d="M576.13,549.19s-26.14-35.37,0-53.83c0,0,26.15-18.46,35.38,0C611.51,495.36,626.89,576.88,576.13,549.19Z"/><path class="Catesbaea-25" d="M604.64,549.11s-27,3.16-7-47.6c0,0,12.07-23.86,37.56-8.85C635.23,492.66,657.76,546,604.64,549.11Z"/><path class="Catesbaea-26" d="M631.57,536.89s-21.6,7.69-13.91-6.15c0,0,4.61-6.16,3.08-18.46,0,0-9.23-13.84-6.16-18.46,0,0,1.51-6.76,12.29-4.92C626.87,488.9,647,492.28,631.57,536.89Z"/><ellipse class="Catesbaea-27" cx="698.41" cy="613.79" rx="41.53" ry="33.07" transform="translate(-117.14 167.25) rotate(-12.61)"/><ellipse class="Catesbaea-28" cx="739.17" cy="502.28" rx="29.22" ry="25.38"/><ellipse class="Catesbaea-29" cx="664.57" cy="502.28" rx="33.07" ry="25.38" transform="translate(-71.78 112.76) rotate(-9.2)"/><ellipse class="Catesbaea-30" cx="617.66" cy="573.03" rx="19.99" ry="31.53"/><ellipse class="Catesbaea-31" cx="653.04" cy="597.64" rx="24.61" ry="29.99"/><ellipse class="Catesbaea-32" cx="645.68" cy="549.11" rx="32.3" ry="29.22" transform="translate(-45.33 58.27) rotate(-4.99)"/><path class="Catesbaea-33" d="M477.7,549.19s-40-12.3-20-41.52l56.91-13.85L510,530.74Z"/><path class="Catesbaea-34" d="M486.56,533s-16.55-19.16-1.17-26.85l29.22-12.31-3.08,36.92Z"/><path class="Catesbaea-5" d="M457.7,523.05s6.16,15.38,12.31,1.53c0,0,0-13.84-6.15-12.3C463.86,512.28,456.17,512.28,457.7,523.05Z"/><ellipse class="Catesbaea-35" cx="467.7" cy="475.37" rx="36.14" ry="41.53"/><path class="Catesbaea-36" d="M528.71,549.11s-29.48,15.46-43.32-4.53c0,0-10.77-13.84,32.3-33.84,0,0,33.83-13.84,35.37,16.92C553.06,527.66,549,542.87,528.71,549.11Z"/><path class="Catesbaea-37" d="M539.22,538.43s-24.61,3.07-15.38-12.31c0,0,6.15-6.15,3.08-9.23,0,0-7.88-9-1.64-8.36,0,0,24.71-5.34,27.78,16.12C553.06,524.65,551.52,538.43,539.22,538.43Z"/><path class="Catesbaea-5" d="M484.92,536.32s14.31-2.51,17.39-7.12c0,0,10.76-12.14,4.61-13C506.92,516.21,486,529.61,484.92,536.32Z"/><path class="Catesbaea-5" d="M503.84,536.89s7.69,3.07,9.23-6.15c0,0,0-12.31-4.61-4.62,0,0-1.54,7-4.62,8.13A1.62,1.62,0,0,0,503.84,536.89Z"/><path class="Catesbaea-38" d="M734.93,626.28s-34.22,9-46.52-4.8c0,0-16-17.19-9.53-35.51l60.29,29.29Z"/><ellipse class="Catesbaea-39" cx="734.55" cy="656.86" rx="28.45" ry="36.14"/><path class="Catesbaea-40" d="M734.55,692.23S712,659.6,756.34,633.62C756.34,633.62,779.15,683,734.55,692.23Z"/><ellipse class="Catesbaea-41" cx="730.71" cy="580.72" rx="52.29" ry="39.99"/><path class="Catesbaea-42" d="M676,586.76S668.42,623,656.11,603c0,0-4.61-21.53-12.3-20,0,0-16.35,9.81-11.25-2,0,0,12.78-21.74,32-9.86C664.57,571.15,674.3,579.72,676,586.76Z"/><path class="Catesbaea-43" d="M754.05,616.51s-33.34-7.33-19.5-30.4c0,0,4.62-6.16,12.31-6.16,0,0,13.84-3.07,7.69-12.3,0,0-30.76-26.15-15.38-26.15,0,0,46.75,4.35,43.37,44.47C782.54,586,781.24,606.92,754.05,616.51Z"/><path class="Catesbaea-44" d="M739.17,527.66s-20-6.15-6.16-10.77c0,0,15.38-3.07,10.77-21.53,0,0-16.92-18.46-4.61-18.46,0,0,27.68,1.54,29.22,26.15C768.39,503.05,769.93,523.05,739.17,527.66Z"/><path class="Catesbaea-45" d="M676,525.47s-30.63.65-15.24-10.11c0,0,20-13.85,18.45-20,0,0-3-17.24,10.81-10.93C690,484.43,712.75,507.9,676,525.47Z"/><path class="Catesbaea-46" d="M656.4,576.53s-24.9-4.27-11.06-13.49c0,0,18.46-15.39,6.16-26.15,0,0-28.17-7.6-13.32-16.11,0,0,30.46-5.42,38.81,20.72C677,541.5,685.92,562.33,656.4,576.53Z"/><path class="Catesbaea-5" d="M725.32,656.86s-6.15,16.91-10.76,13.84c0,0-9.23-13.84,6.15-26.15,0,0,16.92-10.76,13.84-1.54C734.55,643,734.55,647.63,725.32,656.86Z"/><path class="Catesbaea-5" d="M696.26,647.27s-17.08-1.18-18.62-10.41c0,0-3.07-9.23,6.16-9.23C683.8,627.63,716.41,643.84,696.26,647.27Z"/><path class="Catesbaea-5" d="M633,606.1s9.23,15.38,10.77,0c0,0-.94-21.06-9.7-15.14C634.11,591,631.5,600,633,606.1Z"/><path class="Catesbaea-5" d="M607.64,594.19s13.1,8.83,13.1-1.93c0,0,.08-11.59-9.19-8.1Z"/><path class="Catesbaea-5" d="M696.1,569.19s6.15,6.15,16.92-7.69c0,0,10.77-15.38-3.08-10.77C709.94,550.73,685.33,566.11,696.1,569.19Z"/><path class="Catesbaea-5" d="M717.63,496.9s7.69,12.3,10.77,0c0,0,3.08-10.77-4.61-9.23C723.79,487.67,714.56,489.21,717.63,496.9Z"/><path class="Catesbaea-5" d="M637.65,503.05s6.16,18.46,15.39,3.08c0,0,12.3-13.85,1.53-18.46C654.57,487.67,636.12,487.67,637.65,503.05Z"/><path class="Catesbaea-5" d="M617.66,553.81s9.23,9.23,10.77-1.54-4.62-15.38-4.62-15.38S610,540,617.66,553.81Z"/><path class="Catesbaea-5" d="M593.05,536.89s3.08,7.69,9.23-1.54c0,0,12.3-18.46,6.15-35.37,0,0-4.61-4.62-10.76,13.84,0,0-1.54,10.76-3.08,12.3C594.59,526.12,591.51,532.27,593.05,536.89Z"/><ellipse class="Catesbaea-47" cx="588.44" cy="458.45" rx="43.07" ry="27.68" transform="translate(-106.08 186.27) rotate(-16.52)"/><path class="Catesbaea-48" d="M592.62,486s-21.1,4.78-19.56-10.6c0,0,4.61-7.69,0-9.23,0,0-13.85-3.08,6.15-7.69,0,0,15.38,0,16.92,6.15,0,0,7.69,10.77,7.69-6.15,0,0,0-12.31-6.15-16.92,0,0-21.9-7.18-10.18-11.28,0,0,37.15-7.85,42.89,19.4,0,0,1.49,17.79-20.23,29.44C610.15,479.09,596.8,485.8,592.62,486Z"/><path class="Catesbaea-5" d="M556.14,458.45s4.61,4.61,16.92-6.15c0,0,4.61-4.62,7.69-4.62,0,0,12.3-1.54,3.07-7.69,0,0-13.84-4.61-27.68,12.31C556.14,452.3,553.06,458.45,556.14,458.45Z"/><path class="Catesbaea-5" d="M436.17,473.83s1.54,26.15,15.38,20c0,0,6.15-4.61,0-15.38,0,0-9.23-10.76-4.61-15.38,0,0,2.68-5.72-4.82-3.63C442.12,459.43,434.63,466.14,436.17,473.83Z"/><ellipse class="Catesbaea-49" cx="493.08" cy="487.67" rx="27.68" ry="32.3"/><ellipse class="Catesbaea-50" cx="523.07" cy="479.98" rx="32.3" ry="28.45"/><path class="Catesbaea-51" d="M546.88,499.21s-39.19,3.07-28.42-15.38c0,0,10.76-10.77,6.15-16.92,0,0-23.89-8.59-10.41-14.3,0,0,24.31-3.65,35,10.71,0,0,9.37,9.74,4.67,25.12C553.92,488.44,552.23,496.13,546.88,499.21Z"/><path class="Catesbaea-5" d="M495.39,486.9s6.15,10.77,9.22-3.07c0,0,3.08-7.69,6.16-7.69,0,0,7.69,0-7.69-10.77,0,0-6.16-6.15-9.23,10.77C493.85,476.14,493.85,483.83,495.39,486.9Z"/>
                </g>
                <g id="flowers">
                    <path class="Catesbaea-52" d="M381.15,487.68s-16.93,18.66-10,30.81L381.36,540s2.61,4.77,8.68,0c0,0,12.59-12.15,23-11.29l24.74-16.05L435.62,481,407.84,468.8Z"/><path class="Catesbaea-53" d="M393.08,488.33s-4.34,11.72-13.89,18.23c0,0,20.84-14.33,19.54-2.61,0,0-4.35,9.12-9.55,12.59,0,0,16.49-13,21.7-4.34,0,0,4.08,4.25-1.43,16.67l2.73-.18,25.61-16.05L435.62,481,408.71,468.8Z"/><path class="Catesbaea-54" d="M403.5,487.89s-.87,13.46,8.25,17.37c0,0,7.38,3,11.28,1.73l13.73-9.38L435.62,481l-18.89-8.53Z"/><path class="Catesbaea-55" d="M464.48,391.32s7.82-8.25,27.78-3.91a81.38,81.38,0,0,0,10,1.31s20.4,1.3,30.81,23c0,0,3.47,9.11,0,8.68,0,0-2.17-.43-4.34-3.91,0,0-3.9-6.07-15.19-6.51H497s-6.51,0-13.89,5.21c0,0-8.68,8.68-16.06,9.55l-24.31-2.6Z"/><path class="Catesbaea-56" d="M474,388.72s11.29-.87,10,6.51c0,0-4.35,6.51,0,6.07,0,0,16.92-6.07,25.6-.87,0,0,1.74,2.17-1.73.87,0,0-10-3.9-26.91,4.34,0,0-17.8,14.76-21.27,14.76l-16.93,1.74,21.7-30.82A16.13,16.13,0,0,1,474,388.72Z"/><path class="Catesbaea-57" d="M462.31,396.53s14.76-3.47,12.16,5.64c0,0-9.12,15.19-14.76,18.23l-16.93,1.74S458.84,397,462.31,396.53Z"/><path class="Catesbaea-58" d="M446.9,418l23.88-30.38s3.47-4.34,4.77-15.63l1.09-24.08s.43-5.65-2.17-5.65c0,0-2.61-.87-6.51,3.91l-13,17.36s-6.8,8.17-12.08,9.51l-10.92,20.87-2.7,25.63Z"/><path class="Catesbaea-59" d="M471,360.5s.41,26.91-4.14,32.12L446.69,417.8l-17.36,1.73,2.6-25.61,10.85-20.83s6.48-2.13,14.74-13c0,0,4.36-4.36,3.06,1.28,0,0-3,10.42-3.91,12.59,0,0-1.3,6.51,5.21-2.61,0,0,3-8.24,5.64-17.79,0,0,2.17-4.34.44,3.9,0,0-.87,6.51,0,7,0,0,.86.87,1.3-3.47C469.26,360.94,470.56,356.6,471,360.5Z"/><path class="Catesbaea-60" d="M441.91,377s.44,3.47,2.17,4.77c0,0,4.34.43,5.65-2.17,0,0,4.34-4.77,1.73,6.51,0,0-.87,4.34,5.21,0,0,0,14.47-6.67,12,2.52A15.73,15.73,0,0,1,466,393.8l-19.27,24-17.36,1.73,2.6-25.61S441.91,373.52,441.91,377Z"/><path class="Catesbaea-61" d="M437.57,386.55s8.25.86,8.25,12.58c0,0-3.66,10.24,9.46,7.94l-9,10.73-16.92,1.73,2.6-25.61S436.27,383.94,437.57,386.55Z"/><path class="Catesbaea-62" d="M435.4,408.25s22.54-29.8,13.22-38.77"/><path class="Catesbaea-63" d="M437.36,392.84s9.54-16.93,3.47-26.91c0,0-10-12.16-30.39-12.16,0,0-2.38.66.22,9.34a21.63,21.63,0,0,1,.44,7.38s-1.31,7.37,9.11,22.13c0,0,6.08,10.42,6.08,17.8,0,0,.43,10-.87,10,0,0-1.3,3,5.64-2.17a19.27,19.27,0,0,0,6.51-12.59,56.49,56.49,0,0,0,0-9.11S436.7,393.92,437.36,392.84Z"/><path class="Catesbaea-64" d="M428,371.79s-6.51-7-6.51-4.34c0,0-.87,1.73,3.48,5.21,0,0,12.58,11.71,12.15,20A46.76,46.76,0,0,0,442,380.67s-.54-4.54-8.79-6.28A8.08,8.08,0,0,1,428,371.79Z"/><path class="Catesbaea-65" d="M446.69,400.87s-1.3-3,.87-3.47c0,0,2.6,0,1.73,3.47,0,0-6.08,14.32-9.55,15.62"/><path class="Catesbaea-66" d="M466.22,381.77s1.74-3.91-2.6-3.91c0,0-5.65-.43-6.08,10.86,0,0-.44,10-5.21,15.19l-9.55,12.58"/><path class="Catesbaea-67" d="M471,393.92s-4.77,1.74-4.34,5.21c0,0,.44,5.21-14.75,20.4"/><path class="Catesbaea-68" d="M453.63,435.59s-10.42,5.64-16.06,15.63l-8.24,10s-5.21,11.72-6.52-16.06c0,0,0-23.44,8.25-26.91l17.36,2.17Z"/><path class="Catesbaea-69" d="M434.1,444.71s5.64-8.25,3-11.72c0,0-2.61-4.34-7.81,4.34,0,0-6.32,7.25-6.42,9.7,0,0,.77,17.72,4.25,16.6,0,0,8.24-7.2,8.24-13.28A6.12,6.12,0,0,1,434.1,444.71Z"/><path class="Catesbaea-70" d="M433.07,419.55s13.83,1.5,16,19.73c0,0,1.74,10.85.44,16.06,0,0-2.17,4.78,5.21,2.61,0,0,13.45-6.95,20-31.69,0,0,2.17-8.68-3.47-8.68a44.5,44.5,0,0,0-11.07,1.08s-7.81,1.31-13.67-2.17c0,0-13.67-5.64-18,1.31C428.46,417.8,425.53,420.87,433.07,419.55Z"/><path class="Catesbaea-71" d="M411.75,442.32s9.55,10.85,8.24,18.23c0,0-18.23,26-18.23-18.23C401.76,442.32,404.8,434.51,411.75,442.32Z"/><path class="Catesbaea-72" d="M423,460.55s-19.1-10-17.36-21.7a11.24,11.24,0,0,0-8.68,7.38s-3.47,6.94-10.42,9.55c0,0-9.55,4.77-9.55,13,0,0-8.24,13,4.34,18.66,0,0,27.78,3.91,51.65-11.28Z"/><path class="Catesbaea-73" d="M388.74,485.72s-9.55-16.06,6.95-16.92c0,0,13.45-1.31,13-5.21,0,0-1.74-7.81,11.28-3h3l10,15.63S403.07,492.67,388.74,485.72Z"/><path class="Catesbaea-74" d="M423,467.49s-18.66,5.65-11.28,14.76c0,0,3.29,2.4,8.37.33L433,475.31Z"/><path class="Catesbaea-75" d="M423,478.78s-15.62,12.59-10,18.66c0,0,7.38,11.29,12.59,4.78,0,0,9.55-8.25,9.11-14.76C434.75,487.46,433.45,480.08,423,478.78Z"/><path class="Catesbaea-76" d="M428.67,496.58A15.5,15.5,0,0,0,421.73,510s-12.15,17.8-8.25,22.14l33.86,28.64s7.81,5.21,13,1.31c0,0,5.21-2.61,4.77-16.93l-1.3-10.42A49.57,49.57,0,0,0,458.19,520s-7.95-12.22-8.75-23.69C449.44,496.32,437.79,479.65,428.67,496.58Z"/><path class="Catesbaea-77" d="M421.73,514.81s13,2.6,19.1-11.72c0,0,2.68-11.28-3.87-14.1,0,0-4.81.21-8.29,7.59,0,0-6.51,3-6.94,13.45C421.73,510,418.26,515.67,421.73,514.81Z"/><path class="Catesbaea-78" d="M434,491.51s5.21.23,0,8.94c0,0-6.08,7.82-10.22,1.54,0,0,2.37-3.9,3.89-4.65C427.59,497.34,431.87,489.92,434,491.51Z"/><path class="Catesbaea-79" d="M428.81,483.42s-13.88,4.1-17-5.26"/><path class="Catesbaea-79" d="M423.9,494.41s-2.6,6.51-6.94,5.64c0,0-8.69-.9-8.47,1.94"/><path class="Catesbaea-79" d="M431.75,483.42,430,491.37s-3.48,4.34-8.25,0"/><path class="Catesbaea-79" d="M400.9,488.33s20.4,4.77,25.17,1.73"/><path class="Catesbaea-80" d="M430.41,454.47s12.15-12.58,17.36-4.34a119,119,0,0,1-3,30.82s0,10.85,4.78,13c0,0,4.34,1.3-2.17,3,0,0-8.25,3.47-15.63-11.29,0,0-15.62-11.28-14.75-22.13,0,0,3-5.21,12.58-5.21C429.54,458.38,428.24,456.64,430.41,454.47Z"/><path class="Catesbaea-81" d="M423,474.44s-1.73-9.12,7.38-9.12c0,0,6.51-.43,8.68-3,0,0,7.41-12,8.69-4.69,0,0-1.31,19-3,23.35,0,0,0,9.45,3,11.67l1.73,1.35s2,.64,1.42,1.19c0,0-1.2,2.07-6.52,2.18,0,0-7.49-.33-12.7-11.62C431.71,485.72,424.33,481,423,474.44Z"/>
                </g>
        </g>
</svg>