<svg xmlns="http://www.w3.org/2000/svg" viewBox="0 0 864 864">
    <defs>
        <style>
            .morinda-1{fill:#2a4024;}.morinda-2{fill:#537920;}.morinda-3{fill:#5b833c;}.morinda-4{fill:#486e22;}.morinda-5{fill:#668631;}.morinda-6{fill:#698132;}.morinda-7{fill:#335105;}.morinda-8{fill:#638e48;}.morinda-9{fill:#5e7a22;}.morinda-10,.morinda-14,.morinda-23{fill:none;stroke-linecap:round;stroke-miterlimit:10;}.morinda-10,.morinda-23{stroke:#7fa45e;}.morinda-10{stroke-width:16px;}.morinda-11{fill:#55854d;}.morinda-12{fill:#3e7539;}.morinda-13{fill:#457330;}.morinda-14{stroke:#819d3b;stroke-width:3px;}.morinda-15{fill:#4b7a3d;}.morinda-16{fill:#396218;opacity:0.58;}.morinda-17{fill:#476d1d;opacity:0.79;}.morinda-18{fill:#436029;}.morinda-19{fill:#4f791d;opacity:0.7;}.morinda-20{fill:#406728;}.morinda-21{fill:#345c0f;opacity:0.72;}.morinda-22{fill:#537b25;}.morinda-23{stroke-width:4px;}.morinda-24{fill:#486a0e;}.morinda-25{fill:#557625;}.morinda-26{fill:#4c640f;}.morinda-27{fill:#2a4603;}.morinda-28{fill:#3e6b25;}.morinda-29{fill:#45721e;}.morinda-30{fill:#6d8d29;}.morinda-31{fill:#acb86b;}.morinda-32{fill:#709755;}.morinda-33{fill:#88a34e;}.morinda-34{fill:#8c9c56;}.morinda-35{fill:#abb765;}.morinda-36{fill:#668c2b;}.morinda-37{fill:#82973e;}.morinda-38{fill:#648e4c;}.morinda-39{fill:#7f9865;}.morinda-40{fill:#628e3b;}.morinda-41{fill:#8da363;}.morinda-42{fill:#79a056;}.morinda-43{fill:#5a7812;}.morinda-44{fill:#7d964d;}.morinda-45{fill:#89a15b;}.morinda-46{fill:#8a975a;}.morinda-47{fill:#5d762f;}.morinda-48{fill:#264305;}.morinda-49{fill:#87803b;}.morinda-50{fill:#8f9947;}.morinda-51{fill:#436b11;}.morinda-52{fill:#5d7d3c;}.morinda-53{fill:#96a42a;}.morinda-54{fill:#8da963;}.morinda-55{fill:#8ba350;}.morinda-56{fill:#8d823d;}.morinda-57{fill:#bfbf6a;}.morinda-58{fill:#716d27;}.morinda-59{fill:#a1a71b;}.morinda-60{fill:#d8d8c4;}.morinda-61{fill:#fdfcff;}.morinda-62{fill:#bdb4af;}.morinda-62,.morinda-63,.morinda-65{opacity:0.75;}.morinda-63{fill:#9c9b61;}.morinda-64{fill:#e4fad1;}.morinda-65{fill:#d2cfd5;}.morinda-66{fill:#fffff1;}.morinda-67{fill:#d8dfba;}.morinda-68{fill:#cad39d;}.morinda-69{fill:#ebdb65;}.morinda-70{fill:#c4b230;}.morinda-71{fill:#5b6106;}.morinda-72{fill:#9a9833;}
        </style>
    </defs>
    <title>rubiaceae</title>
        <g id="morinda_flower">
            <circle class="morinda-1" cx="434" cy="434" r="432"/>
                <g id="leaves-2" data-name="leaves">
                    <path class="morinda-2" d="M428.51,410.31s-72.27-41.78-157-28.2c0,0-76.7,15.16-129,87.47,0,0-25.48,36.07-17.2,49.42,0,0,11.86,20.76,50.37,14.46,0,0,89.76-15.54,118-40.17,0,0,74-46.28,98-53.31,0,0,39.48-9,38.14-19.35,0,0,11.68-2.22,14.7-3.57,0,0,6.72-3.14,4.77-8.13,0,0-2.13-6.28-9.53-2.7Z"/><path class="morinda-3" d="M475.91,275.05a83.31,83.31,0,0,0,38.68-5s36.39-12.58,99.83,1.51c0,0,62.48,16.82,84.29,63.82,0,0,11.95,41.72-4.27,58.24,0,0-27.48,20.59-81.2-19.66,0,0-48.16-42.93-63.51-50.12,0,0-65.31-38.75-73.05-37.75C476.68,286.09,465,277.11,475.91,275.05Z"/><path class="morinda-4" d="M428.51,410.31S397.81,395.93,298.78,431c0,0-68.82,24.83-60.79-9.08,0,0-21.27-34.78-76.92,25.22,0,0-45,50.76-35.76,71.84,0,0,14.11,24.33,61.48,12.34,0,0,41.81-9,47.09-11.46,0,0,40.55-13.6,50.84-20.18,0,0,20.75-14.13,27.67-17.82,0,0,21.84-20.05-10.85-9.26,0,0-7.74,1,9.6-17,0,0,17.34-18,57-25.72,0,0,15.3-3.29,26.29.53,0,0,11.35,7.56,30.4-2.69,0,0,5.53-3.27,5-7.13S430.3,414,428.51,410.31Z"/><path class="morinda-5" d="M442.22,278.09s-123.84-35.11-233,43.25c0,0-36.63,31-27,65.1,0,0,7.24,35.77,71.55,26.15,0,0,95.37-22.83,141.9-78.66,0,0,11-26.33,39.84-36.62C435.53,297.31,463.68,281.87,442.22,278.09Z"/><path class="morinda-6" d="M619.7,326.59s-1.84,47.56,31,68.16c0,0,24.87,9.83,43.05-1.7,0,0,13.85-4.41,5.72-57.11,0,0-1.48-7.55-20.36-28.76,0,0-30.56,34.95-42.29,28.14Z"/><path class="morinda-7" d="M196.06,416.92s72.46,24.75,144.12-35.08C340.18,381.84,269.28,364.34,196.06,416.92Z"/><path class="morinda-8" d="M633.05,278.35s-21.7-15.47-95.08-12.58c0,0-25.39,1.25-36,9.51,0,0-18,1.35-26.09-.23,0,0-11.44,2.79,1.5,11.6,0,0,3.11-2.51,25.39,10.74,0,0,10.76,5.16,42.74-6,0,0,61.32,23.09,73.47,35.93,0,0,49.18,35.6,69.43,19.87,0,0,14.6-18.93-9-39.47C679.4,307.73,655.88,287.23,633.05,278.35Z"/><path class="morinda-9" d="M235.56,317.28s22.84,24.57,23.68,31l61.35-22.36s44.7-29.38,63.88-33.17c0,0,20.55,30.12-43,69.8l-18.71,24.61-61.32,23.57s-42.91,8.36-65.71-5.74c0,0-20.05-13.14-14-37.51C181.75,367.5,200.91,323.07,235.56,317.28Z"/><path id="stem-2" data-name="stem" class="morinda-10" d="M315.15,735S481.28,438.23,463.21,247.85l-5.15-70.26"/><path class="morinda-11" d="M457.38,410.51s4.58,15.14,27.28,8.27c0,0,66.05-16.41,147.39,34.69,0,0,57.2,26.69,64.49,72.94,0,0,9.05,80.11-6.71,90,0,0-1.12,1.46-7.57,2.29,0,0-12.9,1.67-15.93,8.62,0,0-5.45,8.57-23.42-8.77,0,0-85.34-82-102.07-110,0,0-27.09-37.14-52.8-53.48,0,0-21.5-14.26-25.42-24.24,0,0-3.74-8.7-7.78-9.48a23.35,23.35,0,0,1-5.53-12.4S451.84,398.12,457.38,410.51Z"/><path class="morinda-12" d="M457.38,410.51s9.4,11.89,22,18.13c0,0,255.9,143.89,210.45,187.78,0,0-1.12,1.46-7.57,2.29,0,0-12.9,1.67-15.93,8.62,0,0-5.45,8.57-23.42-8.77,0,0-85.34-82-102.07-110,0,0-27.09-37.14-52.8-53.48,0,0-21.5-14.26-25.42-24.24,0,0-3.74-8.7-7.78-9.48a23.35,23.35,0,0,1-5.53-12.4S451.84,398.12,457.38,410.51Z"/><path class="morinda-13" d="M404.18,566.84s4.24,12.56,17.31,12.18c0,0,57.73.4,117.1,43.85,0,0,38.82,26.45,42.2,62.72,0,0-1.16,31.61,4.83,37.39,0,0,9.41,11.89,9.37,42,0,0,4.26,53.2-13.79,55.53,0,0-10.61,9.24-52.55-31.22,0,0-43.22-40.29-81-119.31,0,0-38.17-61.93-40.83-82.56,0,0-1-7.73-5.37-11.1,0,0-7.28-5.62-1.84-14.19C399.64,562.18,401.55,556.69,404.18,566.84Z"/><path class="morinda-14" d="M311.37,434.13s-7.38,47.34-81.74,80.56"/><path class="morinda-15" d="M404.18,566.84s4.24,12.56,17.31,12.18c0,0,57.73.4,117.1,43.85,0,0,38.82,26.45,42.2,62.72,0,0-1.16,31.61,4.83,37.39,0,0,9.41,11.89,9.37,42,0,0,3.47,57.23-13.79,55.53,35-43.85-175.35-240.82-179.72-244.19,0,0-7.28-5.62-1.84-14.19C399.64,562.18,401.55,556.69,404.18,566.84Z"/><path class="morinda-16" d="M434.8,296.75s-45.59,12.45-50.17-2.69L450,282S447,289.93,434.8,296.75Z"/><path class="morinda-17" d="M399.64,562.18s12.1,58.09,58.28,70.47l34.66,34.85s17.25-38.94-10-47.21c0,0-48.86-17.94-59.77-41.43C422.77,578.86,411.34,581.65,399.64,562.18Z"/><path class="morinda-18" d="M588.06,816.23s-11.53-31.77-60.5-55.59c0,0-17.76-5.57-69.24-89.37,0,0-34.5-74.19-51.47-83.8,0,0,6.22,20.17,31.41,66.73,0,0,47.72,91.6,62.48,103.08,0,0,37.94,51.12,71.8,63.44C572.54,820.72,586.1,824.84,588.06,816.23Z"/><path class="morinda-19" d="M467.26,422.34s68.09-12.08,91.14,24.27c0,0,7,24-.37,27.57Z"/><path class="morinda-20" d="M673.51,571.34s-63.45-54.72-88-62c0,0-43-28.52-67.61-46.31,0,0-19.45-12.2-41.94-17,0,0-21.42-16.75-9.19-23.58l91.82,51.06S660.32,540.27,673.51,571.34Z"/><path class="morinda-21" d="M126,519.56s-17.9-37,74-76.43c0,0,63.61-18.67,20.31,53.77,0,0-31,38.68-68.28,38C152.08,534.85,134.32,532.91,126,519.56Z"/><path class="morinda-14" d="M197.05,419.92s8.36-6.32,23.26,7.48c0,0,19.59,17.08,18,26.49l-5.38,1.69s-2.09,22.9-34.86,53.36"/><path class="morinda-14" d="M176.41,437.67s25.5,14.71,26,28.58c0,0-10.65,49.41-37.23,56.78"/><path class="morinda-22" d="M390.74,554.16l-13.85,4.41s-3.7,1.79-12.94-8.81c0,0-53.59-49.44-112.95-52.26,0,0-105.7-16.48-140.66,27.37,0,0-32.44,33-29.32,47.06,0,0,.43,23.54,37.86,29.18,0,0,68.6,13.42,107,5.84,0,0,59.77-14.29,73-13.37,0,0,12.11,2.36,45.09-16.32,0,0,28.32-14.15,44.3-12.29,0,0,11.14-.5,10.37-8.74C398.58,556.23,398.31,551.87,390.74,554.16Z"/><path class="morinda-23" d="M448.77,405s-5.08,11.18-35.23,11.15c0,0-50.79,2.63-134.23,26.53,0,0-136.3,30.74-154,76.29"/><path class="morinda-24" d="M216.23,512.49s22.27,40.38,95.14,36.2c0,0,31.91-6.75,65.52,9.88,0,0-.41,17.1-65.76,8.51,0,0-55.46-5.52-60.31,34.23,0,0-27.93,7.83-44.68,7.78,0,0-49.76,0-81.34-6.9,0,0-40.11-1.9-43.78-30.26,0,0-7-7,23.78-41.1l12.4-13.07s16.2-15.83,36.38-17.64C153.58,500.12,205.33,489,216.23,512.49Z"/><path class="morinda-21" d="M91.52,546.85s15.68-20.92,44.34,8.15c0,0,9.7,4,47.38-8.75,0,0,37.85-11.45,74.37,7.43,0,0-1.74,6.78-55.44,7.17,0,0-44.68-.78-45.42,13.74,0,0-6,24.37,18,27.82,0,0,33.23,3.57,45.8-.68,0,0,44.87-12.71,54-5.2,0,0-16.32,2.94-48.78,10.42,0,0-21.14,5.23-57,1.08,0,0-48.12-4.07-58.93-8.47,0,0-25.17-3.86-29.62-28.2C80.3,571.36,82.24,556.46,91.52,546.85Z"/><path class="morinda-23" d="M451.44,282.22s-70.39,4.44-112.68,32.2c0,0-30.4,18.35-45.71,21.64,0,0-60.22,20.9-81.93,35.5,0,0-12.39,5.54-19.63,10.41"/><path class="morinda-23" d="M677.73,350.55c-12.89,1.67-73.67-32.42-73.67-32.42-67.73-37.13-93.52-33.79-93.52-33.79-14.18,1.83-37.91-5.26-37.91-5.26"/><path class="morinda-23" d="M450.59,408.76s12.32,14.14,51.59,34c0,0,102.63,53.59,140.71,94.55,0,0,51.76,50.26,55.23,64.6"/><path class="morinda-23" d="M400.93,562s-.29,7.9,20.93,30.06c0,0,122.46,125.75,136.94,156.65,0,0,32.37,54.48,30.54,67.34"/><path class="morinda-23" d="M400.1,555.57s-19.8,9.11-41.26,5.34c0,0-122.13-11.74-175-4.9,0,0-52.49,4.7-100.59,20.48"/><path class="morinda-14" d="M288.57,286.17s26.28.53,49.33-3.76c0,0,27.67-4.9,46.39,11s-25.45,59.67-25.45,59.67-52.28,31.66-51.94,34.24"/><path class="morinda-14" d="M368.34,274.54s44.94-1.23,49.62,11.61l-8.1,2s9.24,13.92-15.67,34.18"/><path class="morinda-25" d="M181.17,367.53s26.57-32.24,54.39-50.25c0,0,53.69-32.09,108.24-45.58,0,0-45.22,2.73-96.07,26.65C247.73,298.35,189.11,321.89,181.17,367.53Z"/><path class="morinda-14" d="M254.52,413.15s30.8,15.43,29.84,28.13"/><path class="morinda-14" d="M306.26,394.63s37.81,14.61,41.48,31.27l14.37-2.76s-13.41,28.95-52.84,48.47"/><path class="morinda-14" d="M329.88,387.67s40.8,1.28,53.45,18c0,0,8.12,9.65,8.37,12.79"/><path class="morinda-14" d="M190.4,505.34s43.92,27.92,48.07,48.6l-10.75-.07s-11.67,28.12-86.46,37.8"/><path class="morinda-14" d="M221.35,501.34s34-.47,54.29,24.44c0,0,23.64,23.26,22.78,30.53l-12.29-.69s-36.18,35.1-67,40.39c0,0-15.31,3.29-35.48-.65"/><path class="morinda-14" d="M274.76,508.85s66.85,20.2,66.48,47.78c0,0-12.3,26.5-64.05,31.88"/><path class="morinda-14" d="M122.61,528.53s21.71-14.61,38.06.32c0,0,18.61,22.24,18,27.7l-18.34,2.3s-23.27,30.74-58.42,32.66"/><path class="morinda-14" d="M508.12,445.9s12.86-20,61.61-8"/><path class="morinda-14" d="M554.92,472.62s43.44-16.1,73.14-9.46c0,0,27,16.17,33.44,15.34"/><path class="morinda-14" d="M538.84,463.11s40.67,111.21,81.8,115.07"/><path class="morinda-14" d="M611.35,510s-.53,32.74,7.75,46.09c0,0,9.11,19.8,7.87,30.44,0,0,2.33,18.06,24.63,28.28"/><path class="morinda-14" d="M617.89,515s43.83-24.73,68.25-8.22"/><path class="morinda-14" d="M649,543.36s-11.89,10.39,4.84,38.38c0,0,5.7,13.69,5.58,22.88,0,0,2,15.47,7.33,16.09"/><path class="morinda-14" d="M663.59,558.25s14.66-11.12,31.3-4.1"/><path class="morinda-14" d="M502.18,442.73s-3.15,16.14,33.75,48.08c0,0,17.81,16.05,18.81,23.79"/><path class="morinda-14" d="M441.12,612.1S426.87,630.77,462.07,680c0,0,17.85,26.54,17.4,33.15"/><path class="morinda-14" d="M445.33,616.52s7.07-11.34,62.6,2.45c0,0,16.48,5.74,21.18,11.68,0,0,11.81,10.27,19.55,9.27"/><path class="morinda-14" d="M476.12,649.31s-3.73,29.32,24.4,84.68c0,0,26.63,43.75,35.2,49.19"/><path class="morinda-14" d="M488.52,662.78s54.69-14.29,76.7,3.84c0,0,13.94,16.55,12.86,28.49"/><path class="morinda-14" d="M541.51,723.72s-6,47.69,16.85,72.27c0,0,18.59,12,18.14,18.63"/><path class="morinda-14" d="M553.35,739.59l29.9-4.51s6.45-.83,7.25,35.77"/><path class="morinda-26" d="M196.39,404.93s17.9-8.87,40,.07c0,0,14.23,8.65,68.46-18,0,0,57.23-39.52,67.84-30.73,0,0-42.49,31.08-75.36,42C297.36,398.28,227.59,428.43,196.39,404.93Z"/><path class="morinda-14" d="M202,336.69s39.36.83,50.38,14.8S229,397.57,229,397.57"/><path class="morinda-14" d="M258.62,297.91l51,19.61s9.85,3.89,10.84,7.08c0,0,2.31,13.51-5.71,22.41,0,0-28,46.89-54.93,51.68"/><path class="morinda-14" d="M615.94,364.44s-62-43.54-62.81-70.09c0,0,16.66-13.09,44.12-3.53"/><path class="morinda-14" d="M653.43,288.8s-41.58,26.27-57.3,25.06"/><path class="morinda-14" d="M577,266s-63.55,3-58.4,18.67"/><path class="morinda-14" d="M629,333.87s2.82,26.55,24.66,43.39"/>
                </g>
                <g id="pineapple">
                    <path class="morinda-27" d="M406.22,582.63s-25.08,19-33.9-8.72c0,0-18.1-8.15-6.87-22.71,0,0-13.32-21.88,12.3-26.5,0,0,9.73-26.17,28.37-3.67,0,0,21.09-9.28,28,23.91,0,0,8.72,21.81-6.25,27.68C427.87,572.62,422.8,594.25,406.22,582.63Z"/><path class="morinda-28" d="M367.26,553s6.21-10.66,8.84-.51c0,0,5.07,9.68,9,4l8.59-17.65s5.47,9.36,5.76,1.46c0,0,12.06-8.12,13.39,2.2,0,0,1.39,5.23,4.9,4.69L419.11,581l-8.69,3.75a18.94,18.94,0,0,1-4.2-2.08S392,593.27,382,587.54a26.06,26.06,0,0,1-9.68-13.63s-9.17-4.4-10.43-11.93Z"/><path class="morinda-29" d="M414.05,546.88s7.9.29,10.82,2.53c0,0,6.78,1.75,4.32-7.11,0,0-2.17-16.76-12.32-14.14,0,0-5,2-5.49-1.91,0,0-3.9-6.44,2.23-6.38,0,0,14.8-1.07,20.08,23.16,0,0,11.56,22.1-5.82,29.59,0,0-4.28,17.6-16.72,12.65,0,0-9.56-7-.21-8.66,0,0-4.2-5.19,2.53-13.93,0,0,2.08-4.2-1.33-10.31C412.14,552.37,408.73,546.26,414.05,546.88Z"/><path class="morinda-30" d="M393,566.64s20.84,9.11,18.51-8.95c0,0-2.29-7.57-9.86-5.28C401.66,552.41,384.94,565.06,393,566.64Z"/><path class="morinda-31" d="M400.75,565.64s6.44-.83,5.78-6c0,0-.5-3.87-5.5-1.91C401,557.74,393.8,562.61,400.75,565.64Z"/><path class="morinda-32" d="M386.52,557s11.27-4.08,8.48-15.51c0,0-1.34-10.32-10.19-7.86,0,0-8.86,2.45-6.07,13.89C378.74,547.51,378.61,556.7,386.52,557Z"/><path class="morinda-33" d="M385.52,549.26s6.44-.84,4.15-8.41c0,0-4.53-4.65-7.73,1C381.94,541.85,381.65,549.76,385.52,549.26Z"/><path class="morinda-34" d="M400.66,544.68s10.81,2.53,9.64-6.49c0,0-2.45-8.86-7.61-8.2C402.69,530,392.54,532.62,400.66,544.68Z"/><path class="morinda-35" d="M403.69,537.73s5.87-.92,2.83-6.34c0,0-5.62-5.1-5.74,4.09C400.78,535.48,401.28,539.35,403.69,537.73Z"/><path class="morinda-36" d="M415,544.13s8.07,1.58,9.52,2.7c0,0,5.49,1.92,1.41-9.36,0,0-5-8.52-10-6.57,0,0-4-.78-1.41,9.36Z"/><path class="morinda-37" d="M421.12,540.72s7.64-.41,2.34-6.57c0,0-3.67-3.75-4.3,1.58C419.16,535.73,418.54,541.05,421.12,540.72Z"/><path class="morinda-38" d="M367.05,568.69s26,8.43,22.59,2.32c0,0-8.9-8-5-8.53,0,0,2.24-2.91-2.92-2.24,0,0-7.9-.29-7.78-9.48,0,0,1-9.3-12.12,9.43C361.79,560.19,361.9,569.35,367.05,568.69Z"/><path class="morinda-39" d="M367.84,564.65s11,3.83,7.41-3.58c0,0-.67-5.15-6.78-1.74C368.47,559.33,362.52,564,367.84,564.65Z"/><path class="morinda-40" d="M400.84,585.84s7.06-5.39,1.74-6c0,0-5.32-.62-8.24-2.86,0,0-2.91-2.25-7.9-.29,0,0-7.57,2.73-13.14,0,0,0,6.65,13.93,14.51,12.29C387.81,588.91,396.18,589.62,400.84,585.84Z"/><path class="morinda-41" d="M395.18,583.4s-6.51-6.11-16.46,1.28c0,0,7.48,10.37,21.95.64Z"/><path class="morinda-42" d="M430,568.42s-14.4-9.94-5.71-13.68c0,0,7.57-2.29,7.07-6.16,0,0,1.26-7.05,5,5.08C436.33,553.66,438.18,571.29,430,568.42Z"/><path class="morinda-43" d="M363.94,548.13s15.13,2,12.63-17.38c0,0,1.21-7.3-5.37-4.19C371.2,526.56,357.29,530.64,363.94,548.13Z"/><path class="morinda-44" d="M427.87,572.62s-3.58-7.4-6.45.84c0,0-3.2,5.65-12.56,4.24,0,0-6.26.27,1.74,7.37,0,0,8.21,3.09,12.9-3.39C423.5,581.68,426.12,579.4,427.87,572.62Z"/><path class="morinda-45" d="M415.22,555.9s-.46,6.62,6.11-3.41c0,0,3.54-3.08-4.2-2.08C417.13,550.41,413.26,550.91,415.22,555.9Z"/><path class="morinda-46" d="M397.88,573.88s2.29,7.57,19.67.08c0,0,8.53-5,1.25-10.65,0,0-4.2-2.08-7.24,4.87,0,0-3.37,4.36-10.15,2.62C401.41,570.8,395,571.63,397.88,573.88Z"/><path class="morinda-47" d="M395.53,515.19s-8.86,2.45-11.22,14.56c0,0-2.08,4.2,6.44-.83,0,0,4.7,5.94,8.86-2.46,0,0,9.69,4,5.95-4.7C405.56,521.76,401.81,513.06,395.53,515.19Z"/>
                </g>
                <g id="budding_floer">
                    <path class="morinda-48" d="M439,421.29s-2.7-3.2-8.6-3.7c0,0-8.89-7.3,1.2-14.17,0,0,8.23-5.84-3.53-7.43,0,0-6-5.87,4.7-13.28,0,0,7.42,3.61,9.59-1a5,5,0,0,0-2.45-6.16s2.63-9.88,10.74-7.4c0,0,5.45,5.81,5.9.5,0,0-1.81-6.7,3.66-8,0,0,9.74-2.74,10.52,2.08,0,0,8.76-5.2,16.39-31.9l12.19,3.42s-6.45,6-11.1,18.67c0,0-4.55,11.5-6.32,11.35,0,0,9-1,10.82,5.68,0,0,6.9-11.3,13.88-9.52,0,0,6,5.86-4.89,15.63,0,0-3.9,3.84-3.61,7.43,0,0,6.19,4.09,2.3,7.92,0,0,6.77,11.28,1.65,15.6,0,0,3.81,11-6.72,16.07a18.13,18.13,0,0,0-4.06,12.73s-1.83,7.58-10.63,6.23l-10.32-4.44s-6.3-2.92-18.74-3.38C451.53,434.25,444.3,435.42,439,421.29Z"/><path class="morinda-49" d="M483.78,345.15l.83,4.23,3.54.3,3.4-5.06s5.48-8.45,7.4-10.07l-12.19-3.42s-3,10.44-3.92,12.45Z"/><path class="morinda-50" d="M484.54,338.88s-2.35,14.5,7,5.91L488.17,353l-6,7.81-3.93-2.71,1.25-7.62S483.65,341.69,484.54,338.88Z"/><path class="morinda-51" d="M437.69,384.59s.69,29.52,7.26,15.21l18.28,8.69s4.67,1,4.32,5.13c0,0,14.85,7.2,20.56,2.94,0,0,6.74,4.14,4.83,9.32l2.34-2.77s4.38-2.54,5.44-4.56l-1-12.9-8.88-14.42,7.19-7.71s-.18-4,4.28-7.9l-3.06-13.4s-4.9,5.23-6.87,7.44l-12.64-5.24-9.34-2s-.1-2.57-3.52-2.47c0,0-10.69,1.85-10.07,8.45,0,0-.65,4.8-4.92.52l-10.17,8S445.58,383.44,437.69,384.59Z"/>
                        <g id="_5_layer" data-name="5_layer">
                            <path class="morinda-52" d="M431.29,403.1s5.08-3.73,6.53,7.1c0,0,1.14,9.48-2.44,8.65a26.52,26.52,0,0,0-5.29-1.58S421.2,410,431.29,403.1Z"/><path class="morinda-52" d="M435.9,383.88s5.9.5,5.3,7.58c0,0-2,9.34.13,12.5,0,0-.46,5.31-2.52,1.56,0,0-3.77-8.58-7.41-9.22Z"/><path class="morinda-52" d="M441.66,412s-1-6.87,5.32-4.55c0,0,8.4,6.06,13.22,5.28,0,0,.79-2.31,5.45,5.82,0,0,8,11.38.28,10.72,0,0-4.8-1.5-11.56,2Z"/><path class="morinda-52" d="M491.42,431.18s3.64-9,.05-8.69c0,0-8.57,2.84-13.29,2.43,0,0-8.26-.7-5.27,6.1,0,0,4.36,11.66,7.95,11.37Z"/><path class="morinda-52" d="M443.26,402.59s6.09-2.11,10.46,2.42c0,0,6.92,9.51,12.24,2.82,0,0,2.92-6.29,4.74-6.73,0,0,1.18.1-1.58,4.62,0,0-6.71,8.95-.86,10,0,0,5.36-.14,9.24,3.16,0,0,8.95,6.71,16.39-3.95,0,0,.62-14.22-13.75-13.06,0,0-9.93-2-11.35-6.32a13.61,13.61,0,0,0-9-4.7Z"/>
                        </g>
                    <path id="_4_layer" data-name="4_layer" class="morinda-53" d="M456.25,373.78s-4.16,8.5.56,8.9c0,0,6.39,1.74,8.4,6.07,0,0,2.65,3.79,5.66-3.68a17,17,0,0,0,.67-6.51s1.76-1,1.64,7.3a7.81,7.81,0,0,0,7.81,6s3.57.9,4.92-4.93c0,0-3.45,8.63,1.17,10.21a6.15,6.15,0,0,0,7.24.05s-6.9,2.95-4.74,5.51c0,0,3.29,6.54,7.69,5.57l4.41-1-1.06-15.55s-7.16-13.69-14.19-14.88c0,0-5.31-.45-1-1.87,0,0,3.77-.1,5.31-1.84l-16.46-13.94s-4,5-6.83,3.55l-10.59,5.64S458.67,371.67,456.25,373.78Z"/>
                        <g id="_3.5_layer" data-name="3.5_layer">
                            <path class="morinda-54" d="M442.64,409.42s3.85-3.24,12,5.77c0,0,2.65,3.8,6.19,4.1,0,0,4.82,1.75-2.75,9.06l-15-7.1S440,412.17,442.64,409.42Z"/><path class="morinda-54" d="M459.83,390.89s9.6,4.16,8.61,8.83c0,0-2.48,8.11-7.15,7.12,0,0-5.16-2.22-5.5-5.22l-9.14-4.35s3.78,4.49-2.22,5.17c0,0-3.74,2.06-.28-10.73,0,0,2.37-6.93,7.64-5.89Z"/><path class="morinda-54" d="M482.29,403.85s-4.07-.32-5.69-2.24c0,0-3.39-2.08-5,3.14,0,0-4.25,8-.71,8.26,0,0,3.7-1.47,5.81,1.68,0,0,2.7,3.2,5.11,2.81Z"/><path class="morinda-54" d="M491.42,431.18s.93-5.05-5-5c0,0-10.77.86-9.94,5.1,0,0,1.51,10.23,4.41,11.07Z"/><path class="morinda-54" d="M478.38,394.62s-8.3-7.24-8.65-3.11c0,0,.73,5.41,7.12,7.14,0,0,7,1.79,6.64-1.21C483.49,397.44,483.1,395,478.38,394.62Z"/>
                        </g>
                    <path class="morinda-55" d="M442.42,380.57s6.68,5.32,10.29-2.1c0,0,4.19-7.37-2.69-10.33Z"/><path class="morinda-56" d="M494.22,369.22s-5.92,6.63-2,9.34c0,0,2.17,2.14,11.35-4.3,0,0,6.18-6.1,2.89-9.35l-6.93-2.37Z"/>
                        <g id="_3rd_layer" data-name="3rd_layer">
                            <path class="morinda-57" d="M486.5,379.56s-6.34-2.32-5.94-7c0,0,2.81-5.11-3.63-6.26,0,0-8.65-3.11-9,1,0,0-.89,3.49-5,2.55,0,0-8.46,1.66-6.5,6.58,0,0,4.66,8.12,8.89,7.3,0,0,7.87-1.71,6-7.22,0,0,3.44,1.48,4.67,1,0,0-2.56,2.16-.61,7.08,0,0,1.91,5.51,6.69,5.32,0,0,4.72.41,4.88-8.5Z"/><path class="morinda-57" d="M496.87,383.42s-8.6-3.71-9.1,2.19c0,0-1.93,8.76,1.51,10.24,0,0,5.65,3.45,7.77-.53,0,0-1,5.26,1.12,7.82,0,0,3.75,5.67,5.64.48,0,0-.24-5.81-1.85-9,0,0,.75-3-3.48-2.15C498.48,392.47,501.34,386.77,496.87,383.42Z"/><path class="morinda-57" d="M490.6,411.71s2.37-6.93-5.3-7.58c0,0-7.62-1.24-8.66,4,0,0,1,9,5.15,9.35C481.79,417.5,489.56,417,490.6,411.71Z"/><path class="morinda-57" d="M462.89,395.09s-3.48-8-11.31-6.91c0,0-7.92,2.3-4.93,9.09,0,0,2.65,3.8,9.14,4.35C455.79,401.62,465.54,398.88,462.89,395.09Z"/><path class="morinda-57" d="M458.17,422.63s-7.07-7.74-13.28-4.7c0,0-4.48,3.78.28,10.73,0,0,5.4,6.4,11.8,1C457,429.66,461.51,425.29,458.17,422.63Z"/><path class="morinda-57" d="M490.33,428.93s-9.94-2-11.08,4.41c0,0-.75,8.85,4.07,8.07,0,0,6.54,0,7.63-5.89C491,435.52,492.1,429.08,490.33,428.93Z"/><path class="morinda-57" d="M501.68,407.31s-5.91-.51-6.31,4.22c0,0,1.18,10.2,5.73,7.62C501.1,419.15,506.15,410.66,501.68,407.31Z"/><path class="morinda-57" d="M436.28,393.42s4.09-6.57-.4-9.44l-3.42-1.59s-10.64,6.23-4.7,13.28C427.76,395.67,434.11,398,436.28,393.42Z"/><path class="morinda-57" d="M450.34,367.87s3.63,6.25-.75,8.85c0,0-6.57,4-7,3.78a3.67,3.67,0,0,0-3-4.64S442.18,366,450.34,367.87Z"/><path class="morinda-57" d="M470,361.26s.62,5.95-6,7.17c0,0-6.7,1.81-7.14,0,0,0-2.22-4.49,1.68-7.06C458.51,361.36,465.58,358,470,361.26Z"/><path class="morinda-57" d="M499.56,362.34s-5.93,6.83-.82,9.64c0,0,3.91,1.93,6.8-.11,0,0,5.7-7.15.69-11.14A6.85,6.85,0,0,0,499.56,362.34Z"/><path class="morinda-57" d="M479.77,350.34s-.36,13.29,8.89,1.38c0,0-2.48,7.34-5.52,11.52l-1.61,1.33s8.52-2.24,10.87,5.09c0,0-1.3,8.21-7.88,1.71,0,0-2.64-3.88-6.13-4.73,0,0-6.67-3.22-3.35-8.42A82.7,82.7,0,0,0,479.77,350.34Z"/>
                        </g>
                    <path class="morinda-58" d="M488.64,434.73s-5,3.14-5.17,4.91C483.47,439.64,489.32,440.73,488.64,434.73Z"/>
                        <g id="_2nd_layer" data-name="2nd_layer">
                            <path class="morinda-59" d="M464.59,378.16s5.38,0,4-4.29c0,0-6.56-4.25-8.35,1.6Z"/><path class="morinda-59" d="M482.09,386s2.85,1.43,2.66-3.34c0,0-.34-3-2.7-3.2,0,0-4.08-.94-3.84,3.24Z"/><path class="morinda-59" d="M449.8,395.16s2,4.93,7.57,1.84a3.09,3.09,0,0,0,.36-4.13,4.73,4.73,0,0,0-6.4-1.74S449.46,392.16,449.8,395.16Z"/><path class="morinda-59" d="M471.44,371.44s-1.47-3.69,2.66-3.34c0,0,4.13.35,3.88,3.31,0,0-1.25,2.46-2.79,2.23Z"/><path class="morinda-59" d="M492.66,387.52s1.58-4.63,3.69-1.47c0,0,2.35,7.33-2.37,6.93Z"/><path class="morinda-59" d="M481.77,410.15s-1.24-5.83,4.51-3.56c0,0,2.26,1.38,1.37,4.87,0,0-.79,2.31-4.28,1.42Z"/><path class="morinda-59" d="M453.83,424.64s-6.58-6.51-6.54,0c0,0,.83,4.24,4.37,4.54C451.66,429.21,455.94,427.79,453.83,424.64Z"/>
                        </g>
                        <g id="white">
                            <path class="morinda-60" d="M465.6,373.62s-7.08-.6-5,3.14a4.81,4.81,0,0,0,5.9.5S469.05,375.1,465.6,373.62Z"/><path class="morinda-60" d="M456.44,394s-2.65-3.8-5.36.13c0,0-.74,1.73,2.16,2.57C453.24,396.65,457.37,397,456.44,394Z"/><path class="morinda-60" d="M482.44,381.89s-3.88-3.3-4.23.83c0,0,.88,3.64,3.88,3.3C482.09,386,484.5,385.63,482.44,381.89Z"/><path class="morinda-60" d="M496.1,389s-3.09-5.62-3.44-1.48c0,0-.5,5.9,1.91,5.51C494.57,393,496.34,393.18,496.1,389Z"/><path class="morinda-60" d="M485.93,410.72s-2.5-5.56-4-2.12c0,0-.94,4.08,1.42,4.28C483.37,412.88,485.63,414.26,485.93,410.72Z"/><path class="morinda-60" d="M476.11,372.44s-2.55-5-4.67-1c0,0-.74,1.72,2.21,2C473.65,373.41,477.14,374.31,476.11,372.44Z"/>
                        </g>
                    <path class="morinda-61" d="M481.5,312.56s-6.34-2.33-8.46,1.65c0,0-2.48,8.12,2.5,5.57,0,0,4.33-2,8.45,5.47,0,0,3.19,4.43,2.84,8.56-.31,3.55,2.49,5.57,9.34,2s2.51-1.57,6.52-3.31c0,0,11-3.82,13.73-.62,0,0,3,6.8,5,4,0,0,2.17-4.57-2.89-8a17,17,0,0,0-15.35-1.3s1.45-10-2.09-10.29c0,0-7-1.78-8.38,7.61A15.05,15.05,0,0,0,481.5,312.56Z"/><path class="morinda-62" d="M476.7,316.61s14.55,3.61,13.65,14.23c0,0,4.34-9.14,9.4-5.73,0,0,4.57,2.17,1.27,6.05,0,0-4.36,5.87-9.77,6.6,0,0-5.42.73-4.37-4.54a6,6,0,0,0-.64-3.1s-2.37-9.29-9-10.47l-1.09,0s-3.06,1.56-3.39,0C472.75,319.61,472.57,316.25,476.7,316.61Z"/><path class="morinda-63" d="M475.67,314.73A9.08,9.08,0,0,1,486.09,318S480.44,314.55,475.67,314.73Z"/><path class="morinda-64" d="M496.23,324.54s5.17-11.78-.09-12.82c0,0-4.09-.94-2.13,4,0,0,2.26,3.72-.51,10.64C493.5,326.34,495.67,324.22,496.23,324.54Z"/><path class="morinda-64" d="M507.93,319.86s-.88-3.64-5.31-.46c0,0-5.55,2.87-6,4.14l-.43,1.26s.51-1.17,2.89-.06c0,0,6.22-2.13,6.42-4.49C505.52,320.25,507.78,321.63,507.93,319.86Z"/><path class="morinda-65" d="M520.62,329.81s-.17,3.6-2.87.39c0,0-3.19-4.43-10.58-1.49,0,0-6.19,2.88-7.57,5.22,0,0,7-4.68,14.87-3.12a4.09,4.09,0,0,1,2.54,2.26s1.58,4,3.59,3.44C520.6,336.51,523.63,334.78,520.62,329.81Z"/>
                </g>
                <g id="pineapple-2" data-name="pineapple">
                    <path class="morinda-27" d="M414.35,436.76s23.41,10.21,25.11-13.34c0,0,12.74-9.87,1.1-19.23,0,0,6.35-19.81-14.76-18.59,0,0-12.65-18.8-23.09,2.51,0,0-18.42-3.32-17.56,24.2,0,0-2.73,18.88,10.21,20.67C395.36,433,403.47,449.09,414.35,436.76Z"/><path class="morinda-28" d="M439.46,405.92s-6.93-7.24-7.07,1.28c0,0-2.17,8.6-6.33,4.87l-10.14-12.31s-2.54,8.43-4.27,2.25c0,0-11.07-4.11-10.16,4.28,0,0-.1,4.4-3,4.64l5.33,27,7.58,1.3a14.74,14.74,0,0,0,2.92-2.44s13.28,5.69,20.06-.73a21.17,21.17,0,0,0,5-12.61s6.4-5.21,6-11.4Z"/><path class="morinda-29" d="M401.37,410s-6.19,1.74-8.06,4.06c0,0-5,2.67-4.77-4.79,0,0-1.48-13.65,7-13.51,0,0,4.32.6,4-2.55,0,0,1.85-5.82-3-4.61,0,0-11.89,2-11.45,22.1,0,0-4.92,19.65,10.24,22.26,0,0,6.72,13.08,15.6,6.81,0,0,6.23-7.32-1.48-6.88,0,0,2.33-4.9-4.65-10.52,0,0-2.44-2.92-.91-8.39C403.92,414,405.45,408.52,401.37,410Z"/><path class="morinda-30" d="M421.74,421.63s-14.72,11.15-16.32-3.55c0,0,.37-6.41,6.78-6C412.2,412,427.81,418.84,421.74,421.63Z"/><path class="morinda-31" d="M415.44,422.31s-5.25.57-5.7-3.63c0,0-.34-3.15,4-2.56C413.71,416.12,420.35,418.59,415.44,422.31Z"/><path class="morinda-32" d="M425,412.77s-9.68-1.07-9.65-10.64c0,0-.91-8.39,6.55-8.14,0,0,7.47.25,7.44,9.82C429.37,403.81,431.21,411,425,412.77Z"/><path class="morinda-33" d="M424.35,406.47s-5.25.57-4.88-5.84c0,0,2.69-4.54,6.3-.68C425.77,400,427.5,406.13,424.35,406.47Z"/><path class="morinda-34" d="M411.52,405.74s-8,4.06-8.85-3.29c0,0,.25-7.46,4.45-7.92C407.12,394.53,415.63,394.67,411.52,405.74Z"/><path class="morinda-35" d="M407.8,400.83s-4.8.39-3.43-4.47c0,0,3.46-5.09,5.31,2.14C409.68,398.5,410,401.65,407.8,400.83Z"/><path class="morinda-36" d="M400.09,408s-6.07,2.78-7,3.94c0,0-4,2.56-2.89-7.12,0,0,2.35-7.69,6.66-7.09,0,0,3-1.39,2.9,7.12Z"/><path class="morinda-37" d="M394.61,406.51s-6.11,1.13-3.1-4.74c0,0,2.19-3.66,3.7.42C395.21,402.19,396.71,406.28,394.61,406.51Z"/><path class="morinda-38" d="M442.62,418.3s-18.92,11.61-17.39,6.13c0,0,5.5-8,2.35-7.69,0,0-2.32-1.87,1.88-2.32,0,0,6.18-1.74,4.34-9,0,0-2.53-7.16,11.36,5.14C445.16,410.59,446.82,417.85,442.62,418.3Z"/><path class="morinda-39" d="M441.23,415.27s-7.94,5.1-6.52-1.42c0,0-.46-4.2,5-2.67C439.73,411.18,445.32,413.76,441.23,415.27Z"/><path class="morinda-40" d="M419.21,438.28s-6.6-2.92-2.52-4.42c0,0,4.09-1.51,6-3.84,0,0,1.87-2.32,6.19-1.73,0,0,6.49.72,10.36-2.53,0,0-2.6,12.26-9.12,12.46C430.08,438.22,423.61,440.37,419.21,438.28Z"/><path class="morinda-41" d="M423.22,435.27s4-6.06,13.23-2.12c0,0-3.92,9.61-17.2,4.68Z"/><path class="morinda-42" d="M392.91,430.06s9.48-10.59,1.9-11.89c0,0-6.41-.37-6.75-3.52,0,0-2.33-5.33-3,5C385.06,419.62,387,433.89,392.91,430.06Z"/><path class="morinda-43" d="M441.17,401.48s-11.57,4.42-13.28-11.32c0,0-2.34-5.54,3.44-4.33C431.33,385.83,443.09,386.41,441.17,401.48Z"/><path class="morinda-44" d="M395.36,433s1.41-6.53,5.24-.57c0,0,3.61,3.86,10.73,1,0,0,5-1,0,6.15,0,0-5.89,4-10.83-.22C400.53,439.3,398,438,395.36,433Z"/><path class="morinda-45" d="M402.16,417.37s1.62,5.14-5.47-1.53c0,0-3.38-1.76,2.92-2.44C399.61,413.4,402.76,413.06,402.16,417.37Z"/><path class="morinda-46" d="M419.27,428.27s-.36,6.41-15.52,3.8c0,0-7.69-2.35-3-8.17,0,0,2.93-2.44,6.64,2.47,0,0,3.49,2.8,8.52.14C415.9,426.51,421.15,425.94,419.27,428.27Z"/><path class="morinda-47" d="M410,381.48s7.46.25,11.63,9.36c0,0,2.44,2.92-5.25.57,0,0-2.58,5.59-7.46-.26,0,0-6.89,5-5.59-2.58C403.29,388.57,404.59,381,410,381.48Z"/>
                </g>
                <g id="flower_and_buds">
                    <g id="flower">
                        <path class="morinda-66" d="M447.77,95.28s19.28,2.51,30,25.78c0,0,5.15,12.08-10.3,6,0,0-31.91-17-28.21-25Z"/><path class="morinda-66" d="M475.5,72.68s-34.29,6.64-35.28,18c0,0,6.44,11.61,20.63,4.22,0,0,22.8-12,23.85-21.19C484.7,73.72,481.57,71.19,475.5,72.68Z"/><path class="morinda-66" d="M435.69,100.43s14.1,4.4,3.75,24.33c0,0-9.24,12.92-15.43,10,0,0-3.66-6,1.62-19.69C425.63,115.11,432.16,98.78,435.69,100.43Z"/><path class="morinda-66" d="M440.22,90.69s15-11.33,9.69-27.77c0,0-6.15-16.85-14.75-12.24,0,0-5.35,11.5-3.39,18.87C431.77,69.55,430.14,89.23,440.22,90.69Z"/><path class="morinda-66" d="M426.5,99.38s-29.54-10.52-25-20.25c0,0,6.68-9.72,32,5.25C433.48,84.38,440.82,96.35,426.5,99.38Z"/><path class="morinda-67" d="M475.43,116.57s-1.57,5.91-13.55-.73-23.64-2.39-22.65-13.77c0,0,8.62,11.54-3.87,17.57,0,0-6.06,1.48-3.18-4.71,0,0,2.07-6.61-2.6-8.22,0,0-3.43-4.27,2.39-14.47,0,0,1.81-13.15,11.48-10.8,0,0,4.84,1.17,3.66,6,0,0,3.79,10.37,13.74,7.47A22.52,22.52,0,0,1,455.12,98S465.32,98.76,475.43,116.57Z"/><path class="morinda-68" d="M444.76,89s-1.36-10.09-7.9-5.72c0,0-5.77,5.85,4.57,6.34Z"/><path class="morinda-68" d="M436.34,100.19s6.32,7.24,3.31,9.07c0,0-7.42-.22-5.37-4.65C434.28,104.61,434.16,100.25,436.34,100.19Z"/><path class="morinda-68" d="M462.63,103.81s-15.38-3.93-6.89,3.25c0,0,7.14,5.47-.76,4,0,0-22-5.92-14.28-10.94,0,0,4.18-7.09,18.54-.74C459.24,99.33,467.47,105,462.63,103.81Z"/><path class="morinda-69" d="M443.59,102s12.43-8.21,5.76-12.39c0,0-8-5.88-11-1.87,0,0-8.13,5.91-1.87,11C436.52,98.66,441.89,103.31,443.59,102Z"/><path class="morinda-70" d="M448.18,94.4s-10.31,6-9.13,1.13c0,0,1.11-7,6.83-5.43C445.88,90.1,449.83,90.86,448.18,94.4Z"/>
                    </g>
                    <g id="buds">
                        <path id="_3_layer" data-name="3_layer" class="morinda-71" d="M419.13,124.94,413,169l9,59.14,6.77-13s14.2,12.91,27.67-4.56c0,0,22.67,23.29,41.76-1.47,0,0,6.9-7.45-.09-21,0,0,39.3-10.33,32.48-22.56,0,0,35.48.66,44-14.86l-54.84-.06s-27.55-.19-15.36-3.85c0,0,10.77-.49,11-5.94l-68.17-7.1Z"/><path id="_2_layer" data-name="2_layer" class="morinda-72" d="M477.74,67.29s.16,37.51-3.65,40l-23.39,10S448.9,127,452,130.53l-14.31-6.19s-3.49-9.86-2.87-15.19l-33.92,1.22s-1.36,10.1,13.6,19.21l-25.18,13s1.22,19.51,16.69,17.51L428.43,131s1.05,18.22,10.07,17.05c0,0-.74,14.52,13.11,10.11,0,0,.38,13.06,5.7,13.68L420.46,191s2.09,36.43,19.93,22.33c0,0,5.78-6-.92-27.41l7.57-2.29s.55,14.35,13.44,12.68c0,0,15.71-4.15,17.5-8.57,0,0-18,15.18-7.6,24.33,0,0,17.14,10.89,28.54-2.38,0,0,8.48-15.52-13.32-21.87l-6-5-3.65-10.77s7.89,12,12.21,4.93c0,0,.61-5.47-1.84-14.25,0,0,8.46,14.71,20.56,17.07,0,0,2.08,3.38,21.57-6.86l-.89-15.68s24.59,8.58,44.69-3.73l-31.85-18.7s-15,5.87-23.62,20.1l-15.68.27s-9.72,4.21-8.27-9c0,0,11.43,3.81,19.74-3.16l-20.93-20.23s-1-7.74,6.86-17.93c0,0,13.66-17.29,11.79-36.16Z"/><g id="_1_layer" data-name="1_layer"><path class="morinda-68" d="M508.84,58.28s-7.66-18.67-27-5.69c0,0-11.68,21.18,5,28.2,0,0,20.17,3.95,23-4.29A49.87,49.87,0,0,0,508.84,58.28Z"/><path class="morinda-68" d="M573.6,138.4s-9.28-21.09-33.23-3.57c0,0-8,19.39,10.4,19.63,0,0,21.3,2.49,24.5-3.17C575.27,151.29,578.76,137.73,573.6,138.4Z"/><path class="morinda-68" d="M434.62,107.86s-11.52-18.17-31-6.48c0,0-9.77,15.69,7.33,16.1C411,117.48,436.62,123.34,434.62,107.86Z"/><path class="morinda-68" d="M480.13,115.09s-14.94-24.29-24.88-9.89c0,0-10.1,13.1-.07,19.67C455.18,124.87,480.84,130.73,480.13,115.09Z"/><path class="morinda-68" d="M516,128.81s-5.7-13.69-24.38-6c0,0-5.94,4.7-5.28,9.86,0,0-21.46-3.78-20.13,6.54,0,0,6.33,8.36,14.85,3.32,0,0,7.91.29,7.62,8.19,0,0,5,8.53,4-9.69,0,0,19.55,9.27,24.5-3.17Z"/><path class="morinda-68" d="M531.31,166.15s-4.29-23-26.84-14.88c0,0-10.6,9.24-2,14.68C502.44,166,533.48,182.92,531.31,166.15Z"/><path class="morinda-68" d="M464.29,144.67s-2-15.47-12.32-14.14c0,0-13.93-16.55-14.85-3.32,0,0-4.44,16.3,2,15.47l3.2-5.66s4.12,21.75,12.81,18C455.14,155,462.38,150.16,464.29,144.67Z"/><path class="morinda-68" d="M487,168s-1.55-22.09-19.43-18.47c0,0-8.36,6.33-1.41,9.36,0,0,7.57-2.29,14.06,7.36C480.19,166.21,489.26,175.53,487,168Z"/><path class="morinda-68" d="M453.27,167s21.09-5.28,25.84,11.15c0,0,4.75,16.43-15.43,12.48C463.68,190.63,448.36,185.91,453.27,167Z"/><path class="morinda-68" d="M411.34,130.54s-23.26-7.48-22,12c0,0,6.71,21.42,20.85,9.1C410.14,151.67,420.7,132,411.34,130.54Z"/>
                    </g>
                </g>
                <g id="flower-2" data-name="flower">
                    <path class="morinda-66" d="M406.13,176.44s-10.91-23.49,7.68-52.12c0,0,9.94-14.39,14.06,7.36,0,0,3.59,48-8,49.54Z"/><path class="morinda-66" d="M360.91,161.32s31.91,33.89,45.43,26.89c0,0,8.48-15.51-9.95-26.24,0,0-29.74-17.13-40.85-11.76C355.54,150.21,354.92,155.54,360.91,161.32Z"/><path class="morinda-66" d="M420.52,186.38s-5.08-19,24.75-21.55c0,0,21.13,1.2,22.3,10.22,0,0-4.16,8.41-23.34,12.2C444.23,187.25,421.19,191.54,420.52,186.38Z"/><path class="morinda-66" d="M406.34,188.21s-23.42-8.77-38.18,8.88c0,0-14.6,18.93-3.28,25.33,0,0,16.76-2.17,23.66-9.62C388.54,212.8,411.88,200.61,406.34,188.21Z"/><path class="morinda-66" d="M425.89,197.48s9.21,40.77-5,42.6c0,0-15.69-.59-16.88-39.77C404,200.31,412.29,183.51,425.89,197.48Z"/><path class="morinda-67" d="M410.39,130.13s7.79-2.44,8.83,15.78,14.15,28.32.64,35.31c0,0,6.86-17.93,22.54-8.16,0,0,6,5.78-3,6.95,0,0-8.92,2.38-7.41,8.78,0,0-2.36,6.91-18,7.62,0,0-16.09,7.32-20.34-5.24,0,0-2.12-6.28,4.16-8.4,0,0,9-11.65-1.38-20.8,0,0,5,2,7.53,4.27C403.92,166.24,397.54,154.2,410.39,130.13Z"/><path class="morinda-68" d="M401.24,184.29s-10.39,8.72-.8,13c0,0,10.69,2.32,3.87-9.67Z"/><path class="morinda-68" d="M419.8,185.82s3.65-12.27,7.85-10.19c0,0,5,8.52-1.41,9.36C426.24,185,421.42,188.23,419.8,185.82Z"/><path class="morinda-68" d="M405.15,153.63s6.53,20.13,8.57,5.45c0,0,1.07-11.94,5-2,0,0,9,29-2.16,23.88,0,0-10.95.33-14-20.36C402.52,160.64,403,147.35,405.15,153.63Z"/><path class="morinda-69" d="M416.61,176.4s-18.1-8.15-18.05,2.33c0,0-.91,13.23,5.7,13.69,0,0,12.44,4.94,13.69-5.71C418,186.71,419.36,177.35,416.61,176.4Z"/><path class="morinda-70" d="M404.84,176.61s14.06,7.36,7.78,9.48c0,0-8.69,3.75-11-3.82C401.64,182.27,399.68,177.28,404.84,176.61Z"/>
                </g>
                <g id="flower-3" data-name="flower">
                    <path class="morinda-66" d="M506.57,126.58s7.1-18.1,32.26-22.86c0,0,13-2.07,3.3,11.44,0,0-24.2,26.86-31,21.34Z"/><path class="morinda-66" d="M491.34,94.2s-1.84,34.89,9,38.59c0,0,12.81-3.44,9.08-19,0,0-6.13-25-14.8-28.26C494.58,85.53,491.37,88,491.34,94.2Z"/><path class="morinda-66" d="M508.65,139.54s7.67-12.61,24.52,2.24c0,0,10.3,12.09,6,17.4,0,0-6.71,2.1-18.71-6.33C520.47,152.85,506.2,142.57,508.65,139.54Z"/><path class="morinda-66" d="M500.3,132.79s-7.39-17.25-24.61-16.11c0,0-17.84,1.9-15.44,11.36,0,0,9.86,8,17.48,7.85C477.73,135.89,496.45,142.22,500.3,132.79Z"/><path class="morinda-66" d="M505.41,148.21s-17.34,26.12-25.69,19.38c0,0-7.82-8.82,12.82-29.78C492.54,137.81,505.93,133.58,505.41,148.21Z"/><path class="morinda-67" d="M533.91,104.88s5.36,3-4,13-8,22.36-18.83,18.65c0,0,13.28-5.57,16.11,8,0,0,0,6.25-5.34,2,0,0-5.92-3.61-8.61.53,0,0-5,2.3-13.46-5.82,0,0-12.32-4.93-7.7-13.75,0,0,2.3-4.41,6.71-2.1,0,0,11-1.17,10.57-11.53a22.69,22.69,0,0,1,1.58,6.3S514.19,110.39,533.91,104.88Z"/><path class="morinda-68" d="M499.79,128s-10.12-1.12-7.46,6.29c0,0,4.29,7,7.26-2.91Z"/><path class="morinda-68" d="M508.57,138.85s8.56-4.38,9.61-1c0,0-2,7.15-5.81,4.09C512.37,141.92,508.11,141,508.57,138.85Z"/><path class="morinda-68" d="M518.44,114.21s-7.53,14,1.49,7.48c0,0,7-5.61,3.65,1.69,0,0-11.06,19.91-14.07,11.21,0,0-5.86-5.77,3.77-18.17C513.28,116.42,520.75,109.81,518.44,114.21Z"/><path class="morinda-69" d="M512,132.24s-5-14-10.62-8.58c0,0-7.65,6.36-4.47,10.18,0,0,3.77,9.32,10.19,4.47C507.13,138.31,512.94,134.22,512,132.24Z"/><path class="morinda-70" d="M505.82,126s3.29,11.45-1.11,9.14c0,0-6.54-2.77-3.62-7.94C501.09,127.16,502.78,123.51,505.82,126Z"/>
                </g>
            </g>
        </g>
</svg>