<svg xmlns="http://www.w3.org/2000/svg" viewBox="0 0 864 864">
    <defs>
        <style>
            .sulzneri-1{fill:#aab58c;}.sulzneri-2{fill:#1d342a;}.sulzneri-3{fill:#638756;}.sulzneri-4{fill:#8fa4a5;}.sulzneri-5{fill:#395a42;}.sulzneri-6{fill:#60914d;}.sulzneri-7{fill:#73a17f;}.sulzneri-8{fill:#80aba7;}.sulzneri-9{fill:#7ba481;}.sulzneri-10{fill:#7faa9f;}.sulzneri-11{fill:#810704;}.sulzneri-12{fill:#e34702;}.sulzneri-13{fill:#ffd0b9;}.sulzneri-14{fill:#b91a06;}
        </style>
    </defs>
    <title>rubiaceae</title>
        <g id="p_sulzneri_flower"><g id="flower"><circle class="sulzneri-1" cx="432" cy="433" r="432"/><path id="stem-2" data-name="stem" class="sulzneri-2" d="M470.52,382s1.23,29.42-17.93,63.94c0,0-25.67,84-11.13,130.08,0,0,49.51,126.75,58.82,141.21s40.5,63.14,50.12,58.53c0,0,5.83-6.59,1.29-21,0,0-5.91-18.7-27.56-37.17,0,0-31.95-61.11-46-105.7,0,0-35.87-90.09-4-147.21,9.42-9.43,5.87-11.51,5.5-11.47s-13.31,8.64-13.31,8.64-6.84,5.65,2.17-20.92c0,0,18.78-36.78,17.68-44.74,0,0-.43-19.38,11.47-32.56l-9.54-1-8.13,17.87s-3,4.74-6.07-10.1Z"/><g id="leaves-2" data-name="leaves"><path class="sulzneri-3" d="M476.59,328.06s-37.94-9.9-45.86-27.85c0,0-23.56-16.37-22-30.85,0,0-13.41-12.78-11.28-26.5,0,0-9.93-13.58-8-26,0,0-3.13-27.25.45-37.4,0,0,.79-26.64,15.42-30.39,0,0,7-6.27,9.49-26.63,0,0,.52-22.51,35.1-55.18C397.58,179.65,476.59,328.06,476.59,328.06Z"/><path class="sulzneri-2" d="M476.59,328.06s-37.94-9.9-45.86-27.85c0,0-23.56-16.37-22-30.85,0,0-13.41-12.78-11.28-26.5,0,0-9.93-13.58-8-26,0,0-3.13-27.25.45-37.4,0,0,.79-26.64,15.42-30.39,0,0,7-6.27,9.49-26.63,0,0,1-32.62,62.07-76.68,0,0,10.44-4.73-14.52,18.16,0,0-33,49.07-25.72,101.05,0,0,17.93,18.17,12.92,37.47,0,0,10.24,11.62,2.78,33.88a29.83,29.83,0,0,1,11.23,22.48s11.8,5.85,8.26,28.71c0,0-2.09,17.75,6.5,27.11,0,0,25.31,18,9.08,14.79Z"/><path class="sulzneri-4" d="M476.59,328.06s-37.94-9.9-45.86-27.85c0,0-23.56-16.37-22-30.85,0,0-13.41-12.78-11.28-26.5,0,0-9.93-13.58-8-26,0,0-3.13-27.25.45-37.4,0,0,.79-26.64,15.42-30.39,0,0,7-6.27,9.49-26.63,0,0,.52-22.51,35.1-55.18C397.58,179.65,476.59,328.06,476.59,328.06Z"/><path class="sulzneri-2" d="M476,45.28s-59,43.33-44.43,79.23l6.37,1s14.49-62,37-73.45c0,0,4.61-6.21,4.14-6.29C479.05,45.76,478.23,43.63,476,45.28Z"/><path class="sulzneri-5" d="M437.31,165.07s-12-4.54-9.23-18.16c0,0,2.93-10.25,2.84-18.29,0,0,2-17.25,10.14-17.91C441.06,110.71,431.8,148.83,437.31,165.07Z"/><path class="sulzneri-2" d="M418.31,283.22s16.16,16.56,45.21,19.06c0,0-2-8.34-15.21-9.72a74.16,74.16,0,0,1-19.95-5.1S423.08,282.63,418.31,283.22Z"/><path class="sulzneri-2" d="M406.12,262.6s13.49,20.83,50.08,26.5A122.91,122.91,0,0,0,434.35,279a41.24,41.24,0,0,1-19.59-11.73S406.58,255.31,406.12,262.6Z"/><path class="sulzneri-2" d="M451.94,277.74s-43-13.37-57.23-39.33c0,0-1.77-7.29,6.16,2,0,0,18.62,22.29,43.29,31.47C444.16,271.85,452.55,273.82,451.94,277.74Z"/><path class="sulzneri-2" d="M447.44,263.66s-44.61-23-49-33.69c0,0,4.62,4.73,13.46,8.11C411.93,238.08,445.18,256.62,447.44,263.66Z"/><path class="sulzneri-2" d="M442.13,246.11S399,226.7,392.07,202.21c0,0,.51-3.26,5.27,4.83,0,0,11.84,18.57,31.18,27.59C428.52,234.63,442.39,240.13,442.13,246.11Z"/><path class="sulzneri-2" d="M436,225.09s-40-26.94-41.61-46.6c0,0,.91-5.88,5.27,4.83,0,0,7.43,12.53,15.87,18.52C415.55,201.84,436,221.07,436,225.09Z"/><path class="sulzneri-2" d="M434.8,202.82s-25.36-22-24-30.49c0,0,1.62-10.46,0-12.72,0,0,5.48,3.53,3.86,14,0,0,1.25,4.88,7.82,9.91C422.4,183.5,435.3,199.55,434.8,202.82Z"/><path class="sulzneri-2" d="M447.71,249s10.36-6.42,4-12.76c0,0-4.27-2.67-5.58,5.82C446.11,242,442.48,248.17,447.71,249Z"/><path class="sulzneri-2" d="M451.05,266.23s11.27-3.61,10.78-13.39c0,0-.59-9.12-5.83-1.24C456,251.6,447.84,261,451.05,266.23Z"/><path class="sulzneri-2" d="M444.16,233s8.67-21.4,4.76-30.71c0,0-6.35,15.08-9.17,16C439.75,218.31,440.24,232.43,444.16,233Z"/><path class="sulzneri-2" d="M468.64,312.44s-5.17-5.48-16.38-6.55c0,0-13.72-2.13-18.44-6.21C433.82,299.68,437.32,311.6,468.64,312.44Z"/><path class="sulzneri-2" d="M431.52,172.2s-21-24-11.7-54c0,0,5.24-7.88,3.11,5.84,0,0-2.79,22.31,3.63,32.67C426.56,156.71,431.88,165.57,431.52,172.2Z"/><path class="sulzneri-3" d="M419.73,485.66s-48.69,1.44-63.27,21c0,0-33.07,13.27-35.19,31.23,0,0-19.78,11.75-21,29,0,0-15.8,13.68-16.92,29.25,0,0-11.37,32.12-9.86,45.41,0,0-6.45,32.47,10.22,41.08,0,0,6.73,9.54,4.08,34.88,0,0-5.62,27.41,27.17,76.58C282.81,643.39,419.73,485.66,419.73,485.66Z"/><path class="sulzneri-2" d="M419.73,485.66s-48.69,1.44-63.27,21c0,0-33.07,13.27-35.19,31.23,0,0-19.78,11.75-21,29,0,0-15.8,13.68-16.92,29.25,0,0-11.37,32.12-9.86,45.41,0,0-6.45,32.47,10.22,41.08,0,0,6.73,9.54,4.08,34.88,0,0-7.8,39.79,53.85,110.1,0,0,11.32,8.64-12.54-26,0,0-26.36-68.6-3-129.51,0,0,26.75-17,26.06-41.77,0,0,15.63-11.23,12.78-40.26a37.1,37.1,0,0,0,19.85-24.1s15.92-3.79,18-32.47c0,0,2.41-22.06,15.4-31,0,0,35.65-14.73,15.11-15.38Z"/><path class="sulzneri-4" d="M419.73,485.66s-48.69,1.44-63.27,21c0,0-33.07,13.27-35.19,31.23,0,0-19.78,11.75-21,29,0,0-15.8,13.68-16.92,29.25,0,0-11.37,32.12-9.86,45.41,0,0-6.45,32.47,10.22,41.08,0,0,6.73,9.54,4.08,34.88,0,0-5.62,27.41,27.17,76.58C282.81,643.39,419.73,485.66,419.73,485.66Z"/><path class="sulzneri-6" d="M375.9,539.74s-55.74,4.23-80.23,31.7c0,0-4.17,8.35,8-.66,0,0,28.75-21.82,61.17-26.07C364.84,544.71,375.55,544.65,375.9,539.74Z"/><path class="sulzneri-7" d="M366.53,555.54s-60.4,15.42-68.66,27.17c0,0,6.91-4.44,18.56-6.07C316.43,576.64,361.85,563.43,366.53,555.54Z"/><path class="sulzneri-8" d="M362.78,573.38s10.76,10.66,1.28,16.56c0,0-5.91,2-5.15-8.6C358.91,581.34,356.22,572.91,362.78,573.38Z"/><path class="sulzneri-9" d="M371.62,553.43s12.64,7.5,9.33,19.2c0,0-3.25,10.88-7.4-.12C373.55,572.51,366.3,558.81,371.62,553.43Z"/><path class="sulzneri-2" d="M340.36,827.88S281,759,308.59,719.6l8,.57s.32,79.09,24.4,99.23c0,0,3.85,8.8,3.26,8.75C344.23,828.15,342.64,830.51,340.36,827.88Z"/><path class="sulzneri-5" d="M326.86,672.09s-15.8,2.16-16.22,19.42c0,0,.69,13.23-1.65,22.94,0,0-2.37,21.44,7.3,24.51C316.29,739,315.67,690.22,326.86,672.09Z"/><path class="sulzneri-2" d="M336.7,523.74s24.18-15.55,60.05-10.5c0,0-4.8,9.54-21.13,7.54a92.7,92.7,0,0,0-25.57.63S342.32,525.8,336.7,523.74Z"/><path class="sulzneri-2" d="M316.21,545.33s22.13-21.47,68-18.17A152.18,152.18,0,0,1,355,533.29a51.34,51.34,0,0,0-27,8.77S314.74,554.28,316.21,545.33Z"/><path class="sulzneri-2" d="M355.23,575.31s-57.65,11.5-72.82,39.23c0,0-.29,4.1,7.73-4.38,0,0,19.49-19.19,45.42-24.74C335.56,585.42,353.88,582.62,355.23,575.31Z"/><path class="sulzneri-2" d="M342,599.06s-55.9,21.51-63.34,44.86c0,0-.53,7.37,7.73-4.39,0,0,12.47-13.1,24.35-18C310.73,621.52,340.82,603.92,342,599.06Z"/><path class="sulzneri-2" d="M334.31,625.69s-36.82,19.58-37.58,30.23c0,0-.94,13.11-3.58,15.39,0,0,7.61-2.74,8.55-15.85,0,0,2.87-5.56,12.24-9.83C313.94,645.63,334,629.78,334.31,625.69Z"/><path class="sulzneri-2" d="M354.05,591.69s4.55,28.33-2.77,38.51c0,0-3.5-20-6.66-21.89C344.62,608.31,349.13,591.34,354.05,591.69Z"/><path class="sulzneri-2" d="M405.77,502.36s-7.79,5.2-21.66,3.38c0,0-17.2-1.23-24.05,2.39C360.06,508.13,367.61,494.67,405.77,502.36Z"/><path class="sulzneri-2" d="M321.83,661.85S289.69,685.06,292.66,724c0,0,4.15,11,5.38-6.2,0,0,2.83-27.8,13.48-38.56C311.52,679.22,320.42,670,321.83,661.85Z"/><path class="sulzneri-2" d="M479.69,390.5s30-85.27,104.43-118.56c0,0,42.63-27.34,86.09,4.63,0,0,7.82,8.61,19.64.08,0,0,6.84-11.41,30,8.33,0,0,30.63,24.06,93.46,35.74,0,0,18.56,5.08,27.78,23.69,0,0,11.37,14-10.74,5.32,0,0-33.51-19.07-49.25-13.06,0,0-83.29,10-92.52-3.22,0,0-19,10.28-31.45,3.09a27.52,27.52,0,0,1-29.31,3.81s-14.68,8.16-35.39,4.15c0,0-6.12,11.05-15,9.23,0,0,11.72,18.27-9.38,24.26l-26.8-.11s-15.71-2.92-14,6c0,0,2.11,9.65-33.2-5.85,0,0-4.62-5.73-7.93,18.19C486.1,396.24,483.2,406.59,479.69,390.5Z"/><path class="sulzneri-5" d="M479.69,390.5s4.69-12.13,10.1-22.83c183.29-96.09,343.41-39.14,351.28-23.26,0,0,11.37,14-10.74,5.32,0,0-33.51-19.07-49.25-13.06,0,0-83.29,10-92.52-3.22,0,0-19,10.28-31.45,3.09a27.52,27.52,0,0,1-29.31,3.81s-14.68,8.16-35.39,4.15c0,0-6.12,11.05-15,9.23,0,0,11.72,18.27-9.38,24.26l-26.8-.11s-15.71-2.92-14,6c0,0,2.11,9.65-33.2-5.85,0,0-4.62-5.73-7.93,18.19C486.1,396.24,483.2,406.59,479.69,390.5Z"/><path class="sulzneri-4" d="M575.68,330.5s20.52-39.57,38.07-52.72c0,0,6.12-11-16.81,5.65,0,0-28.69,26.68-36.65,52C560.29,335.44,557.06,339.72,575.68,330.5Z"/><path class="sulzneri-4" d="M556,337.57s5.47-28.56,36.31-58.09A160.55,160.55,0,0,1,625,261.06s-13.63-2.59-33.7,12.7c0,0-39.77,29.49-45.62,62.7C545.64,336.46,544.2,340.74,556,337.57Z"/><path class="sulzneri-4" d="M564.76,290.44s-32.3,37.39-28.41,47.05c0,0,3.54,7.16,5.69,6.1,0,0,1.07.36,1.45-6.07,0,0,5.47-26.77,22-43.86C565.46,293.66,568.7,287.6,564.76,290.44Z"/><path class="sulzneri-4" d="M599.64,323.09s25.89-41.34,64.82-40.11c0,0,11.08.76-6.11,9.26,0,0-35.79,17.72-37.62,28.44C620.73,320.68,594.62,327.36,599.64,323.09Z"/><path class="sulzneri-4" d="M592.49,324.85S578.9,328,588.59,317c0,0,25.86-34.2,48-43.4,0,0,12.53-5.31,6.42,3.95,0,0-8.25,8.55-16.84,12.8,0,0-24.71,13.12-30.14,32.75A5.56,5.56,0,0,1,592.49,324.85Z"/><path class="sulzneri-4" d="M639,316.1s-3.2-4.65,16.5-17.08c0,0,29.37-18.1,31.12-10.95,0,0-2.16,4.63-20,9.92a36.29,36.29,0,0,0-17.21,13.87S643.6,320.05,639,316.1Z"/><path class="sulzneri-4" d="M659,315.11s17.24-22.8,52.27-29.45c0,0,10,.4,10.34,6.48,0,0,1.06,2.14-7.17,5.33,0,0-17.53,7.79-21.13,14.92,0,0-1.09,3.21-17.87,1.71C675.42,314.1,666.13,313.35,659,315.11Z"/><path class="sulzneri-4" d="M696.49,315.26s120,10.12,134.93,29.47c0,0,4.62,5.73-4.65,1.41,0,0-26.37-17.25-52.48-10.57,0,0-63.27,9-76.07-6C698.22,329.56,690.78,314.52,696.49,315.26Z"/><path class="sulzneri-4" d="M627.82,335a18.46,18.46,0,0,0,20.36-.27s2.87-3.21,4.65.37c0,0,1.77,1.8-4.67,5,0,0-12.16,4.23-21.78-2.59C626.38,337.49,624.25,333.19,627.82,335Z"/><path class="sulzneri-4" d="M594.57,339.86s17.84,5.43,26.09-1.32c0,0,4.29-2.13,2.13,2.51,0,0-15.39,8.51-30.73.95C592.06,342,589.58,338.77,594.57,339.86Z"/><path class="sulzneri-4" d="M551.5,301.47s-23,27.42-21.62,44.57c0,0-.37,4.64-3.55-5.37,0,0-.68-8.58,11.17-24.25C537.5,316.42,552.94,297.19,551.5,301.47Z"/><path class="sulzneri-4" d="M519.5,352.07a66.57,66.57,0,0,1,7.24-23.19s1.81-7.14-7.18,7.12c0,0-5.75,8.19-1.49,16.78C518.07,352.78,518.78,354.21,519.5,352.07Z"/><path class="sulzneri-2" d="M471.12,458.55s63.88-47.71,134.77-35.5c0,0,44.67.92,60.78,45.71,0,0,1.51,10.15,14.36,9.71,0,0,10.61-5,17.86,20.84,0,0,10.61,32.68,50.89,72.13,0,0,11.1,12.84,8.7,31,0,0,1.46,15.83-10.48-1.38,0,0-15.17-30.44-29.66-33.78,0,0-65.93-33.59-66.18-47.84,0,0-19-1.79-24.56-13.2a24.27,24.27,0,0,1-23.35-11.61s-14.76-1.24-28-14.36c0,0-9.92,5.09-15.56-.63,0,0-.4,19.14-18.8,13.15l-19.57-13.25s-10.07-9.86-13.18-2.45c0,0-3.21,8.11-21.45-20.61,0,0-.57-6.47-14.75,9.43C473,465.91,465.78,472.06,471.12,458.55Z"/><path class="sulzneri-5" d="M471.12,458.55s9.4-6.57,18.61-11.75c181.51,19.71,270.8,140.14,268.75,155.64,0,0,1.46,15.83-10.48-1.38,0,0-15.17-30.44-29.66-33.78,0,0-65.93-33.59-66.18-47.84,0,0-19-1.79-24.56-13.2a24.27,24.27,0,0,1-23.35-11.61s-14.76-1.24-28-14.36c0,0-9.92,5.09-15.56-.63,0,0-.4,19.14-18.8,13.15l-19.57-13.25s-10.07-9.86-13.18-2.45c0,0-3.21,8.11-21.45-20.61,0,0-.57-6.47-14.75,9.43C473,465.91,465.78,472.06,471.12,458.55Z"/><path class="sulzneri-4" d="M570.92,461.79s34.49-18.9,53.81-19.9c0,0,9.91-5.09-15.09-4.13,0,0-34.13,5.44-52.42,20.09C557.22,457.85,552.75,459.39,570.92,461.79Z"/><path class="sulzneri-4" d="M553,457.29s18.05-18.23,55.16-24.7a141.63,141.63,0,0,1,33,2.56s-8.72-8.59-30.93-7.26c0,0-43.63,2.05-64.24,23.5C546,451.39,542.83,453.81,553,457.29Z"/><path class="sulzneri-4" d="M582.61,427.08s-42,11.51-43.93,20.5c0,0-.93,7,1.17,7.26,0,0,.61.79,4-3.73,0,0,17.16-16.93,37.65-21.33C581.55,429.78,586.9,426.94,582.61,427.08Z"/><path class="sulzneri-4" d="M592.12,468.14s39.28-17.55,67.2,2.49c0,0,7.74,6-9,3.78,0,0-34.93-4.62-41.54,2.33C608.75,476.74,586.34,468.8,592.12,468.14Z"/><path class="sulzneri-4" d="M586,465.92s-11.51-4.37,1-7.69c0,0,35.75-12.34,56.52-8.17,0,0,11.79,2.27,2.76,6.05,0,0-10.24,2.2-18.63,1.1,0,0-24.54-2.54-38.17,9.17A4.93,4.93,0,0,1,586,465.92Z"/><path class="sulzneri-4" d="M624.36,482.36s-.05-5,20.48-4.4c0,0,30.41,1.17,28.19,7.27,0,0-3.87,2.34-19.57-2.58a31.93,31.93,0,0,0-19.41,1.7S625.81,487.52,624.36,482.36Z"/><path class="sulzneri-4" d="M639.5,491.47s23.84-8.23,52.77,4.13c0,0,7.13,5.2,4.39,9.82,0,0-.28,2.09-7.87.38,0,0-16.67-2.92-22.82.54,0,0-2.37,1.82-13.93-7.53C652,498.81,645.61,493.69,639.5,491.47Z"/><path class="sulzneri-4" d="M666.91,510s82.92,66.4,84.35,87.91c0,0,.56,6.48-4.1-1.25,0,0-10.84-25.6-33.25-33.54,0,0-50.79-24.48-52.76-41.8C661.15,521.34,663.09,506.67,666.91,510Z"/><path class="sulzneri-4" d="M629.46,502.93s4.41-6.52,15.18,3.43c0,0,13.84,8.23,7.1,10.89,0,0-12.25,1.23-22.74-10.82C629,506.43,627.88,504.15,629.46,502.93Z"/><path class="sulzneri-4" d="M606.9,490.71A16.31,16.31,0,0,0,622,500.52s3.68-.93,3.21,2.56c0,0,.43,2.19-5.86,1.36,0,0-11-2.88-14.69-12.61C604.62,491.83,605.18,487.64,606.9,490.71Z"/><path class="sulzneri-4" d="M580.16,477.94s10.4,12.75,19.76,11.85c0,0,4.19.55.33,2.89,0,0-15.47-1.34-23-14.41C577.27,478.27,577,474.68,580.16,477.94Z"/><path class="sulzneri-4" d="M532.24,480.14s9.84,6.27,17.47,2.3c0,0,7.63-4,3.54,5.45,0,0-4.14,8.51-14.55,1.9L516,473.73s-3.73-4.05,1.86-3.31C517.89,470.42,524.69,472.74,532.24,480.14Z"/><path class="sulzneri-4" d="M567.48,428.64s-30.31,8.79-37.74,22c0,0-2.56,3.22,0-5.68,0,0,3.72-6.62,20.1-12.27C549.88,432.71,570.64,426.21,567.48,428.64Z"/><path class="sulzneri-4" d="M519.17,450a58.83,58.83,0,0,1,16.7-13.43s4.84-4.33-8.75,1.69c0,0-8.24,3.18-9.35,11.56C517.77,449.79,517.58,451.19,519.17,450Z"/><path class="sulzneri-2" d="M475.89,390.48s-2.73-74.41-53.15-118.82c0,0-26.84-31.93-68.86-17.42,0,0-8.26,4.86-15.47-4.74,0,0-2.59-10.65-25.63-.78,0,0-30,11.43-82.27,5.25,0,0-15.84-.55-27.64,11.84,0,0-12.37,8.22,7.14,6.81,0,0,31-6.8,42,1.78,0,0,63.06,28.27,73.57,20.1,0,0,12.41,12.73,24,10.13a22.65,22.65,0,0,0,22.12,10.17s9.56,10,26.83,11.92c0,0,2.11,10.19,9.57,10.94,0,0-13.69,11.5,1.45,21.38l21.11,6.47s13.07,1.55,9.5,8.15c0,0-4,7.08,27.56,3.52,0,0,5-3.38,1.79,16.25C469.45,393.43,469.19,402.28,475.89,390.48Z"/><path class="sulzneri-5" d="M475.89,390.48s-.72-10.69-2.35-20.42c-120.7-120.45-260.6-114.82-270.67-104.25,0,0-12.37,8.22,7.14,6.81,0,0,31-6.8,42,1.78,0,0,63.06,28.27,73.57,20.1,0,0,12.41,12.73,24,10.13a22.65,22.65,0,0,0,22.12,10.17s9.56,10,26.83,11.92c0,0,2.11,10.19,9.57,10.94,0,0-13.69,11.5,1.45,21.38l21.11,6.47s13.07,1.55,9.5,8.15c0,0-4,7.08,27.56,3.52,0,0,5-3.38,1.79,16.25C469.45,393.43,469.19,402.28,475.89,390.48Z"/><path class="sulzneri-4" d="M415.06,319.8S408.6,283.64,398,269c0,0-2.11-10.19,11.85,8.56,0,0,16,28,16.1,49.89C426,327.45,427.45,331.6,415.06,319.8Z"/><path class="sulzneri-4" d="M428.81,330.17s2.68-23.8-14.36-54.58a131.68,131.68,0,0,0-21.18-22.48s11.36,1.3,23.41,18.24c0,0,24.07,32.93,20.55,60.48C437.23,331.83,437.32,335.55,428.81,330.17Z"/><path class="sulzneri-4" d="M433.45,291s16.26,37.31,10.84,44c0,0-4.54,4.77-6,3.4,0,0-.93,0,.34-5.13,0,0,2.25-22.4-6.55-39.87C432.11,293.32,431,287.76,433.45,291Z"/><path class="sulzneri-4" d="M398,308.11s-10.25-38.86-41.19-47.42c0,0-8.89-2.11,2.54,8.78,0,0,23.83,22.7,22.65,31.58C382,301.05,400.92,312.69,398,308.11Z"/><path class="sulzneri-4" d="M403.21,311.24s9.92,5.81,5-5.24c0,0-12-33.23-27.18-45.9,0,0-8.56-7.24-6,1.55,0,0,4.4,8.74,10.12,14.18,0,0,16.23,16.37,15.7,33.14A4.54,4.54,0,0,0,403.21,311.24Z"/><path class="sulzneri-4" d="M368.79,293s3.65-2.88-8.81-17.48c0,0-18.67-21.43-21.8-16.23,0,0,.56,4.18,13.34,12.71a29.88,29.88,0,0,1,10.14,15.12S364.18,295,368.79,293Z"/><path class="sulzneri-4" d="M353.29,287.31s-8-22.15-33.93-35.95c0,0-8-2.14-9.71,2.56,0,0-1.36,1.43,4.33,6,0,0,11.89,10.41,13,16.91,0,0,.07,2.79,13.64,5.72C340.6,282.5,348.09,284.18,353.29,287.31Z"/><path class="sulzneri-4" d="M323.74,278.25s-96.88-21.4-113.36-9.82c0,0-5,3.38,3.31,2.24,0,0,25-7.12,43.87,4.53,0,0,47.57,22.59,61.32,13.88C318.88,289.08,328.41,279.07,323.74,278.25Z"/><path class="sulzneri-4" d="M350.83,301.34s2.16-7-11.39-9c0,0-14.09-5.24-12.07,1.22,0,0,6.28,9.63,21.19,10.2C348.56,303.72,350.88,303.2,350.83,301.34Z"/><path class="sulzneri-4" d="M372.94,310.58a15.24,15.24,0,0,1-16-5.2s-1.47-3.23-3.74-.84c0,0-1.84,1,2.45,5.06,0,0,8.53,6.31,17.77,3.29C373.46,312.89,376.18,310,372.94,310.58Z"/><path class="sulzneri-4" d="M397.9,322.54s-15.36-.09-20.2-7.42c0,0-2.86-2.73-2.29,1.45,0,0,10,10.46,23.94,8.26C399.35,324.83,402.1,322.91,397.9,322.54Z"/><path class="sulzneri-4" d="M424.38,358.68s-10.33-3.48-11.91-11.35c0,0-1.59-7.88-6,.61,0,0-3.76,8,7.15,11.7l25,7.08s5.13.34,1.32-3.3C439.86,363.42,434.18,359.84,424.38,358.68Z"/><path class="sulzneri-4" d="M441.18,302.87s11.37,27.19,6.1,40.36c0,0-.84,3.74,4.11-3.36,0,0,2.63-6.58-2.86-21.81C448.53,318.06,441.09,299.15,441.18,302.87Z"/><path class="sulzneri-4" d="M454,350.51a54.81,54.81,0,0,0,0-20s.32-6.06,3.9,7.35c0,0,2.52,7.85-2.93,13.57C454.93,351.42,454,352.37,454,350.51Z"/><path class="sulzneri-3" d="M435,554.54s-44.9,47.89-77.65,45.18c0,0-42.92,21.56-62.95,7.67,0,0-29.53,9.49-48-4.61,0,0-27.93,3.75-44.65-9,0,0-42.59-17.18-54.66-30.57,0,0-38.56-22.47-32.37-47,0,0-3.64-15.31-31.59-35.25,0,0-32.7-18.78-53.1-95.79C153.53,552.06,435,554.54,435,554.54Z"/><path class="sulzneri-2" d="M435,554.54s-44.9,47.89-77.65,45.18c0,0-42.92,21.56-62.95,7.67,0,0-29.53,9.49-48-4.61,0,0-27.93,3.75-44.65-9,0,0-42.59-17.18-54.66-30.57,0,0-38.56-22.47-32.37-47,0,0-3.64-15.31-31.59-35.25C83.16,481,36,453.32,20,328.3c0,0,1.38-19.14,15.09,35.89,0,0,45.76,87.84,128.09,118.65,0,0,41.06-11.83,65.45,11,0,0,25.29-5.77,52.06,23a50,50,0,0,1,42.06,1.46s18-12.69,48.84,10.82c0,0,24.43,17.25,45.07,12.11,0,0,46.69-22.85,29-1.52Z"/><path class="sulzneri-4" d="M435,554.54s-44.9,47.89-77.65,45.18c0,0-42.92,21.56-62.95,7.67,0,0-29.53,9.49-48-4.61,0,0-27.93,3.75-44.65-9,0,0-42.59-17.18-54.66-30.57,0,0-38.56-22.47-32.37-47,0,0-3.64-15.31-31.59-35.25,0,0-32.7-18.78-53.1-95.79C153.53,552.06,435,554.54,435,554.54Z"/><path class="sulzneri-8" d="M295.61,533.77S294.46,513.39,280,517.7c0,0-7.35,4.15,4.1,12.88C284.13,530.58,290.24,540.81,295.61,533.77Z"/><path class="sulzneri-9" d="M323.66,542.64s3.7-19.45-11.07-26.55c0,0-13.9-6.43-6.49,7.59C306.1,523.68,313.47,543.22,323.66,542.64Z"/><path class="sulzneri-10" d="M269.33,526.25S244.78,496.37,228,494.68c0,0,17.1,21.4,16.17,26.26C244.13,520.94,265.3,531.53,269.33,526.25Z"/><path class="sulzneri-5" d="M163.86,482s-16.28,14-34.09-.95c0,0-12.74-12.51-24.64-18.81,0,0-23.77-16.74-18.24-29.24C86.89,433,135.56,477.07,163.86,482Z"/><path class="sulzneri-2" d="M322.47,604.41s37.29-10.53,64.21-51.27c0,0-13.92-3.66-26.48,14.61A124.73,124.73,0,0,1,336.74,593S325.42,596.91,322.47,604.41Z"/><path class="sulzneri-2" d="M282.39,605.85s41.43-3.2,79-52.48a205,205,0,0,0-32.31,24.08,69.16,69.16,0,0,1-32.93,19.43S272,599.34,282.39,605.85Z"/><path class="sulzneri-2" d="M341.31,550.54s-54,52.53-103.63,52.74c0,0-12.15-3.23,7.81-7.49,0,0,47.69-9.56,80.92-38.51C326.41,557.28,336,546.51,341.31,550.54Z"/><path class="sulzneri-2" d="M317,545.91S247.51,593.15,228.26,591c0,0,10.66-3,22.7-13.32C251,577.68,304.83,543.59,317,545.91Z"/><path class="sulzneri-2" d="M286.93,539.68s-63.07,48-104.62,38.53c0,0-4.4-3.36,11.33-3.89,0,0,36.78-2.57,65.52-23.8C259.16,550.52,278.34,534.51,286.93,539.68Z"/><path class="sulzneri-2" d="M251.12,531.85s-71.61,37.26-101.83,23.94c0,0-7.92-6,11.32-3.89,0,0,24.37-.9,39.93-8.52C200.54,543.38,245.17,528.7,251.12,531.85Z"/><path class="sulzneri-2" d="M217.38,515.84s-52.64,19.71-64.08,11c0,0-14.08-10.75-18.74-10.12,0,0,9.57-5.24,23.65,5.51,0,0,8.17,2.06,20.84-3.59C179.05,518.62,213,512.49,217.38,515.84Z"/><path class="sulzneri-2" d="M405.71,553.74S393.51,557,383,572.59c0,0-14.11,18.48-23.88,22.17C359.09,594.76,379.42,599.13,405.71,553.74Z"/><path class="sulzneri-2" d="M169.72,496.18s-52.13,11.74-88.79-26c0,0-7.41-14,11.07.09,0,0,30.59,22,51,20.8C143,491.08,160.25,490.34,169.72,496.18Z"/></g><g id="berries"><path class="sulzneri-2" d="M442.5,521.22S449,506.65,429.62,500c-49.51-17-146.27-61.34-208-162.22,0,0-3.1-17.4,24.36,13.61,0,0,84.73,103.24,192.83,135.47,9.33,2.79,8.66-4.17,9.48-5.75C448.31,481.13,475.71,531.26,442.5,521.22Z"/><path class="sulzneri-2" d="M409.19,486.43s-29.52,2.26-35.48,10.81c0,0-3.37-13.37,28.3-17.51Z"/><path class="sulzneri-11" d="M355.63,484.39s-3.53,9.86-15.6,6.83c0,0-11-2.45-11.33-11.29,0,0-2.48-12.74,8-14.16C336.74,465.77,356.7,461.25,355.63,484.39Z"/><path class="sulzneri-12" d="M348.65,488.38a8.8,8.8,0,0,1-1-5.54s2.37-7.67-3.62-11.12c0,0-7.63-4-8.32,2,0,0,.37,8.28-1.87,9.88,0,0-2.31,2.75,2.87,6.43,0,0,5.91,2.23,9.16,1.66C345.89,491.72,352.46,490.67,348.65,488.38Z"/><path class="sulzneri-13" d="M338.82,483.75s5.54-1,3.44-6c0,0-1.59-2.79-3.31-.07C339,477.68,336.06,483.68,338.82,483.75Z"/><path class="sulzneri-14" d="M346.06,472.3s-18.14,6.15-20.81-11.46c0,0,1.61-14.59,10-15.1,0,0,19.76-1.16,17.65,12.76C352.89,458.5,351.57,467.2,346.06,472.3Z"/><path class="sulzneri-12" d="M332.63,451.28s-8.63,10,.38,13.11c0,0,12.5,3.67,14.22-3.78,0,0,1.06-7-8.05-9.53C339.18,451.08,337.53,450.24,332.63,451.28Z"/><path class="sulzneri-13" d="M336.25,454.79s-1,2.81,1.88,3.25c0,0,3.39,1.11,3.74-1.21,0,0,.26-1.74-3.71-2.93C338.16,453.9,336.51,453.05,336.25,454.79Z"/><path class="sulzneri-11" d="M301.08,436.8s-1.3-13.28,11.07-12.3c0,0,9.64,3.41,8.65,9.18,0,0-2.34,13.58-11.45,9.95C309.35,443.63,303.66,441.35,301.08,436.8Z"/><path class="sulzneri-12" d="M317.46,431s-5.39-7.44-8.95-1.82c0,0-4.47,7.89.31,10.24,0,0,4.55,1.82,7.74-3.95C316.56,435.5,317.39,434.52,317.46,431Z"/><path class="sulzneri-13" d="M314.51,432.92a1.62,1.62,0,0,0-2.51.76s-1.29,2.13.23,2.74c0,0,1.14.45,2.58-2.05C314.81,434.37,315.64,433.38,314.51,432.92Z"/><path class="sulzneri-14" d="M339.05,425.24s2.16-6.6,13.44-4.89c0,0,10.08,2.1,11.39,8.65,0,0,2,9.54-4.95,13.68,0,0-9.63,2.59-15.41-1.18a11.76,11.76,0,0,1-6.64-11.74A17.19,17.19,0,0,1,339.05,425.24Z"/><path class="sulzneri-12" d="M342,425.1s7.63-4.62,16.54,1.35a6.71,6.71,0,0,1,1.45,9.46s-3.42,3.52-11.63.55c0,0-4.51-.69-5.73-.29,0,0-4.29,1.66-3.91-4.64C338.68,431.53,339.44,426.45,342,425.1Z"/><path class="sulzneri-13" d="M354.12,428.68s-2.86,3.6,1.49,5.42a3.36,3.36,0,0,0,3.9-2.88S358,425.8,354.12,428.68Z"/><path class="sulzneri-14" d="M237.78,414.17s-7.62.14-9.73-9.56A20.76,20.76,0,0,1,232,390.23s6.36-5.94,12.74-2.44a16.88,16.88,0,0,1,6.93,13.48s-.56,10.57-8.7,12.4Z"/><path class="sulzneri-13" d="M242.71,403.24s-4.83,0-2.57-3.17a3,3,0,0,1,3.58-.23s4.64,1.2,3.35,3C247.07,402.87,245.65,403.93,242.71,403.24Z"/><path class="sulzneri-13" d="M243.76,411.51s4.23-1.14,1.34-3.86a5.28,5.28,0,0,0-5.66,2.21S239.53,412.66,243.76,411.51Z"/><path class="sulzneri-11" d="M280.9,406.44s5.6,5.07,15.78.77c0,0,9.09-7.65,3.59-16.95,0,0-4.61-8.11-13-8.83,0,0-4-1.65-10.23,11.72C277.06,393.15,273,399.42,280.9,406.44Z"/><path class="sulzneri-12" d="M287.07,404.18s8.5,3.39,10.54-3.19c0,0,.85-5.7-2.9-8.91,0,0-6.28-4.12-9.77-2,0,0-5.67,6-2,9.76Z"/><path class="sulzneri-13" d="M290.41,403.09s4.82-.34,4.77-3.53c0,0-1.09-3.34-2.13-3.49,0,0,1-3-1.84-1.87,0,0-2.38,1.77-.39,2.59l1,.16S287.22,403.14,290.41,403.09Z"/><path class="sulzneri-14" d="M257.76,387.55s-8.2,1.42-7.48,11.29c0,0,.42,8.94,7.3,10.42,0,0,9.64,3.68,12.19-4.36C269.77,404.9,276,389.87,257.76,387.55Z"/><path class="sulzneri-12" d="M253.68,392.48a7,7,0,0,0,4.21,1.52s6.34-.81,8.22,4.35c0,0,2.11,6.53-2.72,6.25,0,0-6.45-1.42-8,.11,0,0-2.47,1.43-4.64-3.13,0,0-1-4.93-.05-7.4C250.69,394.18,252.41,389.18,253.68,392.48Z"/><path class="sulzneri-13" d="M256,400.81s1.53-4.21,5.17-1.88c0,0,2,1.63-.4,2.6C260.74,401.53,255.64,403,256,400.81Z"/><path class="sulzneri-14" d="M296.52,407.39s-.47,10.92,12.41,12.74c0,0,11.59,2,15.41-6.45,0,0,7.41-11.36-2.2-16.88C322.14,396.8,304.6,384.57,296.52,407.39Z"/><path class="sulzneri-12" d="M301.71,414a9.26,9.26,0,0,0,3.13-5s.72-8.36,7.87-9.33c0,0,9-.9,7.26,5.23,0,0-3.62,7.87-2.08,10.31,0,0,1.15,3.56-5.31,5.09,0,0-6.6-.17-9.52-2C303.06,418.31,297.12,414.71,301.71,414Z"/><path class="sulzneri-13" d="M313,413.38s-5-3.13-1-7.16c0,0,2.64-2.07,3.23,1.24C315.3,407.46,315.74,414.41,313,413.38Z"/><path class="sulzneri-14" d="M369.66,472.46s8.73,11.12,22.9,2.1c0,0,13-7.82,9.71-19.29,0,0-2.26-17.39-16.34-14.73C385.93,440.54,358.43,443.26,369.66,472.46Z"/><path class="sulzneri-12" d="M380.31,474.59s.85-4.26-1.1-7.52c0,0-6.32-8.81-.11-15.78,0,0,8.06-8.42,11.52-1,0,0,3.06,10.77,6.62,11.87,0,0,4.13,2.53-.94,9.46,0,0-6.62,5.38-11,6C385.27,477.7,376.41,479.15,380.31,474.59Z"/><path class="sulzneri-13" d="M390.93,464.46s-7.52,1.11-7-6.21c0,0,.85-4.25,4.21-1.5C388.17,456.75,394.44,463.21,390.93,464.46Z"/><path class="sulzneri-14" d="M264,360.16s-1,6.87,7.54,12.4c0,0,10.49,3,14.74-6,0,0,3.8-7.68,0-14.43,0,0-.79-3.88-14.18-1.75C272.17,350.4,265.28,350.49,264,360.16Z"/><path class="sulzneri-12" d="M268.92,363.69s1.8,8.21,7.86,6.38c0,0,4.77-2.28,5.28-6.79,0,0-.09-6.9-3.51-8.46,0,0-7.51-1.21-8.46,3.51Z"/><path class="sulzneri-13" d="M271.47,365.67s2.74,3.5,5.14,1.82c0,0,2-2.55,1.56-3.42,0,0,2.82-.81.48-2.36,0,0-2.57-.91-2.17,1l.41.86S269.79,363.27,271.47,365.67Z"/><path class="sulzneri-14" d="M207.12,342.82s-5.25,4.53-2.48,14.3c0,0,6,9.15,15.05,5.19,0,0,7.91-3.29,9.51-10.84,0,0,2-3.46-9.53-10.65C219.67,340.82,214.42,336.36,207.12,342.82Z"/><path class="sulzneri-12" d="M208.49,348.7s-4.05,7.37,1.72,10c0,0,5.1,1.42,8.45-1.64,0,0,4.46-5.26,2.92-8.69,0,0-4.87-5.85-8.68-2.91Z"/><path class="sulzneri-13" d="M209.1,351.87s-.23,4.43,2.68,4.74c0,0,3.17-.62,3.43-1.54,0,0,2.65,1.23,1.91-1.47,0,0-1.34-2.37-2.32-.65l-.26.93S209.41,349,209.1,351.87Z"/><path class="sulzneri-14" d="M284.24,414.93s-6.58,2.31-4.61,13.61c0,0,2.35,10.06,8.95,11.23,0,0,9.63,1.81,13.63-5.29,0,0,2.37-9.73-1.54-15.44a11.83,11.83,0,0,0-11.95-6.4A17.15,17.15,0,0,0,284.24,414.93Z"/><path class="sulzneri-12" d="M284.17,417.85s-4.47,7.76,1.73,16.57a6.73,6.73,0,0,0,9.53,1.25s3.46-3.52.28-11.69c0,0-.79-4.52-.42-5.75,0,0,1.57-4.35-4.74-3.82C290.55,414.41,285.46,415.3,284.17,417.85Z"/><path class="sulzneri-13" d="M288,430s3.56-3,5.48,1.37a3.37,3.37,0,0,1-2.79,4S285.24,434,288,430Z"/><path class="sulzneri-14" d="M359.92,489.55s-5.75,6.29,2.9,17.31c0,0,8.33,9.49,16.13,6.94,0,0,11.41-3.61,11.61-13.57,0,0-3.06-11.85-10.57-15.75a14.44,14.44,0,0,0-16.56,0A21.07,21.07,0,0,0,359.92,489.55Z"/><path class="sulzneri-12" d="M361.53,492.73s-.32,10.94,11.44,16.85a8.23,8.23,0,0,0,11-4.16s1.7-5.78-6.44-12.75c0,0-3.46-4.41-3.78-5.95,0,0-.82-5.59-7.32-1.38C366.41,485.34,361.45,489.23,361.53,492.73Z"/><path class="sulzneri-13" d="M372.7,503.56s2.13-5.23,6.69-1.68c0,0,2.59,3.3-.71,5.9C378.68,507.78,372,509.47,372.7,503.56Z"/><path class="sulzneri-14" d="M313.73,447.68s.39-7.18-8.67-9.51a19.56,19.56,0,0,0-13.68,3.19s-5.82,5.77-2.75,11.91a15.93,15.93,0,0,0,12.46,7s10-.16,12-7.76Z"/><path class="sulzneri-13" d="M303.26,451.94s.21-4.55-2.9-2.54a2.82,2.82,0,0,0-.34,3.37s1,4.42,2.74,3.27C302.76,456,303.8,454.73,303.26,451.94Z"/><path class="sulzneri-13" d="M311,453.22s-1.23,3.94-3.68,1.12a5,5,0,0,1,2.27-5.25S312.24,449.27,311,453.22Z"/><path class="sulzneri-14" d="M263.15,380.88s-4.24,6.71-14.23,6.57c0,0-11.52-.47-12.73-13.55a14.52,14.52,0,0,1,8.33-12.64s8.81-3.72,15.32,3.28C259.84,364.54,265.72,372.62,263.15,380.88Z"/><path class="sulzneri-12" d="M260.58,377.93s1.25,9.08-12.1,7.82c0,0-8-2.11-6.92-10.7,0,0,1.18-7.36,6.6-10.21,0,0,5.25-2.08,10.37,5.83Z"/><path class="sulzneri-13" d="M252.53,381.81s-3.75,4.41-5.39.85c0,0-.6-.93.79-1.84,0,0,.93-.6-.11-3.22,0,0-2.1-3.26,1.46-4.9,0,0,2.16-.74,2.7,4.18,0,0-.93.61-.19,2.77C251.79,379.65,253.63,380.44,252.53,381.81Z"/><path class="sulzneri-11" d="M342.88,419s-4,8.94-14.06,6.79c0,0-9.76-3.49-8.15-12.6,0,0,2.8-8.16,9.28-10.62,0,0,10.23-2,12.67,6.22C342.62,408.83,345.34,415.72,342.88,419Z"/><path class="sulzneri-12" d="M341.71,416.34s-1.58,7.36-10.86,8.18c0,0-4.16-.2-5-7.73,0,0-.47-4.3,4.52-6.38,0,0,4.05-.89,5.15-2.75,0,0,.71-3.35,4.54,1.67C340.06,409.33,343,413.81,341.71,416.34Z"/><path class="sulzneri-13" d="M332.67,419.3s-1.27,4.28-3.37,1c0,0-1.32-2,.31-3.08,0,0-2.39-1.92,1.53-3.88,0,0,4.71-.74,1.43,3.11l-1.22.79Z"/><path class="sulzneri-14" d="M234.43,333.36s7.22-8.19.41-17.39c0,0-8-8.28-16.53-2.46,0,0-7,6.59-6.49,14.29,0,0,2.67,11.3,12.13,10C224,337.79,232.19,337.38,234.43,333.36Z"/><path class="sulzneri-12" d="M231.15,333.41s6.74-5,3.29-14.77c0,0-2.1-4.13-10.13-1.51,0,0-4.58,1.5-4.39,7.52,0,0,1,4.5-.42,6.48,0,0-3.07,2.27,3.79,3.84C223.29,335,229.15,335.84,231.15,333.41Z"/><path class="sulzneri-13" d="M230,322.88s3.75-3.25-.51-3.89c0,0-2.67-.4-3,1.74,0,0-3-1.55-3.22,3.33,0,0,1.41,5.12,3.81,0l.24-1.6Z"/><path class="sulzneri-14" d="M255.07,416.58s-.68,10.89,10.33,14c0,0,11.42,1.62,14.58-8.19,0,0,1.47-9.48-3.63-15.27,0,0-9-7.29-15.72-.46C260.63,406.65,254.37,412,255.07,416.58Z"/><path class="sulzneri-12" d="M257.63,414.52s-2.27,8.08,6.45,13.69c0,0,4.2,2,8.93-5,0,0,2.71-4-1.13-8.64,0,0-3.53-3-3.64-5.37,0,0,1-3.67-5.35-.71C262.89,408.48,257.72,411.38,257.63,414.52Z"/><path class="sulzneri-13" d="M265,422.14s-1,4.87,2.78,2.76c0,0,2.36-1.32,1.3-3.2,0,0,3.35-.64.5-4.61,0,0-4.25-3.18-3,2.32l.79,1.41Z"/><path class="sulzneri-11" d="M269.54,425.6s3.16-6.46-4.27-12.14a19.59,19.59,0,0,0-13.85-2.41s-7.61,3.05-7.17,9.9A15.91,15.91,0,0,0,253,432.26s9.24,3.75,14.06-2.47Z"/><path class="sulzneri-13" d="M258.24,425.43s2-4.1-1.68-3.46a2.81,2.81,0,0,0-1.63,3s-.84,4.44,1.25,4.07C256.18,429,257.65,428.22,258.24,425.43Z"/><path class="sulzneri-13" d="M264.88,429.64s-2.67,3.15-3.83-.41a5,5,0,0,1,4.14-3.94S267.55,426.48,264.88,429.64Z"/></g><g id="berries-2" data-name="berries"><path class="sulzneri-2" d="M486.14,390.87s47.61-87.27,14.46-186.2c0,0-7.19-8.6-3.33,17.39,0,0,18.4,98.27-21.23,165.48,0,0-4.89,5.31-1.69,14C474.35,401.54,477.47,411.1,486.14,390.87Z"/><path class="sulzneri-2" d="M496.3,356.41S509.44,343,516,343.58c0,0-5.11-7.09-20,6.61Z"/><path class="sulzneri-11" d="M517.16,329.56s6.22,2.3,9.68-4.8c0,0,3.28-6.33-.86-10.1,0,0-5.18-6.41-10.16-1.88C515.82,312.78,505.48,320.63,517.16,329.56Z"/><path class="sulzneri-12" d="M521.94,327.79a5.66,5.66,0,0,0-2.29-2.74s-4.7-2-3.92-6.28c0,0,1.15-5.36,4.37-3.22,0,0,3.88,3.56,5.57,3.12,0,0,2.28,0,2,4,0,0-1.32,3.78-2.93,5.12C524.69,327.81,521.5,330.58,521.94,327.79Z"/><path class="sulzneri-13" d="M523.7,321.13s-2.74,2.29-4.32-.77c0,0-.7-1.92,1.32-1.64C520.7,318.72,524.79,319.76,523.7,321.13Z"/><path class="sulzneri-14" d="M515.19,320s10.38-6.3,2.92-14.78c0,0-7.75-5.17-11.41-1.3,0,0-8.63,9.12-1,13.78C505.7,317.67,510.46,320.57,515.19,320Z"/><path class="sulzneri-12" d="M510.45,304.88s8.36-.13,6.21,5.53c0,0-3.31,7.57-7.63,5.37,0,0-3.81-2.33-1.34-7.8C507.69,308,508,306.83,510.45,304.88Z"/><path class="sulzneri-13" d="M510.68,308.07a1.47,1.47,0,0,1,.82,2.24s-.85,2.1-2.12,1.32c0,0-.95-.58.09-3C509.47,308.63,509.73,307.49,510.68,308.07Z"/><path class="sulzneri-11" d="M516.29,283.64s-5.92-6-10.49.37c0,0-2.28,6.07.93,7.94,0,0,7.55,4.41,9.5-1.5A11.77,11.77,0,0,0,516.29,283.64Z"/><path class="sulzneri-12" d="M506.8,289.25s-1.41-5.65,2.77-5.09c0,0,5.66,1,4.85,4.33,0,0-1,2.95-5.07,2.14C509.35,290.63,508.53,290.64,506.8,289.25Z"/><path class="sulzneri-13" d="M508.93,288.59s.16-1.32,1.39-.91c0,0,1.56.24,1.23,1.23,0,0-.24.73-2,.41C509.51,289.32,508.69,289.33,508.93,288.59Z"/><path class="sulzneri-14" d="M495.18,297.38s-4.08-1.65-7.86,4.53c0,0-3.08,5.75-.44,9.06,0,0,3.81,4.88,8.67,3.17,0,0,5.18-3.62,5.71-8a7.45,7.45,0,0,0-3-8A10.81,10.81,0,0,0,495.18,297.38Z"/><path class="sulzneri-12" d="M493.93,298.73a10,10,0,0,0-6.09,8.59,4.25,4.25,0,0,0,4,4.56s3.11-.22,5-5.43a14.92,14.92,0,0,1,2.2-2.9s2.56-1.41-.65-3.79C498.4,299.76,495.61,298.06,493.93,298.73Z"/><path class="sulzneri-13" d="M490.71,306.1a2.08,2.08,0,0,1,2,2.93,2.12,2.12,0,0,1-3,.72S487.72,306.82,490.71,306.1Z"/><path class="sulzneri-14" d="M531.12,243.67s3.17-3.65-.68-8.63a13.18,13.18,0,0,0-8.58-4s-5.48.67-6.38,5.2a10.69,10.69,0,0,0,3.72,8.86s5.36,4,9.57.83Z"/><path class="sulzneri-13" d="M523.8,241.6s2-2.33-.5-2.54a1.89,1.89,0,0,0-1.57,1.65s-1.31,2.74.11,2.86A3.49,3.49,0,0,0,523.8,241.6Z"/><path class="sulzneri-13" d="M527.39,245.49s-2.29,1.58-2.42-.93a3.34,3.34,0,0,1,3.37-1.85S529.67,243.9,527.39,245.49Z"/><path class="sulzneri-11" d="M509.77,261.46s.18,4.79-6.06,8c0,0-7.43,1.29-9.7-5.17,0,0-2.06-5.55,1-9.91,0,0,.82-2.61,9.86-.19C504.88,254.17,509.61,254.73,509.77,261.46Z"/><path class="sulzneri-12" d="M506.16,263.53s-1.82,5.51-5.85,3.82c0,0-3.12-1.91-3.15-5,0,0,.56-4.73,3-5.56,0,0,5.25-.29,5.56,3Z"/><path class="sulzneri-13" d="M504.27,264.71s-2.13,2.2-3.66.88c0,0-1.18-1.89-.83-2.46,0,0-1.88-.76-.16-1.66,0,0,1.83-.43,1.42.87l-.35.57S505.59,263.19,504.27,264.71Z"/><path class="sulzneri-14" d="M510,242.51s4-3.4,8.54,1c0,0,4.17,3.85,2.09,7.8,0,0-2.15,6.19-7.1,4.14C513.56,255.42,503.7,252.34,510,242.51Z"/><path class="sulzneri-12" d="M514.09,242.54a4.45,4.45,0,0,1-1,2.67s-3,2.74-1.23,5.76c0,0,2.31,3.7,4.14,1.23,0,0,1.94-3.71,3.32-3.84,0,0,1.7-.62.38-3.54,0,0-2-2.47-3.58-3C516.14,241.78,513,240.58,514.09,242.54Z"/><path class="sulzneri-13" d="M517.21,247.05s-2.67-1-3,1.74c0,0,0,1.63,1.43.87C515.61,249.66,518.39,247.78,517.21,247.05Z"/><path class="sulzneri-14" d="M503.86,269.43s5.5,4.23,1.13,11.23c0,0-3.78,6.43-9.42,4.85,0,0-8.54-1-7.3-7.95C488.27,277.56,489.48,264.05,503.86,269.43Z"/><path class="sulzneri-12" d="M505,274.65a5.89,5.89,0,0,1-3.69-.51s-4.36-3.06-7.75,0c0,0-4.09,4-.41,5.66,0,0,5.3,1.45,5.85,3.19,0,0,1.27,2,4.64-.5,0,0,2.61-3.28,2.91-5.44C506.5,277.07,507.17,272.71,505,274.65Z"/><path class="sulzneri-13" d="M500,279.9s.51-3.69-3.08-3.39c0,0-2.08.44-.72,2.07C496.23,278.58,499.43,281.63,500,279.9Z"/><path class="sulzneri-14" d="M505.64,331.51s1.84,8.77-8.32,12c0,0-9.12,3.13-13.34-3.15,0,0-7.52-8.19-.49-13.95C483.49,326.39,496,314.14,505.64,331.51Z"/><path class="sulzneri-12" d="M502.33,337.55a7.58,7.58,0,0,1-3.2-3.6s-1.71-6.67-7.63-6.49c0,0-7.38.48-5.16,5.2,0,0,4,5.88,3.07,8.06,0,0-.45,3,5,3.4,0,0,5.31-1,7.42-2.89C501.81,341.23,506.14,337.51,502.33,337.55Z"/><path class="sulzneri-13" d="M493.08,338.58s3.6-3.2-.18-5.92c0,0-2.41-1.33-2.44,1.43C490.46,334.09,491,339.77,493.08,338.58Z"/><path class="sulzneri-14" d="M494.17,234.39s3.74,2.32,2.95,8.72c0,0-2.83,6.31-8.92,4.72,0,0-5.28-1.29-7-5.87,0,0-1.57-2,4.93-7.6C486.11,234.36,489,231.05,494.17,234.39Z"/><path class="sulzneri-12" d="M493.89,238.2s3.26,4.22-.1,6.42c0,0-3.06,1.39-5.46-.2,0,0-3.31-2.86-2.68-5.16,0,0,2.48-4.14,5.16-2.68Z"/><path class="sulzneri-13" d="M493.81,240.25s.58,2.75-1.21,3.23c0,0-2.05-.07-2.3-.63,0,0-1.54,1-1.34-.73,0,0,.61-1.62,1.39-.63l.25.55S493.33,238.45,493.81,240.25Z"/><path class="sulzneri-14" d="M509,199.67s4.35-.71,8,4.63c0,0,2,6.62-3.62,9.42,0,0-4.83,2.5-9.15.2,0,0-2.47-.45-1.28-9C502.87,205,502.84,200.58,509,199.67Z"/><path class="sulzneri-12" d="M511.26,202.73s5.23,1,4.14,4.9c0,0-1.39,3.06-4.24,3.44,0,0-4.38,0-5.41-2.13,0,0-.86-4.75,2.12-5.4Z"/><path class="sulzneri-13" d="M512.55,204.32s2.25,1.7,1.21,3.24c0,0-1.59,1.28-2.15,1,0,0-.48,1.8-1.49.33,0,0-.61-1.62.63-1.39l.56.25S511,203.28,512.55,204.32Z"/><path class="sulzneri-14" d="M512.53,266.54s3.81-2.25,8.49,3.32c0,0,3.94,5.24,1.81,8.93,0,0-3.05,5.41-8.13,4.46,0,0-5.69-2.82-6.87-7.05a7.49,7.49,0,0,1,1.76-8.41A10.94,10.94,0,0,1,512.53,266.54Z"/><path class="sulzneri-12" d="M514,267.7a10.08,10.08,0,0,1,7.35,7.6,4.28,4.28,0,0,1-3.29,5.14s-3.12.24-5.79-4.63a14.85,14.85,0,0,0-2.62-2.55s-2.75-1,.08-3.87C509.71,269.39,512.21,267.29,514,267.7Z"/><path class="sulzneri-13" d="M518.3,274.52a2.1,2.1,0,0,0-1.57,3.22,2.13,2.13,0,0,0,3.07.27S521.37,274.79,518.3,274.52Z"/><path class="sulzneri-14" d="M517.91,333.74s5.4-.22,7.23,8.47c0,0,1.21,7.92-3.21,10.67,0,0-6.41,4.07-11.33.11,0,0-4.51-6.32-3.34-11.56a9.16,9.16,0,0,1,6.76-8A13.48,13.48,0,0,1,517.91,333.74Z"/><path class="sulzneri-12" d="M518.8,335.83s5.45,4.3,3.52,12.43a5.22,5.22,0,0,1-6.5,3.63s-3.5-1.53-3.57-8.33c0,0-.73-3.48-1.35-4.26,0,0-2.37-2.68,2.32-4.12C513.22,335.18,517.13,334.36,518.8,335.83Z"/><path class="sulzneri-13" d="M519.51,345.67s-3.41-1.1-3.55,2.56a2.61,2.61,0,0,0,3.16,2.06S522.67,347.73,519.51,345.67Z"/><path class="sulzneri-14" d="M516.41,294.23s-3.65-2.74-1.08-8.09a12.44,12.44,0,0,1,7.13-5.35s5.18-.47,6.91,3.53a10.08,10.08,0,0,1-1.68,8.9s-4.15,4.78-8.66,2.66Z"/><path class="sulzneri-13" d="M522.75,290.88s-2.29-1.75,0-2.44a1.77,1.77,0,0,1,1.77,1.2s1.75,2.27.47,2.67A3.32,3.32,0,0,1,522.75,290.88Z"/><path class="sulzneri-13" d="M520.21,295.17s2.42,1,2-1.33a3.15,3.15,0,0,0-3.48-1S517.8,294.16,520.21,295.17Z"/><path class="sulzneri-14" d="M504.6,242.41s5,.67,9-4.24c0,0,4.47-5.78-1.39-11.7a9.22,9.22,0,0,0-9.54-1.12s-5.4,2.77-4.65,8.79C498,234.14,499.53,240.29,504.6,242.41Z"/><path class="sulzneri-12" d="M504.21,240s3.9,4.31,8.74-2.69a6.12,6.12,0,0,0-2.38-7.73s-4.06-2.43-7.65-1c0,0-3.15,1.71-1.4,7.42Z"/><path class="sulzneri-13" d="M509.38,237.63s3.67,0,2.61-2.27c0,0-.21-.67-1.21-.36,0,0-.68.2-1.53-1.37a2,2,0,0,0-3-1.3s-1.24.75.93,3c0,0,.67-.21,1.42,1C508.63,236.39,508.27,237.61,509.38,237.63Z"/><path class="sulzneri-11" d="M490.61,296.71a7.94,7.94,0,0,0,9-4.07s2.28-6.16-2.8-9.1c0,0-5.1-2-8.94.18,0,0-5.15,4.16-2.15,8.7C485.76,292.42,488,296.55,490.61,296.71Z"/><path class="sulzneri-12" d="M489.78,295s4.22,2.23,8.4-1.94c0,0,1.6-2.1-1.72-5.58a4.11,4.11,0,0,0-4.94-.41s-2.08,1.6-3.43,1.38c0,0-1.92-1-1,2.89C487.05,291.38,488,294.61,489.78,295Z"/><path class="sulzneri-13" d="M494.9,291.85s2.6,1.13,1.88-1.22c0,0-.45-1.46-1.63-1.1,0,0,.05-1.94-2.5-.84,0,0-2.28,2,.92,2l.88-.28Z"/><path class="sulzneri-14" d="M493.23,209.07a8.82,8.82,0,0,1-8.62-6.89s-.75-7.28,5.55-9c0,0,6-.71,9.59,2.67,0,0,4.4,5.91-.1,10C499.65,205.79,496.09,209.63,493.23,209.07Z"/><path class="sulzneri-12" d="M494.59,207.5s-5.17,1.24-8.52-4.42c0,0-1.15-2.71,3.4-5.54a4.57,4.57,0,0,1,5.44.93s1.8,2.31,3.32,2.44c0,0,2.36-.56.32,3.41C498.55,204.32,496.58,207.52,494.59,207.5Z"/><path class="sulzneri-13" d="M490,202.65s-3.12.49-1.69-1.84c0,0,.9-1.46,2.06-.74,0,0,.49-2.11,2.94-.21,0,0,1.91,2.78-1.55,1.87l-.87-.54Z"/><path class="sulzneri-14" d="M525.23,253.05a8.82,8.82,0,0,1,2.58,10.72s-3.87,6.21-9.92,3.74c0,0-5.21-3.15-5.94-8,0,0,.15-7.37,6.19-7.82C518.14,251.7,523.3,250.85,525.23,253.05Z"/><path class="sulzneri-12" d="M523.19,253.45s4.85,2.19,4,8.72c0,0-.75,2.84-6.08,2.29,0,0-3-.31-3.73-4.07,0,0,0-2.92-1.13-4,0,0-2.2-1,1.84-2.89C518.11,253.54,521.63,252.21,523.19,253.45Z"/><path class="sulzneri-13" d="M523.88,260.14s2.77,1.51.21,2.48c0,0-1.6.6-2.08-.68,0,0-1.68,1.36-2.45-1.64,0,0,.19-3.36,2.36-.52l.36,1Z"/><path class="sulzneri-11" d="M523.71,263.76s-4.43-1.1-4.15-7A12.42,12.42,0,0,1,524,249s4.58-2.45,7.73.55a10.11,10.11,0,0,1,1.93,8.86s-2,6-6.94,5.83Z"/><path class="sulzneri-13" d="M528.24,258.19s-2.79-.71-1-2.22a1.79,1.79,0,0,1,2.11.42s2.5,1.4,1.47,2.27A3.27,3.27,0,0,1,528.24,258.19Z"/><path class="sulzneri-13" d="M527.58,263.14s2.62,0,1.36-2a3.14,3.14,0,0,0-3.6.4S525,263.15,527.58,263.14Z"/></g></g></g>
</svg>