<svg xmlns="http://www.w3.org/2000/svg" viewBox="0 0 864 864">
    <defs>
        <style>
            .cls-1{fill:#2a4024;}.cls-2{fill:#628426;}.cls-3{fill:#557810;}.cls-4{fill:#1f4905;}.cls-15,.cls-5{fill:#a4bd67;}.cls-6{fill:#7e9412;}.cls-7{fill:#5e780d;}.cls-8{fill:#2e5a00;}.cls-9{fill:#3a6800;}.cls-10,.cls-14{fill:#598107;}.cls-10{opacity:0.52;}.cls-11{fill:#285c05;}.cls-12{fill:#133e04;}.cls-13{fill:#436e0b;opacity:0.64;}.cls-15{opacity:0.6;}.cls-16{fill:#699418;}.cls-17{fill:#4f7f04;}.cls-18{fill:#325c04;}.cls-18,.cls-20{opacity:0.7;}.cls-19{fill:#284e02;}.cls-20{fill:#92a939;}.cls-21{fill:#667a3e;}.cls-22{fill:#9dbe3d;}.cls-23{fill:#b91625;}.cls-24{fill:#df4768;}.cls-25{fill:#fcfcff;opacity:0.73;}.cls-26{fill:#b80023;}.cls-27{fill:#ca0f35;}.cls-28{fill:#c90c37;}.cls-29{fill:#c0062e;}.cls-30{fill:#d01a39;}.cls-31{fill:#d1153a;}.cls-32{fill:#ba0c35;}.cls-33{fill:#df023b;}.cls-34{fill:#fffff1;}.cls-35{fill:#d8dfba;}.cls-36{fill:#cad39d;}.cls-37{fill:#ebdb65;}.cls-38{fill:#c4b230;}.cls-39{fill:#5b6106;}.cls-40{fill:#9a9833;}
        </style>
    </defs>
    <title>rubiaceae</title>
        <g id="ligustrifolia">
            <circle class="cls-1" cx="431" cy="432" r="432"/>
                <g id="leaves-2" data-name="leaves">
                    <path class="cls-2" d="M562.14,453.12s71.68-44,154.23,3.84c0,0,56.06,38.07,102.17,63.85,0,0,37.87,19.49,19.9,24.57,0,0-49.94,14.12-68.52,32.32,0,0-84.53,51.94-178.24,18,0,0-85.71-36.16-104.13-78.4C487.55,517.35,451.38,503.85,562.14,453.12Z"/><path class="cls-3" d="M566,583.36s-19-31.07-9-33.89c0,0,2-.57,17.59,31.69,0,0,9.94,12.29,19.93,9.46,0,0,6.56.31-13-30.82,0,0-5.95-13.42,8.25,6.29,0,0,23.58,30,44.68,28.35,0,0,15.68,2-18.15-33.69,0,0-14.2-19.71-5.65-20,0,0,6-1.69,21,28.57,0,0,12.77,22.27,70.35,27.56,0,0,25.09-2.78,1.17-11.11,0,0-54.72-10.42-54.07-38.64,0,0,6.9-21.36,31.35,4.08,0,0,23.89,23.44,35.87,20,0,0,20-5.65-8-12.85,0,0-33.3-18.62-14.2-19.71,0,0,56.4,11.35,78.83-2.17,0,0,15.61-22.38-35.15-18.81,0,0-49.89-1-45.59-8.68,0,0-11.38-9.72,38.55-23.84,0,0,20-5.65-4.82-9.42,0,0-40.77.74-59.66,25.5,0,0-8.85,6.81-11.68-3.17,0,0-6.51-15.41,32.3-30.7,0,0,26.27-13.9-5.38-11.42,0,0-38,10.73-52.54,27.79,0,0-28.53,5.91,35.17-35.82,0,0,18.31-13.55-25-13.28,0,0-39.92-2.87-77,18.42,0,0-29.08,16.13-32.67,16.42s-58.77,41.61-24.34,71.86C505.13,541.4,546,575.83,566,583.36Z"/><path class="cls-4" d="M532.85,468.59s-14.43,20.62,12.14.16c0,0,23.44-23.88,24.83-11.34a71.21,71.21,0,0,1-20.88,25.32s-12.89,23.06,6.82,8.86c0,0,33.47-41.82,45.45-45.21,0,0,17.41-7.08-4,16.24,0,0-22.58,19.33-19.75,29.31,0,0,8.29-8.81,9.11,1.74,0,0,2.57,1.43,12.29-9.95,0,0,22.58-19.32,12.25,5.17,0,0-11.46,20.49,9.64,18.84,0,0,21.4-8.21,37.91,4.38,0,0,23.62,14.89-7.77,25.92,0,0-18.24-3.47-8.6,15.37,0,0,2.22,23.1-16.24-4,0,0-17.59-31.69-24.19-16.89,0,0,1.09,19.11,9,32,0,0-5.16,12.24-25.88-22.88,0,0-12.21-20.28-14.81-6.6,0,0,7.3,41.08-9.72,11.38,0,0-10.47-29.39-20.76-20,0,0-4.3,7.68,7.34,26,0,0,5.65,20-15.11,0,0,0-27.88-22.31-35.79-50.28C496.14,502,495.89,479.76,532.85,468.59Z"/><path class="cls-5" d="M738.46,471.62s-4.46,1.92,14.6,15.94,20.5,11.46,24.75,18.89-16.8-6-16.8-6-14.81-6.59-14.85,8.52,17.63,16.58,17.63,16.58,12.85-8,19.67.91S843.3,539.7,843.3,539.7s-35.09,5.6-61.35,19.5-51.71,38.35-101,39.36S638,606.23,638,606.23s49.27,5.44,88.9-10c0,0,39.62-15.42,43-18.55,0,0,34-24.71,68.52-32.32,0,0,12.94-3-.92-12.34,0,0-57.32-33.1-60.49-36.84Z"/><path class="cls-2" d="M355.29,394.6s-84.36-58.22-186.86-18c0,0-69.91,33.41-127.11,54.86,0,0-46.88,15.79-25.41,23.91,0,0,59.67,22.55,81.17,45,0,0,99.49,68.73,214.73,45.28,0,0,105.69-27.06,130.27-70.42C442.08,475.28,486.59,465.78,355.29,394.6Z"/><path class="cls-3" d="M343.56,535.9s24.63-31.11,12.7-35.63c0,0-2.39-.9-23,32,0,0-12.7,12-24.63,7.45,0,0-7.95-.62,17.44-31.71,0,0,7.93-13.75-10.33,5.67,0,0-30.16,29.29-55.61,24.45,0,0-19.08,0,23.8-34.08,0,0,18.25-19.43,7.91-20.94,0,0-7.16-2.71-27,28.09,0,0-16.66,22.42-86.63,19.91,0,0-30.22-6.64-.81-12.28,0,0,66.77-3.47,67.52-34.31,0,0-7.2-24.26-38.16-.06,0,0-30.18,22.1-44.5,16.68,0,0-23.86-9,10.32-12.85,0,0,41.31-15.5,18.25-19.43,0,0-68.87,4.25-95.28-13.69,0,0-17.68-26.62,43.56-15.43,0,0,60.43,6.09,55.65-2.9,0,0,14.29-9-45.37-31.51,0,0-23.87-9,6.34-9.57,0,0,49.31,6.67,70.82,36.34,0,0,10.35,8.7,14.31-1.77,0,0,8.72-15.85-37.43-38.08,0,0-31-18.91,7.14-11.66,0,0,45.34,17.14,62.07,37.82,0,0,34.2,10.54-40.62-44.07,0,0-21.43-17.39,31-10.87,0,0,48.47,2.63,92.24,31.14,0,0,34.32,21.75,38.65,22.59S462.81,471,419.49,499C419.49,499,368.17,530.57,343.56,535.9Z"/><path class="cls-4" d="M389.89,415.66s16.36,24.53-14.69-1.57c0,0-27.08-29.38-29.44-15.91a87.68,87.68,0,0,0,23.9,30.57s14.35,27-8.73,8.67c0,0-38.25-50.36-52.56-55.77,0,0-20.69-10.22,4,18.26,0,0,26.27,24.3,22.32,34.77,0,0-9.56-10.8-11.13.58,0,0-3.18,1.19-14.33-12.6,0,0-26.28-24.29-15.1,3.86,0,0,12.76,24-12.69,19.14,0,0-25.46-12-46.12-.68,0,0-29.39,12.82,8,29.35,0,0,22.26-1.16,9.57,18,0,0-3.93,24.84,19.87-2.06,0,0,23-32,30.19-14.92,0,0-2.35,20.66-12.67,33.51,0,0,5.59,14.08,32.57-21.2,0,0,15.86-20.33,18.27-5.05,0,0-11.06,43.68,11.16,13.79,0,0,14.26-30.51,26.2-18.82,0,0,4.79,9-10.29,27.23,0,0-7.92,20.94,18.29,2.12,0,0,34.95-20.29,46-49.61C432.51,457.3,434,433.14,389.89,415.66Z"/><path class="cls-5" d="M140.9,389.41s5.3,2.73-18.53,15.26-25.43,9.54-31,17,20.66-4.15,20.66-4.15,18.28-5.06,17.51,11.4-22.24,15.53-22.24,15.53S92.2,434,83.47,442.62s-73.13,5.86-73.13,5.86,42.15,11.15,73.19,30.06,60.5,49.2,120.14,57.39,51.55,14.53,51.55,14.53-59.92-1.15-107-23.65c0,0-47.12-22.49-51.1-26.39,0,0-39.8-31.8-81.17-45,0,0-15.5-5.11,1.78-13.32,0,0,71.16-27.81,75.2-31.42Z"/><path class="cls-6" d="M460.58,475.36s-17-159.13,71-229.31c0,0,69.68-43.43,87.88-24.85,0,0,30.66,47.41,15.17,84.14,0,0-34.42,76.6-71,99.88C563.69,405.22,474.17,508.19,460.58,475.36Z"/><path class="cls-7" d="M556.37,232.42s-16.58,50.14,12.25,37.68c0,0,11.42-5.39,6.9-21.37,0,0-2.52-16.54,6-16.8,0,0,7.69,4.3,4,14,0,0,1.39,12.55,13.72-12.51,0,0,1.73-9.12-6.82-8.85,0,0-9-3.44-.37-6.13,0,0,23.2-4.65,27.46,2.78,0,0,12.23,18.72,15.74,35.76,0,0,1.25,9-12.39-8.67,0,0-9.68-23.14-20.43,5.78,0,0-7,19.24,5.24,24.4,0,0,37.54,4.84,28.69,22.26,0,0-27.08,65.76-60.16,94.51l-86.74-16.18-3.37-57.58,11.51-35.61S512.61,251.11,556.37,232.42Z"/><path class="cls-8" d="M496.86,285.71S485.55,361.53,508,372.43c0,0,5,6.14-4.06-25.82,0,0-12.12-50.49,3-50.45,0,0,6.55.3,10.73,37.95,0,0,12.2,20.27,9.72-11.38,0,0-13.55-47.93.17-60.44,0,0,8.85-6.82,7.34,26,0,0,5.6,35.09,17.63,16.59,0,0,8-2.26-3.61-35.65,0,0-11.34-24.84,5.77-25.36,0,0,7.69,4.3,6.78,24,0,0,1.09,19.1,15.67,2,0,0,30-8.48,6.78,24,0,0-6.6,14.81,7.38,10.86,0,0,21.71-14.77,27.66-1.35,0,0,7.39,10.85-42.24,18.41,0,0-22.28,12.77,19.93,9.47,0,0,28.36-7.12,28.44-6.52s-26.57,51.28-53.4,63.18l-94.1,92.53s-16.42,7.8-17.69-13.44C459.93,466.94,454.63,344.74,496.86,285.71Z"/><path class="cls-9" d="M445.84,495.71S326,415.27,276.38,537.16c0,0-25.46,81.61,14.45,85.43C313.36,618.37,451.3,534.07,445.84,495.71Z"/><path class="cls-10" d="M292.06,508s6.18,11.16-5,40.21c0,0-13.46,21.06,18.72,35.69,0,0,7.12,2.3,45.11-23.54,0,0,12.43,15.16-10.39,32.77,0,0-25.69,22.73-49.65,29.51,0,0-18.82,1-22.16-29.34C268.67,593.25,265.22,545.76,292.06,508Z"/><path class="cls-11" d="M280.1,584.64s-9.16,13.37,2.82,10c0,0,18.84-9.64,15.11,0,0,0-11.72,11.94-9.46,19.93,0,0,1.69,6,13.15-14.51,0,0,19.19-31.31,22.84-10.77,0,0-1.47,17.67,6.56.3,0,0,3.77-24.79,12.89-23,0,0,11.11,1.17,3.95,14,0,0,6.26,6.86,8.9-21.93,0,0,6.6-14.81,12-3.39,0,0,4,14,8.29-8.82,0,0,4-16.24,14.55-1.95,0,0,8.82,8.29,5.73-10.25,0,0,0-15.11,11.68,3.17,0,0,1.82,6.69,10.33-1.48,0,0,26.23-21.8,25.7-38.91,0,0-48-35.49-86-27.18,0,0-34.3,13.74-30.92,25.72,0,0,8.82,8.29,18.5,12,0,0,11.38,9.72-.3,6.55,0,0-31.61-12.63-45-6.68,0,0-9.42,4.82-.3,6.56,0,0,38.21-2.18,47,21.22,0,0,.27,8.56-15.11,0,0,0-28.18-15.75-44.46-4.68,0,0-11.72,11.94,4.26,7.43,0,0,24.53-4.78,36.47,6.94,0,0-.87,4.56-15.67-2,0,0-11.12-1.17-.31,6.56,0,0,19.07,14,2.83,10,0,0-17.94-10-34.78-1,0,0-7.73,10.81,2.26,8,0,0,26-7.34,29.35,4.64,0,0-4.86,5.69-17.11.53,0,0-9.12-1.74-2.86,5.12,0,0,19.93,9.46-4.87,5.69C288.08,582.38,287.52,580.38,280.1,584.64Z"/><path class="cls-12" d="M349.08,485.32s41.33,1.26,48.41,18.67c0,0-4.86,5.69-18.8-5.47,0,0-22.49-10.9-36.47-6.94,0,0-8.86,6.82,17.93,10,0,0,30.48,8.63,18.5,12,0,0-18.8-5.47-23.93-8.33,0,0-15.11,0,1.39,12.55,0,0,9.69,3.73.27,8.55,0,0-42,42.08-42.33,48.64,0,0-2.6,13.67,16.54-2.52,0,0,48.89-48.34,54.57-43.48,0,0,8.52,14.85,9.95,12.29s.3-6.56-2-14.55c0,0,1.17-11.11,12.55-1.39,0,0,7.95,12.85,8.82,8.29,0,0-8.21-21.4.34-21.66,0,0,11.94,11.72,20.24,2.9,0,0,9.72-11.37,10-17.93,0,0-46.35-30.61-72.17-28.41,0,0-14.72,3.37,2.65,11.4,0,0,25.93,7.77,27.62,13.76,0,0-.87,4.56-14.24-4.6,0,0-29.05-11.2-39-8.38C349.94,480.76,342.52,485,349.08,485.32Z"/><path class="cls-13" d="M445.12,497S361.58,499,318,573.91c0,0-2.3,7.12,3.13,3.43,0,0,7.42-4.26,10.29-9.38,0,0,37.2-51.51,88.26-61.63C419.72,506.33,446.25,501,445.12,497Z"/><path class="cls-9" d="M467.45,480.42s-.26-104.77,94.56-99.36c0,0,60.3,8.78,46.34,36.45C596.57,431.13,488.68,496.1,467.45,480.42Z"/><path class="cls-10" d="M537.74,382.27s4.3,7.61,26.64,9.32c0,0,18.38-2.3,14.18,23.64,0,0-1.5,5.45-32.82,22.52,0,0,4.2,13,24.29,3.41,0,0,24.39-9.88,38.32-23.65,0,0,8.29-12.17-8.89-23.92C599.46,393.59,571.82,376.36,537.74,382.27Z"/><path class="cls-11" d="M589.52,398.46s11.92-1.87,5,5c0,0-13.59,9.47-6.15,10,0,0,12.09-4,16.06,0,0,0,3,3-14.25,4.16,0,0-27,2.88-15.91,11.76,0,0,11.41,4.58-2.49,4.45,0,0-16.71-5.3-19.37,1.29,0,0-3.82,7.75,6.94,7,0,0,1.64,6.31-17-1,0,0-11.75-.28-7,6.88,0,0,6.93,7-8.78,2.73,0,0-11.58-2.43-7.14,9,0,0,1.47,8.46-8.61.58,0,0-9.25-4.73-2.83,8.74,0,0,3.35,3.31-5.12,6.39,0,0-24,10.54-34.29,4.81,0,0-2.11-43,18.49-65.58,0,0,22.41-18.43,28.35-12.41,0,0,1.47,8.45-.2,16.05,0,0,1.3,10.61,4.13,1.86,0,0,5.19-24.94,14.31-32,0,0,6.79-4.74,4.13,1.86,0,0-16.94,24.66-6.21,37.84,0,0,5.13,2.86,6.15-10,0,0,1.87-23.65,15.29-31,0,0,12.09-4,2.8,5.16,0,0-12.94,14.76-10.65,26.37,0,0,3.15.86,5.16-11,0,0,3.82-7.74,4.13,1.87,0,0,.79,17.05,5,5,0,0,1.19-15.05,13.62-23.37,0,0,9.77-1.72,4,4,0,0-15.09,14.92-9.15,20.93,0,0,5.47-1.43,7.31-11.18,0,0,2.66-6.59,4.3-.29,0,0-2.35,16.2,5.47-1.43C584.88,403.05,583.89,402,589.52,398.46Z"/><path class="cls-12" d="M500.62,413s-16.12,27.81-8.36,38c0,0,5.46-1.44,4.33-14.2,0,0,2.53-18.34,10.65-26.37,0,0,7.79-3.73-1.19,15.05,0,0-7.17,22.93-.2,16.05,0,0,4.33-14.19,4.68-18.49,0,0,6.14-10,7.1,4.87,0,0-1.67,7.6,5.13,2.86,0,0,42.89-14.63,47-12.77,0,0,9.42,2.57-8.3,10.18,0,0-49.52,17.22-48.87,22.52,0,0,5.6,10.32,3.45,10.46s-4.13-1.86-8.1-5.87c0,0-7.27-2.72-6,7.88,0,0,4.61,9.32,1.47,8.46,0,0-9.74-12.18-13.39-6.59,0,0,2.29,11.61-6.49,14.34,0,0-10.93,2.87-15.06,1,0,0,.21-40.37,12.1-56.81,0,0,8.07-8.7,5.88,5.35,0,0-5.83,19.63-2.86,22.64,0,0,3.14.86,3-10.89,0,0,5-22.79,10.82-28.53C497.47,412.11,503.11,408.53,500.62,413Z"/><path class="cls-13" d="M468.53,480.35s35.37-54.77,98.93-60.1c0,0,5.3.72.82,3.15,0,0-5.63,3.59-9.93,3.88,0,0-46.69,8.48-73.74,39.16C484.61,466.44,470.51,482.35,468.53,480.35Z"/><path class="cls-14" d="M438.57,476.63S271.09,334.78,382.9,171.86c0,0,79.64-96.36,108.6-33.7C500.41,177.82,486.7,459.81,438.57,476.63Z"/><path class="cls-5" d="M358.42,217.09s16.83,2.6,43.87-35.19c0,0,16.32-36.13,53.16,6.65,0,0,7.06,10.09.22,89.52,0,0,25.33,10.14,31.87-39,0,0,10.76-57.23,4-101,0,0-10.41-31.42-47.85-16.53C443.65,121.63,386.09,147.85,358.42,217.09Z"/><path class="cls-9" d="M440.61,146.08s10-23.94,13.39-2.08c0,0,.31,37.26,9.33,24.67,0,0,6.74-27.17,17.45-28.84,0,0,8-1.25-8.85,31.23,0,0-24.77,52.36,1.45,44.55,0,0,19.72-14.27,4.38,10.51,0,0-26.63,22.8-19,36.54,0,0,8.19,17.38,18.74-2.92,0,0,11.85,5.62-20.13,29.26,0,0-13.24,20.71,3.4,21.86,0,0,18.75-2.92-5.2,19.46,0,0-16.48,17.49,6.65,25.09,0,0,15.09,8.84-8.45,16.24,0,0-17.61,10.2,10.87,17,0,0,8.93-1.51,4.63,17.88,0,0-9.36,57.49-29.65,68.11,0,0-70.89-54.6-84.52-122.28,0,0-5-65.28,11-67.78,0,0,15.09,8.84,25.39,22.17,0,0,18.34,12.07,7.47-4.9,0,0-34.16-43.19-35.45-69.11,0,0-.15-18.63,7.47-4.89,0,0,20.92,63.91,53.63,62.55,0,0,10.15-5.31-9.33-24.67,0,0-35.7-35.49-32.77-69.53,0,0,6.75-27.17,11.29,2,0,0,9.48,43.3,30.5,55,0,0,4.79-4.47-12-24.25,0,0-8.19-17.38,7.47-4.89,0,0,28.07,21.75,13.39-2.09,0,0-22.72-22.58-22.46-56.2,0,0,7.87-19.89,10.71-1.67,0,0,7.37,47.36,23.44,44.86,0,0,3.66-11.76-9.89-28.31,0,0-7.63-13.74,4.22-8.12,0,0,23.29,26.22,3.66-11.77C442.88,160.65,440.2,161.07,440.61,146.08Z"/><path class="cls-11" d="M367,325.45s26.84,66.72,51.51,66.61c0,0,3.66-11.77-17.92-27.06,0,0-26.54-29.46-30.51-55,0,0,2.53-19.05,22.72,22.58,0,0,28.8,44,25.4,22.17,0,0-17.93-27.06-24.42-33.51,0,0-9.33-24.67,15.5-6.15,0,0,10.31,13.33,10.15-5.31,0,0,23.32-96.91,30.79-101.81,0,0,14.37-13.43,7.21,28.73,0,0-26.41,112.32-17.24,118.36,0,0,22.57,3.95,20.45,8s-7.46,4.89-18.18,6.56c0,0-12.26,9.37,6.08,21.44,0,0,19.89,4.37,15.1,8.85,0,0-30,.94-25.09,15.1,0,0,21,11.65,15.82,31.12,0,0-7.31,23.52-14.78,28.42,0,0-64.19-55.22-77.48-98.9,0,0-5.1-26.31,14.94-3.31,0,0,25,37.16,33,35.91,0,0,4.79-4.48-14.12-20.19,0,0-30.91-40-33.74-58.19C362.24,329.92,362.65,314.94,367,325.45Z"/><path class="cls-15" d="M439.62,474.6s-48.9-137.91,11.76-259.3c0,0,6.9-8.54,5.93,2.81,0,0-.41,15-4.64,23.11,0,0-37.28,95.36-17.74,185.6C434.93,426.82,445,473.76,439.62,474.6Z"/><path class="cls-16" d="M514.84,495.61S592,516.92,688.39,522c0,0,41.34,1.25,68.69,6.46,0,0,80.52,4.38,85.85,10.86,0,0,5.34,6.49-22,1.28,0,0-96.2-8.38-115.87-9.29,0,0-7.68-4.3-37.34-2.38,0,0-147.93-12.1-168.69-32.11C499,496.85,492.75,490,514.84,495.61Z"/><path class="cls-17" d="M473.26,504.2s20.13-20.9,32.15-9.09c0,0,27.69,59.54,8.39,91.08,0,0-2.88,5.16-21.19-13.57a197.54,197.54,0,0,0-21.2-13.56s-45.54-30.59-20-55.21C451.46,503.85,461.81,494.4,473.26,504.2Z"/><path class="cls-18" d="M444.08,516.4s7.57,26.51,19.63,23.1c0,0,8-2.27,12,11.81,0,0,8.84,23.58,24.08,8.41,0,0,5.19-12.34-1.94-29.88,0,0-.27-8.62,13.76,2.63,0,0,5.87,6.23,1.26-18.15,0,0-1.58-25.33-19.74-22.32,0,0-11.55,3.32-19.89,12.2,0,0-10-10.31-23.09,0C450.17,504.16,442.76,512,444.08,516.4Z"/><path class="cls-19" d="M450.17,503.12s-.37,37,12.85,22.45c0,0,10.05-2.84,16.31,19.29,0,0,14.87,21.88,14.9,6.65,0,0,2.62-13.77-7.09-32.76,0,0,0-15.22,14.63-2,0,0,12.71,10.12,9.54-6.71,0,0-2.79-26.9-25.09-15.61,0,0-9.51,6.59-13,9.74C473.26,504.2,465.83,493.26,450.17,503.12Z"/><path class="cls-20" d="M450.38,538.68s-.13-8.41,13,7.43c0,0,16.3,19.29,30.07,21.92,0,0,7.16,2.32,10.88,7.79,0,0,6.29,6.91,8-2.28,0,0,6.25-38.17,1.9-50.25l-1.19-8.63s9.13,24.45,7.51,41.82c0,0-1.36,26-6.82,29.71,0,0-2.53,2.81-10.29-3.65l-10.9-9.92s-8.39-6.1-14.79-9.83C477.82,562.79,452,544.52,450.38,538.68Z"/><path class="cls-21" d="M456.05,504.72s10.58,14.4,18,10.11c0,0,19.53-7.69,20.4-12.29,0,0,4.4-11.21-8.27-8.08,0,0-11.52,7.16-13,9.74C473.26,504.2,452.63,492.65,456.05,504.72Z"/><path class="cls-22" d="M504.94,411.05s54.18-105.91,87.38-156.28c0,0,10.6-15.94,11.46-20.5,0,0,8.6-15.37,4.26,7.42,0,0-41.88,96-89.38,156.85Z"/>
                </g>
                <g id="berries">
                <path class="cls-23" d="M404.69,423.58s-11.46,8.44-1.86,17.55c0,0,9.57,5.22,13.45.33,0,0,9.1-11.55-.27-16.18C416,425.28,410.14,422.38,404.69,423.58Z"/><path class="cls-24" d="M411.79,440.7s-9.74,1-7.82-5.81c0,0,3.07-9.18,8.34-7.06,0,0,4.69,2.32,2.39,9C414.7,436.79,414.51,438.15,411.79,440.7Z"/><path class="cls-25" d="M411.19,437a1.72,1.72,0,0,1-1.18-2.53s.77-2.54,2.33-1.77c0,0,1.17.58.21,3.51C412.55,436.21,412.36,437.58,411.19,437Z"/><path class="cls-3" d="M435.22,449.36s-5.82,5.87-13.45-.33c0,0-7-5.42-4.34-11.87,0,0,2.48-10,10.49-7.45C427.92,429.71,443.72,433.14,435.22,449.36Z"/><path class="cls-2" d="M428.89,449.88a7,7,0,0,1,1.15-4.3s4.27-4.7,1.13-9.16c0,0-4.12-5.44-6.64-1.34,0,0-2.5,6.06-4.65,6.46,0,0-2.56,1.19-.09,5.56,0,0,3.49,3.57,6,4.25C425.8,451.35,430.85,452.79,428.89,449.88Z"/><path class="cls-5" d="M423.4,443.28s4.3,1.14,4.47-3.14c0,0-.21-2.54-2.34-1.16C425.53,439,421.45,442.31,423.4,443.28Z"/><path class="cls-26" d="M441.31,437.54s5.07,1.53,8.93-6.28c0,0,3.09-7.23-.44-10.92,0,0-5.09-5.43-10.73-2.87,0,0-5.83,4.9-6,10.17a9,9,0,0,0,4.46,9.28A13,13,0,0,0,441.31,437.54Z"/><path class="cls-24" d="M442.66,435.78s6.23-2.76,6.38-10.95a5.11,5.11,0,0,0-5.28-5s-3.7.6-5.43,7c0,0-1.54,3.13-2.32,3.72,0,0-2.91,2,1.19,4.47C437.2,435,440.72,436.76,442.66,435.78Z"/><path class="cls-25" d="M445.74,426.6s-3.51.21-2.75-3.3a2.57,2.57,0,0,1,3.51-1.19S449.24,425.41,445.74,426.6Z"/><path class="cls-27" d="M451,456.69s4.06-2.13,2.38-7.85a12.47,12.47,0,0,0-6.21-6.45s-5.07-1.3-7.42,2.39a10.14,10.14,0,0,0,.23,9.1s3.35,5.41,8.16,4Z"/><path class="cls-25" d="M445.24,452.35s2.56-1.37.44-2.42a1.8,1.8,0,0,0-1.95.92s-2.1,2-.89,2.56A3.26,3.26,0,0,0,445.24,452.35Z"/><path class="cls-25" d="M447.07,457s-2.56.62-1.81-1.65a3.17,3.17,0,0,1,3.61-.47S449.64,456.4,447.07,457Z"/><path class="cls-28" d="M463.35,482.46s-6.24-.17-10.17-7c0,0-4.32-8,4-14.05a11.4,11.4,0,0,1,11.89.52s6.07,4.46,4,11.68C473.06,473.64,470,480.87,463.35,482.46Z"/><path class="cls-24" d="M464.31,479.53s-5.63,4.51-10.16-5a7.59,7.59,0,0,1,4.44-9s5.45-2.17,9.56.35c0,0,3.52,2.71.24,9.35Z"/><path class="cls-25" d="M458.45,475.66s-4.49-.76-2.75-3.3c0,0,.39-.78,1.56-.2,0,0,.78.38,2.14-1.38a2.54,2.54,0,0,1,3.89-1s1.37,1.16-1.74,3.52c0,0-.78-.39-1.94,1C459.61,474.29,459.81,475.85,458.45,475.66Z"/><path class="cls-29" d="M468.23,442.09s-8.77,1-11.73-7.74c0,0-1.8-9.16,6-12.12,0,0,7.59-1.59,12.49,2.28,0,0,6.27,7,1,12.67C476,437.18,471.93,442.46,468.23,442.09Z"/><path class="cls-24" d="M469.78,439.93s-6.43,2.18-11.33-4.62c0,0-1.77-3.3,3.67-7.42,0,0,3.1-2.36,7,.55,0,0,2.54,2.71,4.49,2.71,0,0,2.92-1,.8,4.28C474.43,435.43,472.31,439.73,469.78,439.93Z"/><path class="cls-25" d="M463.32,434.31s-3.9,1-2.35-2.13c0,0,1-1.95,2.53-1.18,0,0,.37-2.73,3.7-.6,0,0,2.74,3.3-1.74,2.54l-1.18-.58Z"/><path class="cls-3" d="M475.67,438.55s-6.08-7.38.32-13.46c0,0,7.38-6.07,13-4.74,0,0,6,.56,7.84,9.71,0,0,.48,3.95-2.57,5.21l-15.66,5.82Z"/><path class="cls-2" d="M478.58,437.56s-5.86-2.9-1.4-9c0,0,7.2-2.77,8.16-4.72,0,0,.21-4.91,5.27-3.06,0,0,5.26,3.4,2.16,7.7,0,0-.38,1.76-5.45,2.17,0,0-7,2.38-8,5.3C479.36,436,479.56,438.53,478.58,437.56Z"/><path class="cls-5" d="M487.12,428.16s-3.31.8-2.35-1.16c0,0,.58-2.15,2.52-2.15,0,0,1.37.18,1.77,2.33C489.06,427.18,488.87,428.54,487.12,428.16Z"/><path class="cls-5" d="M481.17,434.19s-2-.73-1.05-1.71a1.35,1.35,0,0,1,1.95,0s.73-2.46,2.51-.66c0,0,.23,3-2.12,1.83C482.46,433.64,481.82,434.73,481.17,434.19Z"/><path class="cls-30" d="M500.2,446.41s-6.23.81-11.14-7c0,0-2.58-9.54,5.59-13.28,0,0,7-3.35,13.06.13,0,0,3.51.76,1.42,12.86C509.13,439.16,509,445.4,500.2,446.41Z"/><path class="cls-24" d="M497.06,441.94s-7.42-1.71-5.69-7.18c0,0,2.13-4.3,6.22-4.71,0,0,6.24.17,7.62,3.28,0,0,1,6.82-3.28,7.62Z"/><path class="cls-25" d="M495.29,439.61s-3.13-2.51-1.58-4.67c0,0,2.33-1.76,3.11-1.38,0,0,.77-2.53,2.15-.4,0,0,.79,2.34-1,2l-.78-.39S497.45,441.16,495.29,439.61Z"/><path class="cls-31" d="M398.12,489.17s-8-2.16-11.47,7c0,0-3.38,8.22,2.19,12.45,0,0,7.14,7.36,12.81,1.19C401.65,509.84,413.61,499,398.12,489.17Z"/><path class="cls-24" d="M392.38,491.9a7,7,0,0,0,3.15,3.14s6.05,1.93,5.57,7.37c0,0-.84,6.77-5.07,4.47,0,0-5.21-4-7.26-3.25,0,0-2.82.25-2.87-4.77,0,0,1.23-4.84,3.07-6.68C389,492.18,392.62,488.39,392.38,491.9Z"/><path class="cls-25" d="M390.94,500.36s3.14-3.14,5.44.48c0,0,1.09,2.3-1.45,2.18C394.93,503,389.74,502.18,390.94,500.36Z"/><path class="cls-26" d="M409.31,496.35s3.62-3.87,10.88,1c0,0,6.29,4.71,5.09,9.66,0,0-1.68,7.26-7.85,7.87,0,0-7.5-1.32-10.28-5.79a9,9,0,0,1-.8-10.27A13.09,13.09,0,0,1,409.31,496.35Z"/><path class="cls-24" d="M411.37,497.2s6.77-.73,11,6.27a5.13,5.13,0,0,1-2.05,7s-3.51,1.33-8.23-3.38c0,0-2.9-1.93-3.87-2.05,0,0-3.5-.24-1.21-4.47C407,500.59,409.19,497.32,411.37,497.2Z"/><path class="cls-25" d="M418.63,503.6s-3.14,1.57-.72,4.23a2.55,2.55,0,0,0,3.62-.73S422.25,502.87,418.63,503.6Z"/><path class="cls-2" d="M404.93,469.89s5.93-.25,7.75,7.24a16.17,16.17,0,0,1-2.77,11.25s-4.83,4.73-9.85,2.13a13.09,13.09,0,0,1-5.63-10.34s.23-8.22,6.51-9.8Z"/><path class="cls-5" d="M401.32,478.47s3.74-.12,2.05,2.42a2.32,2.32,0,0,1-2.78.24s-3.62-.84-2.66-2.29A4.27,4.27,0,0,1,401.32,478.47Z"/><path class="cls-5" d="M400.34,472.07s-3.26,1-1,3a4.1,4.1,0,0,0,4.35-1.82S403.6,471.1,400.34,472.07Z"/><path class="cls-3" d="M405.87,446.43s-5.31,3.27-5.3,11.13c0,0,.25,9.07,10.53,10.14a11.39,11.39,0,0,0,10-6.41s3-6.9-2.43-12.09C418.69,449.2,412.4,444.49,405.87,446.43Z"/><path class="cls-2" d="M408.17,448.49s-7.13-1.08-6.27,9.43c0,0,1.58,6.29,8.34,5.55,0,0,5.81-.85,8.1-5.08,0,0,1.69-4.11-4.48-8.22Z"/><path class="cls-25" d="M405,454.77s-3.51,2.91-.72,4.24c0,0,.72.48,1.45-.61,0,0,.48-.73,2.54.12a2.53,2.53,0,0,0,3.86-1.09s.61-1.7-3.26-2.18c0,0-.49.73-2.18.13C406.73,455.38,406.12,453.93,405,454.77Z"/><path class="cls-29" d="M430.33,478.92s-8.1,3.52-6.28,12.58c0,0,3,8.82,11.25,7.49,0,0,7.38-2.43,9.67-8.23,0,0,1.92-9.19-5.45-11.48C439.52,479.28,433.35,476.75,430.33,478.92Z"/><path class="cls-24" d="M432.75,480s-6.65,1.34-7.49,9.68c0,0,.13,3.75,6.9,4.58,0,0,3.87.48,5.8-4,0,0,.84-3.63,2.53-4.6,0,0,3-.6-1.46-4.11C439,481.57,435,478.92,432.75,480Z"/><path class="cls-25" d="M430,488.11s-3.86,1.09-1,3c0,0,1.82,1.2,2.78-.25,0,0,1.7,2.17,3.51-1.33,0,0,.72-4.23-2.79-1.33l-.72,1.09Z"/><path class="cls-32" d="M444.37,500.31s-1.56,9.43,7,11.47c0,0,9.43,1.56,13.65-2.43,0,0,5-3.51,1.92-12.33,0,0-1.56-3.66-4.83-3.22l-16.47,2.81Z"/><path class="cls-24" d="M447.39,499.7s-3.62,5.44,3.28,8.46c0,0,7.61-1.22,9.43,0,0,0,2.64,4.14,6.09,0,0,0,2.85-5.58-2-7.75,0,0-1.21-1.33-5.8.85,0,0-7.26,1.46-9.55-.6C448.85,500.66,447.76,498.37,447.39,499.7Z"/><path class="cls-25" d="M459.49,503.55s-3.27,1-1.45,2.18c0,0,1.57,1.57,3.26.6,0,0,1.09-.84.36-2.9C461.66,503.43,460.81,502.34,459.49,503.55Z"/><path class="cls-25" d="M451.32,501.32s-1.38,1.64-.05,2a1.35,1.35,0,0,0,1.69-1s1.87,1.77,2.5-.69c0,0-1.3-2.69-2.75-.52C452.71,501.14,451.61,500.52,451.32,501.32Z"/><path class="cls-30" d="M447.13,478.06s-5.8,2.42-6.15,11.61c0,0,2.55,9.55,11.49,8.69,0,0,7.74-.61,11.23-6.66,0,0,2.66-2.42-5.21-11.84C458.49,479.86,455.22,474.55,447.13,478.06Z"/><path class="cls-24" d="M446.65,483.5s-5.55,5.2-1.32,9.07c0,0,4,2.65,7.74,1,0,0,5.31-3.27,4.95-6.66,0,0-2.55-6.4-6.66-4.95Z"/><path class="cls-25" d="M446.29,486.4s-1.44,3.75,1,4.84c0,0,2.91.36,3.39-.37,0,0,1.93,1.81,2.05-.73,0,0-.48-2.41-1.81-1.2l-.48.72S447.38,484,446.29,486.4Z"/><path class="cls-33" d="M448.3,473.56s-3.48,6.06-13.64,1c0,0-8-4.44-5.51-10.5,0,0,3.47-9,8.35-8,0,0,14.64,5.78,12.92,13.2Z"/><path class="cls-24" d="M441.29,474s7.4-1.21,5.81-7.83c0,0-8.24-10.87-11.72-4.81,0,0-4.65,6.45-3.08,8.2C432.3,469.55,434.27,474.41,441.29,474Z"/><path class="cls-25" d="M438.93,470.88s-4.67.61-3.71-2.32c0,0,.38-1.76,2.72-.6l2,1s-2.16-2.53,0-2.93a4.5,4.5,0,0,1,3.91,1.93s1.19,3.51-2.33,1.77A2.7,2.7,0,0,1,438.93,470.88Z"/><path class="cls-31" d="M446.68,524.36s-5.12,5.17-11.83-.28c0,0-6.2-4.78-3.83-10.45,0,0,2.19-8.76,9.23-6.56C440.25,507.07,454.16,510.09,446.68,524.36Z"/><path class="cls-24" d="M441.11,524.82a6.17,6.17,0,0,1,1-3.78s3.76-4.14,1-8.07c0,0-3.62-4.78-5.83-1.17,0,0-2.21,5.33-4.09,5.68,0,0-2.26,1-.08,4.89,0,0,3.06,3.15,5.28,3.74C438.39,526.11,442.84,527.38,441.11,524.82Z"/><path class="cls-25" d="M436.28,519s3.78,1,3.93-2.77c0,0-.18-2.22-2.06-1C438.15,515.23,434.56,518.16,436.28,519Z"/><path class="cls-23" d="M468.28,455.45s-14.22.55-11.4,13.48c0,0,5,9.69,10.95,7.82,0,0,14-4.44,8.86-13.54C476.69,463.21,473.47,457.53,468.28,455.45Z"/><path class="cls-24" d="M464.54,473.61s-8.63-4.63-3.21-9.21c0,0,7.7-5.86,10.87-1.15,0,0,2.58,4.55-3.05,8.75C469.15,472,468.22,473,464.54,473.61Z"/><path class="cls-25" d="M466.12,470.2a1.71,1.71,0,0,1,.45-2.75s2.06-1.67,2.92-.15c0,0,.64,1.13-1.8,3C467.69,470.32,466.77,471.34,466.12,470.2Z"/><path class="cls-31" d="M479.07,493.93s-8.11,1.59-10.95-7.82c0,0-2.78-8.45,3.07-12.27,0,0,7.65-6.83,12.87-.28C484.06,473.56,495.21,485.28,479.07,493.93Z"/><path class="cls-24" d="M473.54,490.8a7,7,0,0,1,3.36-2.91s6.17-1.49,6.08-6.95c0,0-.35-6.81-4.74-4.83,0,0-5.47,3.61-7.47,2.73,0,0-2.8-.45-3.2,4.56,0,0,.88,4.91,2.58,6.88C470.15,490.28,473.53,494.31,473.54,490.8Z"/><path class="cls-25" d="M472.71,482.26s2.9,3.36,5.46-.09c0,0,1.25-2.22-1.29-2.28C476.88,479.89,471.63,480.36,472.71,482.26Z"/><path class="cls-26" d="M490.74,487.56s3.34,4.12,10.92-.18c0,0,6.61-4.24,5.77-9.27,0,0-1.17-7.36-7.27-8.41,0,0-7.57.79-10.67,5.05A9,9,0,0,0,488,484.93,12.83,12.83,0,0,0,490.74,487.56Z"/><path class="cls-24" d="M492.85,486.87s6.7,1.21,11.43-5.48a5.12,5.12,0,0,0-1.54-7.14s-3.4-1.58-8.45,2.78c0,0-3,1.72-4,1.77,0,0-3.52,0-1.53,4.38C488.76,483.18,490.69,486.59,492.85,486.87Z"/><path class="cls-25" d="M500.55,481s-3-1.79-.42-4.27a2.57,2.57,0,0,1,3.57,1S504.12,482,500.55,481Z"/><path class="cls-27" d="M488,508.85s4.56.52,6.38-5.16a12.5,12.5,0,0,0-1.52-8.83s-3.46-3.92-7.48-2.19a10.15,10.15,0,0,0-4.92,7.67s-.27,6.35,4.49,7.92Z"/><path class="cls-25" d="M485.68,502s2.89.3,1.72-1.75a1.78,1.78,0,0,0-2.13-.34s-2.84.45-2.18,1.62A3.31,3.31,0,0,0,485.68,502Z"/><path class="cls-25" d="M484.58,506.92s-2.46-.93-.58-2.39a3.18,3.18,0,0,1,3.26,1.64S487,507.85,484.58,506.92Z"/><path class="cls-28" d="M483.76,537.11s-5.07-3.64-4.5-11.47c0,0,.89-9,11.22-9.37a11.42,11.42,0,0,1,9.55,7.11s2.51,7.09-3.29,11.89C496.74,535.27,490.13,539.51,483.76,537.11Z"/><path class="cls-24" d="M486.2,535.23s-7.19.57-5.59-9.86a7.57,7.57,0,0,1,8.72-4.94s5.73,1.26,7.71,5.65c0,0,1.39,4.22-5.05,7.87Z"/><path class="cls-25" d="M483.52,528.73s-3.29-3.14-.42-4.27c0,0,.76-.43,1.4.71,0,0,.43.76,2.54.06a2.54,2.54,0,0,1,3.78,1.37s.48,1.73-3.41,1.93c0,0-.43-.76-2.16-.28C485.25,528.25,484.54,529.65,483.52,528.73Z"/><path class="cls-3" d="M504.46,515.44s-7.82-4.08-5.36-13c0,0,3.65-8.58,11.76-6.66,0,0,7.18,2.94,9,8.9,0,0,1.26,9.3-6.26,11.06C513.65,515.75,507.32,517.83,504.46,515.44Z"/><path class="cls-2" d="M507,514.53s-6.53-1.8-6.77-10.18c0,0,.39-3.73,7.2-4.09,0,0,3.89-.2,5.5,4.4,0,0,.58,3.68,2.2,4.77,0,0,3,.82-1.74,4C513.34,513.42,509.17,515.79,507,514.53Z"/><path class="cls-5" d="M504.77,506.26s-3.78-1.37-.75-3.09c0,0,1.9-1.07,2.76.44,0,0,1.84-2,3.4,1.58,0,0,.41,4.27-2.87,1.13l-.65-1.14Z"/><path class="cls-32" d="M506,473.12s-.89-9.52,7.82-10.95c0,0,9.52-.89,13.45,3.4,0,0,4.69,3.85,1,12.44,0,0-1.82,3.53-5,2.86l-16.23-4Z"/><path class="cls-24" d="M509,473.94s-3.23-5.69,3.86-8.21c0,0,7.51,1.76,9.41.69,0,0,2.93-3.95,6.08.42,0,0,2.44,5.77-2.54,7.59,0,0-1.3,1.24-5.73-1.26,0,0-7.13-2-9.57-.09C510.48,473.08,509.23,475.29,509,473.94Z"/><path class="cls-25" d="M521.3,471s-3.18-1.2-1.29-2.27c0,0,1.68-1.45,3.3-.37,0,0,1,.92.15,2.92C523.46,471.23,522.54,472.26,521.3,471Z"/><path class="cls-25" d="M513,472.6s-1.26-1.73.1-2a1.35,1.35,0,0,1,1.61,1.09s2-1.63,2.45.86c0,0-1.48,2.6-2.77.33C514.38,472.88,513.23,473.41,513,472.6Z"/><path class="cls-30" d="M527.16,508.5s-5.61-2.83-5.31-12c0,0,3.22-9.34,12.08-7.85,0,0,7.68,1.16,10.74,7.45,0,0,2.47,2.6-6,11.44C538.63,507.52,535,512.58,527.16,508.5Z"/><path class="cls-24" d="M527.07,503s-5.17-5.58-.67-9.14c0,0,4.17-2.36,7.79-.4,0,0,5.07,3.64,4.46,7,0,0-3,6.2-7,4.46Z"/><path class="cls-25" d="M526.92,500.12s-1.18-3.84,1.31-4.75c0,0,2.92-.15,3.35.61,0,0,2.06-1.67,2,.87,0,0-.66,2.37-1.89,1.07l-.43-.76S527.83,502.61,526.92,500.12Z"/><path class="cls-26" d="M431.24,518.26s5.17-1.17,8.47,6.91c0,0,2.56,7.42-1.22,10.85,0,0-5.47,5.06-10.91,2.1,0,0-5.46-5.3-5.26-10.57a9,9,0,0,1,5.11-8.94A13.3,13.3,0,0,1,431.24,518.26Z"/><path class="cls-24" d="M432.47,520.12s6,3.19,5.58,11.37a5.11,5.11,0,0,1-5.63,4.65s-3.65-.86-4.91-7.41c0,0-1.32-3.23-2.05-3.87,0,0-2.77-2.16,1.51-4.38C427,520.48,430.6,519,432.47,520.12Z"/><path class="cls-25" d="M434.88,529.49s-3.48-.46-3,3.1a2.56,2.56,0,0,0,3.41,1.43S438.29,530.92,434.88,529.49Z"/><path class="cls-27" d="M442.48,493.9s5,3.12,2.34,10.35a16.16,16.16,0,0,1-8.61,7.75s-6.65,1.21-9.34-3.77A13.1,13.1,0,0,1,428,496.52s4.81-6.68,10.9-4.45Z"/><path class="cls-25" d="M434.67,499s3.17,2,.34,3.15a2.32,2.32,0,0,1-2.44-1.36s-2.52-2.73-.91-3.39A4.28,4.28,0,0,1,434.67,499Z"/><path class="cls-25" d="M437.46,493.13s-3.25-1-2.5,2a4.1,4.1,0,0,0,4.62.94S440.7,494.16,437.46,493.13Z"/><path class="cls-28" d="M456.43,475s-6.23-.28-10.64,6.22c0,0-4.88,7.65,3,14.31a11.4,11.4,0,0,0,11.9.32s6.36-4,4.77-11.37C465.48,484.51,462.92,477.09,456.43,475Z"/><path class="cls-24" d="M457.18,478s-5.3-4.9-10.49,4.28a7.57,7.57,0,0,0,3.79,9.28s5.28,2.55,9.55.34c0,0,3.71-2.46.9-9.32Z"/><path class="cls-25" d="M451.05,481.46s-4.53.44-3,3.1c0,0,.33.8,1.54.31,0,0,.81-.33,2,1.52a2.55,2.55,0,0,0,3.82,1.27s1.45-1.06-1.49-3.63c0,0-.8.33-1.87-1.12C452.11,482.91,452.43,481.37,451.05,481.46Z"/><path class="cls-29" d="M458.42,515.64s-8.67-1.63-12.26,6.89c0,0-2.44,9,5.11,12.51,0,0,7.46,2.13,12.62-1.39,0,0,6.75-6.52,1.93-12.56C465.82,521.09,462.14,515.54,458.42,515.64Z"/><path class="cls-24" d="M459.81,517.9s-6.25-2.63-11.63,3.81c0,0-2,3.17,3.13,7.66,0,0,2.93,2.57,7,0,0,0,2.74-2.53,4.68-2.38,0,0,2.84,1.2,1.1-4.21C464.13,522.73,462.32,518.29,459.81,517.9Z"/><path class="cls-25" d="M453,523.05s-3.82-1.27-2.5,2c0,0,.82,2,2.44,1.36,0,0,.18,2.75,3.65.86,0,0,3-3.1-1.56-2.66l-1.21.5Z"/><path class="cls-32" d="M458,541.22s-6.59,6.93-.63,13.44c0,0,6.93,6.59,12.67,5.66,0,0,6.07-.12,8.51-9.13,0,0,.76-3.9-2.19-5.37l-15.21-6.92Z"/><path class="cls-24" d="M460.87,542.42s-6.05,2.47-2,8.83c0,0,7,3.27,7.81,5.29,0,0-.14,4.91,5,3.43,0,0,5.49-3,2.71-7.53,0,0-.26-1.78-5.28-2.55,0,0-6.82-2.87-7.57-5.86C461.53,544,461.92,541.52,460.87,542.42Z"/><path class="cls-25" d="M468.71,552.4s-3.24-1-2.42,1c0,0,.42,2.18,2.37,2.33,0,0,1.37-.09,1.92-2.2C470.58,553.52,470.49,552.14,468.71,552.4Z"/><path class="cls-25" d="M463.21,546s-2.06.58-1.17,1.63a1.36,1.36,0,0,0,1.95.15s.55,2.51,2.46.83c0,0,.44-3-2-2C464.46,546.6,463.9,545.47,463.21,546Z"/><path class="cls-3" d="M472.81,524.36s-6.16-1.25-11.62,6.16c0,0-3.25,9.33,4.63,13.64,0,0,6.75,3.84,13,.8,0,0,3.56-.51,2.34-12.72C481.2,532.24,481.48,526,472.81,524.36Z"/><path class="cls-2" d="M469.35,528.6s-7.51,1.18-6.18,6.76c0,0,1.81,4.44,5.86,5.14,0,0,6.24.28,7.84-2.73,0,0,1.49-6.73-2.73-7.83Z"/><path class="cls-5" d="M467.43,530.8s-3.3,2.29-1.91,4.54c0,0,2.2,1.93,3,1.6,0,0,.59,2.59,2.11.55,0,0,1-2.27-.82-2l-.81.33S469.68,529.4,467.43,530.8Z"/><path class="cls-33" d="M476.3,521.3s-6.28,3.06-11.87-6.8c0,0-4.13-8.18,1.34-11.78,0,0,7.91-5.49,11.41-2,0,0,8.88,13,3.29,18.18Z"/><path class="cls-24" d="M470.26,517.71s6.8,3.16,9.2-3.21c0,0-.71-13.63-7-10.57,0,0-7.47,2.74-7.16,5.06C465.31,509,464.22,514.12,470.26,517.71Z"/><path class="cls-25" d="M470.05,513.82s-4.2-2.12-1.77-4c0,0,1.31-1.24,2.6,1l1.07,1.89s-.37-3.29,1.63-2.42a4.49,4.49,0,0,1,2.15,3.79s-1,3.56-2.92.15A2.69,2.69,0,0,1,470.05,513.82Z"/><path class="cls-31" d="M446.44,562.43s-7.14,1.4-9.64-6.89c0,0-2.45-7.43,2.7-10.79,0,0,6.73-6,11.33-.25C450.83,544.5,460.64,554.82,446.44,562.43Z"/><path class="cls-24" d="M441.57,559.67a6.18,6.18,0,0,1,3-2.56s5.43-1.31,5.35-6.11c0,0-.31-6-4.17-4.25,0,0-4.82,3.17-6.58,2.4,0,0-2.46-.4-2.81,4,0,0,.77,4.32,2.27,6.06C438.59,559.22,441.56,562.77,441.57,559.67Z"/><path class="cls-25" d="M440.83,552.15s2.56,3,4.81-.08c0,0,1.1-1.94-1.13-2C444.51,550.07,439.89,550.49,440.83,552.15Z"/><path class="cls-3" d="M397.86,537.39s-10.83-9.24-.61-17.64c0,0,9.92-4.53,13.44.63,0,0,8.26,12.16-1.42,16.12C409.27,536.5,403.22,539,397.86,537.39Z"/><path class="cls-2" d="M406.16,520.82s-9.64-1.72-8.22,5.23c0,0,2.42,9.38,7.83,7.64,0,0,4.84-2,3-8.77C408.78,524.92,408.69,523.55,406.16,520.82Z"/><path class="cls-5" d="M405.3,524.46a1.72,1.72,0,0,0-1.36,2.44s.58,2.59,2.2,1.93c0,0,1.21-.5.46-3.49C406.6,525.34,406.51,524,405.3,524.46Z"/>
            </g>
            <g id="flower_and_buds">
                <g id="flower">
                    <path class="cls-34" d="M464.6,457.07s10.7,1.39,16.64,14.31c0,0,2.85,6.7-5.72,3.31,0,0-17.71-9.44-15.66-13.85Z"/><path class="cls-34" d="M480,444.52s-19,3.69-19.58,10c0,0,3.57,6.44,11.45,2.34,0,0,12.65-6.65,13.24-11.76C485.1,445.1,483.36,443.7,480,444.52Z"/><path class="cls-34" d="M457.9,459.92s7.82,2.45,2.08,13.51c0,0-5.13,7.17-8.57,5.57,0,0-2-3.33.91-10.93C452.32,468.07,455.94,459,457.9,459.92Z"/><path class="cls-34" d="M460.41,454.52s8.3-6.29,5.38-15.41c0,0-3.41-9.35-8.19-6.79,0,0-3,6.38-1.88,10.47C455.72,442.79,454.82,453.71,460.41,454.52Z"/><path class="cls-34" d="M452.8,459.34s-16.4-5.83-13.89-11.23c0,0,3.71-5.4,17.76,2.91C456.67,451,460.74,457.66,452.8,459.34Z"/><path class="cls-35" d="M480,468.88s-.87,3.28-7.52-.41-13.12-1.32-12.57-7.63c0,0,4.79,6.4-2.14,9.75,0,0-3.37.82-1.77-2.62,0,0,1.15-3.67-1.44-4.56,0,0-1.91-2.37,1.32-8,0,0,1-7.3,6.37-6a2.7,2.7,0,0,1,2,3.33s2.1,5.75,7.62,4.14a12.51,12.51,0,0,1-3.18,1.7S474.34,459,480,468.88Z"/><path class="cls-36" d="M462.93,453.6s-.76-5.6-4.39-3.17c0,0-3.19,3.25,2.54,3.52Z"/><path class="cls-36" d="M458.26,459.79s3.5,4,1.84,5c0,0-4.12-.13-3-2.58C457.12,462.25,457.05,459.83,458.26,459.79Z"/><path class="cls-36" d="M472.85,461.8s-8.54-2.18-3.82,1.81c0,0,4,3-.43,2.19,0,0-12.2-3.29-7.92-6.08,0,0,2.32-3.93,10.29-.4C471,459.32,475.53,462.45,472.85,461.8Z"/><path class="cls-37" d="M462.28,460.77s6.9-4.56,3.2-6.87c0,0-4.45-3.27-6.08-1,0,0-4.51,3.27-1,6.08C458.36,458.94,461.34,461.52,462.28,460.77Z"/><path class="cls-38" d="M464.83,456.58s-5.72,3.31-5.07.63c0,0,.62-3.9,3.79-3C463.55,454.19,465.74,454.61,464.83,456.58Z"/>
                </g>
                <g id="buds">
                    <path id="_3_layer" data-name="3_layer" class="cls-39" d="M448.71,473.53,445.32,498l5,32.82,3.75-7.21s7.88,7.16,15.36-2.54c0,0,12.58,12.93,23.17-.81,0,0,3.83-4.13-.05-11.63,0,0,21.82-5.74,18-12.52,0,0,19.69.36,24.4-8.25l-30.44,0s-15.29-.11-8.52-2.14c0,0,6-.27,6.09-3.3l-37.83-3.94Z"/><path id="_2_layer" data-name="2_layer" class="cls-40" d="M481.24,441.53s.08,20.82-2,22.21l-13,5.54s-1,5.39.7,7.35L459,473.2s-1.94-5.48-1.59-8.43l-18.83.67s-.75,5.61,7.55,10.66l-14,7.21s.67,10.83,9.26,9.72l12.46-16.17s.58,10.11,5.59,9.47c0,0-.41,8.05,7.27,5.6,0,0,.21,7.25,3.17,7.6l-20.45,10.65s1.16,20.22,11.06,12.39c0,0,3.21-3.33-.51-15.21l4.2-1.27s.3,8,7.45,7c0,0,8.73-2.3,9.72-4.75,0,0-10,8.42-4.22,13.5,0,0,9.51,6,15.84-1.32,0,0,4.7-8.61-7.39-12.14l-3.35-2.76-2-6s4.38,6.69,6.78,2.74a23,23,0,0,0-1-7.91s4.69,8.16,11.41,9.48c0,0,1.15,1.87,12-3.82l-.49-8.7s13.64,4.77,24.8-2.07L516,479a29.71,29.71,0,0,0-13.11,11.15l-8.7.15s-5.39,2.34-4.59-5c0,0,6.34,2.11,11-1.75l-11.62-11.23s-.55-4.29,3.81-9.95c0,0,7.58-9.6,6.54-20.07Z"/>
                        <g id="_1_layer" data-name="1_layer">
                            <path class="cls-36" d="M498.49,436.53s-4.25-10.36-15-3.15c0,0-6.48,11.75,2.75,15.65,0,0,11.2,2.19,12.79-2.38A27.75,27.75,0,0,0,498.49,436.53Z"/><path class="cls-36" d="M534.43,481s-5.15-11.71-18.44-2c0,0-4.43,10.75,5.77,10.89,0,0,11.82,1.38,13.6-1.76C535.36,488.15,537.3,480.63,534.43,481Z"/><path class="cls-36" d="M457.31,464.05s-6.4-10.08-17.2-3.59c0,0-5.43,8.7,4.06,8.93C444.17,469.39,458.42,472.64,457.31,464.05Z"/><path class="cls-36" d="M482.56,468.06s-8.29-13.48-13.81-5.49c0,0-5.6,7.27,0,10.92C468.71,473.49,483,476.74,482.56,468.06Z"/><path class="cls-36" d="M502.46,475.67s-3.16-7.59-13.53-3.34c0,0-3.3,2.61-2.93,5.47,0,0-11.91-2.1-11.17,3.63,0,0,3.51,4.64,8.24,1.84,0,0,4.39.16,4.23,4.55,0,0,2.79,4.73,2.21-5.38,0,0,10.85,5.14,13.6-1.76Z"/><path class="cls-36" d="M511,496.4s-2.38-12.79-14.89-8.26c0,0-5.88,5.13-1.13,8.15C494.94,496.29,512.16,505.7,511,496.4Z"/><path class="cls-36" d="M473.77,484.48s-1.11-8.59-6.84-7.85c0,0-7.73-9.19-8.24-1.84,0,0-2.46,9,1.11,8.58l1.78-3.14s2.29,12.07,7.11,10C468.69,490.23,472.71,487.52,473.77,484.48Z"/><path class="cls-36" d="M486.35,497.4s-.85-12.26-10.78-10.25c0,0-4.64,3.51-.78,5.2,0,0,4.2-1.27,7.8,4.08C482.59,496.43,487.63,501.6,486.35,497.4Z"/><path class="cls-36" d="M467.65,496.87s11.71-2.93,14.34,6.19c0,0,2.64,9.11-8.56,6.92C473.43,510,464.93,507.37,467.65,496.87Z"/><path class="cls-36" d="M444.38,476.64s-12.9-4.16-12.23,6.67c0,0,3.72,11.89,11.57,5.05C443.72,488.36,449.58,477.42,444.38,476.64Z"/>
                        </g>
                    </g>
                    <g id="flower-2" data-name="flower">
                        <path class="cls-34" d="M441.49,502.11s-6.05-13,4.26-28.93c0,0,5.52-8,7.81,4.09,0,0,2,26.66-4.45,27.49Z"/><path class="cls-34" d="M416.4,493.71s17.71,18.81,25.21,14.93c0,0,4.71-8.61-5.52-14.56,0,0-16.51-9.51-22.67-6.53C413.42,487.55,413.07,490.51,416.4,493.71Z"/><path class="cls-34" d="M449.48,507.63s-2.82-10.55,13.73-12c0,0,11.73.67,12.38,5.68,0,0-2.31,4.66-12.95,6.77C462.64,508.11,449.85,510.49,449.48,507.63Z"/><path class="cls-34" d="M441.61,508.64s-13-4.86-21.19,4.93c0,0-8.1,10.5-1.82,14,0,0,9.3-1.2,13.13-5.33C431.73,522.29,444.68,515.52,441.61,508.64Z"/><path class="cls-34" d="M452.46,513.79s5.11,22.62-2.76,23.64c0,0-8.71-.33-9.37-22.07C440.33,515.36,444.91,506,452.46,513.79Z"/><path class="cls-35" d="M443.86,476.41s4.32-1.36,4.9,8.75,7.85,15.72.35,19.6c0,0,3.81-9.95,12.51-4.53,0,0,3.33,3.21-1.68,3.86,0,0-5,1.32-4.12,4.87,0,0-1.31,3.83-10,4.23,0,0-8.93,4.06-11.28-2.91,0,0-1.18-3.48,2.3-4.66,0,0,5-6.46-.76-11.54a17,17,0,0,1,4.18,2.37S436.73,489.77,443.86,476.41Z"/><path class="cls-36" d="M438.78,506.46s-5.77,4.84-.45,7.2c0,0,5.94,1.29,2.15-5.37Z"/><path class="cls-36" d="M449.08,507.31s2-6.81,4.36-5.65c0,0,2.79,4.73-.79,5.19C452.65,506.85,450,508.65,449.08,507.31Z"/><path class="cls-36" d="M441,489.45s3.62,11.17,4.75,3c0,0,.6-6.62,2.77-1.08,0,0,5,16.08-1.19,13.25,0,0-6.08.18-7.79-11.3C439.49,493.34,439.77,486,441,489.45Z"/><path class="cls-37" d="M447.31,502.09s-10-4.53-10,1.29c0,0-.5,7.34,3.17,7.59,0,0,6.9,2.75,7.59-3.16C448.05,507.81,448.83,502.62,447.31,502.09Z"/><path class="cls-38" d="M440.78,502.2s7.8,4.09,4.31,5.26c0,0-4.82,2.08-6.09-2.12C439,505.34,437.91,502.57,440.78,502.2Z"/>
                    </g>
                    <g id="flower-3" data-name="flower">
                        <path class="cls-34" d="M497.24,474.44s3.93-10.05,17.9-12.69c0,0,7.19-1.15,1.83,6.35,0,0-13.43,14.91-17.22,11.84Z"/><path class="cls-34" d="M488.78,456.47s-1,19.36,5,21.42c0,0,7.11-1.92,5-10.55,0,0-3.4-13.88-8.21-15.68C490.58,451.66,488.8,453,488.78,456.47Z"/><path class="cls-34" d="M498.39,481.63s4.26-7,13.6,1.25c0,0,5.72,6.7,3.34,9.65,0,0-3.72,1.17-10.38-3.51C505,489,497,483.31,498.39,481.63Z"/><path class="cls-34" d="M493.75,477.89s-4.1-9.58-13.65-8.95c0,0-9.9,1.06-8.57,6.31,0,0,5.47,4.42,9.7,4.35C481.23,479.6,491.61,483.12,493.75,477.89Z"/><path class="cls-34" d="M496.59,486.44s-9.63,14.5-14.26,10.76c0,0-4.34-4.9,7.12-16.53C489.45,480.67,496.88,478.32,496.59,486.44Z"/><path class="cls-35" d="M512.41,462.39s3,1.64-2.21,7.2-4.46,12.41-10.45,10.35c0,0,7.37-3.09,8.94,4.44,0,0,0,3.47-3,1.09,0,0-3.28-2-4.77.29,0,0-2.76,1.28-7.47-3.22,0,0-6.84-2.74-4.28-7.63a2.71,2.71,0,0,1,3.73-1.17s6.09-.65,5.86-6.4a12.63,12.63,0,0,1,.88,3.5S501.46,465.45,512.41,462.39Z"/><path class="cls-36" d="M493.47,475.22s-5.62-.62-4.14,3.49c0,0,2.38,3.89,4-1.62Z"/><path class="cls-36" d="M498.35,481.25s4.74-2.43,5.33-.57c0,0-1.12,4-3.23,2.27C500.45,483,498.09,482.43,498.35,481.25Z"/><path class="cls-36" d="M503.82,467.57s-4.18,7.76.83,4.15c0,0,3.9-3.11,2,.94,0,0-6.14,11-7.81,6.22,0,0-3.25-3.2,2.1-10.08C501,468.8,505.1,465.13,503.82,467.57Z"/><path class="cls-37" d="M500.27,477.58s-2.76-7.79-5.9-4.76c0,0-4.25,3.53-2.48,5.65,0,0,2.09,5.17,5.65,2.48C497.54,481,500.77,478.68,500.27,477.58Z"/><path class="cls-38" d="M496.81,474.1s1.84,6.35-.61,5.07c0,0-3.63-1.54-2-4.41C494.19,474.76,495.13,472.73,496.81,474.1Z"/>
                    </g>
                </g>
    </g>
</svg>