<svg xmlns="http://www.w3.org/2000/svg" viewBox="0 0 864 864"><defs><style>.cls-1{fill:#2a4024;}.cls-2{fill:#5a8800;}.cls-3{fill:#618f6b;}.cls-4{fill:#417250;}.cls-5{fill:#538464;}.cls-6{fill:#7ead92;}.cls-7{fill:#015500;}.cls-8{fill:#5cb56e;opacity:0.48;}.cls-9{fill:#2b731e;}.cls-10{fill:#246130;}.cls-11{fill:#015f00;}.cls-12{fill:#aab61c;}.cls-13{fill:#788d05;}.cls-14{fill:#637200;}.cls-15{fill:#b1ba38;}.cls-16{fill:#7e980e;}.cls-17{fill:#547b00;}.cls-18{fill:#9aa819;}.cls-19{fill:#7f9500;}.cls-20{fill:#5f7e04;}.cls-21{fill:#648a02;}.cls-22{fill:#4d6c04;}.cls-23{fill:#a2b966;}.cls-24{fill:#8ba02b;}.cls-25{fill:#5f8602;}.cls-26{fill:#666;}.cls-27{fill:#ccc;}.cls-28,.cls-51{fill:#999;}.cls-29{fill:#fdffff;}.cls-30{fill:#c4ccbe;}.cls-31{fill:#eff5eb;}.cls-32{fill:#d7dadd;}.cls-33{fill:#d9e5db;}.cls-34{fill:#8f918a;}.cls-35{fill:#848c65;}.cls-36{fill:#fafcfa;}.cls-37{fill:#adadb0;}.cls-38{fill:#cfd5ca;}.cls-39{fill:#c5c3cc;}.cls-40{fill:#f5faea;}.cls-41{fill:#dbe1d7;}.cls-42{fill:#bcc1c8;}.cls-43{fill:#c9cfcf;}.cls-44{fill:#b3bcb3;}.cls-45{fill:#e5eddc;}.cls-46{fill:#e6eede;}.cls-47{fill:#f4fcef;}.cls-48{fill:#e7f1d9;}.cls-49{fill:#c2c7bb;}.cls-50{fill:#fdfbee;}.cls-51{opacity:0.61;}.cls-52{fill:#f1f9b4;}</style></defs><title>rubiaceae</title><g id="spermacoceRemota"><circle class="cls-1" cx="432" cy="430" r="432"/><path class="cls-2" d="M400,430S293,702,291,761c0,0-5,18,15,11,0,0,27-131,52-196S411.9,436.06,413,424,400,430,400,430"/><path class="cls-3" d="M405.48,474.47s-24.84,52.18-86.87,63.87c0,0-58.78,20.81-76.09,33.21,0,0-28.61,17.21-80,16.35,0,0-10.55,1.08-22.63,3.22s-76.57,5.44-82.63-9.87l-3.14-3.62c-6-15.35,49.75-52,49.75-52,14.53-1.84,48.82-27.67,48.82-27.67,37.07-35.57,69.75-42.41,69.75-42.41,21.13-2.68,78.37-27.4,78.37-27.4C354.25,394.57,408,415.93,408,415.93s38.46-3.55,40.31,11-42.78,47.56-42.78,47.56"/><path class="cls-4" d="M358.31,484.63S243,548.92,208.52,541.23l-37.1,24.85s21,17.45,68.18-2c0,0,27.88-12.93,47.52-16.77,0,0,106.11-20.64,123.48-84.35l-33.66-.49Z"/><path class="cls-5" d="M405.87,425.8l-46.45,35.88c-7.1-3.13-92.14-7.08-92.14-7.08-46.55,3.23-27.06,8.81-27.06,8.81a627.9,627.9,0,0,1,93.63,8.23L275.12,495.2c-33.72-22.55-121.65,14.12-121.65,14.12s-18.29,14.4,25.76,2.09c0,0,67.49-18,68-3.27,0,0-29,14.42-40.91,15.93,0,0-49,4.89-58.08,18.11,0,0-60.24,11.68-62.86,22.75,0,0-12.68,16.37,25.09-3.19,0,0,28.38-9,41.1-3.88,0,0,55.9-35.28,43.72-15,0,0-20.43,18.7-45.52,21.89,0,0-19.14,7.8,17.19,8.55,0,0,37.62-10.15,56.38-42.05,0,0,156.06-60.09,168.57-77.78Z"/><path class="cls-6" d="M100.36,534.85s6.77.48-29.82,29.29c0,0-10.71,10.75,7.63,17.81,0,0,50.54,7,71.16.35,0,0,18-6.31,28.06-.88,0,0,33.86,2.41,56.45-9.86,0,0,50.3-26.52,58.06-28.84,0,0,79.2-20.8,102.57-58.66,0,0,18.39-26.46,31.61-32.18l5,3.16s-27.22,22.37-29.75,26.76c0,0-24.62,45.49-82.68,56.54,0,0-23,8.72-29.62,11.18,0,0-40.11,15.91-48.45,23.11,0,0-28,12.54-47.2,13.56,0,0-26.67,1.67-33.6,2,0,0-45.56,7.54-78.67,3.23,0,0-36.06-1.36-26.69-19.94,0,0,7.83-19.31,40.83-39.81C95.21,531.69,101.35,532,100.36,534.85Z"/><path class="cls-3" d="M492.49,440.35S546,462.17,599.72,429c0,0,57.45-24.21,78.6-26.71,0,0,32.74-6.55,70.12-41.8,0,0,8.53-6.31,18.9-12.86s60.25-47.57,54.41-63l-.12-4.8c-5.92-15.36-71.76-4.87-71.76-4.87-12,8.42-54.72,12.44-54.72,12.44C643.79,286.13,615,303.1,615,303.1c-17.42,12.24-76.37,32.54-76.37,32.54-62.14,11.14-87.44,63.1-87.44,63.1S420.41,422,428.83,434s63.66,6.34,63.66,6.34"/><path class="cls-4" d="M534.19,416.07S662.69,385.93,683,357l44.15-6.64s-3.76,27.06-51.71,44.49c0,0-29.31,9.22-46.41,19.62,0,0-92.33,56.23-148.08,20.85l24.54-23Z"/><path class="cls-5" d="M459.41,404.64l58.5-4.78c3.15-7.1,63.33-67.31,63.33-67.31,36.58-29,25.92-11.72,25.92-11.72A628.62,628.62,0,0,0,543.51,390l59.28-22.15c9.73-39.39,99.41-71.52,99.41-71.52s23.23-1.68-17.62,18.9c0,0-62,32.19-52.48,43.4,0,0,31.17-8.9,41-15.79,0,0,39.53-29.41,55.13-25.74,0,0,52.38-31.95,61.78-25.53,0,0,20.4,3.55-20.69,14.54,0,0-27,12.49-33,24.83,0,0-65.08,11.58-42.38,18.4,0,0,27.69.05,48.38-14.49,0,0,19.4-7.13-6.94,17.9,0,0-34.64,17.84-70,6.9,0,0-155.82,60.73-177,56.09Z"/><path class="cls-6" d="M758.65,279.41S754,284.33,800.42,281c0,0,15.16.73,6.37,18.31,0,0-32.64,39.21-52.36,48.19,0,0-17.54,7.45-21.33,18.26,0,0-23.4,24.58-48.36,30.74,0,0-55,14.29-62.34,17.79,0,0-72.54,38-115.31,25.76,0,0-31.42-7.17-45-2.49l-1.55,5.68s35.19-1.81,40-.26c0,0,48.84,17,99.2-13.93,0,0,22.85-9,29.42-11.68,0,0,40.36-15.27,51.37-15.57,0,0,29.12-9.57,44-21.77,0,0,20.84-16.74,26.2-21.14,0,0,38.74-25.13,60.3-50.62,0,0,25.74-25.29,6.3-32.71,0,0-18.8-9-57-1.92C760.33,273.6,756,278,758.65,279.41Z"/><path class="cls-7" d="M349.85,180.45s-1-18.66,28.28,21.9c0,0,102,126.59,88.05,186,0,0-5.83,59.78-67.33,19.29,0,0-49.93-33.91-60.5-117.1,0,0,1.85-22.37-1.65-39.37,0,0-5.34-31.52,7.67-45.25C344.37,206,350.61,191.75,349.85,180.45Z"/><path class="cls-8" d="M395,340.42s-23.62-6.39-25-16.95c0,0-11-22.77-9.73,7.94,0,0,6.31,18,18.7,20.43,0,0-11.12,11.21-29.71-15.48,0,0,22.09,64.64,73.05,83.72,0,0,16.15-43.59-12-64.17C410.39,355.91,402.92,339.41,395,340.42Z"/><path class="cls-9" d="M381.81,268.3s-8.36,29.24,11,54.95c0,0,29.45,31.15,26.18,47.66l26.79,20.75-3.71-39.78L411.77,303.4Z"/><path class="cls-10" d="M343,237l27.48,36.76s4.7,37-14,38c0,0-10.56,1.34-17.37-20.6,0,0,.5-34.62-1.3-45.29Z"/><path class="cls-11" d="M428.09,294.62s-20.33-12.18-21.17-18.78c0,0-4.17-22.28-7.78-8.4,0,0-4.39,28.73,7.53,48.69,0,0,7.8,19.13,21,28.19,0,0,18.19,16.47,10.84,53.63l30-18.37S457.67,305.62,428.09,294.62Z"/><path class="cls-3" d="M338.63,267.81s8.87,15.58,11-10.18c0,0-3-34.5,1.74-39.13,0,0,5.09-12.72,4.42-18,0,0,1.3-10.89,7.3,15.18,0,0,7.67,39.28,7.38,58.1,0,0-.8,14.86,13.08,18.46,0,0,14.87-2.23,14.92-16.15,0,0-11.89-33.88-1.15-33.9,0,0,9.6,12.2,11.61,28,0,0,1.68,13.21,13.06,7.74,0,0,7.41-3.6-1.44-15.91,0,0-57.07-85.21-66.55-86.08,0,0-6.48-2.23-4.08,8,0,0-2.05,17.52-5.51,22,0,0-13,13.73-7.67,45.25C336.7,251.22,339,261.79,338.63,267.81Z"/><path class="cls-7" d="M503,669s-1.69,18.6-24.79-25.78c0,0-82.47-140.07-60.06-196.88,0,0,14.45-58.3,69.41-9.3,0,0,44.47,40.81,42.83,124.65,0,0-5.09,21.87-4.09,39.2,0,0,.7,32-14.17,43.66C512.11,644.54,503.87,657.69,503,669Z"/><path class="cls-8" d="M481.57,504.15s22.44,9.76,22.23,20.4c0,0,7.52,24.11,10.78-6.44,0,0-3.63-18.71-15.53-22.94,0,0,12.63-9.47,27.14,19.64,0,0-12.46-67.16-60.09-93.45,0,0-22.32,40.78,2.5,65.23C468.6,486.59,473.58,504,481.57,504.15Z"/><path class="cls-9" d="M484.13,577.42s12.53-27.71-2.9-56c0,0-24.61-35.1-19-51l-23.49-24.42L436.66,486l22.94,52.37Z"/><path class="cls-10" d="M518,614l-21.84-40.37s.73-37.26,19.33-35.56c0,0,10.65.2,14.2,22.91,0,0-5.53,34.17-5.31,45Z"/><path class="cls-11" d="M442.17,544.65s18.35,15,18.22,21.66c0,0,.88,22.65,6.47,9.44,0,0,8.53-27.79-.37-49.26,0,0-4.94-20.07-16.71-30.95,0,0-15.6-18.94-2.92-54.64l-32.31,13.82S414.51,529.47,442.17,544.65Z"/><g id="leaves-2" data-name="leaves"><path class="cls-12" d="M442.32,418.07s9.93,10.46,11.11,14.32c0,0,2.42,5.17,2.62-2.48,0,0-2.22-12.82-5.95-16.74C450.1,413.17,441.17,412.94,442.32,418.07Z"/><path class="cls-13" d="M447.51,423.88s5,2.05,6.33-3c1.55,3.24,3.77,11.47,1.65,12.76-1.46.89-3.17-3.9-4.81-5.94-.54-.68-1.64-2-3.17-3.83"/><path class="cls-14" d="M451.43,428.85a38.44,38.44,0,0,1,2.22,4s.71,1.62,1.53,1.16a2.64,2.64,0,0,0,1.09-2.48,17.44,17.44,0,0,0-.14-3.15s-1.06,2.41-2.13,2.23A4.7,4.7,0,0,1,451.43,428.85Z"/><path class="cls-12" d="M436.1,418.84s4.14,14.93,3.31,19.18c0,0-.32,6.12,3.73-1,0,0,4.36-13.27,2.81-18.87C446,418.12,437.61,413.4,436.1,418.84Z"/><path class="cls-13" d="M438.09,427s3.74,4.48,7.51.36c-.16,3.86-2.21,12.78-4.88,12.93-1.82.1-1-5.3-1.56-8.06-.17-.92-.52-2.77-1.07-5.23"/><path class="cls-14" d="M439.3,433.65a41.2,41.2,0,0,1,.1,4.88s-.14,1.89.87,1.88a2.86,2.86,0,0,0,2.29-1.81,18.41,18.41,0,0,0,1.45-3.05s-2.22,1.74-3.15,1C440.86,436.58,439.9,436,439.3,433.65Z"/><path class="cls-12" d="M443.41,418.31s-11.39,10.5-12.93,14.55c0,0-3,5.36-2.63-2.85,0,0,3.3-13.58,7.58-17.51C435.43,412.5,445,412.89,443.41,418.31Z"/><path class="cls-13" d="M437.43,424.16s-5.54,1.83-6.57-3.66c-1.89,3.37-4.86,12-2.68,13.56,1.5,1.05,3.67-3.95,5.58-6,.63-.68,1.91-2.07,3.67-3.87"/><path class="cls-14" d="M432.88,429.2a41.48,41.48,0,0,0-2.67,4.09s-.87,1.68-1.72,1.13a2.82,2.82,0,0,1-1-2.73,18,18,0,0,1,.38-3.37s1,2.66,2.12,2.54C430,430.86,431.15,430.83,432.88,429.2Z"/><path class="cls-15" d="M440.13,417.56s6.87,9.89,7.35,13.22c0,0,1.34,4.57,2.48-1.71,0,0-.21-10.86-2.78-14.57C447.18,414.5,439.84,413.18,440.13,417.56Z"/><path class="cls-16" d="M443.68,423s3.9,2.33,5.6-1.66c.87,2.87,1.66,9.94-.26,10.74-1.31.54-2.11-3.62-3.21-5.52-.36-.63-1.09-1.89-2.13-3.56"/><path class="cls-17" d="M446.28,427.61a30.68,30.68,0,0,1,1.33,3.55s.38,1.42,1.12,1.15a2.2,2.2,0,0,0,1.21-1.91,13.74,13.74,0,0,0,.28-2.61s-1.17,1.85-2,1.56C448.18,429.35,447.32,429.14,446.28,427.61Z"/><path class="cls-18" d="M425.54,408.09s-6.79,14.8-10.33,17.66c0,0-4.4,4.7,3.7,1.69,0,0,12.49-7.71,15-13.26C434,414.18,430.44,404.73,425.54,408.09Z"/><path class="cls-19" d="M421.64,416s0,6.14,5.79,5.37c-2.75,3-10.44,8.78-12.68,7.09-1.54-1.15,2.76-4.95,4.21-7.53.48-.86,1.45-2.58,2.68-4.93"/><path class="cls-20" d="M418.08,422.16a42.21,42.21,0,0,1-3.22,4s-1.39,1.42-.57,2.1a3,3,0,0,0,3.06.1,19.62,19.62,0,0,0,3.23-1.48s-3-.1-3.22-1.3C417.36,425.57,417,424.42,418.08,422.16Z"/><path class="cls-12" d="M429,411.2s-.44,11.91-2,14.83c0,0-1.66,4.41,3,.11,0,0,6.29-8.71,6.45-13.18C436.38,413,431.36,407.56,429,411.2Z"/><path class="cls-13" d="M428.56,417.62s1.7,4.16,5.42,2c-1,2.79-4.6,8.86-6.59,8.35-1.36-.35.48-4.13.74-6.28.08-.71.26-2.15.43-4.08"/><path class="cls-14" d="M427.89,422.8a31.67,31.67,0,0,1-1.06,3.6s-.55,1.36.2,1.58a2.19,2.19,0,0,0,2.09-.79,14.28,14.28,0,0,0,1.78-1.9s-2,.76-2.55,0A3.9,3.9,0,0,1,427.89,422.8Z"/><path class="cls-21" d="M444.11,424.41s-8.2,13.15-8.61,17.46c0,0-1.43,6-3.28-2.05,0,0-.43-14,2.65-18.89C434.87,420.93,444.21,418.76,444.11,424.41Z"/><path class="cls-2" d="M439.9,431.64s-4.86,3.24-7.31-1.78c-.93,3.75-1.49,12.88,1,13.78,1.72.62,2.49-4.78,3.78-7.29.42-.83,1.28-2.5,2.51-4.71"/><path class="cls-22" d="M436.85,437.71a43.23,43.23,0,0,0-1.49,4.64s-.39,1.86-1.36,1.56a2.84,2.84,0,0,1-1.68-2.38,19,19,0,0,1-.53-3.34s1.64,2.3,2.73,1.88C434.52,440.07,435.62,439.74,436.85,437.71Z"/><path class="cls-12" d="M458,408.63s6.05,14.26,9.34,17.07c0,0,4.06,4.59-3.56,1.51,0,0-11.67-7.67-13.94-13C449.8,414.19,453.39,405.3,458,408.63Z"/><path class="cls-13" d="M461.45,416.23s-.14,5.83-5.65,4.95c2.53,2.92,9.69,8.63,11.86,7.09,1.5-1.06-2.48-4.79-3.79-7.28-.44-.83-1.31-2.49-2.42-4.76"/><path class="cls-14" d="M464.67,422.21a40.89,40.89,0,0,0,2.95,3.88s1.29,1.39.49,2a2.83,2.83,0,0,1-2.91,0,18,18,0,0,1-3-1.49s2.82,0,3.1-1.14C465.26,425.48,465.63,424.38,464.67,422.21Z"/><path class="cls-23" d="M454.53,409.93s14,6.65,16.66,10.06c0,0,4.42,4.24,1.66-3.5,0,0-7.17-12-12.42-14.47C460.43,402,451.4,405.23,454.53,409.93Z"/><path class="cls-24" d="M462,413.75s5.84.1,5.19-5.44c2.81,2.65,8.21,10,6.58,12.15-1.12,1.45-4.68-2.68-7.11-4.1-.81-.47-2.44-1.41-4.66-2.61"/><path class="cls-25" d="M467.82,417.22a41.45,41.45,0,0,1,3.75,3.1s1.34,1.35,2,.58a2.85,2.85,0,0,0,.13-2.91,18.24,18.24,0,0,0-1.36-3.1s-.13,2.82-1.28,3.05C471.05,417.94,470,418.26,467.82,417.22Z"/><path class="cls-12" d="M436.07,412.15s2.75,9.58,2.23,12.32c0,0-.17,3.94,2.4-.68,0,0,2.74-8.56,1.71-12.16C442.41,411.63,437,408.64,436.07,412.15Z"/><path class="cls-13" d="M437.4,417.37s2.43,2.86,4.83.19c-.08,2.48-1.36,8.23-3.07,8.35-1.17.07-.69-3.41-1-5.18-.12-.59-.36-1.78-.72-3.36"/><path class="cls-14" d="M438.21,421.66a25.37,25.37,0,0,1,.09,3.14s-.08,1.22.57,1.2a1.82,1.82,0,0,0,1.46-1.17,12,12,0,0,0,.92-2s-1.42,1.13-2,.68A3.24,3.24,0,0,1,438.21,421.66Z"/><path class="cls-12" d="M447.1,407.72s4.29,9,4.23,11.77c0,0,.49,3.91,2.25-1.07,0,0,1.28-8.88-.33-12.25C453.25,406.17,447.45,404.11,447.1,407.72Z"/><path class="cls-13" d="M449.27,412.64s2.87,2.42,4.79-.61c.33,2.46,0,8.34-1.64,8.73-1.15.27-1.25-3.23-1.89-4.93-.21-.56-.64-1.69-1.26-3.19"/><path class="cls-14" d="M450.78,416.74a27.4,27.4,0,0,1,.61,3.07s.12,1.22.75,1.1a1.82,1.82,0,0,0,1.25-1.4,12,12,0,0,0,.58-2.1s-1.21,1.36-1.88,1C452.09,418.42,451.42,418.13,450.78,416.74Z"/><path class="cls-12" d="M453.65,405.47s2.41,7.63,4,9.24c0,0,1.86,2.56-1.91.6,0,0-5.62-4.52-6.52-7.38C449.18,407.93,451.46,403.53,453.65,405.47Z"/><path class="cls-13" d="M455.07,409.55s-.36,3-3.15,2.27c1.16,1.63,4.56,4.92,5.75,4.23.82-.47-1-2.59-1.59-3.93-.19-.45-.55-1.35-1-2.57"/><path class="cls-14" d="M456.43,412.79a21,21,0,0,0,1.33,2.14s.59.78.15,1.06a1.48,1.48,0,0,1-1.5-.14,9.66,9.66,0,0,1-1.49-.92s1.45.14,1.65-.43A2.62,2.62,0,0,0,456.43,412.79Z"/><path class="cls-12" d="M452.37,406.85s6.19.73,7.65,1.69c0,0,2.23,1,.18-1.55,0,0-4.28-3.65-6.6-3.92C453.6,403.07,450.57,405.46,452.37,406.85Z"/><path class="cls-13" d="M455.7,407.34s2.24-.71,1.27-2.74c1.42.65,4.43,2.77,4.08,3.79-.24.69-2.13-.42-3.24-.65l-2.11-.4"/><path class="cls-14" d="M458.37,407.91a15.75,15.75,0,0,1,1.84.71s.68.34.83,0a1.16,1.16,0,0,0-.33-1.13,7.47,7.47,0,0,0-.91-1s.31,1.09-.1,1.33A2,2,0,0,1,458.37,407.91Z"/><path class="cls-12" d="M425.65,384s-15.19-3.09-18.6-5.76c0,0-5.3-3.06-.77,3.8,0,0,9.84,9.91,15.54,11.07C421.82,393.08,429.81,387.79,425.65,384Z"/><path class="cls-13" d="M417.5,382.06s-5.69,1.3-3.73,6.53c-3.36-1.9-10.38-7.78-9.3-10.22.73-1.67,5.18,1.48,7.88,2.27.9.26,2.71.79,5.15,1.42"/><path class="cls-14" d="M411,380.1a41.52,41.52,0,0,1-4.39-2.12s-1.63-1-2.07-.08a2.84,2.84,0,0,0,.57,2.85,18.3,18.3,0,0,0,2.06,2.68s-.55-2.76.51-3.26C407.68,380.17,408.68,379.59,411,380.1Z"/><path class="cls-12" d="M422.8,390.73s-4.18-14.92-7.09-18.13c0,0-3.43-5.07,3.73-1,0,0,10.6,9.1,12.16,14.69C431.6,386.25,426.91,394.61,422.8,390.73Z"/><path class="cls-13" d="M420.3,382.75s.89-5.78,6.24-4.2c-2.13-3.21-8.5-9.79-10.86-8.54-1.61.86,1.85,5.07,2.84,7.7.32.88,1,2.64,1.78,5"/><path class="cls-14" d="M417.88,376.4a42.29,42.29,0,0,0-2.43-4.23s-1.1-1.54-.23-2.05a2.84,2.84,0,0,1,2.89.36,18.31,18.31,0,0,1,2.82,1.86s-2.8-.34-3.22.75C417.71,373.09,417.21,374.12,417.88,376.4Z"/><path class="cls-15" d="M425,388.15s-11.94,1.63-15.12.55c0,0-4.68-.89.4,3,0,0,9.77,4.74,14.25,4.13C424.49,395.81,429,389.88,425,388.15Z"/><path class="cls-16" d="M418.49,388.84s-3.84,2.41-1.06,5.74c-3-.53-9.61-3-9.45-5.1.11-1.42,4.18-.25,6.37-.36.73,0,2.19-.12,4.14-.28"/><path class="cls-17" d="M413.21,389.07a31.42,31.42,0,0,1-3.76-.43s-1.44-.31-1.54.47a2.21,2.21,0,0,0,1.15,1.95,14.14,14.14,0,0,0,2.21,1.44s-1.12-1.89-.47-2.53A3.84,3.84,0,0,1,413.21,389.07Z"/><path class="cls-18" d="M439.75,394.82s-11.92,0-14.9-1.49c0,0-4.48-1.49,0,3,0,0,8.94,6,13.41,6C438.26,402.28,443.47,397.06,439.75,394.82Z"/><path class="cls-19" d="M433.31,394.63s-4.09,1.85-1.81,5.5c-2.82-.92-9-4.27-8.58-6.28.3-1.37,4.14.32,6.29.5.72.06,2.16.18,4.1.28"/><path class="cls-20" d="M428.11,394.15a33.18,33.18,0,0,1-3.64-.92s-1.37-.5-1.57.25a2.2,2.2,0,0,0,.87,2.07,13.86,13.86,0,0,0,2,1.7s-.84-2-.12-2.54A3.88,3.88,0,0,1,428.11,394.15Z"/><path class="cls-12" d="M435.69,381.11s-10.42-5.8-12.3-8.55c0,0-3.18-3.48-1.45,2.6,0,0,4.91,9.56,8.82,11.73C430.76,386.89,437.85,384.88,435.69,381.11Z"/><path class="cls-13" d="M430.16,377.81s-4.48-.37-4.26,3.92c-2-2.18-5.8-8.12-4.44-9.66.93-1.06,3.46,2.29,5.25,3.5.6.4,1.8,1.21,3.45,2.24"/><path class="cls-14" d="M425.85,374.86a31.24,31.24,0,0,1-2.73-2.58s-1-1.1-1.5-.54a2.19,2.19,0,0,0-.25,2.23,14.24,14.24,0,0,0,.89,2.44s.25-2.15,1.14-2.28A3.92,3.92,0,0,1,425.85,374.86Z"/><path class="cls-21" d="M417.05,388.58s-8-13.27-11.65-15.59c0,0-4.66-4,3.32-2,0,0,12.63,6,15.63,10.94C424.35,381.93,422,391.23,417.05,388.58Z"/><path class="cls-2" d="M412.52,381.55s-.68-5.8,4.9-5.7c-2.91-2.54-10.8-7.18-12.74-5.35-1.33,1.25,3.13,4.39,4.78,6.67.55.76,1.65,2.28,3.06,4.38"/><path class="cls-22" d="M408.49,376.07a41.51,41.51,0,0,0-3.46-3.43s-1.47-1.19-.77-1.92a2.86,2.86,0,0,1,2.88-.42,18.63,18.63,0,0,1,3.22,1.05s-2.79.41-2.91,1.57C407.45,372.92,407.24,374.05,408.49,376.07Z"/><path class="cls-12" d="M424.83,408.09s-15.46-1.09-19.46.57c0,0-5.93,1.53.27-3.86,0,0,12.14-6.92,17.93-6.51C423.57,398.29,429.86,405.53,424.83,408.09Z"/><path class="cls-13" d="M416.47,407.75s-5.14-2.77-1.85-7.29c-3.75.93-12.09,4.72-11.7,7.36.26,1.81,5.39,0,8.21-.08.93,0,2.81,0,5.34,0"/><path class="cls-14" d="M409.67,407.9a41,41,0,0,0-4.79.87s-1.83.51-2-.48a2.85,2.85,0,0,1,1.31-2.6,18.89,18.89,0,0,1,2.71-2s-1.27,2.52-.38,3.29C406.5,407,407.3,407.77,409.67,407.9Z"/><path class="cls-23" d="M425.22,404.44s-12.28,9.45-16.53,10.28c0,0-5.78,2,2.36,3.07,0,0,13.94-1,18.54-4.5C429.59,413.29,430.83,403.78,425.22,404.44Z"/><path class="cls-24" d="M418.44,409.34s-2.75,5.15,2.49,7.09c-3.64,1.3-12.67,2.76-13.81.35-.79-1.65,4.51-2.95,6.88-4.48.78-.51,2.36-1.53,4.44-3"/><path class="cls-25" d="M412.7,413a41.87,41.87,0,0,1-4.48,1.94s-1.8.58-1.41,1.5a2.87,2.87,0,0,0,2.53,1.45,18.75,18.75,0,0,0,3.38.19s-2.45-1.4-2.14-2.52C410.58,415.53,410.8,414.4,412.7,413Z"/><path class="cls-12" d="M431.62,387s-9.78-1.91-12-3.61c0,0-3.43-1.94-.48,2.45,0,0,6.39,6.32,10.06,7C429.21,392.87,434.32,389.42,431.62,387Z"/><path class="cls-13" d="M426.37,385.8s-3.66.87-2.36,4.22c-2.18-1.21-6.73-4.95-6.05-6.53.47-1.08,3.35.93,5.09,1.42.58.17,1.75.5,3.32.89"/><path class="cls-14" d="M422.18,384.57a24.84,24.84,0,0,1-2.84-1.34s-1-.62-1.33,0a1.82,1.82,0,0,0,.38,1.84,12.08,12.08,0,0,0,1.34,1.71s-.37-1.78.31-2.11A3.27,3.27,0,0,1,422.18,384.57Z"/><path class="cls-12" d="M430.56,398.82s-10-.26-12.41-1.57c0,0-3.7-1.34-.07,2.49,0,0,7.34,5.17,11.07,5.27C429.15,405,433.62,400.77,430.56,398.82Z"/><path class="cls-13" d="M425.19,398.52s-3.46,1.46-1.63,4.55c-2.34-.83-7.44-3.77-7-5.43.28-1.14,3.45.36,5.25.56.59.06,1.79.19,3.41.32"/><path class="cls-14" d="M420.86,398a26.11,26.11,0,0,1-3-.85s-1.14-.44-1.32.18a1.85,1.85,0,0,0,.68,1.75,11.83,11.83,0,0,0,1.61,1.46s-.66-1.69-.05-2.12A3.22,3.22,0,0,1,420.86,398Z"/><path class="cls-12" d="M429.6,405.68s-7.9-1.32-10-.66c0,0-3.13.49.33-2,0,0,6.58-3,9.54-2.46C429.43,400.58,432.31,404.61,429.6,405.68Z"/><path class="cls-13" d="M425.31,405.09s-2.5-1.68-.59-3.83c-2,.29-6.45,1.82-6.38,3.2.05,1,2.78.25,4.23.37.48,0,1.45.12,2.74.26"/><path class="cls-14" d="M421.81,404.84a20.67,20.67,0,0,0-2.51.21s-1,.17-1-.35a1.47,1.47,0,0,1,.8-1.27,9.26,9.26,0,0,1,1.49-.91s-.77,1.23-.36,1.67A2.63,2.63,0,0,0,421.81,404.84Z"/><path class="cls-12" d="M429,403.91s-3.47,5.19-5,6c0,0-2,1.51,1.3.87,0,0,5.19-2.16,6.49-4.11C431.76,406.72,431,402.94,429,403.91Z"/><path class="cls-13" d="M427,406.65s-.38,2.32,1.87,2.39c-1.22,1-4.48,2.68-5.23,1.91-.51-.53,1.35-1.71,2.05-2.59.24-.3.71-.89,1.31-1.71"/><path class="cls-14" d="M425.27,408.78a15.93,15.93,0,0,1-1.46,1.31s-.61.46-.34.76a1.14,1.14,0,0,0,1.15.23,7.34,7.34,0,0,0,1.31-.37s-1.11-.21-1.14-.68A2,2,0,0,1,425.27,408.78Z"/><path class="cls-12" d="M456.82,406.78s14.88-4.33,19.14-3.55c0,0,6.12.23-1.09-3.72,0,0-13.32-4.2-18.9-2.57C456,396.94,451.36,405.34,456.82,406.78Z"/><path class="cls-13" d="M464.92,404.68s4.43-3.8.26-7.51c3.86.11,12.81,2.05,13,4.71.13,1.83-5.28,1.1-8,1.66-.91.19-2.76.56-5.21,1.14"/><path class="cls-14" d="M471.59,403.39a40.36,40.36,0,0,1,4.87-.17s1.9.12,1.87-.89a2.85,2.85,0,0,0-1.83-2.26,18.42,18.42,0,0,0-3.08-1.41s1.78,2.19,1.07,3.13C474.49,401.79,473.88,402.76,471.59,403.39Z"/><path class="cls-12" d="M456.19,399.47s10.65,11.26,14.71,12.75c0,0,5.4,2.89-2.81,2.66,0,0-13.61-3.12-17.61-7.35C450.48,407.53,450.75,398,456.19,399.47Z"/><path class="cls-13" d="M462.12,405.38s1.9,5.52-3.57,6.61c3.39,1.86,12.08,4.71,13.59,2.51,1-1.51-4-3.62-6.1-5.5-.69-.62-2.1-1.88-3.92-3.62"/><path class="cls-14" d="M467.22,409.87a42.32,42.32,0,0,0,4.12,2.61s1.69.85,1.16,1.71a2.85,2.85,0,0,1-2.73,1,19.12,19.12,0,0,1-3.36-.34s2.64-1,2.5-2.16C468.91,412.72,468.87,411.57,467.22,409.87Z"/><path class="cls-15" d="M455.48,402.76s9.81-7,13.13-7.52c0,0,4.55-1.4-1.75-2.45,0,0-10.85.35-14.52,3C452.34,395.76,451.11,403.11,455.48,402.76Z"/><path class="cls-16" d="M460.89,399.15s2.28-3.93-1.74-5.58c2.86-.91,9.93-1.79,10.75.12.56,1.3-3.6,2.16-5.48,3.28-.62.37-1.88,1.12-3.53,2.18"/><path class="cls-17" d="M465.45,396.49a31.23,31.23,0,0,1,3.53-1.38s1.42-.4,1.14-1.13a2.19,2.19,0,0,0-1.92-1.19,14.14,14.14,0,0,0-2.62-.25s1.87,1.16,1.59,2C467.17,394.56,467,395.43,465.45,396.49Z"/><path class="cls-18" d="M442,384.59s-1.37-14,0-17.71c0,0,1.24-5.43-3.51.34,0,0-6,11.22-5.47,16.48C433,383.7,439.75,389.24,442,384.59Z"/><path class="cls-19" d="M441.44,377s-2.66-4.61-6.68-1.5c.75-3.43,4-11.11,6.4-10.83,1.65.2.1,4.91.13,7.47,0,.85,0,2.56.15,4.86"/><path class="cls-20" d="M441.4,370.81a36.86,36.86,0,0,1,.67-4.38s.42-1.67-.48-1.82a2.6,2.6,0,0,0-2.34,1.26,16.55,16.55,0,0,0-1.77,2.51s2.26-1.22,3-.43A4.55,4.55,0,0,1,441.4,370.81Z"/><path class="cls-12" d="M449.27,414s11.91.28,14.86,1.85c0,0,4.43,1.59.07-3,0,0-8.8-6.18-13.26-6.29C450.94,406.57,445.6,411.66,449.27,414Z"/><path class="cls-13" d="M455.69,414.33s4.14-1.75,1.95-5.44c2.8,1,8.91,4.48,8.43,6.48-.34,1.36-4.13-.42-6.29-.66-.71-.07-2.15-.23-4.09-.38"/><path class="cls-14" d="M460.89,414.94a32.19,32.19,0,0,1,3.61,1s1.36.53,1.57-.22a2.18,2.18,0,0,0-.81-2.08,13.66,13.66,0,0,0-1.93-1.75s.79,2,.06,2.54A3.85,3.85,0,0,1,460.89,414.94Z"/><path class="cls-21" d="M462.28,398.7s13.26,8,17.57,8.38c0,0,6,1.35-2,3.31,0,0-14,.61-18.93-2.4C458.92,408,456.64,398.68,462.28,398.7Z"/><path class="cls-2" d="M469.56,402.82s3.31,4.81-1.68,7.32c3.76.89,12.9,1.33,13.77-1.19.59-1.73-4.82-2.43-7.34-3.68-.84-.42-2.52-1.26-4.75-2.45"/><path class="cls-22" d="M475.68,405.79a41.28,41.28,0,0,0,4.66,1.42s1.86.37,1.57,1.34a2.85,2.85,0,0,1-2.35,1.72,18.62,18.62,0,0,1-3.34.56s2.28-1.66,1.85-2.74C478.07,408.09,477.72,407,475.68,405.79Z"/><path class="cls-21" d="M447.52,394s10.86-4,13.08-6.38c0,0,3.57-2.86,1,2.72,0,0-6.14,8.44-10.21,9.95C451.39,400.24,444.88,397.25,447.52,394Z"/><path class="cls-2" d="M453.32,391.61s4.35.31,3.5,4.4c2.27-1.79,6.78-6.93,5.71-8.61-.74-1.16-3.67,1.68-5.57,2.57-.64.3-1.91.9-3.64,1.64"/><path class="cls-22" d="M457.9,389.42a30.69,30.69,0,0,0,3-2.07s1.09-.91,1.52-.29a2.13,2.13,0,0,1-.09,2.17,14.12,14.12,0,0,1-1.22,2.22s.09-2.11-.75-2.36A3.74,3.74,0,0,0,457.9,389.42Z"/><path class="cls-12" d="M446.32,385.06s14.18-6.24,16.95-9.57c0,0,4.54-4.11,1.56,3.55,0,0-7.52,11.76-12.84,14.1C452,393.14,443.06,389.66,446.32,385.06Z"/><path class="cls-13" d="M453.87,381.46s5.84.07,5,5.59c2.89-2.57,8.5-9.8,6.93-11.95-1.07-1.48-4.75,2.54-7.23,3.89-.82.44-2.47,1.34-4.73,2.47"/><path class="cls-14" d="M459.82,378.17a40.46,40.46,0,0,0,3.84-3s1.38-1.31,2-.52a2.82,2.82,0,0,1,0,2.91,18.5,18.5,0,0,1-1.45,3.06s-.05-2.82-1.19-3.09C463.07,377.53,462,377.18,459.82,378.17Z"/><path class="cls-23" d="M447.67,390.7s6.47-14.08,9.84-16.79c0,0,4.19-4.48-3.52-1.62,0,0-11.89,7.33-14.31,12.61C439.68,384.9,443,393.89,447.67,390.7Z"/><path class="cls-24" d="M451.39,383.21s0-5.84-5.51-5.12c2.62-2.84,9.94-8.34,12.07-6.74,1.46,1.1-2.62,4.71-4,7.17-.46.81-1.38,2.45-2.55,4.69"/><path class="cls-25" d="M454.78,377.32a41.82,41.82,0,0,1,3.06-3.8s1.33-1.35.55-2a2.85,2.85,0,0,0-2.91-.1,18.51,18.51,0,0,0-3.08,1.4s2.82.1,3.07,1.24C455.47,374.07,455.8,375.17,454.78,377.32Z"/><path class="cls-12" d="M450.13,406.89s9.55-2.86,12.29-2.39c0,0,3.94.12-.71-2.38,0,0-8.6-2.63-12.18-1.55C449.53,400.57,446.6,406,450.13,406.89Z"/><path class="cls-13" d="M455.33,405.5s2.83-2.47.13-4.84c2.48.06,8.25,1.25,8.38,3,.09,1.17-3.39.73-5.16,1.11-.59.12-1.78.37-3.35.76"/><path class="cls-14" d="M459.61,404.63a25.89,25.89,0,0,1,3.14-.13s1.22.07,1.19-.58a1.82,1.82,0,0,0-1.19-1.45,11.63,11.63,0,0,0-2-.89s1.15,1.4.7,2A3.25,3.25,0,0,1,459.61,404.63Z"/><path class="cls-12" d="M445.56,395.92s8.93-4.4,11.71-4.38c0,0,3.9-.54-1.1-2.23,0,0-8.9-1.17-12.25.48C443.92,389.79,441.94,395.63,445.56,395.92Z"/><path class="cls-13" d="M450.45,393.69s2.38-2.9-.67-4.78c2.45-.36,8.33-.13,8.75,1.53.28,1.14-3.22,1.29-4.91,1.95-.56.22-1.68.66-3.17,1.3"/><path class="cls-14" d="M454.53,392.13a25.67,25.67,0,0,1,3.06-.65s1.22-.14,1.09-.77a1.85,1.85,0,0,0-1.42-1.23,11.72,11.72,0,0,0-2.1-.55s1.37,1.19,1,1.86C456.19,390.79,455.91,391.47,454.53,392.13Z"/><path class="cls-12" d="M443.22,389.41s7.6-2.51,9.19-4.09c0,0,2.54-1.89.63,1.9,0,0-4.45,5.69-7.3,6.63C445.74,393.85,441.31,391.62,443.22,389.41Z"/><path class="cls-13" d="M447.28,387.93s3,.32,2.31,3.12c1.61-1.17,4.86-4.62,4.16-5.8-.48-.82-2.57,1.07-3.91,1.64-.45.19-1.34.57-2.56,1"/><path class="cls-14" d="M450.5,386.53a20.83,20.83,0,0,0,2.13-1.35s.77-.61,1.05-.17a1.47,1.47,0,0,1-.12,1.5,9.93,9.93,0,0,1-.89,1.5s.11-1.45-.46-1.65A2.62,2.62,0,0,0,450.5,386.53Z"/><path class="cls-12" d="M444.62,390.67s.65-6.2,1.59-7.67c0,0,1-2.25-1.55-.17,0,0-3.6,4.33-3.84,6.66C440.82,389.49,443.25,392.49,444.62,390.67Z"/><path class="cls-13" d="M445.07,387.33s-.74-2.23-2.76-1.24c.63-1.42,2.71-4.46,3.73-4.12.7.23-.39,2.13-.6,3.25-.07.37-.21,1.11-.37,2.11"/><path class="cls-14" d="M445.6,384.65a16.41,16.41,0,0,1,.68-1.84s.34-.69,0-.83a1.15,1.15,0,0,0-1.13.34,7.18,7.18,0,0,0-1,.93s1.09-.33,1.33.07A2,2,0,0,1,445.6,384.65Z"/><path class="cls-12" d="M436.29,382.83s-3.07-6.9-3-9c0,0-.29-3-1.73.77,0,0-1.14,6.71,0,9.29C431.6,383.88,436,385.56,436.29,382.83Z"/><path class="cls-13" d="M434.75,379.06s-2.13-1.9-3.65.36c-.2-1.87.15-6.32,1.42-6.58.88-.18.88,2.48,1.33,3.77.15.43.46,1.3.9,2.45"/><path class="cls-14" d="M433.69,375.92a20.67,20.67,0,0,1-.41-2.34s-.06-.93-.55-.85a1.4,1.4,0,0,0-1,1,8.67,8.67,0,0,0-.48,1.58s.94-1,1.44-.73A2.5,2.5,0,0,1,433.69,375.92Z"/><path class="cls-12" d="M437.91,384.51s3.54-5.14,3.79-6.86c0,0,.69-2.37,1.28.88,0,0-.09,5.63-1.42,7.55C441.56,386.08,437.76,386.78,437.91,384.51Z"/><path class="cls-13" d="M439.74,381.68s2-1.21,2.9.85c.45-1.49.85-5.15-.15-5.56-.68-.28-1.09,1.88-1.65,2.86-.19.33-.57,1-1.1,1.85"/><path class="cls-14" d="M441.08,379.29a16.66,16.66,0,0,0,.68-1.84s.2-.74.58-.6a1.14,1.14,0,0,1,.63,1,7.26,7.26,0,0,1,.15,1.36s-.61-1-1.06-.81C442.06,378.39,441.61,378.5,441.08,379.29Z"/></g><g id="leaves-3" data-name="leaves"><path class="cls-12" d="M428.32,416.07s9.93,10.46,11.11,14.32c0,0,2.42,5.17,2.62-2.48,0,0-2.22-12.82-5.95-16.74C436.1,411.17,427.17,410.94,428.32,416.07Z"/><path class="cls-13" d="M433.51,421.88s5,2.05,6.33-3c1.55,3.24,3.77,11.47,1.65,12.76-1.46.89-3.17-3.9-4.81-5.94-.54-.68-1.64-2-3.17-3.83"/><path class="cls-14" d="M437.43,426.85a38.44,38.44,0,0,1,2.22,4s.71,1.62,1.53,1.16a2.64,2.64,0,0,0,1.09-2.48,17.44,17.44,0,0,0-.14-3.15s-1.06,2.41-2.13,2.23A4.7,4.7,0,0,1,437.43,426.85Z"/><path class="cls-12" d="M422.1,416.84s4.14,14.93,3.31,19.18c0,0-.32,6.12,3.73-1,0,0,4.36-13.27,2.81-18.87C432,416.12,423.61,411.4,422.1,416.84Z"/><path class="cls-13" d="M424.09,425s3.74,4.48,7.51.36c-.16,3.86-2.21,12.78-4.88,12.93-1.82.1-1-5.3-1.56-8.06-.17-.92-.52-2.77-1.07-5.23"/><path class="cls-14" d="M425.3,431.65a41.2,41.2,0,0,1,.1,4.88s-.14,1.89.87,1.88a2.86,2.86,0,0,0,2.29-1.81,18.41,18.41,0,0,0,1.45-3.05s-2.22,1.74-3.15,1C426.86,434.58,425.9,434,425.3,431.65Z"/><path class="cls-12" d="M429.41,416.31s-11.39,10.5-12.93,14.55c0,0-3,5.36-2.63-2.85,0,0,3.3-13.58,7.58-17.51C421.43,410.5,431,410.89,429.41,416.31Z"/><path class="cls-13" d="M423.43,422.16s-5.54,1.83-6.57-3.66c-1.89,3.37-4.86,12-2.68,13.56,1.5,1.05,3.67-3.95,5.58-6,.63-.68,1.91-2.07,3.67-3.87"/><path class="cls-14" d="M418.88,427.2a41.48,41.48,0,0,0-2.67,4.09s-.87,1.68-1.72,1.13a2.82,2.82,0,0,1-1-2.73,18,18,0,0,1,.38-3.37s1,2.66,2.12,2.54C416,428.86,417.15,428.83,418.88,427.2Z"/><path class="cls-15" d="M426.13,415.56s6.87,9.89,7.35,13.22c0,0,1.34,4.57,2.48-1.71,0,0-.21-10.86-2.78-14.57C433.18,412.5,425.84,411.18,426.13,415.56Z"/><path class="cls-16" d="M429.68,421s3.9,2.33,5.6-1.66c.87,2.87,1.66,9.94-.26,10.74-1.31.54-2.11-3.62-3.21-5.52-.36-.63-1.09-1.89-2.13-3.56"/><path class="cls-17" d="M432.28,425.61a30.68,30.68,0,0,1,1.33,3.55s.38,1.42,1.12,1.15a2.2,2.2,0,0,0,1.21-1.91,13.74,13.74,0,0,0,.28-2.61s-1.17,1.85-2,1.56C434.18,427.35,433.32,427.14,432.28,425.61Z"/><path class="cls-18" d="M411.54,406.09s-6.79,14.8-10.33,17.66c0,0-4.4,4.7,3.7,1.69,0,0,12.49-7.71,15-13.26C420,412.18,416.44,402.73,411.54,406.09Z"/><path class="cls-19" d="M407.64,414s0,6.14,5.79,5.37c-2.75,3-10.44,8.78-12.68,7.09-1.54-1.15,2.76-4.95,4.21-7.53.48-.86,1.45-2.58,2.68-4.93"/><path class="cls-20" d="M404.08,420.16a42.21,42.21,0,0,1-3.22,4s-1.39,1.42-.57,2.1a3,3,0,0,0,3.06.1,19.62,19.62,0,0,0,3.23-1.48s-3-.1-3.22-1.3C403.36,423.57,403,422.42,404.08,420.16Z"/><path class="cls-12" d="M415,409.2s-.44,11.91-2,14.83c0,0-1.66,4.41,3,.11,0,0,6.29-8.71,6.45-13.18C422.38,411,417.36,405.56,415,409.2Z"/><path class="cls-13" d="M414.56,415.62s1.7,4.16,5.42,2c-1,2.79-4.6,8.86-6.59,8.35-1.36-.35.48-4.13.74-6.28.08-.71.26-2.15.43-4.08"/><path class="cls-14" d="M413.89,420.8a31.67,31.67,0,0,1-1.06,3.6s-.55,1.36.2,1.58a2.19,2.19,0,0,0,2.09-.79,14.28,14.28,0,0,0,1.78-1.9s-2,.76-2.55,0A3.9,3.9,0,0,1,413.89,420.8Z"/><path class="cls-21" d="M430.11,422.41s-8.2,13.15-8.61,17.46c0,0-1.43,6-3.28-2.05,0,0-.43-14,2.65-18.89C420.87,418.93,430.21,416.76,430.11,422.41Z"/><path class="cls-2" d="M425.9,429.64s-4.86,3.24-7.31-1.78c-.93,3.75-1.49,12.88,1,13.78,1.72.62,2.49-4.78,3.78-7.29.42-.83,1.28-2.5,2.51-4.71"/><path class="cls-22" d="M422.85,435.71a43.23,43.23,0,0,0-1.49,4.64s-.39,1.86-1.36,1.56a2.84,2.84,0,0,1-1.68-2.38,19,19,0,0,1-.53-3.34s1.64,2.3,2.73,1.88C420.52,438.07,421.62,437.74,422.85,435.71Z"/><path class="cls-12" d="M444,406.63s6.05,14.26,9.34,17.07c0,0,4.06,4.59-3.56,1.51,0,0-11.67-7.67-13.94-13C435.8,412.19,439.39,403.3,444,406.63Z"/><path class="cls-13" d="M447.45,414.23s-.14,5.83-5.65,4.95c2.53,2.92,9.69,8.63,11.86,7.09,1.5-1.06-2.48-4.79-3.79-7.28-.44-.83-1.31-2.49-2.42-4.76"/><path class="cls-14" d="M450.67,420.21a40.89,40.89,0,0,0,2.95,3.88s1.29,1.39.49,2a2.83,2.83,0,0,1-2.91,0,18,18,0,0,1-3-1.49s2.82,0,3.1-1.14C451.26,423.48,451.63,422.38,450.67,420.21Z"/><path class="cls-23" d="M440.53,407.93s14,6.65,16.66,10.06c0,0,4.42,4.24,1.66-3.5,0,0-7.17-12-12.42-14.47C446.43,400,437.4,403.23,440.53,407.93Z"/><path class="cls-24" d="M448,411.75s5.84.1,5.19-5.44c2.81,2.65,8.21,10,6.58,12.15-1.12,1.45-4.68-2.68-7.11-4.1-.81-.47-2.44-1.41-4.66-2.61"/><path class="cls-25" d="M453.82,415.22a41.45,41.45,0,0,1,3.75,3.1s1.34,1.35,2,.58a2.85,2.85,0,0,0,.13-2.91,18.24,18.24,0,0,0-1.36-3.1s-.13,2.82-1.28,3.05C457.05,415.94,456,416.26,453.82,415.22Z"/><path class="cls-12" d="M422.07,410.15s2.75,9.58,2.23,12.32c0,0-.17,3.94,2.4-.68,0,0,2.74-8.56,1.71-12.16C428.41,409.63,423,406.64,422.07,410.15Z"/><path class="cls-13" d="M423.4,415.37s2.43,2.86,4.83.19c-.08,2.48-1.36,8.23-3.07,8.35-1.17.07-.69-3.41-1-5.18-.12-.59-.36-1.78-.72-3.36"/><path class="cls-14" d="M424.21,419.66a25.37,25.37,0,0,1,.09,3.14s-.08,1.22.57,1.2a1.82,1.82,0,0,0,1.46-1.17,12,12,0,0,0,.92-2s-1.42,1.13-2,.68A3.24,3.24,0,0,1,424.21,419.66Z"/><path class="cls-12" d="M433.1,405.72s4.29,9,4.23,11.77c0,0,.49,3.91,2.25-1.07,0,0,1.28-8.88-.33-12.25C439.25,404.17,433.45,402.11,433.1,405.72Z"/><path class="cls-13" d="M435.27,410.64s2.87,2.42,4.79-.61c.33,2.46,0,8.34-1.64,8.73-1.15.27-1.25-3.23-1.89-4.93-.21-.56-.64-1.69-1.26-3.19"/><path class="cls-14" d="M436.78,414.74a27.4,27.4,0,0,1,.61,3.07s.12,1.22.75,1.1a1.82,1.82,0,0,0,1.25-1.4,12,12,0,0,0,.58-2.1s-1.21,1.36-1.88,1C438.09,416.42,437.42,416.13,436.78,414.74Z"/><path class="cls-12" d="M439.65,403.47s2.41,7.63,4,9.24c0,0,1.86,2.56-1.91.6,0,0-5.62-4.52-6.52-7.38C435.18,405.93,437.46,401.53,439.65,403.47Z"/><path class="cls-13" d="M441.07,407.55s-.36,3-3.15,2.27c1.16,1.63,4.56,4.92,5.75,4.23.82-.47-1-2.59-1.59-3.93-.19-.45-.55-1.35-1-2.57"/><path class="cls-14" d="M442.43,410.79a21,21,0,0,0,1.33,2.14s.59.78.15,1.06a1.48,1.48,0,0,1-1.5-.14,9.66,9.66,0,0,1-1.49-.92s1.45.14,1.65-.43A2.62,2.62,0,0,0,442.43,410.79Z"/><path class="cls-12" d="M438.37,404.85s6.19.73,7.65,1.69c0,0,2.23,1,.18-1.55,0,0-4.28-3.65-6.6-3.92C439.6,401.07,436.57,403.46,438.37,404.85Z"/><path class="cls-13" d="M441.7,405.34s2.24-.71,1.27-2.74c1.42.65,4.43,2.77,4.08,3.79-.24.69-2.13-.42-3.24-.65l-2.11-.4"/><path class="cls-14" d="M444.37,405.91a15.75,15.75,0,0,1,1.84.71s.68.34.83,0a1.16,1.16,0,0,0-.33-1.13,7.47,7.47,0,0,0-.91-1s.31,1.09-.1,1.33A2,2,0,0,1,444.37,405.91Z"/><path class="cls-12" d="M411.65,382s-15.19-3.09-18.6-5.76c0,0-5.3-3.06-.77,3.8,0,0,9.84,9.91,15.54,11.07C407.82,391.08,415.81,385.79,411.65,382Z"/><path class="cls-13" d="M403.5,380.06s-5.69,1.3-3.73,6.53c-3.36-1.9-10.38-7.78-9.3-10.22.73-1.67,5.18,1.48,7.88,2.27.9.26,2.71.79,5.15,1.42"/><path class="cls-14" d="M397,378.1a41.52,41.52,0,0,1-4.39-2.12s-1.63-1-2.07-.08a2.84,2.84,0,0,0,.57,2.85,18.3,18.3,0,0,0,2.06,2.68s-.55-2.76.51-3.26C393.68,378.17,394.68,377.59,397,378.1Z"/><path class="cls-12" d="M408.8,388.73s-4.18-14.92-7.09-18.13c0,0-3.43-5.07,3.73-1,0,0,10.6,9.1,12.16,14.69C417.6,384.25,412.91,392.61,408.8,388.73Z"/><path class="cls-13" d="M406.3,380.75s.89-5.78,6.24-4.2c-2.13-3.21-8.5-9.79-10.86-8.54-1.61.86,1.85,5.07,2.84,7.7.32.88,1,2.64,1.78,5"/><path class="cls-14" d="M403.88,374.4a42.29,42.29,0,0,0-2.43-4.23s-1.1-1.54-.23-2.05a2.84,2.84,0,0,1,2.89.36,18.31,18.31,0,0,1,2.82,1.86s-2.8-.34-3.22.75C403.71,371.09,403.21,372.12,403.88,374.4Z"/><path class="cls-15" d="M411,386.15s-11.94,1.63-15.12.55c0,0-4.68-.89.4,3,0,0,9.77,4.74,14.25,4.13C410.49,393.81,415,387.88,411,386.15Z"/><path class="cls-16" d="M404.49,386.84s-3.84,2.41-1.06,5.74c-3-.53-9.61-3-9.45-5.1.11-1.42,4.18-.25,6.37-.36.73,0,2.19-.12,4.14-.28"/><path class="cls-17" d="M399.21,387.07a31.42,31.42,0,0,1-3.76-.43s-1.44-.31-1.54.47a2.21,2.21,0,0,0,1.15,1.95,14.14,14.14,0,0,0,2.21,1.44s-1.12-1.89-.47-2.53A3.84,3.84,0,0,1,399.21,387.07Z"/><path class="cls-18" d="M425.75,392.82s-11.92,0-14.9-1.49c0,0-4.48-1.49,0,3,0,0,8.94,6,13.41,6C424.26,400.28,429.47,395.06,425.75,392.82Z"/><path class="cls-19" d="M419.31,392.63s-4.09,1.85-1.81,5.5c-2.82-.92-9-4.27-8.58-6.28.3-1.37,4.14.32,6.29.5.72.06,2.16.18,4.1.28"/><path class="cls-20" d="M414.11,392.15a33.18,33.18,0,0,1-3.64-.92s-1.37-.5-1.57.25a2.2,2.2,0,0,0,.87,2.07,13.86,13.86,0,0,0,2,1.7s-.84-2-.12-2.54A3.88,3.88,0,0,1,414.11,392.15Z"/><path class="cls-12" d="M421.69,379.11s-10.42-5.8-12.3-8.55c0,0-3.18-3.48-1.45,2.6,0,0,4.91,9.56,8.82,11.73C416.76,384.89,423.85,382.88,421.69,379.11Z"/><path class="cls-13" d="M416.16,375.81s-4.48-.37-4.26,3.92c-2-2.18-5.8-8.12-4.44-9.66.93-1.06,3.46,2.29,5.25,3.5.6.4,1.8,1.21,3.45,2.24"/><path class="cls-14" d="M411.85,372.86a31.24,31.24,0,0,1-2.73-2.58s-1-1.1-1.5-.54a2.19,2.19,0,0,0-.25,2.23,14.24,14.24,0,0,0,.89,2.44s.25-2.15,1.14-2.28A3.92,3.92,0,0,1,411.85,372.86Z"/><path class="cls-21" d="M403.05,386.58s-8-13.27-11.65-15.59c0,0-4.66-4,3.32-2,0,0,12.63,6,15.63,10.94C410.35,379.93,408,389.23,403.05,386.58Z"/><path class="cls-2" d="M398.52,379.55s-.68-5.8,4.9-5.7c-2.91-2.54-10.8-7.18-12.74-5.35-1.33,1.25,3.13,4.39,4.78,6.67.55.76,1.65,2.28,3.06,4.38"/><path class="cls-22" d="M394.49,374.07a41.51,41.51,0,0,0-3.46-3.43s-1.47-1.19-.77-1.92a2.86,2.86,0,0,1,2.88-.42,18.63,18.63,0,0,1,3.22,1.05s-2.79.41-2.91,1.57C393.45,370.92,393.24,372.05,394.49,374.07Z"/><path class="cls-12" d="M410.83,406.09s-15.46-1.09-19.46.57c0,0-5.93,1.53.27-3.86,0,0,12.14-6.92,17.93-6.51C409.57,396.29,415.86,403.53,410.83,406.09Z"/><path class="cls-13" d="M402.47,405.75s-5.14-2.77-1.85-7.29c-3.75.93-12.09,4.72-11.7,7.36.26,1.81,5.39,0,8.21-.08.93,0,2.81,0,5.34,0"/><path class="cls-14" d="M395.67,405.9a41,41,0,0,0-4.79.87s-1.83.51-2-.48a2.85,2.85,0,0,1,1.31-2.6,18.89,18.89,0,0,1,2.71-2s-1.27,2.52-.38,3.29C392.5,405,393.3,405.77,395.67,405.9Z"/><path class="cls-23" d="M411.22,402.44s-12.28,9.45-16.53,10.28c0,0-5.78,2,2.36,3.07,0,0,13.94-1,18.54-4.5C415.59,411.29,416.83,401.78,411.22,402.44Z"/><path class="cls-24" d="M404.44,407.34s-2.75,5.15,2.49,7.09c-3.64,1.3-12.67,2.76-13.81.35-.79-1.65,4.51-2.95,6.88-4.48.78-.51,2.36-1.53,4.44-3"/><path class="cls-25" d="M398.7,411a41.87,41.87,0,0,1-4.48,1.94s-1.8.58-1.41,1.5a2.87,2.87,0,0,0,2.53,1.45,18.75,18.75,0,0,0,3.38.19s-2.45-1.4-2.14-2.52C396.58,413.53,396.8,412.4,398.7,411Z"/><path class="cls-12" d="M417.62,385s-9.78-1.91-12-3.61c0,0-3.43-1.94-.48,2.45,0,0,6.39,6.32,10.06,7C415.21,390.87,420.32,387.42,417.62,385Z"/><path class="cls-13" d="M412.37,383.8s-3.66.87-2.36,4.22c-2.18-1.21-6.73-4.95-6.05-6.53.47-1.08,3.35.93,5.09,1.42.58.17,1.75.5,3.32.89"/><path class="cls-14" d="M408.18,382.57a24.84,24.84,0,0,1-2.84-1.34s-1-.62-1.33,0a1.82,1.82,0,0,0,.38,1.84,12.08,12.08,0,0,0,1.34,1.71s-.37-1.78.31-2.11A3.27,3.27,0,0,1,408.18,382.57Z"/><path class="cls-12" d="M416.56,396.82s-10-.26-12.41-1.57c0,0-3.7-1.34-.07,2.49,0,0,7.34,5.17,11.07,5.27C415.15,403,419.62,398.77,416.56,396.82Z"/><path class="cls-13" d="M411.19,396.52s-3.46,1.46-1.63,4.55c-2.34-.83-7.44-3.77-7-5.43.28-1.14,3.45.36,5.25.56.59.06,1.79.19,3.41.32"/><path class="cls-14" d="M406.86,396a26.11,26.11,0,0,1-3-.85s-1.14-.44-1.32.18a1.85,1.85,0,0,0,.68,1.75,11.83,11.83,0,0,0,1.61,1.46s-.66-1.69-.05-2.12A3.22,3.22,0,0,1,406.86,396Z"/><path class="cls-12" d="M415.6,403.68s-7.9-1.32-10-.66c0,0-3.13.49.33-2,0,0,6.58-3,9.54-2.46C415.43,398.58,418.31,402.61,415.6,403.68Z"/><path class="cls-13" d="M411.31,403.09s-2.5-1.68-.59-3.83c-2,.29-6.45,1.82-6.38,3.2.05,1,2.78.25,4.23.37.48,0,1.45.12,2.74.26"/><path class="cls-14" d="M407.81,402.84a20.67,20.67,0,0,0-2.51.21s-1,.17-1-.35a1.47,1.47,0,0,1,.8-1.27,9.26,9.26,0,0,1,1.49-.91s-.77,1.23-.36,1.67A2.63,2.63,0,0,0,407.81,402.84Z"/><path class="cls-12" d="M415,401.91s-3.47,5.19-5,6c0,0-2,1.51,1.3.87,0,0,5.19-2.16,6.49-4.11C417.76,404.72,417,400.94,415,401.91Z"/><path class="cls-13" d="M413,404.65s-.38,2.32,1.87,2.39c-1.22,1-4.48,2.68-5.23,1.91-.51-.53,1.35-1.71,2.05-2.59.24-.3.71-.89,1.31-1.71"/><path class="cls-14" d="M411.27,406.78a15.93,15.93,0,0,1-1.46,1.31s-.61.46-.34.76a1.14,1.14,0,0,0,1.15.23,7.34,7.34,0,0,0,1.31-.37s-1.11-.21-1.14-.68A2,2,0,0,1,411.27,406.78Z"/><path class="cls-12" d="M442.82,404.78s14.88-4.33,19.14-3.55c0,0,6.12.23-1.09-3.72,0,0-13.32-4.2-18.9-2.57C442,394.94,437.36,403.34,442.82,404.78Z"/><path class="cls-13" d="M450.92,402.68s4.43-3.8.26-7.51c3.86.11,12.81,2.05,13,4.71.13,1.83-5.28,1.1-8,1.66-.91.19-2.76.56-5.21,1.14"/><path class="cls-14" d="M457.59,401.39a40.36,40.36,0,0,1,4.87-.17s1.9.12,1.87-.89a2.85,2.85,0,0,0-1.83-2.26,18.42,18.42,0,0,0-3.08-1.41s1.78,2.19,1.07,3.13C460.49,399.79,459.88,400.76,457.59,401.39Z"/><path class="cls-12" d="M442.19,397.47s10.65,11.26,14.71,12.75c0,0,5.4,2.89-2.81,2.66,0,0-13.61-3.12-17.61-7.35C436.48,405.53,436.75,396,442.19,397.47Z"/><path class="cls-13" d="M448.12,403.38s1.9,5.52-3.57,6.61c3.39,1.86,12.08,4.71,13.59,2.51,1-1.51-4-3.62-6.1-5.5-.69-.62-2.1-1.88-3.92-3.62"/><path class="cls-14" d="M453.22,407.87a42.32,42.32,0,0,0,4.12,2.61s1.69.85,1.16,1.71a2.85,2.85,0,0,1-2.73,1,19.12,19.12,0,0,1-3.36-.34s2.64-1,2.5-2.16C454.91,410.72,454.87,409.57,453.22,407.87Z"/><path class="cls-15" d="M441.48,400.76s9.81-7,13.13-7.52c0,0,4.55-1.4-1.75-2.45,0,0-10.85.35-14.52,3C438.34,393.76,437.11,401.11,441.48,400.76Z"/><path class="cls-16" d="M446.89,397.15s2.28-3.93-1.74-5.58c2.86-.91,9.93-1.79,10.75.12.56,1.3-3.6,2.16-5.48,3.28-.62.37-1.88,1.12-3.53,2.18"/><path class="cls-17" d="M451.45,394.49a31.23,31.23,0,0,1,3.53-1.38s1.42-.4,1.14-1.13a2.19,2.19,0,0,0-1.92-1.19,14.14,14.14,0,0,0-2.62-.25s1.87,1.16,1.59,2C453.17,392.56,453,393.43,451.45,394.49Z"/><path class="cls-18" d="M428,382.59s-1.37-14,0-17.71c0,0,1.24-5.43-3.51.34,0,0-6,11.22-5.47,16.48C419,381.7,425.75,387.24,428,382.59Z"/><path class="cls-19" d="M427.44,375s-2.66-4.61-6.68-1.5c.75-3.43,4-11.11,6.4-10.83,1.65.2.1,4.91.13,7.47,0,.85,0,2.56.15,4.86"/><path class="cls-20" d="M427.4,368.81a36.86,36.86,0,0,1,.67-4.38s.42-1.67-.48-1.82a2.6,2.6,0,0,0-2.34,1.26,16.55,16.55,0,0,0-1.77,2.51s2.26-1.22,3-.43A4.55,4.55,0,0,1,427.4,368.81Z"/><path class="cls-12" d="M435.27,412s11.91.28,14.86,1.85c0,0,4.43,1.59.07-3,0,0-8.8-6.18-13.26-6.29C436.94,404.57,431.6,409.66,435.27,412Z"/><path class="cls-13" d="M441.69,412.33s4.14-1.75,1.95-5.44c2.8,1,8.91,4.48,8.43,6.48-.34,1.36-4.13-.42-6.29-.66-.71-.07-2.15-.23-4.09-.38"/><path class="cls-14" d="M446.89,412.94a32.19,32.19,0,0,1,3.61,1s1.36.53,1.57-.22a2.18,2.18,0,0,0-.81-2.08,13.66,13.66,0,0,0-1.93-1.75s.79,2,.06,2.54A3.85,3.85,0,0,1,446.89,412.94Z"/><path class="cls-21" d="M448.28,396.7s13.26,8,17.57,8.38c0,0,6,1.35-2,3.31,0,0-14,.61-18.93-2.4C444.92,406,442.64,396.68,448.28,396.7Z"/><path class="cls-2" d="M455.56,400.82s3.31,4.81-1.68,7.32c3.76.89,12.9,1.33,13.77-1.19.59-1.73-4.82-2.43-7.34-3.68-.84-.42-2.52-1.26-4.75-2.45"/><path class="cls-22" d="M461.68,403.79a41.28,41.28,0,0,0,4.66,1.42s1.86.37,1.57,1.34a2.85,2.85,0,0,1-2.35,1.72,18.62,18.62,0,0,1-3.34.56s2.28-1.66,1.85-2.74C464.07,406.09,463.72,405,461.68,403.79Z"/><path class="cls-21" d="M433.52,392s10.86-4,13.08-6.38c0,0,3.57-2.86,1,2.72,0,0-6.14,8.44-10.21,9.95C437.39,398.24,430.88,395.25,433.52,392Z"/><path class="cls-2" d="M439.32,389.61s4.35.31,3.5,4.4c2.27-1.79,6.78-6.93,5.71-8.61-.74-1.16-3.67,1.68-5.57,2.57-.64.3-1.91.9-3.64,1.64"/><path class="cls-22" d="M443.9,387.42a30.69,30.69,0,0,0,3-2.07s1.09-.91,1.52-.29a2.13,2.13,0,0,1-.09,2.17,14.12,14.12,0,0,1-1.22,2.22s.09-2.11-.75-2.36A3.74,3.74,0,0,0,443.9,387.42Z"/><path class="cls-12" d="M432.32,383.06s14.18-6.24,16.95-9.57c0,0,4.54-4.11,1.56,3.55,0,0-7.52,11.76-12.84,14.1C438,391.14,429.06,387.66,432.32,383.06Z"/><path class="cls-13" d="M439.87,379.46s5.84.07,5,5.59c2.89-2.57,8.5-9.8,6.93-11.95-1.07-1.48-4.75,2.54-7.23,3.89-.82.44-2.47,1.34-4.73,2.47"/><path class="cls-14" d="M445.82,376.17a40.46,40.46,0,0,0,3.84-3s1.38-1.31,2-.52a2.82,2.82,0,0,1,0,2.91,18.5,18.5,0,0,1-1.45,3.06s-.05-2.82-1.19-3.09C449.07,375.53,448,375.18,445.82,376.17Z"/><path class="cls-23" d="M433.67,388.7s6.47-14.08,9.84-16.79c0,0,4.19-4.48-3.52-1.62,0,0-11.89,7.33-14.31,12.61C425.68,382.9,429,391.89,433.67,388.7Z"/><path class="cls-24" d="M437.39,381.21s0-5.84-5.51-5.12c2.62-2.84,9.94-8.34,12.07-6.74,1.46,1.1-2.62,4.71-4,7.17-.46.81-1.38,2.45-2.55,4.69"/><path class="cls-25" d="M440.78,375.32a41.82,41.82,0,0,1,3.06-3.8s1.33-1.35.55-2a2.85,2.85,0,0,0-2.91-.1,18.51,18.51,0,0,0-3.08,1.4s2.82.1,3.07,1.24C441.47,372.07,441.8,373.17,440.78,375.32Z"/><path class="cls-12" d="M436.13,404.89s9.55-2.86,12.29-2.39c0,0,3.94.12-.71-2.38,0,0-8.6-2.63-12.18-1.55C435.53,398.57,432.6,404,436.13,404.89Z"/><path class="cls-13" d="M441.33,403.5s2.83-2.47.13-4.84c2.48.06,8.25,1.25,8.38,3,.09,1.17-3.39.73-5.16,1.11-.59.12-1.78.37-3.35.76"/><path class="cls-14" d="M445.61,402.63a25.89,25.89,0,0,1,3.14-.13s1.22.07,1.19-.58a1.82,1.82,0,0,0-1.19-1.45,11.63,11.63,0,0,0-2-.89s1.15,1.4.7,2A3.25,3.25,0,0,1,445.61,402.63Z"/><path class="cls-12" d="M431.56,393.92s8.93-4.4,11.71-4.38c0,0,3.9-.54-1.1-2.23,0,0-8.9-1.17-12.25.48C429.92,387.79,427.94,393.63,431.56,393.92Z"/><path class="cls-13" d="M436.45,391.69s2.38-2.9-.67-4.78c2.45-.36,8.33-.13,8.75,1.53.28,1.14-3.22,1.29-4.91,1.95-.56.22-1.68.66-3.17,1.3"/><path class="cls-14" d="M440.53,390.13a25.67,25.67,0,0,1,3.06-.65s1.22-.14,1.09-.77a1.85,1.85,0,0,0-1.42-1.23,11.72,11.72,0,0,0-2.1-.55s1.37,1.19,1,1.86C442.19,388.79,441.91,389.47,440.53,390.13Z"/><path class="cls-12" d="M429.22,387.41s7.6-2.51,9.19-4.09c0,0,2.54-1.89.63,1.9,0,0-4.45,5.69-7.3,6.63C431.74,391.85,427.31,389.62,429.22,387.41Z"/><path class="cls-13" d="M433.28,385.93s3,.32,2.31,3.12c1.61-1.17,4.86-4.62,4.16-5.8-.48-.82-2.57,1.07-3.91,1.64-.45.19-1.34.57-2.56,1"/><path class="cls-14" d="M436.5,384.53a20.83,20.83,0,0,0,2.13-1.35s.77-.61,1.05-.17a1.47,1.47,0,0,1-.12,1.5,9.93,9.93,0,0,1-.89,1.5s.11-1.45-.46-1.65A2.62,2.62,0,0,0,436.5,384.53Z"/><path class="cls-12" d="M430.62,388.67s.65-6.2,1.59-7.67c0,0,1-2.25-1.55-.17,0,0-3.6,4.33-3.84,6.66C426.82,387.49,429.25,390.49,430.62,388.67Z"/><path class="cls-13" d="M431.07,385.33s-.74-2.23-2.76-1.24c.63-1.42,2.71-4.46,3.73-4.12.7.23-.39,2.13-.6,3.25-.07.37-.21,1.11-.37,2.11"/><path class="cls-14" d="M431.6,382.65a16.41,16.41,0,0,1,.68-1.84s.34-.69,0-.83a1.15,1.15,0,0,0-1.13.34,7.18,7.18,0,0,0-1,.93s1.09-.33,1.33.07A2,2,0,0,1,431.6,382.65Z"/><path class="cls-12" d="M422.29,380.83s-3.07-6.9-3-9c0,0-.29-3-1.73.77,0,0-1.14,6.71,0,9.29C417.6,381.88,422,383.56,422.29,380.83Z"/><path class="cls-13" d="M420.75,377.06s-2.13-1.9-3.65.36c-.2-1.87.15-6.32,1.42-6.58.88-.18.88,2.48,1.33,3.77.15.43.46,1.3.9,2.45"/><path class="cls-14" d="M419.69,373.92a20.67,20.67,0,0,1-.41-2.34s-.06-.93-.55-.85a1.4,1.4,0,0,0-1,1,8.67,8.67,0,0,0-.48,1.58s.94-1,1.44-.73A2.5,2.5,0,0,1,419.69,373.92Z"/><path class="cls-12" d="M423.91,382.51s3.54-5.14,3.79-6.86c0,0,.69-2.37,1.28.88,0,0-.09,5.63-1.42,7.55C427.56,384.08,423.76,384.78,423.91,382.51Z"/><path class="cls-13" d="M425.74,379.68s2-1.21,2.9.85c.45-1.49.85-5.15-.15-5.56-.68-.28-1.09,1.88-1.65,2.86-.19.33-.57,1-1.1,1.85"/><path class="cls-14" d="M427.08,377.29a16.66,16.66,0,0,0,.68-1.84s.2-.74.58-.6a1.14,1.14,0,0,1,.63,1,7.26,7.26,0,0,1,.15,1.36s-.61-1-1.06-.81C428.06,376.39,427.61,376.5,427.08,377.29Z"/></g><g id="leaves-4" data-name="leaves"><path class="cls-12" d="M437.75,433.09s17.59,18.53,19.67,25.36c0,0,4.28,9.15,4.63-4.4,0,0-3.93-22.69-10.53-29.64C451.52,424.41,435.72,424,437.75,433.09Z"/><path class="cls-13" d="M446.94,443.37s8.92,3.63,11.21-5.29c2.75,5.75,6.68,20.32,2.92,22.6-2.58,1.57-5.61-6.9-8.52-10.52-1-1.21-2.9-3.62-5.61-6.79"/><path class="cls-14" d="M453.87,452.18s3.46,5.52,3.94,7c0,0,1.25,2.86,2.71,2.06a4.72,4.72,0,0,0,1.94-4.4s.12-4.69-.26-5.57c0,0-1.88,4.26-3.78,3.94C458.42,455.22,456.54,455.05,453.87,452.18Z"/><path class="cls-12" d="M426.74,434.46s7.33,26.44,5.85,34c0,0-.55,10.83,6.61-1.83,0,0,7.73-23.49,5-33.4C444.18,433.19,429.41,424.83,426.74,434.46Z"/><path class="cls-13" d="M430.27,448.84s6.62,7.94,13.29.65c-.29,6.83-3.92,22.62-8.64,22.89-3.23.18-1.83-9.38-2.75-14.27-.31-1.63-.93-4.9-1.9-9.27"/><path class="cls-14" d="M432.4,460.69s.49,7,.19,8.62c0,0-.26,3.35,1.53,3.33a5,5,0,0,0,4.05-3.19s2.48-4.39,2.57-5.41c0,0-3.93,3.09-5.57,1.82C435.17,465.86,433.47,464.75,432.4,460.69Z"/><path class="cls-12" d="M439.69,433.52s-20.18,18.58-22.9,25.75c0,0-5.24,9.49-4.65-5,0,0,5.84-24,13.41-31C425.55,423.23,442.51,423.93,439.69,433.52Z"/><path class="cls-13" d="M429.1,443.87s-9.82,3.25-11.63-6.47c-3.36,6-8.61,21.29-4.74,24,2.64,1.86,6.5-7,9.87-10.66,1.12-1.22,3.37-3.67,6.5-6.87"/><path class="cls-14" d="M421,452.8s-4.1,5.68-4.72,7.23c0,0-1.55,3-3.05,2a5.06,5.06,0,0,1-1.76-4.85s.21-5,.68-5.95c0,0,1.7,4.7,3.76,4.49C416,455.74,418,455.69,421,452.8Z"/><path class="cls-15" d="M433.88,432.19s12.16,17.52,13,23.41c0,0,2.37,8.09,4.37-3,0,0-.36-19.21-4.92-25.78C446.35,426.78,433.37,424.44,433.88,432.19Z"/><path class="cls-16" d="M440.16,441.84s6.9,4.12,9.92-2.95c1.54,5.09,2.93,17.61-.46,19-2.32,1-3.75-6.41-5.69-9.76-.64-1.12-1.94-3.36-3.77-6.31"/><path class="cls-17" d="M444.77,450a56.25,56.25,0,0,1,2.35,6.28s.67,2.53,2,2.05a3.94,3.94,0,0,0,2.15-3.38,25.36,25.36,0,0,0,.5-4.63s-2.09,3.27-3.62,2.77C448.13,453.07,446.6,452.69,444.77,450Z"/><path class="cls-18" d="M408.05,415.42s-12,26.22-18.29,31.27c0,0-7.79,8.32,6.55,3,0,0,22.11-13.65,26.62-23.48C422.93,426.21,416.72,409.48,408.05,415.42Z"/><path class="cls-19" d="M401.14,429.37s-.05,10.87,10.26,9.52c-4.87,5.3-18.48,15.54-22.45,12.55-2.72-2,4.88-8.77,7.45-13.34.85-1.51,2.57-4.56,4.74-8.73"/><path class="cls-20" d="M394.84,440.34s-4.34,5.94-5.69,7.06c0,0-2.48,2.52-1,3.71a5.27,5.27,0,0,0,5.41.18s5-1.85,5.73-2.61c0,0-5.25-.18-5.71-2.3C393.56,446.38,393,444.33,394.84,440.34Z"/><path class="cls-12" d="M414.16,420.93s-.79,21.09-3.62,26.26c0,0-2.93,7.81,5.28.2,0,0,11.13-15.43,11.42-23.34C427.24,424.05,418.36,414.48,414.16,420.93Z"/><path class="cls-2" d="M413.4,432.3s3,7.36,9.59,3.56c-1.8,4.94-8.14,15.68-11.66,14.77-2.41-.62.84-7.29,1.3-11.1.15-1.27.46-3.81.77-7.23"/><path class="cls-14" d="M412.2,441.47a56.63,56.63,0,0,1-1.87,6.38s-1,2.39.35,2.79a3.86,3.86,0,0,0,3.71-1.4,25.11,25.11,0,0,0,3.15-3.37s-3.6,1.36-4.51.05C413,445.92,412,444.7,412.2,441.47Z"/><path class="cls-21" d="M440.92,444.32s-14.51,23.28-15.23,30.91c0,0-2.54,10.54-5.82-3.63,0,0-.75-24.71,4.69-33.44C424.56,438.16,441.09,434.32,440.92,444.32Z"/><path class="cls-2" d="M433.46,457.11s-8.6,5.74-12.93-3.15c-1.65,6.64-2.65,22.81,1.8,24.4,3.05,1.09,4.41-8.47,6.69-12.9.76-1.48,2.28-4.44,4.44-8.35"/><path class="cls-22" d="M428.07,467.87s-2.45,6.55-2.63,8.22c0,0-.7,3.28-2.41,2.75a5,5,0,0,1-3-4.21s-1.14-4.9-.93-5.91c0,0,2.89,4.07,4.82,3.33C423.94,472.05,425.89,471.46,428.07,467.87Z"/><path class="cls-12" d="M465.44,416.38S476.15,441.63,482,446.6c0,0,7.18,8.13-6.31,2.68,0,0-20.66-13.58-24.68-23C451,426.23,457.35,410.49,465.44,416.38Z"/><path class="cls-13" d="M471.62,429.83s-.24,10.34-10,8.77c4.48,5.17,17.14,15.28,21,12.55,2.64-1.87-4.4-8.48-6.72-12.89-.77-1.46-2.32-4.41-4.28-8.43"/><path class="cls-14" d="M477.32,440.42s4,5.78,5.22,6.88c0,0,2.29,2.46.87,3.55a5,5,0,0,1-5.15,0s-4.67-1.89-5.38-2.64c0,0,5,0,5.49-2C478.37,446.21,479,444.28,477.32,440.42Z"/><path class="cls-23" d="M459.36,418.69s24.78,11.77,29.51,17.81c0,0,7.82,7.51,2.94-6.2,0,0-12.7-21.21-22-25.62C469.81,404.68,453.83,410.37,459.36,418.69Z"/><path class="cls-24" d="M472.55,425.44s10.33.19,9.18-9.63c5,4.7,14.54,17.78,11.65,21.52-2,2.56-8.28-4.76-12.59-7.26-1.43-.83-4.31-2.51-8.24-4.63"/><path class="cls-25" d="M482.89,431.58s5.6,4.2,6.65,5.51c0,0,2.36,2.38,3.51,1a5,5,0,0,0,.24-5.16s-1.69-4.74-2.41-5.48c0,0-.23,5-2.26,5.4C488.62,432.87,486.67,433.43,482.89,431.58Z"/><path class="cls-12" d="M426.69,422.61s4.86,17,3.95,21.82c0,0-.3,7,4.24-1.21,0,0,4.85-15.16,3-21.52C437.91,421.7,428.36,416.4,426.69,422.61Z"/><path class="cls-13" d="M429,431.85s4.3,5.07,8.56.34c-.15,4.4-2.4,14.58-5.44,14.78-2.08.13-1.23-6-1.85-9.17-.21-1.05-.62-3.15-1.27-5.95"/><path class="cls-14" d="M430.47,439.46a45.32,45.32,0,0,1,.17,5.55s-.14,2.16,1,2.13a3.26,3.26,0,0,0,2.59-2.08,21,21,0,0,0,1.62-3.49s-2.51,2-3.57,1.2C432.29,442.77,431.19,442.07,430.47,439.46Z"/><path class="cls-12" d="M446.22,414.78s7.58,15.91,7.49,20.84c0,0,.86,6.91,4-1.9,0,0,2.27-15.73-.58-21.7C457.11,412,446.83,408.38,446.22,414.78Z"/><path class="cls-13" d="M450.05,423.49s5.08,4.28,8.49-1.08c.58,4.36,0,14.76-2.91,15.45-2,.48-2.21-5.73-3.34-8.72-.38-1-1.14-3-2.24-5.65"/><path class="cls-14" d="M452.72,430.74a47.87,47.87,0,0,1,1.09,5.44s.21,2.15,1.34,1.94a3.27,3.27,0,0,0,2.21-2.47,21.08,21.08,0,0,0,1-3.72s-2.14,2.4-3.32,1.78C455.06,433.71,453.86,433.2,452.72,430.74Z"/><path class="cls-12" d="M457.81,410.79s4.26,13.51,7,16.36c0,0,3.29,4.54-3.38,1.07,0,0-10-8-11.56-13.08C449.89,415.14,453.94,407.36,457.81,410.79Z"/><path class="cls-13" d="M460.33,418s-.64,5.31-5.58,4c2,2.88,8.06,8.7,10.18,7.49,1.45-.83-1.84-4.58-2.82-7-.32-.79-1-2.38-1.78-4.55"/><path class="cls-14" d="M462.73,423.74a38.29,38.29,0,0,0,2.35,3.8s1.05,1.38.27,1.87a2.6,2.6,0,0,1-2.65-.25,17,17,0,0,1-2.64-1.62s2.57.24,2.93-.77A4.64,4.64,0,0,0,462.73,423.74Z"/><path class="cls-12" d="M455.54,413.23s11,1.3,13.54,3c0,0,4,1.86.33-2.74,0,0-7.58-6.46-11.69-6.94C457.72,406.54,452.35,410.77,455.54,413.23Z"/><path class="cls-13" d="M461.43,414.11s4-1.26,2.27-4.86c2.5,1.15,7.83,4.91,7.21,6.71-.42,1.23-3.77-.75-5.73-1.15-.66-.13-2-.4-3.75-.7"/><path class="cls-14" d="M466.17,415.12a29.7,29.7,0,0,1,3.25,1.24s1.21.61,1.47-.06a2,2,0,0,0-.57-2,13.26,13.26,0,0,0-1.63-1.78s.56,1.93-.17,2.35A3.54,3.54,0,0,1,466.17,415.12Z"/><path class="cls-12" d="M408.24,372.74s-26.88-5.48-32.92-10.21c0,0-9.39-5.41-1.37,6.72,0,0,17.42,17.55,27.5,19.6C401.45,388.85,415.61,379.49,408.24,372.74Z"/><path class="cls-13" d="M393.82,369.35s-10.08,2.29-6.61,11.55c-5.95-3.36-18.38-13.77-16.47-18.09,1.3-3,9.18,2.63,14,4,1.59.47,4.78,1.4,9.11,2.52"/><path class="cls-14" d="M382.3,365.87s-6.44-2.74-7.77-3.75c0,0-2.87-1.75-3.66-.14a5.05,5.05,0,0,0,1,5.06s2.78,4.2,3.66,4.74c0,0-1-4.9.9-5.79C376.43,366,378.19,365,382.3,365.87Z"/><path class="cls-12" d="M403.2,384.7s-7.4-26.42-12.55-32.1c0,0-6.08-9,6.6-1.85,0,0,18.76,16.11,21.53,26C418.78,376.77,410.46,391.56,403.2,384.7Z"/><path class="cls-13" d="M398.78,370.56s1.56-10.22,11.05-7.42c-3.79-5.7-15.06-17.34-19.24-15.13-2.86,1.52,3.29,9,5,13.64.58,1.56,1.74,4.68,3.17,8.91"/><path class="cls-14" d="M394.48,359.33s-3.19-6.23-4.3-7.49c0,0-1.95-2.73-.41-3.64a5,5,0,0,1,5.12.64s4.39,2.47,5,3.3c0,0-5-.61-5.71,1.32C394.18,353.46,393.3,355.29,394.48,359.33Z"/><path class="cls-15" d="M407,380.13s-21.13,2.88-26.77,1c0,0-8.29-1.56.72,5.28,0,0,17.29,8.4,25.21,7.32C406.18,393.69,414.16,383.18,407,380.13Z"/><path class="cls-16" d="M395.57,381.34s-6.81,4.28-1.88,10.18c-5.23-.94-17-5.38-16.73-9,.2-2.5,7.41-.43,11.28-.63,1.28-.07,3.87-.21,7.33-.5"/><path class="cls-17" d="M386.23,381.75a56.86,56.86,0,0,1-6.67-.75s-2.55-.55-2.72.83a3.91,3.91,0,0,0,2,3.45,24.86,24.86,0,0,0,3.91,2.54s-2-3.34-.83-4.47C382,383.35,383,382.15,386.23,381.75Z"/><path class="cls-18" d="M433.2,391.94s-21.11,0-26.38-2.63c0,0-7.92-2.64,0,5.27,0,0,15.83,10.55,23.74,10.55C430.56,405.13,439.79,395.9,433.2,391.94Z"/><path class="cls-19" d="M421.81,391.6s-7.25,3.28-3.21,9.73c-5-1.62-16-7.56-15.19-11.11.53-2.43,7.32.57,11.14.89,1.27.1,3.83.32,7.26.49"/><path class="cls-20" d="M412.59,390.75a55.28,55.28,0,0,1-6.43-1.63s-2.44-.88-2.78.45a3.87,3.87,0,0,0,1.53,3.66,25.12,25.12,0,0,0,3.49,3s-1.49-3.55-.22-4.51C408.18,391.74,409.36,390.71,412.59,390.75Z"/><path class="cls-12" d="M426,367.66s-18.44-10.27-21.76-15.14c0,0-5.63-6.16-2.57,4.61,0,0,8.69,16.92,15.6,20.77C417.28,377.9,429.84,374.33,426,367.66Z"/><path class="cls-13" d="M416.22,361.82s-7.92-.66-7.53,6.94c-3.58-3.85-10.27-14.38-7.87-17.1,1.65-1.87,6.12,4.06,9.31,6.2,1.05.71,3.18,2.14,6.09,4"/><path class="cls-14" d="M408.59,356.59a56,56,0,0,1-4.83-4.55s-1.7-2-2.65-1a3.87,3.87,0,0,0-.44,3.94,24.73,24.73,0,0,0,1.58,4.33s.43-3.82,2-4C404.25,355.32,405.78,355,408.59,356.59Z"/><path class="cls-21" d="M393,380.89s-14.16-23.5-20.63-27.6c0,0-8.25-7.05,5.87-3.54,0,0,22.37,10.55,27.67,19.36C405.93,369.11,401.84,385.58,393,380.89Z"/><path class="cls-2" d="M385,368.44s-1.21-10.27,8.68-10.09c-5.16-4.49-19.13-12.72-22.56-9.47-2.36,2.22,5.55,7.77,8.46,11.81,1,1.35,2.92,4,5.42,7.75"/><path class="cls-22" d="M377.87,358.75s-4.73-5.16-6.13-6.07c0,0-2.61-2.12-1.36-3.4a5,5,0,0,1,5.1-.75s4.89,1.22,5.69,1.86c0,0-4.94.72-5.15,2.78C376,353.17,375.66,355.17,377.87,358.75Z"/><path class="cls-12" d="M406.79,415.42s-27.37-1.92-34.45,1c0,0-10.5,2.7.48-6.84,0,0,21.48-12.24,31.74-11.52C404.56,398.08,415.7,410.89,406.79,415.42Z"/><path class="cls-13" d="M392,414.83s-9.1-4.91-3.27-12.9c-6.64,1.64-21.4,8.34-20.72,13,.47,3.2,9.55-.07,14.53-.14,1.66,0,5-.06,9.46,0"/><path class="cls-14" d="M380,415.1s-6.94.91-8.49,1.53c0,0-3.24.91-3.57-.84a5.06,5.06,0,0,1,2.32-4.61s3.81-3.3,4.8-3.59c0,0-2.25,4.46-.69,5.82C374.33,413.41,375.76,414.85,380,415.1Z"/><path class="cls-23" d="M407.48,409s-21.73,16.74-29.26,18.2c0,0-10.24,3.56,4.18,5.44,0,0,24.67-1.69,32.82-8C415.22,424.63,417.41,407.8,407.48,409Z"/><path class="cls-24" d="M395.48,417.64s-4.86,9.12,4.41,12.55c-6.44,2.31-22.44,4.89-24.46.62-1.38-2.93,8-5.22,12.18-7.93,1.4-.89,4.19-2.7,7.87-5.24"/><path class="cls-25" d="M385.31,424.07s-6.28,3.08-7.92,3.42c0,0-3.2,1-2.5,2.67a5,5,0,0,0,4.48,2.56s5,.64,6,.34c0,0-4.34-2.47-3.79-4.47C381.56,428.59,382,426.59,385.31,424.07Z"/><path class="cls-12" d="M418.82,378.07s-17.33-3.38-21.24-6.39c0,0-6.07-3.43-.84,4.33,0,0,11.3,11.2,17.8,12.47C414.54,388.48,423.6,382.37,418.82,378.07Z"/><path class="cls-13" d="M409.52,376s-6.47,1.53-4.19,7.47c-3.85-2.14-11.9-8.76-10.7-11.55.83-1.92,5.93,1.64,9,2.51,1,.29,3.09.87,5.88,1.57"/><path class="cls-14" d="M402.09,373.79a45.66,45.66,0,0,1-5-2.37s-1.86-1.11-2.36-.07a3.26,3.26,0,0,0,.68,3.25,21,21,0,0,0,2.37,3s-.65-3.15.55-3.73C398.31,373.9,399.44,373.24,402.09,373.79Z"/><path class="cls-12" d="M416.94,399s-17.63-.46-22-2.78c0,0-6.55-2.38-.11,4.4,0,0,13,9.16,19.59,9.34C414.44,410,422.36,402.47,416.94,399Z"/><path class="cls-13" d="M407.43,398.49s-6.12,2.57-2.89,8.05c-4.14-1.47-13.17-6.67-12.45-9.61.5-2,6.11.63,9.29,1,1.06.12,3.19.35,6.05.58"/><path class="cls-14" d="M399.75,397.57a46.77,46.77,0,0,1-5.33-1.5s-2-.79-2.34.31a3.25,3.25,0,0,0,1.2,3.09,21,21,0,0,0,2.85,2.6s-1.16-3-.08-3.77C396.05,398.3,397.05,397.47,399.75,397.57Z"/><path class="cls-12" d="M415.23,411.16s-14-2.34-17.77-1.17c0,0-5.53.87.59-3.5,0,0,11.65-5.24,16.89-4.36C414.94,402.13,420,409.27,415.23,411.16Z"/><path class="cls-13" d="M407.65,410.12s-4.44-3-1-6.79c-3.5.52-11.42,3.24-11.3,5.67.09,1.67,4.92.44,7.49.65.85.07,2.56.21,4.86.47"/><path class="cls-14" d="M401.45,409.67A38.25,38.25,0,0,0,397,410s-1.7.31-1.79-.61a2.6,2.6,0,0,1,1.42-2.25,16.61,16.61,0,0,1,2.65-1.62s-1.38,2.19-.64,3A4.56,4.56,0,0,0,401.45,409.67Z"/><path class="cls-12" d="M414.08,408s-6.13,9.18-8.81,10.71c0,0-3.45,2.68,2.29,1.53,0,0,9.19-3.82,11.49-7.26C419.05,413,417.72,406.31,414.08,408Z"/><path class="cls-13" d="M410.62,412.88s-.68,4.11,3.3,4.23c-2.16,1.7-7.93,4.75-9.25,3.38-.9-.94,2.38-3,3.63-4.59.41-.52,1.25-1.57,2.32-3"/><path class="cls-14" d="M407.57,416.65A29.15,29.15,0,0,1,405,419s-1.09.81-.61,1.35a2,2,0,0,0,2,.39,12.45,12.45,0,0,0,2.32-.64s-2-.38-2-1.21A3.65,3.65,0,0,1,407.57,416.65Z"/><path class="cls-12" d="M463.42,413.11s26.34-7.67,33.88-6.29c0,0,10.84.41-1.92-6.59,0,0-23.58-7.42-33.46-4.54C461.92,395.69,453.75,410.56,463.42,413.11Z"/><path class="cls-13" d="M477.76,409.39s7.85-6.72.47-13.3c6.83.21,22.67,3.63,23,8.35.22,3.23-9.35,1.95-14.24,2.94-1.62.33-4.88,1-9.23,2"/><path class="cls-14" d="M489.57,407.11s7-.58,8.62-.3c0,0,3.36.21,3.31-1.57a5,5,0,0,0-3.24-4s-4.42-2.43-5.45-2.5c0,0,3.14,3.88,1.9,5.54C494.71,404.27,493.62,406,489.57,407.11Z"/><path class="cls-12" d="M462.31,400.18s18.85,19.93,26.05,22.56c0,0,9.56,5.12-5,4.71,0,0-24.1-5.53-31.16-13C452.21,414.44,452.68,397.48,462.31,400.18Z"/><path class="cls-13" d="M472.8,410.63s3.37,9.77-6.32,11.71c6,3.28,21.4,8.34,24.06,4.43,1.83-2.67-7.08-6.41-10.79-9.73-1.23-1.11-3.71-3.33-6.95-6.41"/><path class="cls-14" d="M481.84,418.57s5.72,4,7.28,4.62c0,0,3,1.52,2.06,3a5.05,5.05,0,0,1-4.83,1.82s-5-.14-6-.6c0,0,4.68-1.76,4.44-3.82C484.83,423.62,484.76,421.59,481.84,418.57Z"/><path class="cls-15" d="M461.06,406s17.35-12.39,23.24-13.32c0,0,8.06-2.47-3.1-4.34,0,0-19.21.62-25.72,5.26C455.48,393.6,453.31,406.62,461.06,406Z"/><path class="cls-16" d="M470.62,399.59s4-6.95-3.07-9.88c5.07-1.6,17.57-3.16,19,.22,1,2.31-6.36,3.83-9.69,5.81-1.1.66-3.33,2-6.26,3.85"/><path class="cls-17" d="M478.7,394.88a56.8,56.8,0,0,1,6.25-2.43s2.52-.71,2-2a3.94,3.94,0,0,0-3.41-2.11,25.52,25.52,0,0,0-4.64-.43s3.3,2,2.82,3.58C481.75,391.48,481.39,393,478.7,394.88Z"/><path class="cls-18" d="M437.1,373.83s-2.43-24.84.07-31.36c0,0,2.19-9.61-6.21.61,0,0-10.6,19.85-9.69,29.16C421.27,372.24,433.2,382.05,437.1,373.83Z"/><path class="cls-19" d="M436.19,360.39s-4.7-8.16-11.82-2.66c1.34-6.08,7.06-19.67,11.33-19.17,2.92.35.17,8.69.24,13.23,0,1.5.06,4.53.25,8.6"/><path class="cls-20" d="M436.13,349.44a65.28,65.28,0,0,1,1.18-7.77s.75-3-.85-3.22a4.59,4.59,0,0,0-4.13,2.23s-2.91,3.54-3.15,4.45c0,0,4-2.16,5.27-.77C434.45,344.36,435.8,345.63,436.13,349.44Z"/><path class="cls-12" d="M450.05,425.87s21.1.51,26.31,3.27c0,0,7.85,2.83.13-5.27,0,0-15.57-10.94-23.48-11.13C453,412.74,443.55,421.75,450.05,425.87Z"/><path class="cls-13" d="M461.43,426.48s7.32-3.1,3.44-9.64c5,1.74,15.78,7.94,14.92,11.47-.59,2.42-7.31-.75-11.12-1.16-1.27-.13-3.81-.41-7.24-.67"/><path class="cls-14" d="M470.62,427.56a57.54,57.54,0,0,1,6.4,1.78s2.41.94,2.79-.38a3.89,3.89,0,0,0-1.45-3.7,25.34,25.34,0,0,0-3.41-3.1s1.4,3.59.1,4.51C475.05,426.67,473.85,427.67,470.62,427.56Z"/><path class="cls-21" d="M473.09,398.8S496.56,413,504.2,413.63c0,0,10.57,2.4-3.55,5.87,0,0-24.71,1.07-33.51-4.26C467.14,415.24,463.1,398.76,473.09,398.8Z"/><path class="cls-2" d="M486,406.09s5.85,8.53-3,13c6.66,1.57,22.84,2.36,24.38-2.11,1.05-3.07-8.53-4.3-13-6.52-1.49-.74-4.47-2.22-8.41-4.34"/><path class="cls-22" d="M496.81,411.35s6.59,2.36,8.25,2.52c0,0,3.29.66,2.79,2.37a5.05,5.05,0,0,1-4.17,3s-4.9,1.2-5.91,1c0,0,4-3,3.27-4.87C501,415.42,500.43,413.48,496.81,411.35Z"/><path class="cls-21" d="M447,390.4s19.23-7.11,23.15-11.29c0,0,6.32-5.07,1.78,4.81,0,0-10.87,14.94-18.08,17.61C453.81,401.53,442.29,396.23,447,390.4Z"/><path class="cls-2" d="M457.22,386.26s7.71.54,6.2,7.77c4-3.16,12-12.26,10.1-15.24-1.3-2-6.48,3-9.85,4.57-1.12.52-3.38,1.58-6.45,2.9"/><path class="cls-22" d="M465.33,382.37a54.43,54.43,0,0,0,5.32-3.65s1.92-1.62,2.68-.53a3.76,3.76,0,0,1-.16,3.85A23.94,23.94,0,0,1,471,386s.16-3.73-1.32-4.17C469.69,381.79,468.27,381.25,465.33,382.37Z"/><path class="cls-12" d="M444.83,374.65s25.12-11,30-16.94c0,0,8-7.28,2.76,6.28,0,0-13.31,20.84-22.73,25C454.87,389,439.06,382.81,444.83,374.65Z"/><path class="cls-13" d="M458.21,368.29s10.34.11,8.9,9.89c5.11-4.54,15.05-17.34,12.27-21.16-1.9-2.62-8.42,4.51-12.8,6.88-1.45.79-4.38,2.38-8.37,4.39"/><path class="cls-14" d="M468.73,362.45s5.72-4,6.8-5.3c0,0,2.44-2.32,3.55-.92a5,5,0,0,1,.09,5.16s-1.83,4.69-2.57,5.41c0,0-.09-5-2.11-5.47C474.49,361.33,472.56,360.71,468.73,362.45Z"/><path class="cls-23" d="M447.23,384.65s11.44-24.93,17.42-29.74c0,0,7.41-7.91-6.23-2.86,0,0-21.05,13-25.34,22.33C433.08,374.38,439,390.29,447.23,384.65Z"/><path class="cls-24" d="M453.81,371.38s.05-10.34-9.75-9.06c4.63-5,17.59-14.77,21.36-11.93,2.59,1.94-4.64,8.34-7.09,12.68-.81,1.45-2.45,4.35-4.52,8.31"/><path class="cls-25" d="M459.81,361s4.13-5.65,5.42-6.72c0,0,2.36-2.39,1-3.52a5,5,0,0,0-5.16-.18s-4.72,1.76-5.45,2.48c0,0,5,.17,5.43,2.2C461,355.21,461.61,357.15,459.81,361Z"/><path class="cls-12" d="M451.57,413.31s16.91-5.08,21.77-4.23c0,0,7,.21-1.27-4.23,0,0-15.21-4.64-21.55-2.74C450.52,402.11,445.34,411.73,451.57,413.31Z"/><path class="cls-13" d="M460.78,410.84s5-4.37.23-8.56c4.4.1,14.61,2.22,14.84,5.25.17,2.07-6,1.3-9.14,2-1,.22-3.14.66-5.93,1.34"/><path class="cls-14" d="M468.37,409.31a46.67,46.67,0,0,1,5.55-.24s2.15.12,2.11-1a3.22,3.22,0,0,0-2.1-2.56,21,21,0,0,0-3.52-1.58s2,2.48,1.25,3.55C471.66,407.45,471,408.56,468.37,409.31Z"/><path class="cls-12" d="M443.49,393.89s15.81-7.79,20.74-7.76c0,0,6.9-.95-2-4,0,0-15.76-2.06-21.69.86C440.59,383,437.08,393.36,443.49,393.89Z"/><path class="cls-13" d="M452.15,389.94s4.21-5.13-1.19-8.47c4.35-.63,14.75-.23,15.49,2.71.5,2-5.7,2.28-8.68,3.45-1,.39-3,1.18-5.62,2.31"/><path class="cls-14" d="M459.37,387.18a46.9,46.9,0,0,1,5.42-1.16s2.15-.24,1.92-1.36a3.26,3.26,0,0,0-2.5-2.18,20.91,20.91,0,0,0-3.73-1s2.43,2.11,1.82,3.29C462.3,384.8,461.8,386,459.37,387.18Z"/><path class="cls-12" d="M439.34,382.35s13.47-4.44,16.28-7.23c0,0,4.49-3.35,1.11,3.37,0,0-7.88,10.06-12.93,11.72C443.8,390.21,436,386.27,439.34,382.35Z"/><path class="cls-13" d="M446.54,379.74s5.31.57,4.09,5.53c2.85-2.09,8.59-8.18,7.35-10.28-.85-1.44-4.55,1.9-6.92,2.91-.79.33-2.37,1-4.52,1.84"/><path class="cls-14" d="M452.24,377.26a37.78,37.78,0,0,0,3.76-2.4s1.36-1.07,1.87-.29a2.59,2.59,0,0,1-.21,2.65,16.54,16.54,0,0,1-1.59,2.66s.2-2.57-.81-2.92A4.6,4.6,0,0,0,452.24,377.26Z"/><path class="cls-12" d="M441.82,384.59s1.15-11,2.81-13.58c0,0,1.81-4-2.74-.29,0,0-6.36,7.66-6.79,11.78C435.1,382.5,439.4,387.81,441.82,384.59Z"/><path class="cls-13" d="M442.62,378.68s-1.31-3.95-4.89-2.2c1.12-2.51,4.81-7.9,6.62-7.3,1.23.41-.7,3.78-1.08,5.75-.12.66-.37,2-.65,3.75"/><path class="cls-14" d="M443.57,373.93a28,28,0,0,1,1.2-3.26s.59-1.22-.09-1.47a2,2,0,0,0-2,.6,12.43,12.43,0,0,0-1.76,1.65s1.92-.58,2.35.13A3.63,3.63,0,0,1,443.57,373.93Z"/><path class="cls-12" d="M427.08,370.71s-5.43-12.22-5.26-15.95c0,0-.51-5.26-3.06,1.36,0,0-2,11.88,0,16.46C418.77,372.58,426.49,375.54,427.08,370.71Z"/><path class="cls-13" d="M424.35,364s-3.77-3.35-6.45.65c-.36-3.32.26-11.19,2.51-11.66,1.54-.32,1.56,4.39,2.36,6.68.26.76.8,2.29,1.58,4.33"/><path class="cls-14" d="M422.47,358.47a34.65,34.65,0,0,1-.71-4.14s-.12-1.63-1-1.49a2.45,2.45,0,0,0-1.73,1.83,15.32,15.32,0,0,0-.84,2.79s1.67-1.77,2.55-1.28A4.31,4.31,0,0,1,422.47,358.47Z"/><path class="cls-12" d="M429.94,373.68s6.28-9.09,6.71-12.15c0,0,1.22-4.19,2.27,1.57,0,0-.16,10-2.51,13.36C436.41,376.46,429.68,377.69,429.94,373.68Z"/><path class="cls-13" d="M433.18,368.67s3.57-2.14,5.14,1.51c.79-2.64,1.5-9.12-.26-9.85-1.21-.49-1.93,3.33-2.93,5.07-.34.58-1,1.74-1.95,3.27"/><path class="cls-14" d="M435.56,364.45a30.39,30.39,0,0,0,1.21-3.26s.34-1.31,1-1.06a2,2,0,0,1,1.12,1.75,13.35,13.35,0,0,1,.26,2.4s-1.08-1.7-1.87-1.43C437.3,362.85,436.5,363,435.56,364.45Z"/></g><polygon class="cls-26" points="398.77 392.9 397.94 396.5 398.13 401.4 405.91 405.71 411.76 393.8 408.32 387.84 402.14 388.35 398.77 392.9"/><path class="cls-27" d="M417.8,372a24.89,24.89,0,0,0-1.48,6.17s-1.62,15.22-3.16,17.32l-2.44,1.85a15.32,15.32,0,0,1-7.6-10.09,18,18,0,0,1,4.73-12.45s3.63-4.81,7.92-4.23C415.77,370.52,418,370.93,417.8,372Z"/><path class="cls-28" d="M408.43,393.29s-1.64-1.8-.57-5.77c0,0,1.15-2.78.07-3.07,0,0-.94-.84-1.92,2.76,0,0-.66,3.88.66,5.41C406.67,392.62,408.26,394.6,408.43,393.29Z"/><path class="cls-29" d="M413.31,386.68s3.68-9.25,2.55-11.49-2.64-3.81-5-2.14c0,0-6.1,6.08-5.54,9.71,0,0,.42,1.28,1.63-.33a25.44,25.44,0,0,0,1.39-3.68s1.41-2.33,1.23-.25c0,0-.88,5.37,0,5.62a2.54,2.54,0,0,0,1.49-1.92s.85-1.7.92-.52a12,12,0,0,1-1,4.37s-1.86,4.71-.61,7.95l2.16.59S412.45,389.16,413.31,386.68Z"/><path class="cls-30" d="M411.24,371.69s4-.54,4.61,1.37c0,0,.28,2.83.74,3.12l.86-3.25.28-.81a.74.74,0,0,0-.45-1S414.75,369.28,411.24,371.69Z"/><path class="cls-29" d="M399.05,389.49s-5.09-3.41-6.34-3.37c0,0-4.56-1.75-6.5-2.19,0,0-5.09-1.81-8,2.68,0,0,0,.41.71.36,0,0,1.14,0,2.37,1.83,0,0,2.11,4.2,8.59,8.29,0,0,7,3.52,8.24,3.75Z"/><path class="cls-31" d="M391.27,385.94s1.3,2.38-.11,1.66c0,0-4.61-2.61-6.66,0a1.68,1.68,0,0,0,.45,2.53s2.84,1,3.77,1.19c0,0,6,3.12,3.78,4.11,0,0-5.87-2.48-6.66-1.6,0,0-.31.41,2.17,2,0,0,4,2.91,6.78,3.65l3.24-2.76,1-7.11a30.82,30.82,0,0,0-3.89-2.46C392.62,386,390,384.9,391.27,385.94Z"/><path class="cls-30" d="M397.39,390.84a2.28,2.28,0,0,1-1.47-1.25s-.79-2.24-2.09-1.5a1.17,1.17,0,0,0-.32,1.65,2.72,2.72,0,0,0,1.92.86s.54-.28,1.3.82Z"/><path class="cls-28" d="M397.31,390.52s-1.37.22-1.12,1.17c0,0,.33,1.27-.61,1.31,0,0-1.56,0-1.12,1.18a3,3,0,0,0,1.15,1.32l2.68.4.59-4.43Z"/><path class="cls-32" d="M409.28,389.33a2.69,2.69,0,0,1,.46,2.91l.87,1s1.57-2.43,2.13-1.56c0,0,.29.33-.7,1.2,0,0-1.79,1.75-1.76,2.9l.46.76s.75-1.82,1.53-.94c0,0,1.25,1.44.36,2.22,0,0-1.8,2-1.9,3.41l-1.49.52-1.9-10.23Z"/><path class="cls-33" d="M399.29,390.45s-1.92-.86-1.57.2l.22,1.37,1.87,1.48,1.07-.34-.28-2.1Z"/><path class="cls-34" d="M411.19,400.63l-.52-1.17a2.87,2.87,0,0,1,.82-1.62c1-.87-.64.17-.87.57s-.25-1-.25-1,.46-.59.07-1,.13-1.63.13-1.63a1.8,1.8,0,0,1,.08-1.34c.35-.64-1-.8-1-.8s.41-.95-.18-1.4a3.51,3.51,0,0,0-1.1-.6s-1.36-.91-1.62.36c0,0-.45,2.41,0,3a2.66,2.66,0,0,0,.71.36l-.31,2.08s-.19.69-.72-.8a9.78,9.78,0,0,1-.53-2.85s.63-1.52.14-2.07c0,0-.84-1.41-1.5-.93,0,0-2.37,1.29-1.34,2.92,0,0,1.17,1.12.81,1.83a3.62,3.62,0,0,0,.12,1.26s.14,1.05-1-1.11a45.54,45.54,0,0,0-1.9-4.19s-1.76-.23-1.25,1.47c0,0,.73,1.51-.57.69,0,0-1-.9-1.11-.38l3.56,5.12s-.84.68-.37,1.44c0,0,.05.74-.48-.55a5.61,5.61,0,0,0-1.33-2s-.41-.42.33-1.17l-.6-.93s-1.56.37-1.5,1.49l-.49.24s.8-1.09.11-1.66c0,0-1.2-.7-1.48.32l.73,1.51,1.52,1.73a4.22,4.22,0,0,0,1.3,1.27s.81.27.77.89c0,0,2.74,2.48,2.87,3.63a25.14,25.14,0,0,1-2.22-2.55,29,29,0,0,0-3.9-3.8s-2.5,0-2.68,1.17c0,0-.06.61.71.82l1.15.86a3.32,3.32,0,0,0,1,1.32s1,.48.85,1.2l-.83,0s-.33.29.86,1.2a2,2,0,0,1,1.53.42l.58,2.22a1.2,1.2,0,0,0,1.56,0s1.33.4,1.88-.08l6.73-2.51A16.43,16.43,0,0,1,411.19,400.63Z"/><path class="cls-35" d="M410.43,404.22s.36-3.82-1.16-4.45c0,0-.74.26-.51,1.42,0,0,0,.94-1.2-.7a10,10,0,0,1-2-3.36s-.44-1.18-.7-.36c0,0-.31,1.43.27,2.1,0,0,1.95,4.92.59,3.58,0,0-1.67-3-2.24-2.34a3.15,3.15,0,0,0,.43,2.94s.93,1.52-1.81-1c0,0,1.41,3.64.18,4.91l4.89,0Z"/><path class="cls-36" d="M400,405.16s-1.28-1-1.53-.41a.62.62,0,0,0,.17.43s.2.22-.13.51c0,0-.34.29.35.86,0,0,.69.57,1.23.29,0,0,.28-1,1-1.07,0,0,1.66.49,1.83.83a1.21,1.21,0,0,0,.84-.23,6.27,6.27,0,0,1-2.18-1.61s-1-.69-1.33-.4c0,0,.18.43,1,.69,0,0,.8.47.29.33,0,0-.92-.37-1.14-.18Z"/><path class="cls-37" d="M407.45,405.06a39.8,39.8,0,0,1-3.06-4s-2.89-4.88-4.61-7.08c0,0-1.79-2.73-2.91-4.68,0,0-1.81-2.51-.78-3.8,0,0,2.54-.66,1.59-2,0,0-1.06-1.22-2.29,1.61a3,3,0,0,0-.1,1.45s.16.64-.47-.76l-.58-.66a2.86,2.86,0,0,1-.54-1.29,1.79,1.79,0,0,0-1.59-1.15s-.95.25-.9,1a1.28,1.28,0,0,0,.86,1.2.65.65,0,0,0,.73-.05s.44-.39,1,.49c0,0,1.16,1.32.55,1.07,0,0-1.41-.72-2.07-.14,0,0-.76.47.12,1.26,0,0,.88.79,1.55.21,0,0,.37-.91.66-.58a11.41,11.41,0,0,1,1.52,2.19,33.22,33.22,0,0,0,3.21,4.8A33.81,33.81,0,0,1,401.9,398s1.9,4.19,3.85,6l1.66,1.67Z"/><path class="cls-29" d="M396.1,387.93c-.13-.84-.53-1.74,0-2.39,0,0,2.54-.66,1.59-2,0,0-1.06-1.22-2.29,1.61a3,3,0,0,0-.1,1.45s.16.64-.47-.76l-.58-.66a2.86,2.86,0,0,1-.54-1.29,1.79,1.79,0,0,0-1.59-1.15s-.95.25-.9,1a1.28,1.28,0,0,0,.86,1.2.65.65,0,0,0,.73-.05s.44-.39,1,.49c0,0,1.16,1.32.55,1.07,0,0-1.41-.72-2.07-.14,0,0-.76.47.12,1.26,0,0,.88.79,1.55.21a2.15,2.15,0,0,1,.22-.41c.13-.19,0-.87.17-.71a1.54,1.54,0,0,0,.92.17c.11.15.1-1.35.18-1.13a5.4,5.4,0,0,1,.18,2C395.6,388.11,396.19,388.57,396.1,387.93Z"/><path class="cls-38" d="M396.87,396.94s-1.18,2-.53,3.19l-1.23-.29s.27-2.37,1-3Z"/><path class="cls-31" d="M398.91,397.5s.87-.56-.62-1.6c0,0-3.09-2-3.63-.15,0,0-.28,1,1.64,1.88A2.43,2.43,0,0,0,398.91,397.5Z"/><path class="cls-29" d="M404.33,403.91s-8-2.42-9-4.5a4.19,4.19,0,0,0-4.19.81s-4.16,3.82-4.09,9.09c0,0,.07,5.27,1.23,6.37a1.14,1.14,0,0,0,1.74-.24,7.66,7.66,0,0,1,2.12-1.73s7.42-5.58,9.17-6.3c0,0,3.39-1.5,3.79-2.33S404.33,403.91,404.33,403.91Z"/><path class="cls-31" d="M393.92,412.05s-4.16,1.93-5.24.25c0,0-.89-4.21-1.6-3.67,0,0,.06,5.09.69,6.1,0,0,.38,1.27,1.38,1.26,0,0,.57.07,1.1-.79a7,7,0,0,1,1.91-1.49S395.48,411.37,393.92,412.05Z"/><path class="cls-27" d="M395.78,400s-3.36,2.35-3.41,5a2.66,2.66,0,0,1-1.14,1.92s-1.83,1.29,1,1.13c0,0,7.31.23,10-1.28a24.06,24.06,0,0,0,2.55-1.43c.66-.51-.53-1.31-.53-1.31S396.71,401.69,395.78,400Z"/><path class="cls-39" d="M407.71,401.33a12.45,12.45,0,0,0,3,4.58l-2.09.07s.64-.17-2-4.1Z"/><path class="cls-40" d="M407.44,402.15s1.62-.83.55-1.84c0,0-.9-.58-2.12.48,0,0-.86.36.12,1.26C406,402.05,406.78,402.72,407.44,402.15Z"/><path class="cls-29" d="M408.18,401.9s.06-5.82,6.66-4.35c0,0,8,2.42,11.85,8.85,0,0,3.32,5.13.46,6a2.49,2.49,0,0,0-1.5-.8s-10.41-.83-13.85-2.48a17.57,17.57,0,0,0-3.45-.57s-2.69.52-4.28-.78a1.89,1.89,0,0,1-.34-2.77Z"/><path class="cls-31" d="M425.73,410.75s1.52-1-.48-1.74c0,0-8.07-2-10.82-1.32,0,0-1.3.52-.26,1,0,0,4.7,1.58,6.41,1.55a14.71,14.71,0,0,1,3.18.46S425.24,411.16,425.73,410.75Z"/><path class="cls-27" d="M409.46,398.63s4.65.61,5.78,2.95c0,0,.37.93-1.89,1.18,0,0-4,.4-5.06-1.12,0,0-.26-.12.34-1.85A2.27,2.27,0,0,1,409.46,398.63Z"/><path class="cls-30" d="M426.2,405.63s-1.79.7-.61,2.6c0,0,1.89,2.47,2.63,2.51C428.22,410.74,428.67,409.38,426.2,405.63Z"/><path class="cls-41" d="M399.11,397.26s-.43-.92-1.09-.34c0,0-.57.69-.86.36,0,0-.72-.16-.86.35A2.13,2.13,0,0,0,399.11,397.26Z"/><path class="cls-36" d="M396.77,400s-1.92-.86-2.35-.69c0,0-.22.2.27.54,0,0,.8.48,1,.9,0,0,.18.43.72.16,0,0,.35-.5.76-.47,0,0,.91.37,1,.07Z"/><path class="cls-42" d="M400.53,407.4a28.43,28.43,0,0,0,0-5.83l-.77,1.19s-.61,3.71.05,4.69Z"/><path class="cls-43" d="M412.94,397.94s-3.93-3.39-4.28-4.46l.21,1.58s3.24,2.82,2.52,4.23l.84-.15Z"/><path class="cls-44" d="M406.86,387.84s2.57,2.05,1.83,3.67c0,0-.1,1.45.19,1.78l-.95.25s.14-2.07.07-2.6c0,0,.06-.83-1.43-1.87Z"/><path class="cls-45" d="M406.77,390.75a3,3,0,0,1,.69-2.55s.71-1.2,0-1.77c0,0-.87-1-2.13.68,0,0-1.33,2.72.26,3.87C405.61,391,406.82,391.48,406.77,390.75Z"/><path class="cls-46" d="M402.62,392s1-.66-.47-2.32c0,0-2-2.12-3.14-1.16a1.23,1.23,0,0,0,.16,2.2,16.89,16.89,0,0,1,2.5,1.42S402.38,392.53,402.62,392Z"/><path class="cls-47" d="M400.58,402.09a3.68,3.68,0,0,1,1-.87s.83.06,0-.94c0,0-1.13-1.74-2.72.23a1.51,1.51,0,0,0,.58,2.23A.86.86,0,0,0,400.58,402.09Z"/><path class="cls-48" d="M410.05,394.52s1.47-1.67-.08-1.88c0,0-1.63-.53-2.81,1.47,0,0-.76,2,.34,2.63,0,0,1,.38,1.21-1A2.49,2.49,0,0,1,410.05,394.52Z"/><path class="cls-30" d="M400.1,390.81s2,.24,1.8-.39c0,0-.18-.43-1.51-.83,0,0-.7-.37.46-.6,0,0,.73.06,1.69,1.21a1.51,1.51,0,0,1,.09,1.72,1,1,0,0,1-1.48-.11S399.06,390.74,400.1,390.81Z"/><path class="cls-49" d="M405.38,389.72s.73,0,1.27-1c0,0,.41-.53.3.17a3.28,3.28,0,0,0-.19,1.93s.05.55-.55.29a1.36,1.36,0,0,1-1.08-.68S404.76,389.68,405.38,389.72Z"/><polygon class="cls-26" points="434.81 421.15 431.76 421.13 427.85 422.16 425.79 429.2 436.43 431.76 440.6 427.92 439.07 423.04 434.81 421.15"/><path class="cls-27" d="M455.09,432.67a20.65,20.65,0,0,0-5.23-.08s-12.54,1.45-14.5.59l-1.93-1.63a12.62,12.62,0,0,1,6.74-7.94A14.86,14.86,0,0,1,451,425.18s4.53,2.05,4.83,5.6C455.87,430.78,455.94,432.63,455.09,432.67Z"/><path class="cls-28" d="M436.24,429s1.15-1.64,4.53-1.49c0,0,2.45.42,2.49-.5,0,0,.5-.91-2.57-1,0,0-3.25.16-4.23,1.5C436.46,427.45,435.16,429.09,436.24,429Z"/><path class="cls-29" d="M442.43,431.72s8.11,1.29,9.7,0,2.59-2.81.82-4.43c0,0-6-3.81-8.81-2.7,0,0-.95.57.56,1.26a21.22,21.22,0,0,0,3.21.45s2.12.71.42.94c0,0-4.48.26-4.51,1a2.07,2.07,0,0,0,1.81.85s1.52.38.59.65a9.93,9.93,0,0,1-3.7,0s-4.13-.64-6.51.95l-.08,1.84S440.29,431.47,442.43,431.72Z"/><path class="cls-30" d="M454.11,427.35s1.16,3.1-.26,4c0,0-2.23.73-2.38,1.15l2.77.11.7.08a.62.62,0,0,0,.76-.55S456.69,429.74,454.11,427.35Z"/><path class="cls-29" d="M437.6,420.75s1.82-4.7,1.56-5.7c0,0,.59-4,.6-5.63,0,0,.53-4.41-3.6-5.94,0,0-.34,0-.16.63,0,0,.22.92-1.05,2.24,0,0-3,2.45-5.12,8.41a71,71,0,0,0-1.53,7.3Z"/><path class="cls-31" d="M439.05,413.86s-1.68,1.47-1.35.21c0,0,1.26-4.18-1.17-5.36a1.39,1.39,0,0,0-2,.82s-.31,2.47-.28,3.24c0,0-1.42,5.42-2.62,3.78,0,0,.94-5.16.08-5.64,0,0-.38-.18-1.23,2.11a22.76,22.76,0,0,0-1.72,6.11l2.81,2.11,5.9-.47a26.13,26.13,0,0,0,1.27-3.58C439.22,415,439.66,412.65,439.05,413.86Z"/><path class="cls-30" d="M436.22,419.67a1.84,1.84,0,0,1,.73-1.41s1.66-1,.83-1.95a1,1,0,0,0-1.38,0,2.26,2.26,0,0,0-.35,1.7s.32.38-.42,1.19Z"/><path class="cls-28" d="M436.46,419.54s-.42-1.06-1.15-.69c0,0-1,.5-1.16-.25,0,0-.28-1.26-1.15-.69a2.58,2.58,0,0,0-.86,1.17l.17,2.23L436,421Z"/><path class="cls-32" d="M439.58,429a2.23,2.23,0,0,1-2.26.89l-.65.88s2.24.82,1.64,1.44c0,0-.22.29-1.1-.36,0,0-1.73-1.12-2.64-.89l-.53.52s1.6.27,1,1.05c0,0-.93,1.27-1.72.7a6.43,6.43,0,0,0-3.08-.92l-.69-1.1,7.88-3.38Z"/><path class="cls-33" d="M436.87,421.13s.35-1.7-.44-1.23l-1.07.42-.85,1.77.47.8,1.64-.6Z"/><path class="cls-34" d="M430.83,432.53l.85-.63a2.38,2.38,0,0,1,1.45.37c.88.64-.25-.48-.61-.6s.72-.37.72-.37.56.26.84-.13,1.33-.19,1.33-.19a1.47,1.47,0,0,1,1.1-.17c.57.16.45-1,.45-1s.84.16,1.1-.4a2.92,2.92,0,0,0,.28-1s.49-1.26-.58-1.24c0,0-2,.08-2.38.56a2,2,0,0,0-.16.64l-1.73.12s-.6,0,.51-.72a8.11,8.11,0,0,1,2.19-.94s1.34.23,1.7-.26c0,0,1-.93.48-1.37,0,0-1.47-1.68-2.6-.56,0,0-.69,1.15-1.32,1a3,3,0,0,0-1,.32s-.82.3.72-1a36.81,36.81,0,0,0,3-2.28s-.14-1.45-1.42-.74c0,0-1.08.86-.65-.33,0,0,.54-.95.11-1l-3.48,3.8s-.7-.56-1.23,0c0,0-.58.17.36-.49a4.76,4.76,0,0,0,1.34-1.42s.26-.41,1,.05l.65-.65s-.58-1.19-1.47-.93l-.29-.36s1,.45,1.36-.21c0,0,.35-1.09-.52-1.13l-1.08.86-1.13,1.53A3.48,3.48,0,0,0,430,423s-.07.7-.58.78c0,0-1.49,2.65-2.4,3a19.77,19.77,0,0,1,1.65-2.24,25.07,25.07,0,0,0,2.36-3.83s-.48-2-1.43-1.94a.67.67,0,0,0-.53.72l-.49,1.08a2.76,2.76,0,0,0-.89,1s-.21.9-.81.9l-.1-.67s-.3-.22-.82.9a1.63,1.63,0,0,1-.06,1.31l-1.68.87a1,1,0,0,0,.28,1.25s-.09,1.14.4,1.5l3.23,5A13.74,13.74,0,0,1,430.83,432.53Z"/><path class="cls-35" d="M427.8,432.57s3.15-.4,3.37-1.73c0,0-.34-.56-1.23-.16,0,0-.75.2.35-1.09a8.25,8.25,0,0,1,2.35-2.18s.87-.57.16-.64c0,0-1.21,0-1.64.6,0,0-3.6,2.46-2.77,1.12,0,0,2.14-1.89,1.48-2.22a2.62,2.62,0,0,0-2.29.87s-1.06,1,.44-1.62c0,0-2.67,1.79-3.91,1l.86,3.94Z"/><path class="cls-36" d="M425.16,424.31s.58-1.22,0-1.31a.54.54,0,0,0-.31.22s-.15.2-.44,0c0,0-.29-.21-.63.45,0,0-.33.65,0,1,0,0,.87,0,1.05.62,0,0-.1,1.41-.34,1.62a1,1,0,0,0,.34.63,5.14,5.14,0,0,1,.9-2s.38-.93.08-1.14a1.27,1.27,0,0,0-.38.92s-.23.73-.21.29c0,0,.14-.8-.06-.94Z"/><path class="cls-37" d="M426.59,430.33a32.89,32.89,0,0,1,2.63-3.18s3.41-3.21,4.87-5c0,0,1.87-1.93,3.23-3.18,0,0,1.7-1.91,2.92-1.32,0,0,1,1.93,1.87.93,0,0,.79-1.07-1.71-1.56a2.62,2.62,0,0,0-1.18.18s-.48.25.53-.51l.43-.59a2.26,2.26,0,0,1,.93-.66,1.47,1.47,0,0,0,.64-1.48s-.37-.73-.95-.55a1,1,0,0,0-.81.9.54.54,0,0,0,.17.58s.39.29-.21.9c0,0-.85,1.17-.76.64,0,0,.32-1.26-.26-1.69,0,0-.52-.53-1,.32,0,0-.48.86.11,1.28,0,0,.8.14.58.43a9.36,9.36,0,0,1-1.48,1.62,27.66,27.66,0,0,0-3.28,3.45,28.19,28.19,0,0,1-2.61,2.74,19.41,19.41,0,0,0-4.13,4.18l-1.05,1.63Z"/><path class="cls-29" d="M438.32,418.1c.66-.25,1.31-.73,1.92-.44,0,0,1,1.93,1.87.93,0,0,.79-1.07-1.71-1.56a2.62,2.62,0,0,0-1.18.18s-.48.25.53-.51l.43-.59a2.26,2.26,0,0,1,.93-.66,1.47,1.47,0,0,0,.64-1.48s-.37-.73-.95-.55a1,1,0,0,0-.81.9.54.54,0,0,0,.17.58s.39.29-.21.9c0,0-.85,1.17-.76.64,0,0,.32-1.26-.26-1.69,0,0-.52-.53-1,.32,0,0-.48.86.11,1.28a2.33,2.33,0,0,1,.37.11c.17.07.7-.14.6,0a1.27,1.27,0,0,0,0,.77c-.1.11,1.1-.16.94-.06a4.35,4.35,0,0,1-1.57.5C438.09,417.73,437.83,418.29,438.32,418.1Z"/><path class="cls-38" d="M431.21,420.35s-1.82-.59-2.66.15v-1s2-.22,2.64.28Z"/><path class="cls-31" d="M431.13,422.09s.61.6,1.18-.78c0,0,1-2.85-.54-2.95,0,0-.87,0-1.22,1.66A2,2,0,0,0,431.13,422.09Z"/><path class="cls-29" d="M427,427.61s.49-6.89,2-8a3.44,3.44,0,0,0-1.4-3.22s-3.83-2.66-8.05-1.65c0,0-4.23,1-4.9,2.14a.94.94,0,0,0,.51,1.36,6.22,6.22,0,0,1,1.77,1.39s5.83,5,6.72,6.23c0,0,1.82,2.46,2.56,2.63S427,427.61,427,427.61Z"/><path class="cls-31" d="M418.53,420.7s-2.3-3-1.15-4.16c0,0,3.23-1.48,2.67-2,0,0-4.08,1-4.79,1.65,0,0-.95.53-.76,1.34,0,0,.05.47.83.74a5.92,5.92,0,0,1,1.55,1.27S419.36,421.84,418.53,420.7Z"/><path class="cls-27" d="M428.57,420s-2.5-2.27-4.64-1.84a2.18,2.18,0,0,1-1.75-.57s-1.37-1.24-.73,1c0,0,1.13,5.92,2.83,7.84a17.81,17.81,0,0,0,1.62,1.79c.52.44,1-.66,1-.66S427.36,421.08,428.57,420Z"/><path class="cls-39" d="M429.64,429.86a10.42,10.42,0,0,0-3.14,3.25l-.43-1.66s.25.48,2.93-2.36Z"/><path class="cls-40" d="M428.94,429.79s.95,1.16,1.57.11c0,0,.31-.83-.77-1.62,0,0-.44-.62-1,.33C428.75,428.61,428.35,429.36,428.94,429.79Z"/><path class="cls-29" d="M429.27,430.34s4.69-1,4.69,4.57c0,0-.49,6.9-5,11.13,0,0-3.53,3.59-4.78,1.46a2,2,0,0,0,.37-1.35s-1.21-8.53-.5-11.59a14.53,14.53,0,0,0-.16-2.88,4.89,4.89,0,0,1-.15-3.58,1.55,1.55,0,0,1,2.16-.77Z"/><path class="cls-31" d="M425.31,446.05s1.11,1,1.32-.69c0,0,.13-6.85-.89-8.94,0,0-.65-1-.83,0a27,27,0,0,0-.09,5.43,12.36,12.36,0,0,1,.21,2.65S424.9,445.73,425.31,446.05Z"/><path class="cls-27" d="M432.13,430.78s.35,3.85-1.33,5.18c0,0-.68.47-1.29-1.31,0,0-1.05-3.16,0-4.27,0,0,0-.23,1.55-.06A1.89,1.89,0,0,1,432.13,430.78Z"/><path class="cls-30" d="M429.52,445.51a1.33,1.33,0,0,0-2.2,0s-1.65,2-1.54,2.56C425.78,448.05,427,448.17,429.52,445.51Z"/><path class="cls-41" d="M431.36,422.21s.66-.51.08-.94c0,0-.66-.34-.44-.63,0,0,0-.6-.45-.62A1.76,1.76,0,0,0,431.36,422.21Z"/><path class="cls-36" d="M428.77,420.81s.35-1.7.12-2c0,0-.19-.14-.38.32a2.31,2.31,0,0,1-.55.95s-.31.22,0,.6c0,0,.46.19.51.53,0,0-.13.8.13.85Z"/><path class="cls-42" d="M423.46,425.18a23.25,23.25,0,0,0,4.69-1.07l-1.1-.4s-3.09.18-3.76.89Z"/><path class="cls-43" d="M433.31,433.45s2-3.77,2.81-4.24l-1.23.45s-1.69,3.12-2.95,2.79l.28.65Z"/><path class="cls-44" d="M440.33,426.74s-1.18,2.44-2.61,2.14c0,0-1.19.18-1.4.47l-.37-.72s1.69-.26,2.1-.41c0,0,.68-.1,1.24-1.49Z"/><path class="cls-45" d="M438,427.19a2.53,2.53,0,0,1,2.18.1s1.09.35,1.42-.3c0,0,.65-.88-.93-1.59,0,0-2.43-.58-3.07.9C437.58,426.3,437.4,427.37,438,427.19Z"/><path class="cls-46" d="M436.2,424.09s.71.67,1.79-.8c0,0,1.33-2,.36-2.74a1,1,0,0,0-1.74.53,14.38,14.38,0,0,1-.69,2.27S435.75,424,436.2,424.09Z"/><path class="cls-47" d="M427.74,424.26a3.08,3.08,0,0,1,.88.64s.1.68.75-.2c0,0,1.2-1.22-.68-2.15,0,0-1.12-.52-1.68.87A.7.7,0,0,0,427.74,424.26Z"/><path class="cls-48" d="M435.54,430.51s1.61.88,1.5-.4c0,0,.13-1.41-1.69-2,0,0-1.77-.25-2.05.74,0,0-.13.89,1,.8A2,2,0,0,1,435.54,430.51Z"/><path class="cls-30" d="M436.72,421.84s.17,1.62.65,1.38c0,0,.31-.23.4-1.36,0,0,.16-.64.55.26a2.33,2.33,0,0,1-.67,1.57,1.23,1.23,0,0,1-1.36.38s-.64-.37-.18-1.2C436.11,422.87,436.59,421,436.72,421.84Z"/><path class="cls-49" d="M438.56,425.89s.11.59,1,.84c0,0,.5.24-.07.28a2.7,2.7,0,0,0-1.6.2s-.43.13-.33-.39a1.16,1.16,0,0,1,.35-1S438.48,425.38,438.56,425.89Z"/><polygon class="cls-26" points="404.69 456.29 406.37 453.35 407.5 448.99 401.81 443.15 393.52 452.06 394.97 458.21 400.53 459.39 404.69 456.29"/><path class="cls-27" d="M382.44,469.66a23.11,23.11,0,0,0,2.94-5s5.44-12.95,7.35-14.38l2.63-1a14.06,14.06,0,0,1,4,10.87,16.5,16.5,0,0,1-7.44,9.69s-4.46,3.27-8.08,1.62C383.85,471.45,382,470.51,382.44,469.66Z"/><path class="cls-28" d="M396.31,453.4s1,2-1,5.21c0,0-1.74,2.14-.87,2.68,0,0,.6,1,2.41-1.92,0,0,1.61-3.23.85-4.92C397.68,454.45,396.8,452.29,396.31,453.4Z"/><path class="cls-29" d="M390.28,457.91s-5.67,7.15-5.27,9.42,1.31,4,3.85,3.21c0,0,7-3.73,7.43-7.07,0,0,0-1.23-1.52-.14a23,23,0,0,0-2.2,2.87s-1.85,1.67-1.14-.11c0,0,2.19-4.49,1.46-4.94a2.31,2.31,0,0,0-1.81,1.29s-1.19,1.27-.94.22a11,11,0,0,1,2-3.58s2.88-3.65,2.64-6.82l-1.75-1.09S391.69,456,390.28,457.91Z"/><path class="cls-30" d="M388.14,471.62s-3.63-.57-3.69-2.42c0,0,.5-2.56.18-2.94L383,468.89l-.46.64a.68.68,0,0,0,.12,1S384.42,472.81,388.14,471.62Z"/><path class="cls-29" d="M403.55,459.21s3.56,4.33,4.67,4.63c0,0,3.54,2.74,5.14,3.64,0,0,4,2.93,7.72-.24,0,0,.14-.36-.52-.5,0,0-1-.28-1.6-2.23,0,0-.74-4.25-5.36-9.56,0,0-5.19-4.92-6.24-5.47Z"/><path class="cls-31" d="M409.44,464.38s-.51-2.43.54-1.43c0,0,3.36,3.51,5.83,1.8a1.55,1.55,0,0,0,.28-2.34s-2.23-1.66-3-2.05c0,0-4.47-4.33-2.23-4.61,0,0,4.5,3.73,5.42,3.17,0,0,.38-.27-1.36-2.35,0,0-2.74-3.61-5-5l-3.57,1.56-2.77,6a29.92,29.92,0,0,0,2.77,3.18C408.28,463.94,410.28,465.63,409.44,464.38Z"/><path class="cls-30" d="M405.36,458.46a2.1,2.1,0,0,1,1,1.49s.1,2.17,1.44,1.86a1.06,1.06,0,0,0,.71-1.36,2.46,2.46,0,0,0-1.45-1.26s-.55.1-.93-1.06Z"/><path class="cls-28" d="M405.34,458.76s1.26.17,1.3-.73c0,0,.05-1.2.88-1,0,0,1.37.41,1.3-.73a2.88,2.88,0,0,0-.67-1.48l-2.25-1.05-1.68,3.74Z"/><path class="cls-32" d="M394.51,456.65a2.48,2.48,0,0,1,.37-2.68l-.5-1.11s-2,1.72-2.28.81c0,0-.17-.37.94-.87,0,0,2-1.07,2.31-2.08l-.21-.79s-1.14,1.4-1.59.42c0,0-.72-1.6.26-2,0,0,2.1-1.25,2.57-2.49l1.45-.07-1,9.49Z"/><path class="cls-33" d="M403.58,458.3s1.46,1.27,1.44.24l.17-1.26-1.26-1.8-1,0-.32,1.92Z"/><path class="cls-34" d="M395.82,446.22l.15,1.16a2.62,2.62,0,0,1-1.14,1.21c-1.11.5.6,0,.91-.27s0,.91,0,.91-.56.4-.34.89-.54,1.39-.54,1.39a1.66,1.66,0,0,1-.43,1.16c-.47.47.7,1,.7,1s-.62.72-.22,1.28a3.23,3.23,0,0,0,.82.82s.95,1.16,1.51.1c0,0,1-2,.75-2.61a2.27,2.27,0,0,0-.52-.5l.82-1.75s.35-.56.42.89a9,9,0,0,1-.28,2.64s-.95,1.17-.68,1.79c0,0,.37,1.46,1.07,1.21,0,0,2.43-.5,2-2.21,0,0-.74-1.3-.23-1.82a3.48,3.48,0,0,0,.22-1.14s.16-.95.56,1.23a39.3,39.3,0,0,0,.56,4.18s1.48.66,1.48-1c0,0-.24-1.52.68-.46,0,0,.62,1.05.88.64l-1.78-5.44s.92-.38.71-1.18c0,0,.15-.65.28.62a5.23,5.23,0,0,0,.64,2.07s.25.48-.59.94l.28,1s1.47.08,1.71-.91l.5-.09s-1,.75-.54,1.43c0,0,.87.93,1.38.11l-.24-1.52-.87-1.92a3.89,3.89,0,0,0-.81-1.46s-.65-.44-.44-1c0,0-1.76-2.9-1.57-3.95a24.52,24.52,0,0,1,1.28,2.82,27.38,27.38,0,0,0,2.42,4.38s2.21.63,2.67-.32a.77.77,0,0,0-.42-.91l-.77-1.07a3.13,3.13,0,0,0-.49-1.4s-.76-.69-.43-1.28l.71.27s.37-.17-.43-1.29c0,0-1-.16-1.24-.77l.08-2.11a1.1,1.1,0,0,0-1.37-.41s-1.06-.71-1.67-.43l-6.57.42A14.63,14.63,0,0,1,395.82,446.22Z"/><path class="cls-35" d="M397.44,443.26s-1.33,3.27-.16,4.22c0,0,.73,0,.83-1.12,0,0,.21-.83.87.94a9.25,9.25,0,0,1,.83,3.47s.07,1.15.52.5c0,0,.65-1.18.32-1.91,0,0-.42-4.84.42-3.3,0,0,.67,3.1,1.35,2.64a2.91,2.91,0,0,0,.41-2.7s-.43-1.58,1.33,1.32c0,0-.28-3.57,1.13-4.35L401,441.65Z"/><path class="cls-36" d="M406.9,445.21s.85,1.23,1.23.76a.57.57,0,0,0,0-.42s-.11-.25.26-.42c0,0,.36-.16-.09-.84,0,0-.46-.68-1-.59,0,0-.52.83-1.18.68,0,0-1.32-.87-1.38-1.21a1.15,1.15,0,0,0-.8,0,5.77,5.77,0,0,1,1.49,2s.69.87,1.06.7c0,0-.05-.42-.69-.87,0,0-.58-.62-.17-.37,0,0,.7.57,1,.46Z"/><path class="cls-37" d="M400.28,443.31a37.66,37.66,0,0,1,1.64,4.29s1.25,5,2.18,7.44c0,0,.86,2.86,1.32,4.87,0,0,.92,2.69-.32,3.55,0,0-2.41-.1-1.92,1.31,0,0,.61,1.35,2.45-.81a3,3,0,0,0,.47-1.25s0-.6.21.79l.33.74a2.61,2.61,0,0,1,.13,1.27,1.64,1.64,0,0,0,1.09,1.43s.9,0,1.05-.62a1.17,1.17,0,0,0-.43-1.29.6.6,0,0,0-.66-.14s-.49.22-.76-.69c0,0-.66-1.48-.2-1.1,0,0,1.05,1,1.79.67,0,0,.79-.21.22-1.13,0,0-.56-.93-1.3-.6,0,0-.57.71-.74.34a10.56,10.56,0,0,1-.75-2.32,32.1,32.1,0,0,0-1.55-5.07,29.41,29.41,0,0,1-1.23-4s-.57-4.18-1.81-6.28l-1-1.91Z"/><path class="cls-29" d="M405.73,461.35c-.12.78,0,1.68-.63,2.11,0,0-2.41-.1-1.92,1.31,0,0,.61,1.35,2.45-.81a3,3,0,0,0,.47-1.25s0-.6.21.79l.33.74a2.61,2.61,0,0,1,.13,1.27,1.64,1.64,0,0,0,1.09,1.43s.9,0,1.05-.62a1.17,1.17,0,0,0-.43-1.29.6.6,0,0,0-.66-.14s-.49.22-.76-.69c0,0-.66-1.48-.2-1.1,0,0,1.05,1,1.79.67,0,0,.79-.21.22-1.13,0,0-.56-.93-1.3-.6a2,2,0,0,1-.31.31c-.16.13-.24.76-.33.57a1.47,1.47,0,0,0-.77-.39c-.05-.15-.44,1.16-.46,1a5.23,5.23,0,0,1,.38-1.79C406.21,461.33,405.81,460.77,405.73,461.35Z"/><path class="cls-38" d="M407.43,453.24s1.56-1.45,1.31-2.67l1,.59s-.86,2-1.72,2.4Z"/><path class="cls-31" d="M405.78,452.21s-.91.26.12,1.57c0,0,2.19,2.56,3.15,1.09,0,0,.52-.83-.94-2.09A2.23,2.23,0,0,0,405.78,452.21Z"/><path class="cls-29" d="M402.71,445.15s6.4,4.24,6.7,6.32a3.82,3.82,0,0,0,3.89.4s4.67-2.26,6-6.91c0,0,1.33-4.64.6-5.91a1,1,0,0,0-1.59-.25,7,7,0,0,1-2.32,1s-8,2.94-9.71,3.11c0,0-3.38.42-3.95,1.05S402.71,445.15,402.71,445.15Z"/><path class="cls-31" d="M414,440.75s4.16-.6,4.66,1.16c0,0-.32,3.94.44,3.65,0,0,1.29-4.48,1-5.54,0,0,0-1.21-.87-1.47,0,0-.49-.21-1.18.4a6.41,6.41,0,0,1-2.07.81S412.45,440.94,414,440.75Z"/><path class="cls-27" d="M409.19,450.85s3.57-1.17,4.32-3.49A2.39,2.39,0,0,1,415,446s1.95-.66-.55-1.25c0,0-6.36-2.14-9.15-1.53a20.9,20.9,0,0,0-2.63.58c-.71.27.13,1.3.13,1.3S408.82,449.11,409.19,450.85Z"/><path class="cls-39" d="M399.07,446.52a11.64,11.64,0,0,0-1.44-4.82l1.85.5s-.61,0,.68,4.12Z"/><path class="cls-40" d="M399.51,445.88s-1.64.29-1,1.47c0,0,.64.74,2,.13,0,0,.84-.08.22-1.13C400.76,446.35,400.25,445.54,399.51,445.88Z"/><path class="cls-29" d="M398.8,445.9s-1.59,5.1-7,2.06c0,0-6.42-4.24-8.08-10.9,0,0-1.55-5.38,1.2-5.43a2.23,2.23,0,0,0,1.1,1.1s8.93,3.48,11.52,5.84a16.35,16.35,0,0,0,2.87,1.41s2.5.25,3.55,1.81a1.73,1.73,0,0,1-.43,2.52Z"/><path class="cls-31" d="M385.73,433.49s-1.61.5-.05,1.66c0,0,6.57,3.86,9.16,4,0,0,1.28-.11.49-.78,0,0-3.72-2.63-5.22-3.05a14.11,14.11,0,0,1-2.68-1.25S386.26,433.26,385.73,433.49Z"/><path class="cls-27" d="M396.81,448.43s-3.91-1.76-4.3-4.12c0,0-.07-.91,2-.53,0,0,3.64.71,4.15,2.32,0,0,.19.17-.79,1.54A2.09,2.09,0,0,1,396.81,448.43Z"/><path class="cls-30" d="M384,437.86s1.76-.14,1.22-2.12c0,0-1-2.67-1.64-2.89C383.54,432.85,382.78,433.92,384,437.86Z"/><path class="cls-41" d="M405.54,452.37s.14.92.87.59c0,0,.68-.46.85-.09,0,0,.59.32.85-.09A2,2,0,0,0,405.54,452.37Z"/><path class="cls-36" d="M408.31,450.62s1.46,1.26,1.89,1.22c0,0,.24-.11-.1-.55a2.68,2.68,0,0,1-.63-1.05s0-.42-.59-.32a1,1,0,0,1-.79.21s-.7-.57-.89-.34Z"/><path class="cls-42" d="M407,443.09a26.31,26.31,0,0,0-1.53,5.13l1-.85s1.52-3.1,1.19-4.13Z"/><path class="cls-43" d="M393.58,448.12s2.56,4,2.58,5l.23-1.44s-2.1-3.33-1.09-4.38l-.78-.09Z"/><path class="cls-44" d="M396.25,458.59s-1.71-2.48-.64-3.7c0,0,.47-1.25.3-1.62l.9,0s-.67,1.78-.75,2.26c0,0-.27.71.77,2Z"/><path class="cls-45" d="M397.1,456.06a2.78,2.78,0,0,1-1.29,2.06s-.93.87-.48,1.55c0,0,.5,1.11,2.05,0,0,0,1.89-2,.8-3.47C398.18,456.16,397.25,455.4,397.1,456.06Z"/><path class="cls-46" d="M401.08,456s-1,.32-.2,2.16c0,0,1.23,2.4,2.46,1.84a1.12,1.12,0,0,0,.43-2,15.38,15.38,0,0,1-1.82-1.91S401.43,455.66,401.08,456Z"/><path class="cls-47" d="M405.53,447.74a3.58,3.58,0,0,1-1.1.5s-.72-.27-.22.83c0,0,.54,1.83,2.46.52a1.38,1.38,0,0,0,.08-2.11A.79.79,0,0,0,405.53,447.74Z"/><path class="cls-48" d="M395.21,451.89s-1.73,1.08-.43,1.67a2.29,2.29,0,0,0,2.86-.55s1.21-1.58.39-2.4c0,0-.79-.6-1.31.52A2.25,2.25,0,0,1,395.21,451.89Z"/><path class="cls-30" d="M403,457.77s-1.66-.73-1.68-.13c0,0,0,.43,1.1,1.13,0,0,.52.5-.56.4,0,0-.62-.24-1.16-1.51a1.39,1.39,0,0,1,.38-1.54s.71-.41,1.26.5C402.31,456.62,403.86,458.1,403,457.77Z"/><path class="cls-49" d="M398,457.33a1.41,1.41,0,0,0-1.36.52s-.51.35-.23-.23a3,3,0,0,0,.68-1.65s.11-.49.56-.1a1.24,1.24,0,0,1,.77.88S398.58,457.54,398,457.33Z"/><path class="cls-50" d="M477,353s9-5,6,6c0,0-3,15-9,19,0,0-12,11,10,4,0,0,16-8,18-12,0,0,3-5,3,3,0,0,3,5,4-2,0,0-.5-6.5-6.5-5.5,0,0-6-12-14-5,0,0,1-13-8-12C480.5,348.5,470.5,351.5,477,353Z"/><path class="cls-51" d="M491.5,362.5s7,3,7,6c0,0,2,5,4-3,0,0-6-12-14-5C488.5,360.5,486.5,362.5,491.5,362.5Z"/><path class="cls-52" d="M499.5,355.5s-3.57.3-2.79,3.65c0,0,3.79,1.35,4.79.35C501.5,359.5,504.5,355.5,499.5,355.5Z"/><path class="cls-50" d="M467.55,418.57S464,411,472,407c0,0,9.83-5.42,9.91-10.21,0,0-8.91-3.79,4.09-3.79,0,0,5,6-1,10,0,0,14,0,13,4,0,0,0,6-8,9,0,0,9.62,8.61,1.81,14.3,0,0-1.74.39-1-5.71,0,0-4.29-5.09-9.29-3.09C481.5,421.5,469.6,425.64,467.55,418.57Z"/><path class="cls-50" d="M440.5,335.5s-7-11-15-8c0,0-2,4,2,4,0,0,4-2,3,6,0,0-1,27,2,27,0,0,1.38.77,3.69-4.11,0,0,4.31-3.89,8.31-4.89,0,0,8-5,10-10,0,0,5,6,8,3a9.39,9.39,0,0,0-9-6S454.5,334.5,440.5,335.5Z"/><path class="cls-52" d="M444.5,329.5s-7,1-2,4v3h3v-4S449.5,330.5,444.5,329.5Z"/><path class="cls-30" d="M435.5,356.5s12.39-11.87.2-17.94l11.8-.06s7,1,7,7c0,0-7.51,10.89-13.26,10.95a11.16,11.16,0,0,0-4.74,4.05s-2,5-4,4c0,0-1.92.56-2-8.72A3.51,3.51,0,0,0,435.5,356.5Z"/><path class="cls-51" d="M437.5,334.5s-6,3-1,4c0,0,13,2,13,5,0,0,4,4,4-1C453.5,342.5,456.5,333.5,437.5,334.5Z"/><path class="cls-2" d="M600.46,55.78S481.61,339.4,438.82,371.09h0l-1.48,12.26,18.33-6.3S594.56,122.62,611.77,75.67C611.77,75.67,620.93,61.06,600.46,55.78Z"/><polygon class="cls-26" points="439.96 379.84 437.49 381.23 434.79 383.87 436.37 390.53 446.18 387.7 447.79 382.65 444.3 379.4 439.96 379.84"/><path class="cls-27" d="M461.73,379.82a19.22,19.22,0,0,0-4.28,2.35s-9.5,7-11.49,7.17l-2.31-.43a11.78,11.78,0,0,1,1.8-9.55,13.83,13.83,0,0,1,9.53-3.75s4.62-.42,6.51,2.32C461.49,377.93,462.4,379.4,461.73,379.82Z"/><path class="cls-28" d="M444.74,385.53s.18-1.86,3-3.3c0,0,2.17-.79,1.78-1.56,0,0,0-1-2.57.35,0,0-2.55,1.63-2.73,3.17C444.21,384.19,443.91,386.12,444.74,385.53Z"/><path class="cls-29" d="M451,384.89s7.16-2.69,7.85-4.5.8-3.47-1.39-4c0,0-6.61-.32-8.39,1.88,0,0-.5.9,1,.76a19.18,19.18,0,0,0,2.81-1.12s2.05-.4.78.57c0,0-3.51,2.28-3.19,2.92a1.93,1.93,0,0,0,1.86-.14s1.41-.4.78.25a9.18,9.18,0,0,1-3,1.69s-3.65,1.39-4.85,3.77l.79,1.54A24.81,24.81,0,0,1,451,384.89Z"/><path class="cls-30" d="M458.48,376s2.37,2,1.61,3.33c0,0-1.47,1.62-1.4,2l2.3-1.19.6-.26a.57.57,0,0,0,.36-.79S461.67,376.71,458.48,376Z"/><path class="cls-29" d="M442,378.23s-.69-4.65-1.36-5.34c0,0-1.36-3.5-2.12-4.84,0,0-1.6-3.82-5.66-3.16,0,0-.25.2.16.59,0,0,.61.64.19,2.3,0,0-1.3,3.37-.27,9.18a64.55,64.55,0,0,0,2.13,6.62Z"/><path class="cls-31" d="M440,372s-.68,2-1,.8c0,0-.9-4-3.43-3.81a1.29,1.29,0,0,0-1.2,1.57s.89,2.15,1.27,2.76c0,0,1.35,5-.38,4.28,0,0-1.63-4.63-2.54-4.62,0,0-.39,0,0,2.28a21.25,21.25,0,0,0,1.43,5.75l3.25.41,4.57-3.11a24.4,24.4,0,0,0-.62-3.48C440.69,372.79,440,370.71,440,372Z"/><path class="cls-30" d="M440.42,378a1.77,1.77,0,0,1-.05-1.49s.87-1.6-.23-1.95a.89.89,0,0,0-1.1.66,2.12,2.12,0,0,0,.5,1.54s.44.16.21,1.16Z"/><path class="cls-28" d="M440.56,377.78s-.83-.67-1.25,0c0,0-.55.84-1.06.33,0,0-.8-.89-1.25,0a2.35,2.35,0,0,0-.15,1.34l1.16,1.73,2.82-2Z"/><path class="cls-32" d="M447.44,384a2.09,2.09,0,0,1-1.42,1.77l-.12,1s2.19-.37,2,.41c0,0,0,.33-1.05.22,0,0-1.92-.11-2.56.5l-.19.66s1.42-.52,1.32.38c0,0-.17,1.45-1.07,1.35a6,6,0,0,0-2.92.68l-1.07-.57,4.83-6.38Z"/><path class="cls-33" d="M441.63,378.87s-.51-1.54-.93-.79l-.67.83.13,1.83.75.43,1-1.24Z"/><path class="cls-34" d="M442,390.91l.4-.91a2.3,2.3,0,0,1,1.34-.37c1,.12-.42-.28-.77-.2s.42-.64.42-.64.57,0,.62-.49,1-.77,1-.77a1.42,1.42,0,0,1,.81-.65c.54-.13-.08-1-.08-1s.75-.25.71-.83a2.66,2.66,0,0,0-.24-.93s-.18-1.25-1-.74c0,0-1.6,1-1.67,1.56a1.94,1.94,0,0,0,.16.59l-1.34.9s-.5.25.08-.82a7.71,7.71,0,0,1,1.34-1.78s1.19-.43,1.26-1c0,0,.36-1.21-.25-1.34,0,0-2-.68-2.36.75,0,0,0,1.25-.62,1.41a2.86,2.86,0,0,0-.65.72s-.52.62.13-1.12a33.58,33.58,0,0,0,1.4-3.25s-.78-1.12-1.48.05c0,0-.48,1.2-.69,0,0,0,0-1-.36-.84L439,383.94s-.83-.12-1,.54c0,0-.39.41.07-.56a4.33,4.33,0,0,0,.43-1.77s0-.46.83-.42l.22-.83s-1-.69-1.62-.08l-.4-.15s1-.11,1-.79c0,0-.21-1.05-.94-.68l-.48,1.19-.2,1.76a3.31,3.31,0,0,0-.05,1.4s.27.6-.11.9c0,0,0,2.84-.57,3.51a20.36,20.36,0,0,1,.29-2.58,22.37,22.37,0,0,0,.15-4.19s-1.32-1.4-2.05-.92a.63.63,0,0,0-.1.83l.1,1.1a2.6,2.6,0,0,0-.26,1.22s.25.83-.24,1.11l-.4-.5s-.33,0-.24,1.11c0,0,.62.53.56,1.09l-1,1.48a.92.92,0,0,0,.81.89s.45,1,1,1l4.91,2.53A12.31,12.31,0,0,1,442,390.91Z"/><path class="cls-35" d="M439.55,392.33s2.37-1.77,1.94-3c0,0-.53-.29-1.07.44,0,0-.52.51-.22-1a7.69,7.69,0,0,1,.9-2.86s.44-.86-.16-.58c0,0-1,.57-1.06,1.24,0,0-1.79,3.66-1.73,2.19,0,0,.86-2.52.17-2.49a2.43,2.43,0,0,0-1.45,1.77s-.38,1.32-.39-1.53c0,0-1.34,2.69-2.7,2.65L436.3,392Z"/><path class="cls-36" d="M433.6,386.85s-.09-1.25-.56-1.08a.48.48,0,0,0-.15.33s0,.22-.37.18c0,0-.33,0-.3.65,0,0,0,.69.47.85,0,0,.73-.37,1.14,0,0,0,.57,1.19.47,1.47a.94.94,0,0,0,.56.36,4.93,4.93,0,0,1-.21-2.08s-.12-.92-.46-1a1.18,1.18,0,0,0,.12.92s.15.7,0,.34c0,0-.25-.71-.48-.74Z"/><path class="cls-37" d="M437.54,391.07a30.23,30.23,0,0,1,.67-3.79s1.28-4.17,1.64-6.29c0,0,.62-2.43,1.15-4.07,0,0,.5-2.33,1.76-2.41,0,0,1.69,1.1,1.95-.12,0,0,.14-1.23-2.11-.47a2.36,2.36,0,0,0-.88.7s-.27.42.19-.67l.08-.67a2.11,2.11,0,0,1,.46-1,1.4,1.4,0,0,0-.17-1.5s-.64-.41-1,0a1,1,0,0,0-.25,1.11.52.52,0,0,0,.41.39s.45.05.25.82c0,0-.16,1.35-.33.87,0,0-.32-1.17-1-1.25,0,0-.66-.19-.65.72,0,0,0,.91.68,1,0,0,.71-.26.67.08a8.93,8.93,0,0,1-.46,2,26.31,26.31,0,0,0-1.07,4.31,24.41,24.41,0,0,1-.85,3.43,18.07,18.07,0,0,0-1.41,5.29l-.1,1.81Z"/><path class="cls-29" d="M441.4,375.75c.42-.51.73-1.2,1.36-1.24,0,0,1.69,1.1,1.95-.12,0,0,.14-1.23-2.11-.47a2.36,2.36,0,0,0-.88.7s-.27.42.19-.67l.08-.67a2.11,2.11,0,0,1,.46-1,1.4,1.4,0,0,0-.17-1.5s-.64-.41-1,0a1,1,0,0,0-.25,1.11.52.52,0,0,0,.41.39s.45.05.25.82c0,0-.16,1.35-.33.87,0,0-.32-1.17-1-1.25,0,0-.66-.19-.65.72,0,0,0,.91.68,1a1.67,1.67,0,0,1,.35-.09c.17,0,.5-.44.49-.27a1.18,1.18,0,0,0,.38.61c0,.14.82-.64.74-.48a4.21,4.21,0,0,1-1,1.13C441.05,375.56,441.09,376.13,441.4,375.75Z"/><path class="cls-38" d="M436.68,380.85s-1.75.37-2.09,1.35l-.47-.85s1.49-1.08,2.27-1Z"/><path class="cls-31" d="M437.42,382.3s.77.21.59-1.18c0,0-.47-2.78-1.8-2.14,0,0-.72.37-.22,1.91C436,380.89,436.3,382.17,437.42,382.3Z"/><path class="cls-29" d="M436.58,388.7s-2.77-5.81-2.09-7.43a3.22,3.22,0,0,0-2.63-2s-4.33-.39-7.29,2.38c0,0-3,2.77-3,4a.88.88,0,0,0,1,.87,5.8,5.8,0,0,1,2.08.31s7,1.33,8.32,1.95c0,0,2.61,1.15,3.29.95S436.58,388.7,436.58,388.7Z"/><path class="cls-31" d="M426.56,387s-3.25-1.36-2.85-2.84c0,0,1.93-2.69,1.26-2.82,0,0-2.86,2.67-3.12,3.56,0,0-.52.86,0,1.43,0,0,.26.36,1,.22a5.49,5.49,0,0,1,1.84.31S427.76,387.53,426.56,387Z"/><path class="cls-27" d="M434.38,381.81s-3.07-.7-4.61.65a2,2,0,0,1-1.68.34s-1.68-.37-.14,1.14c0,0,3.65,4.28,5.92,5.05a19.18,19.18,0,0,0,2.14.71c.63.11.47-1,.47-1S433.9,383.22,434.38,381.81Z"/><path class="cls-39" d="M439.79,389.29a9.7,9.7,0,0,0-1,4.08l-1.12-1.15s.43.28,1.29-3.26Z"/><path class="cls-40" d="M439.19,389.56s1.31.49,1.33-.64c0,0-.13-.81-1.37-1,0,0-.65-.3-.65.72C438.5,388.68,438.52,389.48,439.19,389.56Z"/><path class="cls-29" d="M439.72,389.85s3.34-3,5.91,1.54c0,0,2.79,5.81,1.11,11.32,0,0-1.21,4.54-3.21,3.39a1.9,1.9,0,0,0-.31-1.27s-4.92-6.36-5.77-9.16a13.56,13.56,0,0,0-1.45-2.26,4.57,4.57,0,0,1-1.77-2.84,1.44,1.44,0,0,1,1.39-1.62Z"/><path class="cls-31" d="M443.76,404.41s1.38.34.75-1.17c0,0-3.06-5.61-4.85-6.83,0,0-1-.48-.69.34a25,25,0,0,0,2.44,4.45,11.43,11.43,0,0,1,1.38,2.05S443.28,404.35,443.76,404.41Z"/><path class="cls-27" d="M442.24,388.89s2.06,2.95,1.31,4.81c0,0-.34.69-1.65-.47,0,0-2.31-2.08-2-3.45,0,0-.07-.21,1.23-.77A1.75,1.75,0,0,1,442.24,388.89Z"/><path class="cls-30" d="M446.92,402s-1.32-.65-1.79,1c0,0-.43,2.35-.07,2.79C445.06,405.82,446.07,405.38,446.92,402Z"/><path class="cls-41" d="M437.66,382.29s.3-.72-.37-.8c0,0-.69,0-.65-.3,0,0-.28-.49-.65-.3A1.64,1.64,0,0,0,437.66,382.29Z"/><path class="cls-36" d="M434.91,382.35s-.5-1.53-.82-1.68c0,0-.23,0-.17.43a2.22,2.22,0,0,1,0,1s-.16.33.28.49c0,0,.46-.06.66.19,0,0,.26.71.5.63Z"/><path class="cls-42" d="M432.63,388.34a21.42,21.42,0,0,0,3.3-3l-1.07.18s-2.43,1.58-2.64,2.46Z"/><path class="cls-43" d="M444.43,390.51s-.11-4,.32-4.74l-.79.93s.07,3.31-1.1,3.63l.52.4Z"/><path class="cls-44" d="M447,381.83s.16,2.52-1.14,2.93c0,0-.88.7-.91,1l-.64-.42s1.25-1,1.52-1.3c0,0,.5-.4.32-1.78Z"/><path class="cls-45" d="M445.32,383.28a2.35,2.35,0,0,1,1.82-.93s1.05-.22,1-.91c0,0,.12-1-1.49-.85,0,0-2.24.65-2.07,2.15C444.59,382.74,444.94,383.69,445.32,383.28Z"/><path class="cls-46" d="M442.45,381.58s.89.22,1.08-1.47c0,0,.15-2.25-1-2.38a.94.94,0,0,0-1.17,1.22,12.83,12.83,0,0,1,.49,2.16S442,381.7,442.45,381.58Z"/><path class="cls-47" d="M435.67,385.63a2.85,2.85,0,0,1,1,.11s.4.5.51-.51c0,0,.41-1.54-1.54-1.43,0,0-1.14.1-1,1.48A.66.66,0,0,0,435.67,385.63Z"/><path class="cls-48" d="M444.88,387.09s1.71,0,1-1a1.9,1.9,0,0,0-2.29-.83s-1.55.62-1.32,1.55c0,0,.31.78,1.17.2A1.91,1.91,0,0,1,444.88,387.09Z"/><path class="cls-30" d="M441.84,379.52s.88,1.24,1.15.81c0,0,.15-.32-.3-1.28,0,0-.16-.59.57-.05a2.19,2.19,0,0,1,.19,1.59,1.15,1.15,0,0,1-.94.94s-.69,0-.69-.9C441.82,380.63,441.34,378.89,441.84,379.52Z"/><path class="cls-49" d="M445.19,382a1.18,1.18,0,0,0,1.21.22s.51,0,.06.26a2.57,2.57,0,0,0-1.2.9s-.29.31-.45-.17a1,1,0,0,1-.17-1S444.9,381.58,445.19,382Z"/></g></svg>