<svg xmlns="http://www.w3.org/2000/svg" viewBox="0 0 864 864"><defs><style>.cls-1{fill:#2a4024;}.cls-2{fill:#618f6b;}.cls-3{fill:#417250;}.cls-4{fill:#538464;}.cls-5{fill:#7ead92;}.cls-6{fill:#015500;}.cls-7{fill:#5cb56e;opacity:0.48;}.cls-8{fill:#2b731e;}.cls-9{fill:#246130;}.cls-10{fill:#015f00;}.cls-11{fill:#fff;}.cls-12{fill:#f4f3fd;}.cls-13{fill:#cececa;}.cls-14{fill:#b5b499;opacity:0.6;}.cls-15{fill:none;stroke:#e8e6df;stroke-miterlimit:10;stroke-width:4px;}</style></defs><title>rubiaceae</title><g id="spermacoceAssurgens"><circle class="cls-1" cx="432" cy="432" r="432"/><path class="cls-2" d="M407.48,464.73s-24.84,52.18-86.87,63.86c0,0-58.78,20.81-76.09,33.21,0,0-28.61,17.22-80,16.35,0,0-10.55,1.09-22.63,3.23s-76.57,5.44-82.63-9.87l-3.14-3.63c-6-15.34,49.75-51.94,49.75-51.94,14.53-1.85,48.82-27.68,48.82-27.68,37.07-35.57,69.75-42.4,69.75-42.4,21.13-2.69,78.37-27.41,78.37-27.41C356.25,384.83,410,406.18,410,406.18s38.46-3.54,40.31,11-42.78,47.57-42.78,47.57"/><path class="cls-3" d="M360.31,474.88S245,539.18,210.52,531.49l-37.1,24.84s21,17.46,68.18-2c0,0,27.88-12.94,47.52-16.78,0,0,106.11-20.64,123.48-84.34l-33.66-.5Z"/><path class="cls-4" d="M407.87,416.05l-46.45,35.88c-7.1-3.12-92.14-7.07-92.14-7.07-46.55,3.23-27.06,8.8-27.06,8.8a629.48,629.48,0,0,1,93.63,8.23l-58.73,23.57c-33.72-22.55-121.65,14.11-121.65,14.11s-18.29,14.4,25.76,2.1c0,0,67.49-18,68-3.28,0,0-29,14.42-40.91,15.93,0,0-49,4.89-58.08,18.12,0,0-60.24,11.68-62.86,22.75,0,0-12.68,16.37,25.09-3.19,0,0,28.38-9,41.1-3.88,0,0,55.9-35.28,43.72-15,0,0-20.43,18.7-45.52,21.88,0,0-19.14,7.8,17.19,8.55,0,0,37.62-10.14,56.38-42.05,0,0,156.06-60.08,168.57-77.77Z"/><path class="cls-5" d="M102.36,525.11s6.77.48-29.82,29.28c0,0-10.71,10.75,7.63,17.82,0,0,50.54,7,71.16.35,0,0,18-6.31,28.06-.89,0,0,33.86,2.41,56.45-9.85,0,0,50.3-26.52,58.06-28.85,0,0,79.2-20.8,102.57-58.66,0,0,18.39-26.45,31.61-32.17l5,3.15s-27.22,22.37-29.75,26.77c0,0-24.62,45.49-82.68,56.53,0,0-23,8.73-29.62,11.19,0,0-40.11,15.91-48.45,23.1,0,0-28,12.55-47.2,13.56,0,0-26.67,1.68-33.6,2,0,0-45.56,7.53-78.67,3.22,0,0-36.06-1.35-26.69-19.93,0,0,7.83-19.32,40.83-39.82C97.21,521.94,103.35,522.3,102.36,525.11Z"/><path class="cls-2" d="M494.49,430.6S548,452.42,601.72,419.27c0,0,57.45-24.22,78.6-26.72,0,0,32.74-6.55,70.12-41.79,0,0,8.53-6.31,18.9-12.87s60.25-47.56,54.41-63l-.12-4.8c-5.92-15.36-71.76-4.86-71.76-4.86-12,8.42-54.72,12.43-54.72,12.43C645.79,276.39,617,293.35,617,293.35c-17.42,12.25-76.37,32.54-76.37,32.54C478.52,337,453.22,389,453.22,389s-30.81,23.3-22.39,35.27,63.66,6.34,63.66,6.34"/><path class="cls-3" d="M536.19,406.33S664.69,376.18,685,347.24l44.15-6.63s-3.76,27.05-51.71,44.49c0,0-29.31,9.22-46.41,19.61,0,0-92.33,56.23-148.08,20.86l24.54-23Z"/><path class="cls-4" d="M461.41,394.89l58.5-4.78c3.15-7.09,63.33-67.3,63.33-67.3,36.58-29,25.92-11.72,25.92-11.72a629.06,629.06,0,0,0-63.65,69.15l59.28-22.14c9.73-39.39,99.41-71.53,99.41-71.53s23.23-1.68-17.62,18.91c0,0-62,32.18-52.48,43.4,0,0,31.17-8.9,41-15.79,0,0,39.53-29.42,55.13-25.74,0,0,52.38-32,61.78-25.54,0,0,20.4,3.56-20.69,14.55,0,0-27,12.49-33,24.82,0,0-65.08,11.58-42.38,18.41,0,0,27.69.05,48.38-14.5,0,0,19.4-7.12-6.94,17.9,0,0-34.64,17.85-70,6.91,0,0-155.82,60.73-177,56.08Z"/><path class="cls-5" d="M760.65,269.66s-4.67,4.92,41.77,1.55c0,0,15.16.74,6.37,18.31,0,0-32.64,39.22-52.36,48.2,0,0-17.54,7.45-21.33,18.25,0,0-23.4,24.59-48.36,30.75,0,0-55,14.28-62.34,17.79,0,0-72.54,38-115.31,25.75,0,0-31.42-7.16-45-2.48l-1.55,5.68s35.19-1.81,40-.27c0,0,48.84,17,99.2-13.92,0,0,22.85-9,29.42-11.69,0,0,40.36-15.26,51.37-15.56,0,0,29.12-9.57,44-21.78,0,0,20.84-16.73,26.2-21.14,0,0,38.74-25.12,60.3-50.61,0,0,25.74-25.3,6.3-32.72,0,0-18.8-9-57-1.91C762.33,263.86,758,268.25,760.65,269.66Z"/><path class="cls-6" d="M351.85,170.7s-1-18.65,28.28,21.9c0,0,102,126.59,88.05,186.06,0,0-5.83,59.78-67.33,19.29,0,0-49.93-33.91-60.5-117.1,0,0,1.85-22.38-1.65-39.38,0,0-5.34-31.52,7.67-45.25C346.37,196.22,352.61,182,351.85,170.7Z"/><path class="cls-7" d="M397,330.68s-23.62-6.4-25-17c0,0-11-22.76-9.73,7.95,0,0,6.31,18,18.7,20.43,0,0-11.12,11.21-29.71-15.48,0,0,22.09,64.63,73.05,83.71,0,0,16.15-43.59-12-64.17C412.39,346.16,404.92,329.67,397,330.68Z"/><path class="cls-8" d="M383.81,258.55s-8.36,29.24,11,55c0,0,29.45,31.14,26.18,47.66l26.79,20.75-3.71-39.78-30.31-48.48Z"/><path class="cls-9" d="M345,227.26,372.43,264s4.7,37-14,38c0,0-10.56,1.34-17.37-20.61,0,0,.5-34.61-1.3-45.28Z"/><path class="cls-10" d="M430.09,284.87s-20.33-12.17-21.17-18.77c0,0-4.17-22.28-7.78-8.41,0,0-4.39,28.74,7.53,48.69,0,0,7.8,19.14,21,28.19,0,0,18.19,16.47,10.84,53.64l30-18.38S459.67,295.88,430.09,284.87Z"/><path class="cls-2" d="M340.63,258.07s8.87,15.58,11-10.18c0,0-3-34.5,1.74-39.14,0,0,5.09-12.72,4.42-18,0,0,1.3-10.9,7.3,15.17,0,0,7.67,39.28,7.38,58.1,0,0-.8,14.87,13.08,18.47,0,0,14.87-2.23,14.92-16.16,0,0-11.89-33.87-1.15-33.89,0,0,9.6,12.19,11.61,28,0,0,1.68,13.2,13.06,7.73,0,0,7.41-3.59-1.44-15.9,0,0-57.07-85.21-66.55-86.09,0,0-6.48-2.23-4.08,8,0,0-2.05,17.52-5.51,22,0,0-13,13.73-7.67,45.25C338.7,241.47,341,252,340.63,258.07Z"/><path class="cls-6" d="M505,659.24s-1.69,18.61-24.79-25.78c0,0-82.47-140.07-60.06-196.88,0,0,14.45-58.29,69.41-9.29,0,0,44.47,40.81,42.83,124.65,0,0-5.09,21.87-4.09,39.19,0,0,.7,32-14.17,43.66C514.11,634.79,505.87,647.94,505,659.24Z"/><path class="cls-7" d="M483.57,494.4s22.44,9.76,22.23,20.41c0,0,7.52,24.11,10.78-6.45,0,0-3.63-18.71-15.53-22.93,0,0,12.63-9.47,27.14,19.63,0,0-12.46-67.16-60.09-93.44,0,0-22.32,40.77,2.5,65.22C470.6,476.84,475.58,494.25,483.57,494.4Z"/><path class="cls-8" d="M486.13,567.68s12.53-27.72-2.9-56c0,0-24.61-35.09-19-51l-23.49-24.42-2.11,39.9,22.94,52.37Z"/><path class="cls-9" d="M520,604.29l-21.84-40.37s.73-37.26,19.33-35.57c0,0,10.65.21,14.2,22.91,0,0-5.53,34.17-5.31,45Z"/><path class="cls-10" d="M444.17,534.91s18.35,15,18.22,21.65c0,0,.88,22.65,6.47,9.45,0,0,8.53-27.79-.37-49.27,0,0-4.94-20.06-16.71-30.94,0,0-15.6-18.95-2.92-54.65L416.55,445S416.51,519.72,444.17,534.91Z"/><path class="cls-11" d="M446.81,362.09s-8.08-3.16-4.78-24.57a63.88,63.88,0,0,1,9.1-22.48s1.68-3.6,4.06.56c0,0,5.24,9.63,2.37,24.29A66.4,66.4,0,0,1,446.81,362.09Z"/><path class="cls-11" d="M441.74,364.07s2.12-8.42-17.22-18.16a63.73,63.73,0,0,0-23.58-5.66s-3.91-.72-1.91,3.63c0,0,4.8,9.87,18.4,16A66.42,66.42,0,0,0,441.74,364.07Z"/><path class="cls-11" d="M445,360.32s-1.51,8.55,18.5,16.86a63.76,63.76,0,0,0,23.93,3.92s3.94.43,1.63-3.76c0,0-5.5-9.49-19.52-14.66A66.49,66.49,0,0,0,445,360.32Z"/><path class="cls-12" d="M442.06,359.34s7.72,4,2.26,24.93A64,64,0,0,1,433,405.71s-2.05,3.4-4-1c0,0-4.23-10.12.12-24.41A66.33,66.33,0,0,1,442.06,359.34Z"/><path class="cls-13" d="M440.14,356.59s-7.56-1.31-5.52,3.58c0,0,5.42,7.62,3.63,8.68,0,0-1.19,4,4.35,2,0,0,10.88-2.95,10.22-6.82,0,0-1.39-8.67-5.17-9.32,0,0-3.58-1.69-3.1,1C444.55,355.7,446.23,358.18,440.14,356.59Z"/><path class="cls-14" d="M441.39,359.57s-3.73,2.52-1,7.45c0,0,2.67,3.35,7.6.65a4.69,4.69,0,0,0,1.33-6S447.56,356,441.39,359.57Z"/><path class="cls-15" d="M439.37,351.32s3.88,11.74,6.08,12c0,0,13.37-5.1,13.55-7.73"/><path class="cls-15" d="M436.2,365.09s2.78-4,9.1-1.89"/><path class="cls-12" d="M439.43,349.55s-2.85-.72-2.22,1.56c0,0,1.57,2.22,2.5,2.15,0,0,2.73.45,1.94-1.45C441.65,351.81,440.47,349.75,439.43,349.55Z"/><path class="cls-12" d="M458.92,351.92s-3.83,0-1.58,3.85c0,0,1.41,2.6.05,3.17,0,0-1.25,2.27,2.88,0,0,0,1.15-1,.55-4C460.82,355,459.85,351.85,458.92,351.92Z"/><path class="cls-12" d="M434.64,362.87s-3.44.17-.34,3c0,0,2.56,3.08,4.44.7,0,0,.94-2.13-.84-2.27,0,0-1.81.51-2.27-.58Z"/><path class="cls-11" d="M481.11,427.11s-9-1.28-10.73-23.84a66.65,66.65,0,0,1,3.87-25s.85-4.06,4.27-.4c0,0,7.63,8.54,8.21,24.14A69.11,69.11,0,0,1,481.11,427.11Z"/><path class="cls-12" d="M476.42,430.34s.16-9.07-21.85-14.35a66.66,66.66,0,0,0-25.34-.12s-4.14.21-1.07,4.15c0,0,7.24,8.89,22.55,11.92A69.24,69.24,0,0,0,476.42,430.34Z"/><path class="cls-11" d="M478.79,425.76s.51,9.06,22.85,12.72a66.78,66.78,0,0,0,25.28-1.73s4.12-.51.76-4.22c0,0-7.87-8.33-23.36-10.23A69.25,69.25,0,0,0,478.79,425.76Z"/><path class="cls-11" d="M475.62,425.46s8.81,2.18,8.26,24.81a66.72,66.72,0,0,1-6.4,24.51s-1.26,4-4.28,0c0,0-6.73-9.28-5.72-24.85A69.21,69.21,0,0,1,475.62,425.46Z"/><path class="cls-13" d="M473,423.11s-8,.48-4.75,5c0,0,7.33,6.45,5.77,8,0,0-.26,4.36,4.9,1,0,0,10.36-5.61,8.76-9.39,0,0-3.48-8.48-7.49-8.24,0,0-4-.87-2.91,1.73C477.29,421.15,479.59,423.28,473,423.11Z"/><path class="cls-14" d="M475,425.85s-3.19,3.45.74,7.82c0,0,3.52,2.77,7.89-1.16a4.91,4.91,0,0,0-.08-6.4S480.43,420.78,475,425.85Z"/><path class="cls-15" d="M471,417.94s6.75,11,9,10.71c0,0,12.39-8.38,11.94-11.1"/><path class="cls-15" d="M471,432.7s1.86-4.76,8.8-4.09"/><path class="cls-12" d="M470.61,416.12s-3.08-.05-1.88,2.12c0,0,2.12,1.88,3,1.59,0,0,2.9-.2,1.63-1.94C473.4,417.89,471.71,416.08,470.61,416.12Z"/><path class="cls-12" d="M491,413.88s-3.89.92-.69,4.29c0,0,2.05,2.31.81,3.21,0,0-.73,2.61,2.93-.7,0,0,.91-1.32-.39-4.18C493.66,416.5,491.92,413.59,491,413.88Z"/><path class="cls-12" d="M468.92,430.82s-3.46,1,.38,3.15c0,0,3.34,2.51,4.67-.36,0,0,.45-2.38-1.39-2.11,0,0-1.72.95-2.44,0Z"/><path class="cls-12" d="M402.75,443.46s-4.07,7.5-23.38,1A58.89,58.89,0,0,1,359.9,432s-3.08-2.22,1.1-3.93c0,0,9.64-3.69,22.78,1.4A61.8,61.8,0,0,1,402.75,443.46Z"/><path class="cls-12" d="M403.85,448.78s-7.47-3.39-19.23,14.2a65.79,65.79,0,0,0-8.59,22.4s-1.22,3.75,3.08,2.44c0,0,9.8-3.22,17.44-15.69A68.94,68.94,0,0,0,403.85,448.78Z"/><path class="cls-12" d="M400.85,445s7.68,2.8,18.21-15.66a66.68,66.68,0,0,0,7-23s1-3.83-3.24-2.19c0,0-9.55,4-16.33,17A69.81,69.81,0,0,0,400.85,445Z"/><path class="cls-12" d="M399.53,447.73s4.77-7,23.35,1.6a60,60,0,0,1,18.19,14.47s2.86,2.54-1.46,3.79c0,0-9.95,2.62-22.54-3.86A63,63,0,0,1,399.53,447.73Z"/><path class="cls-13" d="M396.71,449.21s-2.28,7.26,2.52,6c0,0,7.82-4.18,8.55-2.25,0,0,3.53,1.79,2.47-4,0,0-1.17-11.2-4.84-11.14,0,0-8.21.05-9.35,3.68,0,0-2.07,3.27.46,3.21C396.52,444.72,399.06,443.44,396.71,449.21Z"/><path class="cls-14" d="M399.65,448.43s1.79,4.07,6.73,2.16c0,0,3.47-2.12,1.68-7.4a4.32,4.32,0,0,0-5.33-2.23S397.26,441.8,399.65,448.43Z"/><path class="cls-15" d="M391.74,449.15s11.4-2,11.91-4.16c0,0-2.8-14-5.2-14.56"/><path class="cls-15" d="M404,454.4s-3.33-3.36-.45-9.27"/><path class="cls-12" d="M390.11,448.83s-1.07,2.7,1.13,2.42c0,0,2.27-1.2,2.34-2.13,0,0,.8-2.63-1.07-2.14C392.51,447,390.44,447.83,390.11,448.83Z"/><path class="cls-12" d="M395.08,430s-.54,3.77,3.33,2.15c0,0,2.61-1,2.94.44,0,0,1.91,1.58.4-2.85,0,0-.79-1.29-3.59-1.16C398.16,428.54,395.15,429,395.08,430Z"/><path class="cls-12" d="M401.74,455.6s-.35,3.42,2.73.79c0,0,3.2-2.05,1.27-4.27,0,0-1.83-1.25-2.21.48,0,0,.21,1.87-.86,2.15Z"/><path class="cls-11" d="M436,412.88s-7.44,5.87-24.3-9.27a65.56,65.56,0,0,1-14.45-21.21s-2.18-3.62,2.84-3.53c0,0,11.47.45,22.66,11.39A68.82,68.82,0,0,1,436,412.88Z"/><path class="cls-11" d="M434.8,418.79s-6.14-6.73-25.86,6.09A73.34,73.34,0,0,0,390.35,444s-2.88,3.3,2.09,3.84c0,0,11.41,1,24.69-8.39A76.69,76.69,0,0,0,434.8,418.79Z"/><path class="cls-11" d="M433.38,413.65s6.62,6.22,25.46-8a73.9,73.9,0,0,0,17.26-20.43s2.66-3.49-2.35-3.66c0,0-11.5-.12-24.12,10.24A77.34,77.34,0,0,0,433.38,413.65Z"/><path class="cls-11" d="M430.85,415.83s7.94-5.08,23.15,11.86a66.52,66.52,0,0,1,12.25,22.74s1.8,3.85-3.15,3.23c0,0-11.32-1.68-21.33-13.81A70,70,0,0,1,430.85,415.83Z"/><path class="cls-13" d="M427.32,416.1s-5.51,6.42-.05,7.23c0,0,9.82-.85,9.72,1.44,0,0,2.82,3.38,4.27-3,0,0,3.7-12-.08-13.5,0,0-8.4-3.55-11.15-.34,0,0-3.55,2.43-.94,3.48C429.09,411.43,432.24,411.24,427.32,416.1Z"/><path class="cls-14" d="M430.66,416.6s0,4.94,5.93,5.15c0,0,4.48-.65,5-6.83,0,0-.16-4.3-4.47-4.61C437.08,410.31,431.13,408.77,430.66,416.6Z"/><path class="cls-15" d="M422.27,413.87s12.53,2.92,14,1c0,0,3.26-15.5,1.06-17.15"/><path class="cls-15" d="M432.5,424.6s-1.93-4.89,3.6-9.66"/><path class="cls-12" d="M420.74,412.82s-2.28,2.29.09,3c0,0,2.85-.24,3.33-1.16,0,0,2-2.33-.15-2.65C424,412,421.52,412,420.74,412.82Z"/><path class="cls-12" d="M434.08,395.72s-2.2,3.62,2.47,3.66c0,0,3.09.13,2.8,1.73,0,0,1.27,2.45,1.66-2.73,0,0-.25-1.66-3.17-2.76C437.84,395.62,434.56,394.81,434.08,395.72Z"/><path class="cls-12" d="M429.65,424.83s-1.84,3.35,2.45,2c0,0,4.17-.7,3.17-3.8,0,0-1.32-2.08-2.47-.49,0,0-.6,2-1.82,1.82Z"/></g></svg>