<svg xmlns="http://www.w3.org/2000/svg" viewBox="0 0 864 864"><defs><style>.cls-1{font-size:51.47px;fill:#fff;font-family:AlvaroCondensed, Alvaro;}.cls-2{letter-spacing:-0.03em;}.cls-3{fill:#74b434;}.cls-4{fill:#478f36;}.cls-5{fill:#9dd1a4;}.cls-6{fill:#62a068;}.cls-7{fill:#8ed395;}.cls-8{fill:#79c26a;}.cls-9{fill:#75c036;}.cls-10{fill:#6da02a;}.cls-11{fill:#89e321;}.cls-12{fill:#b8eaa8;opacity:0.77;}.cls-13{fill:#a7bb39;}.cls-14{fill:#2a4024;}.cls-15{fill:#a51920;}.cls-16{fill:#ffa3a6;}.cls-17{fill:#ffd0cd;}.cls-18{fill:#f97276;}.cls-19{fill:#f23c1b;}.cls-20{fill:#a10816;}.cls-21{fill:#f94623;}.cls-22{fill:#c1091f;}.cls-23{fill:#ff6c40;}.cls-24{fill:#f9ae85;}.cls-25{fill:#ff4d33;}.cls-26{fill:#fe3a45;}.cls-27{fill:#f46d6a;}.cls-28{fill:#fb4a2b;}.cls-29{fill:#fdbc4b;}.cls-30{fill:#ff7233;}.cls-31{fill:#f38613;}.cls-32{fill:#f66f42;}.cls-33{fill:#e52412;}.cls-34{fill:#ff8e5b;}.cls-35{fill:#f85b40;}.cls-36{fill:#f48e1b;}.cls-37{fill:#fffdfb;}.cls-38{fill:#f38d4a;}.cls-39{fill:#fe5d46;}.cls-40{fill:#f4aa7b;}.cls-41{fill:#fff2af;}.cls-42{fill:#f9ce65;}.cls-43{fill:#f6db66;}.cls-44{fill:#e12729;}.cls-45{fill:#feab37;}.cls-46{fill:#fd4419;}.cls-47{fill:#fb9160;}.cls-48{fill:#fe601a;}.cls-49{fill:#ff762f;}</style></defs><title>rubiaceae</title><g id="h_patens_flower"><text class="cls-1" transform="translate(500.16 729.92)">hamelia <tspan class="cls-2" x="115.08" y="0">pa</tspan><tspan x="145.86" y="0">tens</tspan></text><path class="cls-3" d="M166.92,465.66s53.77,27.08,67,25.73c0,0,8.8,3.24,12.92,10,0,0,11.49,17.19,25,16.89,0,0,10.71,2.27,16.64,9.34,0,0,40.65,40.51,50.23,39.58,0,0,22.5,9.09,42.42,36.41,0,0,33.63,43.7,35.3,50.13l8.85-2.43-47.95-98.65-162-100.27Z"/><path class="cls-4" d="M429.13,665.61s-31.82-132.56-68.76-164.25c0,0-38.48-41.44-53.2-37.41,0,0-47.19-46.4-107.2-22,0,0-35.64,14.29-56,14.22,0,0-16.15,11.2,17.7,11,0,0,33.86,12.19,50.68,7.58,0,0,26.48,1.79,34.72,15.35,0,0,12.73,13.47,27.45,9.43,0,0,6.31-1.73,10.73,18.54,0,0,1.56,22.17,27.46,21.85,0,0,16.54-5.66,21.82,17.76,0,0-.54,22.75,22.59,16.41,0,0,31.74.34,57.93,71.15C415.05,645.17,417.28,674,429.13,665.61Z"/><path class="cls-5" d="M429.13,665.61s-10.64-30.74-36.22-64.1c-11.87-15.47-29.8-29.93-46.24-45-51.88-47.48-125.06-80.87-129.36-84.35-8.59-7-67.36-16-73.34-16.06,0,0-16.15,11.2,17.7,11,0,0,33.86,12.19,50.68,7.58,0,0,26.48,1.79,34.72,15.35,0,0,12.73,13.47,27.45,9.43,0,0,6.31-1.73,10.73,18.54,0,0,1.56,22.17,27.46,21.85,0,0,16.54-5.66,21.82,17.76,0,0-.54,22.75,22.59,16.41,0,0,31.74.34,57.93,71.15C415.05,645.17,417.28,674,429.13,665.61Z"/><path class="cls-6" d="M173.88,450.75s40.91-8.38,60.53,5.46c0,0,17.41,9.92,15.1,1.51,0,0-1.83-10.8,26.81,27.69,0,0,27.29,37.72,34,16.68,0,0,6.17-31.07-2.44-37.76,0,0,20.36.07,26.41,22.15,0,0,3.1,31.93,14.21,43.58,0,0,13.39,7.63,14.71-4,0,0-1.45-17.68,20.79,30.47,0,0,27.33,60.64,30.21,72.13,0,0-30.76-48.8-91.76-92.27,0,0-81.24-58.54-122.2-70.34C200.21,466,152,458.45,173.88,450.75Z"/><path class="cls-3" d="M632.23,328.5s-38,19.13-47.3,18.18c0,0-6.22,2.29-9.13,7.08,0,0-8.11,12.14-17.64,11.93,0,0-7.56,1.6-11.76,6.6,0,0-28.71,28.61-35.47,28,0,0-15.9,6.42-30,25.72,0,0-23.76,30.87-24.94,35.41l-6.25-1.71L483.64,390l114.43-70.83Z"/><path class="cls-4" d="M447,469.76s22.47-93.65,48.57-116c0,0,27.19-29.27,37.59-26.42,0,0,33.33-32.78,75.72-15.58,0,0,25.18,10.1,39.57,10,0,0,11.4,7.92-12.51,7.75,0,0-23.92,8.61-35.8,5.36,0,0-18.71,1.26-24.53,10.84,0,0-9,9.51-19.39,6.66,0,0-4.45-1.22-7.58,13.09,0,0-1.1,15.67-19.4,15.44,0,0-11.68-4-15.42,12.55,0,0,.39,16.07-16,11.59,0,0-22.42.24-40.92,50.27C457,455.32,455.37,475.64,447,469.76Z"/><path class="cls-5" d="M447,469.76s7.51-21.72,25.59-45.29c8.38-10.92,21.05-21.14,32.66-31.77,36.65-33.54,88.35-57.12,91.38-59.58,6.07-4.92,47.59-11.34,51.82-11.35,0,0,11.4,7.92-12.51,7.75,0,0-23.92,8.61-35.8,5.36,0,0-18.71,1.26-24.53,10.84,0,0-9,9.51-19.39,6.66,0,0-4.45-1.22-7.58,13.09,0,0-1.1,15.67-19.4,15.44,0,0-11.68-4-15.42,12.55,0,0,.39,16.07-16,11.59,0,0-22.42.24-40.92,50.27C457,455.32,455.37,475.64,447,469.76Z"/><path class="cls-6" d="M627.32,318s-28.91-5.92-42.76,3.85c0,0-12.3,7-10.67,1.07,0,0,1.29-7.63-18.94,19.56,0,0-19.28,26.65-24,11.79,0,0-4.36-21.95,1.72-26.67,0,0-14.38,0-18.66,15.64,0,0-2.19,22.55-10,30.78,0,0-9.46,5.39-10.4-2.85,0,0,1-12.49-14.68,21.53,0,0-19.31,42.83-21.34,50.95,0,0,21.73-34.47,64.82-65.18,0,0,57.39-41.35,86.32-49.69C608.71,328.75,642.78,323.41,627.32,318Z"/><path class="cls-3" d="M122.15,239.86S189,269.91,205,267.56c0,0,10.88,3.46,16.25,11.49,0,0,14.9,20.3,31.28,19.21,0,0,13.15,2.18,20.75,10.46,0,0,51.6,47.09,63.2,45.45,0,0,27.85,9.85,53.54,42,0,0,43.26,51.35,45.63,59.07l10.63-3.43-63.6-117.41L180.26,221.14Z"/><path class="cls-4" d="M451.77,469S406,309.47,359.34,272.9c0,0-49-48.34-66.71-42.64,0,0-59.88-53.91-131.56-21.06,0,0-42.58,19.29-67.35,20.3,0,0-19,14.49,22.12,12.39,0,0,41.83,13,62,6.51,0,0,32.31.75,43.05,16.8,0,0,16.21,15.69,33.89,10,0,0,7.58-2.44,14.05,22,0,0,3.08,26.89,34.58,25.11,0,0,19.8-7.77,27.48,20.43,0,0,.56,27.7,28.35,18.75,0,0,38.62-1.28,74.27,83.43C433.55,444.88,437.81,479.75,451.77,469Z"/><path class="cls-5" d="M451.77,469s-14.58-36.83-47.49-76c-15.25-18.17-37.84-34.8-58.64-52.21C280,285.78,189.2,249.1,183.79,245.1c-10.82-8-82.79-15.9-90.07-15.6,0,0-19,14.49,22.12,12.39,0,0,41.83,13,62,6.51,0,0,32.31.75,43.05,16.8,0,0,16.21,15.69,33.89,10,0,0,7.58-2.44,14.05,22,0,0,3.08,26.89,34.58,25.11,0,0,19.8-7.77,27.48,20.43,0,0,.56,27.7,28.35,18.75,0,0,38.62-1.28,74.27,83.43C433.55,444.88,437.81,479.75,451.77,469Z"/><path class="cls-6" d="M129.81,221.35s49.31-12.39,73.91,3.39c0,0,21.71,11.13,18.45,1,0,0-2.8-13,34.09,32.24,0,0,35.22,44.42,42.2,18.47,0,0,5.84-38.13-5-45.79,0,0,24.77-1,33.31,25.52,0,0,5.48,38.66,19.61,52.23,0,0,16.7,8.57,17.68-5.69,0,0-2.72-21.43,26.92,35.94,0,0,36.49,72.28,40.61,86.1,0,0-40-57.7-116.55-107.3,0,0-102-66.83-152.39-79C162.66,238.49,103.6,231.88,129.81,221.35Z"/><path class="cls-3" d="M757.94,391.86s-66.84,30.05-82.81,27.7c0,0-10.87,3.46-16.25,11.49,0,0-14.9,20.3-31.27,19.21,0,0-13.15,2.18-20.75,10.46,0,0-51.6,47.09-63.2,45.45,0,0-27.85,9.85-53.55,42,0,0-43.25,51.35-45.62,59.07l-10.64-3.43,63.61-117.41L699.84,373.14Z"/><path class="cls-4" d="M428.33,621s45.8-159.52,92.42-196.09c0,0,49-48.34,66.72-42.64,0,0,59.88-53.91,131.55-21.06,0,0,42.59,19.29,67.36,20.3,0,0,19,14.49-22.12,12.39,0,0-41.83,13-62,6.51,0,0-32.31.75-43.06,16.8,0,0-16.2,15.69-33.89,10,0,0-7.58-2.44-14,22,0,0-3.09,26.89-34.58,25.11,0,0-19.8-7.77-27.49,20.43,0,0-.56,27.7-28.34,18.75,0,0-38.63-1.28-74.27,83.43C446.55,596.88,442.29,631.75,428.33,621Z"/><path class="cls-5" d="M428.33,621s14.58-36.83,47.48-76c15.26-18.17,37.85-34.8,58.64-52.21,65.65-55,156.45-91.65,161.86-95.65,10.82-8,82.78-15.9,90.07-15.6,0,0,19,14.49-22.12,12.39,0,0-41.83,13-62,6.51,0,0-32.31.75-43.06,16.8,0,0-16.2,15.69-33.89,10,0,0-7.58-2.44-14,22,0,0-3.09,26.89-34.58,25.11,0,0-19.8-7.77-27.49,20.43,0,0-.56,27.7-28.34,18.75,0,0-38.63-1.28-74.27,83.43C446.55,596.88,442.29,631.75,428.33,621Z"/><path class="cls-6" d="M750.28,373.35S701,361,676.38,376.74c0,0-21.71,11.13-18.46,1,0,0,2.81-13-34.08,32.24,0,0-35.22,44.42-42.2,18.47,0,0-5.84-38.13,5-45.79,0,0-24.77-1-33.31,25.52,0,0-5.48,38.66-19.61,52.23,0,0-16.7,8.57-17.69-5.69,0,0,2.72-21.43-26.91,35.94,0,0-36.5,72.28-40.61,86.1,0,0,40-57.7,116.55-107.3,0,0,101.94-66.83,152.39-79C717.44,390.49,776.49,383.88,750.28,373.35Z"/><path class="cls-7" d="M551.15,456.88s35.32,29.88,39.72,37.71l8.41-2.3L592.08,466,579,447Z"/><path class="cls-8" d="M585.85,453.59s15.7,22.43-19.25,11.3L537,456.8l14.69-27S573.49,433.24,585.85,453.59Z"/><path class="cls-9" d="M562.12,433s24.39,14.78,14.27,23.21a44,44,0,0,1-31.16,1.76l-30.14-26.4S543.94,424.39,562.12,433Z"/><path class="cls-10" d="M527.41,430.05s25.33-2.42,32.52,11.43c0,0,6.61,11.75-11.94,10,0,0-51.05-.7-43.52-18.58C504.47,433,520.81,430.73,527.41,430.05Z"/><path class="cls-11" d="M447.93,476.13s27.47-48.21,57.21-42.8a52.1,52.1,0,0,1,6.51,7.25s3.54,4.68,14.53-.59c0,0,26.28-7.2,62.12,57.57,0,0-63.25-43.13-108.35-26.25,0,0-19.21,4.14-32.2,14.48C447.75,485.79,440.86,485.42,447.93,476.13Z"/><path class="cls-12" d="M560.27,457.79s19,8.9,29,28.78c0,0,6.9,12.8,6.31-1.73,0,0-6-47.82-51.26-53.63,0,0-5.66-.54.2-2.3,0,0,26.22-1.69,46.24,30.12,0,0,11.79,18.25,9.8,35.74,0,0-.09,7.94,1.36,13.19,0,0,2.59,9.47-.57,10.33,0,0-2.86,1.92-4.88-5.44,0,0-3.17-11.57-7.47-14.91C589,497.94,569.11,463.85,560.27,457.79Z"/><path class="cls-13" d="M484,437.53s18.24-8.5,14.82,3.74c0,0-13,10.34-4.38,17,0,0,18.28,2.78,30,11.5,0,0-24.71-7.35-50.47,3.13,0,0-21.09,6.94-26.24,12.87,0,0-5.55.39-.21-9C447.54,476.8,468.64,444.12,484,437.53Z"/><path class="cls-7" d="M357.19,428.65s-29.29,24.78-32.95,31.28l-7-1.91,6-21.8,10.89-15.77Z"/><path class="cls-8" d="M328.41,425.91s-13,18.62,16,9.38l24.55-6.71-12.19-22.42S338.66,409,328.41,425.91Z"/><path class="cls-9" d="M348.1,408.81s-20.24,12.27-11.84,19.26a36.5,36.5,0,0,0,25.85,1.46l25-21.9S363.18,401.69,348.1,408.81Z"/><path class="cls-10" d="M376.89,406.39s-21-2-27,9.48c0,0-5.48,9.75,9.91,8.34,0,0,42.34-.58,36.1-15.42C395.92,408.79,382.36,407,376.89,406.39Z"/><path class="cls-11" d="M442.82,444.62s-22.79-40-47.46-35.51a43.34,43.34,0,0,0-5.4,6s-2.94,3.88-12-.49c0,0-21.8-6-51.53,47.75,0,0,52.47-35.78,89.88-21.77,0,0,15.93,3.43,26.71,12C443,452.63,448.68,452.32,442.82,444.62Z"/><path class="cls-12" d="M349.63,429.4s-15.76,7.39-24,23.87c0,0-5.72,10.62-5.23-1.43,0,0,5-39.67,42.52-44.49,0,0,4.69-.45-.17-1.91,0,0-21.75-1.4-38.36,25,0,0-9.77,15.13-8.13,29.65A49,49,0,0,1,315.11,471s-2.15,7.85.47,8.56c0,0,2.37,1.59,4.05-4.51,0,0,2.62-9.59,6.2-12.36C325.83,462.71,342.3,434.43,349.63,429.4Z"/><path class="cls-13" d="M412.88,412.6s-15.13-7.06-12.29,3.1c0,0,10.77,8.58,3.63,14.12,0,0-15.17,2.31-24.88,9.54,0,0,20.49-6.1,41.86,2.59,0,0,17.49,5.75,21.77,10.68,0,0,4.6.32.16-7.46C443.13,445.17,425.64,418.07,412.88,412.6Z"/><circle class="cls-14" cx="429" cy="433" r="432"/><g id="flower"><path class="cls-15" d="M432,217s4.53,28.93-5,41.91l-5.15-5.8s-24-26.84-22.85-48.09l-14.71,19.21,34.53,38.36s4.47,2.08,4.47,22.3l1.45,54.89s-23.17-26-38.31-60.65L328,256l-18.77,20.22L328,290.62s8.67-4.34,28.89,7.22c0,0,50.55,30.33,65,54.88,0,0,8.66,28.89,8.66,37.56,0,0-10.11-7.22-17.33-10.11l-16.45,8.15s32.34-2.37,30.9,39.51l1.44,156S426.24,650.27,397.35,747c0,0-13,60.66,30.34,36.11,0,0,5.77-7.22,5.77-46.22,0,0-2.89-70.78,14.45-132.88,0,0,11.55-10.11,5.77-52l2.17-110.5s1.45-18.77,21.67-33.22l44.77-44.77L583,357.78s38.61,14.54,41,33.27l17.37-5.38s-20.79-13.45-28-19.22l-31.53-25.38s-16.14,9.49-30.58,9.49l-17.33,2.89s-7.22,0,0-7.22c0,0,9.47-8,17.74-9L531,317.34s4.33,10.11-7.22,27.44l-65,67.89S441.41,430,440,395.33c0,0,0-26-4.33-39,0,0-4.33-20.23-2.89-31.78,0,0-1.44-49.11,2.89-60.66,0,0,11.21-43.41,12.11-54.21Z"/><g id="buds"><path class="cls-16" d="M356.91,163.51S342.47,152,342.47,165c0,0,4.33,21.66,14.44,31.77l27.44,27.45V188.07s-4.33-41.89-13-41.89c0,0-10.12-1.47-7.95,16.6S356.91,163.51,356.91,163.51Z"/><path class="cls-17" d="M346.08,165.68s11.14,2.25,7-3.93c0,0-7.62-6.82-10.21,0C342.88,161.75,343.19,165.68,346.08,165.68Z"/><path class="cls-17" d="M367.74,152.68s8.37.35,7.08-4.16c0,0-2.41-5.6-9.07,0C365.75,148.52,362,152.68,367.74,152.68Z"/><path class="cls-18" d="M385.8,134.62s-2.89-17.33-11.56-17.33c0,0-8.66,0,0,39,0,0,11.56,43.33,17.34,44.78l7.48,3.9s.46-26.29-6.76-26.29Z"/></g><path class="cls-19" d="M653.53,423.4s23.29,28.34,29.93,26.21c0,0,6.59-3.36-6.18-15,0,0-31.21-27.38-32-31.63C645.27,403,647.78,418.14,653.53,423.4Z"/><path class="cls-20" d="M631.2,389.5s-6.27-3.39-7.27,1.55c0,0-.56,5,6.87,12l8-8.7A13,13,0,0,0,631.2,389.5Z"/><path class="cls-21" d="M659.77,426.18s-7.93-13.12-14.53-23.84c0,0-5.9-8.92-10-4.45,0,0-8.5,1.6,3,12.11,0,0,12.4,11,21.89,21C660.13,431,663.71,432.12,659.77,426.18Z"/><path class="cls-22" d="M635.62,392.36s-9.2-.2-7.76,4.63a19.71,19.71,0,0,0,8.57,11.27s-3.72-8.72-3.64-8.88a10.56,10.56,0,0,0,5.12,3.29s1.17-1.28-2.66-4.78c0,0,7.45-.2,8.43,2.44C643.68,400.33,640.61,394.59,635.62,392.36Z"/><path class="cls-23" d="M675.82,446.46a18.64,18.64,0,0,0-5.52-12.93s-15.58-12.45-18.46-16.76L649,408l25.85,24.37s10.53,9.78,7.66,11.69c0,0,3.09,4.4.65,5.27S675.82,446.46,675.82,446.46Z"/><path class="cls-24" d="M685,444.91s.92,5.82-3.86,4.51c0,0-1.53-2.47-.2-3.87,0,0,3.25-1.16-1.75-4.88,0,0-3.86-4.81-1.88-6.09C677.28,434.58,684,440.56,685,444.91Z"/><path class="cls-19" d="M184.82,319.77s-57.77-20.67-58.16-32.32c0,0,1.56-12.26,27.14,1.24,0,0,60.72,33.67,67.86,32.53C221.66,321.22,196.33,325.84,184.82,319.77Z"/><path class="cls-20" d="M250.77,335.77s8.89,8,1.67,12.33c0,0-7.61,3.72-22.76-4.06l9.21-17.44A21.67,21.67,0,0,1,250.77,335.77Z"/><path class="cls-21" d="M176.91,311.51s25.12,5.08,45.73,9.41c0,0,17.37,4.26,12.64,13.22,0,0,2.28,14.28-20.74,2.13,0,0-24.31-13.32-45.44-22.59C169.1,313.68,165.33,308.67,176.91,311.51Z"/><path class="cls-22" d="M243.77,330.44s5.51,14.35-2.91,14.82c0,0-12.48,1.33-22.56-7.14,0,0,15.81.95,16,.74s-4.3-1-8.07-6.21c0,0,1.35-2.56,9,1.49,0,0-3.89-11.85-8.6-11.89C226.68,322.25,237.45,323.83,243.77,330.44Z"/><path class="cls-23" d="M135.93,297.7a31.15,31.15,0,0,1,23.47,1.39s28.38,17.5,36.79,19.59l15.41-.51-52.95-26.93s-21.33-11.06-22.73-5.45c0,0-8.66-2.4-8.66,1.94S135.93,297.7,135.93,297.7Z"/><path class="cls-24" d="M133.2,282.43s-9.68,1.84-4.92,8.62c0,0,4.75,1,6.2-1.88,0,0,0-5.78,8.66,0,0,0,9.76,3.37,10.66-.48C153.8,288.69,140.58,281.46,133.2,282.43Z"/><path class="cls-19" d="M621.48,307.24s44.11-5.21,46.28-13.36c0,0,.89-8.91-19.35-3.54,0,0-48.31,13.9-53.17,11.94C595.24,302.28,612.37,309.65,621.48,307.24Z"/><path class="cls-20" d="M572.34,307.81s-7.56,4.18-3.18,8.43c0,0,4.77,3.87,16.72.84l-3.67-13.81A15.66,15.66,0,0,0,572.34,307.81Z"/><path class="cls-21" d="M628.39,302.69s-18.54-.49-33.79-.78c0,0-13,.18-11.07,7.27,0,0-3.92,9.71,14.29,4.87,0,0,19.32-5.45,35.74-8.56C633.56,305.49,637,302.57,628.39,302.69Z"/><path class="cls-22" d="M578.14,305.19s-6.22,9.23-.35,10.93a23.82,23.82,0,0,0,17.08-1.37s-11.31-1.9-11.43-2.09a12.83,12.83,0,0,0,6.7-3.07s-.54-2-6.61-.41c0,0,4.67-7.73,8-7C591.54,302.18,583.68,301.56,578.14,305.19Z"/><path class="cls-23" d="M659.56,299.6a22.59,22.59,0,0,0-16.79-2.83s-22.87,7.74-29.15,7.85l-10.79-2.86,41.74-10.4s16.85-4.34,16.93-.16c0,0,6.5-.28,5.8,2.78S659.56,299.6,659.56,299.6Z"/><path class="cls-24" d="M664,289.27s6.53,2.87,2.07,6.89c0,0-3.52-.06-4.07-2.34,0,0,.94-4.07-6.11-1.41,0,0-7.43.8-7.44-2.07C648.41,290.34,658.91,287.39,664,289.27Z"/><path class="cls-19" d="M668.61,414.16S705.56,438.83,712.5,434c0,0,6.46-6.19-12.43-15.24,0,0-45.78-20.77-48.21-25.41C651.86,393.37,660.11,410.09,668.61,414.16Z"/><path class="cls-20" d="M630.84,382.72s-8.46-1.73-7.89,4.35c0,0,1.13,6,12.18,11.49l6.17-12.89A15.7,15.7,0,0,0,630.84,382.72Z"/><path class="cls-21" d="M676.82,415.19s-13.79-12.41-25.2-22.52c0,0-10-8.26-13.14-1.65,0,0-9.29,4.84,7.71,13,0,0,18.23,8.38,32.75,16.67C678.94,420.68,683.47,420.7,676.82,415.19Z"/><path class="cls-22" d="M637,384.49s-10.72,3-7.36,8.09a23.82,23.82,0,0,0,13.89,10s-7.37-8.79-7.34-9a12.93,12.93,0,0,0,7.09,2s.9-1.89-4.76-4.61c0,0,8.56-2.85,10.63-.12C649.11,390.9,643.53,385.32,637,384.49Z"/><path class="cls-23" d="M702.54,433.06A22.54,22.54,0,0,0,691.61,420s-22.43-8.95-27.28-12.93L658,397.9l38.51,19.16s15.64,7.63,13,10.86c0,0,5.13,4,2.61,5.88S702.54,433.06,702.54,433.06Z"/><path class="cls-24" d="M712.6,428.06s3.11,6.41-2.89,6.58c0,0-2.64-2.33-1.58-4.42,0,0,3.35-2.49-3.74-5,0,0-6.17-4.21-4.32-6.4C700.07,418.78,710,423.34,712.6,428.06Z"/><path class="cls-25" d="M676.87,366.53s68.24,2.75,73.51-9.11c0,0,3.5-13.3-28.53-10,0,0-76.71,9.43-83.61,5.28C638.24,352.66,662.46,368,676.87,366.53Z"/><path class="cls-20" d="M602.12,355.53s-12.48,4.51-6.86,12c0,0,6.31,7,25.18,5.31L618.22,351A24.15,24.15,0,0,0,602.12,355.53Z"/><path class="cls-26" d="M688.47,361.3s-28-5.24-51.11-9.36c0,0-19.71-2.84-18.57,8.37,0,0-8.3,13.79,20.53,10.85,0,0,30.63-3.61,56.32-4.36C695.64,366.8,701.61,363.2,688.47,361.3Z"/><path class="cls-22" d="M611.57,353s-11.67,12.52-3.17,16.51c0,0,12.32,6.58,26.26,2.05,0,0-16.71-5.63-16.85-5.93s4.84.81,10.92-3.05c0,0-.33-3.2-9.94-2.22,0,0,9-10.61,13.85-8.69C632.64,351.62,620.85,348.77,611.57,353Z"/><path class="cls-27" d="M736.8,363.82s-10.44-3.95-12.7-10.2c0,0-3.16-5.83,11-6.62,0,0,15.75-1,15.29,10.42C750.38,357.42,743.56,363.29,736.8,363.82Z"/><g id="_1flower" data-name="1flower"><polygon class="cls-28" points="273.69 179.46 290.11 173.62 304.91 189.51 343.91 247.28 339.9 256.57 304.91 222.73 273.69 179.46"/><path class="cls-29" d="M280.36,141.85S276,150.51,289,163.51c0,0,4.33,20.22-4.34,20.22,0,0-18.77,0-28.88-5.77,0,0-13-14.45,2.88-14.45,0,0,15.17,2.17,12.28-6.5C271,157,266.64,141.12,280.36,141.85Z"/><path class="cls-30" d="M245,175.79s21.67-2.89,34.67,7.22v13.91S259.42,175.79,245,175.79Z"/><path class="cls-31" d="M258,167.12s16.21,5.59,21.83,15.8,9.95,18.87,9.95,21.76-18.78-15.89-23.11-26c0,0-7.22-7.22-11.56-7.22C255.08,171.46,249.31,168.57,258,167.12Z"/><path class="cls-32" d="M292.63,182s8.67,14,8.67,21.22c0,0,5.78,10.11,18.78,21.67,0,0,14.44,15.89,23.11,7.22,0,0-14.85-15.31-20.42-27.16Z"/><path class="cls-33" d="M278.37,180.71S297,197.45,299.86,209c0,0,4.33,11.55,23.11,28.89,0,0,15.09,12.79,16.93,18.67,0,0-21.26-14.34-32.82-27.34,0,0-17.13-23.48-23.73-29.07S278.37,180.71,278.37,180.71Z"/><path class="cls-34" d="M285.42,175.79s18.77,14.44,21.66,26c0,0,2.89,11.55,17.33,7.22,0,0-1.44-8.67-21.66-28.89,0,0-21-19.93-20.59-20.8s-5.41,4.91-5.41,4.91S281.08,172.9,285.42,175.79Z"/><path class="cls-35" d="M343.19,230.68s14.44,15.88,17.33,21.66,17.34,14.44,17.34,14.44,15.88,18.78,8.66,20.23-43.33-20.23-43.33-20.23S333.08,235,320.08,224.9C320.08,224.9,334.52,240.79,343.19,230.68Z"/><path class="cls-36" d="M275.3,149.79s10.12,14.86,14.45,18.26c0,0-7.22,3.41-13-3.82C276.75,164.23,271,149.79,275.3,149.79Z"/><path class="cls-37" d="M279.64,141.12l.59,8.67s3.74-5.78,2.3-10.11c0,0-4.34-5.78-11.56,2.89a19,19,0,0,0,0,16.75s-5.78-9.53-13-5.2c0,0-6.74,4.9-2.65,9.67,0,0-8.9.44-8.9,4.78,0,0-14.45,8.66-4.34,8.66a19.9,19.9,0,0,1,10.14,0s4.49.58-1.38-8.38c0,0-1.53-6.06,11.47-1.73,0,0,11.55,5.78,11.55-1.44a46.32,46.32,0,0,0-1.44-10.11S268.08,142.57,279.64,141.12Z"/></g><path class="cls-25" d="M447.91,150.51s8.66-60.66-1.45-66.44c0,0-11.55-4.33-11.55,24.56,0,0,1.44,69.33-2.89,75.1C432,183.73,447.91,163.51,447.91,150.51Z"/><path class="cls-20" d="M431.3,216.23s2.89,11.56,10.11,7.22c0,0,6.84-5,7-22H428.73A21.62,21.62,0,0,0,431.3,216.23Z"/><path class="cls-26" d="M444.3,139.68s-7.23,24.55-13,44.78c0,0-4.34,17.33,5.77,17.33,0,0,11.56,8.66,11.56-17.33,0,0-.44-27.68,1.23-50.67C449.86,133.79,447.19,128.12,444.3,139.68Z"/><path class="cls-22" d="M429.85,207.57S440,219.12,444.3,211.9c0,0,7-10.41,4.22-23.26,0,0-6.54,14.41-6.83,14.5s1.16-4.24-1.73-10c0,0-2.89,0-2.89,8.67,0,0-8.65-9-6.49-13.15C430.58,188.64,427,198.9,429.85,207.57Z"/><path class="cls-27" d="M450.94,96.77s-4.48,9-10.25,10.41c0,0-5.5,2.29-4.92-10.41,0,0,.58-14.14,10.69-12.7C446.46,84.07,451.09,90.7,450.94,96.77Z"/><path class="cls-25" d="M591.9,267.69s29.24-40.42,24.14-48.42c0,0-6.68-7.5-17.63,13.31,0,0-25.24,50.5-30.55,53C567.86,285.6,587,277.05,591.9,267.69Z"/><path class="cls-20" d="M555,308.74s-2.3,9.42,4.54,9c0,0,6.82-1,13.41-13.18l-14.2-7.47A17.61,17.61,0,0,0,555,308.74Z"/><path class="cls-26" d="M593.4,258.51s-14.51,15-26.34,27.34c0,0-9.69,10.84-2.4,14.67,0,0,5,10.63,14.89-8.1,0,0,10.18-20.11,20.09-36C599.64,256.38,599.86,251.29,593.4,258.51Z"/><path class="cls-22" d="M557.26,302s2.91,12.16,8.77,8.59c0,0,9-4.84,11.85-15.15,0,0-10.17,7.9-10.41,7.86a14.52,14.52,0,0,0,2.55-7.88s-2.08-1.09-5.36,5.15c0,0-2.84-9.73.3-11.93C565,288.59,558.47,294.61,557.26,302Z"/><path class="cls-27" d="M614.45,230.12s-6.62,4.76-11.33,3.61c0,0-4.83-.43.41-9.36,0,0,5.78-10,12.51-5.1C616,219.27,616.86,225.8,614.45,230.12Z"/><path class="cls-25" d="M353.09,161.75s-37.28-48.63-31.3-58.63c0,0,7.95-9.44,22.11,15.74,0,0,32.72,61.14,39.32,64.06C383.22,182.92,359.47,173.08,353.09,161.75Z"/><path class="cls-20" d="M399.78,210.89s3.15,11.49-5.27,11.25c0,0-8.41-1-16.91-15.73l17.18-9.65A21.63,21.63,0,0,1,399.78,210.89Z"/><path class="cls-26" d="M350.93,150.53s18.33,17.87,33.28,32.66c0,0,12.27,13,3.46,17.94,0,0-5.83,13.22-18.57-9.44,0,0-13.18-24.34-25.9-43.57C343.2,148.12,342.75,141.88,350.93,150.53Z"/><path class="cls-22" d="M396.79,202.63s-3.15,15-10.46,10.85c0,0-11.2-5.64-15.08-18.2,0,0,12.76,9.35,13.06,9.29s-3.09-3.12-3.41-9.58c0,0,2.52-1.41,6.77,6.14,0,0,3.15-12-.79-14.64C386.88,186.49,395.06,193.66,396.79,202.63Z"/><path class="cls-27" d="M324.11,116.39s8.3,5.62,14,4c0,0,5.91-.7-.82-11.48,0,0-7.44-12-15.54-5.84C321.79,103.12,321,111.17,324.11,116.39Z"/><path class="cls-25" d="M359.46,211.34s-54.86-40.68-51.52-53.22c0,0,5.62-12.55,28.52,10.09,0,0,53.81,55.48,61.78,56.57C398.24,224.78,369.76,221.53,359.46,211.34Z"/><path class="cls-20" d="M424.56,249.68s6.89,11.35-2.2,13.67c0,0-9.32,1.51-22.94-11.66l15.44-15.62A24.16,24.16,0,0,1,424.56,249.68Z"/><path class="cls-26" d="M353.71,200s25.12,13.52,45.67,24.79c0,0,17.13,10.15,9.21,18.16,0,0-2.19,15.95-22.8-4.43,0,0-21.59-22-41.11-38.74C344.68,199.77,342.29,193.22,353.71,200Z"/><path class="cls-22" d="M418.82,241.74s1.24,17.07-7.88,14.85c0,0-13.73-2.62-21.74-14.89,0,0,16.54,6.11,16.84,6s-4.27-2.41-6.59-9.22c0,0,2.27-2.29,9.14,4.5,0,0-.33-13.88-5.34-15.45C403.25,227.49,414.22,232.66,418.82,241.74Z"/><path class="cls-27" d="M314.5,171.62s10.61,3.48,16.28,0c0,0,6.12-2.55-4.4-12.05,0,0-11.66-10.62-18.44-1.48C307.94,158.12,309.57,167,314.5,171.62Z"/><path class="cls-25" d="M258,261.05s-58.72-20.58-59.19-32.4c0,0,1.5-12.44,27.53,1.08,0,0,61.8,33.76,69,32.56C295.41,262.29,269.75,267.14,258,261.05Z"/><path class="cls-20" d="M325,276.85s9.06,8,1.78,12.49c0,0-7.71,3.83-23.12-4l9.23-17.76A22,22,0,0,1,325,276.85Z"/><path class="cls-26" d="M250,252.73s25.51,5,46.44,9.24c0,0,17.64,4.21,12.91,13.32,0,0,2.4,14.47-21,2.3,0,0-24.73-13.34-46.23-22.61C242.05,255,238.2,249.92,250,252.73Z"/><path class="cls-22" d="M317.9,271.49s5.68,14.52-2.86,15c0,0-12.65,1.44-22.93-7.08,0,0,16,.85,16.26.64s-4.37-.94-8.22-6.25c0,0,1.35-2.6,9.16,1.45,0,0-4-12-8.81-12C300.5,263.29,311.44,264.83,317.9,271.49Z"/><path class="cls-27" d="M208.19,238.63s10.17.16,14.18-4.37c0,0,4.63-3.88-7.08-9.3,0,0-13-6.1-16.45,3.69C198.84,228.65,202.64,235.92,208.19,238.63Z"/><path class="cls-25" d="M291.62,237.64s-52.47-33.47-50.23-45.08c0,0,4.31-11.77,26.56,7.35,0,0,52.45,47,59.77,47.47C327.72,247.38,301.63,246.24,291.62,237.64Z"/><path class="cls-20" d="M353.23,268.32s7,9.87-1.12,12.57c0,0-8.38,2-21.6-9.14l13-15.18A22,22,0,0,1,353.23,268.32Z"/><path class="cls-26" d="M285.66,227.69s23.69,10.68,43.09,19.61c0,0,16.22,8.13,9.53,15.92,0,0-1,14.63-21-2.57,0,0-21-18.65-39.85-32.58C277.44,228.07,274.85,222.27,285.66,227.69Z"/><path class="cls-22" d="M347.51,261.48s2.21,15.43-6.22,14c0,0-12.64-1.5-20.7-12.14,0,0,15.42,4.5,15.68,4.34s-4-1.91-6.57-8c0,0,1.91-2.23,8.58,3.51,0,0-1.18-12.6-5.83-13.7C332.45,249.52,342.75,253.52,347.51,261.48Z"/><path class="cls-27" d="M248.21,204.42s9.87,2.48,14.81-1c0,0,5.39-2.71-4.77-10.67,0,0-11.28-8.91-16.86-.17C241.39,192.56,243.43,200.51,248.21,204.42Z"/><path class="cls-25" d="M223.38,301.36s-54.67-27.85-53.58-39.46c0,0,3.11-12,26.77,4.68,0,0,55.94,41.13,63.16,40.91C259.73,307.49,234,308.85,223.38,301.36Z"/><path class="cls-20" d="M286.76,325.62s7.8,9,.09,12.44c0,0-8,2.72-22.06-6.92L276.14,315A21.64,21.64,0,0,1,286.76,325.62Z"/><path class="cls-26" d="M216.59,292.16s24.26,8.23,44.15,15.15c0,0,16.69,6.44,10.87,14.72,0,0,.44,14.45-20.85-.52,0,0-22.41-16.3-42.2-28.19C208.56,293.32,205.46,287.87,216.59,292.16Z"/><path class="cls-22" d="M280.5,319.44s3.64,14.94-4.77,14.33c0,0-12.55-.27-21.48-9.95,0,0,15.57,2.95,15.81,2.77s-4.15-1.49-7.21-7.19c0,0,1.66-2.36,8.76,2.63,0,0-2.36-12.25-7-12.89C264.58,309.14,275.07,312.08,280.5,319.44Z"/><path class="cls-27" d="M177.62,272.89s9.92,1.49,14.43-2.41c0,0,5-3.17-5.69-10,0,0-11.92-7.67-16.56,1.44C169.8,261.9,172.56,269.5,177.62,272.89Z"/><path class="cls-19" d="M225.53,342.81s-61.05-6.07-64.25-17.28c0,0-1.45-12.27,26.63-5.37,0,0,67.07,18,73.72,15.14C261.63,335.3,238.17,345.92,225.53,342.81Z"/><path class="cls-20" d="M293.4,342.37s10.54,5.57,4.6,11.56c0,0-6.49,5.45-23.06,1.57l4.71-19.15A21.66,21.66,0,0,1,293.4,342.37Z"/><path class="cls-21" d="M215.86,336.71s25.6-1.15,46.64-1.94c0,0,17.89-.07,15.47,9.77,0,0,5.67,13.3-19.61,7.09,0,0-26.8-7-49.56-10.92C208.8,340.71,203.94,336.76,215.86,336.71Z"/><path class="cls-22" d="M285.32,338.89s8.82,12.6.76,15.08c0,0-11.79,4.32-23.62-1.45,0,0,15.57-2.92,15.73-3.17s-4.4.11-9.33-4.08c0,0,.69-2.81,9.11-.73,0,0-6.64-10.56-11.23-9.46C266.74,335.08,277.58,334,285.32,338.89Z"/><path class="cls-23" d="M172.75,333.23a31.13,31.13,0,0,1,23.11-4.34S227.64,339,236.31,339l14.83-4.23-57.9-13.31s-23.37-5.57-23.37.21Z"/><path class="cls-38" d="M172.55,332.92s9.79-2.22,12.58-7.49c0,0,3.54-4.79-8.95-7.26,0,0-13.89-2.82-14.9,7.36C161.28,325.53,166.61,331.61,172.55,332.92Z"/><g id="_2flower" data-name="2flower"><path class="cls-39" d="M361.56,349.46s4.74-.35,22.07,11.21c0,0,13,8.67,28.89,8.67,0,0,1.44-2.89,5.78,7.22l5.78,13-31.78-1.45-31.78-24.55Z"/><path class="cls-40" d="M364.86,350.56s16.75,14.91-4.63,13.23l-44.48-6-10.11-20.22,8.66-10.11S350.41,346.23,364.86,350.56Z"/><path class="cls-41" d="M300.58,326.73s-26-13-27.44-4.34c0,0,1.44,14.45,11.55,18.78,0,0-20.22,7.22-18.77,15.89,0,0,18.77,2.89,18.77,11.55,0,0,1.45,2.89,7.22,0,0,0,10.84-6.5,16.62-6.5,0,0-4.34-20.22,2.88-21.66,0,0-1.44-13,2.89-13,0,0-7.22-10.11-7.22-17.33C307.08,310.12,298.41,307.23,300.58,326.73Z"/><path class="cls-42" d="M278.19,326s8.67,4.34,21.67,11.56c0,0,5.78,1.44,2.89,5.78,0,0-4.34,8.66-2.89,14.44,0,0-14.44-10.11-15.89,11.56,0,0,2.56-7.66-10.28-10.33,0,0-2.72-8.45,13.17-14.23,0,0,2.89-2.89-2.89-4.33a16.9,16.9,0,0,1-9.53-12.25S273.86,324.56,278.19,326Z"/><path class="cls-43" d="M301.06,314.47s1.69-4.35,4.58,5.76c0,0,3.22,8.73,5.94,10.86,0,0-1.61,6.47-7.39.69,0,0-1.44,0-2.89-4.33C301.3,327.45,299.37,317.38,301.06,314.47Z"/><path class="cls-44" d="M383.63,389.56s10.11,13,17.34,13c0,0,21.66-7.23,21.66-13,0,0,7.43-4.7-16.51-6l-35-2.11S382.19,383.78,383.63,389.56Z"/><path class="cls-45" d="M293.72,334.18s-8.3-2.4-6.86,1.93c0,0,7.22,10.12,4.33,10.12,0,0-12.05,9.12-3.14,11.06,0,0,3.14-3.84,11.81.49,0,0-1.45-8.67,2.89-14.44,0,0,2.89-2.89-2.89-5.78Z"/><path class="cls-46" d="M356.19,376.56s23.11,5.77,37.55,17.33c0,0,2.89,5.78,17.34-7.22,0,0,5.77-1.45-11.56-4.34a114,114,0,0,1-14.44-8.66s-8.67-7.22-20.22-8.67Z"/><path class="cls-47" d="M315.75,337.56s11.55,11.55,27.44,13c0,0,11.56,2.89,15.89,4.33,0,0,7.22-2.89-14.45-10.11,0,0-21.66-13-30.33-18.78C314.3,326,310,333.23,315.75,337.56Z"/><path class="cls-48" d="M311.41,340.45s-7.22,2.89-1.44,7.22c0,0,11.55,11.55,24.55,11.55L325,364.89s24,5.89,31.19,11.67c0,0,8.67,2.89,18.78-5.78,0,0,4.33-2.89-10.11-5.78,0,0-23.11-5.78-36.11-11.55C328.75,353.45,314.3,346.23,311.41,340.45Z"/><path class="cls-49" d="M310,347.67s7.22,10.11,24.55,11.55c0,0,15.89,4.34,15.89,7.23,0,0,1.45,7.22-18.77,0,0,0-17.34-4.34-23.11-4.34C308.53,362.11,305.64,343.34,310,347.67Z"/></g><g id="_2flower-2" data-name="2flower"><path class="cls-39" d="M550.3,265.87S547,269.26,544.58,290c0,0-1.79,15.52-12.06,27.64,0,0-3.14-.77,1.78,9.08l6.18,12.81,19.44-25.18,1.81-40.12Z"/><path class="cls-40" d="M549,269.1s.54,22.42,13.08,5l24.17-37.83-8.89-20.78-13.32.08S555,255.27,549,269.1Z"/><path class="cls-41" d="M572.37,204.65s6.89-28.24,14.44-23.74c0,0,10.08,10.44,6.85,21,0,0,18.58-10.76,24.26-4.05,0,0-9.93,16.19-3.32,21.79,0,0,1.27,3-4.67,5.51,0,0-12,4.07-15.69,8.48,0,0-12.63-16.38-18.4-11.81,0,0-9-9.5-11.79-6.19,0,0-3-12.05-8.55-16.72C555.5,198.87,558.89,190.39,572.37,204.65Z"/><path class="cls-42" d="M586.29,187.1s-2.29,9.41-5.19,24c0,0-2.63,5.34,2.54,5.94,0,0,9.42,2.3,12.89,7.13,0,0,1.62-17.55,19.09-4.65,0,0-7.49-3-1.24-14.52,0,0-4.68-7.54-19.36.85,0,0-4.07.34-1.44-5a16.89,16.89,0,0,0-3.18-15.19S588,182.86,586.29,187.1Z"/><path class="cls-43" d="M562.71,197.09s-4.41-1.52,1.43,7.21c0,0,4.59,8.11,4.45,11.57,0,0,6,2.95,5.3-5.2,0,0,.94-1.1-1.43-5C572.46,205.67,566,197.68,562.71,197.09Z"/><path class="cls-44" d="M566.62,308.63s3.39,16.12-1.28,21.63c0,0-19.52,11.86-23.93,8.13,0,0-8.38,2.63,6.13-16.45l21-28.08S563.15,303.79,566.62,308.63Z"/><path class="cls-45" d="M582.5,204.23s3.53-7.88,5.9-4c0,0,3.05,12.05,4.92,9.84,0,0,14.75-3.3,10.47,4.76,0,0-5-.09-7.26,9.32,0,0-5.68-6.7-12.89-7.13,0,0-4.07.34-2.54-5.94Z"/><path class="cls-46" d="M574.44,279.29s-10.53,21.37-11.05,39.86c0,0,2.54,5.93-16.71,8.55,0,0-4.84,3.48,4.16-11.62a114.21,114.21,0,0,0,2.73-16.62s.09-11.28,6.46-21Z"/><path class="cls-47" d="M570.83,223.22s1.35,16.29-7.82,29.34c0,0-5.26,10.69-7,14.93,0,0-6.88,3.64,1.62-17.56,0,0,4.09-24.93,5.28-35.28C563,214.65,571.26,216,570.83,223.22Z"/><path class="cls-48" d="M575.84,221.78s6.87-3.64,6.44,3.57c0,0,1.35,16.29-7,26.2L585.7,248s-11,22.09-11.26,31.34c0,0-3.39,8.48-16.54,10.59,0,0-5,1.44,2.13-11.45,0,0,10.53-21.37,14.52-35C574.55,243.41,578.38,227.72,575.84,221.78Z"/><path class="cls-49" d="M582.28,225.35s3.05,12.05-7,26.2c0,0-7,14.93-4.77,16.8,0,0,4.58,5.77,12.14-14.33,0,0,7.9-16,11.64-20.43C594.24,233.59,581.78,219.24,582.28,225.35Z"/></g><path class="cls-19" d="M653.89,356.2S724.41,360,730,347.78c0,0,3.8-13.7-29.36-10.76,0,0-79.43,8.7-86.5,4.32C614.15,341.34,639,357.52,653.89,356.2Z"/><path class="cls-20" d="M576.77,343.81s-13,4.5-7.26,12.34c0,0,6.43,7.35,26,5.84l-2-22.62A25,25,0,0,0,576.77,343.81Z"/><path class="cls-21" d="M666,351s-28.92-5.79-52.72-10.37c0,0-20.33-3.21-19.3,8.4,0,0-8.78,14.14,21.07,11.5,0,0,31.72-3.32,58.28-3.75C673.29,356.73,679.52,353.09,666,351Z"/><path class="cls-22" d="M586.57,341.28s-12.23,12.78-3.5,17c0,0,12.65,7,27.12,2.47,0,0-17.21-6-17.34-6.36s5,.91,11.33-3c0,0-.3-3.31-10.24-2.43,0,0,9.4-10.84,14.43-8.79C608.37,340.19,596.22,337.08,586.57,341.28Z"/><path class="cls-23" d="M715.61,354.53s-10.24-10-25.53-9c0,0-37.92,5.94-47.78,4.42l-16.13-7.41,68.2-5s27.56-2.25,26.54,4.32c0,0,10.27,1.32,8.34,5.92S715.61,354.53,715.61,354.53Z"/><path class="cls-24" d="M725.3,339.54s9.45,6.26,1.38,11.35c0,0-5.49-1.05-5.74-4.76,0,0,2.57-6.13-9.2-3.86,0,0-11.85-.77-11.09-5.25C700.65,337,717.9,335.23,725.3,339.54Z"/></g><path class="cls-7" d="M482.79,291.67s32.8,5.9,38.38,9.2l4.41-4.47-14-13.8-15-7.12Z"/><path class="cls-8" d="M503.24,277.1s17.89,8.34-7.93,14l-21.38,5.63-.58-22.16S488.19,268.87,503.24,277.1Z"/><path class="cls-9" d="M481,272.8s20.55.42,17.28,9.33a31.71,31.71,0,0,1-18.81,12.34l-28.32-5.6S466.57,274,481,272.8Z"/><path class="cls-10" d="M458.3,283.5s14.92-10.65,24.4-4.6c0,0,8.37,4.94-3.82,10.58,0,0-32.1,18-33.85,4.1C445,293.58,454.43,286.3,458.3,283.5Z"/><path class="cls-11" d="M425.34,340.92s-.26-40,20.25-47.34a36.48,36.48,0,0,1,6.67,2.18s3.9,1.64,8.86-5.61c0,0,13.79-14,59.51,13.5,0,0-55-4.09-77.06,22.71,0,0-10.49,9.51-14.86,20.65C428.71,347,424.28,349.26,425.34,340.92Z"/><path class="cls-12" d="M488.8,289s15.07-1.3,28.45,7.5c0,0,8.93,5.5,3.31-3.35,0,0-21-27.67-51.32-15,0,0-3.72,1.71-.7-1.5,0,0,15.75-10.52,39.71,2.1,0,0,13.93,7.14,19,18.77a43.12,43.12,0,0,0,5.6,7.74s5,5,3.38,6.64c0,0-1.1,2.23-5-1.63,0,0-6.15-6.07-10-6.6C521.19,303.65,496.5,289.54,488.8,289Z"/><path class="cls-13" d="M433.93,303.82s8.31-11.89,10.59-3c0,0-4.37,11.14,3.41,12.2,0,0,12.41-4.86,22.86-3.64,0,0-18.06,4.32-30.36,20.15,0,0-10.65,11.93-11.72,17.5,0,0-3.32,2.24-3.37-5.54C425.34,341.47,426.71,313.48,433.93,303.82Z"/></g></svg>