<svg xmlns="http://www.w3.org/2000/svg" viewBox="0 0 864 864"><defs><style>.cls-1{fill:#2a4024;}.cls-2{fill:#547b3a;}.cls-3{fill:#678b5d;}.cls-4{fill:#7b9864;}.cls-5{fill:#304f00;}.cls-6{fill:#597015;}.cls-7{fill:#5c7d1e;}.cls-8{fill:#6b8032;}.cls-9{fill:#7b8c1c;}.cls-10{fill:#4d730e;}.cls-11{fill:#fff;}.cls-12{fill:#e2e7a0;}.cls-13{fill:#baba78;opacity:0.6;}.cls-14{fill:#eaf0bd;}.cls-15{fill:#f7fbd6;}</style></defs><title>rubiaceae</title><g id="h_pro_flower"><circle class="cls-1" cx="432" cy="432" r="432"/><g id="flower"><path class="cls-2" d="M336.92,466.61s-75.3,41.44-95.88-11c0,0-58-55.95-119.49,9,0,0-26,23.95-26.87,35.65,0,0,8.52,7.1,17.71,25.92,0,0,64.18,63.81,115.26,26.05,0,0,14.14-10,20.58-31.81,0,0,17.43-27.93,30.62-19.22,0,0,37.44,1.91,64.25-27.49Z"/><path class="cls-3" d="M213.81,446s-21.34,28.68-35.3,19.18c0,0-21.18,11.51-.23,25,0,0,39.61,19.89,12.88,41.49,0,0-39.92,12.89-11.13,21.75,0,0,32-.49,48.5-12,0,0,22-13.84-.88,10.14,0,0-35.51,42.59-113.71-24.48,0,0-11.49-22.74-19.25-27.49,0,0-12.42-7.92,34-47.29,0,0,44.64-33.51,81.61-14.64C210.3,437.54,219.34,439,213.81,446Z"/><path class="cls-4" d="M258,483.05s-9.28-9.46-21.09,2.14c0,0-14.9,6.88-28.14,4.42,0,0-58.46-7.57-70.28,4,0,0-5.49,3.86,4.64,4.73,0,0,56.23-4.16,75.69,1.49,0,0,28,11.19,39.79,1.15C258.56,501,264.12,490.91,258,483.05Z"/><path class="cls-2" d="M519.27,523.77s78.51,35,49.1,83.1c0,0-9.57,80,79.35,89.8,0,0,34.77,6.24,44.64-.11,0,0,.52-11.08,10-29.77,0,0,12.12-89.69-48.83-107.6,0,0-16.52-5.23-37.78,2.79,0,0-32.79,3-33.81-12.79,0,0-21.09-31-60.71-34.62Z"/><path class="cls-3" d="M577.14,634.38s35.74-.3,36.6,16.56c0,0,22,9.93,20-14.89,0,0-8.07-43.59,25.29-35.32,0,0,34.38,24,24-4.26,0,0-19.7-25.22-38.87-31.39,0,0-24.31-9.16,8.61-5.43,0,0,55.39,2.6,49.15,105.43,0,0-11.19,22.89-10.29,31.94,0,0,1.18,14.68-58.22,1.46,0,0-53.68-15.36-61-56.22C572.55,642.26,568.25,634.19,577.14,634.38Z"/><path class="cls-4" d="M580.06,576.8s-1.94,13.11,14.44,15.52c0,0,14.48,7.72,20.51,19.76,0,0,29.27,51.17,45.65,53.59,0,0,6.39,2.06,1-6.55,0,0-37.26-42.31-44.51-61.23,0,0-8-29.07-23.11-32.42C594,565.47,582.6,567.14,580.06,576.8Z"/><path class="cls-2" d="M435.81,601.5s-23.9,41.34,5,53.38c0,0,30.4,32.88-6.41,66.27,0,0-13.61,14.14-20.12,14.5,0,0-3.84-4.81-14.19-10.14,0,0-34.69-36.39-13.12-64.32,0,0,5.73-7.74,17.91-11.06,0,0,15.71-9.36,11-16.78,0,0-.62-20.82,16-35.37Z"/><path class="cls-3" d="M445.84,670.12s-16.17,11.51-11.06,19.38c0,0-6.64,11.63-13.88-.16,0,0-10.58-22.24-22.89-7.64,0,0-7.62,22-12.21,5.93,0,0,.65-17.77,7.25-26.8,0,0,7.95-12.05-5.64.37,0,0-24.07,19.23,12.27,63.44,0,0,12.5,6.65,15.05,11,0,0,4.25,7,26.66-18.33,0,0,19.13-24.41,9.08-45.17C450.47,672.16,449.78,667.13,445.84,670.12Z"/><path class="cls-4" d="M425.76,645.17s5.14,5.26-1.44,11.69c0,0-4,8.19-2.78,15.57,0,0,3.52,32.56-3.06,39,0,0-2.21,3-2.57-2.63,0,0,3-31.18.06-42.06,0,0-5.89-15.67-.18-22.11C415.79,644.62,421.46,641.65,425.76,645.17Z"/><path class="cls-2" d="M412.23,625.09s-40.14-25.86-53.56,2.43c0,0-34.31,28.78-65.88-9.6,0,0-13.48-14.27-13.52-20.79,0,0,5-3.61,10.81-13.69,0,0,38-32.89,64.88-10,0,0,7.46,6.1,10.19,18.42,0,0,8.59,16.15,16.23,11.83,0,0,20.82.39,34.55,17.71Z"/><path class="cls-4" d="M369.1,613s-5.51,4.88-11.61-2c0,0-8-4.39-15.42-3.54,0,0-32.7,2-38.8-4.93,0,0-2.9-2.35,2.76-2.44,0,0,31,4.46,42,2.09,0,0,15.94-5.13,22.1.89C370.13,603,372.82,608.83,369.1,613Z"/><path class="cls-2" d="M556.16,494.76s29.83-49.59,59.56-26c0,0,52.69,13,66.51-45.66,0,0,7-22.73,3.59-29.84,0,0-7.36-1.25-19.07-9.1,0,0-58.94-15.45-75.91,23.8,0,0-4.85,10.61-1.24,25.48,0,0-.7,22.15-11.32,21.54,0,0-22.44,11.55-28.11,37.73Z"/><path class="cls-4" d="M596.58,458.49s8.6,2.37,11.56-8.38c0,0,6.34-9,14.88-12.09,0,0,36.6-15.35,39.55-26.1,0,0,1.9-4.1-4.29-1.18,0,0-31.33,21.43-44.57,24.72,0,0-20.08,3-23.55,12.78C590.16,448.24,590.33,456,596.58,458.49Z"/><g id="leaves-2" data-name="leaves"><path class="cls-5" d="M438.92,212.7S445.4,276.05,483.25,361c0,0,19.06,54-24.38,87.91l-20.72-40.3s9.6-49.67-7.36-110.52C430.79,298.05,418.28,223.31,438.92,212.7Z"/><path class="cls-6" d="M441.5,288.2s35.19-50-27.12-52.74c0,0-60.13-15.47-94.53,2.21,0,0-32.6,24,12.34,21.2s84.51,29,84.51,29S428.49,310.83,441.5,288.2Z"/><path class="cls-7" d="M495.86,148.63l-80.78-4.86s-61.12-.46-45.6,46.64,51.61,77.84,51.61,77.84,67.09,17.7,87.74-94.39C508.83,173.86,516.63,149.55,495.86,148.63Z"/><path class="cls-8" d="M489.81,328.6s-75.87,21.61-49.08,45.52c0,0,29.09,22.74,97.75-24.16,0,0,22.8-23.32-20.3-62,0,0-15.13-12.52-25.09,24.49C493.09,312.41,496.69,325.06,489.81,328.6Z"/><path class="cls-9" d="M478,407.14s-99.32-12.72-104.18,68.06c0,0,2.28,100.3,46,89.43,0,0,83.47-63.21,85-133.57C504.8,431.06,495.24,401.19,478,407.14Z"/><path class="cls-10" d="M356.82,295.49s-36.88,1.57,1.76,54.18c0,0,46.71,51.37,89,15.15,0,0,24.9-41.79-44.54-64.08C403,300.74,385.65,295.17,356.82,295.49Z"/></g><g id="flower-2" data-name="flower"><path class="cls-11" d="M322.3,453.39s6.37-53.54-57.91-64.9c0,0-44-7.18-74.08,7.1,0,0-12.09-.79-4.51,11.68,0,0,14.41,41.68,57.81,55.6C243.61,462.87,287.55,484.69,322.3,453.39Z"/><path class="cls-11" d="M338.89,448.37s-47.25-26-19.09-84.87c0,0,19.78-40,48.88-56.1,0,0,6.4-10.3,12.13,3.11,0,0,25.51,36,11.58,79.38C392.39,389.89,384.57,438.32,338.89,448.37Z"/><path class="cls-11" d="M318.81,458s47.25,26,19.09,84.87c0,0-19.77,40-48.88,56.1,0,0-6.4,10.3-12.13-3.11,0,0-25.51-36-11.58-79.37C265.31,516.46,273.13,468,318.81,458Z"/><path class="cls-11" d="M332.55,447.41s-6.37,53.53,57.91,64.9c0,0,44,7.18,74.07-7.11,0,0,12.1.79,4.52-11.67,0,0-14.41-41.68-57.81-55.61C411.24,437.92,367.3,416.1,332.55,447.41Z"/><path class="cls-12" d="M315.32,431.85s-27-2.49-18.44,14.15c0,0,21.21,25.33,15.21,29.59,0,0-3.09,14.44,15.87,5.86,0,0,37.51-13.44,34.1-26.88,0,0-7.31-30.14-20.8-31.38,0,0-13.08-5-10.65,4.3C330.61,427.49,337.21,435.79,315.32,431.85Z"/><path class="cls-13" d="M320.55,442s-12.44,9.9-1.57,26.51c0,0,10.36,11.05,27,.17,0,0,10.59-9,3-21.42C349,447.28,341.31,427.84,320.55,442Z"/><path class="cls-14" d="M336.21,429.29s-10.25-1.75-7.37,6.13c0,0,6.13,7.36,9.38,6.86,0,0,9.77.82,6.44-5.65C344.66,436.63,339.93,429.71,336.21,429.29Z"/><path class="cls-15" d="M346.93,432s-13.47,1.08-4.49,14c0,0,5.68,8.76,1.06,11.14,0,0-3.77,8.33,10.14-.85,0,0,3.75-3.95.85-14.15C354.49,442.1,350.18,431.46,346.93,432Z"/><path class="cls-15" d="M322.3,453.39s-12.07,1.53-.34,10.69c0,0,9.87,10.12,15.82,1.22,0,0,2.71-7.75-3.57-7.77,0,0-6.26,2.3-8.16-1.39Z"/></g><g id="flower-3" data-name="flower"><path class="cls-11" d="M526.49,501.56s45.13-3.34,44.18-58.13c0,0-1.15-37.42-17.74-59.89,0,0-1.29-10.09-10.34-1.85,0,0-32,18.56-36.54,56.55C506.05,438.24,495.12,478,526.49,501.56Z"/><path class="cls-11" d="M533.28,514.42s13.82-43.1,66.86-29.34c0,0,36.11,9.88,54.07,31.27,0,0,9.51,3.62-.62,10.49,0,0-25.55,26.79-63.54,22.28C590.05,549.12,548.89,550.44,533.28,514.42Z"/><path class="cls-11" d="M522.15,499.42s-13.82,43.1-66.86,29.34c0,0-36.11-9.88-54.07-31.28,0,0-9.51-3.61.62-10.48,0,0,25.55-26.79,63.54-22.28C465.38,464.72,506.54,463.39,522.15,499.42Z"/><path class="cls-11" d="M533.06,509s-45.13,3.34-44.19,58.13c0,0,1.15,37.41,17.74,59.89,0,0,1.29,10.09,10.35,1.85,0,0,32-18.57,36.54-56.55C553.5,572.36,564.43,532.65,533.06,509Z"/><path class="cls-12" d="M543.11,492.35s-2.28-22.64-14.62-12.92c0,0-17.47,21.53-21.93,17.28,0,0-12.4-.23-2.29,14,0,0,17.09,28.75,27.62,23.79,0,0,23.66-10.86,22.52-22.18,0,0,2-11.57-5.25-8.08C549.16,504.25,543.38,511,543.11,492.35Z"/><path class="cls-13" d="M535.57,498.29s-10.15-8.66-22.1,3c0,0-7.43,10.3,4.2,22.24,0,0,9.07,7.29,18.13-1C535.8,522.55,550.59,513.12,535.57,498.29Z"/><path class="cls-14" d="M548.57,509.15s-.2-8.72-6.23-5.09c0,0-5.09,6.23-4.15,8.83,0,0,.89,8.18,5.69,4.4C543.88,517.29,548.82,512.29,548.57,509.15Z"/><path class="cls-15" d="M548.09,518.41S545,507.49,535.84,517c0,0-6.31,6.08-9,2.66,0,0-7.47-1.77,2.33,8.22,0,0,3.85,2.45,11.79-1.58C541,526.26,549,521,548.09,518.41Z"/><path class="cls-15" d="M526.49,501.56s-3.2-9.7-8.87,1.43c0,0-6.75,9.76,1.53,13.23,0,0,6.82,1,5.83-4.19,0,0-2.9-4.78-.16-6.94Z"/></g><g id="flower-4" data-name="flower"><path class="cls-11" d="M325.8,222.69s4.21-35.36-38.25-42.87c0,0-29.08-4.74-48.93,4.7,0,0-8-.53-3,7.71,0,0,9.52,27.53,38.18,36.73C273.82,229,302.85,243.37,325.8,222.69Z"/><path class="cls-11" d="M336.75,219.38s-31.2-17.16-12.6-56.06c0,0,13.06-26.4,32.29-37.06,0,0,4.22-6.8,8,2.06,0,0,16.85,23.77,7.66,52.43C372.1,180.75,366.93,212.74,336.75,219.38Z"/><path class="cls-11" d="M323.5,225.72s31.2,17.16,12.6,56.06c0,0-13.06,26.4-32.29,37.06,0,0-4.22,6.8-8-2.06,0,0-16.85-23.77-7.65-52.43C288.16,264.35,293.32,232.36,323.5,225.72Z"/><path class="cls-11" d="M332.57,218.74s-4.21,35.36,38.25,42.87c0,0,29.07,4.74,48.93-4.69,0,0,8,.52,3-7.71,0,0-9.52-27.53-38.18-36.73C384.55,212.48,355.52,198.06,332.57,218.74Z"/><path class="cls-12" d="M321.19,208.47s-17.83-1.65-12.18,9.34c0,0,14,16.74,10,19.55,0,0-2,9.54,10.49,3.87,0,0,24.77-8.88,22.52-17.76,0,0-4.83-19.9-13.74-20.72,0,0-8.64-3.29-7,2.84C331.29,205.59,335.65,211.07,321.19,208.47Z"/><path class="cls-13" d="M324.64,215.18s-8.22,6.54-1,17.52c0,0,6.84,7.29,17.81.11,0,0,7-5.92,2-14.15C343.41,218.66,338.35,205.82,324.64,215.18Z"/><path class="cls-14" d="M335,206.78s-6.77-1.16-4.87,4c0,0,4.05,4.87,6.19,4.54,0,0,6.46.54,4.26-3.73C340.57,211.63,337.45,207.05,335,206.78Z"/><path class="cls-15" d="M342.07,208.54s-8.9.71-3,9.24c0,0,3.75,5.8.7,7.37,0,0-2.49,5.5,6.7-.57,0,0,2.48-2.61.56-9.34C347.06,215.24,344.22,208.21,342.07,208.54Z"/><path class="cls-15" d="M325.8,222.69s-8,1-.23,7.07c0,0,6.53,6.68,10.45.8,0,0,1.79-5.11-2.36-5.13,0,0-4.13,1.52-5.38-.92Z"/></g><g id="flower-5" data-name="flower"><path class="cls-11" d="M560,295.6s16.71-31.45-20.17-53.8c0,0-25.4-14.93-47.32-13.31,0,0-7.26-3.37-5.57,6.12,0,0-1.07,29.11,22.33,48C509.25,282.65,531.11,306.58,560,295.6Z"/><path class="cls-11" d="M571.39,296.46s-22.9-27.27,8.51-56.82c0,0,21.72-19.89,43.5-22.88,0,0,6.39-4.82,6.72,4.81,0,0,7.12,28.25-11.81,51.65C618.31,273.22,601.92,301.18,571.39,296.46Z"/><path class="cls-11" d="M556.74,297.59s22.9,27.27-8.51,56.82c0,0-21.72,19.9-43.5,22.88,0,0-6.39,4.82-6.72-4.81,0,0-7.12-28.25,11.81-51.65C509.82,320.83,526.21,292.87,556.74,297.59Z"/><path class="cls-11" d="M567.72,294.36s-16.71,31.45,20.17,53.8c0,0,25.4,14.92,47.32,13.3,0,0,7.26,3.38,5.57-6.11,0,0,1.07-29.11-22.33-48.05C618.45,307.3,596.59,283.37,567.72,294.36Z"/><path class="cls-12" d="M560.82,280.66s-16-8-14.73,4.32c0,0,7,20.66,2.3,21.85,0,0-5.35,8.16,8.38,7.4,0,0,26.31.68,27.42-8.41,0,0,2.69-20.31-5.33-24.3,0,0-6.86-6.18-7.58.11C571.28,281.63,573.37,288.32,560.82,280.66Z"/><path class="cls-13" d="M561.61,288.17s-10,3.13-7.29,16c0,0,3.74,9.27,16.57,6.54,0,0,8.66-3,7-12.47C577.86,298.2,577.79,284.4,561.61,288.17Z"/><path class="cls-14" d="M574.3,284.07s-5.89-3.52-6,2c0,0,2,6,4.13,6.47,0,0,5.83,2.83,5.32-1.94C577.75,290.62,576.49,285.22,574.3,284.07Z"/><path class="cls-15" d="M580.27,288.28s-8.56-2.55-6.11,7.55c0,0,1.4,6.75-2,7.11,0,0-4.31,4.23,6.45,1.9,0,0,3.25-1.54,3.9-8.51C582.5,296.33,582.39,288.75,580.27,288.28Z"/><path class="cls-15" d="M560,295.6s-7.8-1.94-2.77,6.5c0,0,3.67,8.59,9.46,4.53,0,0,3.52-4.13-.35-5.64,0,0-4.4-.07-4.69-2.81Z"/></g><g id="flower-6" data-name="flower"><path class="cls-11" d="M418.48,610.61s13.64-25.74-16.54-44c0,0-20.78-12.19-38.71-10.84,0,0-5.94-2.76-4.55,5,0,0-.85,23.81,18.3,39.28C377,600.06,394.87,619.61,418.48,610.61Z"/><path class="cls-11" d="M427.82,611.31s-18.75-22.29,6.91-46.48c0,0,17.75-16.3,35.56-18.76,0,0,5.23-3.94,5.5,3.94,0,0,5.85,23.09-9.62,42.25C466.17,592.26,452.79,615.14,427.82,611.31Z"/><path class="cls-11" d="M415.83,612.24s18.75,22.29-6.91,46.48c0,0-17.75,16.29-35.56,18.75,0,0-5.23,3.94-5.5-3.93,0,0-5.85-23.1,9.62-42.25C377.48,631.29,390.86,608.4,415.83,612.24Z"/><path class="cls-11" d="M424.81,609.59s-13.64,25.73,16.54,44c0,0,20.78,12.19,38.71,10.85,0,0,5.94,2.75,4.55-5,0,0,.86-23.81-18.3-39.28C466.31,620.13,448.42,600.58,424.81,609.59Z"/><path class="cls-12" d="M419.16,598.39s-13.12-6.51-12.05,3.54c0,0,5.75,16.9,1.9,17.87,0,0-4.37,6.68,6.86,6.05,0,0,21.52.53,22.42-6.91,0,0,2.18-16.61-4.38-19.86,0,0-5.62-5.05-6.2.09C427.71,599.17,429.42,604.64,419.16,598.39Z"/><path class="cls-13" d="M419.81,604.53s-8.2,2.57-5.95,13.06c0,0,3.07,7.58,13.56,5.34,0,0,7.08-2.45,5.69-10.21C433.11,612.72,433,601.43,419.81,604.53Z"/><path class="cls-14" d="M430.18,601.17s-4.82-2.87-4.9,1.65c0,0,1.65,4.91,3.38,5.29,0,0,4.77,2.32,4.35-1.59C433,606.52,432,602.11,430.18,601.17Z"/><path class="cls-15" d="M435.07,604.6s-7-2.07-5,6.18c0,0,1.15,5.53-1.64,5.82,0,0-3.52,3.47,5.28,1.55,0,0,2.66-1.26,3.18-7C436.9,611.19,436.8,605,435.07,604.6Z"/><path class="cls-15" d="M418.48,610.61s-6.38-1.58-2.26,5.32c0,0,3,7,7.74,3.69,0,0,2.87-3.37-.29-4.61,0,0-3.6-.06-3.83-2.29Z"/></g></g></g></svg>