<svg xmlns="http://www.w3.org/2000/svg" viewBox="0 0 864 864"><defs><style>.cls-1{fill:#2a4024;}.cls-2{fill:#aab61c;}.cls-3{fill:#788d05;}.cls-4{fill:#637200;}.cls-5{fill:#b1ba38;}.cls-6{fill:#7e980e;}.cls-7{fill:#547b00;}.cls-8{fill:#9aa819;}.cls-9{fill:#7f9500;}.cls-10{fill:#5f7e04;}.cls-11{fill:#648a02;}.cls-12{fill:#5a8800;}.cls-13{fill:#4d6c04;}.cls-14{fill:#a2b966;}.cls-15{fill:#8ba02b;}.cls-16{fill:#5f8602;}.cls-17{fill:#896781;}.cls-18{fill:#d7aaf5;}.cls-19{fill:#b986cf;}.cls-20{fill:#dcc8e8;opacity:0.61;}.cls-21{fill:#d994f6;}.cls-22{fill:#e9d5fd;}.cls-23{fill:#e2b7ef;}.cls-24{fill:#b88cb8;}.cls-25,.cls-39{fill:#e2b4fd;}.cls-26{fill:#ba9dcc;}.cls-27{fill:#e9ccfb;}.cls-28,.cls-57{fill:#c3a2db;}.cls-29{fill:#cb99e8;}.cls-30{fill:#d7dadd;}.cls-31{fill:#d9e5db;}.cls-32{fill:#8f918a;}.cls-33{fill:#848c65;}.cls-34{fill:#fafcfa;}.cls-35{fill:#cfd5ca;}.cls-36{fill:#bcc1c8;}.cls-37{fill:#c9cfcf;}.cls-38{fill:#b3bcb3;}.cls-39{opacity:0.62;}.cls-40{fill:#e5eddc;}.cls-41{fill:#e6eede;}.cls-42{fill:#f4fcef;}.cls-43{fill:#e7f1d9;}.cls-44{fill:#c4ccbe;}.cls-45{fill:#c2c7bb;}.cls-46{fill:#dbe1d7;}.cls-47{fill:#c5c3cc;}.cls-48{fill:#f5faea;}.cls-49{fill:#eff5eb;}.cls-50{fill:#adadb0;}.cls-51{fill:#fdffff;}.cls-52{fill:#ecd6f9;}.cls-53{fill:#e3b9f4;}.cls-54{fill:#f7b6ff;}.cls-55{fill:#d3b5f0;}.cls-56{fill:#eec0fb;}.cls-57{opacity:0.58;}</style></defs><title>rubiaceae</title><g id="richardiaGrandiflora"><circle class="cls-1" cx="433" cy="433" r="432"/><g id="leaves-2" data-name="leaves"><path class="cls-2" d="M458.87,578.06s84.28,88.76,94.26,121.48c0,0,20.51,43.82,22.19-21.07,0,0-18.83-108.71-50.44-142C524.88,536.48,449.18,534.52,458.87,578.06Z"/><path class="cls-3" d="M502.92,627.32s42.73,17.38,53.7-25.36c13.17,27.53,32,97.35,14,108.28-12.35,7.49-26.86-33.08-40.79-50.43-4.62-5.76-13.92-17.34-26.89-32.49"/><path class="cls-4" d="M536.14,669.49S552.71,696,555,703.07c0,0,6,13.73,13,9.89,0,0,10.11-5.87,9.27-21.07,0,0,.58-22.47-1.23-26.7,0,0-9,20.41-18.09,18.87C557.93,684.06,548.89,683.24,536.14,669.49Z"/><path class="cls-2" d="M406.16,584.61s35.08,126.65,28,162.7c0,0-2.67,51.88,31.67-8.77,0,0,37-112.53,23.85-160C489.7,578.51,418.94,538.45,406.16,584.61Z"/><path class="cls-3" d="M423.05,653.52s31.73,38,63.68,3.07c-1.4,32.74-18.79,108.42-41.39,109.68-15.49.86-8.76-44.91-13.21-68.38-1.47-7.79-4.44-23.46-9.08-44.37"/><path class="cls-4" d="M433.25,710.25s2.34,33.46.91,41.34c0,0-1.23,16,7.33,15.93,0,0,12.55-.46,19.42-15.28,0,0,11.88-21,12.3-25.93,0,0-18.81,14.81-26.66,8.75C446.55,735.06,438.39,729.73,433.25,710.25Z"/><path class="cls-2" d="M468.17,580.1s-96.66,89-109.7,123.38c0,0-25.12,45.47-22.26-24.17,0,0,28-115.11,64.23-148.5C400.44,530.81,481.68,534.15,468.17,580.1Z"/><path class="cls-3" d="M417.44,629.7s-47,15.56-55.7-31c-16.09,28.54-41.28,102-22.75,115,12.69,8.91,31.15-33.52,47.31-51.1,5.37-5.84,16.16-17.58,31.14-32.89"/><path class="cls-4" d="M378.83,672.5s-19.65,27.18-22.6,34.62c0,0-7.43,14.28-14.63,9.67,0,0-10.42-7-8.42-23.24,0,0,1-24.11,3.24-28.52,0,0,8.15,22.51,18,21.52C354.44,686.55,364.18,686.32,378.83,672.5Z"/><path class="cls-5" d="M440.35,573.73s58.27,83.92,62.35,112.18c0,0,11.37,38.75,21-14.57,0,0-1.74-92.07-23.6-123.54C500.08,547.8,437.88,536.59,440.35,573.73Z"/><path class="cls-6" d="M470.45,620s33,19.76,47.51-14.11c7.38,24.39,14,84.37-2.2,91.1-11.14,4.62-18-30.7-27.25-46.77-3.09-5.34-9.29-16.08-18.06-30.22"/><path class="cls-7" d="M492.5,659s10.31,23.95,11.29,30.1c0,0,3.22,12.09,9.46,9.8,0,0,9.09-3.56,10.33-16.2,0,0,3.32-18.46,2.36-22.18,0,0-10,15.69-17.31,13.27C508.63,673.75,501.27,671.93,492.5,659Z"/><path class="cls-8" d="M316.59,493.4S259,619,228.94,643.18c0,0-37.28,39.9,31.4,14.39,0,0,106-65.41,127.54-112.5C387.88,545.07,358.12,465,316.59,493.4Z"/><path class="cls-9" d="M283.5,560.24s-.25,52.07,49.12,45.59C309.32,631.2,244.1,680.27,225.08,666c-13-9.79,23.36-42,35.68-63.91,4.09-7.27,12.32-21.88,22.74-41.83"/><path class="cls-10" d="M253.29,612.76S232.51,641.24,226,646.61c0,0-11.86,12.07-4.9,17.77,0,0,10.4,8.13,26,.86,0,0,23.79-8.84,27.45-12.52,0,0-25.15-.83-27.36-11C247.18,641.71,244.24,631.89,253.29,612.76Z"/><path class="cls-2" d="M345.85,519.77s-3.75,101-17.31,125.83c0,0-14,37.43,25.26.94,0,0,53.33-73.91,54.74-111.8C408.54,534.74,366,488.9,345.85,519.77Z"/><path class="cls-3" d="M342.2,574.24s14.41,35.27,46,17.07c-8.65,23.68-39,75.12-55.89,70.79-11.55-3,4-35,6.24-53.21.73-6.06,2.2-18.24,3.66-34.65"/><path class="cls-4" d="M336.48,618.21s-6.07,25.08-9,30.53c0,0-4.63,11.48,1.67,13.39,0,0,9.31,2.58,17.8-6.7,0,0,13.6-12.63,15.05-16.15,0,0-17.24,6.49-21.59.22C340.45,639.5,335.71,633.69,336.48,618.21Z"/><path class="cls-11" d="M474.08,631.84s-69.54,111.52-73,148.09c0,0-12.14,50.52-27.88-17.38,0,0-3.61-118.41,22.46-160.23C395.68,602.32,474.9,584,474.08,631.84Z"/><path class="cls-12" d="M438.35,693.14s-41.21,27.49-61.94-15.1c-7.93,31.8-12.7,109.29,8.62,116.91,14.6,5.22,21.12-40.59,32-61.83,3.63-7.06,10.91-21.24,21.29-40"/><path class="cls-13" d="M412.49,744.66S400.77,776.08,399.91,784c0,0-3.38,15.74-11.55,13.21,0,0-11.9-4-14.29-20.17,0,0-5.44-23.51-4.45-28.35,0,0,13.84,19.53,23.09,15.95C392.71,764.68,402,761.87,412.49,744.66Z"/><path class="cls-2" d="M591.54,498s51.32,121,79.27,144.82c0,0,34.37,39-30.25,12.83,0,0-99-65.08-118.23-110.45C522.33,545.16,552.81,469.78,591.54,498Z"/><path class="cls-3" d="M621.18,562.43s-1.17,49.51-47.95,42c21.47,24.76,82.16,73.18,100.64,60.11,12.66-8.95-21.08-40.61-32.2-61.74-3.69-7-11.12-21.14-20.49-40.39"/><path class="cls-4" d="M648.49,613.19s19,27.65,25,32.93c0,0,11,11.8,4.17,17,0,0-10.11,7.45-24.71.11,0,0-22.37-9-25.76-12.64,0,0,23.94-.11,26.32-9.74C653.51,640.88,656.58,631.63,648.49,613.19Z"/><path class="cls-14" d="M562.44,509.06s118.71,56.38,141.35,85.31c0,0,37.47,36,14.09-29.68,0,0-60.85-101.64-105.37-122.78C612.51,441.91,535.91,469.19,562.44,509.06Z"/><path class="cls-15" d="M625.59,541.4s49.53.91,44-46.14c23.83,22.49,69.66,85.17,55.82,103.08-9.48,12.28-39.69-22.77-60.34-34.77-6.85-4-20.64-12-39.49-22.17"/><path class="cls-16" d="M675.16,570.82S702,591,707,597.19c0,0,11.33,11.43,16.84,4.89,0,0,7.86-9.79,1.15-24.69,0,0-8.1-22.74-11.55-26.27,0,0-1.11,23.91-10.83,25.88C702.62,577,693.25,579.68,675.16,570.82Z"/><path class="cls-2" d="M405.92,527.85s23.26,81.3,18.91,104.54c0,0-1.44,33.4,20.33-5.82,0,0,23.21-72.61,14.48-103.1C459.64,523.47,413.89,498.08,405.92,527.85Z"/><path class="cls-3" d="M417.16,572.1s20.62,24.3,41,1.63c-.72,21.07-11.5,69.86-26,70.8-10,.64-5.88-28.85-8.86-43.93-1-5-3-15.07-6.09-28.5"/><path class="cls-4" d="M424,608.55s1.69,21.51.81,26.59c0,0-.7,10.34,4.8,10.21,0,0,8.07-.36,12.41-9.94,0,0,7.54-13.58,7.78-16.75,0,0-12,9.63-17.11,5.78C432.72,624.44,427.44,621.05,424,608.55Z"/><path class="cls-2" d="M499.44,490.31s36.36,76.24,35.91,99.85c0,0,4.11,33.13,19.06-9.09,0,0,10.86-75.36-2.77-104C551.64,477.12,502.38,459.66,499.44,490.31Z"/><path class="cls-3" d="M517.83,532s24.33,20.53,40.65-5.17c2.77,20.87.21,70.71-14,74-9.7,2.27-10.56-27.45-16-41.8-1.81-4.77-5.43-14.36-10.71-27.07"/><path class="cls-4" d="M530.62,566.8s5.22,20.92,5.2,26.07c0,0,1,10.29,6.42,9.26,0,0,7.89-1.69,10.58-11.84,0,0,5.17-14.63,4.89-17.79,0,0-10.25,11.48-15.9,8.52C541.81,581,536.05,578.55,530.62,566.8Z"/><path class="cls-2" d="M555,471.19s20.44,64.76,33.64,78.39c0,0,15.76,21.73-16.19,5.11,0,0-47.71-38.35-55.37-62.64C517.05,492.05,536.44,454.78,555,471.19Z"/><path class="cls-3" d="M567,505.8s-3,25.42-26.73,19.25c9.82,13.8,38.65,41.7,48.8,35.89,7-4-8.84-21.93-13.52-33.35-1.55-3.79-4.67-11.42-8.55-21.79"/><path class="cls-4" d="M578.59,533.26s8.4,15.16,11.24,18.17c0,0,5,6.61,1.3,9,0,0-5.56,3.33-12.71-1.16,0,0-11.07-5.76-12.63-7.78,0,0,12.32,1.13,14-3.71C579.81,547.75,581.84,543.15,578.59,533.26Z"/><path class="cls-2" d="M544.1,482.9s52.55,6.21,64.91,14.33c0,0,18.93,8.9,1.56-13.14,0,0-36.31-30.93-56-33.26C554.55,450.83,528.84,471.11,544.1,482.9Z"/><path class="cls-3" d="M572.36,487.1s19-6,10.84-23.27c12,5.51,37.55,23.51,34.58,32.13-2,5.9-18.08-3.57-27.5-5.49-3.13-.64-9.42-1.92-17.92-3.37"/><path class="cls-4" d="M595.06,491.93s12.83,4.23,15.54,6c0,0,5.8,2.9,7.06-.31,0,0,1.74-4.74-2.74-9.56,0,0-6-7.63-7.79-8.54,0,0,2.65,9.27-.8,11.28C606.33,490.76,603.1,493,595.06,491.93Z"/><path class="cls-2" d="M317.48,288.88S188.7,262.65,159.79,240c0,0-45-25.93-6.56,32.2,0,0,83.47,84.06,131.76,93.9C285,366.09,352.81,321.23,317.48,288.88Z"/><path class="cls-3" d="M248.41,272.65s-48.3,11-31.64,55.35c-28.54-16.11-88.07-66-78.94-86.67,6.26-14.19,44,12.58,66.92,19.27,7.61,2.23,22.92,6.7,43.66,12"/><path class="cls-4" d="M193.23,256S162.35,242.88,156,238c0,0-13.74-8.38-17.52-.7,0,0-5.28,11.39,4.81,24.24,0,0,13.32,20.13,17.52,22.74,0,0-4.66-23.49,4.3-27.74C165.09,256.57,173.55,251.73,193.23,256Z"/><path class="cls-2" d="M293.35,346.19s-35.46-126.55-60.14-153.76c0,0-29.11-43,31.64-8.86,0,0,89.87,77.18,103.16,124.64C368,308.21,328.16,379.09,293.35,346.19Z"/><path class="cls-3" d="M272.18,278.47s7.48-49,52.92-35.56C307,215.62,253,159.84,233,170.44c-13.7,7.27,15.72,43,24,65.35,2.77,7.44,8.33,22.38,15.17,42.68"/><path class="cls-4" d="M251.58,224.64s-15.3-29.85-20.6-35.86c0,0-9.35-13.1-2-17.42,0,0,11-6.1,24.52,3,0,0,21,11.84,23.94,15.83,0,0-23.76-2.95-27.35,6.3C250.13,196.53,245.91,205.31,251.58,224.64Z"/><path class="cls-5" d="M311.65,324.29s-101.23,13.83-128.26,4.63c0,0-39.69-7.47,3.46,25.31,0,0,82.83,40.24,120.79,35C307.64,389.28,345.87,339,311.65,324.29Z"/><path class="cls-6" d="M256.8,330.12s-32.61,20.48-9,48.74c-25.07-4.5-81.56-25.78-80.17-43.32.94-12,35.5-2.07,54-3.05,6.16-.32,18.54-1,35.13-2.37"/><path class="cls-7" d="M212,332.06s-26-1.68-31.94-3.6c0,0-12.24-2.62-13,4,0,0-.95,9.72,9.75,16.56,0,0,14.95,11.34,18.7,12.18,0,0-9.45-16-4-21.46C191.54,339.72,196.5,334,212,332.06Z"/><path class="cls-8" d="M437.08,380.91s-101.11,0-126.39-12.64c0,0-37.92-12.64,0,25.28,0,0,75.83,50.56,113.75,50.56C424.44,444.11,468.68,399.87,437.08,380.91Z"/><path class="cls-9" d="M382.52,379.28S347.79,395,367.16,425.87c-24-7.77-76.52-36.21-72.82-53.22,2.54-11.66,35.1,2.73,53.41,4.25,6.08.51,18.31,1.53,34.77,2.38"/><path class="cls-10" d="M338.36,375.19s-25.29-5.14-30.84-7.81c0,0-11.65-4.21-13.32,2.16,0,0-2.23,9.39,7.35,17.53,0,0,13.13,13.13,16.7,14.45,0,0-7.12-17-1-21.57C317.23,380,322.86,375,338.36,375.19Z"/><path class="cls-2" d="M402.63,264.58S314.3,215.37,298.37,192c0,0-27-29.49-12.3,22.08,0,0,41.64,81.08,74.76,99.53C360.83,313.64,421,296.52,402.63,264.58Z"/><path class="cls-3" d="M355.76,236.61s-38-3.18-36.09,33.22C302.5,251.37,270.44,201,282,187.9c7.89-9,29.33,19.46,44.59,29.71,5.06,3.4,15.25,10.24,29.21,19"/><path class="cls-4" d="M319.17,211.54S299.58,194.75,296,189.71c0,0-8.13-9.35-12.69-4.6,0,0-6.52,7.13-2.12,18.9,0,0,5.09,17.86,7.56,20.75,0,0,2-18.31,9.61-19.34C298.4,205.42,305.73,203.84,319.17,211.54Z"/><path class="cls-11" d="M244.57,328s-67.81-112.58-98.83-132.25c0,0-39.5-33.75,28.15-17,0,0,107.14,50.53,132.57,92.75C306.46,271.51,286.86,350.43,244.57,328Z"/><path class="cls-12" d="M206.16,268.3s-5.79-49.2,41.58-48.34C223,198.46,156.12,159,139.65,174.57c-11.27,10.65,26.58,37.25,40.55,56.61,4.65,6.44,14,19.37,26,37.12"/><path class="cls-13" d="M172,221.88s-22.68-24.72-29.38-29.1c0,0-12.5-10.15-6.53-16.28,0,0,9-8.79,24.46-3.58,0,0,23.42,5.82,27.28,8.91,0,0-23.69,3.46-24.69,13.33C163.14,195.16,161.4,204.75,172,221.88Z"/><path class="cls-2" d="M310.53,493.39s-131.1-9.19-165,4.9c0,0-50.31,12.94,2.3-32.78,0,0,102.92-58.65,152.08-55.2C299.89,410.31,353.23,471.69,310.53,493.39Z"/><path class="cls-3" d="M239.64,490.55S196.05,467,224,428.75c-31.8,7.88-102.5,40-99.25,62.38,2.23,15.34,45.76-.35,69.64-.66,7.93-.11,23.88-.32,45.29.08"/><path class="cls-4" d="M182,491.83s-33.25,4.36-40.69,7.33c0,0-15.49,4.4-17.07-4,0,0-2-12.39,11.12-22.07,0,0,18.22-15.83,23-17.22,0,0-10.77,21.38-3.27,27.88C155.06,483.74,161.91,490.67,182,491.83Z"/><path class="cls-14" d="M313.85,462.42s-104.12,80.2-140.18,87.23c0,0-49.07,17.05,20.05,26,0,0,118.19-8.08,157.24-38.16C351,537.52,361.43,456.89,313.85,462.42Z"/><path class="cls-15" d="M256.37,504s-23.29,43.71,21.14,60.15c-30.86,11-107.52,23.41-117.2,3-6.63-14,38.31-25,58.38-38,6.66-4.3,20.06-12.95,37.68-25.12"/><path class="cls-16" d="M207.66,534.83s-30.12,14.77-38,16.41c0,0-15.33,4.91-12,12.79,0,0,5.15,11.45,21.48,12.23,0,0,23.93,3.1,28.65,1.63,0,0-20.8-11.85-18.15-21.4C189.68,556.49,191.55,546.92,207.66,534.83Z"/><path class="cls-2" d="M368.17,314.44s-83-16.19-101.74-30.61c0,0-29.1-16.44-4,20.75,0,0,54.16,53.64,85.29,59.71C347.68,364.29,391.07,335.06,368.17,314.44Z"/><path class="cls-3" d="M323.63,304.37s-31,7.34-20.06,35.78c-18.45-10.21-57-42-51.26-55.34,3.95-9.16,28.38,7.86,43.17,12,4.91,1.39,14.78,4.18,28.15,7.52"/><path class="cls-4" d="M288,293.94S268.1,285.68,264,282.59c0,0-8.9-5.32-11.28-.36,0,0-3.34,7.36,3.22,15.57,0,0,8.68,12.88,11.4,14.54,0,0-3.13-15.09,2.61-17.87C269.93,294.47,275.35,291.31,288,293.94Z"/><path class="cls-2" d="M359.16,414.81s-84.44-2.22-105.27-13.33c0,0-31.39-11.38-.55,21.11,0,0,62.22,43.89,93.88,44.72C347.22,467.31,385.13,431.34,359.16,414.81Z"/><path class="cls-3" d="M313.63,412.25s-29.34,12.36-13.85,38.57c-19.86-7-63.1-31.91-59.63-46,2.37-9.68,29.24,3.05,44.5,4.72,5.07.56,15.26,1.68,29,2.75"/><path class="cls-4" d="M276.85,407.87s-21-4.85-25.58-7.2c0,0-9.64-3.77-11.17,1.51,0,0-2.08,7.8,5.75,14.8,0,0,10.68,11.26,13.62,12.44,0,0-5.57-14.35-.37-18C259.1,411.38,263.91,407.37,276.85,407.87Z"/><path class="cls-2" d="M351,473s-67-11.19-85.12-5.61c0,0-26.52,4.17,2.79-16.75,0,0,55.83-25.1,80.95-20.9C349.61,429.71,374,463.91,351,473Z"/><path class="cls-3" d="M314.66,468s-21.26-14.25-5-32.56c-16.75,2.49-54.7,15.51-54.13,27.2.39,8,23.55,2.07,35.85,3.09,4.09.34,12.3,1,23.29,2.27"/><path class="cls-4" d="M285,465.83s-17.32.61-21.29,1.77c0,0-8.18,1.49-8.58-2.91,0,0-.45-6.47,6.8-10.8,0,0,10.16-7.24,12.66-7.72,0,0-6.59,10.46-3.06,14.17C271.49,460.34,274.68,464.24,285,465.83Z"/><path class="cls-2" d="M345.49,458s-29.39,44-42.24,51.33c0,0-16.52,12.83,11,7.35,0,0,44.05-18.31,55.07-34.82C369.32,481.83,362.92,449.73,345.49,458Z"/><path class="cls-3" d="M328.92,481.24s-3.25,19.68,15.81,20.22c-10.35,8.18-38,22.78-44.32,16.22-4.34-4.49,11.39-14.48,17.37-22,2-2.5,6-7.53,11.14-14.44"/><path class="cls-4" d="M314.31,499.27s-9.59,9.51-12.37,11.15c0,0-5.21,3.84-2.93,6.42,0,0,3.44,3.7,9.77,1.9,0,0,9.53-1.9,11.14-3.07,0,0-9.46-1.84-9.68-5.82C310.24,509.85,309.72,506,314.31,499.27Z"/><path class="cls-2" d="M581.87,482.3s126.19-36.73,162.33-30.14c0,0,51.91,2-9.18-31.54,0,0-113-35.55-160.33-21.78C574.69,398.84,535.55,470.11,581.87,482.3Z"/><path class="cls-3" d="M650.56,464.51s37.63-32.21,2.24-63.72c32.76,1,108.65,17.39,110.21,40,1.06,15.47-44.79,9.35-68.2,14.09-7.77,1.58-23.4,4.75-44.25,9.66"/><path class="cls-4" d="M707.15,453.58s33.43-2.78,41.33-1.45c0,0,16.06,1,15.83-7.53,0,0-.62-12.54-15.53-19.22,0,0-21.16-11.61-26.09-12,0,0,15,18.62,9.1,26.55C731.79,440,726.56,448.18,707.15,453.58Z"/><path class="cls-2" d="M576.55,420.35s90.29,95.5,124.8,108.09c0,0,45.8,24.52-23.87,22.57,0,0-115.47-26.48-149.33-62.3C528.15,488.71,530.43,407.43,576.55,420.35Z"/><path class="cls-3" d="M626.82,470.43s16.16,46.82-30.29,56.1c28.75,15.72,102.52,40,115.28,21.25,8.74-12.8-33.91-30.71-51.71-46.64-5.91-5.29-17.79-15.93-33.28-30.71"/><path class="cls-4" d="M670.11,508.48s27.43,19.3,34.91,22.15c0,0,14.38,7.25,9.86,14.51,0,0-6.88,10.5-23.13,8.72,0,0-24.12-.68-28.55-2.87,0,0,22.4-8.45,21.27-18.3C684.47,532.69,684.12,523,670.11,508.48Z"/><path class="cls-5" d="M570.56,448.25s83.15-59.36,111.35-63.8c0,0,38.61-11.87-14.83-20.79,0,0-92.05,2.94-123.23,25.2C543.85,388.86,533.44,451.2,570.56,448.25Z"/><path class="cls-6" d="M616.38,417.55s19.33-33.3-14.72-47.32c24.29-7.69,84.18-15.15,91.13,1,4.75,11.08-30.47,18.36-46.42,27.85-5.3,3.16-16,9.5-30,18.45"/><path class="cls-7" d="M655.1,395s23.81-10.62,29.94-11.68c0,0,12.05-3.38,9.69-9.59,0,0-3.68-9-16.34-10.11,0,0-18.51-3.09-22.21-2.08,0,0,15.83,9.79,13.49,17.14C669.67,378.68,668,386.06,655.1,395Z"/><path class="cls-8" d="M455.78,294.13s-11.66-119,.31-150.23c0,0,10.5-46.09-29.76,2.91,0,0-50.76,95.09-46.39,139.72C379.94,286.53,437.11,333.5,455.78,294.13Z"/><path class="cls-9" d="M451.41,229.71s-22.5-39.05-56.61-12.7c6.38-29.13,33.79-94.24,54.25-91.84,14,1.64.83,41.62,1.15,63.35.1,7.22.31,21.73,1.21,41.19"/><path class="cls-10" d="M451.13,177.27s3.13-30.36,5.65-37.2c0,0,3.6-14.2-4.08-15.43,0,0-11.32-1.54-19.8,10.67,0,0-13.94,17-15.08,21.32,0,0,19.18-10.34,25.27-3.68C443.09,153,449.57,159,451.13,177.27Z"/><path class="cls-2" d="M517.82,543.44s101.08,2.44,126,15.68c0,0,37.6,13.55.61-25.27,0,0-74.59-52.37-112.5-53.29C532,480.56,486.69,523.72,517.82,543.44Z"/><path class="cls-3" d="M572.33,546.38s35.09-14.87,16.47-46.2c23.8,8.34,75.63,38,71.51,55-2.81,11.59-35-3.57-53.28-5.54-6.07-.66-18.27-2-34.7-3.22"/><path class="cls-4" d="M616.37,551.54s25.16,5.74,30.64,8.55c0,0,11.55,4.49,13.37-1.84,0,0,2.46-9.34-6.92-17.71,0,0-12.81-13.44-16.35-14.84,0,0,6.71,17.15.5,21.58C637.61,547.28,631.86,552.1,616.37,551.54Z"/><path class="cls-11" d="M628.22,413.77s112.41,68.08,149,71.05c0,0,50.66,11.48-17,28.11,0,0-118.35,5.14-160.5-20.39C599.72,492.54,580.32,413.57,628.22,413.77Z"/><path class="cls-12" d="M690,448.7s28,40.84-14.3,62.13c31.9,7.52,109.45,11.28,116.79-10.13,5-14.67-40.86-20.6-62.24-31.23-7.1-3.54-21.39-10.64-40.25-20.77"/><path class="cls-13" d="M741.82,473.88S773.4,485.2,781.37,486c0,0,15.78,3.17,13.35,11.37,0,0-3.84,11.95-20,14.55,0,0-23.45,5.75-28.3,4.82,0,0,19.36-14.09,15.65-23.29C762.1,493.41,759.18,484.11,741.82,473.88Z"/><path class="cls-11" d="M503,373.53s92.13-34.08,110.9-54.11c0,0,30.28-24.3,8.52,23,0,0-52.05,71.62-86.6,84.4C535.84,426.85,480.62,401.46,503,373.53Z"/><path class="cls-12" d="M552.19,353.66s36.93,2.61,29.69,37.27c19.24-15.16,57.52-58.78,48.41-73-6.25-9.76-31.06,14.32-47.23,21.88-5.37,2.51-16.17,7.56-30.87,13.89"/><path class="cls-13" d="M591,335.05s21.31-13.21,25.46-17.52c0,0,9.2-7.76,12.86-2.52,0,0,5.21,7.81-.78,18.46,0,0-7.54,16.38-10.34,18.79,0,0,.76-17.88-6.35-20C611.89,332.27,605.09,329.65,591,335.05Z"/><path class="cls-2" d="M492.83,298.06s120.31-52.89,143.78-81.15c0,0,38.5-34.87,13.22,30.08,0,0-63.79,99.82-108.91,119.65C540.92,366.64,465.15,337.14,492.83,298.06Z"/><path class="cls-3" d="M556.9,267.58s49.53.53,42.64,47.4c24.48-21.79,72.12-83.1,58.81-101.41-9.12-12.54-40.34,21.6-61.33,33-7,3.78-21,11.39-40.12,21"/><path class="cls-4" d="M607.3,239.62s27.41-19.34,32.61-25.43c0,0,11.66-11.1,17-4.4,0,0,7.57,10,.43,24.71,0,0-8.77,22.49-12.31,25.93,0,0-.42-23.94-10.08-26.19C634.93,234.24,625.64,231.29,607.3,239.62Z"/><path class="cls-14" d="M504.31,346s54.82-119.44,83.46-142.45c0,0,35.49-37.94-29.86-13.71,0,0-100.84,62.17-121.4,107C436.51,296.75,464.78,373,504.31,346Z"/><path class="cls-15" d="M535.82,282.38s.27-49.54-46.71-43.41c22.18-24.12,84.26-70.76,102.35-57.15,12.4,9.32-22.25,40-34,60.78-3.9,6.91-11.73,20.8-21.66,39.78"/><path class="cls-16" d="M564.59,232.43s19.78-27.09,26-32.19c0,0,11.28-11.48,4.67-16.9,0,0-9.89-7.74-24.7-.83,0,0-22.63,8.39-26.12,11.89,0,0,23.92.8,26,10.49C570.42,204.89,573.22,214.23,564.59,232.43Z"/><path class="cls-2" d="M525.12,483.27S606.12,459,629.41,463c0,0,33.41,1-6.08-20.25,0,0-72.91-22.27-103.28-13.15C520.05,429.61,495.25,475.68,525.12,483.27Z"/><path class="cls-3" d="M569.22,471.46s24-20.94,1.1-41c21.08.45,70,10.6,71.13,25.12.77,9.95-28.77,6.25-43.81,9.43-5,1.06-15,3.18-28.42,6.46"/><path class="cls-4" d="M605.58,464.12s21.49-2,26.58-1.16c0,0,10.34.57,10.15-4.93,0,0-.47-8.07-10.1-12.28,0,0-13.68-7.36-16.86-7.56,0,0,9.79,11.9,6,17C621.35,455.22,618,460.54,605.58,464.12Z"/><path class="cls-2" d="M486.37,390.24s75.76-37.34,99.37-37.2c0,0,33.08-4.53-9.33-18.94,0,0-75.5-9.88-103.91,4.12C472.5,338.22,455.69,387.7,486.37,390.24Z"/><path class="cls-3" d="M527.85,371.31s20.22-24.59-5.69-40.58c20.84-3,70.71-1.12,74.21,13,2.41,9.68-27.3,10.92-41.59,16.54-4.74,1.86-14.28,5.62-26.93,11.05"/><path class="cls-4" d="M562.45,358.07s20.85-5.49,26-5.53c0,0,10.28-1.15,9.18-6.54,0,0-1.8-7.86-12-10.42,0,0-14.69-5-17.85-4.66,0,0,11.61,10.1,8.72,15.78C576.52,346.7,574.13,352.49,562.45,358.07Z"/><path class="cls-2" d="M466.53,335s64.49-21.28,78-34.66c0,0,21.53-16,5.32,16.13,0,0-37.73,48.2-61.92,56.17C487.88,372.61,450.36,353.71,466.53,335Z"/><path class="cls-3" d="M501,322.45s25.45,2.71,19.59,26.48c13.67-10,41.19-39.19,35.25-49.26-4.07-6.91-21.81,9.12-33.17,13.95-3.77,1.6-11.36,4.82-21.67,8.83"/><path class="cls-4" d="M528.29,310.55s15.05-8.6,18-11.48c0,0,6.55-5.13,9-1.42,0,0,3.41,5.52-1,12.73,0,0-5.62,11.14-7.61,12.73,0,0,1-12.33-3.89-14C542.77,309.14,538.13,307.17,528.29,310.55Z"/><path class="cls-2" d="M478.38,345.68s5.53-52.62,13.49-65.09c0,0,8.65-19-13.16-1.38,0,0-30.46,36.71-32.53,56.44C446.18,335.65,466.79,361.09,478.38,345.68Z"/><path class="cls-3" d="M482.21,317.37s-6.28-18.93-23.41-10.53c5.36-12.06,23-37.85,31.68-35,5.93,2-3.34,18.11-5.13,27.56-.6,3.14-1.8,9.45-3.14,18"/><path class="cls-4" d="M486.75,294.62s4.06-12.89,5.76-15.63c0,0,2.82-5.83-.4-7.05,0,0-4.77-1.67-9.53,2.87,0,0-7.55,6.12-8.43,7.9,0,0,9.23-2.78,11.28.65C485.43,283.36,487.7,286.56,486.75,294.62Z"/><path class="cls-2" d="M407.78,279.16s-26-58.52-25.23-76.4c0,0-2.45-25.2-14.63,6.51,0,0-9.73,56.9,0,78.85C368,288.12,405,302.33,407.78,279.16Z"/><path class="cls-3" d="M394.67,247.16s-18-16-30.91,3.11c-1.68-15.88,1.25-53.61,12.05-55.84,7.4-1.54,7.46,21,11.29,32,1.27,3.65,3.83,11,7.57,20.73"/><path class="cls-4" d="M385.67,220.55s-3.54-16-3.42-19.86c0,0-.56-7.82-4.68-7.15,0,0-6,1.13-8.25,8.77,0,0-4.22,11-4.07,13.38,0,0,8-8.49,12.22-6.14C377.47,209.55,381.79,211.54,385.67,220.55Z"/><path class="cls-2" d="M421.48,293.39s30.07-43.54,32.14-58.18c0,0,5.84-20.09,10.89,7.51,0,0-.78,47.69-12.06,64C452.45,306.74,420.25,312.64,421.48,293.39Z"/><path class="cls-3" d="M437,269.41s17.09-10.28,24.63,7.24c3.79-12.64,7.17-43.72-1.26-47.18-5.78-2.37-9.26,15.92-14.05,24.26-1.59,2.77-4.79,8.34-9.32,15.68"/><path class="cls-4" d="M448.37,249.18s5.31-12.42,5.81-15.6c0,0,1.65-6.27,4.89-5.1,0,0,4.71,1.84,5.37,8.38,0,0,1.74,9.56,1.25,11.49,0,0-5.2-8.12-9-6.85C456.71,241.5,452.9,242.45,448.37,249.18Z"/></g><g id="topflower"><polygon class="cls-17" points="467.13 304.32 456.89 327.6 451.81 361.02 498.89 400.17 553.87 327.19 538.27 282.42 495.82 277.92 467.13 304.32"/><g id="petal6"><path class="cls-18" d="M661.61,283s-16.74,7.43-29.19,18.22c0,0-64.12,52.67-78,54.94l-16.46-2.11s-12.28-32.06,9-67.9c0,0,22.7-27.31,65.59-30.1,0,0,32.32-4.83,46.68,13.73C659.17,269.79,666.16,279.77,661.61,283Z"/><path class="cls-19" d="M544.3,329.85s.5-13.18,19.72-24.4c0,0,15-6.42,11.93-11.66,0,0-.44-6.77-17.9,3.43,0,0-17.33,12.46-18,23.39C540.07,320.61,538.7,334.29,544.3,329.85Z"/><path class="cls-20" d="M588.28,322.91s49.35-21.8,53.49-34.76,4.29-24.76-11.3-27.37c0,0-46.67.32-58.31,16.49,0,0-3.2,6.55,7.58,4.94a138.79,138.79,0,0,0,19.36-9s14.27-3.65,5.68,3.71c0,0-23.8,17.41-21.25,21.78,0,0,5.17,2.84,13-1.76,0,0,9.76-3.35,5.54,1.46a64.93,64.93,0,0,1-20.46,13.12S556.53,322.71,549,340l6.12,10.48S575.54,329.18,588.28,322.91Z"/><path class="cls-21" d="M637.2,257.09s17.45,13,12.65,22.83c0,0-9.68,12-9,14.87l15.68-9.3,4.16-2.05s3.94-1.32,2.24-5.74C662.91,277.7,660,261.13,637.2,257.09Z"/></g><g id="petal3"><path class="cls-22" d="M430.36,341.34s-8.24-8.08-46.17,1.19c0,0-40.18,9.41-55,32.14,0,0-13.38,17.19.75,25.34,0,0,3.64.21,9.53.28,0,0,104.35,8.18,119.71.38L462,381.44l-12.32-29.11Z"/><path class="cls-23" d="M433.49,354.74s-19.22-2.83-24.17,4.74c0,0-.21,3.64,11.58,3.78,0,0,16.82.72,20.25,4.58Z"/><path class="cls-24" d="M439.54,357.06s6.77-.44,10.49,7.93c0,0,2,9.4-8.88,2.85l-7.66-13.1A39.13,39.13,0,0,0,439.54,357.06Z"/><path class="cls-23" d="M443.7,372.21s-23.38-3.92-22.79,5.1c0,0,5.68,3.72,15.73,4.87,0,0,10.56,2,7.87,9.47,0,0-.58,5-4.59,6.19,0,0-11.64,3.28-8.47,6.12,0,0,20.71.79,27.7-3.29Z"/><path class="cls-24" d="M459.36,383s-5.62-9.6-15.66-10.76l6.88,12a9.41,9.41,0,0,1,6.07,2.27S460.52,387,459.36,383Z"/></g><g id="petal2"><path class="cls-22" d="M473.39,281.65s-30-29.61-38.48-31c0,0-28.6-17.72-41.2-23.24,0,0-32-18.77-57.52,7.82,0,0-.73,2.76,4.3,3.34,0,0,7.79,1.31,13.7,15.43,0,0,8.82,31.16,47.43,67.18,0,0,42.57,32.77,50.89,36Z"/><path class="cls-25" d="M425.39,247.6s5.69,17.76-2.9,11.07c0,0-27.83-23.58-45-8.86,0,0-9.46,7.87-.21,17.69,0,0,17.92,10.62,24,12.95,0,0,36.78,28.89,20.25,32.68,0,0-36.49-24.37-43-19.42,0,0-2.65,2.32,12,16.5,0,0,23.21,24.8,41.15,33.46l25.51-14.5,16-46.83a217.37,217.37,0,0,0-23.16-21.61C434.39,250,418.11,238.91,425.39,247.6Z"/><path class="cls-26" d="M460.47,288.61s-6-2.33-8.38-10.34c0,0-2.41-16.16-12.16-12.8,0,0-7.5,3.2-4.29,10.7,0,0,4.08,7,11.87,8.3,0,0,4-1.17,7.72,7.2Z"/><path class="cls-19" d="M460.33,286.35s-9.54-.28-9.1,6.49c0,0,.58,9-5.82,8.08,0,0-10.56-2-9.1,6.49a21.33,21.33,0,0,0,6.12,10.48L460.05,324l9.65-29.2Z"/></g><g id="petal1"><path class="cls-27" d="M540.34,299.58a39.08,39.08,0,0,1,3.76-11.2s2.11-2.4,2.18-8.3c0,0,4.77-66-5.37-103.46,0,0-5.33-19.15-14-19.94,0,0-5.39.8-7.79-1.31,0,0-6-2.33-15.87,6.92,0,0-25,27.47-26.84,54.34,0,0-18.32,66.92,1.78,69.24Z"/><path class="cls-25" d="M543,205.27s.81,19.44-6,11.73c0,0-9-5.32-6.41-.95,0,0-.94,6.41-5-.58,0,0-2.34-22.06-11.22-19.21,0,0-14.27,3.64-18.27,18.86,0,0-3,17-10,12.9,0,0-8.13-3.26-13.89,7.62,0,0-7.55,31.8-1.36,43.44l24.78,10.61,45,9.58s1.16-10,3.78-11.58c0,0,1.75-1.6,2.43-15.18C546.71,272.51,549,193.54,543,205.27Z"/><path class="cls-28" d="M505,282.54s-5.47-21.4-5.26-25c0,0,.5-13.18-6.19-4.59,0,0-11,19.31-7.63,29.06l19.23,16.88S508.31,292.3,505,282.54Z"/><path class="cls-28" d="M530.73,274.52s-1-29.85-14.29-24.46c0,0-6.62,2.7-3.91,23.38,0,0,.88,13.54-2.11,16.45l10.78-1.6Z"/><path class="cls-29" d="M547.25,232.06s-7.73,3.36-6.7,19.16c0,0,4.89,26.42-2.1,30.5,0,0-9.17-1.67-9.75,3.36l12.19,11.56s1.28-6.54,3.21-8.26a20.83,20.83,0,0,0,2-6.16S548.08,240.94,547.25,232.06Z"/></g><path class="cls-30" d="M542.86,293.73s6.69,10.59-.67,20.26l4.61,7.9s13.73-14.4,16.42-7.78c0,0,1.53,2.62-6.33,7.21,0,0-14.34,9.55-15.64,17.34l2.18,5.75s7.43-11.36,11.51-4.37c0,0,6.63,11.35-.36,15.43,0,0-14.7,10.93-17.25,20.62l-10.77,1.61.33-71.65Z"/><path class="cls-31" d="M473.83,288.42s-11.87-8.29-10.92-.65l-.29,9.54,10.79,12.44,7.64-.95.87-14.56Z"/><path class="cls-32" d="M541.19,372.67l-2-8.61c1.47-3.64,3.86-7.7,7.61-9.89,7.86-4.59-4.52.29-6.63,2.7s-.44-6.78-.44-6.78,3.86-3.42,1.82-6.91,3-10.84,3-10.84-.84-5.1,2.32-9-6-6.71-6-6.71,4.06-5.89.64-9.74a24.49,24.49,0,0,0-6.7-5.46s-8-7.92-11.44.37c0,0-6.1,15.73-3.55,20.1,0,0,2.91,3,4.3,3.34l-4.79,13.67s-2.19,4.47-3.8-6.31c0,0-1.9-15.29.06-19.95,0,0,6.18-9.47,3.63-13.83,0,0-3.86-10.63-8.92-8.26,0,0-17.76,5.68-12.88,18.06,0,0,6.49,9.1,3.14,13.4,0,0-1.45,5.53-.8,8.66,0,0-.43,7.28-5.1-8.73,0,0-4.74-24.18-7.44-30.8,0,0-11.58-3.78-10.34,8.38,0,0,3,11.14-4.73,3.93,0,0-5.46-7.35-7.06-4.07l17.52,39.25s-6.58,3.56-4.39,9.31c0,0-.58,5-2.55-4.37,0,0-1.46-8.52-6.42-15,0,0-2.25-3.37,3.72-7.44l-2.85-7.12s-11.07.52-12.05,8.16l-3.67,1s6.84-6.33,2.9-11.06c0,0-7.21-6.34-10.41.22l3,11.14,8,13.7s3.36,7.77,7.15,10.25c0,0,5.17,2.83,4.08,7,0,0,15.38,20.31,14.76,28.28,0,0-10.05-15.21-11.73-20.09,0,0-13.78-23.58-21.5-30.79,0,0-17-3-19.65,4.46,0,0-1.15,4.05,3.79,6.5l6.62,7.33a22.92,22.92,0,0,0,4.74,10.11s6.19,4.59,4.23,9.25l-5.53-1.45s-2.62,1.53,4.22,9.24c0,0,7.29.43,9.84,4.8l1,15.8s4.45,5.6,10.56,2c0,0,8.45,4.44,12.82,1.89L532,393.56S538.21,375.58,541.19,372.67Z"/><path class="cls-33" d="M531.37,396s7.42-25.42-2-31.6c0,0-5.39.8-5.31,9,0,0-.94,6.41-7.21-6.33,0,0-8.68-14.85-8.9-25.26,0,0-1.46-8.52-4.3-3.35,0,0-3.92,9.32-.86,14.56,0,0,6.86,35.82-.65,25,0,0-7.36-22.64-12.09-18.71,0,0-6.55,10.85-.94,20.46,0,0,4.38,11.5-11-8.8,0,0,4.89,26.43-5.08,33.42L506,410.76Z"/><path class="cls-34" d="M459.28,388.77s-7.35-8.49-9.83-4.7a4.44,4.44,0,0,0,.66,3.13s1,1.75-1.6,3.28c0,0-2.62,1.53,1.32,6.26,0,0,3.93,4.73,7.93,3.56,0,0,3.2-6.55,8.23-6,0,0,10.54,5.47,11.28,8,0,0,3.36,1,6-.52,0,0-10-7.06-12.68-13.68,0,0-5.83-6-8.45-4.44,0,0,.66,3.13,5.83,6,0,0,4.81,4.22,1.53,2.62,0,0-5.68-3.71-7.43-2.69Z"/><path class="cls-35" d="M449.06,329.24s-10.55,12-7.71,20.91l-7.93-3.57s4.87-15.73,11-19.3Z"/><path class="cls-34" d="M444.49,349.49s-11.88-8.3-15-7.64c0,0-1.74,1,1.17,4,0,0,4.81,4.23,5.46,7.36,0,0,.66,3.13,4.66,2,0,0,3-2.91,5.76-2.19,0,0,5.68,3.71,6.91,1.82Z"/><path class="cls-36" d="M460.31,404.67s7.42-25.41,7.41-39.47L461,372.27s-8.91,24.32-5.7,31.82Z"/><path class="cls-37" d="M556.47,356.71s-22.22-28-23.17-35.66L532.65,332s18.29,23.29,11.6,31.88l5.89.07Z"/><path class="cls-38" d="M528.4,280.56s14.72,17.18,7.66,27.16c0,0-2.54,9.68-1,12.31l-6.77.44s3.63-13.84,3.85-17.48c0,0,1.45-5.54-7.29-14.49Z"/><path id="shade" class="cls-39" d="M662.91,277.7S660,261.13,637.2,257.09a76.26,76.26,0,0,0-24.71-1c-42.89,2.79-65.59,30.1-65.59,30.1-1.51,2.55-2.84,5.08-4,7.59v0l-.51.4-.31-.9a48.75,48.75,0,0,1,2.06-4.85s2.11-2.4,2.18-8.3c0,0,1.06-14.68,1.12-34.12.1-6.13.09-11.34-.14-13.89-.46-18.85-2.08-39.69-6.35-55.45,0,0-5.33-19.15-14-19.94,0,0-5.39.8-7.79-1.31,0,0-6-2.33-15.87,6.92,0,0-25,27.47-26.84,54.34,0,0-2.25,8.23-4.31,19h0s-.32,1.35-.77,3.56c-1.56-1.81-7.12-6.1-17.15,8.56,0,0-2.84,5.18-2.54,9.69,0,0,.29,4.51-2.19-5.75l-3.06-5.24a19.52,19.52,0,0,1-2-9.39,12.32,12.32,0,0,0-9.25-9.83s-6.78.44-7.36,5.47c0,0-1.45,5.53,4.23,9.24,0,0,2.41,2.11,5,.58,0,0,3.49-2,6.19,4.59,0,0,6.12,10.48,2.33,8,0,0-5.49-4.27-10.38-4.42a79,79,0,0,0-10-5.89c-9.48-5.68-23.63-13.91-31.51-17.36,0,0-32-18.77-57.52,7.82,0,0-.73,2.76,4.3,3.34,0,0,7.79,1.31,13.7,15.43,0,0,5.26,18.52,25.34,43.51,1.45,2.46,4.55,6.4,11,12.66l.61.65c3.22,3.39,6.69,6.85,10.45,10.36l.58.45a180,180,0,0,0,21.05,17.06c-6.5-1.15-18.34-1.26-39.06,3.8,0,0-40.18,9.41-55,32.14,0,0-13.38,17.19.75,25.34,0,0,3.64.21,9.53.28,0,0,56,4.39,92,3.67h0a123.2,123.2,0,0,0,19.29-.88,26.34,26.34,0,0,0-4.88,5.93s-13.27,24.89-5.78,50.68h0l.07.17c.33,1.13.69,2.26,1.1,3.39,0,0,2.57,7,6.13,14.31,2.55,5.58,5.28,10.71,7.32,12.34,0,0,.18.26.51.64a12.08,12.08,0,0,0,3.9,3.28,8.55,8.55,0,0,0,3.89.34l.17,0a6.18,6.18,0,0,0,.79-.21.32.32,0,0,0,.09,0,4,4,0,0,0,1.49-.85l0,0a5.71,5.71,0,0,0,.61-.6l0,0a9.9,9.9,0,0,0,2.1-4.52,39.9,39.9,0,0,1,7.14-11.19s3.54-4.95,5.92-8.76c8.67-12.74,24.4-35.39,29.88-40.26,0,0,9.54-9,13.57-15.11,8.68,3.23,19.41-.63,19.41-.63,7.64-1,17.69.21,17.69.21,18.5,5.6,71.28,1.71,71.28,1.71a12.5,12.5,0,0,1,8.12,2.87c7.44-3.7,4.68-12.28.65-19.31l-.05-.09a72.11,72.11,0,0,0-7.53-10.52c-.9-1.1-1.84-2.15-2.79-3.18l-.26-.3h0c-24.45-26.25-63.14-31.67-63.14-31.67-1.23-.08-2.39-.11-3.52-.11,22.77-13.33,67.78-50.3,67.78-50.3a96.76,96.76,0,0,1,8.41-6.45h0l15.68-9.3h0l4.15-2.05a4.35,4.35,0,0,0,.55-.25l.39-.18a3.48,3.48,0,0,0,.73-.7C663.15,281.44,663.79,280,662.91,277.7ZM470.43,399.93l.62.31-.69-.27Zm-.6-152.2c-1.52,9.91-2.68,23.42.56,30.59l-.19.24c-3.33-3.2-8.88-8.42-14.71-13.5-.08-5.26-.77-10.72,3-13.95C458.49,251.11,465.72,250.64,469.83,247.73Zm67.8,131.33q.24-.56.48-1.08c0,.34.06.55.06.55Z"/><path class="cls-40" d="M524,300.12s.14-11.8,8-16.39c0,0,6.33-7.21,2.39-11.94,0,0-4.59-7.86-15.29,1.9,0,0-12.51,16.68-3.26,26.5C515.85,300.19,523.43,305.14,524,300.12Z"/><path class="cls-41" d="M494.3,303.41s7.5-3.21-.15-16.31c0,0-11.08-17-19.81-11.86,0,0-11.87,5.76-1.74,15.07,0,0,11.18,8.12,15.11,12.85C487.71,303.16,492,306.5,494.3,303.41Z"/><path class="cls-42" d="M467.5,368.84s4.73-3.93,7.87-4.59c0,0,5.53,1.46.94-6.4,0,0-5.4-13.25-18.72-2,0,0-7.71,6.85,1,15.8C458.62,371.69,464.3,375.4,467.5,368.84Z"/><path class="cls-43" d="M541.35,329.82s12.08-9.4,1.89-12.82c0,0-10.34-5.67-20.9,6.34,0,0-7.78,12.75-1.08,18.21,0,0,6.37,3.89,9.43-4.92A17,17,0,0,1,541.35,329.82Z"/><path class="cls-44" d="M478.82,292s13,4.14,12.67-.37c0,0-.65-3.13-9.1-7.57,0,0-4.3-3.35,3.85-3.42,0,0,4.85,1.32,9.86,10.37,0,0,3.48,6.44-1.62,11.76,0,0-5,3.65-9.82-2.69C484.66,300,471.9,290.13,478.82,292Z"/><path class="cls-45" d="M516,291.35s4.9,1.14,9.8-4.9c0,0,3.49-3.05,1.87,1.5,0,0-4.25,6.09-3.8,12.86,0,0-.38,3.78-4.09,1.24,0,0-4.12-.7-6.46-6C513.28,296.06,511.81,290.26,516,291.35Z"/><path class="cls-46" d="M463.83,334.28s-1.74-6.79-7-3.73c0,0-4.73,3.94-6.26,1.31,0,0-4.66-2-6.26,1.32C444.33,333.18,453.41,342.32,463.83,334.28Z"/><path class="cls-47" d="M516.73,372.9a86.42,86.42,0,0,0,14.5,34.87L517,405.52s4.51-.3-8.32-30.29Z"/><path class="cls-48" d="M513.89,378.07s12-3.5,6-11.73c0,0-5.32-5.09-14.93.52,0,0-6.26,1.31-.8,8.66C504.2,375.52,508.65,381.13,513.89,378.07Z"/><path class="cls-49" d="M462.17,335.64S468.8,333,460.05,324c0,0-18.35-17.4-24.39-5.67,0,0-3.2,6.55,8.67,14.85C444.33,333.18,453.44,340.75,462.17,335.64Z"/><path class="cls-50" d="M510.19,397.8s-11.74-20.09-15.6-30.72c0,0-13.27-36.76-22.09-53.87,0,0-8.6-20.74-13.63-35.38,0,0-9-19.36-.38-26.72,0,0,18.05-1.17,13.32-11.29,0,0-5.62-9.61-17.62,8,0,0-2.84,5.17-2.54,9.68,0,0,.29,4.51-2.19-5.75l-3.06-5.24a19.52,19.52,0,0,1-2-9.39,12.32,12.32,0,0,0-9.25-9.83s-6.78.44-7.36,5.47c0,0-1.45,5.53,4.23,9.24,0,0,2.41,2.11,5,.58,0,0,3.49-2,6.19,4.59,0,0,6.12,10.48,2.33,8,0,0-8.59-6.69-13.83-3.63,0,0-5.76,2.19-.8,8.67,0,0,4.95,6.47,10.19,3.41,0,0,3.71-5.68,5.25-3.06,0,0,6.12,10.48,7.43,16.74,0,0,7.37,22.64,15.53,36.62,0,0,8.31,16.23,12.32,29.12,0,0,7.44,30.79,18.37,45.5l9,13.46Z"/><path class="cls-51" d="M455.47,267.31c.24-5.9-1.3-12.5,3-16.2,0,0,18.05-1.17,13.32-11.29,0,0-5.62-9.61-17.62,8,0,0-2.84,5.17-2.54,9.68,0,0,.29,4.51-2.19-5.75l-3.06-5.24a19.52,19.52,0,0,1-2-9.39,12.32,12.32,0,0,0-9.25-9.83s-6.78.44-7.36,5.47c0,0-1.45,5.53,4.23,9.24,0,0,2.41,2.11,5,.58,0,0,3.49-2,6.19,4.59,0,0,6.12,10.48,2.33,8,0,0-8.59-6.69-13.83-3.63,0,0-5.76,2.19-.8,8.67,0,0,4.95,6.47,10.19,3.41a17.18,17.18,0,0,1,2-2.51c1.12-1.09,1.26-5.86,2-4.55a10.83,10.83,0,0,0,6,2.32c.52,1.13,2.41-9,2.69-7.42.47,2.62.07,8.17-1.37,13.69C451.87,267.86,455.29,271.72,455.47,267.31Z"/><g id="petal5"><path class="cls-52" d="M538.17,378.53s-4.16-29.2,30-26.88c0,0,42.09,5.87,66.2,35.13,0,0,20.55,23.14,6.93,29.92a12.5,12.5,0,0,0-8.12-2.87s-52.78,3.89-71.28-1.71c0,0-10-1.16-17.69-.21,0,0-13.07,4.7-22-.61s-3.83-13.58-3.83-13.58Z"/><path class="cls-53" d="M632.88,409.31s6.84-6.33-3.72-8.37c0,0-41.94-3.62-55.19,1.78,0,0-6.11,3.57-.58,5,0,0,24.76,4.29,33.28,2.83,0,0,12.16-1.25,16.31-.16C623,410.41,630.77,411.72,632.88,409.31Z"/><path class="cls-53" d="M542.09,361.16s23.71-.52,31.21,10.32c0,0,2.55,4.37-8.59,7.36,0,0-19.84,5.15-26.17-1.7,0,0-1.39-.36.28-9.53A11.46,11.46,0,0,1,542.09,361.16Z"/><path class="cls-54" d="M631.31,383.3s-8.42,4.9-1.06,13.49c0,0,11.37,10.94,15.08,10.52C645.33,407.31,646.57,400.16,631.31,383.3Z"/></g><g id="petal4"><path class="cls-52" d="M520.35,404.17s-45.65,2.06-54.4-6.89c0,0-12.3-1-20.09,11.73,0,0-14.54,27.24-4.63,54.25,0,0,9.92,27,17.86,30.57,0,0,6.73,2.51,8.55-4.41a41.47,41.47,0,0,1,7.78-12.75s28.09-42.17,35.8-49c0,0,14.74-13.87,15.32-18.9S520.35,404.17,520.35,404.17Z"/><path class="cls-55" d="M481.46,465s-17.9,17.48-26.5,10.79c0,0-12.24-20.08-14.9-16,0,0,9.52,26.12,14.62,30.21,0,0,4.21,5.84,9.35,4,0,0,3.08-.7,4.25-6,0,0,3.29-7.75,7.14-11.18C475.42,476.67,488.3,458.61,481.46,465Z"/><path class="cls-56" d="M469.2,399.46s-13,18.17-8.51,31.93c0,0,1.83,7.14-2.39,11.95,0,0-7.06,10,7.06,4.07,0,0,38.09-12,49.39-24.75,0,0,8.08-8.23,10.55-12s-5.13-5.78-5.13-5.78S477.08,406.55,469.2,399.46Z"/></g></g><g id="bottomrightflower"><polygon class="cls-17" points="544.41 469.39 543.08 492.14 533.5 520.88 479.98 532.91 465.88 452.26 496.59 422.91 532.28 436.64 544.41 469.39"/><g id="petal6-2" data-name="petal6"><path class="cls-18" d="M398,373.08s10.32,12.76,15.85,26.43c0,0,29.67,68.18,39.84,75.65l14,5s22.88-20.57,20.54-57.82c0,0-7-31.06-40-50.77,0,0-23.82-17-42.84-8.08C405.29,363.53,395.64,368.63,398,373.08Z"/><path class="cls-19" d="M472.43,458.29s5-10.72-5.78-27.51c0,0-9.35-11.23-4.77-14.17,0,0,3.12-5.22,12.89,10,0,0,8.74,17,4.8,26C479.57,452.64,475.09,464.12,472.43,458.29Z"/><path class="cls-20" d="M440.18,434.82s-30.48-37.52-28.5-49.55,6.68-21.5,20.17-17.23c0,0,37.11,19.29,39.8,36.94,0,0-.12,6.53-8.06.85a123.8,123.8,0,0,1-11.79-15.05s-9.9-8.72-6.05.65c0,0,11.89,23.6,8.07,26,0,0-5.28.15-9.68-6.71,0,0-6.41-6.66-5-1.1a58.1,58.1,0,0,0,11,18.8s15.49,19.14,14.42,36l-9.15,5.86S447.79,445,440.18,434.82Z"/><path class="cls-21" d="M428,362.36s-19.22,3.25-19.4,13.05c0,0,2.84,13.49,1.13,15.54L401,377.13l-2.48-3.33s-2.6-2.65.56-5.48C399.08,368.32,408.19,356.3,428,362.36Z"/></g><g id="petal3-2" data-name="petal3"><path class="cls-22" d="M558.64,513.92s9.87-3.08,36.34,19.78c0,0,28.23,23.9,30.8,48.08,0,0,3.67,19.17-10.93,19.91,0,0-3-1.31-7.72-3.66,0,0-86.58-36-95.65-48.52L517.06,533l21.71-18.2Z"/><path class="cls-23" d="M550.68,523.33S567.17,528.91,568,537c0,0-1.31,3-10.77-1.7,0,0-13.72-6.29-18-4.61Z"/><path class="cls-24" d="M544.91,522.72s-5.23-3.11-11.61,2c0,0-5.4,6.69,5.93,5.89l11.45-7.33A35.29,35.29,0,0,1,544.91,522.72Z"/><path class="cls-23" d="M535.41,533.11s20.25,6.4,16.1,13.36c0,0-6,.65-14.54-2.53,0,0-9.25-2.68-10.13,4.34,0,0-1.59,4.25,1.13,6.81,0,0,7.95,7.37,4.27,8.34,0,0-16.85-7.81-20.76-13.92Z"/><path class="cls-24" d="M518.53,535.31s8.39-5.38,16.88-2.2L525,539.88a8.47,8.47,0,0,0-5.78-.67S516,538,518.53,535.31Z"/></g><g id="petal2-2" data-name="petal2"><path class="cls-22" d="M548.65,448.75s36-11.39,43.33-9c0,0,30-2.47,42.35-1.74,0,0,33.22-1.9,42.69,29.69,0,0-.55,2.51-4.79.92,0,0-6.75-2.13-17.22,6.72,0,0-19.75,21.26-65.24,34.25,0,0-47.32,8.79-55.28,8Z"/><path class="cls-25" d="M600.83,441.16s-11.78,11.85-2.19,10c0,0,31.81-7.46,39.51,11.28,0,0,4.34,10.14-7,14.21,0,0-18.62,1.16-24.39.55,0,0-41.13,8-29.49,17.81,0,0,39-4.56,42.2,2,0,0,1.16,2.92-16.33,8.25,0,0-28.63,10.31-46.48,9.91l-14.43-22,6.34-43.88a194.71,194.71,0,0,1,27.29-7.8C592.7,439.38,610.19,437.2,600.83,441.16Z"/><path class="cls-26" d="M556.12,459.57s5.77.61,10.9-4.82c0,0,8.52-11.91,14.93-5.26,0,0,4.67,5.62-.94,10.29,0,0-6.11,3.91-12.86,1.78,0,0-2.71-2.57-9.09,2.59Z"/><path class="cls-19" d="M557.16,457.83s7.73,3.67,4.61,8.89c0,0-4.15,7,1.35,8.82,0,0,9.25,2.69,4.61,8.89a19.17,19.17,0,0,1-9.15,5.86L542,488l4.21-27.23Z"/></g><g id="petal1-2" data-name="petal1"><path class="cls-27" d="M487.94,435.75a35,35,0,0,0,1.56-10.46s-.7-2.78,1.65-7.51c0,0,23.13-54.63,46.48-80.35,0,0,12-13.1,19.29-10.2,0,0,4,2.83,6.75,2.13,0,0,5.77.61,9.84,12,0,0,8.71,32.09-.75,54.29,0,0-12.68,60.85-29.66,54.51Z"/><path class="cls-25" d="M524.28,359.43s-8.58,15.18,0,11.82c0,0,9.31-.58,5.5,1.86,0,0-1.86,5.5,4.24,1.59,0,0,10.87-16.65,16.79-10.75,0,0,9.9,8.72,6.88,22.5,0,0-4.55,14.75,2.75,14.38,0,0,7.81.72,8,11.74,0,0-7,28.45-16.63,35.21l-24.09-1.64-39.79-10.7s3.18-8.49,1.71-10.77c0,0-.74-2,4.25-13.11C493.89,411.56,524.24,347.62,524.28,359.43Z"/><path class="cls-28" d="M523.11,436.59s13.09-14.84,14.41-17.83c0,0,5-10.72,6.8-1.13,0,0,.9,19.87-5.76,26.29l-22.23,5.62S516.45,443,523.11,436.59Z"/><path class="cls-28" d="M505.82,419.68s13-23.39,21.37-13.68c0,0,4.19,4.85-6.4,20.24,0,0-6.23,10.45-5,14l-7.94-5.68Z"/><path class="cls-29" d="M510,379.07s4.81,5.83-2.46,18c0,0-14.68,19.09-10.77,25.19,0,0,8,2.41,6.42,6.66l-14.45,4.25s1.65-5.75.81-7.9a19,19,0,0,1,.88-5.76S505.68,385.82,510,379.07Z"/></g><path class="cls-30" d="M488.31,430.06s-9.66,5.72-7.73,16.44l-6.9,4.42s-5.07-17.09-9.93-12.9c0,0-2.29,1.46,2.11,8.33,0,0,7.55,13.46,5.41,20.21l-4.09,3.7s-1.28-12.09-7.39-8.18c0,0-9.92,6.35-6,12.46,0,0,7.27,14.71,5.35,23.48l7.94,5.67,29-57.29Z"/><path class="cls-31" d="M545.54,454s12.86-1.78,9,3.93l-3.66,7.73-13.68,5.53-5.71-3.88,5.25-12Z"/><path class="cls-32" d="M457.45,493.71l5.11-6c.32-3.51.07-7.72-2-11-4.4-6.87,3.48,2.08,4.18,4.86s3.12-5.23,3.12-5.23-1.69-4.3,1.37-6.26,2.06-9.85,2.06-9.85a11.08,11.08,0,0,0,1.8-8.1c-.94-4.37,7.53-2.9,7.53-2.9s-.84-6.35,3.47-8a21.85,21.85,0,0,1,7.57-1.62s9.63-3,9,5c0,0-1.54,15-5.36,17.48,0,0-3.54,1.19-4.79.91l-1.76,12.86s-.07,4.46,5.61-3.48c0,0,7.75-11.43,8.08-15.95,0,0-1.07-10.07,2.75-12.52,0,0,7.41-6.9,10.48-2.95,0,0,11.86,11.79,2.91,19.67,0,0-8.88,4.61-8,9.4,0,0-1.09,5-2.89,7.24,0,0-2.63,6,7.63-4.89,0,0,13.64-17.34,18.5-21.53,0,0,10.77,1.71,4.82,10.9,0,0-6.93,7.67,2.17,5.07,0,0,7.36-3.64,7.3-.37l-30,24.17s3.79,5.52-.3,9.21c0,0-1.59,4.25,3.82-2.44,0,0,4.64-6.2,11.23-9.35,0,0,3.17-1.77.07-7.45L538.1,476s8.62,4.93,6.28,11.42l2.52,2.32s-2.88-7.85,2.19-10c0,0,8.34-2.11,8.22,4.43l-6.93,7.66-12,7.67s-5.86,4.83-9.89,5.26c0,0-5.28.15-6.11,3.91,0,0-20.54,9.93-23.3,16.54,0,0,14.22-8,17.55-11.24,0,0,20.61-13.2,29.7-15.8,0,0,14.75,4.55,13.87,11.57,0,0-.74,3.7-5.68,3.64l-8.27,3.14a20.5,20.5,0,0,1-7.91,6.14s-6.81,1.13-7.14,5.65l5,1.1s1.46,2.29-7.15,5.65c0,0-6-2.62-9.8-.18L512,547s-5.83,2.65-9.25-2.69c0,0-8.55.1-11-3.72l-35.52-26.47S458.64,497.25,457.45,493.71Z"/><path class="cls-33" d="M455.78,516.31s4.45-23.3,14.52-24.37c0,0,4,2.83.59,9.31,0,0-1.86,5.5,8.33-2.11,0,0,13-8.31,17.4-16.52,0,0,4.64-6.2,4.79-.92,0,0-.67,9-5.24,12,0,0-20.09,25.78-9.68,20.18,0,0,15.11-15.05,17.28-10,0,0,.8,11.33-7.6,16.71,0,0-8.18,7.39,12.37-2.54,0,0-14.68,19.09-9.58,28.74l-29-8.33Z"/><path class="cls-34" d="M516.22,540s9.33-3.78,9.76.25a3.92,3.92,0,0,1-1.8,2.23s-1.53,1-.06,3.27c0,0,1.47,2.29-3.6,4.46,0,0-5.07,2.17-7.79-.4,0,0,.12-6.53-4.12-8.12,0,0-10.64.07-12.27,1.8a7.63,7.63,0,0,1-4.56-2.86s10.84-1.56,15.7-5.74c0,0,7.08-2.39,8.55-.1,0,0-1.81,2.23-7.09,2.38,0,0-5.55,1.41-2.29,1.47,0,0,6.05-.64,7,.88Z"/><path class="cls-35" d="M548.65,496.64s3.52,13.9-2.37,19.82l7.78.4s2.53-14.54-.89-19.88Z"/><path class="cls-34" d="M544.05,514.66s12.85-1.77,15.08,0c0,0,1,1.52-2.56,2.72,0,0-5.56,1.4-7.36,3.63,0,0-1.8,2.23-4.52-.33,0,0-1.19-3.55-3.69-4.09,0,0-6,.64-6.26-1.38Z"/><path class="cls-36" d="M508.92,552.23s4.45-23.3,10.18-34.51l2.49,8.39s-2.81,23-8.43,27.7Z"/><path class="cls-37" d="M451.76,474.75s29.16-13.29,33-19l-3.94,9s-24.09,11.12-22.25,20.71l-4.74-2.35Z"/><path class="cls-38" d="M505.21,425.45S486.47,433.15,488,444c0,0-1.92,8.77-4.21,10.23l5.22,3.12s2.74-12.52,4.06-15.52c0,0,1.09-5,11.72-8.58Z"/><path id="shade-2" data-name="shade" class="cls-57" d="M399.08,368.32s9.11-12,28.91-6a68.39,68.39,0,0,1,20.14,9.25c33.07,19.71,40,50.77,40,50.77.17,2.65.2,5.21.12,7.69h0l.24.53.62-.59a44,44,0,0,0,.33-4.71s-.7-2.78,1.65-7.51c0,0,5.14-12.15,13-27.68,2.42-4.93,4.55-9.08,5.78-11,8.05-14.85,17.84-30.82,27.68-41.65,0,0,12-13.1,19.29-10.2,0,0,4,2.83,6.75,2.13,0,0,5.77.61,9.84,12,0,0,8.71,32.09-.75,54.29,0,0-1.56,7.48-4.32,16.92h0s-.29,1.21-.84,3.16c2-.81,8.17-2,10.19,13.82,0,0,.16,5.29-1.92,8.77,0,0-2.07,3.48,4.09-3.7l4.58-2.93a17.53,17.53,0,0,0,5.4-6.69,11,11,0,0,1,11.39-4.06s5.22,3.11,3.64,7.35a7.84,7.84,0,0,1-7.15,5.65,4,4,0,0,1-4.24-1.58s-2-3.06-6.81,1.13c0,0-9.16,5.86-5.13,5.44,0,0,6.13-1.17,10.08.7a70.37,70.37,0,0,1,10.39-.62c9.88-.66,24.52-1.46,32.22-1,0,0,33.22-1.9,42.69,29.69,0,0-.55,2.51-4.79.92,0,0-6.75-2.13-17.22,6.72,0,0-11.75,12.63-38,24.37-2.16,1.37-6.24,3.26-14,5.61l-.75.27c-4,1.39-8.13,2.74-12.57,4l-.64.12a161.2,161.2,0,0,1-23.75,5c5.65,1.73,15.14,6.47,29.6,19,0,0,28.23,23.9,30.8,48.08,0,0,3.67,19.17-10.93,19.91,0,0-3-1.31-7.72-3.66,0,0-46.48-19.35-74.89-34.6h0a111.12,111.12,0,0,1-15-8.56,23.73,23.73,0,0,1,1.46,6.71s.45,25.27-16,42.79h0l-.12.11c-.72.77-1.47,1.53-2.26,2.26,0,0-4.9,4.52-10.73,8.92-4.31,3.41-8.58,6.39-10.87,6.86a7,7,0,0,1-.67.29,10.73,10.73,0,0,1-4.44,1,7.64,7.64,0,0,1-3.25-1.33l-.12-.09a5,5,0,0,1-.54-.49l-.06-.06a3.59,3.59,0,0,1-.84-1.29.05.05,0,0,1,0,0,4.81,4.81,0,0,1-.24-.73v0a8.9,8.9,0,0,1,.18-4.47,35.79,35.79,0,0,0-1.14-11.83s-.8-5.4-1.14-9.41c-1.73-13.7-5-38.19-7.43-44.3,0,0-3.94-11-4.66-17.59-8.24-1-15.22-8.42-15.22-8.42-5.71-3.87-14.2-7-14.2-7-17-3.07-57.57-27.7-57.57-27.7a11.16,11.16,0,0,0-7.65-1c-4.42-6,1.28-11.71,7.36-15.67l.08-.05a64.54,64.54,0,0,1,10.3-5.33c1.16-.5,2.34-1,3.52-1.4l.33-.12h0c30.2-11,63.28.5,63.28.5,1,.43,1.95.88,2.86,1.34-12.74-19.92-33.57-67.78-33.57-67.78a86.23,86.23,0,0,0-4.08-8.56h0L401,377.14h0l-2.48-3.33a3,3,0,0,1-.33-.42l-.24-.3a2.89,2.89,0,0,1-.3-.85A3.68,3.68,0,0,1,399.08,368.32Zm103.7,176h-.62l.66.07Zm62.55-121.17c-2.83,8.52-7.41,19.78-12.93,24.17l.06.27c4-1.19,10.52-3.1,17.24-4.77,2.21-4.17,5-8.23,3.3-12.35C573,430.47,567.42,427.14,565.33,423.15ZM457.69,500.27c0-.36,0-.72.05-1.07l-.27.42Z"/><path class="cls-40" d="M500.75,442.84s4.69-9.46.3-16.33c0,0-2.11-8.34,2.95-10.51,0,0,6.87-4.39,11.43,7.76,0,0,3.18,18.41-8.21,22.47C507.22,446.23,499.16,447.09,500.75,442.84Z"/><path class="cls-41" d="M523.1,457.59s-4.67-5.62,6.77-12.95c0,0,15.76-9,20.65-1.38,0,0,7.11,9.43-4.76,12.73,0,0-12.23,1.91-17.3,4.08C528.46,460.07,523.67,461,523.1,457.59Z"/><path class="cls-42" d="M517.79,520.71s-2.17-5.06-4.4-6.86c0,0-5-1.1,1.86-5.5,0,0,9.71-8.37,15.73,6.07,0,0,3.36,8.61-7.26,12.19C523.72,526.61,517.67,527.25,517.79,520.71Z"/><path class="cls-43" d="M474.8,459.46s-5.81-12.42,3.72-11c0,0,10.56-.31,14.08,13.58,0,0,1,13.35-6.56,15,0,0-6.67.5-5.52-7.77A15.25,15.25,0,0,0,474.8,459.46Z"/><path class="cls-44" d="M540.12,454.76s-12-2-10-5.47c0,0,1.8-2.23,10.35-2.32,0,0,4.79-.92-1.68-4.31,0,0-4.41-.92-12.1,4.26,0,0-5.4,3.72-3.5,10,0,0,2.51,5,8.93,1.86C532.17,458.82,546.38,456.13,540.12,454.76Z"/><path class="cls-45" d="M510.74,439.13s-4.37-1.09-5.82-7.9c0,0-1.54-3.86-2.1.43,0,0,.9,6.59-2.21,11.81,0,0-1.24,3.17,2.75,2.65,0,0,3.57,1.13,7.6-2.14C511,444,514.5,440,510.74,439.13Z"/><path class="cls-46" d="M534.82,494.64s4.15-4.71,7.09-.13c0,0,2.16,5.07,4.45,3.6,0,0,4.52.34,4.46,3.6C550.82,501.71,539.85,505.31,534.82,494.64Z"/><path class="cls-47" d="M476.87,503.87a77.49,77.49,0,0,1-25.79,21.9l12.24,4s-3.48-2.08,19-20.77Z"/><path class="cls-48" d="M477,509.16s-8.16-7.7,0-11.82c0,0,6.32-1.9,11.7,6.5,0,0,4.46,3.6-2.9,7.24C485.79,511.08,480,513.73,477,509.16Z"/><path class="cls-49" d="M535.59,496.4S531.4,491.55,542,488c0,0,21.73-6.39,21.77,5.42,0,0-.12,6.54-13,8.31C550.82,501.71,540.47,504,535.59,496.4Z"/><path class="cls-50" d="M471.93,526.41s17.56-11.24,25-18.15c0,0,25.58-23.91,39.59-34,0,0,15.33-13,25.31-22.67,0,0,15.05-11.79,11.2-21.16,0,0-13.93-8.3-6-14.44,0,0,8.39-5.38,10.81,13.52,0,0,.16,5.29-1.92,8.77,0,0-2.07,3.48,4.09-3.7l4.58-2.93a17.53,17.53,0,0,0,5.4-6.69,11,11,0,0,1,11.39-4.06s5.22,3.11,3.64,7.35a7.84,7.84,0,0,1-7.15,5.65,4,4,0,0,1-4.24-1.58s-2-3.06-6.81,1.13c0,0-9.16,5.86-5.13,5.44,0,0,9.59-1.84,12.52,2.74,0,0,3.7,4.09-2.9,7.24,0,0-6.59,3.14-9.52-1.43,0,0-.65-6.05-2.94-4.58,0,0-9.15,5.86-12.76,10.32,0,0-15.1,15.06-27.32,22.88,0,0-13.24,9.56-21.7,18.2,0,0-18.5,21.54-33.21,28.81l-12.7,7Z"/><path class="cls-51" d="M568.8,444.62c2.22-4.8,6.13-9.44,4.2-14.15,0,0-13.93-8.3-6-14.44,0,0,8.39-5.38,10.81,13.52,0,0,.16,5.29-1.92,8.77,0,0-2.07,3.48,4.09-3.7l4.58-2.93a17.53,17.53,0,0,0,5.4-6.69,11,11,0,0,1,11.39-4.06s5.22,3.11,3.64,7.35a7.84,7.84,0,0,1-7.15,5.65,4,4,0,0,1-4.24-1.58s-2-3.06-6.81,1.13c0,0-9.16,5.86-5.13,5.44,0,0,9.59-1.84,12.52,2.74,0,0,3.7,4.09-2.9,7.24,0,0-6.59,3.14-9.52-1.43a15.11,15.11,0,0,0-.61-2.84c-.45-1.33,1.38-5.2.24-4.46a9.77,9.77,0,0,1-5.77-.61c-.88.68,1.73-8.15.88-7C575,434.45,573.09,439,572,444,571.45,446.53,567.14,448.21,568.8,444.62Z"/><g id="petal5-2" data-name="petal5"><path class="cls-52" d="M457.47,499.62S472.7,478,444.51,466c0,0-36-12.48-67.14,1,0,0-25.83,10.09-17.74,21a11.16,11.16,0,0,1,7.65,1s40.53,24.63,57.57,27.7c0,0,8.49,3.18,14.2,7,0,0,8.5,9.08,17.82,8.5s8.59-9.27,8.59-9.27Z"/><path class="cls-53" d="M369.36,485.56s-2.88-7.85,6.38-5.17c0,0,34.93,14.22,43.3,23.93,0,0,3.42,5.34-1.59,4.24,0,0-21.49-6.68-27.69-11.32,0,0-9.2-5.95-12.95-6.77C376.81,490.47,370.06,488.33,369.36,485.56Z"/><path class="cls-53" d="M461.43,484.17s-18.7-10.09-29.11-4.5c0,0-3.82,2.45,3.85,9.38,0,0,13.72,12.19,21.57,9.32,0,0,1.25.27,3.66-7.73A10.31,10.31,0,0,0,461.43,484.17Z"/><path class="cls-54" d="M381.22,465.44s4.71,7.35-4.66,11.2c0,0-13.52,4.09-16.32,2.24C360.24,478.88,362.17,472.67,381.22,465.44Z"/></g><g id="petal4-2" data-name="petal4"><path class="cls-52" d="M461.23,527.34s35.58,20.27,46.2,16.69c0,0,10.23,4.21,11.25,17.55,0,0,.49,27.67-18.43,45.17,0,0-18.93,17.5-26.71,17.11,0,0-6.4-.75-5-7a37.2,37.2,0,0,0-1-13.34s-5.21-45.1-8.57-53.71c0,0-6.09-17.08-4.51-21.33S461.23,527.34,461.23,527.34Z"/><path class="cls-55" d="M467.46,591.69s7.16,21.25,16.74,19.41c0,0,18-11,18.43-6.72,0,0-18.24,17-24,18.15,0,0-5.74,2.94-9.08-.64,0,0-2.17-1.82-.93-6.56,0,0,.54-7.52-1.14-11.82C467.5,603.51,464.59,583.84,467.46,591.69Z"/><path class="cls-56" d="M504,544.45s3,19.81-6.23,28.94c0,0-4.37,5-3,10.51,0,0,1.56,10.83-7.3.36,0,0-25.48-25.13-29.31-39.88,0,0-3.08-9.86-3.51-13.89s6.45-2.52,6.45-2.52S494.77,546.89,504,544.45Z"/></g></g><g id="topleftflower"><polygon class="cls-17" points="312.1 482.29 328.31 504.63 356.84 527.68 419.29 504.99 380.99 413.53 330.5 403.65 303.06 440.97 312.1 482.29"/><g id="petal6-3" data-name="petal6"><path class="cls-18" d="M398.55,288.4s-2.19,19.76,1.1,37.32c0,0,14.27,88.91,8.78,103.17l-11,14.27s-36.77-6-58.72-45.55c0,0-13.17-36.22,7.69-77.93,0,0,13.17-32.92,38.41-36.22C384.83,283.46,398,282.37,398.55,288.4Z"/><path class="cls-19" d="M378.25,424s-12.08-7.69-12.08-31.83c0,0,2.2-17.57-4.39-17.57,0,0-6.58-3.29-6.58,18.66,0,0,2.19,23,12.07,29.64C367.27,422.86,379.34,431.64,378.25,424Z"/><path class="cls-20" d="M395.81,379s6.58-58.17-3.29-69.14-20.86-17.57-31.84-4.39c0,0-25.24,43.9-16.46,63.66,0,0,4.39,6.58,8.78-4.39a150.26,150.26,0,0,0,2.2-23.05s4.39-15.37,6.58-3.3c0,0,3.3,31.83,8.78,31.83,0,0,5.49-3.29,5.49-13.17,0,0,2.2-11,4.39-4.39a70.46,70.46,0,0,1,1.1,26.34s-3.29,29.64,8.78,46.1h13.17S394.71,394.32,395.81,379Z"/><path class="cls-21" d="M360.91,297.1s21.73-9.25,28.31.63c0,0,5.92,15.62,9,16.59l-.14-19.78.36-5s.92-4.41-4.15-5.23C394.29,284.29,377.15,278,360.91,297.1Z"/></g><g id="petal3-3" data-name="petal3"><path class="cls-22" d="M326.66,537s-12.07,3.29-24.15,43.9c0,0-13.17,42.81,0,69.15,0,0,8.78,22,24.15,13.17,0,0,2.19-3.29,5.49-8.78,0,0,64.76-93.3,65.85-112l-16.46-13.18-34-4.39Z"/><path class="cls-23" d="M340.93,541.4s-13.17,16.46-8.78,25.24c0,0,3.29,2.2,9.88-8.78,0,0,9.87-15.36,15.36-16.46Z"/><path class="cls-24" d="M346.42,537s3.29-6.59,13.17-5.49c0,0,9.88,3.29-2.2,9.88H340.93A43.72,43.72,0,0,0,346.42,537Z"/><path class="cls-23" d="M362.88,541.4s-16.46,19.75-7.68,24.14c0,0,6.58-3.29,13.17-12.07,0,0,7.68-8.78,13.17-2.19,0,0,4.39,3.29,3.29,7.68,0,0-3.29,12.7,1.1,11.29,0,0,12.07-19,12.07-27.75Z"/><path class="cls-24" d="M381.54,532.62s-12.07,0-18.66,8.78l15,.12a10.22,10.22,0,0,1,5.45-4.45S385.93,533.71,381.54,532.62Z"/></g><g id="petal2-3" data-name="petal2"><path class="cls-22" d="M294.28,464s-44.16,11.89-50.07,19.12c0,0-32.25,17.1-44.32,25.88,0,0-35.12,19.76-24.15,58.17,0,0,2.2,2.2,5.49-2.19,0,0,5.49-6.59,22-4.39,0,0,34,8.78,88.91-7.69,0,0,54-21.95,61.57-28Z"/><path class="cls-25" d="M236.11,490.36s19.76,4.39,8.78,8.78c0,0-37.32,13.17-32.93,37.32,0,0,2.2,13.17,16.47,9.88,0,0,19.75-11,25.24-15.37,0,0,47.2-18.66,41.71-1.1,0,0-42.81,20.86-41.71,29.64,0,0,.72,3.74,22-2.25,0,0,35.94-8.18,53.87-20.25l.37-31.83-35.12-40.61a235.2,235.2,0,0,0-32.93,9.87C243.24,483.23,224,492.43,236.11,490.36Z"/><path class="cls-26" d="M293.73,479.93s-5.49,4.39-14.27,2.2c0,0-16.46-6.59-18.66,4.39,0,0-1.09,8.78,7.69,9.88,0,0,8.78,0,14.27-6.59,0,0,1.09-4.39,11-3.29Z"/><path class="cls-19" d="M291.54,478.84s-5.49,8.78,1.09,12.07c0,0,8.79,4.39,4.39,9.88,0,0-7.68,8.78,1.1,12.07a23.13,23.13,0,0,0,13.17,0l15.37-13.17-22.08-25Z"/></g><g id="petal1-3" data-name="petal1"><path class="cls-27" d="M347.71,411.1a42.3,42.3,0,0,1-8.43-9.64s-1.1-3.3-6.58-6.59c0,0-59.27-40.61-99.88-51.59,0,0-20.86-5.49-26.35,2.2,0,0-2.19,5.49-5.48,6.58,0,0-5.49,4.39-2.2,18.66,0,0,12.07,38.42,36.22,54.88,0,0,52.69,53.78,65.86,36.22Z"/><path class="cls-25" d="M260.8,357s18.66,9.88,7.69,12.08c0,0-9.88,5.48-4.39,5.48,0,0,5.48,4.39-3.3,4.39,0,0-22-9.87-24.14,0,0,0-4.39,15.37,7.68,27.44,0,0,14.27,12.08,6.59,16.47,0,0-7.5,5.84-.46,17.19,0,0,25.67,24.47,40,25l23.51-17.41,33.58-36.9s-8.78-6.58-8.78-9.87c0,0-.54-2.52-12.89-10.59C325.84,390.32,253.12,344.93,260.8,357Z"/><path class="cls-28" d="M312.39,434.93s-23.05-6.58-26.34-8.78c0,0-12.07-7.68-7.68,3.29,0,0,12.07,20.86,23.05,23.05l26.34-8.78S323.37,437.13,312.39,434.93Z"/><path class="cls-28" d="M319,406.39s-28.54-15.36-30.74,0c0,0-1.09,7.69,19.76,16.47,0,0,13.17,6.58,14.27,11l4.39-11Z"/><path class="cls-29" d="M288.23,367.67s-1.08,9.09,14.28,16.77c0,0,27.44,9.88,27.44,18.66,0,0-6.58,7.68-2.19,11l17.51-5.1s-5.44-4.78-6-7.52a22.77,22.77,0,0,0-4.65-5.3S297,371.76,288.23,367.67Z"/><path class="cls-53" d="M200.23,374.84s16.67,3,25.45-6.86c0,0,6.59-11,4.39-16.47,0,0-1.1-3.29,8.78,0,0,0,12.7,5.11,15.13-.73,0,0-21.19-9.56-33.53-9.35,0,0-7-.49-10.77,1.51l-2.38,1.59a8.08,8.08,0,0,0-1.79,2.91,17,17,0,0,1-3.47,4.11s-2.15.27-3,3.41C199.07,355,195.64,365.23,200.23,374.84Z"/></g><path class="cls-30" d="M343.62,405.54s13.58-.47,18.61,11.72h9.93s-6-20.74,1.7-19.65c0,0,3.29,0,3.29,9.88,0,0,1.1,18.66,7.68,24.15l6.59,1.1s-6.59-13.17,2.19-13.17c0,0,14.27,0,14.27,8.78,0,0,2.2,19.75,9.88,27.44l-4.39,11-66.95-39.51Z"/><path class="cls-31" d="M300.87,467.31s-14.27,6.59-6.59,9.88l8.78,5.49,17.56-3.3,3.3-7.68-13.18-8.78Z"/><path class="cls-32" d="M416.66,450.3l-9.16-2.82c-2.61-3.38-5.11-7.84-5.11-12.55,0-9.88-2.19,4.39-1.09,7.68s-6.59-3.29-6.59-3.29-1.1-5.49-5.49-5.49-8.53-8.7-8.53-8.7-5.24-2-7.13-7.08S364,420,364,420s-3.3-7-8.78-5.92a26.29,26.29,0,0,0-8.78,3.29s-11.81,3.18-5.91,10.92c0,0,11.39,14.32,16.88,14.32,0,0,4.39-1.09,5.49-2.19l10.19,12s3,4.5-8,.11c0,0-15.37-6.58-18.66-11,0,0-5.49-11-11-11,0,0-12.07-2.19-12.62,3.84,0,0-4.39,19.76,9.88,21.95,0,0,12.07-1.09,14.27,4.39,0,0,4.39,4.4,7.68,5.49,0,0,6.58,4.39-11,0,0,0-25.24-8.78-32.93-9.88,0,0-9.87,8.79,2.2,14.27,0,0,12.07,3.3,1.1,6.59,0,0-9.88,1.1-7.69,4.39l46.37,5.06s-.27,8.11,6.32,9.21c0,0,4.39,3.29-5.49,0,0,0-8.78-3.29-17.56-2.2,0,0-4.39.27-4.94-7.55l-8.23-1.23s-5.58,10.65,1.05,15.76l-1.05,4s-2.2-9.88-8.78-8.78c0,0-9.88,3.29-5.49,9.88L320.62,509h17.22s9.13,1.1,13.52-1.1c0,0,5.48-3.29,8.78,0,0,0,27.44-3.29,34.57,1.65,0,0-19.76,1.1-25.24,0,0,0-29.64,0-40.62,3.29,0,0-12.07,14.27-6.58,20.85,0,0,3.17,3.3,8.17,0l10.49-2.19a24.89,24.89,0,0,0,12.07,1.1s7.68-3.3,11,1.09l-4.39,4.4s0,3.29,11,1.09c0,0,4.39-6.58,9.88-6.58l15.37,7.68s7.68-1.1,7.68-8.78c0,0,8.78-5.49,8.78-11l18.94-50.2S417.76,454.69,416.66,450.3Z"/><path class="cls-33" d="M433.13,472.25s-19.76-20.85-30.74-15.37c0,0-2.19,5.49,5.49,9.88,0,0,5.49,4.39-9.88,3.29,0,0-18.66,0-28.53-5.48,0,0-8.79-3.3-5.49,2.19,0,0,6.58,8.78,13.17,8.78,0,0,37.32,13.17,23.05,14.27,0,0-25.25-5.49-24.15,1.1,0,0,6.59,12.07,18.66,12.07,0,0,13.17,2.2-14.27,5.49,0,0,27.44,9.88,28.54,23l24.15-27.44Z"/><path class="cls-34" d="M386.93,535.86s-12,2.25-9.78,6.64a4.83,4.83,0,0,0,3.29,1.09s2.2,0,2.2,3.3c0,0,0,3.29,6.58,2.19,0,0,6.59-1.1,7.69-5.49,0,0-4.39-6.58-1.1-11,0,0,10.89-6.88,13.68-6.19,0,0,2.78-2.59,2.78-5.89,0,0-12.07,5.49-19.75,4.39,0,0-8.79,2.2-8.79,5.49,0,0,3.3,1.1,8.79-2.19,0,0,6.58-2.2,3.29,0,0,0-6.59,3.29-6.59,5.48Z"/><path class="cls-50" d="M423.25,493.1s-25.25,0-37.32-2.19c0,0-41.71-7.68-62.56-8.78,0,0-24.15-3.29-40.61-6.59,0,0-23.05-2.19-25.25-14.27,0,0,8.78-17.56-3.29-18.66,0,0-12.07,0-2.2,20.86,0,0,3.3,5.49,7.69,7.68,0,0,4.39,2.2-6.59-1.1h-6.58a21.17,21.17,0,0,1-9.88-3.29,13.38,13.38,0,0,0-14.27,3.29s-3.29,6.59,1.1,9.88c0,0,4.39,4.39,11,1.1,0,0,3.29-1.1,3.29-4.39,0,0,0-4.39,7.69-3.29,0,0,13.17,0,8.78,2.19,0,0-11,4.39-11,11,0,0-1.09,6.58,7.69,5.49,0,0,8.78-1.1,8.78-7.69,0,0-3.3-6.58,0-6.58,0,0,13.17,0,19.75,2.19,0,0,25.25,5.49,42.81,5.49,0,0,19.76,1.1,34,4.39,0,0,32.93,9.88,52.69,7.68l17.56-1.09Z"/><path class="cls-51" d="M271,473c-5.39-3.44-12.42-5.62-13.52-11.69,0,0,8.78-17.56-3.29-18.66,0,0-12.07,0-2.2,20.86,0,0,3.3,5.49,7.69,7.68,0,0,4.39,2.2-6.59-1.1h-6.58a21.17,21.17,0,0,1-9.88-3.29,13.38,13.38,0,0,0-14.27,3.29s-3.29,6.59,1.1,9.88c0,0,4.39,4.39,11,1.1,0,0,3.29-1.1,3.29-4.39,0,0,0-4.39,7.69-3.29,0,0,13.17,0,8.78,2.19,0,0-11,4.39-11,11,0,0-1.09,6.58,7.69,5.49,0,0,8.78-1.1,8.78-7.69a18.13,18.13,0,0,1-1.24-3.29c-.41-1.65-4.8-4.39-3.15-4.39a11.8,11.8,0,0,0,5.48-4.39c1.34.12-7.09-7.17-5.48-6.59,2.71,1,7.7,4.41,12.07,8.78C269.58,476.64,275.07,475.54,271,473Z"/><path class="cls-35" d="M325.56,512.86s5.49,16.46,15.37,18.66L333.25,537s-12.08-13.17-12.08-20.86Z"/><path class="cls-49" d="M338.73,504.08s1.1-7.68-12.07-4.39c0,0-26.34,7.68-18.66,19.76,0,0,4.39,6.58,18.66,0C326.66,519.45,338.73,515.06,338.73,504.08Z"/><path class="cls-47" d="M403.49,473.35a93.94,93.94,0,0,0,40.61,5.49l-9.88,12.07s2.2-4.39-32.92-8.78Z"/><path class="cls-48" d="M406.78,478.84s3.3-13.18-7.68-12.08c0,0-7.68,2.2-7.68,14.27,0,0-2.2,6.59,7.68,5.49C399.1,486.52,406.78,485.42,406.78,478.84Z"/><path class="cls-46" d="M338.37,501.78s-7.32-2.09-7.32,4.49c0,0,1.1,6.59-2.2,6.59,0,0-4.39,3.29-2.19,6.59C326.66,519.45,340.19,516,338.37,501.78Z"/><path class="cls-34" d="M342,528.23s-14.27,6.58-15.37,9.88c0,0,0,2.19,4.39,1.09,0,0,6.59-2.19,9.88-1.09,0,0,3.29,1.09,4.39-3.3,0,0-1.1-4.39,1.1-6.58,0,0,6.58-3.3,5.48-5.49Z"/><path class="cls-36" d="M402.39,543.59s-19.75-20.85-32.92-28.53l2.93,10.17s17.92,21.66,26.7,22.75Z"/><path class="cls-37" d="M410.08,427.25s-38.42,5.49-46.1,2.19l9.88,6.59s31.83-4.39,36.22,6.58l3.29-5.48Z"/><path class="cls-38" d="M323.37,411.88s24.14-4.39,29.63,7.69c0,0,7.68,7.68,11,7.68l-3.3,6.58s-11-11-14.26-13.17c0,0-4.39-4.39-17.57-1.09Z"/><path class="cls-40" d="M339.28,426.7s-11-6.59-11-16.46c0,0-3.3-9.88-9.88-8.78,0,0-9.88,0-6.59,15.36,0,0,8.78,20.86,23.05,17.56C334.89,434.38,343.67,430,339.28,426.7Z"/><path class="cls-41" d="M326.11,456.33s1.1-8.78-15.37-8.78c0,0-21.95,1.1-21.95,12.08,0,0-1.09,14.27,13.17,9.88,0,0,13.72-6,20.31-7.14C322.27,462.37,327.76,460.18,326.11,456.33Z"/><path class="cls-42" d="M372.76,517.25s-1.1-6.58,0-9.88c0,0,4.39-4.39-5.49-4.39,0,0-15.37-2.19-12.07,16.47,0,0,2.19,11,15.36,7.68C370.56,527.13,377.15,523.84,372.76,517.25Z"/><path class="cls-43" d="M376.6,426.7s-2.2-16.46-11-8.78c0,0-11,6.58-5.48,23.05,0,0,7.68,14.27,16.46,11,0,0,7.13-3.84.55-11.52A18.49,18.49,0,0,1,376.6,426.7Z"/><path class="cls-44" d="M306.9,464.57s11-9.88,6.59-12.08c0,0-3.29-1.09-12.07,4.39,0,0-5.49,2.2-1.1-5.48,0,0,3.89-3.83,15.11-3.56,0,0,7.94.26,10.13,8,0,0,.68,6.69-7.89,7.73C317.67,463.52,301.42,470.05,306.9,464.57Z"/><path class="cls-45" d="M326.66,429.44s3.75-4,.78-11.86c0,0-1-4.94,2.42-.93,0,0,3.39,7.31,10,10.6,0,0,3.34,2.43-1.07,4.5,0,0-2.91,3.49-9.15,2.79C329.61,434.54,323.37,432.74,326.66,429.44Z"/><g id="petal5-3" data-name="petal5"><path class="cls-52" d="M420.5,456.33s-29.63-12.07-8.78-42.8c0,0,28.54-36.22,69.15-42.81,0,0,32.93-6.58,31.83,9.88,0,0-4.94,1.65-7.13,6,0,0-25.25,51.58-40.61,65.85,0,0-6.59,8.78-9.88,16.47,0,0-2.75,14.81-12.62,20.3s-14.82-3.84-14.82-3.84Z"/><path class="cls-53" d="M501.18,384.44s-2.2-9.88-9.88-1.1c0,0-26.34,37.32-28.54,52.69,0,0,0,7.68,4.39,3.29,0,0,17.56-20.85,20.86-29.63,0,0,5.48-12.08,8.78-15.37C496.79,394.32,502.27,387.74,501.18,384.44Z"/><path class="cls-53" d="M406.37,443.16s12.49-22.5,26.76-23.59c0,0,5.48,0,2.19,12.07,0,0-6,21.4-15.91,23.6,0,0-1.1,1.09-8.78-5.49A12.48,12.48,0,0,1,406.37,443.16Z"/><path class="cls-54" d="M475.94,371.68s0,10.57,12.07,8.37c0,0,16.46-4.66,18.11-8.37C506.12,371.68,500.09,366.61,475.94,371.68Z"/></g><g id="petal4-3" data-name="petal4"><path class="cls-52" d="M434.77,487.07s-23,43.9-36.22,47.19c0,0-7.68,11,0,25.25,0,0,17.56,28.54,48.3,34,0,0,30.73,5.49,38.41,0,0,0,6-4.94.55-10.42,0,0-5.49-6.59-7.68-14.27,0,0-24.15-49.39-26.35-60.37,0,0-4.93-21.4-9.32-24.7S434.77,487.07,434.77,487.07Z"/><path class="cls-55" d="M470.44,556.76s6.59,26.35-4.39,30.74c0,0-25.51.48-23.18,5.18,0,0,29.68,5.38,36.31,2.84,0,0,7.77-.75,8.85-6.58,0,0,1-3.27-3.34-7.3,0,0-5.47-7.31-6.56-12.8C478.13,568.84,468.25,546.89,470.44,556.76Z"/><path class="cls-56" d="M402.37,532.41s9.9,22.16,25.27,25.45c0,0,7.68,2.2,9.88,8.78,0,0,5.48,12.08,7.68-4.39,0,0,9.57-42.27,3.84-59.82,0,0-3.29-12.07-5.49-16.46s-8.23,1.65-8.23,1.65S413.33,528.91,402.37,532.41Z"/></g></g></g></svg>