<svg xmlns="http://www.w3.org/2000/svg" viewBox="0 0 864 864"><defs><style>.cls-1{fill:#808d62;}.cls-2{fill:none;stroke:#9c566a;stroke-miterlimit:10;stroke-width:2px;}.cls-3{fill:#b69ab6;}.cls-4{fill:#8d4f5d;}.cls-5{fill:#aa8983;}.cls-6{fill:#b292ab;}.cls-7{fill:#daceeb;}.cls-8{fill:#dad7e7;}.cls-9{fill:#d0cfd6;}.cls-10{fill:#a88c98;}.cls-11{fill:#813049;}.cls-12{fill:#722a36;}.cls-13{fill:#47111d;}.cls-14{fill:#bdbed1;}.cls-15{fill:#b4afc9;}.cls-16{fill:#9c566a;}.cls-17{fill:#ead9f4;}.cls-18{fill:#d0afe2;}.cls-19{fill:#dcc5e6;}.cls-20{fill:#dc6bb3;}.cls-21{fill:#95335e;}.cls-22{fill:#7b1b3a;}.cls-23{fill:#6d1937;}.cls-24{fill:#d3cae0;}.cls-25{fill:#973c60;}.cls-26{fill:#4e0c1f;}.cls-27{fill:#d8dcf5;}.cls-28{fill:#a9978e;}.cls-29{fill:#cfd1d4;}.cls-30{fill:#ab9f9c;}.cls-31{fill:#bab8bc;}.cls-32{fill:#d6d5e7;}.cls-33{fill:#b08ca5;}.cls-34{fill:#8f385a;}.cls-35{fill:#5d162b;}.cls-36{fill:#6c524f;}.cls-37{fill:#f1d9e0;opacity:0.59;}.cls-38{fill:#541c1a;}.cls-39{fill:#a28f9d;}.cls-40{fill:#bfb0bd;}.cls-41{fill:#cbc6cc;}.cls-42{fill:#604b4c;}.cls-43{fill:#968280;}.cls-44{fill:#a49592;}.cls-45{fill:#b092b0;}.cls-46{fill:#c4b9ca;}.cls-47{fill:#d6cce8;}.cls-48{fill:#e7e2f0;}</style></defs><title>rubiaceae</title><g id="p_crudd_flower"><circle class="cls-1" cx="432" cy="430" r="432"/><path class="cls-2" d="M567.87,404.94s-47.44,49.51-50.67,78.6c0,0-19.39,51.72-58.18,67.88"/><path class="cls-2" d="M549.52,441.52s-12.93,12.93-12.93,22.63c0,0-6.46,19.39-19.39,19.39S526.9,448,526.9,448"/><path class="cls-3" d="M374.29,211.44s13.39,46.29,25.43,38.21l7.15-21.06Z"/><path class="cls-4" d="M367.46,126.44s20.22-6.85,23.84-11.76l-10.08,31.66-15.49-1.85Z"/><path class="cls-5" d="M388.79,143.42s-2.09,10.37,6.19,22.82c0,0,14.29,31.11,7.83,57.89,0,0-6.67,22.09-10.08,4.05L366.68,165s5.78-41.35,18.59-41.95c0,0,17.46-11.08,13.12,6C393.55,135.5,388.31,133.17,388.79,143.42Z"/><path class="cls-6" d="M370.26,131.45s.71,15.37,8.64,20.13c0,0,10,13.56,10,59.18l-35.4-52.86s-13-4.53-15.26,3.28c0,0-10.36-2.09,4.41-15.61C342.67,145.57,364.78,124,370.26,131.45Z"/><path class="cls-7" d="M352.18,156.68s7.92,4.76,11.43,25.14c0,0,20.8,60.65,26,63,0,0,7.93,4.76,1.37-25.74,0,0-17.49-72.36-27.73-71.89C363.29,147.17,345.35,148,352.18,156.68Z"/><path class="cls-8" d="M325.93,172s-8.76-22.7,16.74-26.45c0,0-3.16-12.69,7.09-13.17,0,0,10-5.6,9.89-8.16,0,0,14.78-13.53,15.25-3.28,0,0,.36,7.69-12.21,13.41,0,0-4.65,10.48-12.33,10.84,0,0-7,7.16-12.41,5.28,0,0-7.61,5.92.31,10.69,0,0,5.25,2.32-2,12.93C336.3,174.11,329,182.15,325.93,172Z"/><path class="cls-9" d="M377.82,128.53s6.74-20.86,32.71-14.36c0,0,2.69,2.44-4.76,7.92,0,0-12.34,10.85-12.22,13.41,0,0-7.68.35,2.09-10.37,0,0-.36-7.69-7.69.36C388,125.49,380.74,136.09,377.82,128.53Z"/><path class="cls-10" d="M483.14,100.84s15-21.32-3.65-27.57c0,0-18.46-13.47,21.67.54,0,0,30.5,8.89,10.34,27.46l21.32,37s12.57,17.67-3.58,27.39c0,0-5.89,4.19-11.41-6.07,0,0-1.34-4.37-16.15,9.72L482.24,137Z"/><path class="cls-11" d="M503.37,159.18s10.44-12.76,21.86-6.69c0,0,18.82-1,7.59-14.27,0,0-9.36-30.6-15.07-33.63,0,0-9.54-23.37-19.62-25.07,0,0,1.16,11.6-12.32,30.06C485.81,109.58,484.91,145.7,503.37,159.18Z"/><path class="cls-12" d="M508.77,145.58s9.11-17.13,23.38-9.54c0,0-32.43-4.43-14.4-31.45,0,0-16,2.49-14.27-7.59,0,0-8.74,2.68-12.14,22.84C491.34,119.84,480.72,139.82,508.77,145.58Z"/><path class="cls-13" d="M499.54,138.84s8.75-2.67,4.73-15.79c0,0-7.27-11.19-12.29-6.53l-1.55,17.28Z"/><path class="cls-14" d="M474,266.17s44.79-56.72,27.23-106.32c0,0-46.21-2.6-52.45,16,0,0,17.79,11.29,11,51.61C459.74,227.5,457.14,273.7,474,266.17Z"/><path class="cls-15" d="M470.62,255.24s21.42-47.18,16.25-71.89c0,0,7.94-28.72,16.5-24.17,0,0,13.2,50.93-27.22,106.32,0,0-20.52,11.06-12.22-32.12,0,0,7.15-54.76,15.71-50.21,0,0,2.86,1.52-1.88,17.3C477.76,200.47,458.66,270.85,470.62,255.24Z"/><path class="cls-2" d="M343.12,410s-23.81,32.2-18.31,42.23c0,0-33.12-37.61-48.63-42.14"/><path class="cls-16" d="M278.8,402.74s37.1,34.4,42.78,49.53c0,0,44.16,54,56.86,92.75s61.19,45.19,61.19,45.19l-48.49,42s22.63,38.79,25.86,84V810s-3.23,22.62,6.46,25.86c0,0,9.7,6.46,12.93-38.79,0,0-3.23-80.81-3.23-106.67l45.74-51.51s-42.51-81-42.51-152.12S429.93,351,433.16,341.32c0,0-6.46-16.16,45.25-32.32H446.09s-16.16,6.46-19.39,19.39c0,0-9.7,12.93-9.7-19.39,0,0,0-51.72-6.46-58.18l-12.93,3.23s16.16,22.63,6.46,64.65c0,19.39,19.39,38.78,19.39,45.25s-7.3,35-7.3,35S434,486.71,419,553s-34.36-37.14-34.36-37.14-11.49-7.77-25.86-25.85c-12-15.07-26.08-40.22-36.11-46.84C322.71,443.17,318.38,444.76,278.8,402.74Z"/><path class="cls-17" d="M407.21,285.07s2.45,21.28-10.75,23.08l-25.81-3.59s-11.4-2.4-6-15c0,0,4.2-15.6,16.21-20.41Z"/><path class="cls-18" d="M376,222.33s-38.75,4.65-38,16.73l22.66,28.87,23.13-17.4Z"/><path class="cls-17" d="M371.28,276.63s-6-11.69-15-8.08c0,0-12,4.8-13.81-8.4,0,0-9.61-24-.61-27.61,0,0,13.81,8.4,19.82,23.4C361.64,255.94,386.92,277.52,371.28,276.63Z"/><path class="cls-19" d="M379.64,231.33S369.42,197.12,391,181.51c0,0,6-2.4,8.4,3.6,0,0,4.81,12,12.61,5.4,0,0,22.2-5.41,16.21,14.4C428.25,204.91,406.65,255.33,379.64,231.33Z"/><path class="cls-18" d="M446.26,249.92s34.21-27.62,19.2-39c0,0-10.2.6-13.81-8.4,0,0-7.8-10.8-23.4,2.41,0,0-12.87,17.9-14.53,27.86l16.34,20.15A16.23,16.23,0,0,0,446.26,249.92Z"/><path class="cls-17" d="M445.68,309.34s-25.81-3.6-34.22-24.6l42-16.82,7.65,5.64S458.28,314.74,445.68,309.34Z"/><path class="cls-19" d="M458.28,279.93s8.4-13.81,0-17.41l-16.81-7.2-30,29.42S443.87,296.14,458.28,279.93Z"/><path class="cls-20" d="M431.87,283.53s23.4-2.4,12.6-12c0,0-4.61-8.61-1.41-15.11,0,0-4-7.1-8.2-8.9,0,0,4.2-15.61,13.2-19.21,0,0,4.8-5.4-8.4-3.6,0,0-13.21,1.81-15.61-4.2s-11.41-2.39-11.41-2.39-7.2-.6-4.8-12c0,0,1.2-14.4-13.2,1.81,0,0-13.2,19.21-18.61,14.41,0,0-5.4,12.6-11.4,15,0,0-21.6,15.61-.59,24.61,0,0,8.4,3.6,10.8,9.6,0,0,.61,27.61,9.61,24,0,0,4.21,1.8,15-6,0,0,4.8-5.4,12-4.8C411.46,284.74,425.87,285.94,431.87,283.53Z"/><path class="cls-21" d="M411.46,284.74s10.2-.6,11.4-15c0,0,6.6-9.6,16.8-10.21,0,0,9-3.6-4.8-12,0,0-19.66-8-17.64-23.52,0,0-20.78,14.53-34.58,6.13,0,0-9,3.6-6,19.81,0,0,4.8,12,0,17.4,0,0,3.61,9,12.61,5.4,0,0,10.2-.6,13.81,8.4C403.06,281.14,405.46,287.14,411.46,284.74Z"/><path class="cls-22" d="M407.56,270.64s-3-16.21,24.6-16.82c0,0-33-4.19-11.41-37.21,0,0-14.4,33.62-24,27,0,0-13.81-8.4-16.21-14.4,0,0,21,26.4-6,37.21C374.54,266.44,405.45,252.33,407.56,270.64Z"/><path class="cls-3" d="M299.16,350.91s-1.65,47.15-15,42.36L272.33,375Z"/><path class="cls-4" d="M285.34,268.57s-20.84-1.67-25.45-5.47L277,290.75l14.27-5.45Z"/><path class="cls-5" d="M269.15,289.79s4.45,9.34-.44,23.15c0,0-6.12,32.95,6.4,56.83,0,0,11.62,19.38,10.55,1.44L295.29,305s-15.37-37.88-27.68-35.39c0,0-19.22-6.35-11,8.85C262.73,283.4,267.15,280,269.15,289.79Z"/><path class="cls-6" d="M283.88,274s3,14.77-3.39,21.19c0,0-6.29,15.26,4.62,58.58l21-58.65s11.3-7.42,15.26-.54c0,0,9.35-4.45-7.92-13.76C313.44,280.81,287.3,265.61,283.88,274Z"/><path class="cls-7" d="M307.08,293.63s-6.39,6.42-4.86,26.6c0,0-5.25,62.56-9.67,66,0,0-6.39,6.42-7.45-24.11,0,0-.69-72.88,9.16-74.88C294.26,287.26,311.48,283.77,307.08,293.63Z"/><path class="cls-8" d="M335.66,301.92s2.89-23.64-22.22-21.11c0,0,0-12.81-9.87-10.81,0,0-10.85-2.93-11.35-5.39,0,0-17.26-9.31-15.26.53,0,0,1.5,7.39,14.8,9.81,0,0,6.92,8.85,14.3,7.35,0,0,8.37,5.13,13.05,2.05,0,0,8.64,3.81,2.25,10.22,0,0-4.42,3.46,5,11.81C326.32,306.38,335.2,312.27,335.66,301.92Z"/><path class="cls-9" d="M276,273s-11.38-18.19-34.49-5.82c0,0-2,3,6.42,6.38,0,0,14.3,7.35,14.8,9.81,0,0,7.38-1.49-4.46-9.34,0,0-1.5-7.38,7.38-1.5C265.65,272.56,275,280.91,276,273Z"/><path class="cls-23" d="M486.49,354.47s-3.13-26.67-11.7-3.72L453.07,330.1s11.62-6.71,0-6.44l9.07-34.87,32.3-2.59,13.43,28.06Z"/><path class="cls-24" d="M499.16,270.41s-9.54-23.37-28.54-15.17c0,0-19.93,9.95-2.71,32.63l26.4-2.22S503.35,276.3,499.16,270.41Z"/><path class="cls-24" d="M503.79,316.8s32.11-12.22,26.58-22.48c0,0-8.56-4.55-11-20.51,0,0-.17-10.94-21.36,7C498,280.82,485.14,310.55,503.79,316.8Z"/><path class="cls-24" d="M483.54,345.06s1.68,20.44,19.17,15.09c0,0,5.88-4.19,11.95-15.61,0,0,4.55-8.56,8.92-9.9,0,0,13.12-4-6.86-14.63,0,0-19.77-8.71-28-4.8"/><path class="cls-24" d="M442.05,357.19s37.4,6.85,36.63-20L468,324.46s-18,4-22.53,12.57C445.44,337,430.45,358.35,442.05,357.19Z"/><path class="cls-24" d="M462.84,321.07s-8.47,6.06-27.12-.18c0,0-5.7-3-6.86-14.64,0,0-12.75-10.43.36-14.45,0,0,30.21-10.17,47.44,2.95Z"/><path class="cls-25" d="M459.41,328s13.11-4,16.14-9.72c0,0,7.23.18,2.32,23.2,0,0-16.33,16.94-20.34,3.83C457.53,345.29,452.67,337.21,459.41,328Z"/><path class="cls-25" d="M487.1,348.19s13.29-11.23,16.15-9.72c0,0,11.59-1.15,4.55-8.56,0,0-2.68-8.74-14.09-14.81,0,0-8.57-4.55-7.59,14.27C486.12,329.37,479.69,355.24,487.1,348.19Z"/><path class="cls-25" d="M491.21,299.13s3.83,20.34,18.46,13.48c0,0,4.38-1.34,4.56-8.57,0,0,1.69-10.08,4.55-8.56,0,0,7.4-7-7-7.4C511.73,288.08,488.72,283.16,491.21,299.13Z"/><path class="cls-25" d="M457.76,307s-4.91,23,8.38,11.78c0,0,10.26-5.53,4.73-15.79C470.87,303,462.31,298.41,457.76,307Z"/><path class="cls-25" d="M481.13,297.44s-17.12-9.11-11.23-13.3c0,0,10.26-5.53,13.29-11.23,0,0,5.89-4.2,5.71,3,0,0,1.34,4.37,4.19,5.89,0,0,5.71,3-6.07,11.41C487,293.24,488.36,297.62,481.13,297.44Z"/><path class="cls-26" d="M472.35,311.58s-12.71-21.91,3.08-17.18c0,0,4.19,5.89,11.59-1.16,0,0,6.7-3.42,6.6,12.83,0,0,1.6,6.18-2.95,14.74,0,0-4.55,8.56-7.22-.18,0,0-13.3,11.23-12.94-3.22Z"/><path class="cls-27" d="M417.69,167.1s-14.67,15.61-24.57,6.68l-13.91-22s-5.53-10.26,7.58-14.27c0,0,14.63-6.87,26-.8Z"/><path class="cls-28" d="M445.5,102.79s-28.57-26.6-37.3-18.21l-7.43,35.94L429,127Z"/><path class="cls-29" d="M400.94,134.21s5-12.16-3.53-16.71c0,0-11.41-6.07-2.49-16,0,0,12.14-22.83,20.7-18.28,0,0,2.49,16-5.09,30.24C410.53,113.49,410.36,146.73,400.94,134.21Z"/><path class="cls-30" d="M440.94,111.35s19.55-29.88,45.41-23.45c0,0,5.71,3,2.68,8.74,0,0-6.07,11.42,4,13.12,0,0,18.46,13.47-.54,21.67C492.5,131.43,440,147.48,440.94,111.35Z"/><path class="cls-31" d="M469.74,174.25s43.17,8.3,42.2-10.52c0,0-7.05-7.41-2.5-16,0,0,3.22-12.93-16.94-16.33,0,0-22,1.73-30.66,6.88L457,163.81A16.23,16.23,0,0,0,469.74,174.25Z"/><path class="cls-32" d="M424,212.15s-13.91-22-3.29-42l40,21.24.63,9.49S428,225.26,424,212.15Z"/><path class="cls-33" d="M454.57,202.79s16-2.5,13.3-11.24l-5.35-17.48-41.84-3.94S432.9,202.25,454.57,202.79Z"/><path class="cls-34" d="M434.77,184.94s17,16.33,17.31,1.88c0,0,3.6-9.07,10.63-10.82,0,0,2.84-7.64,1.5-12,0,0,14.63-6.87,23.2-2.32,0,0,7.22.18-2.68-8.74,0,0-9.9-8.92-6.86-14.63S472.34,128,472.34,128s-4.19-5.89,6.07-11.42c0,0,11.77-8.38-9.9-8.92,0,0-23.19,2.32-23-4.91,0,0-13.12,4-18.83,1,0,0-25.86-6.43-19.18,15.42,0,0,2.68,8.75-.36,14.46,0,0-20.7,18.28-12.13,22.83,0,0,1.33,4.37,14.27,7.58,0,0,7.22.18,11.41,6.07C420.68,170.13,429.07,181.91,434.77,184.94Z"/><path class="cls-35" d="M420.68,170.13s7.05,7.41,18.82-1c0,0,11.6-1.15,18.65,6.25,0,0,8.56,4.55,6.06-11.41,0,0-6.55-20.21,6.59-28.66,0,0-24.51-6.49-27-22.46,0,0-8.56-4.55-19,8.2,0,0-6.07,11.42-13.3,11.24,0,0-4.55,8.56,4,13.11,0,0,7.05,7.41,2.5,16C418,161.39,415,167.1,420.68,170.13Z"/><path class="cls-13" d="M428.94,158.05s10.44-12.76,28.72,7.94c0,0-18.1-27.92,21.06-32.73,0,0-35,10.7-36.13-.9,0,0-2.49-16,.54-21.68,0,0-6.61,33.1-32.3,19.44C410.83,130.12,441.56,144.62,428.94,158.05Z"/><path class="cls-36" d="M335.75,421.05s42-26.12,35.16-44.28c0,0-8.71-14-21.57-2.25,0,0-23.25,34.62-21,40.67C328.37,415.19,330.64,421.25,335.75,421.05Z"/><path class="cls-37" d="M352.56,378.49s8.32,3.77,3.41,9.07c0,0-22.3,32.55-18.14,34.44,0,0,34.59-25,32.79-35.58,0,0,3.4-15.81-9.6-17.92C361,368.5,349.15,369.41,352.56,378.49Z"/><path class="cls-38" d="M328.37,415.19s-10.22.39-6.81,9.47c0,0,3.41,9.07,12.49,5.66,0,0,4.92-5.3,1.7-9.27C335.75,421.05,326.48,419.36,328.37,415.19Z"/><path class="cls-39" d="M252.88,393.48,206,369.68s-18.54-3.4-20,11c0,0,.38,10.21,14,18.91l56.76,13.21S276,409,252.88,393.48Z"/><path class="cls-40" d="M237.56,394.06s15.52,4.53,13.63,8.69c0,0,2.27,6.06-22.71-5.28,0,0-21.94-12.47-23.83-8.31,0,0-2.08,6,13.72,14.7,0,0-23.39-3.15-29.53-15.16,0,0-8.39-17,9.94-19.24,0,0,8.36-.63,17.7,5.56L248,391s3.91,4.55-25.23-8.68c0,0-8.32-3.78-6.05,2.27C216.75,384.61,217.89,387.64,237.56,394.06Z"/><path class="cls-41" d="M209.18,373.65s-2.64,11.35-14,8.71c0,0-10.17-.74-7.36-6.42,0,0,4.7-9.85,18.13-6.26C206,369.68,212.2,372.51,209.18,373.65Z"/><path class="cls-38" d="M277.11,412s-8.7,13.62-21.57-2.26a3.16,3.16,0,0,1,1.89-4.16s3-2.14-.75-7.12c0,0-.77-6.12,10.58-3.48C267.26,395,280.88,403.68,277.11,412Z"/><path class="cls-42" d="M255.51,354.52s-21.21-47.28-39-30.25c0,0-11.72,14.77,14.77,39.34,0,0,43.72,47.45,55.07,50.1C286.37,413.71,300.75,415.21,255.51,354.52Z"/><path class="cls-43" d="M259.11,368.7s9.85,17-11.35-2.64c0,0-14.39-29.12-20.06-16.63,0,0,4.3,17,7.64,18.5,0,0-23.78-20.44-21.39-34.6,0,0-.49-17.19,18.54-10.2C232.49,323.13,255.32,349.41,259.11,368.7Z"/><path class="cls-44" d="M232.23,333.91s-13.57-4.48-16.62,8.36c0,0-8-15.5,4.49-20.63,0,0,12.39-4.31,20.21,11.36C240.31,333,244.72,339.58,232.23,333.91Z"/><path class="cls-45" d="M313.05,415.77s-29.19-96.07-53.39-87c0,0-18.16,6.82-4.15,25.73,0,0,43.35,64.85,47.51,66.74C303,421.26,314.37,423.9,313.05,415.77Z"/><path class="cls-46" d="M293.55,386.84s-15.15-21.93-12.49-5.67l-22.33-22.68,7.55-16.65,18.93,13.61Z"/><path class="cls-47" d="M303.16,387.4s1.37,19.49-9.61-.56c0,0-15.92-42.36-28-37.81,0,0-4.91,5.3,13.26,26.09,0,0,11.37,23.9.2,15.74l-25.56-37.29s-9.85-17,6.23-24.78C259.66,328.79,278.76,319.89,303.16,387.4Z"/><path class="cls-48" d="M292,373.6s.38,10.22-9.46-6.8c0,0-11-20.05-17-17.77,0,0-23.31-14.4-3-20.83C262.57,328.2,287.46,333.88,292,373.6Z"/><path class="cls-38" d="M317.21,417.66s5.68,15.13-4.53,15.51c0,0-13.24,1.52-14.76-11.72,0,0,.75-7.18,11-7.57C308.88,413.88,316.07,414.63,317.21,417.66Z"/><path class="cls-36" d="M517.21,449.47s-48.15-11.27-47.52-30.66c0,0,3.76-16,19.7-9.06,0,0,33.13,25.34,32.92,31.8C522.31,441.55,522.1,448,517.21,449.47Z"/><path class="cls-37" d="M487.62,414.55s-6.67,6.25-.32,9.69c0,0,31.57,23.66,28.24,26.79,0,0-40.79-12.56-42.48-23.17,0,0-8.3-13.88,3.34-20.06C476.4,407.8,487.93,404.86,487.62,414.55Z"/><path class="cls-38" d="M522.31,441.55s9.8-2.92,9.49,6.77c0,0-.32,9.69-10,9.38,0,0-6.36-3.44-4.58-8.23C517.21,449.47,525.44,444.88,522.31,441.55Z"/><path class="cls-39" d="M576,387.15l36.8-37.61s16.47-9.17,22.51,4c0,0,2.91,9.8-7.2,22.4l-49.51,30.73S559.14,409.23,576,387.15Z"/><path class="cls-40" d="M590.73,382.77s-13.24,9.27-10.11,12.61c0,0-.21,6.46,19.8-12.29,0,0,16.78-18.86,19.91-15.52,0,0,3.88,5-8.28,18.32,0,0,21.14-10.49,23.1-23.84,0,0,2.49-18.78-15.59-15,0,0-8.12,2.08-15,10.94l-24.74,25.28s-2.24,5.56,21.1-16.31c0,0,6.68-6.26,6.47.21C607.41,367.15,607.3,370.38,590.73,382.77Z"/><path class="cls-41" d="M611.06,354.33s6.14,9.9,16,3.75c0,0,9.39-3.95,4.91-8.44,0,0-7.61-7.81-19.18-.1C612.83,349.54,607.83,354.22,611.06,354.33Z"/><path class="cls-38" d="M559,412.46s12.61,10.12,19.7-9.06a3.16,3.16,0,0,0-3.13-3.33s-3.56-1.05-1.57-7c0,0-1.24-6-11.14.11C562.9,393.19,552.79,405.79,559,412.46Z"/><path class="cls-42" d="M561,351.08s4.91-51.58,27.21-41.15c0,0,15.83,10.22-1.37,42,0,0-26.17,59-36.07,65.12C550.81,417.05,537.67,423.09,561,351.08Z"/><path class="cls-43" d="M562.18,365.67s-3.86,19.28,9.9-6.14c0,0,4.28-32.2,13.66-22.19,0,0,1.37,17.45-1.3,20,0,0,16-27,9.15-39.64,0,0-5.05-16.44-20.83-3.71C572.76,314,559.58,346.19,562.18,365.67Z"/><path class="cls-44" d="M576.47,324.1s11.41-8.6,18.42,2.58c0,0,2.62-17.26-10.87-18.1,0,0-13.12-.1-15.5,17.24C568.52,325.82,566.46,333.47,576.47,324.1Z"/><path class="cls-45" d="M526.21,427.57S523,327.21,548.85,328.05c0,0,19.38.63,12.19,23,0,0-20.24,75.34-23.58,78.47C537.46,429.55,527.56,435.7,526.21,427.57Z"/><path class="cls-46" d="M535.39,393.91s7.3-25.64,10-9.38l13.87-28.65-12.5-13.34-13.55,19Z"/><path class="cls-47" d="M526.47,397.52s4.95,18.9,8.92-3.61c0,0,1.47-45.23,14.39-44.81,0,0,6.36,3.44-4.18,29,0,0-3.09,26.29,4.86,15l12.24-43.52s3.86-19.28-13.85-21.47C548.85,328.05,527.9,325.75,526.47,397.52Z"/><path class="cls-48" d="M532.58,380.88s2.91,9.8,6.77-9.48c0,0,4-22.51,10.43-22.3,0,0,17.46-21.12-3.88-20.67C545.9,328.43,524.15,341.8,532.58,380.88Z"/><path class="cls-38" d="M522.87,430.69s-.52,16.16,9.27,13.24c0,0,13-2.81,10.22-15.84,0,0-3-6.56-12.82-3.65C529.54,424.44,523,427.46,522.87,430.69Z"/><path class="cls-45" d="M380.12,620.7s-72.87-82.15-50.55-99.51c0,0,16.74-13,26.35,10.84,0,0,35.67,77.51,35.05,82.47C391,614.5,386.94,626.59,380.12,620.7Z"/><path class="cls-46" d="M364.3,586s-11.78-26.66,1.86-14.88l-8.38-33.8-19.84-2.47,1.87,25.42Z"/><path class="cls-47" d="M359.33,595.26s17.38,12.42,5-9.28c0,0-30.39-39.06-19.23-47.74,0,0,7.75-1.56,16.75,27.28,0,0,15.77,24.27,14.55,9.18l-20.14-45.15s-10.23-18.91-26.66-8.36C329.57,521.19,310.35,533.9,359.33,595.26Z"/><path class="cls-48" d="M352.83,577s9.3,6.2-.93-12.71c0,0-12.41-21.7-6.83-26,0,0-.09-30-17.72-14.68C327.35,523.56,318.41,550,352.83,577Z"/><path class="cls-38" d="M379.5,625.66s10.86,14,17.06,4.65c0,0,9-11.48-2.49-20.46,0,0-7.13-3.41-13.33,5.89C380.74,615.74,377.33,622.87,379.5,625.66Z"/><path class="cls-45" d="M534,445.33s-10.34-79.48-30.6-75.51c0,0-15.19,3-6.65,19.71,0,0,25.61,56.77,28.63,58.81C525.41,448.34,534,451.91,534,445.33Z"/><path class="cls-46" d="M522.48,420s-9-19.26-9.09-6.1l-14.6-20.81L506.93,381,520,394.17Z"/><path class="cls-47" d="M530,421.7s-1.48,15.52-7.49-1.71c0,0-7-35.45-17.09-33.46,0,0-4.56,3.53,7,22.29,0,0,5.81,20.32-1.91,12.42l-15.22-32.72s-5.52-14.7,8.16-18.7C503.43,369.82,519.64,365.33,530,421.7Z"/><path class="cls-48" d="M523,409.37s-1,8.09-6.55-6.61c0,0-6-17.22-11.08-16.23,0,0-16.46-14.41.41-16.79C505.8,369.74,524.66,377.49,523,409.37Z"/><path class="cls-38" d="M537.06,447.37S539.54,460,531.45,459c0,0-10.63-.55-10.08-11.17,0,0,1.54-5.56,9.63-4.52C531,443.3,536.56,444.84,537.06,447.37Z"/><path class="cls-39" d="M582.64,449.63l34.43,7.27s11.07,6,5.83,14.12c0,0-4.48,5.16-15.22,4l-35.1-16.92S564.12,448,582.64,449.63Z"/><path class="cls-40" d="M590.38,456.35s-10-4.14-10.74-1.18c0,0-3.72,2.19,14,6.76,0,0,16.66,2.71,15.9,5.67,0,0-1.42,4-13.31,1.9,0,0,13.5,8.17,21.74,4.49,0,0,11.49-5.33,2.88-14.19a20.51,20.51,0,0,0-11.55-4.53l-23.13-4.89s-4,.73,16.77,6.05c0,0,5.92,1.53,2.2,3.73C605.18,460.16,603.32,461.26,590.38,456.35Z"/><path class="cls-41" d="M613.72,457.62s-3.38,7,3.64,10.4c0,0,5.6,3.88,6.52-.26,0,0,1.68-7.1-6.81-10.86C617.07,456.9,612.63,455.76,613.72,457.62Z"/><path class="cls-38" d="M561.67,438.91s-1.19,10.75,12.17,7.87a2.12,2.12,0,0,0,.77-3s-.69-2.39,3.37-3.39c0,0,3-2.87-4.05-6.25C573.93,434.18,563.19,433,561.67,438.91Z"/><path class="cls-42" d="M597.61,428.23s30.87-15.73,33,.59c0,0-.09,12.6-24.19,14.29,0,0-42.67,6.39-49.69,3C556.72,446.12,548.61,440.87,597.61,428.23Z"/><path class="cls-43" d="M589.79,434.11s-12.26,4.73,7,3.38c0,0,19.71-9.13,17.42-.25,0,0-9.35,7-11.74,6.43,0,0,21-.67,25.65-9.05,0,0,7.47-8.75-5.38-13.09C622.76,421.53,599.86,425.65,589.79,434.11Z"/><path class="cls-44" d="M618.38,427.26s8.94,3.36,5.15,11.32c0,0,10.67-4.71,6.31-12.63,0,0-4.64-7.43-15.29-2.55C614.55,423.4,609.5,425,618.38,427.26Z"/><path class="cls-45" d="M552.17,435.41s55.48-37.8,64.27-22.91c0,0,6.6,11.16-8.62,15.13,0,0-49.77,15.61-52.73,14.84C555.09,442.47,548.07,439.09,552.17,435.41Z"/><path class="cls-46" d="M574.45,428.52s17.09-5.07,8.88,2.28l21.15-2.45,3-11.84L592,415.67Z"/><path class="cls-47" d="M569.22,424.78s-8.89,9.58,5.23,3.74c0,0,26-15.39,30.45-7.95,0,0,.34,4.82-17.84,8,0,0-15.95,7.67-6.71,8.11L609.3,428s12.26-4.73,7.14-15.51C616.44,412.5,610.23,399.85,569.22,424.78Z"/><path class="cls-48" d="M580.8,422.26s-4.48,5.16,7.78.43c0,0,14.12-5.84,16.32-2.12,0,0,18.18,2.28,10.27-9.6C615.17,411,599.83,403.49,580.8,422.26Z"/><path class="cls-38" d="M549.21,434.65s-9.3,5.5-4.14,10c0,0,6.25,6.34,12.6.09,0,0,2.62-4.06-2.54-8.55C555.13,436.17,551.07,433.55,549.21,434.65Z"/><path class="cls-36" d="M484.62,652.36s32.24,37.49,49.14,28c0,0,12.5-10.75-1.07-21.66,0,0-37.77-17.68-43.4-14.51C489.29,644.17,483.65,647.34,484.62,652.36Z"/><path class="cls-37" d="M529.26,662.47s-2.46,8.8-8.45,4.75c0,0-35.57-17.06-36.8-12.66,0,0,30,30.37,40.17,27,0,0,16.14,1,16.24-12.23C540.42,669.3,537.71,657.71,529.26,662.47Z"/><path class="cls-38" d="M489.29,644.17s-1.94-10-10.39-5.28c0,0-8.45,4.76-3.7,13.21,0,0,6,4,9.42.26C484.62,652.36,484.89,642.94,489.29,644.17Z"/><path class="cls-39" d="M512.72,571.39l16.36-50s.52-18.83-13.92-18.13c0,0-10,1.94-16.54,16.74l-4.39,58.1S500.93,596.58,512.72,571.39Z"/><path class="cls-40" d="M509.81,556.34s-2.11,16-6.51,14.79c0,0-5.63,3.18,1.75-23.24,0,0,9-23.59,4.57-24.83,0,0-6.21-1.14-12.43,15.81,0,0-.46-23.59,10.47-31.5,0,0,15.51-10.89,20.53,6.89,0,0,1.9,8.16-2.78,18.34l-11,33.62s-3.89,4.56,4.72-26.26c0,0,2.47-8.8-3.17-5.63C516,534.33,513.15,535.92,509.81,556.34Z"/><path class="cls-41" d="M525.64,525.17s-11.62-.87-10.74-12.5c0,0-.83-10.15,5.22-8.25,0,0,10.45,3.14,9,17C529.08,521.38,527.23,528,525.64,525.17Z"/><path class="cls-38" d="M498.11,598.16s-14.79-6.51-1.06-21.65a3.16,3.16,0,0,1,4.4,1.23s2.58,2.68,6.92-1.83c0,0,5.93-1.7,5.06,9.92C513.43,585.83,506.92,600.62,498.11,598.16Z"/><path class="cls-42" d="M551.63,568s43.48-28.19,23.93-43.15c0,0-16.38-9.33-36.62,20.61,0,0-40.21,50.46-41.09,62.08C497.85,607.58,498.56,622,551.63,568Z"/><path class="cls-43" d="M538.16,573.76s-15.31,12.33.88-11.62c0,0,26.58-18.67,13.37-22.36,0,0-16.11,6.84-17.12,10.38,0,0,16.57-26.63,30.93-26.43,0,0,16.91-3.12,12.91,16.76C579.13,540.49,556.65,567.07,538.16,573.76Z"/><path class="cls-44" d="M568.44,541.88s2.35-14.1-10.8-15.14c0,0,14.09-10.3,21.07,1.27,0,0,6.15,11.59-8.13,21.71C570.58,549.72,564.74,555.09,568.44,541.88Z"/><path class="cls-45" d="M499.89,634.26s90.48-43.52,77.8-66.06c0,0-9.52-16.9-26.06-.16,0,0-57.47,52.75-58.7,57.15C492.93,625.19,492.05,636.81,499.89,634.26Z"/><path class="cls-46" d="M525.5,610.57s19.36-18.32,3.69-13.21l19-25.54,17.61,4.93-10.56,20.78Z"/><path class="cls-47" d="M526.41,620.15s-19,4.33-.91-9.58c0,0,39.43-22.2,33.09-33.47,0,0-6-4.05-23.77,17.09,0,0-21.88,14.89-15.52,2.6l33-31s15.31-12.33,25.44,2.37C577.69,568.2,589.4,585.72,526.41,620.15Z"/><path class="cls-48" d="M538.35,607s-10,1.94,5.28-10.39c0,0,18.13-13.92,15-19.55,0,0,10.67-25.24,20.12-6.11C578.71,571,576.91,596.46,538.35,607Z"/><path class="cls-38" d="M498.66,638.66s-14.09,7.93-16-2.11c0,0-3.52-12.85,9.33-16.38,0,0,7.22-.35,9.16,9.68C501.12,629.85,501.47,637.07,498.66,638.66Z"/><path class="cls-45" d="M480.52,635.53s75.27-27.55,81.1-7.75c0,0,4.38,14.85-14.41,15,0,0-62.18,3.51-65.38,1.77C481.83,644.56,474.69,638.59,480.52,635.53Z"/><path class="cls-46" d="M508.33,634.06s21.26-.88,9.61,5.24l25.2,3.34,7-12.82-17.77-5.52Z"/><path class="cls-47" d="M503.36,628.21s-13.09,8.48,5,5.85c0,0,34.65-10.2,37.57-.3,0,0-1,5.68-23,4.08,0,0-20.7,4.23-10.13,7.43l36-1.61s15.59-1.9,12.81-15.88C561.62,627.78,558.12,611.33,503.36,628.21Z"/><path class="cls-48" d="M517.5,628.67s-6.7,4.66,8.88,2.77c0,0,18.06-2.63,19.52,2.32,0,0,20.38,7.94,14.7-8.12C560.6,625.64,545,612.5,517.5,628.67Z"/><path class="cls-38" d="M477.31,633.78s-12.37,3.65-7.71,10.35c0,0,5.39,9.17,14.56,3.78,0,0,4.22-3.94-.44-10.63C483.72,637.28,479.79,633.05,477.31,633.78Z"/><path class="cls-39" d="M454.25,594.39,431.9,567.23s-10.45-7.05-15.22,1.35c0,0-2.51,6.36,3.5,15.33l31.22,23.32S464.23,610.08,454.25,594.39Z"/><path class="cls-40" d="M444.71,590.64s8.29,6.93,6,9c0,0-.23,4.31-12.48-9.33,0,0-10.1-13.52-12.37-11.48,0,0-2.87,3.09,4.46,12.68,0,0-13.48-8.2-14-17.2,0,0-.58-12.66,11.25-9.12a20.62,20.62,0,0,1,9.35,8.15l15,18.26s1.17,3.84-13.12-12.08c0,0-4.09-4.55-4.32-.23C434.5,579.27,434.38,581.43,444.71,590.64Z"/><path class="cls-41" d="M432.8,570.52s-4.66,6.25-10.9,1.58c0,0-6-3.17-2.78-5.9,0,0,5.51-4.77,12.78,1C431.9,567.23,435,570.64,432.8,570.52Z"/><path class="cls-38" d="M473.44,608.05s-9,6-12.6-7.17a2.12,2.12,0,0,1,2.27-2s2.44-.49,1.45-4.56c0,0,1.17-3.95,7.42.71C472,595,478,604,473.44,608.05Z"/><path class="cls-42" d="M466.31,571.23s-.31-34.64-15.76-29c0,0-11.14,5.89-1.5,28,0,0,14.05,40.79,20.29,45.45C469.34,615.76,477.74,620.54,466.31,571.23Z"/><path class="cls-43" d="M464.71,580.89s1.47,13.06-6.24-4.67c0,0-1-21.69-7.82-15.56,0,0-1.92,11.54-.29,13.38,0,0-9.08-18.9-3.82-26.93,0,0,4.31-10.66,14.09-1.27C460.63,545.84,467.56,568.05,464.71,580.89Z"/><path class="cls-44" d="M457.58,552.37s-7.11-6.38-12.42.66c0,0-.75-11.64,8.28-11.43,0,0,8.74.69,9.33,12.38C462.77,554,463.71,559.19,457.58,552.37Z"/><path class="cls-45" d="M480.93,614.86s7.9-66.67-9.36-67.6c0,0-12.95-.69-9.44,14.65,0,0,9.15,51.35,11.19,53.62C473.32,615.53,479.57,620.19,480.93,614.86Z"/><path class="cls-46" d="M476.75,591.91s-3.39-17.5-6.13-6.82L463,565.2l9.1-8.17,7.94,13.41Z"/><path class="cls-47" d="M482.49,594.83s-4.39,12.3-5.74-2.92c0,0,1.62-30.21-7-30.68,0,0-4.43,1.93,1.12,19.54,0,0,.55,17.69-4.1,9.69l-5.65-29.69s-1.47-13.06,10.46-13.51C471.57,547.26,485.65,546.94,482.49,594.83Z"/><path class="cls-48" d="M479.37,583.39s-2.5,6.36-4-6.7c0,0-1.35-15.23-5.66-15.46,0,0-10.42-15.07,3.77-13.54C473.51,547.69,487.23,557.84,479.37,583.39Z"/><path class="cls-38" d="M483,617.13s-.58,10.79-6.94,8.29c0,0-8.52-2.62-5.9-11.14,0,0,2.39-4.2,8.75-1.7C478.89,612.58,483.09,615,483,617.13Z"/><path class="cls-3" d="M419.47,497.11s7.13,92.38-20,86L372.39,550Z"/><path class="cls-4" d="M374.38,339.46s-41,1.33-50.88-5.08L363,384.58l26.64-13.78Z"/><path class="cls-5" d="M347.44,384.44s10.76,17.25,4.25,45.26c0,0-4.71,65.66,25,109.51,0,0,26.94,35.27,20.89.5l4.23-131.37s-38.32-70.54-61.79-63c0,0-38.91-8.17-19.55,19.69C333.51,373.39,341.38,365.66,347.44,384.44Z"/><path class="cls-6" d="M372.72,350.36s9.09,28.16-2,42.09c0,0-8.92,31.18,21.91,113.32l28.05-119.08s20.44-17,29.68-4.4c0,0,17.25-10.76-18.48-25.13C431.92,357.16,377.56,333.25,372.72,350.36Z"/><path class="cls-7" d="M422.31,383.58s-11.05,13.94-3.62,53c0,0,3.52,123.24-4.35,131,0,0-11,13.93-19.85-45.41,0,0-17.37-142.09,1.4-148.15C395.89,374,428.74,363.37,422.31,383.58Z"/><path class="cls-8" d="M479.92,393.48s.44-46.78-48-36.32c0,0-2.89-25-21.66-18.92,0,0-21.8-3.32-23.32-8,0,0-35.73-14.37-29.67,4.4,0,0,4.54,14.08,31,15.89,0,0,15.45,15.74,29.53,11.2,0,0,17.45,8.16,25.91,1.12,0,0,17.69,5.53,6.65,19.46,0,0-7.88,7.72,12.27,21.95C462.67,404.24,481.29,413.77,479.92,393.48Z"/><path class="cls-9" d="M357.12,350.22s-26.2-33-68.59-3.77c0,0-3.17,6.21,13.94,11.05,0,0,29.52,11.19,31,15.89,0,0,14.08-4.55-10.76-17.26,0,0-4.54-14.08,14.08-4.55C336.83,351.58,357,365.81,357.12,350.22Z"/><path class="cls-27" d="M433.15,548.6S429,519.67,447,516.72l35.35,3.95s15.64,2.85,8.75,20.24c0,0-5.15,21.45-21.35,28.45Z"/><path class="cls-28" d="M478,633s52.7-7.78,51.19-24.23l-32-38.55-30.91,24.59Z"/><path class="cls-29" d="M482.48,558.78s8.68,15.72,20.82,10.48c0,0,16.2-7,19.15,10.94,0,0,14,32.39,1.85,37.64,0,0-19.15-10.94-27.89-31.19C496.41,586.65,461.11,558.15,482.48,558.78Z"/><path class="cls-30" d="M472.76,620.9s15.2,46.28-13.69,68.38c0,0-8.1,3.5-11.6-4.6,0,0-7-16.19-17.4-6.9,0,0-30.09,8.2-22.64-19C407.43,658.74,435,589.15,472.76,620.9Z"/><path class="cls-31" d="M381.18,598s-45.64,39-24.74,53.94c0,0,13.9-1.2,19.15,10.95,0,0,11,14.45,31.84-4.15,0,0,16.88-24.9,18.79-38.54l-23-26.9A22.19,22.19,0,0,0,381.18,598Z"/><path class="cls-32" d="M379.78,516.92s35.34,4,47.59,32.29l-56.69,24.5L360,566.3S362.38,510,379.78,516.92Z"/><path class="cls-33" d="M363.68,557.51s-10.94,19.15.65,23.75l23.2,9.2,39.84-41.25S382.73,534.87,363.68,557.51Z"/><path class="cls-34" d="M399.58,551.61s-31.85,4.15-16.75,16.85c0,0,6.6,11.56,2.48,20.55,0,0,5.72,9.54,11.52,11.84,0,0-5.15,21.45-17.3,26.7,0,0-6.35,7.55,11.6,4.6,0,0,17.95-2.95,21.45,5.14s15.64,2.85,15.64,2.85,9.85.55,7,16.2c0,0-1.1,19.69,17.95-3,0,0,17.29-26.7,24.84-20.35,0,0,6.9-17.39,15-20.89,0,0,28.89-22.1-.1-33.6,0,0-11.6-4.59-15.1-12.69,0,0-1.85-37.64-14-32.4,0,0-5.8-2.29-20.24,8.75,0,0-6.35,7.55-16.2,7C427.37,549.21,407.67,548.11,399.58,551.61Z"/><path class="cls-35" d="M427.37,549.21s-13.9,1.2-15,20.9c0,0-8.64,13.35-22.54,14.55,0,0-12.15,5.25,7,16.19,0,0,27.12,10.23,24.93,31.43,0,0,27.81-20.58,46.95-9.63,0,0,12.15-5.25,7.45-27.25,0,0-7-16.2-.65-23.74,0,0-5.25-12.15-17.4-6.9,0,0-13.89,1.2-19.14-11C439,553.81,435.47,545.71,427.37,549.21Z"/><path class="cls-13" d="M433.22,568.31s4.7,22-32.94,23.84c0,0,45.19,4.5,17,50.34,0,0,18.39-46.39,31.74-37.74,0,0,19.14,11,22.64,19,0,0-29.64-35.24,6.8-51C478.41,572.81,436.77,593.2,433.22,568.31Z"/></g></svg>