<svg xmlns="http://www.w3.org/2000/svg" viewBox="0 0 864 864"><defs><style>.cls-1{font-size:51.47px;fill:#fff;font-family:AlvaroCondensed, Alvaro;}.cls-2{letter-spacing:-0.04em;}.cls-3{letter-spacing:-0.03em;}.cls-4{letter-spacing:0em;}.cls-5{letter-spacing:-0.01em;}.cls-6{letter-spacing:-0.01em;}.cls-7{fill:#2a4024;}.cls-8{fill:#928c7a;}.cls-9{fill:#397445;}.cls-10{fill:#3a6c4d;}.cls-11{fill:#419466;}.cls-12{opacity:0.61;}.cls-13{fill:#97e0cc;}.cls-14{fill:#4c5c39;}.cls-15{fill:#6c8655;}.cls-16{fill:#7fae66;}.cls-17{fill:#a3d99b;}.cls-18{fill:#abb87d;}.cls-19{fill:#9ea798;}.cls-20{fill:#334632;}.cls-21{fill:#a43537;}.cls-22{fill:#7d2f31;}.cls-23{fill:#561b1b;}.cls-24{fill:#bc2b3e;}.cls-25{fill:#940c1f;}.cls-26{fill:#74191f;}.cls-27{fill:#5c160e;}.cls-28{fill:#a72334;}.cls-29{fill:#9e202e;}.cls-30{fill:#5b1e1b;}.cls-31{fill:#c0817e;}.cls-32{fill:#cbcbc6;}.cls-33{fill:#52332f;}.cls-34{fill:#772224;}.cls-35{fill:#8e0d1b;}.cls-36{fill:#b32139;}.cls-37{fill:#a23341;}.cls-38{fill:#5c784b;}.cls-39{fill:#729f5b;}.cls-40{fill:#a2d581;}.cls-41{fill:#c3e6c9;}</style></defs><title>rubiaceae</title><g id="g_scabra_flowers"><text class="cls-1" transform="translate(458.16 725.92)">gue<tspan class="cls-2" x="45.91" y="0">t</tspan><tspan class="cls-3" x="60.22" y="0">t</tspan><tspan class="cls-4" x="75.09" y="0">ar</tspan><tspan class="cls-5" x="109.27" y="0">d</tspan><tspan x="125.27" y="0">a s</tspan><tspan class="cls-6" x="167.68" y="0">c</tspan><tspan x="183.69" y="0">abra</tspan></text><circle class="cls-7" cx="432" cy="438" r="432"/><g id="flower"><path class="cls-8" d="M670.69,392s8.29,41.42-59.16,28.4-105.7,5.7-105.7,5.7l25.7,26.34s-.46-24.94,51.6-15.48,65.08-5.91,68.63,18.94,61.53,18.93,61.53,18.93l-11.73-69.06Z"/><g id="_1leaf" data-name="1leaf"><path class="cls-9" d="M460.9,437.3s-.21-20.62,44.93-11.24c0,0,86.16,20.18,108,92.92,0,0,8.06,50.09-4.66,57.83,0,0-44.24,16.3-71.71-2.35,0,0-76.17-67.12-86-101.91C451.47,472.55,438.84,436.41,460.9,437.3Z"/><path class="cls-10" d="M606.61,570.28s-41.78-54.56-86.51-86.36c0,0-44.8-34-45.7-36.63,0,0-8.12-5.13,1.31,7.36,0,0,116.22,96.11,125.72,115.47C601.43,570.12,612.32,580.69,606.61,570.28Z"/><g id="midtonw"><path class="cls-11" d="M569.18,465.24s-42,1.37-51.87,4.43c0,0-10.07,8.24-14.43-4.93,0,0-7.17-8.49,8.31-14.89,0,0,24.89-6.8,38.47-1.76,0,0,20.12,7.15,25.58,16.53C575.24,464.62,575.44,467,569.18,465.24Z"/><path class="cls-11" d="M586.88,475.2s-9.25-11.1-46.42-6.08c0,0-24.72,1.62-17.78,8.43,0,0,16.6,21,29.15,18.42,0,0,32-5.18,46.19-1.94C598,494,605.94,495.29,586.88,475.2Z"/><path class="cls-11" d="M533.43,442.55s-40.89,2.94-53,8.88c0,0-16.84-3.66-17.69-19.5,0,0,6-9.58,20.79-8.29a35.08,35.08,0,0,1,14,8.27,83.81,83.81,0,0,0,16.85,3.74S543.45,440.33,533.43,442.55Z"/><path class="cls-11" d="M551.83,496s-13.4,2.67-3.81,10c0,0,13.43,10.22,13.88,13.6a29.73,29.73,0,0,0,4.56,8.09s16.61,14.86,29.39,14c0,0,17.74-2.4,12.08-18.84,0,0-1.76-6.64,1.74-6.25,0,0,4-.08.48-8,0,0-5.76-11.92-16.12-12.24C594,496.29,568.73,493.69,551.83,496Z"/><path class="cls-11" d="M586.63,549.76s8.63,6.57,1,7.6c0,0-16.67,4-18.49-9.54,0,0-1.26-9.29-.14-13.75,0,0-1.44,14.82-10.34,12.58,0,0-16.93-4.29-15.36-30.89,0,0-2.39,1.47-3.71,17.13,0,0-.93,12.17-6.57,8.63,0,0-14-14.45-15.92-47.74,0,0-2.15-3.15-2.17,15.78,0,0-.43,9.52-4.88,8.4,0,0-8.35-8.32-13.83-34.25l1.13-8.76s2.08-3.73,9.86,3c0,0,27.59,19.5,33.07,28.22,0,0,3.46,3.86,6.22,6.48,0,0,18.94,14.2,26.56,26.07C573.09,538.68,576.43,544.26,586.63,549.76Z"/><path class="cls-11" d="M488.73,487.3s-.48,15.54.59,17.12c0,0,1.33,16.16-11.82-30.23,0,0,.09-12.05-5.28-19.93,0,0-3.45-6.41,6.87-.07,0,0,19.11,17,24.59,21.11l-8.6,5.56s-2.41-12.09-5-7.47Z"/><path class="cls-11" d="M612.09,547.18s-12.24-7.81-22,3c0,0-2,4.57,7.45,4.16,0,0,9.4-.41,10.93,4.54,0,0,3.45,6.42,5.46-4.18C614,554.66,614.85,548.52,612.09,547.18Z"/></g><g id="highlight" class="cls-12"><path class="cls-13" d="M562.7,525.47s22.56,14.15,34,10-4.81-16.55-4.81-16.55S567.59,517.06,562.7,525.47Z"/><path class="cls-13" d="M542.68,511s-5.16,12.74-4.36,18.65c0,0-.89,6.14-11.07-18.28,0,0-7.13-14.52-6.85-18.86C520.4,492.48,519.48,485.72,542.68,511Z"/><path class="cls-13" d="M569,534.07s-19.36-22.32-26.35-23.1c0,0,0,12.9,8.88,21.16C551.56,532.13,567.64,542.86,569,534.07Z"/><path class="cls-13" d="M516.33,487.87s-17.37-14-19-12.92-5.91.79,2.06,15.2c0,0,9.88,15.87,10.57,20.94,0,0,2.6,6.53,3.77-3.95C513.78,507.14,513.41,491.7,516.33,487.87Z"/><path class="cls-13" d="M488.73,487.3s.87-19,3.4-19.39c0,0-9.7-8.15-11,1.49C481.15,469.4,482.89,495,488.73,487.3Z"/><path class="cls-13" d="M467.91,466.89s-.6-17.13,1.82-18.31c0,0-8.13-9.23-8.72,5.48C461,454.06,462.84,467.57,467.91,466.89Z"/><path class="cls-13" d="M590.58,489.87s-25.3-2.6-37.63,1.65c0,0-12.67,1.71-13.7-5.89,0,0-1.14-8.45,9-9.82,0,0,28.72-3.88,37.58,4.38C585.83,480.19,599.6,493,590.58,489.87Z"/><path class="cls-13" d="M562.93,463.5s-38-.88-51.76,5.28c0,0-8.56.3-1.71-12.67,0,0,10.29-6.55,32.94-4.45C542.4,451.66,580.78,462,562.93,463.5Z"/><path class="cls-13" d="M504.25,443.05s-16.89,2.28-20.89,4.54c0,0-17.12.6-15.91-15.91,0,0,3-9.86,19.88.75,0,0,8.63,6.58,16.24,5.55C503.57,438,516.58,438.8,504.25,443.05Z"/><path class="cls-13" d="M597,499.32s-34.09-4-45.23,2.68c0,0-5.8,1.64,6.32,8.6,0,0,5.64,3.54,6,6.08,0,0-1.12,4.45,11.82-1.6,0,0,23.54-4,27.6.57,0,0,7.33,3.31,2.47-7.22C606,508.43,600.51,499.71,597,499.32Z"/><path class="cls-13" d="M586.63,549.76s-13.08-7.7-13.54-11.08-2.9,16.74,10.73,15.76C583.82,554.44,588.05,553.87,586.63,549.76Z"/></g><path id="shadow" class="cls-10" d="M592.92,581.15s-8.75-8.27-2.86-22c0,0-1.78-17-10.72,23.8,0,0-10.61-9.74-13-27.48,0,0-2.44-11.71-5.45,4.18,0,0-2.74,11.55-2.4,14.09,0,0-7.42,8.74-11.83-30.23,0,0-3.51-13.29-5.75-4.38,0,0-4.22,32.39-9,22.71,0,0-11.91-21.61-11.82-47.86,0,0-3.05-11.2-5.44,2.89,0,0-.92,25.07,2.42,30.64,0,0-15.16-4-18.54-35.34,0,0-2.29-16.9-6.17-13.79,0,0-3.39,5.72-3.12,8.21,0,0,.06,13.7,2.21,16.85,0,0-12.24-7.8-16.16-30.5,0,0-1.19-34.24-5.92-31,0,0-4.7,16.11-1.07,30.25,0,0-16.15-15-13.09-54.12,0,0-18.18,6.48,1.91,47.33,0,0,15.1,24.47,31.63,41.08,0,0,30.59,32.9,41.76,41.65,0,0,4.72,6.29,11.13,8.81C541.66,577,559.37,588.26,592.92,581.15Z"/></g><g id="_1leaf-2" data-name="1leaf"><path class="cls-9" d="M394.43,416.86s23.34-9.94-9.51-56.18c0,0-65.26-87.16-158-75.92,0,0-60.43,15.64-62.88,33.79,0,0,3.46,57.91,38,79.66,0,0,113.23,52.72,157.31,46.67C359.35,444.88,406.32,441.28,394.43,416.86Z"/><path class="cls-10" d="M172.64,318.26s82.12,20.16,140,54.88c0,0,60.4,33.73,63.84,33.43,0,0,9.78,6.62-8.95,2.15,0,0-165.67-83.55-192.18-84.7C175.38,324,158.09,317,172.64,318.26Z"/><g id="midtonw-2" data-name="midtonw"><path class="cls-11" d="M309.5,308.6s19.16,48,20.6,60.65c0,0-4.32,15.42,12.68,13.83,0,0,13.11,3.89,12.68-16.71,0,0-4.61-31.41-17-44.23,0,0-18-19.15-31.25-20.66C307.21,301.48,304.46,302.41,309.5,308.6Z"/><path class="cls-11" d="M289.55,293.57s17.07,4.95,29.75,49.32c0,0,10.37,28.67-.72,24.2,0,0-31.84-8.35-35.15-23.77,0,0-9.94-38.61-20.61-53C262.82,290.31,257.49,282,289.55,293.57Z"/><path class="cls-11" d="M352.72,337.7s16.86,47.54,16.14,64.11c0,0,12.43,17.17,30.71,10.31,0,0,7.84-11.46-.92-27.53a43.14,43.14,0,0,0-16.25-11.74s-7.93-8.64-12.54-17.14C369.86,355.71,350.27,325.31,352.72,337.7Z"/><path class="cls-11" d="M283.43,343.32s3.6,16.42-9.37,9.22c0,0-18.15-10.08-22.18-8.93a36.62,36.62,0,0,1-11.36-1.14s-25-11.39-30.28-26.23c0,0-6.05-21.18,15.27-22.91,0,0,8.36-1.29,6.2-5,0,0-1.88-4.52,8.78-4.49,0,0,16.28.6,21.76,12.13C262.25,295.93,277.66,323.15,283.43,343.32Z"/><path class="cls-11" d="M205.63,330.65s-11.67-6.48-9.07,2.59c0,0,3.74,20.75,19.88,16.14,0,0,11.09-3.17,15.56-6.63,0,0-16,8.93-9.08,17.86,0,0,13.2,17,42.4,2.07,0,0-.48,3.4-17.47,12.62,0,0-13.26,7.06-6.49,11.67,0,0,23.2,8.65,61.66-5.62,0,0,4.61.87-16.71,10.23,0,0-10.52,5.19-7.06,9.65,0,0,13.49,5.3,45.43-1.31l9.31-5.6s3.17-4.18-8.21-9.65c0,0-35.58-21.47-48.11-23.34,0,0-6.06-2-10.38-3.81,0,0-25.35-14.34-42.5-17.08C224.79,340.44,216.87,339.43,205.63,330.65Z"/><path class="cls-11" d="M324.34,410.16s-17.28,8.22-19.59,7.78c0,0-18.87,6.49,39.91-1.58,0,0,13.54-6.05,25.06-3.89,0,0,8.93.72-3.31-7.78,0,0-28.61-13.13-35.92-17.3l-2,12.44s14.82-3.25,10.9,2Z"/><path class="cls-11" d="M196,300.68s14.84,9.94,7.49,26.22c0,0-4.18,4.47-8.35-6.34,0,0-4.18-10.8-10.52-10.08,0,0-8.93-.72,2-8.21C186.62,302.27,193.1,298.23,196,300.68Z"/></g><g id="highlight-2" data-name="highlight" class="cls-12"><path class="cls-13" d="M244.82,345.63s-27.09-18.44-28.09-33.42,21-2.74,21-2.74S251.88,336,244.82,345.63Z"/><path class="cls-13" d="M271,361s-11.81,12.1-18.87,14.12c0,0-6.49,4,26.07,3.46,0,0,19.88.86,24.64-1.59C302.88,377,310.94,374.73,271,361Z"/><path class="cls-13" d="M232,342.75s34.72,10.8,39,18.29c0,0-14.55,6.34-28.24.44C242.8,361.48,222.78,348.65,232,342.75Z"/><path class="cls-13" d="M310.08,379.34s24.35,12.67,23.91,15,2,7.06-18.15,5.18c0,0-22.76-3.31-28.81-1.58,0,0-8.64.29,2.59-6.19C289.62,391.73,307.2,384.52,310.08,379.34Z"/><path class="cls-13" d="M324.34,410.16s21-10.37,20.17-13.39c0,0,14,6.91,3.75,13.1C348.26,409.87,318.58,420.54,324.34,410.16Z"/><path class="cls-13" d="M357.62,423.56s19.59-7.78,19.74-11.09c0,0,14.4,4.61-1.87,12.53C375.49,425,359.35,429.61,357.62,423.56Z"/><path class="cls-13" d="M271.18,296.65s15.42,27.22,16.71,43.21c0,0,4.33,15.13,13.4,12.54,0,0,10.09-2.89,6.63-15,0,0-9.8-34.28-23.49-40.19C284.43,297.22,263.26,288,271.18,296.65Z"/><path class="cls-13" d="M314.54,314.8s19.74,42.35,19.6,60.93c0,0,3.89,9.8,15.12-4.32,0,0,2.31-14.84-11.23-39.33C338,332.08,307.48,293.91,314.54,314.8Z"/><path class="cls-13" d="M366.55,370.83s5.77,20.17,5.19,25.79c0,0,7.78,19.59,25.79,10.08,0,0,9.65-8.21-10.67-22,0,0-11.66-6.48-14.26-15.56C372.6,369.1,365.25,354.84,366.55,370.83Z"/><path class="cls-13" d="M257.35,294.05s21.32,36.45,19.31,52.3c0,0,1,7.34-12.83-2.88,0,0-6.77-4.61-9.79-3.75,0,0-4.47,3.46-4-14.12,0,0-7.06-28.52-14.26-30.83,0,0-7.35-6.62,6.92-6.33C242.66,288.44,255.19,290.31,257.35,294.05Z"/><path class="cls-13" d="M205.63,330.65s15.13,11,19.16,9.79-17.43,11.53-23-4.32C201.74,336.12,200.3,331.08,205.63,330.65Z"/></g><path id="shadow-2" data-name="shadow" class="cls-10" d="M167.14,339.05s13.64,5.79,26.18-7.61c0,0,20-6.38-21.54,23.83,0,0,16.21,7.14,37.38,1.09,0,0,14.41-3-2,8.21,0,0-11.67,8.79-14.7,9.66,0,0-6.19,12.67,39.91-1.59,0,0,16.71-2.59,7.78,4.32,0,0-34.43,20.75-21.18,21.32,0,0,30.24,2.75,59.78-10.29,0,0,14.13-2.1-.57,7.55,0,0-27.8,13.4-35.73,12.39,0,0,12,15.13,49,3.46,0,0,20.16-5.76,18.58.14,0,0-4.78,6.65-7.72,7.57,0,0-15.47,6.7-20.08,5.83,0,0,14.84,9.94,42.35,3.17,0,0,39.18-15.56,37.89-8.65,0,0-15.85,13.26-33.57,16.14,0,0,24.84,10.82,67.45-11.95,0,0,1.67,23.68-54.28,21.2,0,0-35-4.94-61.92-15.38,0,0-52.16-18.23-67.54-26.5,0,0-9.42-2.22-15.42-8.2C197.17,394.76,175.69,380.37,167.14,339.05Z"/></g><g id="_1leaf-3" data-name="1leaf"><path class="cls-9" d="M446.2,468.78s7.88-19,45.74,7.26c0,0,71.38,52.32,63,127.81,0,0-12.2,49.25-26.93,51.39,0,0-47.1-2.33-65.06-30.25,0,0-43.79-91.59-39.24-127.47C423.72,497.52,426.26,459.32,446.2,468.78Z"/><path class="cls-10" d="M528.18,648.21s-17.07-66.57-45.77-113.35c0,0-27.91-48.81-27.7-51.6,0,0-5.46-7.9-1.67,7.29,0,0,69.28,134,70.44,155.48C523.48,646,529.36,660,528.18,648.21Z"/><g id="midtonw-3" data-name="midtonw"><path class="cls-11" d="M534.89,536.9s-39.15-15.17-49.46-16.24c0,0-12.49,3.64-11.35-10.19,0,0-3.27-10.62,13.48-10.44,0,0,25.56,3.49,36.09,13.45,0,0,15.71,14.45,17.05,25.22C540.7,538.7,540,541,534.89,536.9Z"/><path class="cls-11" d="M547.27,553s-4.16-13.83-40.33-23.77c0,0-23.38-8.19-19.66.79,0,0,7.06,25.81,19.61,28.37,0,0,31.46,7.76,43.26,16.3C550.15,574.68,556.94,579,547.27,553Z"/><path class="cls-11" d="M510.88,502s-38.77-13.31-52.23-12.58c0,0-14.06-10-8.64-24.88,0,0,9.25-6.47,22.38.52a35.12,35.12,0,0,1,9.68,13.11,83.41,83.41,0,0,0,14,10S521,503.9,510.88,502Z"/><path class="cls-11" d="M506.89,558.38s-13.38-2.79-7.41,7.69c0,0,8.34,14.67,7.44,17.95a29.73,29.73,0,0,0,1,9.23s9.47,20.17,21.57,24.38c0,0,17.26,4.75,18.49-12.6,0,0,1-6.8,4-5.07,0,0,3.69,1.49,3.58-7.18,0,0-.63-13.23-10-17.58C545.59,575.2,523.33,562.9,506.89,558.38Z"/><path class="cls-11" d="M517.84,621.5s5.37,9.43-2,7.4c0,0-16.89-2.87-13.28-16,0,0,2.48-9,5.26-12.7,0,0-7.13,13.07-14.45,7.53,0,0-13.89-10.58-2-34.44,0,0-2.76.41-10.12,14.31,0,0-5.62,10.83-9.43,5.36,0,0-7.21-18.78,4.06-50.16,0,0-.74-3.74-8.18,13.67,0,0-4.12,8.59-7.78,5.82,0,0-4.42-10.92.69-36.93l4.47-7.62s3.37-2.61,7.92,6.59c0,0,17.74,28.74,19.36,38.91,0,0,1.69,4.91,3.19,8.4,0,0,11.86,20.49,14.23,34.4C509.72,606,510.6,612.44,517.84,621.5Z"/><path class="cls-11" d="M452.23,525.68s-6.53,14.12-6.16,16c0,0-5.12,15.39.95-32.44,0,0,4.81-11.06,3-20.41,0,0-.66-7.25,6.35,2.63,0,0,10.9,23.15,14.35,29.05l-10.09,1.75s2.52-12.07-1.68-8.84Z"/><path class="cls-11" d="M542.27,629.1s-8.2-12-21.37-5.87c0,0-3.59,3.43,5.22,6.73,0,0,8.82,3.31,8.29,8.47,0,0,.66,7.25,6.65-1.71C541.06,636.72,544.29,631.42,542.27,629.1Z"/></g><g id="highlight-3" data-name="highlight" class="cls-12"><path class="cls-13" d="M505.34,589.78s15.21,21.86,27.39,22.55,2-17.12,2-17.12S513.12,584,505.34,589.78Z"/><path class="cls-13" d="M492.59,568.6s-9.73,9.7-11.31,15.45c0,0-3.23,5.3-3-21.16,0,0-.87-16.15,1.08-20C479.33,542.85,481.14,536.28,492.59,568.6Z"/><path class="cls-13" d="M507.79,600.17s-9.07-28.12-15.2-31.57c0,0-5,11.87-.11,22.95C492.48,591.55,503.06,607.72,507.79,600.17Z"/><path class="cls-13" d="M477.4,537S466.89,517.34,465,517.71s-5.75-1.58-4.06,14.79c0,0,2.88,18.47,1.53,23.41,0,0-.17,7,5-2.16C467.5,553.75,473.21,539.4,477.4,537Z"/><path class="cls-13" d="M452.23,525.68s8.25-17.18,10.72-16.5c0,0-5.74-11.3-10.69-2.93C452.26,506.25,443.84,530.45,452.23,525.68Z"/><path class="cls-13" d="M441.06,498.75s6.16-16,8.85-16.13c0,0-3.86-11.67-10.17,1.62C439.74,484.24,436.13,497.39,441.06,498.75Z"/><path class="cls-13" d="M544.93,568s-22.26-12.31-35.27-13.23c0,0-12.33-3.38-10.29-10.78,0,0,2.25-8.22,12.12-5.51,0,0,28,7.67,32.86,18.75C544.35,557.18,552,574.31,544.93,568Z"/><path class="cls-13" d="M529.82,532.85s-34.59-15.68-49.69-15.41c0,0-8-3.08,3.38-12.33,0,0,12-2,32.06,8.8C515.57,513.91,546.85,538.42,529.82,532.85Z"/><path class="cls-13" d="M483.84,491.05s-16.44-4.51-21-4c0,0-16-6.16-8.41-20.87,0,0,6.59-7.92,18,8.48,0,0,5.37,9.43,12.76,11.46C485.19,486.12,496.85,492,483.84,491.05Z"/><path class="cls-13" d="M547.15,579.16s-29.8-17-42.66-15.25c0,0-6-.76,2.45,10.39,0,0,3.8,5.47,3.12,7.94,0,0-2.77,3.65,11.51,3.16,0,0,23.24,5.5,25.17,11.33,0,0,5.45,5.92,5.1-5.67C551.84,591.06,550.21,580.89,547.15,579.16Z"/><path class="cls-13" d="M517.84,621.5s-9-12.2-8.12-15.49-9.22,14.26,3.7,18.7C513.42,624.71,517.53,625.84,517.84,621.5Z"/></g><path id="shadow-3" data-name="shadow" class="cls-10" d="M511.33,652.85s-4.82-11,6-21.33c0,0,5-16.33-19.19,17.7,0,0-5.94-13.11-1.2-30.38,0,0,2.34-11.73-6.66,1.71,0,0-7,9.56-7.72,12,0,0-10.25,5.14,1-32.44,0,0,2-13.6-3.58-6.29,0,0-16.57,28.16-17.15,17.39,0,0-2.49-24.55,7.87-48.67,0,0,1.59-11.5-6.14.53,0,0-10.66,22.71-9.77,29.14,0,0-12.39-9.6-3.22-39.78,0,0,4.52-16.44-.27-15.11,0,0-5.36,3.94-6.09,6.34,0,0-5.31,12.63-4.57,16.37,0,0-8.2-12-2.92-34.39,0,0,12.32-32,6.71-30.87,0,0-10.64,13-12.84,27.42,0,0-9-20.1,9.15-54.92,0,0-19.26-1.16-16.78,44.29,0,0,4.31,28.43,13,50.2,0,0,15.25,42.24,22.11,54.67,0,0,1.88,7.63,6.79,12.47C465.81,628.92,477.68,646.25,511.33,652.85Z"/></g><g id="_1leaf-4" data-name="1leaf"><path class="cls-9" d="M382.21,392.22s21.72,20.76,56.72-36.6c0,0,64.39-111.77,8.82-207.52,0,0-45.25-58.49-66.16-52.67,0,0-61.43,30.82-69,78.62,0,0-4.5,147.9,22.68,193.07C335.31,367.12,361.17,416.56,382.21,392.22Z"/><path class="cls-10" d="M385.94,104.7s16.41,98.82,5.67,178.09c0,0-8.5,81.5-6.57,85.11,0,0-2.64,13.74-6.53-8.74,0,0,13.57-219.39,2.44-248.79C381,110.37,380.56,88.25,385.94,104.7Z"/><g id="midtonw-4" data-name="midtonw"><path class="cls-11" d="M460.39,249.18S417.12,292.45,404,300c0,0-18.8,2.49-9.14,20.26,0,0,1.89,16.09,24.12,6,0,0,32-19.69,40.21-39.17,0,0,12.44-28.52,7.9-43.67C467.08,243.36,464.78,240.8,460.39,249.18Z"/><path class="cls-11" d="M467.43,220.44s2.59,20.9-39.79,55.43c0,0-26.36,24.68-26.68,10.52,0,0-5.78-38.56,9.45-49.37,0,0,37.39-28.86,48.09-47.2C458.5,189.82,465.05,180.14,467.43,220.44Z"/><path class="cls-11" d="M448.9,309.83S405,350.39,386.65,357.34c0,0-12.89,21.56,3.11,38.25,0,0,16.15,3.2,29.54-13.85,0,0,5.7-10.77,5.2-23.18,0,0,5.71-12.67,12.81-21.65C437.31,336.91,461.24,301.37,448.9,309.83Z"/><path class="cls-11" d="M410.41,237s-16.2,11.59-14.41-5.89c0,0,2.5-24.47-.64-28.33a43.71,43.71,0,0,1-4.07-12.9s.75-32.47,14.42-45.21c0,0,20.22-16.48,32.07,5.93,0,0,5.31,8.49,8.38,4.38,0,0,4-4.16,9,7.47,0,0,6.95,18-3,29.35C452.12,191.82,429.68,221.32,410.41,237Z"/><path class="cls-11" d="M387.87,146.4s1.6-15.73-7.06-8.67c0,0-20.84,13.77-8.28,29.19,0,0,8.63,10.59,14.48,13.84,0,0-17.19-13.24-23.69-1.54,0,0-12.29,22.29,17.56,47.12,0,0-3.93,1.08-21.91-13.12,0,0-13.88-11.13-15.73-1.61,0,0,1.42,29.29,34.92,64.5,0,0,1.21,5.43-18.94-13.41,0,0-10.56-9-13.81-3.18,0,0,.53,17.17,22.65,48.85l10.46,7.52s6,1.5,6.67-13.45c0,0,6.74-48.76,2.92-63.28,0,0-.64-7.54-.69-13.08,0,0,3.76-34.3-1.26-54.24C386.16,171.84,383.55,162.74,387.87,146.4Z"/><path class="cls-11" d="M356.75,312.79s-17-15-17.62-17.7c0,0-15.87-17.51,20.37,42.7,0,0,12.91,11.92,15.95,25.48,0,0,3.38,10.06,6.92-7.25,0,0,.92-37.28,2.05-47.18l-14.49,3.6s10.46,14.62,3,12.78Z"/><path class="cls-11" d="M416,121.9s-3.89,20.79-25,20.4c0,0-6.82-2.46,3-12.06,0,0,9.81-9.59,6.07-16.16,0,0-3.39-10.06,9.88-1.64C409.88,112.44,417.3,117.62,416,121.9Z"/></g><g id="highlight-4" data-name="highlight" class="cls-12"><path class="cls-13" d="M389.86,196.06s7.43-38.1,23.27-46.19,12.8,21.61,12.8,21.61S403.67,199.24,389.86,196.06Z"/><path class="cls-13" d="M385.33,231.81s-18.69-7.21-24.18-13.95c0,0-7.42-5.17,8.41,30,0,0,8.35,22.05,13.24,26.08C382.8,273.94,389.08,281.64,385.33,231.81Z"/><path class="cls-13" d="M387,180.76s4.46,42.84-1.68,51.05c0,0-13.7-12.88-13.66-30.54C371.67,201.27,376.27,173.48,387,180.76Z"/><path class="cls-13" d="M383.65,282.86s-2.42,32.42-5.13,33-6.75,5.49-14.13-17.34c0,0-7-26.32-11.74-32.1,0,0-4.35-9.28,8-.08C360.61,266.37,376.66,282.14,383.65,282.86Z"/><path class="cls-13" d="M356.75,312.79s21.12,18,24,15.69c0,0-1,18.45-12.52,10.21C368.24,338.69,342.77,311.36,356.75,312.79Z"/><path class="cls-13" d="M357.72,355.27S375.34,373,379,371.58c0,0,1.71,17.84-14.52,3.82C364.49,375.4,351.94,360,357.72,355.27Z"/><path class="cls-13" d="M455.5,201.88s-22.44,29.5-39.24,38.38c0,0-14.45,11.78-7.38,20.44,0,0,7.84,9.64,19.4.22,0,0,32.75-26.68,32.79-44.34C461.07,216.58,461.21,189.22,455.5,201.88Z"/><path class="cls-13" d="M456,257.57s-36.89,41.27-57.19,49.8c0,0-8.84,8.81,11.78,14.44,0,0,17.23-4.42,37.56-30.6C448.15,291.21,475.45,240.12,456,257.57Z"/><path class="cls-13" d="M419.29,340.37S400,356.06,393.64,358.06c0,0-17.69,17.62,1.07,32.78,0,0,13.45,6.67,19-21.9,0,0,1.61-15.73,10.28-22.8C424,346.14,436.09,331.48,419.29,340.37Z"/><path class="cls-13" d="M451.87,185.61S422.15,225.85,404,231.06c0,0-7.52,4.53-2.85-15.31,0,0,1.86-9.52-.5-12.41,0,0-5.85-3.25,13.49-11,0,0,27.75-21,26.9-29.93,0,0,3.78-11.09,10.13,4.57C451.12,167,454.93,181.51,451.87,185.61Z"/><path class="cls-13" d="M387.87,146.4S383,168,386.16,171.84s-20.7-13.59-6.07-27.11C380.09,144.73,384.91,140.8,387.87,146.4Z"/></g><path id="shadow-4" data-name="shadow" class="cls-10" d="M360.74,108.43s.07,17.55,20.51,24.93c0,0,16.29,18.82-36-12.32,0,0-.21,21,16.27,41.22,0,0,10,14.27-9.88,1.64,0,0-15-8.6-17.37-11.49,0,0-16.7-.82,20.37,42.71,0,0,10.63,17-1.07,10.48,0,0-38.67-27.79-33.11-13.09,0,0,11.13,34.2,39.13,60.27,0,0,8.89,14.4-8.49,2.91,0,0-27.57-24-30.18-33.11,0,0-10.88,20.09,19.12,54.94,0,0,15.7,19.27,8.53,20.3,0,0-9.46-2.09-11.85-4.86,0,0-14.51-13.73-15.73-19.15,0,0-3.89,20.8,16.34,47.59,0,0,35.24,35.39,27.11,37.21,0,0-21.83-11.06-33.25-29,0,0-.18,32.09,44.52,67.84,0,0-25,12.88-48.44-49.19,0,0-11-40.45-12.18-74.59,0,0-4.51-65.31-2.69-85.92,0,0-2-11.28,1.72-20.62C314.12,167.13,319.75,137,360.74,108.43Z"/></g><g id="_2green_berry" data-name="2green_berry"><path class="cls-14" d="M558.47,142.3s-29.5,8.38-24.57,37.38c0,0,5.75,37.71,36.78,34.4S558.47,142.3,558.47,142.3Z"/><path class="cls-15" d="M554.23,199s-14.18-41.63,7-50.91l32.11,30.06-28.48,24.73S556.78,205.63,554.23,199Z"/><path class="cls-16" d="M576.69,216.45s-23.11-4.6-16.73-25.57c0,0,12.63-9.25,6.14-22.35,0,0-2.54-8.69,3.3-15.07,0,0-18.54.61-17.19-8.15,0,0,15-9.63,35.28-.3Z"/><path class="cls-17" d="M581,207.2s-16.34,2.78-13-19.11c0,0,5.94-16.75,15-16.82l17.81-14.71s13.4,19.41-3.09,47.78Z"/><path class="cls-18" d="M582.49,143.72s29.26,5,14.12,24.59c0,0-12.74,12.82-25.22-2.1C571.39,166.21,561.2,148.05,582.49,143.72Z"/><path class="cls-19" d="M589.08,153.25s13.63,13.31-2,13.14c0,0-11.52-.89-10.4-11C576.65,155.37,585.38,148.2,589.08,153.25Z"/></g><g id="_2green_berry-2" data-name="2green_berry"><path class="cls-20" d="M533.48,239.53s24.85-18,10.31-43.53c0,0-18.3-33.47-46.32-19.76S533.48,239.53,533.48,239.53Z"/><path class="cls-15" d="M518.1,184.83s27.56,34.28,10.85,50.23L488.5,217.79l18.3-33S513.41,179.44,518.1,184.83Z"/><path class="cls-16" d="M504.37,174.35s16.68,0,11.1,20c0,0-8.71,13,1.87,23.11,0,0,5.36,7.29,2,15.28,0,0,17.22-6.91,18.94,1.78,0,0-10.83,14.19-33.05,12.35Z"/><path class="cls-17" d="M498.31,175.87c12.13-6.07,6.25,2.16,10.55,23.89,0,0,.15,17.77-8.37,20.94l-11.71,19.92s-19-12.74-13.21-45C475.57,195.58,478.6,181.93,498.31,175.87Z"/><path class="cls-18" d="M510.43,246.4s-29.2,5.34-21.69-18.28c0,0,7.59-16.4,24.42-6.64C513.16,221.48,529,235.06,510.43,246.4Z"/><path class="cls-19" d="M501,239.7s-17.36-7.85-2.58-13c0,0,11.12-3.1,13.54,6.8C511.93,233.46,506.18,243.18,501,239.7Z"/></g><path class="cls-21" d="M742.43,436.66s36.39,16.68,27.29,53.07c0,0-6.06,21.23-37.91,27.3,0,0-24.26,7.58-40.93-24.26,0,0-19.72-37.91,16.67-56.11C707.55,436.66,725.75,430.6,742.43,436.66Z"/><path class="cls-22" d="M696.18,478.36s13.65,12.13,18.2-3c0,0,3-16.68,21.23-16.68s25.77,21.23,25.77,21.23,7.42,12.35,9.78-2.93c0,0,4.55,24.6-26.87,36.51l-52.66-19.94Z"/><path class="cls-23" d="M762.9,490.49s-30.33,30.33-57.62,3c0,0-14.17-19.49-19.21-16.57,0,0,1.33,22.62,21.64,35.52,0,0,17,11.55,42.14-1.43,0,0,16-7.12,21.33-25.21C771.18,485.83,769,481.39,762.9,490.49Z"/><path class="cls-23" d="M741.67,437.42s-38.16,15.16-49.4,34.87l-6.2-14.1S698.54,432,722.38,434C722.38,434,738.64,431.36,741.67,437.42Z"/><path class="cls-24" d="M651.45,339.62s-37.9,7.58-27.29,42.46c0,0,6.06,19.71,22.74,16.68l41.07-47S678.75,333.56,651.45,339.62Z"/><path class="cls-25" d="M681,355.54s0-18.19-18.2-6.06c0,0-21.22,18.19-28.8,12.13,0,0-9.52-9.63-11.58,5.8,0,0-3.59,30.59,25.22,32.1Z"/><path class="cls-26" d="M635.53,370.71s4.55,4.54,12.13-1.52c0,0,33.36-28.81,30.33-13.65l-30.33,44s-19.23,3.13-24.78-22.69C622.88,376.82,621.89,363.12,635.53,370.71Z"/><path class="cls-27" d="M650.69,379.8s-10.61-4.55-13.64,1.52c0,0-6.82,12.52,1.14,16.87,0,0,9.72,3.18,17.18-9.12Z"/><path class="cls-28" d="M643.87,383.59s25.78-56.1,86.43-19.71c0,0,31.84,40.94-9.1,74.3,0,0-28.05,23.5-62.92-8.34C658.28,429.84,635.53,413.16,643.87,383.59Z"/><path class="cls-29" d="M685.57,355.54s-15.16,16.68,6.06,37.91c0,0,28.81,16.68,13.65,27.29,0,0-60.26.09-57.42-43.92,0,0-15.81,22.79,5.64,48.52,0,0,22.29,28.7,53.71,19.63,0,0,32.28-10,34.89-45.9,0,0,4.12-35.95-26.21-42.42C715.89,356.65,693.15,349.48,685.57,355.54Z"/><path class="cls-30" d="M647.66,410.13s-1.51-15.16,12.13,0c0,0,19.71,30.32,62.17,15.16,0,0,10.61-10.61,12.13-25.78,0,0,6.06-16.67,7.58,0,0,0-1.74,36.42-42.56,47C699.11,446.53,659.79,446.52,647.66,410.13Z"/><path class="cls-31" d="M715.89,364.64s-15.16,9.1,0,19.71c0,0,18.2,10.62,19.72,0C735.61,384.35,735.61,363.12,715.89,364.64Z"/><path class="cls-32" d="M725,370.71s-9.1-1.52-9.1,6.06c0,0,1.52,7.58,12.13,6.07C728,382.84,734.09,376.77,725,370.71Z"/><path class="cls-28" d="M163.46,480.72S111.56,447.29,80,510.59c0,0-4.81,51.64,47.64,57.74,0,0,36.29,4.72,48.56-40.88C176.2,527.45,186.4,501.16,163.46,480.72Z"/><path class="cls-29" d="M113.22,479.5s21.76,5.9,15.28,35.22c0,0-15.31,29.56,3.18,30.35,0,0,50.85-32.34,24.78-67.92,0,0,25.59,10.71,21.34,43.94,0,0-3.35,36.18-34.72,45.44,0,0-32.56,9-54.09-19.93,0,0-22.81-28.08-.73-49.85C88.26,496.75,103.57,478.47,113.22,479.5Z"/><path class="cls-30" d="M174.54,505.12s-6.88-13.59-10.22,6.53c0,0-.31,36.17-44.25,46.22,0,0-14.66-3.23-24.09-15.2,0,0-14.09-10.8-6.39,4.08,0,0,21,29.76,61.17,16.74C150.76,563.49,183.89,542.33,174.54,505.12Z"/><path class="cls-31" d="M92.56,503.48s17.67-.48,10.6,16.62c0,0-9.63,18.74-16.62,10.6C86.54,530.7,75.12,512.81,92.56,503.48Z"/><path class="cls-32" d="M88.15,513.49s6.85-6.17,10.93.22c0,0,2.8,7.21-7,11.64C92.12,525.35,83.74,523.5,88.15,513.49Z"/><path class="cls-33" d="M602.17,504.14s3,40.94,53.07,36.39c0,0,44.11-14.28,46.32-51.11l-92.75-17.13S597.62,489,602.17,504.14Z"/><path class="cls-34" d="M603.69,498.07s6.07,34.88,44,25.78c0,0,49.26-12.07,43.58-54.55l-75.42-7.62S597.62,484.43,603.69,498.07Z"/><path class="cls-35" d="M673.44,446.52s37.9,22.74,4.55,51.55c0,0-21.23,21.23-54.59,12.13,0,0-33.36-12.13-7.58-48.52L629.65,451S640.08,432.87,673.44,446.52Z"/><path class="cls-36" d="M635.53,446.52l-19.71,15.16S599.14,493.52,632.5,489c0,0,37.91-6.06,37.91-30.32C670.41,458.65,673.44,437.42,635.53,446.52Z"/><path class="cls-37" d="M680.92,452.4s28.91,16.86,18.29,47.19c0,0-8.05,19.31-38.9,19.51,0,0-20,3.54,6.8-22S680.92,452.4,680.92,452.4Z"/><g id="_1leaf-5" data-name="1leaf"><path class="cls-9" d="M442.21,420s-36.39-4.54-9.1-81.87c0,0,56.1-147.08,189.53-168.31,0,0,90.22-2.27,100.83,22,0,0,18.2,81.87-21.22,125.85,0,0-136.47,118.27-200.15,127.36C502.1,445,435.38,458.65,442.21,420Z"/><path class="cls-10" d="M711.34,194.82S605.21,255.47,538.49,326.73c0,0-70.56,70.88-75.46,71.83,0,0-11,13.08,13.29-.56,0,0,197.12-181.95,233.51-194.08C709.83,203.92,731.06,187.24,711.34,194.82Z"/><g id="midtonw-5" data-name="midtonw"><path class="cls-11" d="M517.26,235.76s-7.58,74.3-4.55,92.49c0,0,12.13,19.71-12.13,24.26,0,0-16.67,10.61-24.26-18.19,0,0-6.06-45.49,6.07-68.24,0,0,17.39-33.76,35.23-41.14C517.62,224.94,521.81,225.14,517.26,235.76Z"/><path class="cls-11" d="M539,206.94s-21.77,13.66-21.77,80.37c0,0-3,44,10.62,33.36,0,0,40.94-24.26,39.42-47,0,0-1.52-57.61,7.58-81.87C574.88,191.79,579,178.13,539,206.94Z"/><path class="cls-11" d="M468.74,293.38s-4.55,72.78,3,95.52c0,0-10.46,28.81-38.58,26.54,0,0-15.47-12.82-9.67-38.63,0,0,5.8-13.69,17.93-22.78,0,0,7.58-15.17,10.61-28.81C452.06,325.22,467.23,275.18,468.74,293.38Z"/><path class="cls-11" d="M567.3,273.66s1.52,24.26,16.68,9.1c0,0,21.23-21.23,27.29-21.23a53.15,53.15,0,0,0,15.34-6.09s30.15-25.75,31.67-48.49c0,0,0-31.84-30.33-25.78,0,0-12.13,1.52-10.61-4.55,0,0,.81-7-14-2.76,0,0-22.39,7.31-25.43,25.51C577.91,199.37,567.3,243.34,567.3,273.66Z"/><path class="cls-11" d="M670.41,225.14s13.64-13.64,13.64,0c0,0,3,30.33-21.23,30.33,0,0-16.67,0-24.26-3,0,0,25.78,6.06,19.72,21.22,0,0-11.61,28.81-58.12,19.72,0,0,2,4.54,29.31,10.61,0,0,21.22,4.55,13.64,13.65,0,0-28.81,21.22-87.94,16.68,0,0-6.07,3,27.29,7.58,0,0,16.68,3,13.65,10.61,0,0-16.65,12.73-63.67,16.22l-15.18-4.09s-6.06-4.55,7.58-16.68c0,0,40.94-44,57.62-51.55,0,0,7.63-5.2,12.91-9.42,0,0,29.55-30,52.29-40.62C647.66,246.37,658.28,241.82,670.41,225.14Z"/><path class="cls-11" d="M537,382.84s27.3,4.54,30.33,3c0,0,28.81,1.51-56.1,13.64,0,0-21.23-3-36.39,4.55,0,0-12.13,4.55,1.51-12.13,0,0,34.56-29.61,43.06-38.31l7.76,16.49s-21.89,1.37-14.37,7.05Z"/><path class="cls-11" d="M671.92,179.66s-16.68,19.71,0,39.42c0,0,7.58,4.55,9.1-12.13,0,0,1.52-16.68,10.61-18.2,0,0,12.13-4.55-6.06-10.61C685.57,178.14,675,175.11,671.92,179.66Z"/></g><g id="highlight-5" data-name="highlight" class="cls-12"><path class="cls-13" d="M621.89,261.53s30.32-36.39,25.77-57.61-30.32,4.55-30.32,4.55S608.24,250.92,621.89,261.53Z"/><path class="cls-13" d="M591.56,293.38s21.23,12.13,31.84,12.13c0,0,10.62,3-34.87,15.16,0,0-27.3,9.1-34.88,7.58C553.65,328.25,541.52,328.25,591.56,293.38Z"/><path class="cls-13" d="M638.56,252.44s-44,28.81-47,40.94c0,0,22.74,3,39.42-10.62C631,282.76,653.73,257,638.56,252.44Z"/><path class="cls-13" d="M544.56,334.32s-28.81,27.29-27.3,30.32,0,10.61,27.3,0c0,0,30.32-13.65,39.42-13.65,0,0,12.13-3-6.07-7.58C577.91,343.41,550.62,340.38,544.56,334.32Z"/><path class="cls-13" d="M537,382.84s-33.35-6.07-33.35-10.62c0,0-16.68,15.16,0,19.71C503.62,391.93,549.1,395,537,382.84Z"/><path class="cls-13" d="M496,414.68s-30.33-3-31.85-7.58c0,0-18.19,12.13,7.58,16.67C471.77,423.77,496,423.77,496,414.68Z"/><path class="cls-13" d="M565.78,203.92s-10.61,44-6.06,66.71c0,0,0,22.75-13.65,22.75,0,0-15.16,0-15.16-18.2,0,0,0-51.55,16.68-65.2C547.59,210,573.36,188.75,565.78,203.92Z"/><path class="cls-13" d="M512.71,246.37s-10.61,66.72-3,92.49c0,0-1.51,15.17-22.74,0,0,0-9.1-19.71,0-59.13C486.94,279.73,514.23,214.53,512.71,246.37Z"/><path class="cls-13" d="M462.68,344.93s0,30.32,3,37.91c0,0-3,30.32-31.84,24.26,0,0-16.68-7.59,6.06-34.88,0,0,13.65-13.64,13.65-27.29C453.58,344.93,458.13,322.19,462.68,344.93Z"/><path class="cls-13" d="M584,194.82s-15.16,59.13-6.07,80.36c0,0,1.52,10.61,16.68-9.1,0,0,7.58-9.09,12.13-9.09,0,0,7.58,3,0-21.23,0,0-1.51-42.46,7.58-48.52,0,0,7.59-12.13-12.13-6.07C602.17,181.17,585.49,188.75,584,194.82Z"/><path class="cls-13" d="M670.41,225.14s-16.68,21.23-22.75,21.23,28.81,9.1,30.33-15.16C678,231.21,678,223.63,670.41,225.14Z"/></g><path id="shadow-5" data-name="shadow" class="cls-10" d="M727.25,221.54s-16.66,13.46-39.41-.19c0,0-30.36-.91,39.41,24.57,0,0-19.7,16.37-51.54,16.37,0,0-21.23,1.52,6.07,10.62,0,0,19.71,7.58,24.26,7.58,0,0,13.64,15.16-56.1,13.64,0,0-24.26,3-9.1,9.1,0,0,56.1,15.16,37.91,21.23,0,0-40.94,15.83-87.19,9.43,0,0-20.47,2.7,3.79,10.28,0,0,44,7.58,54.59,3,0,0-10.62,25.78-66.72,24.26,0,0-30.32,0-25.78,7.59,0,0,9.28,7.33,13.74,7.45,0,0,24.17,3.16,30.24.13,0,0-16.68,19.71-57.62,21.22,0,0-60.65-6.06-56.1,3,0,0,27.29,12.13,53.06,9.09,0,0-30.22,24.91-98.5,10.18,0,0,7.09,33.58,83.88,7.91,0,0,46.73-20.78,80-46,0,0,65.27-46.07,83.36-63.68,0,0,12.21-6.82,18.18-17.52C707.64,310.9,731.78,282.38,727.25,221.54Z"/></g><g id="_1leaf-6" data-name="1leaf"><path class="cls-9" d="M388.29,456.12s33.61-14.68,49.63,65.75c0,0,26.86,155.11-77,241.49,0,0-76.4,48-97.92,32.58,0,0-57.45-61.11-46-119.05,0,0,57-171.36,107.06-211.7C324,465.19,374.41,419.39,388.29,456.12Z"/><path class="cls-10" d="M271.85,787.14s60.29-106.34,81.27-201.68c0,0,24.48-97,28.21-100.29,0,0,2.74-16.85-11.15,7.27,0,0-76.57,257.09-101.67,286.1C268.51,778.54,258.78,803.72,271.85,787.14Z"/><g id="midtonw-6" data-name="midtonw"><path class="cls-11" d="M417.82,652.84S386.4,585.09,374.51,571c0,0-20.5-10.75-2-27,0,0,8.92-17.64,30.15,3.25,0,0,28.44,36,29.62,61.77,0,0,2.29,37.9-9.28,53.36C423,662.32,419.33,664.29,417.82,652.84Z"/><path class="cls-11" d="M413.82,688.73s11.75-22.85-22.32-80.22c0,0-19.85-39.35-26.16-23.26,0,0-22.81,41.76-9.89,60.55,0,0,30.72,48.76,35.29,74.27C390.74,720.07,394.17,733.91,413.82,688.73Z"/><path class="cls-11" d="M430.12,578.52s-33.25-64.9-51.38-80.58c0,0-5.72-30.11,19.63-42.52,0,0,19.84,3.12,28,28.28,0,0,2,14.72-3.78,28.74,0,0,1.22,16.91,5.58,30.19C428.2,542.63,440.72,593.39,430.12,578.52Z"/><path class="cls-11" d="M355.45,645.8s-13.7-20.09-19,.69c0,0-7.41,29.09-12.63,32.19a53.18,53.18,0,0,0-10.07,13.07s-12.78,37.53-2.47,57.86c0,0,16.26,27.38,39.23,6.68,0,0,9.66-7.5,11.45-1.51,0,0,2.9,6.47,13.45-4.77,0,0,15.52-17.72,8.84-34.91C384.26,715.1,370.93,671.87,355.45,645.8Z"/><path class="cls-11" d="M291.57,740.16s-4.77,18.7-11.73,7c0,0-18.1-24.53,2.76-36.91,0,0,14.34-8.52,22.41-9.78,0,0-25.26,7.94-27.79-8.19,0,0-4.73-30.7,39.91-46.62,0,0-4.06-2.89-30.62,5.83,0,0-20.58,6.93-18.7-4.76,0,0,13.93-33,67.1-59.25,0,0,3.66-5.7-27.34,7.42,0,0-15.89,5.91-17.15-2.16,0,0,7.81-19.44,46.46-46.45L352,542s7.54.82,2,18.22c0,0-12.75,58.71-23.21,73.74,0,0-3.91,8.36-6.29,14.7,0,0-10.09,40.88-24.22,61.62C300.29,710.3,293.48,719.63,291.57,740.16Z"/><path class="cls-11" d="M325.78,536.44s-25.79,10-27.63,12.88c0,0-25.54,13.41,41.27-40.38,0,0,19.8-8.23,29-22.49,0,0,8.11-10.11,4.89,11.2,0,0-14.59,43.12-17.46,54.93l-15.09-10.21S358.85,530,349.48,529Z"/><path class="cls-11" d="M313.49,780.05s4.28-25.47-20.13-33.9c0,0-8.84,0-1.63,15.08,0,0,7.22,15.11.17,21.06,0,0-8.11,10.1,10.63,6C302.53,788.32,313.21,785.51,313.49,780.05Z"/></g><g id="highlight-6" data-name="highlight" class="cls-12"><path class="cls-13" d="M314.71,684.1s-7.5,46.77,7.25,62.7,23.75-19.4,23.75-19.4S331.86,686.26,314.71,684.1Z"/><path class="cls-13" d="M324.52,641.24s-24.44.4-33.57,5.82c0,0-10.67,2.82,22.24-30.84,0,0,18.82-21.76,26.12-24.33C339.31,591.89,349.74,585.7,324.52,641.24Z"/><path class="cls-13" d="M305,700.44s23.1-47.23,19.51-59.2c0,0-21.1,9-28.48,29.25C296,670.49,289.65,704.27,305,700.44Z"/><path class="cls-13" d="M344,582s10.84-38.17,8-40-5.42-9.12-23.46,13.94c0,0-19.11,27.22-26.93,31.86,0,0-8.88,8.8,9.09,3.43C310.71,591.25,335.72,579.92,344,582Z"/><path class="cls-13" d="M325.78,536.44s31.77-11.81,34.1-7.9c0,0,6.6-21.56-10.07-16.95C349.81,511.59,309.15,532.21,325.78,536.44Z"/><path class="cls-13" d="M344.72,488.16s27.62-12.87,31.25-9.74c0,0,9.45-19.72-15-10.47C360.93,468,340.07,480.34,344.72,488.16Z"/><path class="cls-13" d="M392.36,705S379,661.76,363.51,644.53c0,0-11.61-19.55.12-26.52,0,0,13-7.74,22.33,7.9,0,0,26.32,44.33,19,64.58C404.91,690.49,393.59,721.9,392.36,705Z"/><path class="cls-13" d="M416.31,641.39s-24.94-62.78-44.62-81.07c0,0-6.43-13.82,19.56-11.62,0,0,17.89,12.31,30.19,50.85C421.44,599.55,431.27,669.54,416.31,641.39Z"/><path class="cls-13" d="M409,531.1s-15.48-26.07-22-31c0,0-12.88-27.63,15-37.12,0,0,18.21-2,12.59,33.08,0,0-4.76,18.7,2.2,30.44C416.83,526.46,424.54,548.33,409,531.1Z"/><path class="cls-13" d="M381.36,722.1s-17.15-58.58-35.81-72.19c0,0-6.73-8.35-9.7,16.34,0,0-1.87,11.69-5.78,14,0,0-8.07,1.26,10.83,18.25,0,0,23,35.73,18.26,45.59,0,0-.32,14.3,13.53-1C372.69,743.13,383.16,728.09,381.36,722.1Z"/><path class="cls-13" d="M291.57,740.16s3.5-26.77,8.72-29.86-29.42,6.88-18.34,28.52C282,738.82,285.82,745.34,291.57,740.16Z"/></g><path id="shadow-6" data-name="shadow" class="cls-10" d="M244.54,772.29s7.45-20.09,34-20c0,0,26.57-14.71-46.42-1,0,0,8.57-24.14,36-40.4,0,0,17.48-12.14-10.64-6,0,0-20.82,3.55-24.73,5.87,0,0-19.47-6.07,41.27-40.38,0,0,19.31-15,3.18-12.47,0,0-56,15.61-43.43,1.11,0,0,27.11-34.52,70.14-52.63,0,0,16.23-12.77-8.5-6.9,0,0-41.68,15.93-48.49,25.26,0,0-4-27.58,45-54.92,0,0,26.07-15.49,18.29-19.68,0,0-11.72-1.58-15.62.6,0,0-22.39,9.63-26.06,15.33,0,0,4.28-25.46,38.7-47.67,0,0,55.25-25.76,46.69-31.26,0,0-29.66,3.51-50.27,19.28,0,0,13.27-36.85,79.5-59.05,0,0-23.24-25.26-76.16,36,0,0-29.57,41.73-45.28,80.35,0,0-32.6,73-39.16,97.32,0,0-7,12.1-6.69,24.35C215.76,685.44,209.58,722.29,244.54,772.29Z"/></g><g id="_2green_berry-3" data-name="2green_berry"><path class="cls-14" d="M548.16,149.68s-3.6,33-35.45,33c0,0-41.28.7-43.38-33S548.16,149.68,548.16,149.68Z"/><path class="cls-15" d="M488.45,164.49s47,7.58,53.07-16.68L503.62,119l-21.23,34.87S480.87,163,488.45,164.49Z"/><path class="cls-16" d="M465.71,143.69s9.1,23.84,30.33,13.22c0,0,7.58-15.16,22.74-10.61,0,0,9.73,1.14,15.48-6.25,0,0,2.71,19.89,11.81,16.86,0,0,7.55-17.79-6.08-37.7Z"/><path class="cls-17" d="M474.81,137.45s0,18,22.74,10.36c0,0,16.8-9.37,15.22-19.09L525.25,107s-23.15-10.78-50.44,12Z"/><path class="cls-18" d="M542.28,124.31S531.67,94,513.47,113.7c0,0-11.37,15.92,6.83,26.53C520.3,140.23,541.52,147.81,542.28,124.31Z"/><path class="cls-19" d="M530.91,119s-16.68-12.13-13.65,4.54c0,0,3,12.13,13.65,9.1C530.91,132.65,537,122,530.91,119Z"/></g><g id="_1green_berry" data-name="1green_berry"><path class="cls-20" d="M423.25,149.33S449,169,477.84,143.27l7.58-19.72-75.06,7.67S412.64,143.27,423.25,149.33Z"/><path class="cls-38" d="M408.09,114.46s0,33.35,16.68,28.81c0,0,15.16-9.1,22.74-1.52,0,0,10.62,10.61,37.91-18.2a35.67,35.67,0,0,0-7.18-25.9C468.74,85.65,408.09,114.46,408.09,114.46Z"/><path class="cls-39" d="M413,113.11s-.32,25.61,13.33,21.06c0,0,7.58-1.52,10.61-6.07,0,0,6.07-6.06,10.61,0,0,0,6.07,7.58,13.65,0,0,0,7.58-6.06,10.61,0,0,0,10.62-9.09,10.62-19.71,0,0,0-9.59-10.62-16.92Z"/><path class="cls-40" d="M443,82.62s27.29-4.55,34.87,19.71c0,0,6.07,18.19-28.81,18.19,0,0-18.19-4.55-19.71,6.07,0,0-13,10.71-12.57-15.87l10.37-26.87S433.87,85.65,443,82.62Z"/><path class="cls-41" d="M408.85,97s18.2-27.29,19.71-7.58c0,0-5.31,23.5-20.47,25C408.09,114.46,400.51,112.94,408.85,97Z"/></g><g id="_1green_berry-2" data-name="1green_berry"><path class="cls-20" d="M177.13,498.6s26,19.87,55-6.11l7.64-19.87-75.64,7.73S166.43,492.49,177.13,498.6Z"/><path class="cls-38" d="M161.85,463.45s0,33.62,16.81,29c0,0,15.28-9.17,22.92-1.53,0,0,10.7,10.7,38.2-18.34a35.94,35.94,0,0,0-7.23-26.1C223,434.42,161.85,463.45,161.85,463.45Z"/><path class="cls-39" d="M166.75,462.09s-.32,25.81,13.43,21.23c0,0,7.65-1.53,10.7-6.12,0,0,6.11-6.11,10.7,0,0,0,6.11,7.65,13.75,0,0,0,7.64-6.11,10.7,0,0,0,10.7-9.16,10.7-19.86,0,0,0-9.67-10.7-17.06Z"/><path class="cls-40" d="M197,431.36s27.51-4.59,35.15,19.87c0,0,6.12,18.33-29,18.33,0,0-18.34-4.58-19.87,6.12,0,0-13.11,10.8-12.67-16L181,432.61S187.83,434.42,197,431.36Z"/><path class="cls-41" d="M162.61,445.88s18.34-27.51,19.87-7.64c0,0-5.35,23.68-20.63,25.21C161.85,463.45,154.21,461.92,162.61,445.88Z"/></g><g id="_1green_berry-3" data-name="1green_berry"><path class="cls-20" d="M282.75,509.58S258,524,235.65,498.26l-4.46-18.09,64.83,15S292.7,505.44,282.75,509.58Z"/><path class="cls-38" d="M299.86,480.73s-3.68,29.19-17.77,23.37c0,0-12.27-9.63-19.74-3.83,0,0-10.45,8.12-31.16-20.1a31.45,31.45,0,0,1,9.13-21.87c5.87-5.77,34.81-13.4,50.19-5C300.36,458.63,299.86,480.73,299.86,480.73Z"/><path class="cls-39" d="M295.74,479s-2.54,22.45-14,17c0,0-6.46-2.16-8.62-6.47,0,0-4.64-6-9.28-1.17,0,0-6.15,6-12-1.5,0,0-6-6.15-9.28-1.17,0,0-8.29-9.13-7.12-18.42,0,0,1.05-8.39,11.15-13.64,0,0,20.31-16.77,46.33,1.33C300.12,462.57,295.74,479,295.74,479Z"/><path class="cls-40" d="M272.85,449s-23.39-7-32.69,13.41c0,0-7.31,15.26,23.2,19.1,0,0,8.22-6.38,16.59,7.48s19-17.16,16.19-26.95-9.57-10.21-9.57-10.21S280.47,452.68,272.85,449Z"/></g><path class="cls-33" d="M182.64,536.81s-3.57,35.11,39.47,38.76c0,0,39.47-5.47,46.86-36.32L193,510.85S181.06,523.29,182.64,536.81Z"/><path class="cls-34" d="M184.83,531.9s-.09,30.43,33.36,28.41c0,0,43.5-2.82,45.07-39.64l-62.7-17.75S181.75,519.44,184.83,531.9Z"/><path class="cls-35" d="M251.6,498.72s28.68,24.94-3.88,44.32c0,0-21.15,14.79-48,2.09,0,0-26.42-15.27.86-42.21l13.3-6.93S225.41,482.17,251.6,498.72Z"/><path class="cls-36" d="M219.51,493l-18.95,9.88s-18.89,24.45,10,25.6c0,0,33,.55,36.64-20C247.22,508.53,253,491,219.51,493Z"/><path class="cls-37" d="M257.05,504.82s21.94,18.61,8.41,42.69c0,0-9.71,15.13-35.85,10.68,0,0-17.45,0,9.06-17.61S257.05,504.82,257.05,504.82Z"/><path class="cls-31" d="M232.85,501s14.51,10.1-1.34,19.66c0,0-18.87,9.36-19.66-1.33C211.85,519.31,213.28,498.13,232.85,501Z"/><path class="cls-32" d="M223.36,506.41s9.18-.89,8.67,6.67c0,0-2,7.46-12.52,5.23C219.51,518.31,213.87,511.85,223.36,506.41Z"/><path class="cls-33" d="M383.27,412.5s-2.76,31.77,30.62,35.07c0,0,30.61-4.95,36.34-32.86L391.33,389S382.05,400.27,383.27,412.5Z"/><path class="cls-34" d="M385,408.06s-.08,27.54,25.87,25.71c0,0,33.74-2.56,34.95-35.88l-48.63-16.06S382.58,396.78,385,408.06Z"/><path class="cls-35" d="M436.76,378s22.24,22.56-3,40.11c0,0-16.4,13.38-37.24,1.88,0,0-20.49-13.81.66-38.19l10.32-6.28S416.45,363.05,436.76,378Z"/><path class="cls-36" d="M411.87,372.89l-14.7,8.94S382.52,404,405,405c0,0,25.59.49,28.41-18.09C433.36,386.91,437.82,371.06,411.87,372.89Z"/><path class="cls-37" d="M441,383.55s17,16.84,6.52,38.63c0,0-7.53,13.7-27.8,9.67,0,0-13.54,0,7-15.94S441,383.55,441,383.55Z"/><path class="cls-31" d="M422.22,380.07s11.25,9.14-1,17.8c0,0-14.63,8.47-15.25-1.21C405.93,396.66,407,377.5,422.22,380.07Z"/><path class="cls-32" d="M414.86,385s7.12-.81,6.72,6c0,0-1.57,6.76-9.71,4.74C411.87,395.76,407.5,389.91,414.86,385Z"/><path class="cls-33" d="M384,432.72s21.73-1.58,23.22,25c0,0-4.08,24.26-23.25,28.27l-16.17-47.37S375.71,431.51,384,432.72Z"/><path class="cls-34" d="M381,434s18.78.48,16.94,21.09c0,0-2.51,26.79-25.26,27.11l-9.84-39S373.32,431.86,381,434Z"/><path class="cls-35" d="M359.29,474.6s14.88,18.14,27.42-1.6a30.76,30.76,0,0,0,2.14-29.6s-9-16.58-26.06-.22l-4.52,8.08S349.54,458.14,359.29,474.6Z"/><path class="cls-36" d="M356.35,454.7l6.44-11.52s15.42-11.23,15.62,6.64c0,0-.25,20.37-13,22.25C365.42,472.07,354.51,475.31,356.35,454.7Z"/><path class="cls-37" d="M363,478.07S374.05,492,389.15,484c0,0,9.51-5.72,7.23-21.93,0,0,.31-10.77-11,5.27S363,478.07,363,478.07Z"/><path class="cls-31" d="M361,463.07s6,9.13,12.16-.47c0,0,6.11-11.48-.48-12.17C372.7,450.43,359.61,450.94,361,463.07Z"/><path class="cls-32" d="M364.54,457.31s-.72,5.65,4,5.47c0,0,4.64-1.12,3.45-7.63C372,455.15,368.06,451.55,364.54,457.31Z"/><path class="cls-28" d="M424.2,446.74s15-32.6,50.21-11.46c0,0,18.5,23.79-5.29,43.17,0,0-16.29,13.65-36.55-4.85C432.57,473.6,419.35,463.91,424.2,446.74Z"/><path class="cls-29" d="M448.42,430.44s-8.81,9.69,3.53,22c0,0,16.73,9.69,7.93,15.86,0,0-35,.05-33.37-25.52,0,0-9.18,13.24,3.28,28.19,0,0,12.95,16.67,31.21,11.41,0,0,18.75-5.79,20.26-26.67,0,0,2.4-20.89-15.22-24.65C466,431.08,452.83,426.92,448.42,430.44Z"/><path class="cls-30" d="M426.4,462.15s-.88-8.81,7.05,0c0,0,11.45,17.62,36.12,8.81,0,0,6.16-6.17,7-15,0,0,3.53-9.69,4.41,0,0,0-1,21.15-24.73,27.31C456.29,483.3,433.45,483.29,426.4,462.15Z"/><path class="cls-31" d="M466,435.73s-8.81,5.28,0,11.45c0,0,10.57,6.16,11.45,0C477.49,447.18,477.49,434.84,466,435.73Z"/><path class="cls-32" d="M471.33,439.25s-5.29-.88-5.29,3.52c0,0,.88,4.41,7,3.53C473.09,446.3,476.61,442.77,471.33,439.25Z"/></g></g></svg>