<svg xmlns="http://www.w3.org/2000/svg" viewBox="0 0 864 864"><defs><style>.cls-1{fill:#2a4024;}.cls-2{fill:#83a55c;}.cls-3{fill:#6f9236;}.cls-4{fill:#3f5f07;}.cls-5{fill:#49810a;}.cls-6{fill:#7d9441;}.cls-7{fill:#557602;}.cls-8{fill:#628607;}.cls-9{fill:#477005;}.cls-10{fill:#3b6305;}.cls-11{fill:#bad18c;opacity:0.52;}.cls-12{fill:#8bb165;}.cls-13{fill:#558414;}.cls-14{fill:#719647;}.cls-15{fill:#4c771d;}.cls-16{fill:#eefdfd;}.cls-17{fill:#c5d0cc;}.cls-17,.cls-23{opacity:0.74;}.cls-18{fill:#cbdcd0;}.cls-19{fill:#aab09e;}.cls-20{fill:#acbb97;}.cls-21{fill:#e0f0ea;}.cls-22{fill:#c6d3bf;}.cls-23{fill:#95af7c;}.cls-24{fill:#afb88a;opacity:0.66;}.cls-25{fill:#e6f3ef;}.cls-26{fill:#d2dccc;}.cls-27{fill:#b1bcac;}.cls-28{fill:#929f84;opacity:0.73;}.cls-29{fill:#bcc9b7;}.cls-30{fill:#ccdcd7;}.cls-31{fill:#d7e7df;}.cls-32{fill:#abbbb2;}.cls-33{fill:#8b917b;}.cls-34{fill:#d2d7c8;}.cls-35{fill:#bec9bf;}.cls-36{fill:#979f5a;}.cls-37{fill:#bca56c;}.cls-38{fill:#b29967;}.cls-39{fill:#bca960;}.cls-40{fill:#d9d7b0;}.cls-41{fill:#bdad86;}.cls-42{fill:#c68d53;}.cls-43{fill:#ad7634;}.cls-44{fill:#d1d7b1;}</style></defs><title>rubiaceae</title><g id="randiaAculeata"><circle class="cls-1" cx="431" cy="432" r="432"/><path class="cls-2" d="M298.41,569S292.56,657.16,331.65,700c0,0,44.28,42.85,60.93,34.68,0,0,24.91-1.89,40.39,8.6,0,0,42.35,23.14,74-49.22,0,0,13.11-89.1,4.51-185.62,0,0-8.16-87.7-25.84-81.61,0,0-65.6,34.77-85.28,31.51Z"/><path class="cls-3" d="M349.62,586.54s.4,85.05,38.62,105.05c0,0,22.67,19.87,33.31-16.35,0,0,2.74-58.72,47.78-63.75l17.24,106.77L469.83,736.8l-37.39,8s-27.93-9.54-37.28-7.54c0,0-14.58,7.15-33.12-9.58l-24.75-18.86s-29.9-24.08-32.69-66.62Z"/><path class="cls-4" d="M310.85,639.15s68.63-23.34,167-208.36c0,0-55.77,29.77-77.53,27.53L296.86,568.51s1.65,56,7.7,73.9Z"/><path class="cls-5" d="M497.58,437.78S471.83,472.34,472.3,547c0,0-7.22,132.7-3.17,146.21,0,0,15.32,31.23,1.8,35.28,0,0-13.55,9.23-30.13,7,0,0-17.63.91-6.28,8.25,0,0,23.25,10.49,46.49-10.57,0,0,25.58-25.68,27.75-53.42,0,0,9.25-117.81,3.76-158.35C512.52,521.45,508.37,462.22,497.58,437.78Z"/><path class="cls-6" d="M482.71,387.6s-29.29,27.15-98.22-17.84c0,0-109.79-71.82-193.11-24.55,0,0-79.94,54.13-93.06,92.52,0,0-8.62,8.49-24.07,16.07,0,0-31.81,22-19.14,43.47,0,0,30.42,49,46.65,51.67,0,0,24.75,7,31.48,20.76,0,0,8.46,12.9,46.88,21.74,0,0,52.09,10.65,77.84-2a330.13,330.13,0,0,1,52.29-15s71.57-21.27,105.39-82.6L452,440s11.24-16.17,28.41-24.59c0,0,29.12-5.77,20.76-31.49C501.12,383.89,492.63,375.28,482.71,387.6Z"/><path class="cls-7" d="M353.59,353.19S244.52,330,222,344.69l33.29,93.8,61-7.37s121.35-11.79,148-27c0,0,6.87-3.37-13.67-1.81,0,0-36.2-6-47.47-21.63C403.05,380.7,357.22,352.71,353.59,353.19Z"/><path class="cls-8" d="M102.32,530.56s24-3.24,31.75-13.45c0,0,53.9-3,115.12-69.26,0,0,36.06-17.69,17.79,23.22,0,0-19.14,43.48-38,52.74,0,0,55.94-46.61,82.73-83.19,0,0,20.73-27.21-15.87-49.72,0,0-32.4-13.93-43.41-27.7,0,0-12.64-25.75-22.94-20.7,0,0-18,6.45-24.38,2.25L190,361.88,80.23,511.57S86.9,533.86,102.32,530.56Z"/><path class="cls-9" d="M73.12,523.1s15.53,5.64,20-15.71c0,0,4.44-21.34,34.47-33.95,0,0,59.92-8.1,72.95-33.66,0,0,15.74-46.06,12.43-61.48,0,0-4.18-12.86-7.58-15.45,0,0-5.93-7.75.1-12.83,0,0,5.21-11.08-13.7,2.46,0,0-70.49,47.36-92.23,94.24L52.24,480.57s-2.58,8.36,6.7,22.63Z"/><path class="cls-10" d="M62.48,484.07s72-26.82,108-31.68c0,0,36.12-26.24,22.7-62.27,0,0,1-6.68-8.52-4.34C171.39,389,143,404.51,109.9,433.11c0,0-24.94,18.63-36.93,20.25,0,0-21.19,12.26-20.16,27.87C52.81,481.23,53.89,488.28,62.48,484.07Z"/><path class="cls-11" d="M156.26,523.26s85.67-36.18,105.76-83C262,440.22,222.41,484.42,156.26,523.26Z"/><path class="cls-11" d="M220.06,531.78s81.23-45.28,96.11-94C316.17,437.74,281.59,486,220.06,531.78Z"/><path class="cls-11" d="M269.72,524.46s81.23-45.28,96.11-94C365.83,430.42,331.25,478.66,269.72,524.46Z"/><path class="cls-11" d="M345.2,511.8s57.67-51,61.07-93.06C406.27,418.74,386.85,463.87,345.2,511.8Z"/><path class="cls-11" d="M450.3,432.26s4.37-12.8-17.07-4.41c0,0-14.61,9.3-15.52,16.14,0,0-33.85,65.6-48.43,70.62,0,0-12.08,14.45-2.69,16.23,0,0,10.27-.78,44-45Z"/><path class="cls-12" d="M472.93,134.55s134.88,20.33,109.28,137.28S469.52,431.15,469.52,431.15L428.74,426s-24.64-35.93-42.53-44.77-64.89-81.07-41.73-155.33C344.48,225.94,368.06,139.87,472.93,134.55Z"/><path class="cls-13" d="M427.31,150.2s1,35.08-22.36,64.73c0,0-28.05,58.6-13.73,103.26,0,0,13.52,54.19,23.79,59.57,0,0,26.62,19.16,23.48,43.17l-10.7,6.44s-19.21-35.19-36-42.67c0,0-48.36-28.18-53.2-102.15-3-61,23.75-98.65,50.91-119.33C389.49,163.22,420.87,139.5,427.31,150.2Z"/><path class="cls-14" d="M468.9,134.8S430,138,439.44,167c0,0,12.14,16.82,27.74,26,0,0,28.16,14.21,20.39,53.07,0,0-33.43,68.88-27.79,89.11l9.31,46.34,52-16.37,38.11-97.84-34-79.05,14.21-28.16S496,131.16,468.9,134.8Z"/><path class="cls-15" d="M539.44,160.84s-81.58-25-77.85-2.13a30.67,30.67,0,0,0,16.71,16.08s32.74,13.47,39.45,54.67c0,0,8.83,83.15-32.85,115.78,0,0-20,36.14-16.18,44.92l44.4,8.29s41.58-36.7,63.72-105.93c0,0,19.34-50.68,1-87.29C577.86,205.23,565.4,176.11,539.44,160.84Z"/><g id="petals"><path class="cls-16" d="M491.11,399s19.45-25.64,2.27-46.13c-4.78-6.53-5.74-7.46-5.78-11.22-.85-4.64-3-11.19-3-17.84,0,0-4.05-24.41-26.63-24.14,0,0-13.15,2-16.84,7.72a22.83,22.83,0,0,1-9.39,2s-5.64.07-9.36,3.87a25.59,25.59,0,0,1-13.17.16s-22.58.27-22.51,5.92c0,0-1.66,18.83,7.84,26.25,0,0,23.71,15.71,25.68,23.21,0,0,7.87,28.13,38,31.53S491.11,399,491.11,399Z"/><path class="cls-17" d="M393.26,320.19s40.68,7.38,44.62-11.65c0,0-10.92-1.93-16.49,3.78a25.59,25.59,0,0,1-13.17.16s-22.58.27-20.61,7.78C387.61,320.26,389.52,322.11,393.26,320.19Z"/><path class="cls-18" d="M471,302.92s-21.45-.34-21.3,12.83c0,0,4,20.65,15.51,37.45,0,0,3.83,5.6-5.63,1.95,0,0-7.59-5.56-7.5,2,0,0,.72,14,8,12.54l11.2,15.46,19,12.94s15.66-14,8.39-39c0,0-11.6-11.1-12.33-23.66C486.22,335.41,484.92,307.12,471,302.92Z"/><path class="cls-19" d="M478.83,310.31s-12.42-9.81-12.26,3.36l.2,16.93A38.38,38.38,0,0,0,484,351.09s9.7,3.07,9.43,1.77c-1-4.69-.86-2.24-2.93-8.43-1.6-4.82-3.83-5.6-3.54-9.16A100.68,100.68,0,0,0,483.59,321S483.66,314.57,478.83,310.31Z"/><path class="cls-20" d="M421.32,371.92s17.88,13.58,38.55,11.45c0,0-5.87-18.75,7.35-15.14,0,0,7.59,5.55,7.68,13.08,0,0,6.57,11.56,23.94,1.77,0,0-3.09,11.15-8.68,15,0,0-3.9,7.57-40.57.49C449.59,398.55,428.27,390,421.32,371.92Z"/><path class="cls-21" d="M515.49,474.55s30.89,27.81,37.31,44.36c0,0,17.72,29.7,33.89,20.65,0,0,19.56-4.16,20.3-17.71,0,0,5.24-19.57,24-38.41,0,0,18.42-12.07,10.13-23,0,0-5.28-8.65-14.69-8.64,0,0-9.79-2.62-14.31-6,0,0-9.61-10.72-19.38-3.93,0,0-5.65-1.87-12.8-4.88,0,0-24.48-11.25-33.52-18,0,0-15.81-7.13-33.87-1.84,0,0-20.31,8.31-18,24.11,0,0-5.63,16.94,10.57,26.71A29.58,29.58,0,0,1,515.49,474.55Z"/><path class="cls-18" d="M637.32,478.14s1.77-13.34-12.16-16.71c0,0-19.94,1.53-24.84-4.49a8.22,8.22,0,0,0-9.41,0s-8.26,7.91-12,.39c0,0-4.15-10.16-10.54-7.89,0,0-7.53,3.77-9.4,9.42,0,0-1.87,5.64-6,4.9,0,0-10.54,1.52-7.15,6.4,0,0,2.73,8.76-6.72,8.91l-17-14.9,22.45-45.94L565.45,430s24.69,12.32,27.33,11.94c0,0,7.46-8.67,20.49,4.67,0,0,10.8,4.86,14.73,5.34,0,0,10.88,1.91,15.13,12.85C643.13,464.76,646.06,471.14,637.32,478.14Z"/><path class="cls-22" d="M519.06,471.35s29.75,19.9,18.43-2.66c0,0-3.78-16.93,4.5-15.44,0,0,5.65,1.88,3.38-4.52,0,0-8.67-13.53-3.4-14.29,0,0,30.54,2,18.83-6.89,0,0-16.51-11-25.78-11.66,0,0-19.33-3.29-31.22,6.53,0,0-18.58,11.43-10.13,27.37,0,0,.5,13.54,13.13,18.86C506.8,468.65,516,469.09,519.06,471.35Z"/><path class="cls-23" d="M554.4,521.39s15.54,13.87,26.82,8.21c0,0,4.89-3.4,7.9-1.14,0,0,3,2.25,8.65-5.28,0,0,17.68-27.09,24.62-29.94,0,0-14.37,20.88-15.91,31.61,0,0-2.34,9.26-14.92,13.22,0,0-12,6.37-19.66.84C571.9,538.91,559.59,530.08,554.4,521.39Z"/><path class="cls-24" d="M502.1,456.31s7.92,8.27,7.9-1.14c0,0-3.78-16.92,3-7.15,0,0,12.81,14.29,18.46,16.16,0,0,5.64,1.87.74-4.14,0,0-21.47-18.41-15.45-23.31,0,0,3.76-1.89,9.78,2.62,0,0,9,6.76,8.3,10.9,0,0,3.77,7.52,5.26-.76,0,0,.37-6.77-13.19-16.92,0,0-5.28-8.64,4.89-3.39,0,0,7.91,8.27,9.41,0,0,0-6.79-9.78,4.14.75,0,0,7.53,5.63,9-2.65,0,0,0-5.85-12.45-9.87,0,0-16.39-5.69-31.7,1,0,0-22.45,11.69-18.48,25.93C491.74,444.33,496.08,451.81,502.1,456.31Z"/><path class="cls-25" d="M467.05,433.15s-18.9-7.3-24.39,5.94c0,0-3.71,3.8-5.6,3.83,0,0-1.9-1.86-1.74,11.31,0,0-1.46,35.77-16.19,62.29,0,0-11,20.83.52,43.27,0,0,9.56,13.06,22.73,12.9,0,0,11.29-.13,17,7.32,0,0,3.9,11.25,17,5.45,0,0,26.3-4.08,26-30.42,0,0-1.06-10.34-4.91-17.82,0,0-5.74-7.46-4-22.53,0,0,9-35.86,4.95-58.39C498.38,456.3,492.46,433.79,467.05,433.15Z"/><path class="cls-26" d="M441.71,438.16s15.8,9.77,15.67,25.49l-1.59,23.7s3.51,5.17,3.62,14.57c0,0-1.18,10.75,4.14,7.2l27.15-65.9s-9.57-13.06-24.6-11C466.1,432.22,445.34,426.82,441.71,438.16Z"/><path class="cls-27" d="M490.22,442.7s-34.89,32.93-25,72.33c0,0,23.12,44.88,19.4,48.69,0,0-2.23,17.51,3.69,17.17,0,0,18.3-6.66,12.69-33.62l-3.52-10s-7.62-7.44-4-22.53c0,0,10.8-41.53,4.95-58.39C498.38,456.3,493.54,445.9,490.22,442.7Z"/><path class="cls-24" d="M453.27,432.68s-2.13,7.24,13,12.71c0,0,17,5.44,24.44-2.17a28.9,28.9,0,0,0-24.62-12.88S453.56,429.23,453.27,432.68Z"/><path class="cls-28" d="M493.47,447.1s-8.35,1.83-2.55,14.93c0,0,3.85,7.48-1.68,17,0,0-3.69,5.69.27,22.58,0,0,2,7.51-5.48,13.24,0,0-5.58,5.71.15,13.17,0,0,7.64,9.32,7.71,15,0,0-2.32,23.16,8.38,22.76,0,0,4.42-12.52-1.12-24.23,0,0-6.58-12.67-6.18-22.54,0,0,6.12-33.53,6.69-50C499.66,469,500,450.93,493.47,447.1Z"/><path class="cls-29" d="M458.62,436.07s-9.29,9.52-7.3,18.91c0,0,.07,5.64-3.74,1.92,0,0-5.73-7.46,1.68-16.95a35.21,35.21,0,0,1,7.46-5.74S460.46,432.29,458.62,436.07Z"/><path class="cls-29" d="M466.26,445.39s-22.1,39.78-18.12,58.55c0,0,1.95,5.62,5.54-9.48,0,0,9-32.09,16.41-43.47a22.8,22.8,0,0,0,1.77-9.43S469.91,435.94,466.26,445.39Z"/><path class="cls-21" d="M421.29,382.89s-41.44-3.27-56.6-12.49c0,0-32.14-12.79-39.46,4.23,0,0-13,15.21-5.33,26.41,0,0,7.75,18.72,4.3,45.11,0,0-7.28,20.78,5.94,24.39,0,0,9.45,3.65,16.91-2.08,0,0,9.36-3.88,15-3.95,0,0,14.15,2.66,17.78-8.68,0,0,5.62-1.95,13.12-3.92,0,0,26.27-6,37.56-6.09,0,0,16.89-4,28-19.16,0,0,11.06-18.94-.36-30.1,0,0-5.85-16.86-24.64-14.76A29.65,29.65,0,0,1,421.29,382.89Z"/><path class="cls-18" d="M322.43,454.19s6.71,11.66,19.81,5.86c0,0,14.9-13.35,22.44-11.56a8.23,8.23,0,0,0,7.46-5.74s1.75-11.31,9.32-7.64c0,0,9.47,5.54,13.17-.15,0,0,3.67-7.57,1.72-13.2,0,0-2-5.62,1.79-7.54,0,0,7.44-7.62,1.77-9.43,0,0-7.49-5.3-.08-11.16l22.55,1.48,10.14,50.12-23.74,3.45s-27.1,5.25-28.95,7.15c0,0-.65,11.43-19.11,8.76,0,0-11.53,2.72-14.93,4.73,0,0-9.8,5.11-19.84-1C326,468.33,319.75,465.06,322.43,454.19Z"/><path class="cls-22" d="M420.41,387.6s-35.73,2.31-13,13.33c0,0,13.31,11.13,5.83,15,0,0-5.62,1.95.07,5.64,0,0,15.12,5.47,11.4,9.27,0,0-25.48,17-10.76,16.93,0,0,19.82-1.29,27.55-6.43,0,0,17.35-9.16,20.8-24.19,0,0,7.79-20.37-8.61-27.88,0,0-8.64-10.44-21.9-7C431.77,382.28,424.17,387.56,420.41,387.6Z"/><path class="cls-23" d="M361.91,369.4s-20.77-1.55-26.28,9.81c0,0-1.81,5.67-5.58,5.71,0,0-3.76.05-3.65,9.45,0,0,2.46,32.26-1.32,38.74,0,0-1.3-25.31-6.61-34.77,0,0-3.78-8.77,3.8-19.56,0,0,5.69-12.39,15.09-12.63C337.36,366.15,352.5,365.67,361.91,369.4Z"/><path class="cls-24" d="M443,389.22s-11.31-1.75-5.58,5.71c0,0,13.31,11.13,2,7.5,0,0-18.86-3.54-24.48-1.59,0,0-5.62,2,1.93,3.74,0,0,28.24,1.55,26.45,9.09,0,0-1.84,3.79-9.36,3.88,0,0-11.29.14-13.22-3.61,0,0-7.57-3.67-3.72,3.81,0,0,3.83,5.6,20.77,5.4,0,0,9.45,3.65-1.82,5.67,0,0-11.31-1.75-7.45,5.73,0,0,11.33,3.63-3.74,1.93,0,0-9.41.11-5.56,7.59,0,0,3.61,4.61,15.89.26,0,0,16.47-5.46,24.55-20.09,0,0,10.7-22.94-1.12-31.83C458.52,392.41,450.53,389.13,443,389.22Z"/><path class="cls-30" d="M513.1,349.8s9.34-5.75,11.06-18.95c0,0,1.68-17,16.69-20.9,0,0,16.89-4,22.64,5.38,0,0,3.83,5.6,3.9,11.24a5.81,5.81,0,0,0,1.93,3.74s13.33,13,15.34,24.28c0,0,2,5.62,5.71,5.58,0,0,18.89,5.42,15.33,22.39,0,0-5.51,11.36-22.38,17.21,0,0-27.18,8.79-34.7,8.88,0,0-30.06,4.12-37.54,8,0,0-18.68,11.51-22.65-5.38,0,0-4.17-33.82,14.42-52.86Z"/><path class="cls-31" d="M497.54,365.1s7.31,2.68,16.62-5c0,0,11.11-15.19,16.73-17.14,0,0,7.49-3.85,3.92-22.91,0,0-2.37-5.33,1.35-9.14,0,0-10.85,5.52-12.7,23.55,0,0-3.92,11.81-12.28,16.91C511.18,351.41,497.74,360.46,497.54,365.1Z"/><path class="cls-32" d="M604.56,371.39a30.29,30.29,0,0,0-10.32-10.18s-6.68-.07-8.63-5.69c0,0-5.84-16.87-15.34-24.28,0,0-3-2.44-3.49-8.72,0,0-3-13-15-13.26,0,0-6.27-.3-6.22,3.46,0,0,0,.29-.07.75l-9.26-1.72s-5.66,6.79,1.94,12.35c0,0,5.68,3.69-1.82,5.67,0,0-5.6,3.83,0,3.76,0,0,16.91-2.09,18.88,5.42,0,0,.09,7.52-5.53,9.47,0,0-3.74,1.93-3.7,5.69,0,0,.07,5.65,5.62-1.95,0,0,9.34-5.75,5.67,1.82,0,0-5.53,9.47-22.35,19.08,0,0-7.46,5.74-1.82,5.67,0,0,13.13-3.92,22.45-11.56,0,0,5.62-1.95-5.56,7.59,0,0-14.94,9.59-14.87,15.23,0,0-1.79,10.48,1.08,12.75h0c-1.91,3-3,5.9-2.57,8.26l14.89-2.35s41.31-8.36,47.8-15.8C596.42,392.85,610.29,383.66,604.56,371.39Z"/><path class="cls-33" d="M545.59,312.72s-1.73,13.19,7.72,16.84c0,0,9.46,3.65,9.55,11.18,0,0-1.84,3.78,5.69,3.69,0,0,9.43,1.77,7.68,13.08,0,0-3.61,13.22-14.8,20.88,0,0-29.57,21.64-27.7,32.61l14.89-2.35s41.31-8.36,47.8-15.8c0,0,13.87-9.19,8.14-21.46a30.29,30.29,0,0,0-10.32-10.18s-6.68-.07-8.63-5.69c0,0-5.84-16.87-15.34-24.28,0,0-3-2.44-3.49-8.72,0,0-3-13-15-13.26C551.81,309.26,545.54,309,545.59,312.72Z"/><path class="cls-34" d="M495.29,369s-3.39,17.74,13.48,11.89c0,0,22.48-7.79,20.74,3.52,0,0-1.84,3.78-5.6,3.83,0,0-3.74,1.92,0,3.76,0,0,3.81,3.72-1.81,5.67,0,0-11.24,3.9-11.15,11.42l.09,7.53-15,2.06-7.59-24.75Z"/><path class="cls-35" d="M516.45,394s16.49-2.39,17.82,12.81l-.68,3.92s-18.77,4-22.51,5.92l-5.83-15Z"/></g><path class="cls-36" d="M459,388.08s5.55-7.59,11.26-2c0,0,3.81,3.72,9.37-3.88,0,0,1.83-3.78,7.52-.09,0,0,15.08,1.7,15.14,7.35,0,0-1.77,9.43.14,11.29,0,0,3.81,3.71,3.85,7.48,0,0,.23,18.81-9.16,20.81l.07,5.64s-1.75,11.31-9.27,11.4c0,0-4.69,1-12.31-6.44,0,0-1.9-1.86-9.43-1.77,0,0-11.29.14-11.38-7.39l-1.69-7.8s-6-5.28-6.08-12.8C447,409.87,446.81,392.93,459,388.08Z"/><path class="cls-37" d="M458.92,382.44s-5.78-11.22-11.31-1.75c0,0-5.46,15.12,13.48,26.19C461.09,406.88,471.34,398.29,458.92,382.44Z"/><path class="cls-38" d="M497.39,373.51S486,368,484.26,377.43c0,0-5.33,26.41.32,26.34a32.29,32.29,0,0,0,14.83-19S503.06,375.33,497.39,373.51Z"/><path class="cls-39" d="M463.25,420.33s-6.65,4.48-12.33.78c0,0-7.53.09-3.68,7.57,0,0,19,12.95,30.11-.36C477.35,428.32,475.59,419.56,463.25,420.33Z"/><path class="cls-40" d="M494.12,415s16.69-20.9,22.38-17.2c0,0,11.42,11.15,4,16.88,0,0-18.68,11.52-28.15,6Z"/><path class="cls-41" d="M478.27,431.52s-2.6,13.76,10.54,11.72c0,0,9.39-2,11.16-11.43,0,0-.07-5.64-7.51,2,0,0-3.78-1.84-2-7.51C490.49,426.28,479.08,425.32,478.27,431.52Z"/><path class="cls-42" d="M448.58,383.5s3.81,3.72,7.55,1.8c0,0,3.27-2.54-.31-6.89,0,0-3.57-3.35-7.29.9C448.53,379.31,446.68,381.65,448.58,383.5Z"/><path class="cls-43" d="M488.77,439.47a27.28,27.28,0,0,1,3.69-5.68s5.82-5.58,6.66-3.78c0,0,2.4,2.38-1.14,6.83,0,0-5.38,6.71-12,6.61l-3.47-.71S488.79,441.36,488.77,439.47Z"/><path class="cls-44" d="M489.16,393.37s-5.74-7.46-11.34-3.63c0,0-5.59,3.83-11.24,3.9,0,0-15,5.82-7.28,20.78,0,0,11.54,20.56,22.78,16.67,0,0,15.05-.18,16.78-13.38C498.86,417.71,500.4,389.47,489.16,393.37Z"/></g></svg>