<svg xmlns="http://www.w3.org/2000/svg" viewBox="0 0 864 864"><defs><style>.cls-1{fill:#808d62;}.cls-2{fill:#415748;}.cls-3{fill:#5f7404;}.cls-4{fill:#223f16;}.cls-5{fill:#153214;}.cls-6{fill:#50622e;}.cls-7{fill:#fd698c;}.cls-8{fill:#a0231f;}.cls-9{fill:#bfa462;}.cls-10{fill:#e47f6f;}.cls-11{fill:#f16450;}.cls-12{fill:#a02705;}.cls-13,.cls-15{fill:#ffcbd9;}.cls-14{fill:#a81708;}.cls-15{opacity:0.52;}.cls-16{fill:#f7e4eb;}.cls-17{fill:#a22814;}.cls-18{fill:#98130b;}.cls-19{fill:#fd768d;}.cls-19,.cls-20{opacity:0.61;}.cls-20{fill:#fff3ff;}.cls-21,.cls-23,.cls-24,.cls-27,.cls-38{fill:none;stroke-linecap:round;stroke-miterlimit:10;}.cls-21{stroke:#d8db7f;}.cls-21,.cls-23,.cls-24,.cls-27{stroke-width:3px;}.cls-22{fill:#e87f7f;}.cls-23{stroke:#c0ce00;}.cls-24{stroke:#fffcff;}.cls-25{fill:#c34735;}.cls-26{fill:#d0312e;}.cls-27{stroke:#c7bf69;}.cls-28{fill:#ff7088;}.cls-29{fill:#fcfff0;}.cls-30{fill:#ca5360;}.cls-31{fill:#f55473;}.cls-32{fill:#f181b5;}.cls-33{fill:#f1bdcf;}.cls-34{fill:#f36d94;}.cls-35{fill:#fa8095;}.cls-36{fill:#f0f1e4;opacity:0.77;}.cls-37{fill:#ff7e9d;}.cls-38{stroke:#b9b162;stroke-width:4px;}.cls-39{fill:#162b07;}.cls-40{fill:#5e783c;}.cls-41{fill:#aed5e2;opacity:0.57;}.cls-42{fill:#315005;}</style></defs><title>rubiaceae</title><g id="e_litoralis_flower"><circle class="cls-1" cx="432" cy="432" r="432"/><g id="flower"><path class="cls-2" d="M290.05,240.5s7.44-12.27,16.19,10.66c0,0,34.9,61.45,55.22,84.68l27.05,61.51S285.63,290.69,290.05,240.5Z"/><path class="cls-3" d="M441.12,456.32s-20.82-72.21-59-108.81c0,0-22-25.95-29.88-83.58,0,0-15.28-45.35-7.34,42.55C344.86,306.48,355.73,402,441.12,456.32Z"/><path class="cls-4" d="M195.31,237.59s8.95-18.91,49.79,36.91c0,0,89.71,76.23,150.56,115.65,0,0,47.87,76-23.33,41.23C372.33,431.38,202.15,299.64,195.31,237.59Z"/><path class="cls-5" d="M440.46,413.83s49.23-79.1,210.55-51.75c0,0,34.89,10.25-27.86,10,0,0-106.61,8.35-152.06,44.56C471.09,416.6,445.63,437.81,440.46,413.83Z"/><path class="cls-6" d="M527.66,397.32s100.52,3.78,135.12,25.6c0,0,13.47,12.37-61.25-6.93,0,0-85.64-16.56-94.41-1.39Z"/><path class="cls-7" d="M365.24,549.61s-27.35,7.74-24.74,26.95c0,0-18.2-1.81-12-19,0,0,13.88-20.11,33.79-15.59Z"/><g id="flower-2" data-name="flower"><path class="cls-8" d="M435.18,98.83a135.78,135.78,0,0,1,2,34l4.75,7.66s-2.12-40.16.86-47.93L432.59,89.7A22,22,0,0,1,435.18,98.83Z"/><path class="cls-9" d="M423.79,267.5s-4.43-31.63,9.77-119.95c0,0,9.27-.13,6.62,30.83,0,0-4,44.89-.81,51,0,0,7.77,3,5.89-20.18l-3.52-60.12,5.69-4.84s3.62,37.05,2.25,49.44c0,0,.32-45.36,6.69-52.92,0,0,3.53,11-.55,49.74,0,0-1.13,29.39,2.07,37.07l-21.13,35.86Z"/><path class="cls-10" d="M421.29,317s3.76,46.33,17.6,41.49l-5.61-67.94-12.36.17Z"/><path class="cls-11" d="M431.05,242.66s.33,23.19,3.45,24.69l29.86-9.88s-.83-13.72-2.44-18.34l-31-2.65Z"/><g id="petal"><path class="cls-12" d="M426,431.34s-4.68-3-5.28-44.75c0,0,1.36-114-11.27-135.69l3-11.06s12.45,6,11.26,30.76c0,0-1.25,75,8,76.41l7.66-4.75L440.76,435Z"/><path class="cls-13" d="M384.19,249.67s-4.73,6.87,1.52,11.42c0,0,6.25,4.55,15.48,1.33,0,0,6.29-3.69,4.59-8.83l4.62,4.06-4.49,10.88-9.2,4.77L389,275l-9.34-4.51-6.4-15.36Z"/><path class="cls-14" d="M371.53,242.74l13.2,3.68c16.15-5.64,24.74,4.48,24.74,4.48,7,7-.46,17.59-.46,17.59-9.12,10.95-23.08,8.06-23.08,8.06-17.09-5.94-14.2-19.9-14.2-19.9Zm17.07,4.4S376.3,252,378,262.75a15.88,15.88,0,0,0,9.43,10.68s9.32,3,18.42-9.53A10.69,10.69,0,0,0,402.56,250S397.85,245.46,388.6,247.14Z"/><path class="cls-11" d="M371.56,244.29s-1.35,13.93,6.29,7.64c0,0,5.43-5.58,10.39-6.77,0,0,18.82-4.47,28.38,15.49,0,0,3.59,6.13,3.95-8.56,0,0-9-21-26-22.15C394.55,229.94,372.9,230.35,371.56,244.29Z"/><path class="cls-15" d="M420.34,250.55s-14.39-33.81-43.5-14.84c0,0-1.52,1.57.14,9.27,0,0,0,3.09,7.75,1.44,0,0,15.34-7.95,29.48,7.31C414.21,253.73,422,258.25,420.34,250.55Z"/><path class="cls-16" d="M385.62,231.28s-6.45,5.17-1.74,9.74c0,0,4.68,3,12.36-.18,0,0,6.14-3.18,10.84,1.39,0,0,7.31,5.29,5.12-2.79,0,0-7.6-9.17-14.95-9.25C397.25,230.19,390.57,229.22,385.62,231.28Z"/><path class="cls-16" d="M385.71,261.09s-3,4.68,1.68,9.25c0,0,4.68,3,9.23-3.22,0,0,2.36-2.65-.4-3.62C396.22,263.5,390.39,264.12,385.71,261.09Z"/></g><g id="petal-2" data-name="petal"><path class="cls-12" d="M448.61,443.39s4.59-3.16,4-44.89c0,0-4.61-113.94,7.39-135.95l-3.3-11s-12.28,6.36-10.38,31.07c0,0,3.39,74.93-5.86,76.61l-7.8-4.53L434,447.46Z"/><path class="cls-13" d="M485.23,260.59s4.92,6.74-1.19,11.46c0,0-6.12,4.73-15.44,1.77,0,0-6.39-3.51-4.84-8.69l-4.5,4.19,4.79,10.75,9.34,4.5,7.75,1.44,9.21-4.77,6-15.55Z"/><path class="cls-14" d="M497.68,253.31l-13.08,4.05c-16.31-5.18-24.61,5.19-24.61,5.19-6.8,7.25,1,17.56,1,17.56,9.43,10.69,23.3,7.4,23.3,7.4,16.91-6.43,13.62-20.29,13.62-20.29Zm-16.93,4.88s12.43,4.46,11,15.3a15.89,15.89,0,0,1-9.12,10.95s-9.23,3.23-18.68-9a10.67,10.67,0,0,1,2.89-13.95S471.45,256.77,480.75,258.19Z"/><path class="cls-11" d="M497.7,254.85s1.75,13.89-6.07,7.82c0,0-5.59-5.42-10.58-6.46,0,0-18.94-3.94-27.93,16.29,0,0-3.41,6.23-4.19-8.45,0,0,8.38-21.19,25.38-22.88C474.31,241.17,496,241,497.7,254.85Z"/><path class="cls-15" d="M449.11,262.5s13.43-34.2,43.06-16.07c0,0,1.57,1.52.13,9.27,0,0,.05,3.09-7.7,1.66,0,0-15.57-7.51-29.26,8.15C455.34,265.51,447.68,270.25,449.11,262.5Z"/><path class="cls-16" d="M483.27,242.25s6.6,5,2,9.69c0,0-4.59,3.16-12.36.17,0,0-6.23-3-10.8,1.71,0,0-7.15,5.48-5.2-2.65,0,0,7.35-9.38,14.69-9.67C471.62,241.5,478.27,240.34,483.27,242.25Z"/><path class="cls-16" d="M484,272.05s3.15,4.6-1.42,9.3c0,0-4.59,3.16-9.32-3,0,0-2.43-2.58.3-3.63C473.6,274.76,479.44,275.21,484,272.05Z"/></g><path class="cls-17" d="M456.26,429s4.51-9.34,2.41-48c0,0-3.6-35.5-.8-55.64,0,0,2.61-19.52,2.6-27.56l-9.49-13-21.36,13c.22,8,3.39,27.48,3.39,27.48,3.38,20,.79,55.64.79,55.64-1,38.66,3.78,47.87,3.78,47.87s6.34,10.73,10.95,9.12C448.53,438,453.42,437.2,456.26,429Z"/><path class="cls-18" d="M450.54,254c4.55-6.25,29.92,29.36,13.12,43.52,0,0-3.07,1.59-7.75-1.44,0,0-4.66-1.48-6.16,1.64-4.46,3.57-9.41-.29-9.41-.29-1.59-3.07-6.21-1.45-6.21-1.45-4.59,3.15-7.7,1.65-7.7,1.65-17.2-13.67,11.74-43.45,11.74-43.45s3.05-3.14,4.64-.07C442.81,254.09,446,260.23,450.54,254Z"/><path class="cls-19" d="M442.81,254.09h0C436.54,248,426,270.56,426,270.56s-1.32,10.07,6.41,10c0,0,4.57-4.7,6.16-1.63,0,0,1.59,3.07,6.22,3l3.1,0a2.93,2.93,0,0,0,3.18-2.72c1.5-3.12,6.2,1.45,6.2,1.45,7.73-.11,6.12-10.13,6.12-10.13s-11.22-22.26-17.31-16A2.56,2.56,0,0,1,442.81,254.09Z"/><path class="cls-20" d="M446.72,254.45c4.33-3.15,8.55,4.72,8.55,4.72s6.24,10.53.48,15.25c0,0-2.89,1.59-4.46-6.12,0,0-3-3.05-4.33,3.16,0,0,1.55,6.16-1.36,6.2l-1.69-.39c-2.91,0-1.54-6.17-1.54-6.17-1.55-6.16-4.42-3-4.42-3-1.34,7.75-4.28,6.25-4.28,6.25-5.89-4.55.05-15.26.05-15.26s4-8,8.41-5c0,0,2.34,2.35,4.59.35"/><path class="cls-13" d="M446.18,219.26s-17,.24-15.22,17.22c0,0,1.7,10.8,14,7.53,0,0,10.77-3.24,12.36-.18,0,0,4.75,7.67,4.57-4.7,0,0-1.68-9.25-1.74-13.89C460.18,225.24,457,219.1,446.18,219.26Z"/><path class="cls-21" d="M461.94,132.46S451.3,145,451.48,157.34"/><path class="cls-21" d="M432.51,128.24s8,18.44,3.55,32.42"/><path class="cls-21" d="M451.08,129.52s-7.6,9.39-7.29,31"/><path class="cls-21" d="M438.76,132.79s6.6,29.28.51,35.55"/><path class="cls-22" d="M433.53,91.12s1.61,4.62,4.65,1.48c0,0,3.07-1.59,4.64-.06,0,0,2.41-.2.33-7l-11.24,1S432,89.6,433.53,91.12Z"/><path class="cls-16" d="M442.69,83.26s-10.91-6-10.78,3.25c0,0,.07,4.64,4.68,3,0,0,3.05-3.13,4.64-.06C441.23,89.47,444.34,91,442.69,83.26Z"/></g><g id="flower-3" data-name="flower"><path class="cls-8" d="M700.82,258.83A115.84,115.84,0,0,1,679,278l-2.68,7.21s26-22.46,32.78-24.52l-3.45-8.39A18.9,18.9,0,0,1,700.82,258.83Z"/><path class="cls-9" d="M581.12,339.49s19-19.56,86-56.24c0,0,4.94,6.19-17.32,20.61,0,0-32.36,20.82-34.84,26.18,0,0,2.06,6.8,16.7-6.6l38.7-33.86,6.24,1.3s-23.09,21.85-32.16,27.41c0,0,30.76-23.53,39.19-23.2,0,0-5.59,8.16-33.83,25.68,0,0-20.41,14.63-23.91,20.81l-35.25,4.53Z"/><path class="cls-10" d="M546.42,363.73s-29.27,26.79-18.76,33.59L570.54,358,564,349.71Z"/><path class="cls-11" d="M601.67,331.37s-15.46,12.37-14.84,15.26l22.3,15s8.82-7.75,11.09-11.25l-14.43-22.26Z"/><g id="petal-3" data-name="petal"><path class="cls-12" d="M469,427c9.2-15.79,12-14,30.22-27.21,0,0,77.6-58.8,85.6-78.65l9-3.78s2.47,11.54-14.85,23.7c0,0-51.22,38.43-47.31,45.44l7.22,2.68L489,446S453,459,469,427Z"/><path class="cls-13" d="M572.41,303.44s-7.12.41-6.91,7c0,0,.2,6.59,7.21,11.13,0,0,5.78,2.31,8.35-1.52l-.31,5.23L571.06,328l-8-3.71-5.15-4.33L556,311.27l7-12.36Z"/><path class="cls-14" d="M570.45,291.28l4.43,10.82c12.26,7.94,9.94,19,9.94,19-1.09,8.42-12.11,8.89-12.11,8.89-12.16-.41-17.52-11.34-17.52-11.34-4.94-14.63,6-20,6-20Zm6,13.81s-9.68-5.77-16.07,1a13.55,13.55,0,0,0-2.27,11.95s2.88,7.84,16.07,7.43a9.12,9.12,0,0,0,7.63-9.48S582.4,310.45,576.42,305.09Z"/><path class="cls-11" d="M569.42,292.1s-10.1,6.39-1.86,8.25c0,0,6.61.74,10,3.46,0,0,12.88,10.35,4.42,27.25,0,0-2.25,5.63,7.84-1.82,0,0,9.42-17,1.31-29.14C591.13,300.1,579.52,285.72,569.42,292.1Z"/><path class="cls-15" d="M590.75,328.28S606,300.87,578,291.18c0,0-1.85-.21-6.18,4.94,0,0-2.07,1.65,3.09,6,0,0,13.39,6.19,10.51,23.71C585.39,325.81,586.42,333.43,590.75,328.28Z"/><path class="cls-16" d="M585.55,294.78s-6.86-1.64-7.48,3.92c0,0,.41,4.74,6.6,8.25,0,0,5.36,2.47,4.74,8,0,0,.26,7.69,4.56,2,0,0,2.2-9.94-1.59-14.93C592.38,302.05,589.53,297,585.55,294.78Z"/><path class="cls-16" d="M565.5,310.45s-4.74.41-5.36,6c0,0,.41,4.74,7,4.53,0,0,3,.2,2.23-2.16A15.47,15.47,0,0,1,565.5,310.45Z"/></g><g id="petal-4" data-name="petal"><path class="cls-12" d="M475.51,448.33s4.53,1.45,32.36-20.81c0,0,74.42-62.79,95.55-66.22l5.67-8s-10.72-4.95-26.39,9.27c0,0-48.75,41.53-54.73,36.17l-1-7.63L465.1,440.6Z"/><path class="cls-13" d="M618,377.29s-2,6.85-8.35,5.2c0,0-6.39-1.65-9.28-9.48,0,0-1-6.15,3.33-7.81l-5.18-.85-4.74,8.87,1.85,8.65,3.09,6,8,3.71,13.61-4.12Z"/><path class="cls-14" d="M629.39,381.88l-9.59-6.7c-5-13.71-16.38-13.88-16.38-13.88-8.45-.79-11.34,9.85-11.34,9.85-2.27,12,7.21,19.59,7.21,19.59,13.19,8,20.82-1.44,20.82-1.44ZM617.23,373s3.5,10.72-4.54,15.46a13.57,13.57,0,0,1-12.16-.41s-7-4.54-3.71-17.32a9.11,9.11,0,0,1,10.93-5.35S613.31,366,617.23,373Z"/><path class="cls-11" d="M628.36,382.7s-8.46,8.45-8.46,0c0,0,.73-6.61-1.18-10.52,0,0-7.26-14.83-25.61-10.3,0,0-6,1,3.5-7.25,0,0,18.68-5.45,28.72,5.13C625.33,359.76,636.81,374.25,628.36,382.7Z"/><path class="cls-15" d="M597.75,353.94s30.09-8.86,33.39,20.62c0,0-.21,1.86-6.19,4.95,0,0-2.06,1.65-5.15-4.33,0,0-3.09-14.43-20.81-15.46C599,359.72,591.77,357,597.75,353.94Z"/><path class="cls-16" d="M629.29,366.37s.1,7.06-5.47,6.44c0,0-4.53-1.45-6.59-8.25,0,0-1.24-5.77-6.8-6.39,0,0-7.45-1.94-.94-4.89,0,0,10.17,0,14.21,4.84C623.7,358.12,628,362,629.29,366.37Z"/><path class="cls-16" d="M609.6,382.49s-1.44,4.54-7,3.92c0,0-4.53-1.44-2.88-7.83,0,0,.46-3,2.6-1.71A15.41,15.41,0,0,0,609.6,382.49Z"/></g><path class="cls-17" d="M489.21,446s8.66-1.85,33.6-23.49c0,0,22.06-21,37.11-29.68,0,0,14.53-8.46,19.94-12.68l3.77-13.18-19.94-7.61c-5.3,4.36-16.75,16.67-16.75,16.67-11.75,12.78-37.11,29.68-37.11,29.68-26.59,19.58-30.3,27.62-30.3,27.62s-3.92,9.89-.41,12.16C479.12,445.45,482.2,448.33,489.21,446Z"/><path class="cls-18" d="M604.24,350.44c6.6-.2-4.13,35.56-22.47,31.64,0,0-2.68-1.24-3.09-6,0,0-1.44-3.92-4.33-3.3-4.74-1.13-4.74-6.49-4.74-6.49,1.24-2.68-2.26-4.95-2.26-4.95-4.54-1.44-5.16-4.33-5.16-4.33.21-18.76,35.46-14.83,35.46-14.83s3.71.41,2.47,3.09C600.12,345.29,597.65,350.65,604.24,350.44Z"/><path class="cls-19" d="M600.12,345.29h0c.83-7.42-19.93-2.74-19.93-2.74s-7.48,4.38-3.36,9.54c0,0,5.56.62,4.33,3.29,0,0-1.24,2.68,1.23,5.78l1.65,2.06a2.5,2.5,0,0,0,3.5.72c2.89-.62,2.27,4.95,2.27,4.95,4.12,5.15,10-1.19,10-1.19s9.13-19.22,1.71-20A2.19,2.19,0,0,1,600.12,345.29Z"/><path class="cls-20" d="M601.93,348.11c4.39,1.27,1.29,8.24,1.29,8.24s-3.83,9.72-10,8.31c0,0-2.59-1.12,1.79-6.21,0,0,.51-3.59-4.39-1.27,0,0-3.35,4.27-4.9,2.33l-.62-1.34c-1.55-1.95,3.35-4.27,3.35-4.27,3.34-4.27-.27-4.56-.27-4.56-5.93,3.15-6.46.38-6.46.38,0-6.36,10.32-8,10.32-8s7.48-1.49,7.75,3.07c0,0-.36,2.81,2.17,3.28"/><path class="cls-13" d="M625.37,329.32s-9.06-11.34-19.58-1.24c0,0-6.39,6.8,2.27,13.4,0,0,7.83,5.56,6.59,8.24,0,0-2.68,7.21,5.57.62a102.06,102.06,0,0,1,8.45-8.45S631.14,336.53,625.37,329.32Z"/><path class="cls-23" d="M692.16,294.49s-14-.62-22.26,6"/><path class="cls-23" d="M679.59,272.43s-8.25,15.05-20,19.38"/><path class="cls-23" d="M688.45,285.63s-10.3-.21-24.73,11.33"/><path class="cls-23" d="M679.8,279s-16.29,19.78-23.71,19"/><path class="cls-22" d="M705.15,253.68s-2.27,3.5,1.44,3.92c0,0,2.68,1.23,2.48,3.09,0,0,1.39,1.52,4.92-3.46l-6.57-7.05S705.36,251.82,705.15,253.68Z"/><path class="cls-16" d="M715.25,255.74s-1.65-10.51-7.83-5.56c0,0-3.09,2.47.41,4.74,0,0,3.71.41,2.47,3.09C710.3,258,710.92,260.89,715.25,255.74Z"/></g><path class="cls-8" d="M100.35,337.12a116,116,0,0,0,28.08,7.54l5.59,5.28s-33.23-8.67-40.24-7.51l-.62-9.05A18.9,18.9,0,0,0,100.35,337.12Z"/><path class="cls-24" d="M243.25,354.77s-26-8.31-102.34-9.15c0,0-1.46,7.79,25,10,0,0,38.35,3.13,43.05,6.7,0,0,1.39,7-17.83,2L141,352.73l-4.9,4.08s30.65,8.41,41.28,9.05c0,0-38.22-6.29-45.5-2,0,0,8.77,4.57,41.93,6.74,0,0,24.89,3.31,30.9,7.11L238,365.09Z"/><path class="cls-10" d="M285.21,363s38.11,11.09,31.68,21.84L261,368.46l2.27-10.32Z"/><path class="cls-11" d="M221.36,358.37s19.33,4.25,20,7.12L228,388.76s-11.33-3-14.92-5.18l3.1-26.35Z"/><path class="cls-25" d="M380,386.55c-17.91-7.51-1.73-4.43-36.53-12.1,0,0-95.6-18.44-111.55-32.72l-9.76.6S225.07,353.78,246,357c0,0,62.94,11.84,62.52,19.85l-5.28,5.6,75,28.14S397.94,394.07,380,386.55Z"/><path class="cls-13" d="M235.26,320.38s6.56-2.78,9.3,3.23c0,0,2.73,6-1.55,13.17,0,0-4.17,4.63-8.17,2.33l2.6,4.55,9.87-1.88,5.57-6.88,2.71-6.16-2.16-8.59-11.76-8Z"/><path class="cls-26" d="M231.64,308.6l.81,11.67c-7.49,12.54-.5,21.46-.5,21.46,4.7,7.07,14.79,2.63,14.79,2.63,10.73-5.75,10.71-17.91,10.71-17.91-2-15.32-14.21-15.29-14.21-15.29Zm.75,15s6.14-9.46,14.87-6.18a13.51,13.51,0,0,1,7.32,9.72s.88,8.3-11.14,13.76a9.11,9.11,0,0,1-11-5.13S229.4,331.08,232.39,323.63Z"/><path class="cls-11" d="M232.93,308.88s11.89,1.27,5.31,6.58c0,0-5.6,3.59-7.44,7.53,0,0-7,15,8.08,26.4,0,0,4.51,4.05-7.84,1.83,0,0-16-11.11-14-25.57C217,325.65,221.05,307.62,232.93,308.88Z"/><path class="cls-15" d="M229.79,350.76s-25.8-17.84-4.94-38.93c0,0,1.57-1,7.73,1.71,0,0,2.58.57-.13,6.73,0,0-9.28,11.47,1.05,25.91C233.5,346.18,236,353.47,229.79,350.76Z"/><path class="cls-16" d="M219.64,318.42s5.43-4.51,8.44.21c0,0,1.73,4.43-2.27,10.31,0,0-3.71,4.59-.7,9.31,0,0,3.17,7-3.21,3.8,0,0-6.36-7.94-5.17-14.1C216.73,328,217.07,322.2,219.64,318.42Z"/><path class="cls-16" d="M244.56,323.61s4.43-1.73,7.45,3c0,0,1.72,4.43-4.29,7.17,0,0-2.62,1.51-3-1A15.48,15.48,0,0,0,244.56,323.61Z"/><path class="cls-25" d="M374.79,405.19s8,5.62-26.8-2c0,0-94.5-23.43-115-17.17l-8.61-4.64s7.43-9.18,27.76-3.35c0,0,62.09,15.7,65.08,8.25L314.81,379l62,17.39Z"/><path class="cls-13" d="M227.05,406.75s4.79,5.28,9.79,1c0,0,5-4.31,4.13-12.61,0,0-1.84-5.95-6.43-5.54l4.27-3.05,8.17,5.86,2.16,8.58L249,407.7l-5.57,6.88-14,2.32Z"/><path class="cls-14" d="M218.82,415.92l5.64-10.25C222.92,391.15,233,386,233,386c7.23-4.44,14.52,3.83,14.52,3.83,7.32,9.72,2.19,20.75,2.19,20.75-8.28,13.05-19.31,7.91-19.31,7.91Zm7-13.33s1.6,11.17,10.9,11.86a13.57,13.57,0,0,0,10.73-5.74s4.28-7.17-4.33-17.17a9.12,9.12,0,0,0-12.17,0S226.22,394.58,225.81,402.59Z"/><path class="cls-11" d="M220.11,416.2s11.32,3.85,7.58-3.73c0,0-3.57-5.61-3.59-10,0,0,0-16.52,18.42-20.56,0,0,5.8-1.79-6.34-5,0,0-19.17,3.37-23.5,17.3C212.68,394.29,208.79,412.36,220.11,416.2Z"/><path class="cls-15" d="M234.85,376.88s-30.91,5.35-20.84,33.25c0,0,1,1.57,7.74,1.7,0,0,2.57.57,2.71-6.16,0,0-3.61-14.31,11.83-23.07C236.29,382.6,241.58,377,234.85,376.88Z"/><path class="cls-16" d="M212.05,402s3,6.37,7.75,3.35c0,0,3.43-3.3,2.27-10.31,0,0-1.44-5.72,3.28-8.74,0,0,5.82-5-1.32-4.8,0,0-9.11,4.53-10.61,10.62C213.42,392.09,211.31,397.46,212.05,402Z"/><path class="cls-16" d="M236.84,407.73s3.3,3.42,8,.41c0,0,3.43-3.3-.88-8.3,0,0-1.74-2.48-3.08-.38A15.5,15.5,0,0,1,236.84,407.73Z"/><path class="cls-25" d="M372.88,411.45s-8.58,2.16-40.52-6.23c0,0-29.08-9.1-46.4-10.22,0,0-16.78-1.16-23.5-2.55l-9.2-10.17,14.52-15.63c6.68,1.56,22.4,7.55,22.4,7.55,16.18,6.27,46.4,10.22,46.4,10.22,32.5,5.8,39.39,11.37,39.39,11.37s7.88,7.15,5.74,10.73C381.71,406.52,380.22,410.47,372.88,411.45Z"/><path class="cls-26" d="M227.48,376.61c-6,2.73,19.42,30.06,34.14,18.44,0,0,1.86-2.29.13-6.73,0,0-.44-4.15,2.43-4.87,3.75-3.11,1.38-7.92,1.38-7.92-2.3-1.85-.16-5.44-.16-5.44,3.43-3.3,2.71-6.16,2.71-6.16-8.48-16.73-38.36,2.37-38.36,2.37s-3.15,2-.85,3.86C228.9,370.16,233.49,373.88,227.48,376.61Z"/><path class="cls-19" d="M228.9,370.16h0c-4-6.29,16.67-11.26,16.67-11.26s8.65.62,7.23,7.07c0,0-4.72,3-2.43,4.87,0,0,2.3,1.85,1.44,5.72l-.56,2.58a2.49,2.49,0,0,1-2.82,2.19c-2.87.72.15,5.44.15,5.44-1.42,6.45-9.53,3.38-9.53,3.38s-16.69-13.21-10.4-17.23A2.17,2.17,0,0,0,228.9,370.16Z"/><path class="cls-20" d="M228.53,373.5c-3.38,3.07,2.48,7.95,2.48,7.95s7.73,7,12.67,3c0,0,1.82-2.15-4.35-4.78,0,0-2.05-3,3.38-3.08,0,0,4.88,2.35,5.42-.08l0-1.48c.53-2.43-4.89-2.35-4.89-2.35-4.89-2.35-1.77-4.21-1.77-4.21,6.71.21,5.95-2.51,5.95-2.51-2.79-5.71-12.76-2.58-12.76-2.58s-7.37,2-5.6,6.18c0,0,1.56,2.37-.49,3.91"/><path class="cls-13" d="M199.19,367s3.12-14.18,17-9.77c0,0,8.74,3.28,3.89,13,0,0-4.56,8.46-2.27,10.31,0,0,5.6,5.29-4.72,3a104.06,104.06,0,0,0-11.31-3.85S197.2,376,199.19,367Z"/><path class="cls-27" d="M123.88,365.28s12.3-6.75,22.61-4.48"/><path class="cls-27" d="M125.41,339.94s14.05,9.85,26.5,8.54"/><path class="cls-27" d="M123.29,355.69s9.16-4.74,27.2-.77"/><path class="cls-27" d="M128.14,346s23.36,10.54,29.65,6.52"/><path class="cls-22" d="M94.19,334.41s3.59,2.15.44,4.16c0,0-1.86,2.29-.85,3.86,0,0-.58,2-6-.93l2.78-9.23S93.19,332.84,94.19,334.41Z"/><path class="cls-16" d="M86,340.73s-3.16-10.16,4.57-8.46c0,0,3.87.86,1.73,4.44,0,0-3.15,2-.86,3.87C91.48,340.58,92.21,343.44,86,340.73Z"/><path class="cls-28" d="M377.81,494.29s14.48,7.95,8.25,25.14c0,0-3.72,6.14-8.85-2,0,0,1.42-8.21-3.57-10.89C373.64,506.53,371.17,492.78,377.81,494.29Z"/><g id="flower-4" data-name="flower"><path class="cls-8" d="M120.3,368.53A116.08,116.08,0,0,1,148,377.31l7.56-1.44s-32.67-10.6-37.95-15.35l-5.4,7.29A19,19,0,0,1,120.3,368.53Z"/><path class="cls-9" d="M251.26,429.23s-26.57-6.15-92.62-44.49c0,0,2.73-7.44,26.59,4.15,0,0,34.56,16.92,40.43,16.27,0,0,4.75-5.29-14.29-10.88l-49-15.59-2.12-6s30.64,8.45,40.09,13.33c0,0-36-14.14-40.13-21.52,0,0,9.87.55,39.48,15.66,0,0,23.08,9.89,30.18,9.69L252,417.65Z"/><path class="cls-10" d="M290,446.37S328,457.56,328.41,445l-55.87-16.32-3.64,9.91Z"/><path class="cls-11" d="M233.68,415.84s18.58,6.83,20.73,4.81l1.26-26.82s-11.19-3.55-15.36-3.67L228.73,414Z"/><g id="petal-5" data-name="petal"><path class="cls-12" d="M382.53,477.6s-3.84,2.8-37.29-9.5c0,0-90.47-36-111.6-32.54l-7.9-5.76s8.6-8.09,28,.43c0,0,59.4,23.95,63.37,17l-1.44-7.56L390,467Z"/><path class="cls-13" d="M224.92,455.33s4,5.88,9.57,2.29c0,0,5.54-3.59,5.8-11.93,0,0-1-6.14-5.63-6.36l4.64-2.44,7.31,6.91,1,8.79-1,6.65-6.45,6.07-14.21.4Z"/><path class="cls-14" d="M215.53,463.31l7-9.39c.44-14.61,11.14-18.36,11.14-18.36,7.77-3.42,13.88,5.76,13.88,5.76,5.94,10.62-.64,20.86-.64,20.86-10,11.8-20.2,5.22-20.2,5.22Zm8.72-12.26s.08,11.27,9.2,13.22A13.57,13.57,0,0,0,244.86,460s5.21-6.52-2-17.6a9.12,9.12,0,0,0-12.06-1.62S225.75,443.16,224.25,451.05Z"/><path class="cls-11" d="M216.77,463.76s10.69,5.34,8-2.68c0,0-2.78-6-2.21-10.35,0,0,2.19-16.37,21-17.88,0,0,6-1-5.61-5.77,0,0-19.45.75-25.62,14C212.37,441,206.07,458.42,216.77,463.76Z"/><path class="cls-15" d="M236.69,426.79s-31.35,1.13-25.14,30.13c0,0,.78,1.7,7.43,2.73,0,0,2.48.91,3.52-5.73,0,0-1.64-14.67,14.84-21.26C237.34,432.66,243.34,427.83,236.69,426.79Z"/><path class="cls-16" d="M210.7,448.57s2.15,6.72,7.23,4.37c0,0,3.85-2.8,3.65-9.91,0,0-.66-5.87,4.42-8.22,0,0,6.45-4.2-.65-4.93,0,0-9.64,3.26-11.95,9.09C213.4,439,210.58,444,210.7,448.57Z"/><path class="cls-16" d="M234.49,457.62s2.81,3.85,7.89,1.5c0,0,3.84-2.81.26-8.35,0,0-1.39-2.69-3-.79A15.42,15.42,0,0,1,234.49,457.62Z"/></g><g id="petal-6" data-name="petal"><path class="cls-12" d="M399.05,463.28s-1.12-4.63-34.56-16.93c0,0-92.23-31.19-106.11-47.49l-9.75-.73s1.31,11.74,21.59,17.78c0,0,60.76,20.23,59.26,28.12l-6,4.83,74.33,27.32Z"/><path class="cls-13" d="M264.55,378.15s6.88-1.87,8.77,4.45c0,0,1.9,6.33-3.31,12.85,0,0-4.76,4-8.41,1.2l2,4.86,10-.52,6.45-6.07,3.52-5.74-1-8.8L272,370.87Z"/><path class="cls-14" d="M262.55,366l-.77,11.67c-9.12,11.41-3.4,21.2-3.4,21.2,3.7,7.64,14.3,4.6,14.3,4.6,11.41-4.24,13-16.3,13-16.3.05-15.45-12-17.07-12-17.07Zm-1.29,15s7.36-8.54,15.58-4.11a13.54,13.54,0,0,1,5.94,10.62s-.26,8.34-12.9,12.13A9.12,9.12,0,0,1,259.64,393S257.29,388,261.26,381Z"/><path class="cls-11" d="M263.79,366.45s11.61,2.86,4.38,7.23c0,0-6,2.79-8.39,6.45,0,0-8.94,13.9,4.43,27.25,0,0,3.93,4.63-8,.76,0,0-14.33-13.17-10.47-27.23C245.73,380.91,252.19,363.59,263.79,366.45Z"/><path class="cls-15" d="M255,407.52s-23.15-21.17.37-39.24c0,0,1.69-.79,7.43,2.73,0,0,2.48.91-1,6.65,0,0-10.75,10.11-2.46,25.81C259.32,403.47,260.76,411,255,407.52Z"/><path class="cls-16" d="M249.33,374.09s6-3.73,8.34,1.36c0,0,1.11,4.62-3.64,9.91,0,0-4.3,4-1.95,9.12,0,0,2.19,7.38-3.7,3.34,0,0-5.23-8.73-3.22-14.67C245.16,383.15,246.28,377.5,249.33,374.09Z"/><path class="cls-16" d="M273.32,382.6s4.63-1.11,7,4c0,0,1.11,4.62-5.21,6.52,0,0-2.8,1.15-2.81-1.35A15.47,15.47,0,0,0,273.32,382.6Z"/></g><path class="cls-17" d="M389.93,452.78s-6.07-6.45-37.49-16.6c0,0-29.41-8-44.6-16.39,0,0-14.76-8.06-21.17-10.51l-13.23,3.6,3.81,21c6.47,2.28,22.93,5.71,22.93,5.71,17,3.44,44.6,16.39,44.6,16.39,30.51,12.63,39.31,11.64,39.31,11.64s10.49-1.77,10.62-5.94C394.71,461.68,395.58,457.55,389.93,452.78Z"/><path class="cls-18" d="M248.66,403.77c-3.58-5.54,32.57-14.86,38.71,2.86,0,0,.32,2.94-3.52,5.74,0,0-2.6,3.26-.58,5.41,1.48,4.65-3.11,7.42-3.11,7.42-2.93.32-3.06,4.5-3.06,4.5,1.11,4.62-1,6.64-1,6.64-16.15,9.53-31-22.66-31-22.66s-1.57-3.39,1.37-3.71C246.39,410,252.25,409.31,248.66,403.77Z"/><path class="cls-19" d="M246.39,410h0c-6.78,3.13,8,18.47,8,18.47s7.62,4.13,9.9-2.06c0,0-2.35-5.08.58-5.41,0,0,2.93-.33,4.3-4l.91-2.48a2.5,2.5,0,0,0-1.19-3.37c-2-2.15,3.06-4.5,3.06-4.5,2.27-6.19-6.21-8-6.21-8s-21.17,2.13-18,8.91A2.18,2.18,0,0,1,246.39,410Z"/><path class="cls-20" d="M247.87,407c-1.19-4.41,6.38-5.37,6.38-5.37s10.3-1.75,12.3,4.28c0,0,.38,2.79-6.24,1.69,0,0-3.34,1.42,1.19,4.41,0,0,5.38.65,4.52,3l-.82,1.22c-.86,2.33-5.39-.66-5.39-.66-5.38-.65-3.76,2.6-3.76,2.6,5.76,3.44,3.66,5.32,3.66,5.32-5.43,3.31-12.14-4.71-12.14-4.71s-5.15-5.62-1.38-8.21c0,0,2.58-1.16,1.68-3.56"/><path class="cls-13" d="M219.65,396.62s-5,13.63,9.08,17.4c0,0,9.12,2,10.29-8.87,0,0,.71-9.58,3.64-9.91,0,0,7.56-1.44-2.35-5.08a103.45,103.45,0,0,1-11.6-2.86S222.84,388,219.65,396.62Z"/><path class="cls-23" d="M155.29,357.49s6.73,12.32,16.64,16"/><path class="cls-23" d="M142.92,379.66s17.15-.73,26.93,7.09"/><path class="cls-23" d="M149.63,365.25s5.15,8.93,22.5,15.31"/><path class="cls-23" d="M148.46,376.07s25.36,3.7,28.49,10.48"/><path class="cls-22" d="M113.65,367.5s4.17.12,2.6-3.27c0,0-.32-2.93,1.37-3.71,0,0,.59-2-5.51-2.42l-2.63,9.27S112,368.28,113.65,367.5Z"/><path class="cls-16" d="M110.19,357.79s-8.14,6.85-.71,9.58c0,0,3.71,1.36,3.84-2.81,0,0-1.56-3.39,1.37-3.71C114.69,360.85,116.84,358.82,110.19,357.79Z"/></g><path class="cls-8" d="M145.06,556.79a115.73,115.73,0,0,1,26.46-12l4.66-6.13s-31.37,14-38.47,14l.86,9A18.87,18.87,0,0,1,145.06,556.79Z"/><path class="cls-29" d="M283,514.25s-23.86,13.21-98.6,28.92c0,0-2.94-7.35,22.54-14.71,0,0,37-10.55,40.93-15,0,0,0-7.11-17.89,1.47l-46.85,21.21-5.6-3S206,518.9,216.24,516.2c0,0-36.25,13.62-44.23,10.87,0,0,7.72-6.2,39.82-14.79,0,0,23.77-8.09,28.91-13l35.05,5.87Z"/><path class="cls-10" d="M323.21,501.09S359,483.92,350.9,474.37l-52.44,25.26,3.93,9.8Z"/><path class="cls-7" d="M261,516.06s18.38-7.35,18.62-10.3l-17-20.77s-10.69,4.85-13.87,7.55L256.07,518Z"/><path class="cls-30" d="M412.9,462.34c-6.93,10.43-9.14,9.93-34.06,17.9,0,0-91.3,33.81-104.7,50.5l-9.73,1s1-11.77,21.07-18.39c0,0,60.16-22,58.44-29.8l-6.13-4.65,73-37.62S419.83,451.9,412.9,462.34Z"/><path class="cls-13" d="M280.89,551.27s6.93,1.67,8.64-4.7c0,0,1.72-6.38-3.68-12.75,0,0-4.86-3.88-8.44-1l1.82-4.92,10,.25,6.62,5.88,3.68,5.63-.73,8.82-10.29,9.81Z"/><path class="cls-30" d="M279.24,563.48l-1.1-11.64c-9.44-11.15-4-21.1-4-21.1,3.48-7.74,14.16-5,14.16-5,11.52,3.91,13.48,15.92,13.48,15.92.5,15.44-11.51,17.41-11.51,17.41Zm-1.72-15s7.6,8.33,15.69,3.67a13.53,13.53,0,0,0,5.63-10.78s-.49-8.34-13.24-11.76a9.1,9.1,0,0,0-10,6.86S273.35,541.67,277.52,548.53Z"/><path class="cls-7" d="M280.47,563s11.52-3.19,4.16-7.35c0,0-6.1-2.63-8.57-6.21,0,0-9.32-13.64,3.66-27.37,0,0,3.79-4.73-8-.52,0,0-13.95,13.57-9.69,27.51C262,549.05,269,566.18,280.47,563Z"/><path class="cls-15" d="M270.53,522.19S248,544,272,561.4c0,0,1.72.74,7.36-2.94,0,0,2.45-1-1.23-6.62,0,0-11-9.8-3.2-25.73C274.94,526.11,276.16,518.51,270.53,522.19Z"/><path class="cls-16" d="M265.8,555.76s6.09,3.56,8.29-1.59c0,0,1-4.66-3.92-9.8,0,0-4.41-3.92-2.21-9.07,0,0,2-7.44-3.79-3.23,0,0-5,8.88-2.8,14.75C261.37,546.82,262.64,552.45,265.8,555.76Z"/><path class="cls-16" d="M289.53,546.57s4.66,1,6.86-4.17c0,0,1-4.66-5.39-6.37,0,0-2.83-1.07-2.77,1.42A15.47,15.47,0,0,1,289.53,546.57Z"/><path class="cls-12" d="M401.94,439.28s9.73-1.33-23.35,11.92c0,0-89.41,38.54-110.63,35.72l-7.73,6s8.82,7.84,27.93-1.23c0,0,58.69-25.63,62.86-18.77l9.69-5.76,38.22-14.59Z"/><path class="cls-13" d="M258.68,467.4s3.86-6,9.5-2.56c0,0,5.64,3.43,6.13,11.76,0,0-.84,6.17-5.44,6.52l4.71,2.3,7.1-7.11.74-8.82-1.23-6.62L273.57,457H259.35Z"/><path class="cls-26" d="M249.06,459.7l7.23,9.19c.87,14.58,11.67,18,11.67,18,7.86,3.2,13.71-6.16,13.71-6.16,5.63-10.78-1.24-20.83-1.24-20.83-10.3-11.51-20.34-4.65-20.34-4.65Zm9.07,12s-.25-11.28,8.82-13.49a13.54,13.54,0,0,1,11.52,3.92s5.4,6.37-1.46,17.65a9.13,9.13,0,0,1-12,2S259.85,479.55,258.13,471.71Z"/><path class="cls-7" d="M250.29,459.21s10.53-5.64,8.09,2.45c0,0-2.61,6.11-1.92,10.41,0,0,2.66,16.3,21.53,17.27,0,0,6,.82-5.45,5.93,0,0-19.46-.2-26-13.23C246.54,482,239.75,464.85,250.29,459.21Z"/><path class="cls-15" d="M271.25,495.6s-31.37-.24-26-29.4c0,0,.73-1.72,7.35-2.95,0,0,2.45-1,3.67,5.64,0,0-1.22,14.7,15.45,20.82C271.74,489.71,277.87,494.37,271.25,495.6Z"/><path class="cls-16" d="M244.66,474.57s2-6.78,7.1-4.58c0,0,3.92,2.7,3.93,9.8,0,0-.49,5.89,4.66,8.09,0,0,6.56,4-.52,4.95,0,0-9.73-3-12.21-8.74C247.62,484.09,244.67,479.14,244.66,474.57Z"/><path class="cls-16" d="M268.18,464.84s2.69-3.92,7.84-1.72c0,0,3.92,2.7.5,8.33,0,0-1.32,2.73-3,.88A15.46,15.46,0,0,0,268.18,464.84Z"/><path class="cls-31" d="M401.79,438.94s-8.83-.73-39,12.76c0,0-27.2,13.74-44.11,17.67,0,0-16.35,3.89-22.76,6.36l-7.42,11.53,16.88,13.05c6.34-2.63,20.86-11.11,20.86-11.11,15-8.82,44.11-17.66,44.11-17.66,31.12-11,37-17.66,37-17.66s6.62-8.33,3.92-11.52C411.3,442.36,409.18,438.71,401.79,438.94Z"/><path class="cls-26" d="M264,497.07c-6.38-1.71,14.24-32.84,30.67-23.77,0,0,2.2,2,1.22,6.61,0,0,.25,4.17,3.19,4.41,4.21,2.46,2.66,7.59,2.66,7.59-2,2.21.73,5.39.73,5.39,3.93,2.69,3.68,5.64,3.68,5.64-5.63,17.89-38.23,3.93-38.23,3.93s-3.43-1.47-1.47-3.67C266.48,503.2,270.4,498.78,264,497.07Z"/><path class="cls-19" d="M266.48,503.2h0c-2.94,6.86,18.29,8.39,18.29,8.39s8.42-2,6-8.16c0,0-5.15-2.2-3.19-4.41,0,0,2-2.21.49-5.88l-1-2.45a2.51,2.51,0,0,0-3.14-1.71c-2.94-.24-.74-5.39-.74-5.39-2.45-6.12-9.95-1.77-9.95-1.77s-14.31,15.75-7.44,18.69A2.19,2.19,0,0,1,266.48,503.2Z"/><path class="cls-20" d="M265.57,500c-3.84-2.49,1.15-8.26,1.15-8.26s6.48-8.2,12-5c0,0,2.15,1.82-3.51,5.43,0,0-1.53,3.29,3.84,2.48,0,0,4.44-3.12,5.36-.81l.2,1.46c.93,2.31-4.44,3.12-4.44,3.12-4.44,3.12-1.06,4.45-1.06,4.45,6.59-1.3,6.29,1.5,6.29,1.5-1.83,6.09-12.18,4.63-12.18,4.63s-7.59-.74-6.52-5.18c0,0,1.15-2.59-1.13-3.77"/><path class="cls-13" d="M237.68,511.17s5.4,13.48,18.39,6.86c0,0,8.08-4.66,1.71-13.48,0,0-5.89-7.6-3.93-9.81,0,0,4.66-6.12-5.14-2.2a101.71,101.71,0,0,1-10.54,5.64S234.25,502.59,237.68,511.17Z"/><path class="cls-27" d="M163.67,525.17s13.24,4.65,23,.73"/><path class="cls-27" d="M169.32,549.92s12.25-12,24.75-12.75"/><path class="cls-27" d="M164.66,534.73s9.8,3.18,27-3.69"/><path class="cls-27" d="M171,543.55s21.32-14.23,28.18-11.29"/><path class="cls-22" d="M139.42,560.47s3.19-2.7-.24-4.17c0,0-2.21-2-1.47-3.67,0,0-.9-1.86-5.72,1.89l4.25,8.65S138.69,562.19,139.42,560.47Z"/><path class="cls-16" d="M130.35,555.57s-1.46,10.54,5.89,7.6c0,0,3.67-1.48,1-4.66,0,0-3.43-1.47-1.47-3.68C135.75,554.83,136,551.89,130.35,555.57Z"/><path class="cls-31" d="M368.16,560.25s-31.92,33.84-40.75,1.65c0,0-9.84,23.41,14,31.15,0,0,36.91,1.41,40.43-14.08Z"/><path class="cls-32" d="M440.42,551.56s-5,22.13-22.73,18.11c0,0-8.15,5.13,5.63,5.93,0,0,15.57-2,14.77,4.07,0,0,11-4,8.29-18C446.38,561.65,444.84,552.57,440.42,551.56Z"/><path class="cls-33" d="M437.4,564.84s.2,9.35,7.34,8.65c0,0,6.11-6.4-.81-16.88C443.93,556.61,440.42,551.56,437.4,564.84Z"/><path class="cls-34" d="M405.47,577.36s-14.68,33.9-2.91,43.55c0,0,4.62,10.36-12.57,4.12,0,0-16.7-8.44-2.32-30.77C387.67,594.26,399.84,571.43,405.47,577.36Z"/><path class="cls-30" d="M407,585.86s16.13,32.49-4.36,40.18C402.67,626,387.82,588.48,407,585.86Z"/><path class="cls-26" d="M386.82,592.9s16.69,8.45,17.8-16.9l-4.78-21.65-26.6-4.09S360.36,566,362.78,575.81C362.78,575.81,373.54,589.89,386.82,592.9Z"/><path class="cls-26" d="M386.82,592.9s16.69,8.45,17.8-16.9l-4.78-21.65-26.6-4.09S360.36,566,362.78,575.81C362.78,575.81,373.54,589.89,386.82,592.9Z"/><path class="cls-24" d="M393.16,561.34S345.78,630.11,334.92,637"/><path class="cls-24" d="M382.65,555.92S305.86,642,301.84,659.69"/><path class="cls-34" d="M311.19,659.48s-22.83-12.16-22.63-2.81c0,0,1.91,12.07,13,14.58C301.54,671.25,323.46,666.93,311.19,659.48Z"/><path class="cls-25" d="M425.73,483.08s-8.35-4.23-13.37,17.9c0,0-8.75,28.26-22.33,36.81,0,0-10.86,6.84-7.94,14.48l32,2.61L439,486.09S436.09,478.45,425.73,483.08Z"/><path class="cls-35" d="M439,486.09s-6.84-10.86-11.37,9.05c0,0-14.18,31.69-28.76,44.66,0,0-12.3,5.13-9.77,13.38,0,0,1,14.88,18.52,9.55L428.75,521Z"/><path class="cls-35" d="M439,486.09s-10.07,76.37-32.29,76.2c0,0-7.43-3.78,5.94-21.69,0,0,12.87-15.69,21.12-41.73C433.78,498.87,433.88,478,439,486.09Z"/><path class="cls-36" d="M439,486.09s-10.07,76.37-32.29,76.2c0,0-7.43-3.78,5.94-21.69,0,0,12.87-15.69,21.12-41.73C433.78,498.87,433.88,478,439,486.09Z"/><path class="cls-37" d="M394.51,553.93s-37.11-10.76-16.7-59.64c0,0-15-5.73-19.51,14.18,0,0-11.06,48.68,13.78,52C372.08,560.47,396.07,562.43,394.51,553.93Z"/><path class="cls-24" d="M401.2,570.57S371.63,629,361.78,631.42"/><path class="cls-38" d="M364.79,618.15s-10.66,16.19-2.11,29.77"/><path class="cls-38" d="M340.66,622s-4.13,38.62-17.4,35.6"/><path class="cls-28" d="M410.05,572.59s13.67-29.47,30.37-21c0,0,11.77,9.66,4.32,21.93,0,0-22,25.24-42.13,11.37,0,0-9.76-18.51-2.62-19.21C400,565.65,417.49,560.32,410.05,572.59Z"/><path class="cls-39" d="M447.15,481s92.43,74.52,120.19,136.67c0,0,40.64,97.66,27.16,136.48,0,0-9.35.2-18-43.65,0,0-18.11-73.92-40.43-88.3C536.07,622.16,437.8,532.36,447.15,481Z"/><path class="cls-40" d="M485.26,514.75s-19.65-7.49,2.78,37.16c0,0,40.83,55.82,67.79,80.56l6.39-28.12S524.22,549.9,485.26,514.75Z"/><path class="cls-40" d="M549.34,586.72s-21.17,13.87,6.49,45.75c0,0,37,76.88,29.47,113.06,0,0,9.72,23.82,11.85-7.11C597.15,738.42,588.93,635.2,549.34,586.72Z"/><path class="cls-41" d="M549.34,586.72s-21.17,13.87,6.49,45.75c0,0,37,76.88,29.47,113.06,0,0,9.72,23.82,11.85-7.11C597.15,738.42,588.93,635.2,549.34,586.72Z"/><path class="cls-42" d="M436.94,428.62s-24.94,17.6,11.57,51.49c0,0,52.9,53.9,92,55.81,0,0-50.14-40.48-50.84-47.62C489.7,488.3,449.36,430.27,436.94,428.62Z"/><path class="cls-4" d="M361.67,378.6S391,386,395,399c0,0,9,38.59,20.52,35.8,0,0,7.73,8.11,6.6-20.35,0,0-1.12-22.45-1.12-27.45,0,0,3-13,8,6,0,0,11.12,14.05,11.56,28,0,0,4.72-18.37,12.08-19.2,0,0,7.36-2.17,6.36-13.49,0,0,3,31.67-2,40.67,0,0-4,13,12-3,0,0,8.88-16.65,19.44-18.82,0,0,6.56-1.18,1.56,7.82,0,0-10,16,2,17,0,0,21.06-8.77,23.53-3.38,0,0-18.53,18.38-39.53,19.38,0,0-25-1-24,50,0,0,9,154-10,208,0,0-5,17-17,17,0,0-23-7-20-30,0,0,7-23,14-35,0,0,11-11,11-78l9.5-94.5s-2.78,13.42-3.39,17.71c0,0-3.61,4.29-3.61-11.71,0,0-9,13-15,13,0,0-6.27,1.78-8.64,5.89,0,0,4.63-8.84,5.64-16.86,0,0,3-12,11-10,0,0,4-1,1-12,0,0-6.4-15.8-11.2-19.4,0,0-24.8-12.6-27.8-30.6,0,0,5.09-10.14-23.46-10.07,0,0-10.54-1.93,4.46-7.93,0,0,11-4,2-12C370.5,391.5,343.83,375.69,361.67,378.6Z"/></g></g></svg>