<svg xmlns="http://www.w3.org/2000/svg" viewBox="0 0 864 864"><defs><style>.cls-1{fill:#2a4024;}.cls-2{fill:#aab61c;}.cls-3{fill:#788d05;}.cls-4{fill:#637200;}.cls-5{fill:#b1ba38;}.cls-6{fill:#7e980e;}.cls-7{fill:#547b00;}.cls-8{fill:#9aa819;}.cls-9{fill:#7f9500;}.cls-10{fill:#5f7e04;}.cls-11{fill:#648a02;}.cls-12{fill:#5a8800;}.cls-13{fill:#4d6c04;}.cls-14{fill:#a2b966;}.cls-15{fill:#8ba02b;}.cls-16{fill:#5f8602;}.cls-17{fill:#83ab58;}.cls-18{fill:#719d46;}.cls-19{fill:#2a5c00;}.cls-20{fill:#b0cc8c;}.cls-21{fill:#eaece5;}.cls-22{fill:#a3aa9a;}.cls-23{fill:#8b988a;}.cls-24{fill:#cdcec9;}.cls-25{fill:#9ea39f;}.cls-26,.cls-29{fill:#a6aeaa;}.cls-26{opacity:0.59;}.cls-27{fill:#ebd4e5;}.cls-28{fill:#e6e9e9;}.cls-30{fill:#d7dadd;}.cls-31{fill:#d9e5db;}.cls-32{fill:#9eab98;}.cls-33{fill:#8a997f;}.cls-34{fill:#fafcfa;}.cls-35{fill:#cfd5ca;}.cls-36{fill:#bcc1c8;}.cls-37{fill:#c9cfcf;}.cls-38{fill:#b3bcb3;}.cls-39{fill:#e5eddc;}.cls-40{fill:#e6eede;}.cls-41{fill:#f4fcef;}.cls-42{fill:#e7f1d9;}.cls-43{fill:#c4ccbe;}.cls-44{fill:#c2c7bb;}.cls-45{fill:#dbe1d7;}.cls-46{fill:#c5c3cc;}.cls-47{fill:#f5faea;}.cls-48{fill:#eff5eb;}.cls-49{fill:#adadb0;}.cls-50{fill:#fdffff;}.cls-51{fill:#9ea392;}</style></defs><title>rubiaceae</title><g id="richardiaScabra"><circle class="cls-1" cx="432" cy="438" r="432"/><g id="leaves-2" data-name="leaves"><path class="cls-2" d="M480.86,529.23s23.78,25,26.59,34.27c0,0,5.79,12.36,6.26-5.94,0,0-5.31-30.67-14.23-40.06C499.48,517.5,478.13,517,480.86,529.23Z"/><path class="cls-3" d="M493.29,543.13s12,4.9,15.15-7.16c3.71,7.77,9,27.47,3.94,30.55-3.48,2.11-7.58-9.33-11.51-14.23-1.3-1.62-3.92-4.89-7.58-9.16"/><path class="cls-4" d="M502.66,555s4.67,7.47,5.31,9.48c0,0,1.7,3.87,3.67,2.79a6.37,6.37,0,0,0,2.62-5.95s.16-6.34-.35-7.53c0,0-2.54,5.76-5.1,5.32C508.81,559.13,506.26,558.9,502.66,555Z"/><path class="cls-2" d="M466,531.08s9.9,35.73,7.91,45.9c0,0-.76,14.63,8.93-2.48,0,0,10.44-31.74,6.73-45.14C489.56,529.36,469.6,518.06,466,531.08Z"/><path class="cls-3" d="M470.76,550.52s8.95,10.73,18,.87c-.4,9.23-5.3,30.58-11.68,30.94-4.37.24-2.47-12.67-3.72-19.29-.42-2.2-1.26-6.62-2.56-12.52"/><path class="cls-4" d="M473.63,566.52s.66,9.44.26,11.67c0,0-.35,4.52,2.07,4.49,0,0,3.54-.13,5.48-4.31,0,0,3.35-5.93,3.47-7.32,0,0-5.31,4.18-7.53,2.47C477.38,573.52,475.08,572,473.63,566.52Z"/><path class="cls-2" d="M483.48,529.8s-27.27,25.12-30.94,34.81c0,0-7.09,12.83-6.28-6.81,0,0,7.89-32.48,18.12-41.9C464.38,515.9,487.3,516.84,483.48,529.8Z"/><path class="cls-3" d="M469.17,543.8s-13.26,4.39-15.71-8.75c-4.54,8.05-11.65,28.77-6.42,32.44,3.58,2.52,8.79-9.45,13.35-14.41,1.51-1.65,4.56-5,8.78-9.28"/><path class="cls-4" d="M458.28,555.87s-5.54,7.67-6.37,9.77c0,0-2.1,4-4.13,2.73,0,0-2.94-2-2.38-6.56,0,0,.28-6.8.92-8,0,0,2.3,6.35,5.08,6.07C451.4,559.84,454.15,559.77,458.28,555.87Z"/><path class="cls-5" d="M475.64,528s16.44,23.67,17.59,31.65c0,0,3.2,10.93,5.91-4.11,0,0-.49-26-6.65-34.85C492.49,520.7,474.94,517.53,475.64,528Z"/><path class="cls-6" d="M484.13,541.05s9.32,5.58,13.4-4c2.08,6.88,4,23.8-.62,25.7-3.14,1.3-5.07-8.66-7.69-13.19-.87-1.51-2.62-4.54-5.09-8.53"/><path class="cls-7" d="M490.35,552.05s2.91,6.76,3.18,8.49c0,0,.91,3.42,2.67,2.77a5.27,5.27,0,0,0,2.91-4.57s.94-5.21.67-6.26c0,0-2.82,4.43-4.88,3.74C494.9,556.22,492.82,555.71,490.35,552.05Z"/><path class="cls-8" d="M440.72,505.35S424.48,540.78,416,547.6c0,0-10.52,11.26,8.85,4.06,0,0,29.89-18.45,36-31.74C460.83,519.92,452.44,497.32,440.72,505.35Z"/><path class="cls-9" d="M431.39,524.2s-.07,14.69,13.85,12.87c-6.57,7.15-25,21-30.34,17-3.67-2.76,6.6-11.86,10.07-18,1.16-2,3.48-6.17,6.42-11.8"/><path class="cls-10" d="M422.86,539s-5.86,8-7.69,9.55c0,0-3.34,3.41-1.38,5,0,0,2.94,2.29,7.33.24,0,0,6.71-2.49,7.74-3.53,0,0-7.1-.23-7.72-3.1C421.14,547.19,420.31,544.42,422.86,539Z"/><path class="cls-2" d="M449,512.79s-1.06,28.5-4.89,35.5c0,0-4,10.55,7.13.26,0,0,15-20.85,15.44-31.54C466.66,517,454.65,504.08,449,512.79Z"/><path class="cls-3" d="M448,528.15s4.06,10,13,4.82c-2.44,6.68-11,21.19-15.77,20-3.26-.84,1.14-9.87,1.76-15,.21-1.71.62-5.15,1-9.78"/><path class="cls-4" d="M446.33,540.56s-1.71,7.07-2.52,8.61c0,0-1.31,3.24.47,3.78a5.26,5.26,0,0,0,5-1.89s3.84-3.57,4.24-4.56c0,0-4.86,1.83-6.09.06C447.45,546.56,446.12,544.92,446.33,540.56Z"/><path class="cls-11" d="M485.15,544.4s-19.62,31.46-20.59,41.78c0,0-3.42,14.25-7.86-4.9,0,0-1-33.41,6.33-45.21C463,536.07,485.38,530.89,485.15,544.4Z"/><path class="cls-12" d="M475.07,561.7s-11.62,7.75-17.47-4.26c-2.24,9-3.58,30.83,2.43,33,4.12,1.47,6-11.45,9-17.45,1-2,3.07-6,6-11.27"/><path class="cls-13" d="M467.78,576.23s-3.31,8.86-3.55,11.11c0,0-1,4.44-3.26,3.72,0,0-3.36-1.12-4-5.68,0,0-1.54-6.64-1.26-8,0,0,3.91,5.51,6.52,4.5C462.2,581.88,464.83,581.09,467.78,576.23Z"/><path class="cls-2" d="M518.29,506.63s14.48,34.14,22.36,40.86c0,0,9.7,11-8.53,3.62,0,0-27.93-18.36-33.36-31.16C498.76,520,507.36,498.68,518.29,506.63Z"/><path class="cls-3" d="M526.65,524.82s-.33,14-13.53,11.85c6.06,7,23.18,20.65,28.39,17,3.58-2.52-5.94-11.45-9.08-17.42-1-2-3.14-6-5.78-11.39"/><path class="cls-4" d="M534.35,539.14s5.36,7.8,7.06,9.29c0,0,3.08,3.33,1.17,4.81,0,0-2.85,2.1-7,0,0,0-6.31-2.56-7.27-3.57,0,0,6.76,0,7.43-2.75C535.77,547,536.64,544.34,534.35,539.14Z"/><path class="cls-14" d="M510.08,509.77s33.49,15.9,39.87,24.06c0,0,10.58,10.15,4-8.37,0,0-17.17-28.67-29.73-34.64C524.2,490.82,502.59,498.52,510.08,509.77Z"/><path class="cls-15" d="M527.89,518.89s14,.26,12.42-13c6.72,6.35,19.65,24,15.75,29.08-2.68,3.47-11.2-6.42-17-9.81-1.94-1.12-5.83-3.38-11.15-6.25"/><path class="cls-16" d="M541.88,527.19s7.57,5.68,9,7.44c0,0,3.2,3.22,4.75,1.38,0,0,2.22-2.77.33-7,0,0-2.29-6.41-3.26-7.41,0,0-.31,6.75-3.06,7.3C549.62,528.93,547,529.69,541.88,527.19Z"/><path class="cls-2" d="M465.92,515.06s6.56,22.94,5.34,29.5c0,0-.41,9.42,5.73-1.64,0,0,6.55-20.49,4.09-29.09C481.08,513.83,468.17,506.67,465.92,515.06Z"/><path class="cls-3" d="M469.09,527.55s5.82,6.86,11.57.46c-.21,5.94-3.25,19.71-7.35,20-2.81.18-1.66-8.14-2.5-12.39-.28-1.41-.84-4.25-1.72-8"/><path class="cls-4" d="M471,537.83a62.66,62.66,0,0,1,.23,7.5s-.2,2.92,1.35,2.88a4.39,4.39,0,0,0,3.51-2.8s2.12-3.83,2.19-4.73c0,0-3.39,2.72-4.83,1.63C473.48,542.31,472,541.36,471,537.83Z"/><path class="cls-2" d="M492.31,504.47s10.25,21.51,10.13,28.17c0,0,1.15,9.35,5.37-2.56,0,0,3.07-21.26-.78-29.33C507,500.75,493.13,495.83,492.31,504.47Z"/><path class="cls-3" d="M497.49,516.25s6.87,5.79,11.47-1.46c.78,5.89.06,20-3.93,20.89-2.74.64-3-7.75-4.52-11.8-.5-1.34-1.53-4-3-7.63"/><path class="cls-4" d="M501.1,526.05a62.68,62.68,0,0,1,1.47,7.36s.29,2.9,1.81,2.61a4.38,4.38,0,0,0,3-3.34s1.46-4.13,1.38-5c0,0-2.89,3.24-4.48,2.41C504.26,530.07,502.63,529.37,501.1,526.05Z"/><path class="cls-2" d="M508,499.08s5.77,18.27,9.49,22.12c0,0,4.45,6.13-4.57,1.44,0,0-13.45-10.82-15.62-17.67C497.27,505,502.75,494.45,508,499.08Z"/><path class="cls-3" d="M511.38,508.85s-.86,7.17-7.54,5.43c2.77,3.89,10.9,11.76,13.76,10.12,2-1.12-2.49-6.19-3.81-9.41-.44-1.07-1.32-3.22-2.41-6.14"/><path class="cls-4" d="M514.63,516.59a50.86,50.86,0,0,0,3.17,5.13s1.43,1.86.37,2.53a3.5,3.5,0,0,1-3.58-.33,22.58,22.58,0,0,1-3.57-2.19s3.48.31,4-1.05C515,520.68,515.55,519.38,514.63,516.59Z"/><path class="cls-2" d="M504.91,502.38s14.82,1.76,18.31,4.05c0,0,5.34,2.51.44-3.71,0,0-10.25-8.72-15.81-9.38C507.85,493.34,500.6,499.06,504.91,502.38Z"/><path class="cls-3" d="M512.88,503.57s5.36-1.7,3.06-6.57c3.38,1.56,10.59,6.64,9.75,9.07-.57,1.66-5.1-1-7.76-1.55-.88-.18-2.66-.54-5-.95"/><path class="cls-4" d="M519.28,504.93a39.58,39.58,0,0,1,4.39,1.68s1.63.82,2-.08a2.74,2.74,0,0,0-.78-2.7,18.59,18.59,0,0,0-2.19-2.41s.74,2.62-.23,3.18C522.46,504.6,521.55,505.23,519.28,504.93Z"/><path class="cls-2" d="M441,447.65s-36.33-7.4-44.48-13.79c0,0-12.7-7.32-1.85,9.08,0,0,23.54,23.72,37.17,26.49C431.81,469.43,450.94,456.77,441,447.65Z"/><path class="cls-3" d="M421.49,443.07s-13.63,3.11-8.93,15.62c-8.05-4.55-24.84-18.61-22.27-24.45,1.77-4,12.41,3.54,18.88,5.43,2.15.63,6.47,1.89,12.32,3.4"/><path class="cls-4" d="M405.92,438.37s-8.71-3.7-10.51-5.06c0,0-3.87-2.37-4.94-.2,0,0-1.49,3.21,1.36,6.84,0,0,3.75,5.67,4.94,6.41,0,0-1.32-6.63,1.21-7.82C398,438.54,400.37,437.17,405.92,438.37Z"/><path class="cls-2" d="M434.17,463.82s-10-35.7-17-43.38c0,0-8.21-12.14,8.93-2.5,0,0,25.35,21.78,29.1,35.16C455.23,453.1,444,473.1,434.17,463.82Z"/><path class="cls-3" d="M428.19,444.71s2.11-13.81,14.93-10c-5.11-7.7-20.35-23.43-26-20.44-3.87,2.05,4.43,12.12,6.78,18.43.79,2.1,2.35,6.32,4.28,12"/><path class="cls-4" d="M422.38,429.53s-4.31-8.42-5.81-10.12c0,0-2.64-3.7-.55-4.91,0,0,3.09-1.72,6.91.85,0,0,5.94,3.34,6.76,4.47,0,0-6.7-.83-7.72,1.78C422,421.6,420.78,424.07,422.38,429.53Z"/><path class="cls-5" d="M439.33,457.64s-28.56,3.9-36.18,1.31c0,0-11.2-2.11,1,7.14,0,0,23.37,11.35,34.08,9.88C438.2,476,449,461.77,439.33,457.64Z"/><path class="cls-6" d="M423.85,459.28s-9.19,5.78-2.53,13.75c-7.08-1.26-23-7.27-22.62-12.22.27-3.39,10-.58,15.25-.86,1.73-.09,5.23-.27,9.9-.67"/><path class="cls-7" d="M411.23,459.83s-7.34-.47-9-1c0,0-3.46-.74-3.68,1.12a5.29,5.29,0,0,0,2.75,4.67s4.22,3.2,5.27,3.44c0,0-2.66-4.53-1.12-6.06C405.44,462,406.84,460.38,411.23,459.83Z"/><path class="cls-8" d="M474.71,473.61s-28.52,0-35.65-3.56c0,0-10.7-3.57,0,7.13,0,0,21.39,14.26,32.09,14.26C471.15,491.44,483.63,479,474.71,473.61Z"/><path class="cls-9" d="M459.32,473.15s-9.8,4.43-4.33,13.15c-6.77-2.2-21.59-10.22-20.54-15,.71-3.29,9.9.77,15.06,1.2,1.72.15,5.17.43,9.81.67"/><path class="cls-10" d="M446.86,472s-7.13-1.45-8.7-2.21c0,0-3.28-1.18-3.75.61a5.25,5.25,0,0,0,2.07,5s3.7,3.7,4.71,4.08c0,0-2-4.8-.29-6.09C440.9,473.34,442.49,472,446.86,472Z"/><path class="cls-2" d="M465,440.8s-24.91-13.89-29.41-20.47c0,0-7.61-8.32-3.47,6.23,0,0,11.75,22.87,21.09,28.08C453.2,454.64,470.18,449.81,465,440.8Z"/><path class="cls-3" d="M451.77,432.9s-10.71-.89-10.18,9.38c-4.84-5.21-13.89-19.43-10.64-23.12,2.23-2.52,8.28,5.49,12.58,8.38,1.43,1,4.3,2.89,8.24,5.36"/><path class="cls-4" d="M441.45,425.83s-5.53-4.74-6.53-6.16c0,0-2.29-2.63-3.57-1.29a5.22,5.22,0,0,0-.6,5.33s1.43,5,2.13,5.85c0,0,.58-5.16,2.71-5.45C435.59,424.11,437.66,423.66,441.45,425.83Z"/><path class="cls-11" d="M420.4,458.68s-19.12-31.77-27.88-37.32c0,0-11.14-9.51,7.94-4.78,0,0,30.23,14.26,37.4,26.17C437.86,442.75,432.34,465,420.4,458.68Z"/><path class="cls-12" d="M409.57,441.84S407.94,428,421.3,428.21c-7-6.07-25.85-17.19-30.49-12.81-3.18,3,7.49,10.51,11.44,16,1.31,1.82,3.94,5.47,7.32,10.47"/><path class="cls-13" d="M399.93,428.75s-6.4-7-8.29-8.21c0,0-3.52-2.86-1.84-4.59,0,0,2.53-2.48,6.9-1,0,0,6.61,1.64,7.7,2.51,0,0-6.69,1-7,3.76C397.43,421.21,396.94,423.92,399.93,428.75Z"/><path class="cls-2" d="M439,505.35s-37-2.6-46.55,1.38c0,0-14.2,3.65.65-9.25,0,0,29-16.55,42.9-15.57C436,481.91,451.06,499.22,439,505.35Z"/><path class="cls-3" d="M419,504.54s-12.29-6.64-4.42-17.43c-9,2.22-28.92,11.28-28,17.6.63,4.33,12.91-.1,19.65-.19,2.23,0,6.73-.09,12.77,0"/><path class="cls-4" d="M402.76,504.91s-9.39,1.22-11.48,2.06c0,0-4.37,1.24-4.82-1.13,0,0-.58-3.49,3.14-6.23,0,0,5.14-4.46,6.48-4.85,0,0-3,6-.93,7.86C395.15,502.62,397.08,504.58,402.76,504.91Z"/><path class="cls-14" d="M440,496.61s-29.37,22.62-39.55,24.61c0,0-13.84,4.81,5.66,7.34,0,0,33.34-2.28,44.36-10.76C450.42,517.8,453.37,495.05,440,496.61Z"/><path class="cls-15" d="M423.73,508.34s-6.57,12.34,6,17c-8.71,3.11-30.33,6.61-33.06.83-1.88-3.95,10.8-7.06,16.46-10.71,1.88-1.21,5.66-3.65,10.63-7.09"/><path class="cls-16" d="M410,517s-8.5,4.17-10.71,4.63c0,0-4.32,1.39-3.38,3.61,0,0,1.45,3.23,6.06,3.45,0,0,6.75.88,8.08.46,0,0-5.87-3.34-5.12-6C404.92,523.15,405.45,520.45,410,517Z"/><path class="cls-2" d="M455.27,454.86s-23.41-4.57-28.7-8.63c0,0-8.21-4.64-1.14,5.85,0,0,15.28,15.13,24.06,16.84C449.49,468.92,461.73,460.68,455.27,454.86Z"/><path class="cls-3" d="M442.71,452s-8.75,2.07-5.66,10.09c-5.2-2.88-16.09-11.83-14.46-15.61,1.11-2.58,8,2.22,12.18,3.4,1.38.39,4.17,1.18,7.94,2.12"/><path class="cls-4" d="M432.67,449.08a63,63,0,0,1-6.79-3.2s-2.51-1.5-3.18-.11a4.37,4.37,0,0,0,.91,4.4s2.45,3.63,3.21,4.1c0,0-.88-4.26.74-5C427.56,449.23,429.09,448.33,432.67,449.08Z"/><path class="cls-2" d="M452.73,483.18s-23.82-.63-29.7-3.76c0,0-8.85-3.22-.15,5.95,0,0,17.55,12.38,26.48,12.62C449.36,498,460.06,487.84,452.73,483.18Z"/><path class="cls-3" d="M439.89,482.46s-8.28,3.48-3.91,10.88c-5.6-2-17.8-9-16.82-13,.67-2.73,8.25.86,12.55,1.33,1.43.16,4.31.47,8.18.78"/><path class="cls-4" d="M429.51,481.22a64.25,64.25,0,0,1-7.22-2s-2.72-1.07-3.15.42a4.4,4.4,0,0,0,1.62,4.18s3,3.17,3.85,3.51c0,0-1.57-4.05-.11-5.09C424.5,482.21,425.86,481.08,429.51,481.22Z"/><path class="cls-2" d="M450.43,499.58s-18.9-3.15-24-1.58c0,0-7.48,1.18.79-4.72,0,0,15.75-7.08,22.84-5.9C450,487.38,456.92,497,450.43,499.58Z"/><path class="cls-3" d="M440.18,498.18s-6-4-1.42-9.18c-4.72.7-15.43,4.38-15.27,7.67.11,2.26,6.65.59,10.12.87,1.15.1,3.47.29,6.57.64"/><path class="cls-4" d="M431.8,497.57a50.38,50.38,0,0,0-6,.5s-2.31.42-2.42-.82a3.53,3.53,0,0,1,1.92-3.05,23.48,23.48,0,0,1,3.57-2.18s-1.86,3-.86,4C428,496,428.9,497.12,431.8,497.57Z"/><path class="cls-2" d="M448.87,495.35s-8.29,12.42-11.91,14.48c0,0-4.66,3.62,3.1,2.07,0,0,12.43-5.16,15.54-9.82C455.6,502.08,453.79,493,448.87,495.35Z"/><path class="cls-3" d="M444.2,501.92s-.92,5.55,4.46,5.7c-2.92,2.31-10.72,6.43-12.5,4.58-1.23-1.27,3.21-4.09,4.9-6.21.56-.71,1.69-2.12,3.14-4.07"/><path class="cls-4" d="M440.08,507a39.89,39.89,0,0,1-3.49,3.15s-1.47,1.08-.83,1.81a2.77,2.77,0,0,0,2.76.54,17.67,17.67,0,0,0,3.14-.87s-2.67-.52-2.73-1.64C438.93,510,438.78,508.89,440.08,507Z"/><path class="cls-2" d="M515.56,502.22s35.6-10.37,45.79-8.51c0,0,14.65.57-2.59-8.9,0,0-31.88-10-45.22-6.14C513.54,478.67,502.49,498.78,515.56,502.22Z"/><path class="cls-3" d="M534.94,497.2s10.61-9.09.63-18c9.24.28,30.65,4.91,31.09,11.28.3,4.36-12.64,2.63-19.24,4-2.19.45-6.6,1.34-12.48,2.73"/><path class="cls-4" d="M550.9,494.11s9.43-.78,11.66-.41c0,0,4.53.29,4.47-2.12,0,0-.18-3.54-4.38-5.42,0,0-6-3.28-7.36-3.38,0,0,4.24,5.25,2.56,7.49C557.85,490.27,556.38,492.59,550.9,494.11Z"/><path class="cls-2" d="M514.06,484.74s25.47,26.94,35.21,30.49c0,0,12.92,6.92-6.74,6.37,0,0-32.57-7.47-42.12-17.57C500.41,504,501.05,481.09,514.06,484.74Z"/><path class="cls-3" d="M528.24,498.87s4.56,13.21-8.55,15.82c8.12,4.44,28.93,11.27,32.53,6,2.46-3.61-9.57-8.66-14.59-13.16-1.67-1.49-5-4.49-9.39-8.66"/><path class="cls-4" d="M540.45,509.6s7.74,5.45,9.85,6.25c0,0,4.06,2,2.78,4.09,0,0-1.94,3-6.52,2.46,0,0-6.81-.19-8.06-.81,0,0,6.32-2.38,6-5.16C544.5,516.43,544.41,513.68,540.45,509.6Z"/><path class="cls-5" d="M512.37,492.61s23.46-16.75,31.41-18c0,0,10.89-3.35-4.18-5.86,0,0-26,.83-34.77,7.1C504.83,475.85,501.9,493.44,512.37,492.61Z"/><path class="cls-6" d="M525.3,484s5.45-9.39-4.16-13.35c6.85-2.17,23.75-4.27,25.71.29,1.34,3.12-8.59,5.18-13.09,7.86-1.5.88-4.51,2.67-8.46,5.2"/><path class="cls-7" d="M536.22,477.59s6.72-3,8.45-3.3c0,0,3.4-1,2.73-2.7a5.32,5.32,0,0,0-4.61-2.86s-5.22-.87-6.27-.58c0,0,4.47,2.76,3.81,4.83C540.33,473,539.84,475.06,536.22,477.59Z"/><path class="cls-8" d="M480,449.13s-3.29-33.58.09-42.38c0,0,3-13-8.4.82,0,0-14.32,26.83-13.09,39.42C458.59,447,474.72,460.24,480,449.13Z"/><path class="cls-9" d="M478.75,431s-6.34-11-16-3.59c1.8-8.21,9.53-26.58,15.3-25.9,4,.46.24,11.74.32,17.87,0,2,.09,6.13.34,11.62"/><path class="cls-10" d="M478.68,416.16s.88-8.56,1.59-10.49c0,0,1-4-1.15-4.35a6.2,6.2,0,0,0-5.59,3s-3.93,4.79-4.25,6c0,0,5.41-2.91,7.13-1C476.41,409.3,478.24,411,478.68,416.16Z"/><path class="cls-2" d="M497.49,519.46s28.52.69,35.56,4.43c0,0,10.61,3.82.17-7.13,0,0-21-14.78-31.73-15C501.49,501.73,488.71,513.9,497.49,519.46Z"/><path class="cls-3" d="M512.87,520.29s9.9-4.19,4.65-13c6.71,2.35,21.33,10.73,20.17,15.5-.8,3.27-9.88-1-15-1.56-1.72-.18-5.16-.55-9.79-.91"/><path class="cls-4" d="M525.29,521.75s7.1,1.62,8.65,2.41c0,0,3.25,1.27,3.77-.52a5.25,5.25,0,0,0-2-5s-3.62-3.79-4.61-4.19c0,0,1.89,4.84.13,6.09C531.28,520.55,529.66,521.91,525.29,521.75Z"/><path class="cls-11" d="M528.64,482.88s31.71,19.21,42,20.05c0,0,14.29,3.24-4.8,7.93,0,0-33.39,1.45-45.29-5.76C520.59,505.1,515.12,482.83,528.64,482.88Z"/><path class="cls-12" d="M546.06,492.74s7.9,11.52-4,17.53c9,2.12,30.87,3.18,32.94-2.86,1.42-4.14-11.52-5.82-17.56-8.82-2-1-6-3-11.35-5.85"/><path class="cls-13" d="M560.68,499.84s8.91,3.2,11.16,3.41c0,0,4.45.89,3.77,3.21,0,0-1.09,3.37-5.64,4.1,0,0-6.61,1.62-8,1.36,0,0,5.46-4,4.42-6.57C566.41,505.35,565.58,502.73,560.68,499.84Z"/><path class="cls-11" d="M493.32,471.53s26-9.61,31.28-15.27c0,0,8.55-6.85,2.4,6.5,0,0-14.68,20.21-24.43,23.81C502.57,486.57,487,479.41,493.32,471.53Z"/><path class="cls-12" d="M507.19,465.92s10.41.74,8.37,10.52c5.43-4.28,16.23-16.58,13.66-20.6-1.76-2.76-8.76,4-13.32,6.17-1.52.71-4.57,2.13-8.71,3.91"/><path class="cls-13" d="M518.15,460.67s6-3.72,7.18-4.94c0,0,2.59-2.19,3.63-.71a5.1,5.1,0,0,1-.22,5.21s-2.13,4.62-2.92,5.3c0,0,.21-5-1.79-5.64C524,459.89,522.11,459.15,518.15,460.67Z"/><path class="cls-2" d="M490.44,450.24s33.94-14.92,40.56-22.89c0,0,10.87-9.84,3.73,8.48,0,0-18,28.16-30.72,33.76C504,469.59,482.63,461.27,490.44,450.24Z"/><path class="cls-3" d="M508.52,441.64s14,.15,12,13.37c6.91-6.14,20.35-23.44,16.59-28.61-2.57-3.53-11.37,6.1-17.3,9.31-2,1.07-5.92,3.22-11.31,5.93"/><path class="cls-4" d="M522.73,433.75s7.74-5.45,9.2-7.17c0,0,3.29-3.13,4.79-1.24,0,0,2.14,2.82.12,7,0,0-2.47,6.34-3.47,7.31,0,0-.12-6.75-2.84-7.39C530.53,432.23,527.91,431.4,522.73,433.75Z"/><path class="cls-14" d="M493.68,463.75s15.47-33.7,23.54-40.19c0,0,10-10.7-8.42-3.86,0,0-28.45,17.53-34.25,30.17C474.55,449.87,482.53,471.38,493.68,463.75Z"/><path class="cls-15" d="M502.57,445.82s.07-14-13.18-12.25c6.26-6.8,23.77-20,28.88-16.12,3.49,2.63-6.28,11.28-9.59,17.14-1.1,2-3.31,5.87-6.11,11.23"/><path class="cls-16" d="M510.69,431.73s5.58-7.65,7.32-9.08c0,0,3.18-3.24,1.32-4.77,0,0-2.79-2.19-7-.24,0,0-6.39,2.37-7.37,3.36,0,0,6.75.22,7.34,3C512.33,424,513.12,426.59,510.69,431.73Z"/><path class="cls-2" d="M499.55,502.49s22.85-6.86,29.42-5.72c0,0,9.43.29-1.71-5.71,0,0-20.57-6.28-29.14-3.71C498.12,487.35,491.12,500.35,499.55,502.49Z"/><path class="cls-3" d="M512,499.16s6.78-5.91.31-11.57c6,.13,19.75,3,20.07,7.08.21,2.81-8.12,1.77-12.36,2.67-1.41.29-4.24.89-8,1.82"/><path class="cls-4" d="M522.25,497.09a62.85,62.85,0,0,1,7.5-.33s2.91.16,2.86-1.39a4.38,4.38,0,0,0-2.85-3.47s-3.86-2.07-4.75-2.13c0,0,2.76,3.36,1.69,4.81C526.7,494.58,525.76,496.08,522.25,497.09Z"/><path class="cls-2" d="M488.62,476.25s21.37-10.54,28-10.5c0,0,9.33-1.28-2.63-5.34,0,0-21.3-2.79-29.31,1.16C484.71,461.57,480,475.53,488.62,476.25Z"/><path class="cls-3" d="M500.32,470.91s5.7-6.94-1.61-11.45c5.88-.86,19.95-.32,20.94,3.66.68,2.73-7.7,3.08-11.73,4.67-1.34.52-4,1.58-7.6,3.12"/><path class="cls-4" d="M510.08,467.17a62.86,62.86,0,0,1,7.33-1.56s2.91-.33,2.6-1.84a4.4,4.4,0,0,0-3.38-2.95s-4.15-1.4-5-1.31c0,0,3.27,2.85,2.46,4.45C514.05,464,513.38,465.6,510.08,467.17Z"/><path class="cls-2" d="M483,460.65s18.19-6,22-9.77c0,0,6.07-4.53,1.5,4.54,0,0-10.64,13.6-17.46,15.85C489.05,471.27,478.46,465.94,483,460.65Z"/><path class="cls-3" d="M492.74,457.12s7.18.77,5.53,7.47c3.86-2.82,11.62-11.06,9.94-13.9-1.15-1.94-6.15,2.58-9.35,3.94-1.07.45-3.21,1.36-6.12,2.49"/><path class="cls-4" d="M500.44,453.76a50.8,50.8,0,0,0,5.09-3.23s1.85-1.45,2.52-.41a3.54,3.54,0,0,1-.28,3.6,22.94,22.94,0,0,1-2.14,3.59s.27-3.48-1.1-3.94C504.53,453.37,503.22,452.81,500.44,453.76Z"/><path class="cls-2" d="M486.36,463.67s1.56-14.84,3.81-18.36c0,0,2.44-5.37-3.71-.39,0,0-8.59,10.36-9.18,15.92C477.28,460.84,483.09,468,486.36,463.67Z"/><path class="cls-3" d="M487.45,455.69s-1.78-5.34-6.61-3c1.51-3.41,6.5-10.68,8.94-9.88,1.67.56-.94,5.12-1.45,7.78-.17.89-.51,2.67-.88,5.07"/><path class="cls-4" d="M488.73,449.27a39,39,0,0,1,1.62-4.41s.8-1.64-.11-2a2.75,2.75,0,0,0-2.69.81,18.06,18.06,0,0,0-2.38,2.23s2.61-.78,3.18.18A4.9,4.9,0,0,1,488.73,449.27Z"/><path class="cls-2" d="M466.45,444.91s-7.35-16.51-7.12-21.56c0,0-.69-7.1-4.13,1.84,0,0-2.74,16.05,0,22.24C455.21,447.43,465.65,451.44,466.45,444.91Z"/><path class="cls-3" d="M462.75,435.88s-5.09-4.53-8.72.88c-.48-4.48.35-15.13,3.4-15.76,2.09-.43,2.1,5.93,3.18,9,.36,1,1.08,3.1,2.14,5.85"/><path class="cls-4" d="M460.21,428.37a46.84,46.84,0,0,1-1-5.6s-.16-2.21-1.32-2a3.32,3.32,0,0,0-2.33,2.48,21.88,21.88,0,0,0-1.15,3.77s2.26-2.39,3.45-1.73C457.9,425.27,459.12,425.83,460.21,428.37Z"/><path class="cls-2" d="M470.31,448.92s8.48-12.28,9.07-16.41c0,0,1.65-5.67,3.07,2.12,0,0-.22,13.45-3.4,18.06C479.05,452.69,470,454.35,470.31,448.92Z"/><path class="cls-3" d="M474.69,442.16s4.82-2.9,6.95,2c1.07-3.56,2-12.33-.36-13.31-1.63-.67-2.61,4.49-4,6.84-.45.79-1.35,2.36-2.63,4.43"/><path class="cls-4" d="M477.9,436.45a39.35,39.35,0,0,0,1.64-4.4s.46-1.77,1.38-1.44a2.74,2.74,0,0,1,1.51,2.37,18.41,18.41,0,0,1,.36,3.24s-1.47-2.29-2.54-1.94C480.25,434.28,479.18,434.55,477.9,436.45Z"/></g><path class="cls-17" d="M411.78,420.54s-62.74-86-187.95-54.76c0,0-88,28.63-157.48,44.87,0,0-56.12,11.1-37.18,24.8,0,0,52.58,38.06,65.2,69.35,0,0,73.95,101.55,205.11,93.05,0,0,122.75-14.6,167.66-63.36C467.14,534.49,518,530.66,411.78,420.54Z"/><path class="cls-18" d="M337.1,591.41s39.55-33.76,29-41.37c0,0-2.11-1.52-38.24,35.12,0,0-18.6,12.4-29.11,4.79,0,0-8.07-2.14,32.27-35.74,0,0,14.39-15.45-13.32,5.13,0,0-44.55,30.55-69.1,20.18,0,0-20-3.39,40-37.55,0,0,27.71-20.57,17.54-24.24,0,0-6.31-4.57-40.69,29.65,0,0-27.37,24.53-99.6,9.18,0,0-28.75-13.42,4.56-15.16,0,0,71.54,7.45,85.93-30.16,0,0,3.17-30.95-40-6.77,0,0-41.39,21.76-54,12.63,0,0-21-15.23,16.48-13.93,0,0,50.16-11.72,27.72-20.57,0,0-74.08-6.87-93.84-33.46,0,0-6.78-35.67,52.47-11.25,0,0,60.67,18,59.62,6.2,0,0,18.94-8.45-33.65-46.51,0,0-21-15.23,10.88-10.6,0,0,48.74,16.8,58.19,56.89,0,0,7,12.46,15.78.34,0,0,16.14-17.87-22.42-53.17,0,0-24.19-28.58,12.63-13,0,0,40,28.93,48.37,57.17,0,0,31.2,18.89-23.12-61.06,0,0-14.79-25,37.32-7.86,0,0,49.65,11.7,82.95,54.27,0,0,26.37,32.64,30.54,34.42S490.79,532.82,433,559.5C433,559.5,365.24,589.21,337.1,591.41Z"/><path class="cls-19" d="M438.75,452.38s6.32,32.89-14.71-4.49c0,0-15.41-40.71-23.84-24.64,0,0,0,22.16,11.56,41.61,0,0,3.14,35.52-13,9.07,0,0-17.86-68.33-30.48-77.46,0,0-17.18-16.13-3.86,23,0,0,16.81,34.34,8,46.46,0,0-5.25-14.88-11.92-1.24,0,0-3.86.9-9.46-17.93,0,0-16.82-34.34-17.54,2.09,0,0,2.79,31.57-21.75,21.19,0,0-21.38-19.17-48-8.91,0,0-36.48,10.54-4.58,37.32,0,0,23.85,2.48,2.1,23.68,0,0-15.09,29.71,21.74,1,0,0,38.24-35.12,38.23-13,0,0-11.58,24.86-28.07,38.78,0,0-.36,18.21,43.5-20.23,0,0,25.61-22.1,21.39-3,0,0-30.88,51.53,5.6,18.83,0,0,28.42-34.84,35.78-18.43,0,0,1.05,11.84-22.81,31.51,0,0-17.54,24.25,18.24,5.81,0,0,45.59-18.71,70.16-52.65C465.05,510.81,477.3,481.51,438.75,452.38Z"/><path class="cls-20" d="M189.31,376.62s4.35,4.27-26.16,15.43-30.87,7.21-40,15.39,23.5-1.47,23.5-1.47,21.39-3,13.32,17-30.17,15.11-30.17,15.11-11.21-15.51-24.19-6.43S26.36,426,26.36,426s39.27,21,63.46,49.62,41.7,70.82,100.61,91.29,47.63,26.82,47.63,26.82-62.31-11.92-101.77-47.7c0,0-39.47-35.79-41.92-41.26,0,0-27.69-45.89-65.2-69.35,0,0-14-9,7.73-16,0,0,86.88-21.56,92.71-25.28Z"/><path class="cls-17" d="M501.77,404.44s40.08-79.18,154.29-54.61c0,0,81.42,23.24,144.58,35.86,0,0,50.69,8.39,36.53,21.25,0,0-39.33,35.73-45,64.24,0,0-47.22,93.44-162.77,89.53,0,0-109.26-9.62-156.55-52.2C472.82,508.51,427.93,506.51,501.77,404.44Z"/><path class="cls-18" d="M595.56,556s-40.11-29.24-32.24-36.39c0,0,1.57-1.42,39.19,30.5,0,0,18.27,10.63,26.13,3.48,0,0,6.66-2.16-34.11-31.23,0,0-15.12-13.48,12.47,4.24,0,0,43.91,26.21,63.51,16.18,0,0,16.82-3.62-41.12-32.63,0,0-27.59-17.72-19.36-21.31,0,0,4.72-4.28,40.41,25.51,0,0,27.94,21.28,88.2,5.42,0,0,22.75-12.89-6.53-13.51,0,0-61,8.74-79.85-24.67,0,0-8-27.75,33.64-7.23,0,0,39.68,18.39,49.12,9.82,0,0,15.74-14.3-16.69-12.06,0,0-45.61-9.11-27.58-17.71,0,0,63.29-8.29,76-32.78,0,0-.11-32.27-47.55-8.62,0,0-49.74,18-50.82,7.28,0,0-17.91-7.06,21.43-42.8,0,0,15.73-14.29-11.25-9.22,0,0-39.57,16.51-41,52.83,0,0-4,11.41-13.67.76,0,0-17.05-15.62,10.54-48.46,0,0,16.23-26.4-13.18-11.36,0,0-29.9,27.16-32.45,52.81,0,0-24,17.88,9.82-55.58,0,0,8.65-22.94-33.79-6,0,0-41.22,11.94-63,51.18,0,0-17.44,30.1-20.76,31.83S452,507.68,506.73,530C506.73,530,570.7,554.82,595.56,556Z"/><path class="cls-19" d="M483.67,433.84s.05,29.77,12-4.46c0,0,6.55-37.05,16.59-22.84,0,0,3.74,19.93-3,37.76,0,0,3.26,32,12.82,7.79,0,0,4-62,13.46-70.55,0,0,12.22-15,7.25,20.63,0,0-8.84,31.37.83,42,0,0,2.06-13.54,10.17-1.46,0,0,3.51.7,5.21-16.39,0,0,8.84-31.37,15.6,1.37,0,0,2.9,28.48,22.5,18.45a37.85,37.85,0,0,1,40.3-9.39s33.51,8.44,10.27,33.44c0,0-20.33,2.91,2.17,21.36,0,0,18.14,26.29-18.75,1.48,0,0-39.2-30.5-35.45-10.57,0,0,14.27,22,31,34.09,0,0,3.38,16.36-41.25-17,0,0-26-19.14-19.12-2.07,0,0,35.56,45.46-1.7,17.1,0,0-30.6-30.53-34.24-15.56,0,0,1.09,10.68,25.16,27.69,0,0,19.35,21.3-14.88,5.75,0,0-42.83-15.54-69.92-45.36C470.65,487.15,455.05,461.15,483.67,433.84Z"/><path class="cls-20" d="M687.92,358.59s-3.07,4,25.36,13.13,28.07,5.61,37.39,12.7-20.69-.64-20.69-.64-19.12-2.08-8.72,15.69,28.79,12.73,28.79,12.73,7.15-14.27,20-6.47,68-7.34,68-7.34-30.62,20-46.84,46.44-24.34,64.88-72.14,85-36.92,25.49-36.92,25.49,52.2-12.5,80.5-45.81c0,0,28.31-33.31,29.52-38.3,0,0,16.35-42.07,45-64.24,0,0,10.67-8.47-9.42-14.16,0,0-79.23-16.92-84.93-20.09Z"/><path class="cls-17" d="M394.42,465.3s-57.71-43.85-34.74-128.65c0,0,20.67-59.53,32.65-106.57,0,0,8.31-38,17.38-25,0,0,25.2,36.3,46.32,45.3,0,0,68.12,51.7,60.57,140.85,0,0-11.58,83.34-45.37,113.25C471.23,504.51,467.94,539.07,394.42,465.3Z"/><path class="cls-18" d="M511.72,416.78s-23.51,26.46-28.55,19.2c0,0-1-1.45,24.42-25.55,0,0,8.69-12.49,3.65-19.75,0,0-1.35-5.52-24.76,21.49,0,0-10.71,9.58,3.67-9,0,0,21.39-29.91,14.66-46.76,0,0-2-13.65-26.09,26.72,0,0-14.38,18.58-16.73,11.61,0,0-3-4.35,20.72-27.29,0,0,17.06-18.3,7.59-67.67,0,0-8.75-19.74-10.38,2.91,0,0,4.11,48.78-21.68,58.07,0,0-21.11,1.75-4.07-27.29,0,0,15.36-27.88,9.32-36.59,0,0-10.08-14.52-9.7,11,0,0-8.65,34-14.38,18.59,0,0-3.67-50.51-21.51-64.32,0,0-24.18-5.09-8.36,35.56,0,0,11.47,41.53,3.42,40.66,0,0-6,12.78-31.2-23.52,0,0-10.08-14.53-7.36,7.26,0,0,10.78,33.39,37.94,40.36,0,0,8.38,4.94,0,10.75,0,0-12.37,10.74-35.88-16,0,0-19.13-16.84-9,8.42,0,0,19.15,27.59,38.26,33.69,0,0,12.44,21.49-41.25-16.55,0,0-16.83-10.4-5.85,25.29,0,0,7.3,33.95,35.82,57.18,0,0,21.86,18.39,23,21.25s52.34,34,71.27-4.93C488.71,481.62,509.84,435.9,511.72,416.78Z"/><path class="cls-19" d="M415.73,484.09s22.3,4.74-2.86-10.07c0,0-27.5-11-16.45-16.56,0,0,15.08.29,28.16,8.43,0,0,24.13,2.61,6.35-8.72,0,0-46.26-13.07-52.31-21.78,0,0-10.74-11.91,15.75-2.32,0,0,23.14,11.91,31.51,6.1,0,0-10.06-3.78-.69-8.13,0,0,.67-2.62-12.07-6.68,0,0-23.15-11.91,1.65-11.91,0,0,21.45,2.33,14.72-14.52,0,0-12.76-14.81-5.42-32.81,0,0,7.66-24.69,25.46-2.61,0,0,1.37,16.26,16.09,1.74,0,0,20.42-9.87.36,14.81,0,0-24.42,25.55-9.34,25.85,0,0,17.08-7.55,26.78-18.59,0,0,12.4,0-14.36,29.33,0,0-15.38,17.13-2.32,14.52,0,0,35.48-20.32,12.74,4.07,0,0-24.09,18.87-13,24.1,0,0,8,.87,21.75-15.1,0,0,16.73-11.61,3.71,12.49,0,0-13.35,30.78-36.78,47C455.14,502.77,435,510.71,415.73,484.09Z"/><path class="cls-20" d="M367.52,313.31s2.85,3,10.85-17.6,5.33-20.91,11-27-1.31,16-1.31,16-2.32,14.52,11.41,9.3,10.69-20.33,10.69-20.33-10.4-7.84-4.05-16.55-2.78-54-2.78-54,13.79,27,32.92,43.86,47.63,29.33,60.77,69.7,17.62,32.77,17.62,32.77-7.28-42.56-31.1-69.9c0,0-23.83-27.34-27.52-29.09,0,0-30.86-19.46-46.32-45.3,0,0-5.92-9.65-11,5,0,0-15.85,58.84-18.45,62.75Z"/><path class="cls-17" d="M399.71,502.35s-43.66,41.74-5.1,111.29c0,0,31.22,48.45,51.91,87.1,0,0,15.47,31.37,21.06,19.61,0,0,15.5-32.69,32.95-42,0,0,51.54-49.21,26.18-123.71,0,0-27.85-69.27-64.92-91.67C461.79,462.94,451.62,434.09,399.71,502.35Z"/><path class="cls-18" d="M517,533.51s-27-20.35-30.07-13.81c0,0-.62,1.31,27.61,19.51,0,0,10.53,9.8,7.43,16.33,0,0-.09,4.77-27.08-16,0,0-11.77-7.19,5.22,7.28,0,0,25.75,23.43,23.08,38.18,0,0,1,11.67-29.38-20.34,0,0-17-14.47-17.69-8.4,0,0-1.87,3.92,24.59,21.28,0,0,19.38,14,20.95,56.39,0,0-3.9,17.36-10.09-1.59,0,0-6.35-41.45-31.84-47.14,0,0-19.65.28,1.93,23.34,0,0,19.82,22.22,16.1,30.06,0,0-6.21,13.07-11.15-8.49,0,0-14.95-27.92-17-14.47,0,0,7.1,42.86-6.34,56,0,0-21.05,6.3-15-29.27,0,0,1.88-35.95-5.29-34.55,0,0-8.14-10.27-23.65,22.41,0,0-6.2,13.08-8.23-5.5,0,0,2.94-29,26.31-37.17,0,0,6.65-4.85-2.2-9,0,0-13.54-8-29.49,16.43,0,0-14,15.79-10-6.34,0,0,11.79-24.84,28-31.57,0,0,6.92-19.14-34.27,17.38,0,0-13.23,10.16-10.58-20.83,0,0-.36-29.21,20.89-51.16,0,0,16.17-17.31,16.63-19.81s40.79-33,66.16-1.76C482.5,480.78,511.28,517.55,517,533.51Z"/><path class="cls-19" d="M415.29,484.75s19.4-5.84-.52,8.73c0,0-22.85,11.58-11.61,15.31,0,0,13.72-1.49,24-9.43,0,0,21.52-4.21,7.61,6.81,0,0-39.57,14.85-43.29,22.7,0,0-7.36,10.92,14.87.65,0,0,18.68-12,27.53-7.76,0,0-8.41,4,1.06,6.91,0,0,1.15,2.15-9.65,6.63,0,0-18.69,12,4,9.9,0,0,19.13-3.74,16.46,11a25.78,25.78,0,0,0,1.85,28.11s12.11,20.16,23.81.08c0,0-2.12-13.81,14.34-2.8,0,0,20.71,6.62-2.74-12.51,0,0-27.6-19.51-13.88-21,0,0,17.17,4.94,28.32,13.43,0,0,11.33-1-19.2-23.52,0,0-17.61-13.16-5.13-12,0,0,36.64,14.18,10.8-4.49,0,0-25.92-13.9-16.89-19.23,0,0,7.17-1.4,23,10.92,0,0,17.7,8.4.8-10.83,0,0-18.58-24.83-43.36-36.59C447.44,465.74,427.42,460.71,415.29,484.75Z"/><path class="cls-20" d="M406.6,632.67s2-2.78,13.57,13.93,9.2,17.17,15.66,21.84-4.51-13.35-4.51-13.35-5.13-12,8.5-8.78,14,16.25,14,16.25-7.88,7.47-.27,14.28,8.65,45.75,8.65,45.75,7-23.91,21-39.69,37.46-28.67,41.1-63.77S533.59,590,533.59,590s2.17,36.48-13.94,61.49c0,0-16.11,25-19.12,26.79,0,0-24.18,19-32.95,42,0,0-3.41,8.61-11.09-3.35,0,0-26.67-48.27-29.86-51.35Z"/><g id="leaves-3" data-name="leaves"><path class="cls-2" d="M437,522.07s31.32,33,35,45.14c0,0,7.62,16.28,8.24-7.83,0,0-7-40.39-18.74-52.76C461.51,506.62,433.38,505.9,437,522.07Z"/><path class="cls-3" d="M453.35,540.37s15.88,6.46,19.95-9.42c4.9,10.23,11.89,36.18,5.2,40.24-4.59,2.78-10-12.3-15.16-18.74-1.72-2.14-5.17-6.44-10-12.08"/><path class="cls-4" d="M465.69,556s6.16,9.84,7,12.48c0,0,2.24,5.1,4.83,3.68,0,0,3.76-2.19,3.45-7.83,0,0,.21-8.35-.46-9.92,0,0-3.34,7.58-6.72,7C473.79,561.46,470.43,561.16,465.69,556Z"/><path class="cls-2" d="M417.4,524.51s13,47.06,10.41,60.45c0,0-1,19.28,11.76-3.26,0,0,13.76-41.81,8.87-59.46C448.44,522.24,422.15,507.36,417.4,524.51Z"/><path class="cls-3" d="M423.67,550.11s11.79,14.14,23.67,1.14c-.53,12.17-7,40.29-15.39,40.75-5.75.33-3.25-16.68-4.9-25.4-.55-2.9-1.65-8.72-3.38-16.49"/><path class="cls-4" d="M427.46,571.19s.87,12.43.34,15.36c0,0-.45,6,2.72,5.92,0,0,4.67-.17,7.22-5.68,0,0,4.42-7.8,4.57-9.63,0,0-7,5.5-9.91,3.25C432.4,580.41,429.37,578.43,427.46,571.19Z"/><path class="cls-2" d="M440.44,522.83s-35.92,33.08-40.76,45.84c0,0-9.34,16.9-8.27-9,0,0,10.39-42.77,23.86-55.17C415.27,504.52,445.46,505.76,440.44,522.83Z"/><path class="cls-3" d="M421.59,541.26s-17.47,5.78-20.7-11.52c-6,10.6-15.33,37.9-8.45,42.73,4.72,3.31,11.57-12.46,17.58-19,2-2.17,6-6.53,11.57-12.22"/><path class="cls-4" d="M407.24,557.16s-7.3,10.1-8.39,12.87c0,0-2.77,5.3-5.44,3.59,0,0-3.87-2.61-3.13-8.63,0,0,.37-9,1.2-10.6,0,0,3,8.36,6.7,8C398.18,562.38,401.8,562.3,407.24,557.16Z"/><path class="cls-5" d="M430.1,520.47s21.65,31.18,23.17,41.68c0,0,4.22,14.4,7.79-5.42,0,0-.64-34.21-8.76-45.9C452.3,510.83,429.18,506.66,430.1,520.47Z"/><path class="cls-6" d="M441.28,537.64s12.28,7.34,17.66-5.24c2.74,9.06,5.22,31.35-.82,33.85C454,568,451.45,554.84,448,548.87c-1.15-2-3.46-6-6.72-11.23"/><path class="cls-7" d="M449.48,552.13s3.83,8.9,4.19,11.19c0,0,1.2,4.49,3.52,3.64,0,0,3.38-1.32,3.83-6,0,0,1.24-6.86.88-8.24,0,0-3.71,5.83-6.43,4.93C455.47,557.63,452.74,557,449.48,552.13Z"/><path class="cls-8" d="M384.12,490.62s-21.39,46.66-32.57,55.65c0,0-13.85,14.83,11.67,5.35,0,0,39.37-24.31,47.39-41.8C410.61,509.82,399.55,480,384.12,490.62Z"/><path class="cls-9" d="M371.82,515.45s-.09,19.35,18.25,16.94c-8.65,9.43-32.89,27.66-40,22.35-4.84-3.64,8.69-15.62,13.26-23.75,1.52-2.7,4.58-8.12,8.45-15.54"/><path class="cls-10" d="M360.6,535s-7.72,10.59-10.13,12.58c0,0-4.41,4.49-1.82,6.61,0,0,3.86,3,9.64.32,0,0,8.84-3.29,10.2-4.65,0,0-9.34-.31-10.16-4.1C358.33,545.72,357.23,542.08,360.6,535Z"/><path class="cls-2" d="M395,500.41s-1.39,37.55-6.44,46.76c0,0-5.21,13.9,9.39.35,0,0,19.82-27.46,20.34-41.54C418.28,506,402.47,488.94,395,500.41Z"/><path class="cls-3" d="M393.63,520.65S399,533.76,410.72,527c-3.21,8.79-14.5,27.91-20.77,26.3-4.29-1.1,1.5-13,2.32-19.77.27-2.25.82-6.78,1.36-12.88"/><path class="cls-4" d="M391.51,537s-2.26,9.32-3.33,11.34c0,0-1.72,4.27.62,5,0,0,3.46,1,6.61-2.49,0,0,5.06-4.69,5.6-6,0,0-6.41,2.41-8,.08C393,544.9,391.22,542.74,391.51,537Z"/><path class="cls-11" d="M442.63,542.06s-25.83,41.43-27.11,55c0,0-4.51,18.77-10.36-6.46,0,0-1.34-44,8.34-59.53C413.5,531.09,442.94,524.26,442.63,542.06Z"/><path class="cls-12" d="M429.36,564.83s-15.31,10.22-23-5.61c-2.94,11.82-4.71,40.61,3.21,43.44,5.42,1.94,7.85-15.08,11.9-23,1.35-2.62,4.05-7.9,7.91-14.86"/><path class="cls-13" d="M419.75,584s-4.36,11.68-4.68,14.64c0,0-1.25,5.85-4.29,4.9,0,0-4.42-1.48-5.31-7.49,0,0-2-8.73-1.65-10.53,0,0,5.14,7.26,8.58,5.92C412.4,591.41,415.87,590.37,419.75,584Z"/><path class="cls-2" d="M486.28,492.31s19.07,45,29.45,53.81c0,0,12.77,14.48-11.24,4.77,0,0-36.78-24.18-43.93-41C460.56,509.85,471.89,481.84,486.28,492.31Z"/><path class="cls-3" d="M497.29,516.26s-.43,18.4-17.81,15.62c8,9.2,30.52,27.19,37.39,22.33,4.7-3.32-7.83-15.09-12-22.94-1.38-2.61-4.14-7.85-7.62-15"/><path class="cls-4" d="M507.44,535.12s7.05,10.28,9.29,12.24c0,0,4.06,4.39,1.55,6.33,0,0-3.76,2.77-9.18,0,0,0-8.32-3.36-9.58-4.7,0,0,8.9,0,9.78-3.61C509.3,545.42,510.44,542,507.44,535.12Z"/><path class="cls-14" d="M475.46,496.44s44.12,20.94,52.53,31.69c0,0,13.92,13.37,5.23-11,0,0-22.61-37.77-39.15-45.62C494.07,471.49,465.61,481.62,475.46,496.44Z"/><path class="cls-15" d="M498.93,508.45s18.4.34,16.35-17.14c8.86,8.36,25.88,31.64,20.74,38.3-3.52,4.56-14.74-8.46-22.42-12.92-2.54-1.48-7.67-4.46-14.67-8.24"/><path class="cls-16" d="M517.35,519.38s10,7.48,11.83,9.8c0,0,4.21,4.25,6.26,1.82,0,0,2.92-3.64.43-9.18,0,0-3-8.44-4.29-9.76,0,0-.42,8.89-4,9.62C527.55,521.68,524.07,522.67,517.35,519.38Z"/><path class="cls-2" d="M417.31,503.42s8.64,30.21,7,38.84c0,0-.53,12.41,7.56-2.16,0,0,8.62-27,5.38-38.31C437.27,501.79,420.27,492.35,417.31,503.42Z"/><path class="cls-3" d="M421.48,519.86s7.67,9,15.24.6c-.27,7.83-4.28,26-9.68,26.31-3.7.24-2.18-10.72-3.29-16.32-.37-1.86-1.11-5.6-2.27-10.59"/><path class="cls-4" d="M424,533.4s.62,8,.3,9.88c0,0-.26,3.84,1.78,3.8a5.78,5.78,0,0,0,4.61-3.7s2.8-5,2.89-6.22c0,0-4.46,3.58-6.35,2.15C427.27,539.31,425.31,538.05,424,533.4Z"/><path class="cls-2" d="M452.06,489.47s13.51,28.33,13.34,37.1c0,0,1.53,12.31,7.08-3.38,0,0,4-28-1-38.62C471.45,484.57,453.15,478.08,452.06,489.47Z"/><path class="cls-3" d="M458.89,505s9,7.63,15.1-1.92c1,7.76.08,26.28-5.18,27.51-3.6.85-3.92-10.2-5.94-15.53-.67-1.77-2-5.33-4-10.06"/><path class="cls-4" d="M463.64,517.89s1.94,7.77,1.93,9.68c0,0,.38,3.83,2.39,3.45a5.77,5.77,0,0,0,3.93-4.4s1.92-5.44,1.82-6.61c0,0-3.81,4.26-5.91,3.16C467.8,523.17,465.66,522.26,463.64,517.89Z"/><path class="cls-2" d="M472.69,482.36s7.59,24.07,12.5,29.13c0,0,5.86,8.08-6,1.9,0,0-17.72-14.25-20.57-23.27C458.6,490.12,465.81,476.27,472.69,482.36Z"/><path class="cls-3" d="M477.18,495.23s-1.13,9.44-9.94,7.15c3.65,5.12,14.36,15.49,18.14,13.33,2.58-1.48-3.29-8.15-5-12.39-.57-1.41-1.74-4.24-3.17-8.09"/><path class="cls-4" d="M481.47,505.43a67.55,67.55,0,0,0,4.17,6.75s1.88,2.46.49,3.33a4.64,4.64,0,0,1-4.73-.43s-4.11-2.14-4.69-2.89c0,0,4.58.42,5.21-1.38C481.92,510.81,482.67,509.1,481.47,505.43Z"/><path class="cls-2" d="M468.65,486.71S488.18,489,492.77,492c0,0,7,3.31.58-4.88,0,0-13.49-11.5-20.82-12.36C472.53,474.8,463,482.33,468.65,486.71Z"/><path class="cls-3" d="M479.15,488.27s7.06-2.24,4-8.64c4.45,2.05,13.95,8.74,12.85,11.94-.76,2.19-6.72-1.33-10.22-2-1.16-.24-3.5-.72-6.66-1.26"/><path class="cls-4" d="M487.58,490.07a52.8,52.8,0,0,1,5.78,2.21s2.16,1.08,2.62-.11a3.59,3.59,0,0,0-1-3.55,22.83,22.83,0,0,0-2.89-3.17s1,3.44-.3,4.18C491.77,489.63,490.57,490.46,487.58,490.07Z"/><path class="cls-2" d="M384.45,414.62s-47.85-9.74-58.6-18.16c0,0-16.72-9.64-2.43,12,0,0,31,31.24,48.95,34.89C372.37,443.31,397.57,426.64,384.45,414.62Z"/><path class="cls-3" d="M358.78,408.59s-17.94,4.09-11.75,20.57c-10.61-6-32.73-24.51-29.33-32.2,2.32-5.28,16.34,4.67,24.86,7.16,2.83.82,8.52,2.48,16.22,4.47"/><path class="cls-4" d="M338.28,402.4s-11.47-4.87-13.84-6.67c0,0-5.11-3.11-6.51-.26,0,0-2,4.23,1.79,9,0,0,4.95,7.48,6.51,8.44,0,0-1.74-8.72,1.59-10.3C327.82,402.62,331,400.82,338.28,402.4Z"/><path class="cls-2" d="M375.48,435.92s-13.17-47-22.34-57.13c0,0-10.82-16,11.75-3.3,0,0,33.39,28.68,38.33,46.32C403.22,421.81,388.42,448.14,375.48,435.92Z"/><path class="cls-3" d="M367.61,410.76s2.79-18.2,19.67-13.22c-6.74-10.14-26.81-30.86-34.24-26.92-5.09,2.7,5.84,16,8.94,24.28,1,2.76,3.09,8.31,5.63,15.86"/><path class="cls-4" d="M360,390.75s-5.68-11.09-7.65-13.32c0,0-3.48-4.87-.73-6.47,0,0,4.08-2.27,9.11,1.13,0,0,7.82,4.4,8.89,5.88,0,0-8.82-1.1-10.16,2.34C359.42,380.31,357.85,383.57,360,390.75Z"/><path class="cls-5" d="M382.28,427.78s-37.61,5.14-47.66,1.72c0,0-14.74-2.77,1.29,9.4,0,0,30.78,15,44.88,13C380.79,451.93,395,433.23,382.28,427.78Z"/><path class="cls-6" d="M361.9,430s-12.12,7.61-3.34,18.11c-9.32-1.67-30.31-9.58-29.79-16.1.35-4.46,13.19-.77,20.08-1.13,2.29-.12,6.89-.36,13-.88"/><path class="cls-7" d="M345.27,430.67s-9.67-.63-11.87-1.34c0,0-4.55-1-4.84,1.48,0,0-.36,3.61,3.62,6.15,0,0,5.55,4.22,6.95,4.53,0,0-3.52-6-1.48-8C337.65,433.52,339.5,431.39,345.27,430.67Z"/><path class="cls-8" d="M428.89,448.82s-37.57,0-47-4.7c0,0-14.08-4.69,0,9.4,0,0,28.18,18.78,42.27,18.78C424.19,472.3,440.63,455.86,428.89,448.82Z"/><path class="cls-9" d="M408.61,448.21s-12.9,5.84-5.7,17.31c-8.92-2.88-28.44-13.45-27.06-19.77.94-4.33,13,1,19.84,1.58,2.26.19,6.81.57,12.92.88"/><path class="cls-10" d="M392.21,446.69s-9.4-1.9-11.46-2.9c0,0-4.33-1.56-4.95.8,0,0-.83,3.5,2.73,6.52,0,0,4.88,4.88,6.2,5.37,0,0-2.64-6.32-.37-8C384.36,448.46,386.45,446.62,392.21,446.69Z"/><path class="cls-2" d="M416.09,405.6s-32.82-18.29-38.74-27c0,0-10-11-4.57,8.2,0,0,15.47,30.13,27.78,37C400.56,423.82,422.91,417.46,416.09,405.6Z"/><path class="cls-3" d="M398.67,395.2s-14.11-1.18-13.41,12.35c-6.38-6.86-18.29-25.59-14-30.45,2.93-3.32,10.9,7.24,16.57,11,1.88,1.27,5.66,3.81,10.85,7.06"/><path class="cls-4" d="M385.08,385.89s-7.28-6.24-8.6-8.11c0,0-3-3.48-4.71-1.71,0,0-2.43,2.64-.79,7,0,0,1.89,6.64,2.81,7.71,0,0,.76-6.8,3.57-7.19C377.36,383.61,380.08,383,385.08,385.89Z"/><path class="cls-11" d="M357.36,429.14s-25.2-41.83-36.73-49.14c0,0-14.67-12.53,10.46-6.29,0,0,39.81,18.77,49.26,34.46C380.35,408.17,373.07,437.49,357.36,429.14Z"/><path class="cls-12" d="M343.09,407s-2.16-18.28,15.44-18c-9.19-8-34-22.64-40.16-16.87-4.19,4,9.88,13.84,15.07,21,1.73,2.39,5.19,7.19,9.65,13.79"/><path class="cls-13" d="M330.39,389.73s-8.42-9.19-10.91-10.81c0,0-4.65-3.78-2.43-6.05,0,0,3.33-3.27,9.09-1.33,0,0,8.7,2.16,10.13,3.31,0,0-8.8,1.28-9.17,4.95C327.1,379.8,326.45,383.36,330.39,389.73Z"/><path class="cls-2" d="M381.87,490.61s-48.72-3.41-61.32,1.82c0,0-18.7,4.81.85-12.18,0,0,38.25-21.79,56.51-20.51C377.91,459.74,397.73,482.55,381.87,490.61Z"/><path class="cls-3" d="M355.52,489.56s-16.19-8.75-5.82-23c-11.82,2.93-38.09,14.86-36.88,23.18.83,5.7,17-.13,25.88-.24,2.94,0,8.87-.12,16.82,0"/><path class="cls-4" d="M334.11,490s-12.35,1.62-15.12,2.73c0,0-5.75,1.63-6.34-1.49,0,0-.76-4.61,4.13-8.2,0,0,6.77-5.89,8.53-6.4,0,0-4,7.94-1.21,10.36C324.1,487,326.64,489.6,334.11,490Z"/><path class="cls-14" d="M383.1,479.11S344.41,508.9,331,511.52c0,0-18.23,6.33,7.45,9.67,0,0,43.92-3,58.43-14.18C396.89,507,400.78,477.05,383.1,479.11Z"/><path class="cls-15" d="M361.74,494.56s-8.65,16.25,7.85,22.35c-11.46,4.1-39.94,8.7-43.54,1.1-2.46-5.21,14.23-9.3,21.69-14.11,2.48-1.6,7.45-4.81,14-9.34"/><path class="cls-16" d="M343.64,506s-11.19,5.49-14.1,6.1c0,0-5.7,1.82-4.46,4.75,0,0,1.91,4.25,8,4.54,0,0,8.89,1.16,10.65.61,0,0-7.73-4.4-6.75-8C337,514.06,337.66,510.5,343.64,506Z"/><path class="cls-2" d="M403.28,424.12s-30.84-6-37.8-11.37c0,0-10.81-6.11-1.5,7.71,0,0,20.12,19.93,31.69,22.18C395.67,442.64,411.79,431.78,403.28,424.12Z"/><path class="cls-3" d="M386.73,420.38s-11.52,2.73-7.45,13.3c-6.86-3.8-21.19-15.6-19-20.57,1.47-3.4,10.55,2.92,16,4.48,1.83.51,5.5,1.55,10.46,2.79"/><path class="cls-4" d="M373.51,416.5s-7.41-3.07-8.94-4.21c0,0-3.31-2-4.19-.14a5.79,5.79,0,0,0,1.19,5.79s3.23,4.79,4.24,5.4c0,0-1.16-5.61,1-6.64C366.78,416.7,368.79,415.53,373.51,416.5Z"/><path class="cls-2" d="M399.93,461.42s-31.37-.83-39.11-5c0,0-11.66-4.23-.21,7.85,0,0,23.12,16.3,34.89,16.61C395.5,480.92,409.58,467.56,399.93,461.42Z"/><path class="cls-3" d="M383,460.47s-10.9,4.59-5.15,14.33c-7.38-2.61-23.45-11.86-22.16-17.11.89-3.6,10.87,1.13,16.54,1.75,1.88.21,5.67.63,10.77,1"/><path class="cls-4" d="M369.35,458.84s-7.81-1.8-9.51-2.68c0,0-3.58-1.4-4.15.56a5.76,5.76,0,0,0,2.14,5.5s4,4.18,5.06,4.62c0,0-2.07-5.33-.13-6.7C362.76,460.14,364.54,458.65,369.35,458.84Z"/><path class="cls-2" d="M396.9,483s-24.89-4.16-31.63-2.09c0,0-9.85,1.55,1-6.22,0,0,20.74-9.33,30.08-7.77C396.39,467,405.46,479.66,396.9,483Z"/><path class="cls-3" d="M383.4,481.18s-7.9-5.29-1.86-12.1c-6.23.93-20.33,5.77-20.11,10.11.14,3,8.75.77,13.32,1.15,1.51.12,4.57.38,8.65.84"/><path class="cls-4" d="M372.36,480.37a67.41,67.41,0,0,0-7.91.66s-3,.56-3.19-1.08a4.63,4.63,0,0,1,2.53-4s3.78-2.7,4.71-2.87c0,0-2.45,3.88-1.14,5.26C367.36,478.33,368.54,479.78,372.36,480.37Z"/><path class="cls-2" d="M394.85,477.45s-10.92,16.35-15.69,19.07c0,0-6.14,4.77,4.09,2.73,0,0,16.36-6.8,20.46-12.93C403.71,486.32,401.33,474.39,394.85,477.45Z"/><path class="cls-3" d="M388.7,486.1s-1.21,7.31,5.87,7.51c-3.84,3-14.11,8.47-16.47,6-1.61-1.67,4.24-5.38,6.46-8.18.74-.93,2.22-2.79,4.14-5.36"/><path class="cls-4" d="M383.27,492.8a51.65,51.65,0,0,1-4.6,4.14s-1.93,1.43-1.08,2.39a3.6,3.6,0,0,0,3.62.7,22.69,22.69,0,0,0,4.14-1.14s-3.51-.68-3.59-2.16C381.76,496.73,381.56,495.28,383.27,492.8Z"/><path class="cls-2" d="M482.69,486.49s46.88-13.64,60.31-11.2c0,0,19.29.75-3.41-11.72,0,0-42-13.21-59.57-8.09C480,455.48,465.48,482,482.69,486.49Z"/><path class="cls-3" d="M508.21,479.88s14-12,.83-23.67c12.17.36,40.37,6.46,40.95,14.85.4,5.75-16.64,3.47-25.34,5.23-2.89.59-8.7,1.77-16.44,3.59"/><path class="cls-4" d="M529.24,475.82s12.42-1,15.35-.54c0,0,6,.38,5.88-2.8,0,0-.23-4.66-5.77-7.14,0,0-7.86-4.31-9.69-4.44,0,0,5.59,6.91,3.38,9.86C538.39,470.76,536.45,473.82,529.24,475.82Z"/><path class="cls-2" d="M480.71,463.47s33.55,35.49,46.37,40.16c0,0,17,9.12-8.87,8.39,0,0-42.9-9.84-55.48-23.14C462.73,488.88,463.57,458.67,480.71,463.47Z"/><path class="cls-3" d="M499.39,482.08s6,17.4-11.26,20.85c10.68,5.84,38.09,14.84,42.84,7.89,3.25-4.76-12.61-11.41-19.22-17.33-2.19-2-6.61-5.92-12.36-11.41"/><path class="cls-4" d="M515.47,496.22s10.19,7.17,13,8.23c0,0,5.35,2.69,3.67,5.39,0,0-2.56,3.9-8.6,3.24,0,0-9-.25-10.61-1.07,0,0,8.33-3.13,7.91-6.8C520.81,505.21,520.68,501.6,515.47,496.22Z"/><path class="cls-5" d="M478.48,473.84s30.9-22.06,41.38-23.71c0,0,14.34-4.41-5.52-7.72,0,0-34.19,1.09-45.78,9.36C468.56,451.77,464.69,474.94,478.48,473.84Z"/><path class="cls-6" d="M495.51,462.44s7.18-12.38-5.47-17.59c9-2.86,31.28-5.63,33.86.38,1.76,4.12-11.32,6.82-17.25,10.35-2,1.17-5.93,3.53-11.14,6.86"/><path class="cls-7" d="M509.89,454.05s8.85-3.94,11.13-4.33c0,0,4.48-1.26,3.6-3.57,0,0-1.37-3.36-6.07-3.76,0,0-6.88-1.14-8.25-.77,0,0,5.88,3.64,5,6.37C515.31,448,514.67,450.73,509.89,454.05Z"/><path class="cls-8" d="M435.83,416.57s-4.33-44.22.12-55.81c0,0,3.9-17.13-11.06,1.08,0,0-18.86,35.33-17.24,51.91C407.65,413.75,428.9,431.2,435.83,416.57Z"/><path class="cls-9" d="M434.21,392.64s-8.36-14.51-21-4.72c2.37-10.82,12.55-35,20.15-34.13,5.21.62.31,15.47.43,23.54,0,2.69.12,8.08.45,15.31"/><path class="cls-10" d="M434.11,373.15s1.16-11.28,2.09-13.82c0,0,1.34-5.27-1.51-5.73,0,0-4.21-.58-7.36,4,0,0-5.18,6.31-5.6,7.93,0,0,7.13-3.85,9.39-1.37C431.12,364.12,433.53,366.37,434.11,373.15Z"/><path class="cls-2" d="M458.89,509.21s37.56.9,46.83,5.83c0,0,14,5,.23-9.39,0,0-27.72-19.46-41.8-19.8C464.15,485.85,447.32,501.88,458.89,509.21Z"/><path class="cls-3" d="M479.14,510.3s13-5.52,6.12-17.16c8.84,3.1,28.1,14.13,26.57,20.42-1.05,4.3-13-1.33-19.8-2.06-2.25-.25-6.79-.73-12.89-1.2"/><path class="cls-4" d="M495.51,512.22s9.34,2.13,11.38,3.18c0,0,4.29,1.66,5-.69,0,0,.91-3.47-2.57-6.58,0,0-4.77-5-6.08-5.51,0,0,2.49,6.37.19,8C503.4,510.64,501.26,512.43,495.51,512.22Z"/><path class="cls-11" d="M499.91,461s41.77,25.3,55.37,26.4c0,0,18.83,4.27-6.32,10.44,0,0-44,1.91-59.64-7.57C489.32,490.3,482.11,461,499.91,461Z"/><path class="cls-12" d="M522.85,474s10.42,15.17-5.31,23.08c11.85,2.8,40.67,4.19,43.4-3.76,1.86-5.45-15.18-7.66-23.13-11.61-2.64-1.31-7.95-4-15-7.71"/><path class="cls-13" d="M542.12,483.37s11.73,4.2,14.69,4.48c0,0,5.87,1.18,5,4.23,0,0-1.43,4.44-7.42,5.4,0,0-8.71,2.14-10.51,1.79,0,0,7.19-5.23,5.81-8.65C549.65,490.62,548.57,487.16,542.12,483.37Z"/><path class="cls-11" d="M453.39,446.08s34.23-12.67,41.2-20.11c0,0,11.26-9,3.17,8.56,0,0-19.34,26.61-32.18,31.36C465.58,465.89,445.07,456.45,453.39,446.08Z"/><path class="cls-12" d="M471.66,438.69s13.72,1,11,13.85c7.15-5.63,21.37-21.84,18-27.13-2.31-3.63-11.54,5.31-17.54,8.12-2,.94-6,2.81-11.47,5.16"/><path class="cls-13" d="M486.09,431.78s7.92-4.91,9.46-6.51c0,0,3.42-2.88,4.78-.94,0,0,1.94,2.91-.29,6.86,0,0-2.8,6.09-3.84,7,0,0,.28-6.64-2.36-7.42C493.84,430.75,491.31,429.77,486.09,431.78Z"/><path class="cls-2" d="M449.6,418s44.7-19.65,53.42-30.15c0,0,14.31-12.95,4.92,11.18,0,0-23.71,37.09-40.47,44.46C467.47,443.52,439.31,432.56,449.6,418Z"/><path class="cls-3" d="M473.41,406.71s18.4.2,15.84,17.61c9.1-8.09,26.8-30.88,21.85-37.68-3.39-4.66-15,8-22.78,12.26-2.6,1.41-7.8,4.24-14.91,7.81"/><path class="cls-4" d="M492.13,396.32s10.19-7.19,12.12-9.45c0,0,4.33-4.12,6.31-1.63,0,0,2.81,3.72.16,9.18,0,0-3.26,8.36-4.58,9.63,0,0-.15-8.89-3.74-9.73C502.4,394.32,499,393.23,492.13,396.32Z"/><path class="cls-14" d="M453.87,435.83s20.37-44.38,31-52.93c0,0,13.19-14.1-11.1-5.09,0,0-37.47,23.1-45.11,39.74C428.67,417.55,439.18,445.88,453.87,435.83Z"/><path class="cls-15" d="M465.57,412.21s.1-18.41-17.35-16.13c8.24-9,31.31-26.29,38-21.24,4.6,3.47-8.27,14.86-12.63,22.59-1.45,2.57-4.36,7.73-8.05,14.78"/><path class="cls-16" d="M476.27,393.65s7.35-10.06,9.64-12c0,0,4.19-4.27,1.73-6.28,0,0-3.67-2.88-9.17-.31,0,0-8.41,3.12-9.71,4.42,0,0,8.89.3,9.67,3.9C478.43,383.42,479.47,386.89,476.27,393.65Z"/><path class="cls-2" d="M461.6,486.85s30.09-9,38.75-7.53c0,0,12.41.38-2.26-7.52,0,0-27.09-8.27-38.38-4.89C459.71,466.91,450.5,484,461.6,486.85Z"/><path class="cls-3" d="M478,482.46s8.94-7.77.41-15.24c7.84.17,26,3.94,26.43,9.34.29,3.7-10.69,2.32-16.28,3.51-1.85.39-5.58,1.18-10.56,2.39"/><path class="cls-4" d="M491.49,479.74s8-.74,9.88-.43c0,0,3.84.21,3.77-1.84a5.76,5.76,0,0,0-3.75-4.56s-5.08-2.73-6.26-2.81c0,0,3.63,4.42,2.23,6.33C497.36,476.43,496.12,478.41,491.49,479.74Z"/><path class="cls-2" d="M447.2,452.29s28.15-13.88,36.92-13.83c0,0,12.29-1.68-3.46-7,0,0-28.06-3.68-38.61,1.53C442.05,433,435.8,451.34,447.2,452.29Z"/><path class="cls-3" d="M462.61,445.25s7.52-9.13-2.11-15.07c7.74-1.13,26.27-.42,27.57,4.82.9,3.6-10.14,4.06-15.45,6.15-1.76.69-5.31,2.08-10,4.1"/><path class="cls-4" d="M475.47,440.33s7.75-2,9.66-2.05c0,0,3.82-.43,3.41-2.43a5.79,5.79,0,0,0-4.45-3.88s-5.46-1.85-6.63-1.73c0,0,4.31,3.76,3.24,5.87C480.7,436.11,479.81,438.26,475.47,440.33Z"/><path class="cls-2" d="M439.83,431.75s24-7.91,29-12.88c0,0,8-6,2,6,0,0-14,17.91-23,20.88C447.76,445.74,433.82,438.71,439.83,431.75Z"/><path class="cls-3" d="M452.63,427.1s9.46,1,7.28,9.84c5.08-3.72,15.31-14.57,13.1-18.31-1.51-2.56-8.11,3.39-12.33,5.18-1.4.6-4.22,1.8-8.05,3.29"/><path class="cls-4" d="M462.78,422.67s5.59-3.19,6.69-4.26c0,0,2.44-1.91,3.33-.53a4.65,4.65,0,0,1-.37,4.73s-2.09,4.14-2.83,4.73c0,0,.36-4.58-1.44-5.19C468.16,422.15,466.43,421.42,462.78,422.67Z"/><path class="cls-2" d="M444.23,435.73s2.06-19.55,5-24.19c0,0,3.22-7.07-4.88-.51,0,0-11.32,13.64-12.09,21C432.27,432,439.92,441.46,444.23,435.73Z"/><path class="cls-3" d="M445.66,425.21s-2.34-7-8.7-3.91c2-4.49,8.55-14.07,11.77-13,2.2.72-1.24,6.73-1.91,10.24-.22,1.16-.67,3.51-1.16,6.67"/><path class="cls-4" d="M447.34,416.76a52.51,52.51,0,0,1,2.14-5.81s1-2.17-.15-2.62a3.62,3.62,0,0,0-3.54,1.07,23.6,23.6,0,0,0-3.13,2.93s3.43-1,4.19.24C446.85,412.57,447.69,413.76,447.34,416.76Z"/><path class="cls-2" d="M418,411s-9.67-21.74-9.37-28.39c0,0-.91-9.36-5.44,2.42,0,0-3.62,21.15,0,29.3C403.2,414.34,417,419.62,418,411Z"/><path class="cls-3" d="M413.13,399.12s-6.7-6-11.49,1.16c-.62-5.9.47-19.92,4.48-20.75,2.75-.57,2.77,7.81,4.2,11.89.47,1.36,1.42,4.08,2.81,7.7"/><path class="cls-4" d="M409.78,389.24a64.24,64.24,0,0,1-1.27-7.38s-.21-2.91-1.73-2.66a4.37,4.37,0,0,0-3.07,3.26s-1.57,4.08-1.51,5c0,0,3-3.15,4.54-2.28C406.74,385.15,408.34,385.89,409.78,389.24Z"/><path class="cls-2" d="M423.09,416.3s11.17-16.18,11.94-21.62c0,0,2.17-7.46,4.05,2.79,0,0-.29,17.72-4.48,23.79C434.6,421.26,422.63,423.45,423.09,416.3Z"/><path class="cls-3" d="M428.86,407.39s6.35-3.82,9.15,2.69c1.41-4.7,2.66-16.24-.47-17.53-2.15-.88-3.44,5.92-5.22,9-.59,1-1.78,3.1-3.46,5.83"/><path class="cls-4" d="M433.08,399.87a51.21,51.21,0,0,0,2.16-5.79s.61-2.33,1.82-1.9a3.61,3.61,0,0,1,2,3.12,23.55,23.55,0,0,1,.47,4.26s-1.93-3-3.34-2.54C436.18,397,434.76,397.37,433.08,399.87Z"/></g><path class="cls-21" d="M369.28,466.11s0-15-32.54-33.8l-25.56,19,19.3,19.78S365.53,483.63,369.28,466.11Z"/><path class="cls-22" d="M340,440.26s23.69,21.47,1.16,20.22L315.5,456l15.61,15.74s36.3,11.27,38.8-6.26c0,0-3.75-16.27-32.54-33.79A10.06,10.06,0,0,0,340,440.26Z"/><g id="topflower"><polygon class="cls-23" points="288.87 436.56 291.87 444.5 298.48 453.64 318.84 451.95 314.86 421.72 300.68 414.71 289.52 423.57 288.87 436.56"/><g id="petal6"><path class="cls-24" d="M330.18,386a45,45,0,0,0-2.69,11.16s-2.94,27.53-5.73,31.32l-4.4,3.35s-10.43-4.76-13.75-18.26a32.53,32.53,0,0,1,8.57-22.5s6.57-8.71,14.33-7.65C326.51,383.43,330.5,384.17,330.18,386Z"/><path class="cls-25" d="M313.21,424.59s-3-3.25-1-10.42c0,0,2.07-5,.12-5.56,0,0-1.69-1.51-3.46,5,0,0-1.21,7,1.19,9.77C310,423.38,312.91,427,313.21,424.59Z"/><path class="cls-26" d="M322.05,412.66s6.65-16.73,4.61-20.79-4.77-6.89-9.09-3.87c0,0-11,11-10,17.56,0,0,.77,2.31,3-.6A45.35,45.35,0,0,0,313,398.3s2.55-4.2,2.22-.44c0,0-1.59,9.71,0,10.15,0,0,1.89-.53,2.69-3.46,0,0,1.54-3.08,1.66-.95a21.66,21.66,0,0,1-1.8,7.9s-3.37,8.53-1.12,14.39l3.91,1.07S320.49,417.13,322.05,412.66Z"/><path class="cls-27" d="M318.31,385.55s7.19-1,8.35,2.47c0,0,.49,5.11,1.33,5.65l1.55-5.88.52-1.46a1.36,1.36,0,0,0-.81-1.89S324.67,381.18,318.31,385.55Z"/></g><g id="petal3"><path class="cls-28" d="M288.77,454s-3.85,0-10.71,11.08c0,0-7.37,11.64-5.59,20.52,0,0,.84,7.22,6.11,5.86,0,0,.91-.8,2.33-2.16,0,0,26.75-22.46,28.59-27.91l-3.83-5.24-9.74-4.05Z"/><path class="cls-24" d="M292.65,456.43s-5.24,3.82-4.65,6.78c0,0,.8.92,3.65-1.81,0,0,4.17-3.76,5.88-3.64Z"/><path class="cls-25" d="M294.63,455.57s1.51-1.69,4.35-.57c0,0,2.67,1.78-1.45,2.76l-4.88-1.33A13.81,13.81,0,0,0,294.63,455.57Z"/><path class="cls-24" d="M299.16,458.2s-6.48,4.53-4.23,6.55a13.17,13.17,0,0,0,4.89-2.52s3-2,4.08.41a2.52,2.52,0,0,1,.36,2.54s-2,3.51-.59,3.44c0,0,5.12-4.65,5.83-7.26Z"/><path class="cls-25" d="M305.41,457.1s-3.58-1-6.25,1.1l4.45,1.25a3.16,3.16,0,0,1,2-.88A.81.81,0,0,0,305.41,457.1Z"/></g><g id="petal2"><path class="cls-28" d="M285.06,429.7s-14.07,0-16.41,1.63c0,0-10.95,2.47-15.24,4.1,0,0-12,3-11.86,15.31,0,0,.47.83,1.8-.21,0,0,2.16-1.51,6.87.47,0,0,9.39,5.36,27,4.9,0,0,17.8-2.15,20.54-3.33Z"/><path class="cls-24" d="M265.67,432.82s5.5,2.9,1.89,3.31c0,0-12.13.9-12.78,8.42a3.87,3.87,0,0,0,4.09,4.26s6.74-1.66,8.73-2.52c0,0,15.51-1.73,12.46,3,0,0-14.38,2.73-14.77,5.43,0,0-.08,1.16,6.72,1.11,0,0,11.33.47,17.63-1.66l2.68-9.42-7.15-14.88a71.88,71.88,0,0,0-10.56.27C268.36,431.28,261.9,432.45,265.67,432.82Z"/><path class="cls-29" d="M283.61,434.38a5.24,5.24,0,0,1-4.41-.5s-4.36-3.29-5.9-.21a2.67,2.67,0,0,0,1.49,3.55,6.2,6.2,0,0,0,4.76-.8s.68-1.21,3.53-.09Z"/><path class="cls-25" d="M283,433.87s-2.33,2.17-.64,3.68c0,0,2.25,2,.5,3.28,0,0-3,2-.65,3.67a7.12,7.12,0,0,0,3.91,1.07l5.62-2.67-4.53-9.21Z"/></g><g id="petal1"><path class="cls-28" d="M305.18,418.31a12.93,12.93,0,0,1-1.72-3.54,4.45,4.45,0,0,0-1.42-2.49s-14.31-16.84-25.47-23.37c0,0-5.75-3.31-8-1.48,0,0-1.09,1.45-2.16,1.51,0,0-2,.86-2.16,5.36,0,0,.48,12.38,6.32,19.21,0,0,11.29,20.22,16.62,16.07Z"/><path class="cls-24" d="M283.76,395.24s4.74,4.44,1.31,4.2c0,0-3.38.83-1.75,1.28,0,0,1.28,1.74-1.33,1,0,0-5.72-4.7-7.16-1.95a9.07,9.07,0,0,0,.06,8.77s3.26,4.73.62,5.41c0,0-2.69,1.13-1.52,5.07,0,0,5.64,9.33,9.83,10.66l8.39-3.27,12.94-8.24s-2.07-2.66-1.81-3.64c0,0,.05-.79-3-4.18C300.37,410.38,282.46,391,283.76,395.24Z"/><path class="cls-29" d="M292.78,422.53s-6.31-3.82-7.11-4.73c0,0-3-3.26-2.55.35,0,0,1.9,7.17,5,8.7l8.53-.47A7.54,7.54,0,0,0,292.78,422.53Z"/><path class="cls-29" d="M297,414.59s-7.23-6.86-9.12-2.48c0,0-.95,2.19,4.53,6.48,0,0,3.38,3,3.35,4.41l2.19-2.9Z"/><path class="cls-29" d="M291,400.62s-1.06,2.61,2.88,6.13c0,0,7.35,5.15,6.64,7.75,0,0-2.57,1.75-1.54,3.08l5.61-.1s-1.23-1.85-1.17-2.71a6.87,6.87,0,0,0-.95-1.95S293.31,402.54,291,400.62Z"/></g><path class="cls-30" d="M304.42,416.33s4.07,1,4.58,5l2.94.8s-.1-6.64,2.09-5.69c0,0,1,.27.18,3.2,0,0-1.18,5.62.33,7.78l1.87.86s-.89-4.44,1.71-3.73c0,0,4.24,1.15,3.53,3.76,0,0-.95,6,.71,8.94l-2.19,2.9L303.5,423Z"/><path class="cls-31" d="M286.74,431.21s-4.76.8-2.75,2.4l2.16,2.33,5.48.45,1.6-2L290,430.7Z"/><path class="cls-32" d="M322.48,435.51,320,433.93a6.6,6.6,0,0,1-.5-4.13c.79-2.93-1,1.12-.95,2.19s-1.69-1.51-1.69-1.51.12-1.72-1.18-2.07-1.83-3.27-1.83-3.27a4.12,4.12,0,0,1-1.55-2.68c-.15-1.66-3-.19-3-.19s-.41-2.35-2.13-2.47a8.07,8.07,0,0,0-2.87.27s-3.76,0-2.63,2.76c0,0,2.22,5.17,3.85,5.61a5.89,5.89,0,0,0,1.81-.2l2.06,4.37s.52,1.57-2.39-.61c0,0-4-3.2-4.65-4.77,0,0-.74-3.7-2.37-4.14,0,0-3.4-1.63-4.05.12,0,0-2.9,5.51,1.16,7.31,0,0,3.67.65,3.87,2.46a8.39,8.39,0,0,0,1.84,2.24s1.6,1.84-3.26-.88c0,0-6.78-4.65-9-5.59,0,0-3.64,1.81-.5,4.41,0,0,3.32,1.95-.21,2,0,0-3-.47-2.63.68l13.35,5.25s-.73,2.39,1.13,3.24c0,0,1,1.34-1.63-.44a12.9,12.9,0,0,0-5-2.07s-1.33-.28-.86-2.64l-2.34-1s-2.52,2.71-1,4.76l-.64,1.1s.15-3.1-1.89-3.31c0,0-3.2.18-2.43,2.49l3.32,1.95,5.11,1.39s2.62,1.06,4.1.77c0,0,1.89-.54,2.6.7,0,0,8.41,1.24,10.13,3.29,0,0-5.95-1.27-7.49-2,0,0-8.8-2.4-12.32-2.31,0,0-4.73,3.26-3.64,5.66a1.93,1.93,0,0,0,2.43.66l3.29.2a7.67,7.67,0,0,0,3.49,1.3s2.55-.36,3.17,1.21l-1.66.95s-.26,1,3.17,1.21c0,0,1.83-1.6,3.46-1.16l3.94,3.52a2.75,2.75,0,0,0,3-2s3.05-.92,3.49-2.55l9.68-13.37S322.45,436.9,322.48,435.51Z"/><path class="cls-33" d="M325.59,443.35s-4.18-7.78-7.88-7c0,0-1.09,1.45.83,3.38,0,0,1.28,1.74-3.19.18,0,0-5.54-1.51-8-3.94,0,0-2.34-1.68-1.8.21,0,0,1.24,3.14,3.2,3.67,0,0,10,6.92,5.68,6.1,0,0-7-3.67-7.25-1.63,0,0,1,4.12,4.56,5.09,0,0,3.73,1.72-4.68.48,0,0,7.35,5.14,6.61,9.14L323,452.8Z"/><path class="cls-34" d="M306.75,458.5s-3.74-.3-3.44,1.18a1.51,1.51,0,0,0,.89.59s.65.18.38,1.15c0,0-.26,1,1.78,1.19,0,0,2,.2,2.72-1,0,0-.77-2.31.56-3.35,0,0,3.79-1.16,4.56-.73a2.78,2.78,0,0,0,1.3-1.52s-4,.65-6.21-.29c0,0-2.79-.06-3.05.92a3.51,3.51,0,0,0,2.78.05s2.13-.11,1,.27c0,0-2.22.45-2.4,1.1Z"/><path class="cls-35" d="M290.39,446.72s.3,5.33,3.06,6.78l-2.73,1s-2.52-4.88-1.9-7.16Z"/><path class="cls-34" d="M294,452.61s-4.77.8-5.36,1.69c0,0-.18.65,1.21.68a6.66,6.66,0,0,1,3,.47s.89.59,1.57-.62c0,0,0-1.39.86-1.87,0,0,2.22-.44,2.07-1.18Z"/><path class="cls-36" d="M310.71,462s-4.18-7.78-7.47-11.12l.05,3.25s3.57,7.87,6.09,8.91Z"/><path class="cls-37" d="M322.39,428.14s-11.85-1.48-13.86-3.07l2.4,2.75s9.8,1.27,10.22,4.88l1.42-1.36Z"/><path class="cls-38" d="M297.9,416.58s7.52.64,8.17,4.67c0,0,1.66,2.9,2.64,3.17l-1.51,1.68S304.83,422,304,421c0,0-.95-1.65-5.13-1.74Z"/><path class="cls-39" d="M301.42,422.26s-2.72-2.84-1.92-5.77c0,0-.18-3.2-2.23-3.41,0,0-2.93-.79-3.19,4,0,0,.92,6.9,5.42,7.07C299.5,424.18,302.46,423.59,301.42,422.26Z"/><path class="cls-40" d="M295.12,430s1-2.52-3.85-3.85c0,0-6.6-1.44-7.49,1.81,0,0-1.48,4.15,3.11,4a38.77,38.77,0,0,1,6.6-.48S295.3,431.26,295.12,430Z"/><path class="cls-41" d="M304,451.83a8.68,8.68,0,0,1,.8-2.93s1.66-.95-1.27-1.74c0,0-4.38-1.9-4.91,3.91,0,0-.24,3.43,3.94,3.52A2,2,0,0,0,304,451.83Z"/><path class="cls-42" d="M312.5,425.27s.67-5.06-2.55-3.49c0,0-3.79,1.07-3.49,6.4,0,0,1.13,4.85,4,4.58,0,0,2.43-.56,1.09-3.37A5.71,5.71,0,0,1,312.5,425.27Z"/><path class="cls-43" d="M288.76,430.88s4.05-2,2.93-3.05c0,0-.89-.59-3.94.33,0,0-1.81.21.12-1.72,0,0,1.46-.82,4.77.17a3.44,3.44,0,0,1,2.36,3.17s-.34,2-3,1.66C292,431.44,286.68,432.07,288.76,430.88Z"/><path class="cls-44" d="M297.46,422.05s1.43-.87,1.18-3.45c0,0,.12-1.55.8-.08a7.62,7.62,0,0,0,2.1,4s.8,1-.68,1.25a3.24,3.24,0,0,1-2.94.08S296.21,422.76,297.46,422.05Z"/><path class="cls-45" d="M295.09,444.46s-2-1.21-2.54.75c0,0-.2,2-1.18,1.77,0,0-1.57.63-1.18,1.78A4.9,4.9,0,0,0,295.09,444.46Z"/><path class="cls-46" d="M316.71,441.29a28.93,28.93,0,0,0,11.61,4.9L324.41,449s1-1.13-9.06-5.27Z"/><path class="cls-47" d="M317.24,443.18s2-3.64-1.3-4.2c0,0-2.46,0-3.43,3.61,0,0-1.19,1.78,1.83,2.25C314.34,444.84,316.71,445.13,317.24,443.18Z"/><path class="cls-48" d="M295,445.18s.95-2.19-3.23-2.28c0,0-8.43.15-7.13,4.35,0,0,.77,2.31,5.54,1.51C290.19,448.76,294.12,448.43,295,445.18Z"/><path class="cls-49" d="M321,448.74a90.21,90.21,0,0,1-10.9-3.66s-11.76-5.65-17.86-7.66c0,0-6.9-2.93-11.52-5.23,0,0-6.66-2.51-6.33-6.27,0,0,4-4.51.53-5.81,0,0-3.59-1-2.34,6a7,7,0,0,0,1.66,2.9s1.13,1-1.87-.85l-2-.54a6.51,6.51,0,0,1-2.67-1.77,4.11,4.11,0,0,0-4.5-.18s-1.5,1.69-.47,3a2.93,2.93,0,0,0,3.17,1.22,1.5,1.5,0,0,0,1.33-1s.36-1.3,2.55-.36c0,0,3.91,1.07,2.43,1.36,0,0-3.61.42-4.15,2.37,0,0-.85,1.87,1.84,2.25,0,0,2.69.39,3.23-1.57,0,0-.45-2.22.53-1.95a26,26,0,0,1,5.68,2.24,77.91,77.91,0,0,0,12.26,5.09,74.79,74.79,0,0,1,9.74,4.05s9,5.59,15,6.53l5.3,1.1Z"/><path class="cls-50" d="M277.43,430.48c-1.32-1.46-3.23-2.68-3.06-4.56,0,0,4-4.51.53-5.81,0,0-3.59-1-2.34,6a7,7,0,0,0,1.66,2.9s1.13,1-1.87-.85l-2-.54a6.51,6.51,0,0,1-2.67-1.77,4.11,4.11,0,0,0-4.5-.18s-1.5,1.69-.47,3a2.93,2.93,0,0,0,3.17,1.22,1.5,1.5,0,0,0,1.33-1s.36-1.3,2.55-.36c0,0,3.91,1.07,2.43,1.36,0,0-3.61.42-4.15,2.37,0,0-.85,1.87,1.84,2.25,0,0,2.69.39,3.23-1.57a4.92,4.92,0,0,1-.1-1.07c0-.53-1.07-1.7-.59-1.56a3.65,3.65,0,0,0,2-.86c.38.14-1.53-2.7-1.1-2.4a12.68,12.68,0,0,1,2.87,3.58C276.71,431.45,278.42,431.57,277.43,430.48Z"/><g id="petal5"><path class="cls-28" d="M323.13,437.61s-7.82-6,.85-13.41c0,0,11.4-8.44,24-7.12,0,0,10.3.71,8.65,5.5A4.18,4.18,0,0,0,354,423.8s-11.66,13.27-17.37,16.26a30.53,30.53,0,0,0-4.26,4.09s-2,4.17-5.38,5a3.18,3.18,0,0,1-4.09-2.34Z"/><path class="cls-24" d="M352.88,422.79s.14-3.11-2.85-1.12c0,0-10.83,8.95-12.72,13.33,0,0-.62,2.28,1,1.33,0,0,6.89-4.77,8.58-7.11,0,0,2.6-3.14,3.85-3.85C350.78,425.37,352.94,423.86,352.88,422.79Z"/><path class="cls-24" d="M320,432.56s5.52-5.67,9.85-4.84c0,0,1.62.44-.33,3.76,0,0-3.52,5.86-6.63,5.72,0,0-.41.23-2.16-2.34A3.84,3.84,0,0,1,320,432.56Z"/><path class="cls-27" d="M346.42,417s-.86,3.13,2.9,3.46c0,0,5.26-.06,6.05-1C355.37,419.41,354,417.41,346.42,417Z"/></g><g id="petal4"><path class="cls-28" d="M324.88,447.88S314.5,459.05,310.32,459a7.6,7.6,0,0,0-2,7.49s2.9,9.89,11.58,14c0,0,8.68,4.11,11.4,3.1a2.08,2.08,0,0,0,1-3.05,13.81,13.81,0,0,1-1.12-4.85s-3.18-16.61-2.95-20c0,0,.27-6.75-.77-8.08S324.88,447.88,324.88,447.88Z"/><path class="cls-27" d="M329.84,471.45s-.17,8.34-3.78,8.76c0,0-7.61-1.91-7.3-.33,0,0,8.37,4,10.54,3.77,0,0,2.37.41,3.16-1.24,0,0,.57-.88-.4-2.43a12.86,12.86,0,0,1-.91-4.33S330,468.34,329.84,471.45Z"/><path class="cls-24" d="M311.61,458.72s1.15,7.38,5.44,9.6a4.81,4.81,0,0,1,2.22,3.4s.66,4,2.64-.68c0,0,6.25-11.77,6-17.44a44,44,0,0,0-.3-5.33c-.3-1.48-2.58-.18-2.58-.18S315.14,458.57,311.61,458.72Z"/></g></g><g id="topflower-2" data-name="topflower"><polygon class="cls-23" points="394.34 476.51 389.38 487.79 386.92 503.98 409.73 522.95 436.38 487.59 428.81 465.89 408.24 463.72 394.34 476.51"/><g id="petal6-2" data-name="petal6"><path class="cls-24" d="M488.58,466.18A65.49,65.49,0,0,0,474.44,475s-31.07,25.52-37.81,26.62l-8-1s-5.95-15.54,4.35-32.9c0,0,11-13.24,31.78-14.59,0,0,15.66-2.34,22.62,6.66C487.4,459.78,490.78,464.61,488.58,466.18Z"/><path class="cls-25" d="M431.74,488.88s.24-6.39,9.55-11.83c0,0,7.27-3.1,5.78-5.64,0,0-.21-3.29-8.67,1.66,0,0-8.4,6-8.71,11.33C429.69,484.4,429,491,431.74,488.88Z"/><path class="cls-26" d="M453,485.52S477,475,479,468.67s2.07-12-5.48-13.26c0,0-22.61.15-28.25,8,0,0-1.56,3.17,3.67,2.39a67,67,0,0,0,9.38-4.34s6.91-1.77,2.75,1.8c0,0-11.53,8.44-10.3,10.55,0,0,2.51,1.38,6.32-.85,0,0,4.73-1.62,2.68.71a31.26,31.26,0,0,1-9.91,6.35s-12.17,5.41-15.8,13.77l3,5.08S446.87,488.55,453,485.52Z"/><path class="cls-27" d="M476.75,453.62s8.46,6.3,6.13,11.06c0,0-4.69,5.8-4.37,7.21l7.6-4.51,2-1a2,2,0,0,0,1.08-2.78S487.78,455.58,476.75,453.62Z"/></g><g id="petal3-2" data-name="petal3"><path class="cls-28" d="M376.52,494.45s-4-3.92-22.36.57c0,0-19.48,4.56-26.67,15.57,0,0-6.49,8.33.36,12.28,0,0,1.76.11,4.62.14,0,0,50.56,4,58,.18l1.38-9.31-6-14.11Z"/><path class="cls-24" d="M378,500.94s-9.31-1.37-11.71,2.3c0,0-.1,1.76,5.61,1.83,0,0,8.15.35,9.81,2.22Z"/><path class="cls-25" d="M381,502.06s3.28-.21,5.09,3.85c0,0,.95,4.55-4.31,1.38L378,500.94A19.34,19.34,0,0,0,381,502.06Z"/><path class="cls-24" d="M383,509.4s-11.33-1.9-11,2.48a18.87,18.87,0,0,0,7.62,2.36s5.11,1,3.81,4.58c0,0-.28,2.44-2.22,3,0,0-5.64,1.59-4.11,3,0,0,10,.38,13.42-1.6Z"/><path class="cls-25" d="M390.58,514.62S387.86,510,383,509.4l3.33,5.82a4.57,4.57,0,0,1,2.95,1.1S391.14,516.56,390.58,514.62Z"/></g><g id="petal2-2" data-name="petal2"><path class="cls-28" d="M397.38,465.52s-14.53-14.35-18.65-15c0,0-13.86-8.58-20-11.26,0,0-15.53-9.1-27.87,3.79,0,0-.36,1.34,2.08,1.62,0,0,3.77.63,6.63,7.47,0,0,4.28,15.1,23,32.56,0,0,20.63,15.88,24.66,17.44Z"/><path class="cls-24" d="M374.12,449s2.75,8.61-1.41,5.37c0,0-13.48-11.43-21.81-4.3,0,0-4.58,3.82-.1,8.58,0,0,8.68,5.14,11.61,6.27,0,0,17.83,14,9.82,15.84,0,0-17.68-11.81-20.82-9.41,0,0-1.28,1.12,5.83,8,0,0,11.25,12,19.94,16.21l12.36-7,7.75-22.69a104.74,104.74,0,0,0-11.23-10.48C378.48,450.17,370.59,444.81,374.12,449Z"/><path class="cls-29" d="M391.12,468.89a7.58,7.58,0,0,1-4.06-5s-1.17-7.84-5.9-6.21c0,0-3.63,1.55-2.08,5.19a9.06,9.06,0,0,0,5.76,4s1.94-.57,3.74,3.49Z"/><path class="cls-25" d="M391.05,467.8s-4.63-.14-4.41,3.14c0,0,.28,4.38-2.82,3.92,0,0-5.12-1-4.41,3.14a10.29,10.29,0,0,0,3,5.08l8.54,3,4.68-14.15Z"/></g><g id="petal1-2" data-name="petal1"><path class="cls-28" d="M429.81,474.21a19.08,19.08,0,0,1,1.83-5.42s1-1.17,1.05-4c0,0,2.32-32-2.6-50.13,0,0-2.58-9.28-6.78-9.66,0,0-2.61.38-3.77-.64,0,0-2.93-1.13-7.69,3.36,0,0-12.1,13.31-13,26.32,0,0-8.87,32.43.87,33.56Z"/><path class="cls-24" d="M431.1,428.51s.4,9.42-2.92,5.68c0,0-4.34-2.57-3.11-.45,0,0-.45,3.1-2.43-.28,0,0-1.13-10.69-5.44-9.32a13.17,13.17,0,0,0-8.85,9.15s-1.44,8.22-4.86,6.24c0,0-3.94-1.57-6.74,3.7,0,0-3.65,15.41-.66,21l12,5.14,21.79,4.64s.57-4.87,1.84-5.61c0,0,.84-.77,1.17-7.36C432.9,461.09,434,422.83,431.1,428.51Z"/><path class="cls-29" d="M412.67,466s-2.65-10.37-2.54-12.13c0,0,.24-6.39-3-2.22,0,0-5.33,9.35-3.7,14.08l9.32,8.18S414.3,470.68,412.67,466Z"/><path class="cls-29" d="M425.16,462.07s-.5-14.47-6.92-11.85c0,0-3.21,1.3-1.9,11.32,0,0,.43,6.56-1,8l5.22-.78Z"/><path class="cls-29" d="M433.17,441.49s-3.75,1.63-3.25,9.28c0,0,2.37,12.81-1,14.79,0,0-4.44-.81-4.73,1.62l5.91,5.61s.62-3.18,1.56-4a10.36,10.36,0,0,0,1-3S433.57,445.79,433.17,441.49Z"/></g><path class="cls-30" d="M431,471.38s3.24,5.13-.33,9.81L433,485s6.65-7,8-3.77c0,0,.74,1.27-3.07,3.5,0,0-6.95,4.62-7.58,8.4l1.06,2.78s3.59-5.5,5.57-2.12c0,0,3.21,5.51-.17,7.48,0,0-7.13,5.3-8.36,10l-5.22.78.16-34.71Z"/><path class="cls-31" d="M397.59,468.8s-5.75-4-5.29-.31l-.14,4.62,5.22,6,3.71-.46.42-7.06Z"/><path class="cls-32" d="M430.23,509.62l-1-4.16a9.66,9.66,0,0,1,3.69-4.8c3.81-2.22-2.19.14-3.21,1.31s-.21-3.28-.21-3.28,1.87-1.66.88-3.35,1.43-5.26,1.43-5.26a6,6,0,0,1,1.13-4.34c1.53-1.87-2.91-3.25-2.91-3.25s2-2.86.3-4.73a12,12,0,0,0-3.24-2.64s-3.89-3.84-5.54.18c0,0-3,7.62-1.73,9.74a8.46,8.46,0,0,0,2.09,1.62l-2.32,6.62s-1.07,2.17-1.84-3c0,0-.93-7.41,0-9.67,0,0,3-4.59,1.76-6.71,0,0-1.88-5.15-4.33-4,0,0-8.61,2.76-6.24,8.76,0,0,3.14,4.4,1.52,6.49a12.17,12.17,0,0,0-.38,4.19s-.21,3.53-2.48-4.23c0,0-2.3-11.71-3.6-14.92,0,0-5.61-1.83-5,4.06,0,0,1.45,5.4-2.29,1.91,0,0-2.65-3.57-3.43-2l8.49,19s-3.18,1.73-2.12,4.51c0,0-.28,2.44-1.24-2.11a18.86,18.86,0,0,0-3.11-7.27s-1.09-1.63,1.8-3.61l-1.38-3.45s-5.36.25-5.83,4l-1.79.49s3.32-3.07,1.41-5.36c0,0-3.49-3.07-5,.11l1.45,5.39,3.87,6.64s1.64,3.77,3.47,5c0,0,2.51,1.37,2,3.38,0,0,7.45,9.84,7.15,13.71,0,0-4.87-7.37-5.69-9.74,0,0-6.67-11.43-10.41-14.92,0,0-8.22-1.44-9.53,2.16,0,0-.55,2,1.84,3.15l3.21,3.55a11.05,11.05,0,0,0,2.3,4.9s3,2.23,2.05,4.48l-2.68-.7s-1.27.74,2,4.48c0,0,3.53.21,4.77,2.33l.5,7.65a4,4,0,0,0,5.11,1s4.1,2.15,6.21.91l23.63-4S428.78,511,430.23,509.62Z"/><path class="cls-33" d="M425.47,520.92s3.59-12.32-1-15.31c0,0-2.61.38-2.58,4.34,0,0-.45,3.1-3.49-3.07,0,0-4.2-7.2-4.31-12.24,0,0-.71-4.13-2.08-1.62,0,0-1.91,4.51-.42,7.05,0,0,3.32,17.36-.32,12.1,0,0-3.56-11-5.86-9.06,0,0-3.17,5.26-.45,9.91,0,0,2.12,5.58-5.33-4.26,0,0,2.37,12.8-2.46,16.19l16,3.14Z"/><path class="cls-34" d="M390.54,517.43s-3.56-4.11-4.76-2.28a2.13,2.13,0,0,0,.32,1.52s.49.84-.78,1.59c0,0-1.27.74.64,3,0,0,1.9,2.29,3.84,1.73,0,0,1.55-3.18,4-2.9,0,0,5.11,2.65,5.46,3.88a4.12,4.12,0,0,0,2.9-.25s-4.83-3.42-6.14-6.63c0,0-2.82-2.89-4.09-2.15,0,0,.31,1.52,2.82,2.89,0,0,2.33,2,.74,1.27,0,0-2.75-1.8-3.6-1.3Z"/><path class="cls-35" d="M385.59,488.58s-5.12,5.83-3.74,10.13L378,497s2.36-7.63,5.32-9.36Z"/><path class="cls-34" d="M383.37,498.39s-5.75-4-7.27-3.7c0,0-.85.5.57,1.94,0,0,2.33,2.05,2.64,3.57,0,0,.32,1.51,2.26.95,0,0,1.45-1.42,2.79-1.06,0,0,2.75,1.79,3.35.88Z"/><path class="cls-36" d="M391,525.13s3.59-12.31,3.59-19.12l-3.26,3.42s-4.32,11.79-2.76,15.42Z"/><path class="cls-37" d="M437.63,501.89s-10.76-13.57-11.22-17.28l-.32,5.29s8.86,11.29,5.62,15.45l2.86,0Z"/><path class="cls-38" d="M424,465s7.13,8.32,3.71,13.15c0,0-1.23,4.7-.49,6l-3.28.21s1.76-6.7,1.87-8.47c0,0,.7-2.68-3.53-7Z"/><path class="cls-39" d="M421.9,474.47s.07-5.72,3.88-7.94c0,0,3.07-3.49,1.16-5.79,0,0-2.22-3.81-7.41.92,0,0-6.06,8.09-1.58,12.85C418,474.51,421.62,476.91,421.9,474.47Z"/><path class="cls-40" d="M407.51,476.07s3.63-1.56-.08-7.91c0,0-5.36-8.22-9.6-5.74,0,0-5.75,2.79-.84,7.3,0,0,5.42,3.93,7.33,6.22C404.32,475.94,406.4,477.57,407.51,476.07Z"/><path class="cls-41" d="M394.52,507.77a12.67,12.67,0,0,1,3.81-2.22s2.68.7.46-3.11c0,0-2.61-6.42-9.07-.94,0,0-3.74,3.31.5,7.65A2.85,2.85,0,0,0,394.52,507.77Z"/><path class="cls-42" d="M430.31,488.86s5.85-4.55.91-6.21c0,0-5-2.75-10.12,3.08,0,0-3.77,6.17-.53,8.82,0,0,3.09,1.88,4.57-2.39A8.26,8.26,0,0,1,430.31,488.86Z"/><path class="cls-43" d="M400,470.51s6.28,2,6.14-.18c0,0-.32-1.51-4.41-3.66,0,0-2.09-1.63,1.86-1.66,0,0,2.35.64,4.78,5a5,5,0,0,1-.78,5.69s-2.43,1.77-4.77-1.3C402.83,474.43,396.66,469.63,400,470.51Z"/><path class="cls-44" d="M418,470.22s2.38.55,4.75-2.37c0,0,1.69-1.48.91.73a11.07,11.07,0,0,0-1.85,6.23s-.18,1.83-2,.6a4.68,4.68,0,0,1-3.13-2.91S416,469.69,418,470.22Z"/><path class="cls-45" d="M392.74,491s-.84-3.3-3.38-1.81c0,0-2.29,1.9-3,.63,0,0-2.26-1-3,.64C383.3,490.49,387.69,494.92,392.74,491Z"/><path class="cls-46" d="M418.38,509.74a41.81,41.81,0,0,0,7,16.89l-6.88-1.09s2.19-.14-4-14.67Z"/><path class="cls-47" d="M417,512.24s5.82-1.69,2.93-5.68c0,0-2.58-2.47-7.24.25,0,0-3,.64-.38,4.2C412.31,511,414.46,513.72,417,512.24Z"/><path class="cls-48" d="M391.94,491.69s3.21-1.31-1-5.65c0,0-8.89-8.43-11.82-2.74,0,0-1.55,3.17,4.21,7.19C383.3,490.49,387.71,494.16,391.94,491.69Z"/><path class="cls-49" d="M415.21,521.8s-5.69-9.73-7.56-14.88c0,0-6.43-17.81-10.71-26.1,0,0-4.16-10.06-6.6-17.15,0,0-4.35-9.38-.19-12.95,0,0,8.75-.56,6.46-5.47,0,0-2.72-4.65-8.54,3.85a10.38,10.38,0,0,0-1.23,4.7S387,456,385.78,451l-1.48-2.54a9.45,9.45,0,0,1-1-4.55,6,6,0,0,0-4.48-4.76s-3.28.21-3.56,2.65a4.23,4.23,0,0,0,2.05,4.48,2.18,2.18,0,0,0,2.43.28s1.69-1,3,2.22c0,0,3,5.08,1.13,3.88,0,0-4.16-3.25-6.7-1.76,0,0-2.79,1.06-.39,4.2,0,0,2.4,3.14,4.94,1.65,0,0,1.8-2.75,2.54-1.48,0,0,3,5.08,3.6,8.11,0,0,3.57,11,7.53,17.74a110.76,110.76,0,0,1,6,14.11s3.6,14.93,8.9,22l4.38,6.53Z"/><path class="cls-50" d="M388.69,458.57c.12-2.85-.63-6.05,1.46-7.85,0,0,8.75-.56,6.46-5.47,0,0-2.72-4.65-8.54,3.85a10.38,10.38,0,0,0-1.23,4.7S387,456,385.78,451l-1.48-2.54a9.45,9.45,0,0,1-1-4.55,6,6,0,0,0-4.48-4.76s-3.28.21-3.56,2.65a4.23,4.23,0,0,0,2.05,4.48,2.18,2.18,0,0,0,2.43.28s1.69-1,3,2.22c0,0,3,5.08,1.13,3.88,0,0-4.16-3.25-6.7-1.76,0,0-2.79,1.06-.39,4.2,0,0,2.4,3.14,4.94,1.65a8.42,8.42,0,0,1,1-1.22c.54-.52.61-2.84,1-2.2a5.33,5.33,0,0,0,2.93,1.13c.26.54,1.17-4.35,1.31-3.6a18.49,18.49,0,0,1-.67,6.63C387,458.84,388.61,460.71,388.69,458.57Z"/><g id="petal5-2" data-name="petal5"><path class="cls-28" d="M428.77,512.47s-2-14.15,14.53-13c0,0,20.39,2.85,32.08,17,0,0,9.95,11.22,3.36,14.5a6.08,6.08,0,0,0-3.94-1.39s-25.58,1.88-34.54-.83a43.69,43.69,0,0,0-8.57-.1s-6.34,2.28-10.68-.29a4.62,4.62,0,0,1-1.85-6.58Z"/><path class="cls-24" d="M474.66,527.38s3.31-3.07-1.8-4c0,0-20.33-1.76-26.75.86,0,0-3,1.73-.28,2.43,0,0,12,2.08,16.13,1.37,0,0,5.89-.6,7.9-.08C469.86,527.91,473.64,528.55,474.66,527.38Z"/><path class="cls-24" d="M430.66,504.05s11.49-.25,15.13,5c0,0,1.23,2.12-4.16,3.57,0,0-9.62,2.49-12.69-.83,0,0-.67-.17.14-4.62A5.6,5.6,0,0,1,430.66,504.05Z"/><path class="cls-27" d="M473.89,514.78s-4.07,2.37-.51,6.54c0,0,5.51,5.29,7.31,5.09C480.69,526.41,481.29,523,473.89,514.78Z"/></g><g id="petal4-2" data-name="petal4"><path class="cls-28" d="M420.13,524.89s-22.12,1-26.36-3.34a11,11,0,0,0-9.73,5.69s-7.05,13.19-2.25,26.28c0,0,4.81,13.09,8.65,14.82,0,0,3.27,1.21,4.15-2.14a20,20,0,0,1,3.77-6.18s13.61-20.43,17.35-23.75c0,0,7.14-6.73,7.42-9.16S420.13,524.89,420.13,524.89Z"/><path class="cls-27" d="M401.29,554.34s-8.68,8.47-12.84,5.23c0,0-5.94-9.73-7.22-7.77,0,0,4.61,12.65,7.08,14.64,0,0,2,2.82,4.53,1.93,0,0,1.49-.34,2.06-2.93,0,0,1.59-3.76,3.46-5.42C398.36,560,404.6,551.27,401.29,554.34Z"/><path class="cls-24" d="M395.35,522.61s-6.32,8.8-4.13,15.47c0,0,.89,3.46-1.16,5.79,0,0-3.42,4.83,3.43,2,0,0,18.45-5.83,23.93-12a62.6,62.6,0,0,0,5.11-5.82c1.2-1.84-2.49-2.81-2.49-2.81S399.16,526.05,395.35,522.61Z"/></g></g><path class="cls-51" d="M490.86,412.88s-18,31.71-5.28,30.65c0,0,38.05-2.11,40.17-9.51Z"/><g id="topflower-3" data-name="topflower"><polygon class="cls-23" points="541.82 395.99 542.27 405.56 539.54 417.99 517.71 425.4 508.24 392.32 519.77 378.69 535.29 382.84 541.82 395.99"/><g id="petal6-3" data-name="petal6"><path class="cls-24" d="M476.33,362.24a51.21,51.21,0,0,1,7.8,10.35s15.43,27.17,20,29.85l6.07,1.48s8.65-9.62,6-25.08c0,0-4.3-12.67-19-19.44,0,0-10.72-6.06-18.27-1.47C479,357.93,475.17,360.49,476.33,362.24Z"/><path class="cls-25" d="M511.24,394.55s1.6-4.7-3.64-11.24c0,0-4.4-4.28-2.62-5.71,0,0,1.07-2.32,5.84,3.62,0,0,4.4,6.72,3.16,10.65C514,391.87,512.61,396.87,511.24,394.55Z"/><path class="cls-26" d="M496.72,386.17s-14.41-14.32-14.11-19.44,1.83-9.28,7.67-8.09c0,0,16.36,6.41,18.27,13.66,0,0,.24,2.74-3.33.72a51.37,51.37,0,0,1-5.6-5.77s-4.52-3.21-2.5.54c0,0,6,9.34,4.53,10.53,0,0-2.2.3-4.34-2.38,0,0-3-2.5-2.14-.24a24.24,24.24,0,0,0,5.42,7.38s7.32,7.31,7.62,14.39l-3.57,2.85S500.35,390.1,496.72,386.17Z"/><path class="cls-27" d="M488.41,356.43s-7.89,2.21-7.53,6.32c0,0,1.79,5.51,1.16,6.44l-4.25-5.39-1.19-1.28a1.52,1.52,0,0,1,0-2.31S479.86,354.78,488.41,356.43Z"/></g><g id="petal3-3" data-name="petal3"><path class="cls-28" d="M549.74,414s4-1.73,16.07,6.65c0,0,12.86,8.73,15,18.73,0,0,2.39,7.85-3.68,8.8,0,0-1.31-.41-3.39-1.18,0,0-37.78-11.22-42.13-16l1.6-7.14,8.27-8.57Z"/><path class="cls-24" d="M546.83,418.26s7.14,1.6,7.86,4.93c0,0-.42,1.31-4.58-.24,0,0-6-2-7.74-1.12Z"/><path class="cls-25" d="M544.39,418.26s-2.32-1.07-4.75,1.37c0,0-2,3,2.73,2.2l4.46-3.57A14.78,14.78,0,0,1,544.39,418.26Z"/><path class="cls-24" d="M540.89,423s8.74,1.78,7.32,4.87a14.69,14.69,0,0,1-6.19-.41s-4-.71-4,2.26a2.86,2.86,0,0,0,.77,2.8s3.65,2.72,2.16,3.29c0,0-7.39-2.51-9.3-4.89Z"/><path class="cls-25" d="M533.93,424.69s3.27-2.62,7-1.67l-4,3.29a3.54,3.54,0,0,0-2.45,0S533,425.94,533.93,424.69Z"/></g><g id="petal2-3" data-name="petal2"><path class="cls-28" d="M542.67,387.18s14.54-6.36,17.71-5.69c0,0,12.45-2.37,17.62-2.61,0,0,13.8-2.27,19.16,10.52,0,0-.11,1.07-2,.59,0,0-2.91-.59-6.9,3.58,0,0-7.3,9.76-25.74,17.21,0,0-19.39,5.77-22.75,5.78Z"/><path class="cls-24" d="M564.14,381.69s-4.39,5.47-.47,4.28c0,0,13-4.53,17,3a4.37,4.37,0,0,1-2.32,6.25s-7.73,1.32-10.17,1.32c0,0-16.83,5.19-11.53,8.75,0,0,16.11-3.64,17.72-1,0,0,.62,1.17-6.45,4.17,0,0-11.51,5.58-19,6.2l-7-8.54.69-18.61A81.37,81.37,0,0,1,553.71,383C560.66,381.3,567.88,379.62,564.14,381.69Z"/><path class="cls-29" d="M546.28,391.37a5.91,5.91,0,0,0,4.34-2.5s3-5.36,6-2.86a3,3,0,0,1,.07,4.34,7,7,0,0,1-5.3,1.31s-1.25-1-3.68,1.49Z"/><path class="cls-25" d="M546.63,390.59s3.39,1.19,2.33,3.51c0,0-1.43,3.1.95,3.63,0,0,4,.71,2.32,3.51a8,8,0,0,1-3.56,2.86l-7-.24.55-11.56Z"/></g><g id="petal1-3" data-name="petal1"><path class="cls-28" d="M516.72,384.44a14.64,14.64,0,0,0,.19-4.44,5,5,0,0,1,.36-3.21s7.23-23.86,15.85-35.65c0,0,4.46-6,7.61-5.12,0,0,1.79,1,2.92.59,0,0,2.44,0,4.64,4.58,0,0,5.07,13,2.1,22.72,0,0-2.6,26-10,24.1Z"/><path class="cls-24" d="M528.52,350.93s-2.91,6.73.54,4.94c0,0,3.86-.66,2.38.53,0,0-.54,2.38,1.84.48,0,0,3.8-7.44,6.54-5.24a10.23,10.23,0,0,1,3.87,9.1s-1.24,6.36,1.79,5.88c0,0,3.3,0,3.86,4.56,0,0-1.64,12.2-5.39,15.45l-10.14.39-17.1-2.71s.95-3.69.23-4.58c0,0-.4-.8,1.2-5.66C518.14,374.07,528,346,528.52,350.93Z"/><path class="cls-29" d="M531.46,383.23s4.81-6.78,5.23-8.09c0,0,1.6-4.7,2.79-.78,0,0,1.26,8.27-1.24,11.24l-9,3.34A8.5,8.5,0,0,1,531.46,383.23Z"/><path class="cls-29" d="M523.48,376.93s4.4-10.35,8.33-6.67c0,0,2,1.84-1.78,8.75,0,0-2.14,4.64-1.49,6.07l-3.57-2Z"/><path class="cls-29" d="M523.41,359.77s2.26,2.23-.23,7.64c0,0-5.29,8.63-3.38,11,0,0,3.45.65,3,2.5l-5.85,2.42s.44-2.48,0-3.34a8.11,8.11,0,0,1,.11-2.45S521.92,362.78,523.41,359.77Z"/></g><path class="cls-30" d="M516.62,382.05s-3.78,2.82-2.5,7.21l-2.68,2.15s-2.88-6.91-4.73-5c0,0-.89.72,1.26,3.39,0,0,3.75,5.29,3.16,8.21l-1.55,1.72s-1.07-5-3.45-3.09c0,0-3.87,3.1-2,5.48,0,0,3.69,5.82,3.28,9.57l3.57,2,9.56-25.23Z"/><path class="cls-31" d="M541.61,389.5s5.29-1.31,3.92,1.24l-1.18,3.4-5.48,2.92-2.55-1.37,1.66-5.24Z"/><path class="cls-32" d="M506.55,410l1.87-2.75a7.39,7.39,0,0,0-1.34-4.51c-2.14-2.67,1.55.71,2,1.84s1.07-2.32,1.07-2.32-.9-1.72.29-2.67.43-4.21.43-4.21a4.66,4.66,0,0,0,.39-3.47c-.59-1.78,3-1.55,3-1.55s-.63-2.62,1.09-3.51a9.19,9.19,0,0,1,3.09-1s3.89-1.7,4,1.67c0,0,0,6.36-1.46,7.55a6.47,6.47,0,0,1-2,.59l-.17,5.45s.17,1.87,2.19-1.7c0,0,2.73-5.12,2.67-7,0,0-.89-4.17.59-5.36,0,0,2.8-3.21,4.26-1.7,0,0,5.47,4.4,2.08,8.09,0,0-3.5,2.33-2.91,4.29a9.29,9.29,0,0,1-.89,3.15s-.83,2.62,3-2.38c0,0,4.94-7.86,6.78-9.82,0,0,4.58.23,2.5,4.34,0,0-2.56,3.51,1.13,2,0,0,2.92-1.84,3-.48L531.76,406s1.83,2.14.28,3.87c0,0-.47,1.84,1.49-1.19a14.58,14.58,0,0,1,4.28-4.41s1.25-.88-.3-3.11l2-2.12s3.82,1.67,3.13,4.49l1.16.86s-1.55-3.15.47-4.29c0,0,3.39-1.25,3.63,1.49l-2.55,3.51-4.67,3.74s-2.23,2.27-3.9,2.63c0,0-2.2.3-2.37,1.91,0,0-8.15,5.06-9,7.95,0,0,5.59-4,6.84-5.48,0,0,8-6.43,11.71-7.92,0,0,6.37,1.24,6.31,4.22A2.17,2.17,0,0,1,548,413.9l-3.31,1.68a8.59,8.59,0,0,1-3,2.92s-2.8.77-2.74,2.68l2.14.23s.72.89-2.73,2.68c0,0-2.62-.83-4.1.36l-2.5,5.42a3.1,3.1,0,0,1-4-.71s-3.57.42-4.76-1.07l-16-9.49S507.21,411.45,506.55,410Z"/><path class="cls-33" d="M506.86,419.54s.82-9.94,5-10.83c0,0,1.78,1,.65,3.86,0,0-.53,2.38,3.39-1.25,0,0,5.06-4.05,6.54-7.68,0,0,1.67-2.8,2-.6,0,0,.13,3.81-1.66,5.24,0,0-7.25,11.67-3.14,8.87,0,0,5.64-7,6.77-4.95,0,0,.84,4.7-2.43,7.32,0,0-3.09,3.45,5.06-1.61,0,0-5.29,8.63-2.73,12.44l-12.49-2.19Z"/><path class="cls-34" d="M533.17,426.74s3.73-2,4.09-.33a1.66,1.66,0,0,1-.65,1s-.6.48.12,1.37c0,0,.71.89-1.31,2,0,0-2,1.13-3.27.18,0,0-.24-2.74-2.09-3.21,0,0-4.44.5-5,1.29a3.19,3.19,0,0,1-2-1s4.46-1.13,6.3-3.1c0,0,2.85-1.31,3.57-.42,0,0-.66,1-2.86,1.31,0,0-2.26.84-.89.72,0,0,2.5-.54,3,0Z"/><path class="cls-35" d="M544.8,407.19s2.09,5.65-.11,8.39l3.27-.18s.41-6.19-1.26-8.27Z"/><path class="cls-34" d="M543.68,414.93s5.29-1.32,6.3-.66c0,0,.48.59-1,1.25,0,0-2.26.83-2.91,1.84,0,0-.66,1-1.91.06,0,0-.65-1.42-1.72-1.54,0,0-2.5.54-2.68-.3Z"/><path class="cls-36" d="M530.66,432.19s.83-9.94,2.73-14.88l1.41,3.4s-.15,9.75-2.29,12Z"/><path class="cls-37" d="M503.34,402.35s11.59-6.85,13-9.41l-1.25,3.93s-9.57,5.71-8.38,9.64l-2.08-.77Z"/><path class="cls-38" d="M523.48,379.37s-7.49,4.05-6.35,8.51c0,0-.42,3.75-1.31,4.46l2.32,1.07s.59-5.35,1-6.66c0,0,.23-2.14,4.52-4.11Z"/><path class="cls-39" d="M522.39,386.84s1.54-4.17-.6-6.84c0,0-1.25-3.39.77-4.53,0,0,2.67-2.14,5.12,2.74,0,0,2.14,7.55-2.43,9.75C525.25,388,521.91,388.68,522.39,386.84Z"/><path class="cls-40" d="M532.39,392s-2.21-2.14,2.25-5.71c0,0,6.19-4.46,8.57-1.49,0,0,3.39,3.62-1.43,5.53a44.31,44.31,0,0,0-7,2.47S532.77,393.4,532.39,392Z"/><path class="cls-41" d="M533,418.62a9.67,9.67,0,0,0-2.14-2.67s-2.14-.24.53-2.38c0,0,3.69-3.93,6.84,1.84,0,0,1.79,3.45-2.49,5.41A2.22,2.22,0,0,1,533,418.62Z"/><path class="cls-42" d="M512.28,394.93s-3-4.93,1.07-4.76c0,0,4.4-.59,6.49,5.06,0,0,1,5.53-2.08,6.54,0,0-2.76.51-2.65-3A6.43,6.43,0,0,0,512.28,394.93Z"/><path class="cls-43" d="M539.37,390.07s-5.11-.3-4.4-1.85c0,0,.66-1,4.22-1.43,0,0,2-.59-.89-1.72,0,0-1.88-.19-4.87,2.32a3.89,3.89,0,0,0-1,4.35s1.27,2,3.81.38C536.23,392.12,542.05,390.36,539.37,390.07Z"/><path class="cls-44" d="M526.4,384.84s-1.87-.26-2.78-3c0,0-.82-1.55-.86.27a8.61,8.61,0,0,1-.4,5s-.38,1.39,1.27,1a3.63,3.63,0,0,0,3.08-1.23S528,385,526.4,384.84Z"/><path class="cls-45" d="M538.93,407s1.53-2.15,3-.37c0,0,1.13,2,2,1.31,0,0,1.9-.06,2,1.3A5.53,5.53,0,0,1,538.93,407Z"/><path class="cls-46" d="M515.12,413.4a32.52,32.52,0,0,1-9.8,10.3l5.29,1.13s-1.55-.72,7-9.53Z"/><path class="cls-47" d="M515.42,415.6s-3.75-2.85-.54-4.93c0,0,2.56-1.08,5.18,2.19,0,0,2,1.31-.89,3.16C519.17,416,516.85,417.39,515.42,415.6Z"/><path class="cls-48" d="M539.33,407.67s-2-1.84,2.32-3.81c0,0,8.8-3.63,9.34,1.31,0,0,.24,2.73-5.06,4C545.93,409.21,541.71,410.65,539.33,407.67Z"/><path class="cls-49" d="M514.06,423s6.84-5.48,9.63-8.69c0,0,9.63-11.13,15-16,0,0,5.82-6.13,9.57-10.59,0,0,5.76-5.6,3.74-9.34,0,0-6.19-2.85-3.16-5.77,0,0,3.27-2.62,5.12,5.17a8,8,0,0,1-.41,3.75s-.72,1.54,1.54-1.73l1.78-1.43a7.3,7.3,0,0,0,2-3,4.65,4.65,0,0,1,4.58-2.21s2.32,1.07,1.85,2.92a3.29,3.29,0,0,1-2.73,2.67,1.71,1.71,0,0,1-1.85-.47s-1-1.19-2.79.78c0,0-3.57,2.85-1.91,2.5,0,0,3.93-1.2,5.36.59,0,0,1.72,1.54-.89,3.15,0,0-2.62,1.61-4-.18,0,0-.53-2.49-1.43-1.78a29.74,29.74,0,0,0-4.87,4.88s-5.65,7-10.4,10.78a84.82,84.82,0,0,0-8.26,8.57s-6.78,9.82-12.6,13.51l-5,3.52Z"/><path class="cls-50" d="M550.91,384.56c.71-2.11,2.14-4.22,1.13-6.1,0,0-6.19-2.85-3.16-5.77,0,0,3.27-2.62,5.12,5.17a8,8,0,0,1-.41,3.75s-.72,1.54,1.54-1.73l1.78-1.43a7.3,7.3,0,0,0,2-3,4.65,4.65,0,0,1,4.58-2.21s2.32,1.07,1.85,2.92a3.29,3.29,0,0,1-2.73,2.67,1.71,1.71,0,0,1-1.85-.47s-1-1.19-2.79.78c0,0-3.57,2.85-1.91,2.5,0,0,3.93-1.2,5.36.59,0,0,1.72,1.54-.89,3.15,0,0-2.62,1.61-4-.18a6.22,6.22,0,0,0-.38-1.16c-.24-.53.35-2.23-.09-1.87a4.07,4.07,0,0,1-2.44,0c-.34.33.36-3.48.05-3a14.25,14.25,0,0,0-1.36,5C552.1,385.24,550.38,386.13,550.91,384.56Z"/><g id="petal5-3" data-name="petal5"><path class="cls-28" d="M506.82,412.49s5.41-9.7-6.91-13.5c0,0-15.58-3.62-28,3.41,0,0-10.35,5.36-6.48,9.58a4.73,4.73,0,0,1,3.24.09s18,8.49,25.29,9a33.8,33.8,0,0,1,6.25,2.32s4,3.41,7.82,2.76a3.59,3.59,0,0,0,3.18-4.26Z"/><path class="cls-24" d="M469.38,410.52s-1.55-3.15,2.43-2.44c0,0,15.23,4.39,19.16,8.08,0,0,1.67,2.08-.47,1.84,0,0-9.28-1.84-12.08-3.5,0,0-4.11-2.08-5.71-2.26C472.71,412.24,469.79,411.65,469.38,410.52Z"/><path class="cls-24" d="M507.79,405.85s-8.26-3.38-12.36-.58c0,0-1.49,1.19,2,3.74,0,0,6.28,4.49,9.43,2.94,0,0,.54.06,1.19-3.39A4.35,4.35,0,0,0,507.79,405.85Z"/><path class="cls-27" d="M473.44,401.59s2.3,2.86-1.45,4.89c0,0-5.47,2.3-6.72,1.66C465.27,408.14,465.8,405.46,473.44,401.59Z"/></g><g id="petal4-3" data-name="petal4"><path class="cls-28" d="M509.63,423.91s15.77,6.88,20,4.92a8.57,8.57,0,0,1,5.48,6.83s1.43,11.54-5.7,19.7c0,0-7.13,8.15-10.4,8.33a2.35,2.35,0,0,1-2.41-2.7,15.7,15.7,0,0,0-1-5.53s-4.18-18.62-6-22.07c0,0-3.31-6.86-2.84-8.71S509.63,423.91,509.63,423.91Z"/><path class="cls-27" d="M515.09,450.52s3.93,8.56,7.86,7.37c0,0,7-5.4,7.4-3.63,0,0-6.87,7.9-9.21,8.65,0,0-2.27,1.48-3.83.14,0,0-1-.66-.68-2.7a14.63,14.63,0,0,0-1-4.89S513.54,447.37,515.09,450.52Z"/><path class="cls-24" d="M528.24,429.16s2.13,8.14-1.32,12.37a5.45,5.45,0,0,0-.77,4.52s1.14,4.46-3,.48c0,0-11.77-9.37-14-15.37a47.87,47.87,0,0,1-2.09-5.65c-.36-1.66,2.59-1.34,2.59-1.34S524.52,430.59,528.24,429.16Z"/></g></g></g></svg>