<svg xmlns="http://www.w3.org/2000/svg" viewBox="0 0 864 864">
    <defs>
        <style>
            .stenaria1{fill:#2a4024;}.stenaria2{fill:#4c750e;}.stenaria12,.stenaria16,.stenaria3{fill:none;stroke-linecap:round;stroke-miterlimit:10;}.stenaria3{stroke:#86b81e;stroke-width:8px;}.stenaria4{fill:#e1e5e8;}.stenaria5{fill:#c8cbc6;}.stenaria6{fill:#c1c2c1;}.stenaria7{fill:#e8e9e9;}.stenaria8{fill:#d5dada;}.stenaria9{fill:#afb498;}.stenaria10{fill:#a7ac95;}.stenaria11{fill:#bac293;}.stenaria12{stroke:#dee1d0;}.stenaria13{fill:#e5e7e8;}.stenaria14{fill:#dadcd7;}.stenaria15{fill:#c4c8cc;}.stenaria16{stroke:#c7cf9a;stroke-width:3px;}.stenaria17{fill:#c8ccc7;}.stenaria18{fill:#e6e9ec;}.stenaria19{fill:#ccd5dd;}.stenaria20{fill:#e4eae9;}.stenaria21{fill:#ced2d2;}.stenaria22{fill:#bcbfbd;}.stenaria23{fill:#e8ecec;}.stenaria24{fill:#d3dde8;}.stenaria25{fill:#e5e8ec;}.stenaria26{fill:#e6e9e9;}.stenaria27{fill:#dddee2;}.stenaria28{fill:#ebeddd;}.stenaria29{fill:#e0e4ea;}.stenaria30{fill:#e9f4e8;}.stenaria31{fill:#e2e8e7;}.stenaria32{fill:#d5d6d6;}.stenaria33{fill:#ced1c9;}.stenaria34{fill:#f0f3f0;}.stenaria35{fill:#e6e7e5;}
        </style>
    </defs>
        <title>rubiaceae</title>
            <g id="catesbaea"><g id="flower"><circle class="stenaria1" cx="432" cy="432" r="432"/><path class="stenaria2" d="M655.42,340.34s.89-62.83,5.55-72.3c0,0-20.75,14.14-10.67,62.08Z"/><path class="stenaria2" d="M663.23,340.94s-17-34.72-40.29-38.47c0,0-9.77-.75-8.41,7.22C614.53,309.69,645.34,318,663.23,340.94Z"/><path class="stenaria2" d="M649.55,339.89s33.37.6,38-8.87c0,0,12.48-8.87,7.37,6.46,0,0-6.76,11.28-34,7.22C661,344.7,635.88,338.84,649.55,339.89Z"/><path class="stenaria2" d="M399.76,508.44s-54.65,54.81-95.19,53.64C304.57,562.08,376.92,524.37,399.76,508.44Z"/><path class="stenaria2" d="M311.38,573.81s31.53-109-3.15-161.39c0,0-7.47-6.63-1.49,20.78,0,0,9.34,65.17,1.08,128.63Z"/><path class="stenaria2" d="M364.21,268.67s-13.95-75.58-1.78-106.1h0S381.3,226.56,364.21,268.67Z"/><path class="stenaria2" d="M397.61,241.93s9.32-18.94,14.58-10.67c0,0,5.41,6.31-19.23,20.14,0,0-20.59,12.18-28.41,11.58C364.55,263,393.11,249.45,397.61,241.93Z"/><path class="stenaria2" d="M469.81,177.59s57.36-10.23,64-45.11c0,0,.3-3.91-12.63,10.83,0,0-32.39,26.53-45.65,25.74Z"/><path class="stenaria2" d="M467.92,182.51s-26-31.52-23.58-62.79h0s28.12,43.44,25.41,53.06Z"/><path class="stenaria2" d="M329.08,338.91s-.3-19.7-9.92-22.41c0,0-24.05-19.54-26.16-43.28,0,0-3.31-8.12-5.11-10.22,0,0-3.94,48.95,15.7,63.18Z"/><path class="stenaria2" d="M270.32,338.31s-23.45-1.8-20.59,12.17c0,0,5.41,6.32,17.58,1.35,0,0,38.48-14.73,54.11-13.53C321.42,338.3,357.05,335.13,270.32,338.31Z"/><path class="stenaria2" d="M328.43,577s-7.27-4.82-35.52,30.36a53.5,53.5,0,0,1-24.2,8s-33.67,3.31-34.27,11.13c0,0,1.65,4.06,31.57-1.51,0,0,29.61-1.66,46.89-22C312.9,603,333.89,579.72,328.43,577Z"/><path class="stenaria2" d="M567.1,407.49s-23.36-46.23-50.72-48.33h0s-10.07,3.15,10.53,16.53c0,0,38.17,24.57,39.76,37.46Z"/><g id="stem-2" data-name="stem"><path class="stenaria3" d="M285,197.91s58.33,59.51,79.53,65.07c0,0,27.17,57.77,36.69,105.34a175.5,175.5,0,0,1,2.86,19.57S425.61,491.75,432.23,508c0,0,16.71,115.29,12,150.31L448.52,808"/><path class="stenaria3" d="M386.18,173.24S419.41,226.9,429,229.6c17.39,4.89,53.19-78.47,53.19-78.47"/><path class="stenaria3" d="M592.58,301.12S573.21,425.43,540,474s-71.08,132.14-71.08,132.14-20.8,51.72-24.52,56.22"/><path class="stenaria3" d="M433.13,509s42.83-45.85,45.08-75.16c0,0-15.63-26.75-16.39-42.54"/><path class="stenaria3" d="M499,368.63s-10.67,62.08-20.74,65.24"/><path class="stenaria3" d="M292.41,319.36S373,370.75,400.64,369L429,229.6,425.1,127.09"/><path class="stenaria3" d="M288.24,527.39S314,576.54,341,582.55c0,0,72.16,33.06,103.28,75.74"/></g><path class="stenaria3" d="M668.25,318.63s-1.41,26.52-38.68,51.18L567.2,414.16"/><g id="flower_3-2" data-name="flower 3"><path class="stenaria4" d="M452.43,384.64s-10.37-2.73-.79-26.42c0,0,5.53-20.11,14.52-24.81,0,0,3.87.87,4.13,9.67,0,0-1,21.55.1,25.86,0,0,.58,11.93-7.09,17.12A19.12,19.12,0,0,1,452.43,384.64Z"/><path class="stenaria5" d="M462.19,393.74s-1.62-7.91-6.3-2.13c0,0-3.94,7,1.68,6.39C457.57,398,465.13,397.86,462.19,393.74Z"/><path class="stenaria6" d="M452.68,380.83s-1-10,3.91-11.12c0,0,2.63,1,.7,6.87,0,0-1.3,5.81,2.06,1.68,0,0,3.87-5.44,5.5-1.82,0,0,.91,9-3,10.53l-7.94-.58Z"/><path class="stenaria7" d="M402.8,377.37s-1.38-7.43,11.73-8.76c0,0,26.79-3.34,36.05,7.07,0,0,9.25,10.42,6.27,18.29,0,0-.24,10.12-13.74,1.39,0,0-7.69-7.42-24-12.7,0,0-7.38-4.3-13.49-2.42C405.62,380.24,402.75,383.06,402.8,377.37Z"/><path class="stenaria8" d="M438.2,371.89s-4.23,8,2.52,12.36c0,0,8.18-.2,9.19,3.49,0,0-.58,11.55,4,11,0,0,6.37-2.54.75-17.14C454.68,381.61,447.88,367.75,438.2,371.89Z"/><path class="stenaria9" d="M454.58,384.11s-5.07-3.23-4.33,5.51c0,0,1.25,7.57,5.64,7.36C455.89,397,458.65,386.85,454.58,384.11Z"/><path class="stenaria10" d="M456.85,394s3.81.24,5.11-5.57c0,0-.07-6.93-4.94-5.17,0,0-1.16.61.24,5.27Z"/><path class="stenaria11" d="M455,394.78s.49-7.61-2.7-7.92c0,0-3.18-.31-.24,3.81C452.1,390.67,453.23,395.6,455,394.78Z"/><path class="stenaria12" d="M456.67,398.4s-.58-11.92-4.28-17.23c0,0-1.5-2.37-.82-8.11"/><path class="stenaria13" d="M460.66,394.21s-3.26-7.23,5.47-14.43c0,0,10.05-6.7,24.61,0,0,0,19.12,8.15,20.38,14.33,0,0,1.63,3.62-1.56,3.31,0,0-12.55.65-19.61-.53a19.74,19.74,0,0,0-8.18.2S467.23,403,461,398Z"/><path class="stenaria14" d="M465.14,382.4s4.74-3,7.81,2.37c0,0,.12,1.25-3.62,1.63,0,0-4.31,1.06,2.81,2.86,0,0,3.25.94,3.68-1,0,0,5.31-3.69.32,3.12,0,0-2.74,4.07-7.11,4.51,0,0-3.63,1.56,4.15,3.64A18.37,18.37,0,0,1,461,398s-2.41-6.76.13-12A8.86,8.86,0,0,1,465.14,382.4Z"/><path class="stenaria15" d="M510.7,393a21.71,21.71,0,0,0-17.52-7.75s-3.12.31,4.06,2.74c0,0,10.5,4,6,3.18,0,0-11.62-2.61-11.36-.11,0,0-.44,1.93,4.62,2.05,0,0,10.15,1.57,2.62,4.5,0,0,7.32.17,10.44-.15C509.56,397.45,512.78,397.9,510.7,393Z"/><path class="stenaria12" d="M460.82,377.17s.37,12.62-5.05,13.78"/><path class="stenaria16" d="M447.31,362.13s6,10.26,4.29,14.78"/><path class="stenaria16" d="M467.8,365.1s-7.61,5.82-6.1,14.5"/><path class="stenaria17" d="M462,388.4s2.37-1.5,1.69,4.25c0,0-.31,3.18,1.63,3.62,0,0,4.16,2.92,2.61,3.61,0,0-4.79-.24-6.85-1.92C461,398,458.34,390,462,388.4Z"/><path class="stenaria18" d="M448.11,394.86s-7.81-2.36-6.86,7c0,0,.89,15.05-.17,17.05,0,0-.93,3.25.46,10.68,0,0,.82,8.12,3.32,7.86,0,0,4.68-3.62,7.6-12.12,0,0,3.42-9.81,6.35-12,0,0,8-8.38,6.79-13.94C465.6,399.39,460.66,394.21,448.11,394.86Z"/><path class="stenaria5" d="M447,414.53s-4.24,8-3.79,12.37c0,0,0,6.31-.67,6.06,0,0,.12,7.25,3.54-2.56,0,0,.12-5.06,1.8-7.13a15.26,15.26,0,0,0,.43-8.24S448,412.53,447,414.53Z"/><path class="stenaria19" d="M462.92,398.42s-8.8,12.23-8.35,16.6c0,0,1,3.68-2.11,10.31,0,0,3.36-9.05,4.86-10.53,0,0,9.66-8,8.28-15.41C465.6,399.39,463.92,396.44,462.92,398.42Z"/></g><g id="flower_2-2" data-name="flower 2"><path class="stenaria20" d="M681.59,288.44s.07-3.78-4.48-4.54c0,0-3.43-1.4-6.76,3.89,0,0-11.93,12.47-8.68,23.34,0,0,5.84,15.38,14.55,2.5C676.22,313.63,683,300.72,681.59,288.44Z"/><path class="stenaria21" d="M662,301.7s5.6-8.95,10.16-8.2a6.76,6.76,0,0,1-.11,5.68s-3,5.85-.55,5.56c0,0,2-.41,3.73-8.51,0,0,2.24-4.91,3.62.6,0,0,1.63,4.15,1.19,6.89,0,0-4,16.09-11.77,14.91C668.25,318.63,658.65,314.6,662,301.7Z"/><path class="stenaria22" d="M670.62,315s4.9-5.82,4.56-11.62"/><path class="stenaria22" d="M664.68,312.31s-.85-8.68,4-10.22c0,0,2.17-.37,2.18,4.87,0,0,.15,2.42,2.24-4.16,0,0,2-2.78,2.06.56,0,0,1.19,7.94-2.62,12.38C672.56,315.74,667.83,318.27,664.68,312.31Z"/><path class="stenaria23" d="M664.68,307.9s-3.57-11.43-18.77-15.06c0,0-11.8-2.34-15.43,5.06,0,0-2.6,2.68,8.32,2.77a26.27,26.27,0,0,1,20.66,15.1s6,5.91,9,.06Z"/><path class="stenaria24" d="M666.63,312.13s-3.1-14.06-20.82-13.61c0,0-4.51.29.83,4.55,0,0,8.13,1.72,13.68,13.43,0,0,3.64,4.11,6.79.65C667.11,317.15,667.85,313.78,666.63,312.13Z"/><path class="stenaria22" d="M655.82,308.12s2.2-4.63,7.24,3.15c0,0,4.52,5.56,3.05,6.92,0,0-4.82,1.4-6.65-2.42C659.46,315.77,655.34,309.9,655.82,308.12Z"/><path class="stenaria25" d="M707.07,326.24s-1.36-10.83-21.08-17.1c0,0-11.64-2.67-14.84,7.41,0,0-2.24,6.53,12.86,3.47,0,0,12.24.45,19.15,6.6C703.16,326.62,707.85,332.16,707.07,326.24Z"/><path class="stenaria26" d="M658.71,320.32l-2.63,9.76s-1.64,4.31,2.3,2.05l11-8.93s8-3.08,6.68-5.34c0,0-4.62-9.33-15.52-4.19C660.51,313.67,659.14,315.21,658.71,320.32Z"/><path class="stenaria12" d="M669.82,316.19s1.51-9.11,6.86-9.57c0,0,4.35-.25,3.84,3.42"/><path class="stenaria12" d="M666.27,315.23s5.18-8.59,4.43-16.41"/><path class="stenaria16" d="M668.39,291.54s4,4.42,1.71,9.5"/><path class="stenaria16" d="M683.17,293.15s-9.25,6.07-7.46,11.78"/><path class="stenaria12" d="M665.62,314.1s3.73-8.51,1.87-10.44"/><path class="stenaria27" d="M678.82,309.27s8.67.51,7,4.82a6.46,6.46,0,0,1-5.28,1.91s-5.8.34-3.05,2.5c0,0,6,.67,6.65,1.8,0,0-8.78,1.48-11.89-.57,0,0-3.63-3,1.64-7.82A8,8,0,0,1,678.82,309.27Z"/><circle class="stenaria28" cx="667.17" cy="303.1" r="1.84"/><ellipse class="stenaria28" cx="681.12" cy="310.44" rx="2.07" ry="1.61" transform="translate(203.85 887.08) rotate(-74.89)"/><path class="stenaria29" d="M663.11,314s-2.83,5.79,4.95,6.93a13.52,13.52,0,0,0,7-.85s3.32-1.89-1.7-5.48C673.37,314.61,666.59,309.35,663.11,314Z"/></g><g id="flower_1-2" data-name="flower 1"><path class="stenaria30" d="M385.52,93.33s-1.09-2.85,2.21-3.11a6.25,6.25,0,0,1,5.87.52s15.86,12.82,13,17.56l4.42,9.89-14.13,4.54-1.25-8.25s-2.73-.81-4.67-6.87Z"/><path class="stenaria31" d="M427.23,95.36s10.27,3.12,9.14,5.44c0,0,.55,1.43-6.5,1.11,0,0-10.35-.06-16.46,15.88l-4.08,6.47s-5.65-11.81-.95-19.91C408.38,104.35,412.79,94.47,427.23,95.36Z"/><path class="stenaria32" d="M406.62,108.3s7.22-9.44,9.75-3.48c0,0,.16,5.83-1.4,9.4,0,0-3.82,8.21-5.64,10C409.33,124.26,405.26,114.61,406.62,108.3Z"/><path class="stenaria33" d="M395.5,114.45s-7.39-13-5.18-16.16c0,0,1.92-1.23,9.9,11.71,0,0,4.49,3.19-3-8.92,0,0-1.89-3.94,1.27-3.26,0,0,7.41,4.22,8.17,10.48l4.67,9.55-14.73,4.63Z"/><path class="stenaria34" d="M393.57,113.86S379,112.38,371.4,131.93c0,0-.43,4.64,3.7.28,0,0,9.72-10.78,20.48-8.35,0,0,4.19,1.42,4.68.73l6.06-1.94A23,23,0,0,0,393.57,113.86Z"/><path class="stenaria12" d="M405.9,120.8a104,104,0,0,0-12.6-13.89"/><path class="stenaria12" d="M409.37,120.91s-7.08-11.27-9-17.32"/><path class="stenaria12" d="M411,122s.48-6.53-8.45-15.08"/><path class="stenaria12" d="M406.57,122.3s-9-5.61-12.3-10.15"/><path class="stenaria16" d="M383.44,104.33s9.6-.1,12,4.51"/><path class="stenaria16" d="M398.45,97.82s-1.66,4.55,4.26,7.19"/><path class="stenaria35" d="M401.6,127.1s6.36,12.3,11.79,15.64c0,0,3,1.61,2.41-1.93,0,0-2.95-12-2.47-16.31,0,0,1.39-11.5-4.61-7.43,0,0-9,4.56-8.7,7.86A6.54,6.54,0,0,1,401.6,127.1Z"/></g><g id="flower_1-3" data-name="flower 1"><path class="stenaria30" d="M284.67,152.42s-1.09-2.85,2.21-3.11a6.25,6.25,0,0,1,5.87.52s15.86,12.82,13,17.56l4.42,9.89-14.13,4.54-1.25-8.25s-2.73-.81-4.67-6.87Z"/><path class="stenaria31" d="M326.38,154.45s10.27,3.12,9.14,5.44c0,0,.55,1.43-6.5,1.11,0,0-10.35-.06-16.46,15.88l-4.07,6.47s-5.66-11.81-1-19.91C307.53,163.44,311.94,153.56,326.38,154.45Z"/><path class="stenaria32" d="M305.77,167.39s7.22-9.44,9.75-3.49c0,0,.16,5.84-1.4,9.41,0,0-3.82,8.21-5.63,10C308.49,183.35,304.41,173.7,305.77,167.39Z"/><path class="stenaria33" d="M294.65,173.54s-7.39-13-5.18-16.16c0,0,1.92-1.23,9.9,11.71,0,0,4.49,3.19-3-8.92,0,0-1.89-3.94,1.27-3.26,0,0,7.41,4.22,8.17,10.48l4.67,9.55-14.73,4.63Z"/><path class="stenaria34" d="M292.72,173s-14.54-1.48-22.17,18.07c0,0-.43,4.64,3.7.28,0,0,9.72-10.78,20.48-8.35,0,0,4.19,1.42,4.69.73l6.05-1.94A23,23,0,0,0,292.72,173Z"/><path class="stenaria12" d="M305.05,179.89A104.39,104.39,0,0,0,292.46,166"/><path class="stenaria12" d="M308.52,180s-7.08-11.27-9-17.32"/><path class="stenaria12" d="M310.19,181.06s.48-6.53-8.45-15.08"/><path class="stenaria12" d="M305.72,181.39s-9-5.61-12.3-10.15"/><path class="stenaria16" d="M282.59,163.42s9.6-.1,12,4.51"/><path class="stenaria16" d="M297.6,156.91s-1.66,4.55,4.27,7.19"/><path class="stenaria35" d="M300.75,186.19s6.36,12.3,11.79,15.64c0,0,3,1.61,2.41-1.93,0,0-2.95-12-2.47-16.31,0,0,1.39-11.5-4.61-7.43,0,0-9,4.56-8.7,7.86A6.54,6.54,0,0,1,300.75,186.19Z"/></g><g id="flower_1-4" data-name="flower 1"><path class="stenaria30" d="M242.29,192.41s-1.1-2.85,2.21-3.11a6.25,6.25,0,0,1,5.87.52s15.86,12.82,13,17.56l4.42,9.89-14.13,4.54-1.25-8.25s-2.73-.81-4.67-6.87Z"/><path class="stenaria31" d="M284,194.44s10.27,3.12,9.14,5.44c0,0,.55,1.43-6.5,1.11,0,0-10.36-.06-16.47,15.88l-4.07,6.47s-5.65-11.81-1-19.91C265.15,203.43,269.56,193.55,284,194.44Z"/><path class="stenaria32" d="M263.39,207.38s7.22-9.44,9.75-3.48c0,0,.16,5.83-1.4,9.4,0,0-3.82,8.21-5.64,10C266.1,223.34,262,213.69,263.39,207.38Z"/><path class="stenaria33" d="M252.27,213.53s-7.39-13-5.18-16.16c0,0,1.92-1.23,9.9,11.71,0,0,4.49,3.19-3-8.92,0,0-1.89-3.94,1.27-3.26,0,0,7.41,4.22,8.17,10.48l4.67,9.55-14.73,4.63Z"/><path class="stenaria34" d="M250.34,212.94s-14.55-1.48-22.17,18.07c0,0-.43,4.64,3.7.28,0,0,9.72-10.78,20.48-8.35,0,0,4.19,1.42,4.68.73l6.06-1.94A23,23,0,0,0,250.34,212.94Z"/><path class="stenaria12" d="M262.67,219.88A104,104,0,0,0,250.07,206"/><path class="stenaria12" d="M266.14,220s-7.08-11.27-9-17.32"/><path class="stenaria12" d="M267.81,221.05s.48-6.53-8.45-15.08"/><path class="stenaria12" d="M263.34,221.38s-9-5.61-12.3-10.15"/><path class="stenaria16" d="M240.21,203.41s9.6-.1,12,4.51"/><path class="stenaria16" d="M255.22,196.9s-1.66,4.55,4.26,7.19"/><path class="stenaria35" d="M258.37,226.18s6.35,12.3,11.79,15.64c0,0,3,1.61,2.41-1.93,0,0-2.95-12-2.47-16.31,0,0,1.39-11.5-4.61-7.43,0,0-9,4.56-8.7,7.86A6.54,6.54,0,0,1,258.37,226.18Z"/></g><g id="flower_1-5" data-name="flower 1"><path class="stenaria30" d="M616.32,276.7s1.18-3.54-2.85-3.67a7.61,7.61,0,0,0-7.12,1s-18.63,16.46-14.91,22.08l-4.84,12.29,17.45,4.75,1.07-10.1s3.28-1.14,5.32-8.62Z"/><path class="stenaria31" d="M565.64,281.43s-12.33,4.36-10.83,7.12c0,0-.59,1.77,8,1,0,0,12.6-.64,20.91,18.44l5.3,7.66s6.25-14.69.08-24.3C589.08,291.35,583.19,279.56,565.64,281.43Z"/><path class="stenaria32" d="M591.44,296.06s-9.29-11.1-12.06-3.71c0,0,.12,7.11,2.22,11.38,0,0,5.09,9.79,7.4,11.92C589,315.65,593.44,303.68,591.44,296.06Z"/><path class="stenaria33" d="M605.32,303s8.29-16.28,5.43-19.95c0,0-2.4-1.4-11.42,14.78,0,0-5.3,4.13,3.22-11,0,0,2.08-4.9-1.73-3.9,0,0-8.79,5.53-9.38,13.19l-5.16,11.88,18.18,4.85Z"/><path class="stenaria34" d="M607.63,302.13s17.63-2.59,28,20.8c0,0,.77,5.62-4.49.55,0,0-12.43-12.6-25.39-9.06,0,0-5,1.95-5.67,1.13l-7.48-2S597.7,305,607.63,302.13Z"/><path class="stenaria12" d="M593,311.25s7.06-10.43,14.58-17.6"/><path class="stenaria12" d="M588.77,311.57s8-14.1,10.06-21.58"/><path class="stenaria12" d="M586.8,313s-.93-7.92,9.47-18.82"/><path class="stenaria12" d="M592.27,313.11s10.67-7.32,14.42-13"/><path class="stenaria16" d="M619.46,290s-11.71.39-14.33,6.14"/><path class="stenaria16" d="M600.82,282.87s2.27,5.44-4.8,9"/><path class="stenaria35" d="M598.57,318.68s-7.07,15.33-13.5,19.68c0,0-3.58,2.13-3-2.22,0,0,2.94-14.73,2.12-20,0,0-2.31-13.92,5.21-9.3,0,0,11.16,5.08,11,9.11A8.17,8.17,0,0,0,598.57,318.68Z"/></g><g id="flower_1-6" data-name="flower 1"><path class="stenaria30" d="M473.07,114.43s1.06-3.21-2.6-3.33A6.9,6.9,0,0,0,464,112s-16.9,14.94-13.53,20l-4.4,11.15,15.85,4.32,1-9.17s3-1,4.82-7.83Z"/><path class="stenaria31" d="M427.06,118.73s-11.19,4-9.83,6.46c0,0-.53,1.6,7.25.9,0,0,11.43-.58,19,16.74l4.82,6.95s5.67-13.33.07-22C448.34,127.73,443,117,427.06,118.73Z"/><path class="stenaria32" d="M450.48,132s-8.44-10.08-10.94-3.37c0,0,.1,6.45,2,10.32,0,0,4.62,8.89,6.72,10.82C448.27,149.78,452.3,138.92,450.48,132Z"/><path class="stenaria33" d="M463.08,138.26s7.52-14.78,4.93-18.11c0,0-2.18-1.27-10.37,13.42,0,0-4.81,3.75,2.92-10,0,0,1.89-4.44-1.56-3.54,0,0-8,5-8.52,12l-4.68,10.78,16.5,4.4Z"/><path class="stenaria34" d="M465.17,137.52s16-2.35,25.4,18.87c0,0,.7,5.11-4.08.5,0,0-11.27-11.44-23-8.22,0,0-4.57,1.77-5.14,1l-6.79-1.85S456.16,140.07,465.17,137.52Z"/><path class="stenaria12" d="M451.89,145.79a115.38,115.38,0,0,1,13.24-16"/><path class="stenaria12" d="M448.06,146.08s7.28-12.8,9.13-19.59"/><path class="stenaria12" d="M446.27,147.34s-.85-7.19,8.59-17.09"/><path class="stenaria12" d="M451.23,147.48s9.69-6.64,13.09-11.82"/><path class="stenaria16" d="M475.91,126.49s-10.62.35-13,5.57"/><path class="stenaria16" d="M459,120s2.05,4.94-4.36,8.15"/><path class="stenaria35" d="M457,152.54s-6.41,13.91-12.26,17.86c0,0-3.25,1.94-2.75-2,0,0,2.67-13.38,1.92-18.15,0,0-2.1-12.63,4.73-8.44,0,0,10.13,4.61,10,8.27A7.28,7.28,0,0,0,457,152.54Z"/></g><g id="flower_1-7" data-name="flower 1"><path class="stenaria30" d="M219.05,550.21s-2.8-1.23-.67-3.76a6.26,6.26,0,0,1,4.5-3.8s20.27-2.28,21.64,3.07l10.15,3.81L248,562.77l-6.74-4.91s-2.5,1.37-8.17-1.5Z"/><path class="stenaria31" d="M249.81,522s9.43-5.11,10.29-2.68c0,0,1.4.61-3.78,5.4,0,0-7.32,7.32-.27,22.88l1.74,7.44s-12.38-4.28-14.84-13.32C243,541.69,239,531.62,249.81,522Z"/><path class="stenaria32" d="M244.52,545.72s-1.64-11.77,4.38-9.38c0,0,4.26,4,5.7,7.6,0,0,3.16,8.49,3.19,11.07C257.79,555,248.06,551.13,244.52,545.72Z"/><path class="stenaria33" d="M241.08,558s-14.47-3.9-15.13-7.66c0,0,.47-2.24,15.28,1.18,0,0,5.43-1-8.47-4.11,0,0-4.13-1.42-1.43-3.19,0,0,8.21-2.31,13.19,1.55l10.08,3.39-7.06,13.74Z"/><path class="stenaria34" d="M239.31,558.91s-11.28,9.31-2.73,28.48c0,0,3,3.56,2.8-2.44,0,0-.83-14.49,8.46-20.43,0,0,3.95-2,3.8-2.83l2.88-5.67A23,23,0,0,0,239.31,558.91Z"/><path class="stenaria12" d="M252.91,555a103.73,103.73,0,0,0-18.73-.8"/><path class="stenaria12" d="M255.43,552.63s-13-2.88-18.67-5.76"/><path class="stenaria12" d="M257.36,552.19s-4.31-4.93-16.67-4.6"/><path class="stenaria12" d="M254.45,555.6s-10.33,2.47-15.87,1.61"/><path class="stenaria16" d="M225.41,559.43s6.67-6.91,11.62-5.35"/><path class="stenaria16" d="M231.33,544.17s2.06,4.37,8.11,2"/><path class="stenaria35" d="M254.37,562.5s13.22,4.13,19.41,2.61c0,0,3.27-1,.32-3.07,0,0-10.59-6.32-13.34-9.71,0,0-7.2-9.06-8.52-1.94,0,0-3.05,9.58-.52,11.72A6.51,6.51,0,0,1,254.37,562.5Z"/></g><g id="flower_1-8" data-name="flower 1"><path class="stenaria30" d="M295.59,502.77s-1.54-3-4.2-.5a6.91,6.91,0,0,0-3.92,5.2s-1.25,22.53,4.75,23.71l4.84,11,14.2-8.24-5.84-7.13s1.36-2.85-2.17-8.93Z"/><path class="stenaria31" d="M266.31,538.51S261.26,549.25,264,550c0,0,.77,1.51,5.73-4.51,0,0,7.63-8.55,25.25-1.74l8.33,1.46s-5.5-13.4-15.64-15.55C287.67,529.7,276.3,526,266.31,538.51Z"/><path class="stenaria32" d="M292.22,531.18s-13.1-1.08-10.09,5.42c0,0,4.67,4.46,8.76,5.83,0,0,9.57,3,12.42,2.82C303.31,545.25,298.41,534.75,292.22,531.18Z"/><path class="stenaria33" d="M305.51,526.62s-5.22-15.74-9.41-16.24c0,0-2.44.66,2.26,16.81,0,0-.72,6-5.06-9.11,0,0-1.83-4.46-3.62-1.37,0,0-2,9.21,2.54,14.47l4.37,10.92,14.73-8.65Z"/><path class="stenaria34" d="M306.46,524.6s9.58-13,31.28-4.79c0,0,4.12,3.09-2.51,3.24,0,0-16.06,0-22.05,10.62,0,0-1.95,4.49-2.88,4.38l-6.09,3.53S302,532.81,306.46,524.6Z"/><path class="stenaria12" d="M303,539.87A115.55,115.55,0,0,1,301,519.23"/><path class="stenaria12" d="M300.53,542.8s-4-14.17-7.52-20.26"/><path class="stenaria12" d="M300.16,545s-5.71-4.46-6.11-18.13"/><path class="stenaria12" d="M303.75,541.53s2.08-11.57.79-17.63"/><path class="stenaria16" d="M306.16,509.22S299,517,301,522.38"/><path class="stenaria16" d="M289.68,516.71s5,2,2.73,8.83"/><path class="stenaria35" d="M311.37,541s5.38,14.34,4.09,21.27c0,0-.91,3.68-3.37.55,0,0-7.64-11.3-11.56-14.13,0,0-10.46-7.38-2.67-9.29,0,0,10.39-4,12.91-1.3A7.25,7.25,0,0,0,311.37,541Z"/></g><g id="flower_3-3" data-name="flower 3"><path class="stenaria4" d="M425.44,87.76s7-1.17,2.11-17.28c0,0-2.41-13.53-8-17.16,0,0-2.59.34-3.29,6.1,0,0-.67,14.2-1.63,17,0,0-1.1,7.79,3.63,11.66A12.54,12.54,0,0,0,425.44,87.76Z"/><path class="stenaria5" d="M418.49,93.15s1.54-5.1,4.27-1c0,0,2.16,4.8-1.49,4.09C421.27,96.22,416.32,95.67,418.49,93.15Z"/><path class="stenaria6" d="M425.51,85.25s1.27-6.5-1.9-7.54c0,0-1.78.5-.87,4.47,0,0,.51,3.89-1.45,1,0,0-2.21-3.8-3.5-1.52,0,0-1.14,5.84,1.36,7.08l5.24.1Z"/><path class="stenaria7" d="M458.44,86s1.36-4.79-7.16-6.45c0,0-17.38-3.81-24.08,2.47,0,0-6.7,6.27-5.22,11.62,0,0-.45,6.65,8.93,1.74,0,0,5.5-4.41,16.52-6.89,0,0,5.09-2.38,9-.77C456.42,87.7,458.14,89.72,458.44,86Z"/><path class="stenaria8" d="M435.55,80.25s2.29,5.51-2.4,8c0,0-5.36-.62-6.24,1.74,0,0-.31,7.61-3.3,7,0,0-4-2.05.54-11.29C424.15,85.64,429.45,77,435.55,80.25Z"/><path class="stenaria9" d="M424.06,87.28s3.53-1.81,2.52,3.88c0,0-1.28,4.89-4.15,4.49C422.43,95.65,421.23,88.84,424.06,87.28Z"/><path class="stenaria10" d="M422,93.62s-2.51-.07-3-4c0,0,.47-4.55,3.56-3.1,0,0,.72.47-.48,3.44Z"/><path class="stenaria11" d="M423.12,94.26s.14-5,2.25-5c0,0,2.11,0-.07,2.52C425.3,91.74,424.26,94.91,423.12,94.26Z"/><path class="stenaria12" d="M421.84,96.54s1.09-7.79,3.84-11.05c0,0,1.12-1.46,1-5.28"/><path class="stenaria13" d="M419.47,93.55s2.57-4.55-2.72-9.8c0,0-6.19-5-16.15-1.47,0,0-13,4.2-14.23,8.18,0,0-1.29,2.28.82,2.27,0,0,8.19,1.18,12.9.83a13,13,0,0,1,5.35.62S414.63,98.92,419,96Z"/><path class="stenaria14" d="M417.24,85.53A3.55,3.55,0,0,0,412,86.61s-.16.81,2.27,1.29c0,0,2.76,1-2,1.71,0,0-2.18.42-2.35-.88,0,0-3.26-2.74-.4,2a7.27,7.27,0,0,0,4.4,3.38s2.28,1.24-2.95,2.14A12.08,12.08,0,0,0,419,96s2-4.28.64-7.9A5.79,5.79,0,0,0,417.24,85.53Z"/><path class="stenaria15" d="M386.71,89.73a14.31,14.31,0,0,1,12-4s2,.4-2.83,1.55c0,0-7.13,2-4.13,1.73,0,0,7.78-1,7.47.61,0,0,.16,1.3-3.16,1.07,0,0-6.75.42-2,2.8,0,0-4.81-.34-6.84-.73C387.19,92.73,385.05,92.83,386.71,89.73Z"/><path class="stenaria12" d="M420.39,82.35s-1,8.27,2.48,9.35"/><path class="stenaria16" d="M430.16,73.3s-4.55,6.37-3.7,9.44"/><path class="stenaria16" d="M416.54,74s4.64,4.27,3.13,9.88"/><path class="stenaria17" d="M419,89.66s-1.46-1.13-1.36,2.68c0,0,0,2.11-1.29,2.28,0,0-2.9,1.66-1.93,2.21,0,0,3.16.13,4.61-.85C419,96,421.24,91,419,89.66Z"/><path class="stenaria18" d="M427.67,94.73s5.26-1.08,4.08,5c0,0-1.5,9.82-.93,11.19,0,0,.42,2.19-.94,7,0,0-1,5.28-2.65,5,0,0-2.85-2.66-4.26-8.41,0,0-1.65-6.65-3.44-8.26,0,0-4.73-6-3.61-9.55C415.92,96.65,419.47,93.55,427.67,94.73Z"/><path class="stenaria5" d="M427.24,107.7s2.3,5.51,1.74,8.35c0,0-.36,4.14.08,4,0,0-.52,4.75-2.17-1.89,0,0,.22-3.33-.76-4.78a10.14,10.14,0,0,1,.22-5.44S426.67,106.33,427.24,107.7Z"/><path class="stenaria19" d="M417.73,96.17s5,8.56,4.48,11.4c0,0-.88,2.35.76,6.89,0,0-1.66-6.14-2.55-7.2,0,0-5.86-5.82-4.5-10.61C415.92,96.65,417.2,94.81,417.73,96.17Z"/></g><g id="flower_2-3" data-name="flower 2"><path class="stenaria20" d="M386.66,58.25s-.2-3.1,3.51-3.89c0,0,2.75-1.27,5.68,2.94,0,0,10.23,9.79,8,18.82,0,0-4.22,12.81-11.83,2.58C392,78.7,385.92,68.37,386.66,58.25Z"/><path class="stenaria21" d="M403.21,68.4s-4.91-7.13-8.62-6.35a5.54,5.54,0,0,0,.29,4.65s2.68,4.69.66,4.54c0,0-1.67-.26-3.37-6.84,0,0-2-3.94-2.95.63,0,0-1.18,3.46-.72,5.68,0,0,3.83,13.05,10.2,11.8C398.7,82.51,406.41,78.85,403.21,68.4Z"/><path class="stenaria22" d="M396.62,79.6s-4.23-4.59-4.17-9.36"/><path class="stenaria22" d="M401.39,77.19s.38-7.14-3.67-8.23c0,0-1.79-.22-1.61,4.07,0,0,0,2-2-3.32,0,0-1.76-2.21-1.68.53,0,0-.68,6.55,2.61,10.05C395.06,80.29,399,82.2,401.39,77.19Z"/><path class="stenaria23" d="M401.23,73.58s2.51-9.5,14.83-13c0,0,9.59-2.34,12.84,3.59,0,0,2.22,2.1-6.72,2.57a21.56,21.56,0,0,0-16.39,13.13s-4.72,5.06-7.39.38Z"/><path class="stenaria24" d="M399.78,77.12s2-11.64,16.58-11.91c0,0,3.7.07-.52,3.75,0,0-6.6,1.71-10.72,11.51,0,0-2.84,3.5-5.54.78C399.58,81.25,398.84,78.51,399.78,77.12Z"/><path class="stenaria22" d="M408.5,73.44s-2-3.72-5.82,2.84c0,0-3.51,4.73-2.25,5.78,0,0,4,1,5.36-2.22C405.79,79.84,409,74.88,408.5,73.44Z"/><path class="stenaria25" d="M367.15,90.16s.72-8.93,16.65-14.79c0,0,9.45-2.61,12.44,5.53,0,0,2.08,5.27-10.41,3.32,0,0-10,.82-15.46,6.1C370.37,90.32,366.73,95,367.15,90.16Z"/><path class="stenaria26" d="M406.57,83.55l2.52,7.9s1.5,3.47-1.81,1.76L398,86.29s-6.65-2.24-5.67-4.13c0,0,3.44-7.82,12.57-4C404.86,78.16,406,79.37,406.57,83.55Z"/><path class="stenaria12" d="M397.32,80.56s-1.57-7.41-6-7.59c0,0-3.57,0-3,2.94"/><path class="stenaria12" d="M400.19,79.65s-4.55-6.86-4.23-13.29"/><path class="stenaria16" d="M397.59,60.3s-3.15,3.77-1.06,7.85"/><path class="stenaria16" d="M385.53,62.17s7.8,4.63,6.55,9.38"/><path class="stenaria12" d="M400.68,78.7s-3.36-6.84-1.91-8.49"/><path class="stenaria27" d="M389.69,75.22s-7.09.73-5.59,4.21a5.31,5.31,0,0,0,4.4,1.37s4.76.06,2.59,1.94c0,0-4.9.77-5.38,1.71,0,0,7.25.9,9.72-.9,0,0,2.87-2.56-1.63-6.35A6.61,6.61,0,0,0,389.69,75.22Z"/><circle class="stenaria28" cx="399.01" cy="69.74" r="1.51"/><ellipse class="stenaria28" cx="387.84" cy="76.26" rx="1.32" ry="1.7" transform="translate(-4.86 121.24) rotate(-17.66)"/><path class="stenaria29" d="M402.74,78.53s2.53,4.64-3.8,5.87a11.13,11.13,0,0,1-5.78-.45s-2.79-1.43,1.19-4.55C394.35,79.4,399.72,74.84,402.74,78.53Z"/></g><g id="flower_2-4" data-name="flower 2"><path class="stenaria20" d="M511.29,320.55s-.89-5.25-7.38-5.1c0,0-5.11-1-8.33,7.13,0,0-13.22,20.37-5.89,34.54,0,0,12.1,19.71,20.76-.35C510.45,356.77,516.49,337.15,511.29,320.55Z"/><path class="stenaria21" d="M487.66,344s5.4-13.83,11.89-14c0,0,2.38,2.77,1.34,7.87,0,0-2.63,8.87.69,7.83,0,0,2.68-1.09,2.92-12.73,0,0,1.82-7.37,5.17-.12,0,0,3.34,5.31,3.45,9.2,0,0-1.27,23.27-12.37,23.69C500.75,365.76,486.43,362.7,487.66,344Z"/><path class="stenaria22" d="M503.07,360.09s5.25-9.32,3.27-17.24"/><path class="stenaria22" d="M494.16,358s-3.45-11.77,2.88-15.17c0,0,2.91-1.07,4.29,6.16,0,0,.83,3.3,2-6.32,0,0,2.07-4.38,3,.23,0,0,3.72,10.65-.4,17.78C505.94,360.63,500.07,365.38,494.16,358Z"/><path class="stenaria23" d="M493,351.87S485.08,337,463.13,336c0,0-16.92-.14-20,11,0,0-2.88,4.38,12.23,1.65a36.93,36.93,0,0,1,32.5,15.45s9.86,6.59,12.49-2.28Z"/><path class="stenaria24" d="M496.81,357.2s-8-18.61-32.34-13.36c0,0-6.15,1.58,2.35,6.07,0,0,11.68.25,22.41,15,0,0,6.11,4.73,9.55-.88C498.78,364,498.93,359.16,496.81,357.2Z"/><path class="stenaria22" d="M480.82,354.49s1.84-7,10.83,2.45c0,0,7.71,6.51,6,8.77,0,0-6.29,3.2-9.81-1.61C487.86,364.1,480.63,357.07,480.82,354.49Z"/><path class="stenaria25" d="M556.38,366.12s-4.71-14.61-33.59-18.12c0,0-16.8-.64-18.58,14.12,0,0-1.38,9.61,18.68,1.43,0,0,17-2.58,28.19,4.11C551.08,367.66,559,374.1,556.38,366.12Z"/><path class="stenaria26" d="M488,370.59l-1.09,14.17s-1.13,6.4,3.72,2.23l12.83-15.21s10.2-6.34,7.83-9.12c0,0-8.83-11.69-22.55-1.73C488.75,360.93,487.27,363.41,488,370.59Z"/><path class="stenaria12" d="M502.28,362s-.3-13,7-15c0,0,6-1.49,6.2,3.71"/><path class="stenaria12" d="M497.13,361.58s4.9-13.23,1.82-23.84"/><path class="stenaria16" d="M493.85,328.28s6.74,5.06,4.86,12.69"/><path class="stenaria16" d="M514.71,326.64s-11.2,10.81-7.23,18.24"/><path class="stenaria12" d="M495.94,360.19s2.92-12.73-.15-14.91"/><path class="stenaria27" d="M512.91,350.06s12.11-1.57,11,4.82a9.06,9.06,0,0,1-6.79,4s-7.92,2-3.56,4.26c0,0,8.47-.65,9.66.74,0,0-11.75,4.34-16.58,2.32,0,0-5.8-3.14.21-11.23A11.35,11.35,0,0,1,512.91,350.06Z"/><circle class="stenaria28" cx="495.19" cy="344.58" r="2.58"/><ellipse class="stenaria28" cx="516.4" cy="351.07" rx="2.91" ry="2.26" transform="translate(126.84 839.09) rotate(-85.61)"/><path class="stenaria29" d="M492.44,360.72s-2.4,8.73,8.65,8.29a19.08,19.08,0,0,0,9.46-3s4.1-3.48-3.77-7.12C506.78,358.87,496,353.37,492.44,360.72Z"/></g><g id="flower_1-9" data-name="flower 1"><path class="stenaria30" d="M521,109.85s.93-2.78-2.24-2.88a6,6,0,0,0-5.59.75s-14.62,12.92-11.7,17.33l-3.8,9.64,13.7,3.73.84-7.93s2.57-.89,4.17-6.76Z"/><path class="stenaria31" d="M481.25,113.56s-9.67,3.42-8.5,5.59c0,0-.46,1.39,6.26.78,0,0,9.89-.5,16.41,14.48l4.17,6s4.9-11.53.06-19.07C499.65,121.35,495,112.1,481.25,113.56Z"/><path class="stenaria32" d="M501.5,125.05s-7.29-8.72-9.46-2.92c0,0,.09,5.59,1.74,8.93,0,0,4,7.69,5.81,9.36C499.59,140.42,503.07,131,501.5,125.05Z"/><path class="stenaria33" d="M512.39,130.45s6.51-12.77,4.27-15.66c0,0-1.89-1.1-9,11.61,0,0-4.16,3.24,2.53-8.65,0,0,1.63-3.84-1.35-3.06,0,0-6.91,4.34-7.37,10.36l-4.05,9.32,14.27,3.8Z"/><path class="stenaria34" d="M514.21,129.81s13.84-2,22,16.33c0,0,.6,4.41-3.52.42,0,0-9.76-9.88-19.93-7.11,0,0-4,1.54-4.45.9l-5.87-1.6A22,22,0,0,1,514.21,129.81Z"/><path class="stenaria12" d="M502.72,137a99.71,99.71,0,0,1,11.45-13.81"/><path class="stenaria12" d="M499.41,137.22s6.29-11.07,7.89-16.94"/><path class="stenaria12" d="M497.86,138.31s-.73-6.22,7.43-14.78"/><path class="stenaria12" d="M502.15,138.43s8.38-5.75,11.32-10.23"/><path class="stenaria16" d="M523.49,120.27s-9.19.31-11.24,4.82"/><path class="stenaria16" d="M508.87,114.69s1.78,4.27-3.77,7"/><path class="stenaria35" d="M507.1,142.8s-5.55,12-10.6,15.45c0,0-2.81,1.67-2.39-1.74,0,0,2.31-11.57,1.67-15.7,0,0-1.82-10.92,4.09-7.29,0,0,8.75,4,8.65,7.15A6.14,6.14,0,0,0,507.1,142.8Z"/></g><g id="flower_2-5" data-name="flower 2"><path class="stenaria20" d="M490.49,118.55s-.59-3.46-4.87-3.36c0,0-3.37-.69-5.49,4.71,0,0-8.73,13.44-3.89,22.79,0,0,8,13,13.7-.23C489.94,142.46,493.93,129.51,490.49,118.55Z"/><path class="stenaria21" d="M474.9,134s3.56-9.13,7.84-9.23a6.28,6.28,0,0,1,.89,5.2s-1.73,5.85.46,5.17c0,0,1.76-.72,1.93-8.41,0,0,1.2-4.86,3.41-.08,0,0,2.2,3.51,2.27,6.08,0,0-.83,15.36-8.16,15.64C483.54,148.4,474.09,146.37,474.9,134Z"/><path class="stenaria22" d="M485.07,144.65s3.47-6.15,2.16-11.38"/><path class="stenaria22" d="M479.19,143.24s-2.28-7.77,1.9-10c0,0,1.92-.71,2.83,4.06,0,0,.55,2.18,1.32-4.17,0,0,1.36-2.89,2,.15,0,0,2.45,7-.26,11.74C487,145,483.09,148.14,479.19,143.24Z"/><path class="stenaria23" d="M478.43,139.22s-5.23-9.81-19.72-10.49c0,0-11.17-.1-13.2,7.28,0,0-1.9,2.89,8.07,1.09A24.37,24.37,0,0,1,475,147.3s6.51,4.35,8.24-1.51Z"/><path class="stenaria24" d="M480.94,142.74s-5.26-12.28-21.35-8.81c0,0-4.06,1,1.56,4,0,0,7.7.17,14.78,9.88,0,0,4,3.13,6.31-.57C482.24,147.24,482.34,144,480.94,142.74Z"/><path class="stenaria22" d="M470.39,141s1.21-4.61,7.14,1.61c0,0,5.09,4.29,4,5.79,0,0-4.16,2.11-6.48-1.06C475,147.3,470.26,142.66,470.39,141Z"/><path class="stenaria25" d="M520.26,148.63s-3.11-9.64-22.18-12c0,0-11.08-.43-12.26,9.32,0,0-.91,6.34,12.33.95,0,0,11.25-1.71,18.61,2.71C516.76,149.65,522,153.9,520.26,148.63Z"/><path class="stenaria26" d="M475.13,151.58l-.72,9.36s-.75,4.21,2.46,1.47l8.46-10s6.74-4.19,5.17-6c0,0-5.82-7.72-14.88-1.14C475.62,145.21,474.64,146.84,475.13,151.58Z"/><path class="stenaria12" d="M484.55,145.89s-.2-8.57,4.61-9.91c0,0,3.92-1,4.08,2.45"/><path class="stenaria12" d="M481.15,145.63s3.23-8.73,1.2-15.73"/><path class="stenaria16" d="M479,123.66s4.45,3.33,3.21,8.37"/><path class="stenaria16" d="M492.75,122.57s-7.39,7.13-4.77,12"/><path class="stenaria12" d="M480.36,144.71s1.93-8.4-.1-9.84"/><path class="stenaria27" d="M491.56,138s8-1,7.24,3.18a6,6,0,0,1-4.48,2.65s-5.23,1.31-2.35,2.82c0,0,5.59-.43,6.38.48,0,0-7.76,2.87-10.94,1.54,0,0-3.83-2.08.14-7.42A7.5,7.5,0,0,1,491.56,138Z"/><circle class="stenaria28" cx="479.87" cy="134.41" r="1.71"/><ellipse class="stenaria28" cx="493.87" cy="138.7" rx="1.92" ry="1.49" transform="translate(317.78 620.5) rotate(-85.61)"/><path class="stenaria29" d="M478.05,145.07s-1.58,5.76,5.71,5.47a12.6,12.6,0,0,0,6.25-2s2.7-2.3-2.49-4.7C487.52,143.84,480.42,140.22,478.05,145.07Z"/></g><g id="flower_3-4" data-name="flower 3"><path class="stenaria4" d="M567.41,272.08s-8.55-1.05-3.5-20.93c0,0,2.21-16.61,8.85-21.33,0,0,3.17.27,4.34,7.25,0,0,1.58,17.25,2.89,20.56,0,0,1.76,9.43-3.78,14.4A15.39,15.39,0,0,1,567.41,272.08Z"/><path class="stenaria5" d="M576.16,278.26s-2.14-6.12-5.24-1c0,0-2.37,6,2,4.9C573,282.15,579,281.22,576.16,278.26Z"/><path class="stenaria6" d="M567.19,269s-1.89-7.84,1.91-9.27c0,0,2.19.5,1.3,5.38,0,0-.4,4.77,1.83,1.12,0,0,2.48-4.75,4.17-2.05,0,0,1.7,7.06-1.27,8.71l-6.38.4Z"/><path class="stenaria7" d="M527.14,271.7s-1.91-5.76,8.37-8.25c0,0,21-5.58,29.45,1.7,0,0,8.5,7.28,7,13.87,0,0,.92,8.08-10.78,2.61,0,0-6.92-5.07-20.47-7.5,0,0-6.34-2.62-11-.45C529.69,273.68,527.71,276.23,527.14,271.7Z"/><path class="stenaria8" d="M554.71,263.48s-2.5,6.83,3.34,9.56c0,0,6.49-1,7.69,1.78,0,0,.8,9.25,4.4,8.32,0,0,4.79-2.71-1.27-13.72C568.87,269.42,562,259.14,554.71,263.48Z"/><path class="stenaria9" d="M569.07,271.42s-4.39-2-2.86,4.86c0,0,1.82,5.89,5.3,5.24C571.51,281.52,572.6,273.16,569.07,271.42Z"/><path class="stenaria10" d="M571.94,279s3.06-.22,3.46-5c0,0-.81-5.51-4.49-3.58,0,0-.85.61.76,4.16Z"/><path class="stenaria11" d="M570.59,279.87s-.44-6.12-3-6c0,0-2.57.1.22,3.06C567.8,276.91,569.24,280.71,570.59,279.87Z"/><path class="stenaria12" d="M572.28,282.57s-1.76-9.43-5.27-13.24c0,0-1.46-1.73-1.54-6.37"/><path class="stenaria13" d="M575,278.8s-3.38-5.4,2.78-12.08c0,0,7.27-6.42,19.58-2.66,0,0,16.1,4.41,17.78,9.19,0,0,1.69,2.7-.88,2.8,0,0-9.92,1.88-15.66,1.71a15.87,15.87,0,0,0-6.49,1.05s-10.93,6.27-16.4,2.93Z"/><path class="stenaria14" d="M577.28,268.92s3.44-2.91,6.47,1c0,0,.23,1-2.7,1.69,0,0-3.32,1.31,2.55,2,0,0,2.68.39,2.82-1.2,0,0,3.82-3.51.59,2.45,0,0-1.74,3.53-5.17,4.36,0,0-2.71,1.64,3.7,2.45a14.81,14.81,0,0,1-9.83.07s-2.65-5.11-1.21-9.59A7.15,7.15,0,0,1,577.28,268.92Z"/><path class="stenaria15" d="M614.68,272.38a17.43,17.43,0,0,0-14.78-4.26s-2.45.59,3.53,1.74c0,0,8.79,2,5.12,1.87,0,0-9.53-.81-9.06,1.15,0,0-.13,1.59,3.91,1.13,0,0,8.24.14,2.57,3.3,0,0,5.84-.66,8.29-1.26C614.26,276.05,616.87,276.06,614.68,272.38Z"/><path class="stenaria12" d="M573.27,265.22s1.67,10-2.52,11.52"/><path class="stenaria16" d="M560.89,254.73s5.88,7.5,5,11.29"/><path class="stenaria16" d="M577.51,254.86s-5.42,5.46-3.27,12.2"/><path class="stenaria17" d="M575.4,274s1.73-1.46,1.81,3.19c0,0,.1,2.57,1.69,2.7,0,0,3.63,1.87,2.47,2.59,0,0-3.84.33-5.66-.78C575.71,281.74,572.7,275.73,575.4,274Z"/><path class="stenaria18" d="M565.08,280.68s-6.47-1-4.69,6.32c0,0,2.35,11.87,1.72,13.58,0,0-.38,2.69,1.53,8.45,0,0,1.54,6.37,3.5,5.89,0,0,3.32-3.39,4.72-10.47,0,0,1.66-8.18,3.75-10.24,0,0,5.44-7.54,3.88-11.83C579.49,282.38,575,278.8,565.08,280.68Z"/><path class="stenaria5" d="M566.3,296.46s-2.5,6.82-1.67,10.25c0,0,.67,5,.13,4.89,0,0,.89,5.76,2.54-2.42,0,0-.45-4,.66-5.86a12.32,12.32,0,0,0-.56-6.61S566.93,294.75,566.3,296.46Z"/><path class="stenaria19" d="M577.25,281.9s-5.66,10.69-4.83,14.12c0,0,1.2,2.82-.56,8.43,0,0,1.7-7.57,2.72-8.9,0,0,6.82-7.41,4.91-13.17C579.49,282.38,577.84,280.22,577.25,281.9Z"/></g><g id="flower_2-6" data-name="flower 2"><path class="stenaria20" d="M613,234s.07-3.79-4.48-4.54c0,0-3.43-1.4-6.76,3.88,0,0-11.93,12.48-8.68,23.35,0,0,5.84,15.37,14.55,2.5C607.67,259.23,614.48,246.32,613,234Z"/><path class="stenaria21" d="M593.43,247.3s5.6-9,10.16-8.2a6.76,6.76,0,0,1-.11,5.68s-3,5.85-.55,5.56c0,0,2-.41,3.72-8.51,0,0,2.25-4.91,3.63.6,0,0,1.63,4.15,1.19,6.89,0,0-4,16.09-11.77,14.91C599.7,264.23,590.1,260.2,593.43,247.3Z"/><path class="stenaria22" d="M602.07,260.57s4.9-5.81,4.56-11.61"/><path class="stenaria22" d="M596.13,257.9s-.85-8.67,4-10.21c0,0,2.18-.37,2.19,4.87,0,0,.14,2.42,2.23-4.16,0,0,2-2.78,2.07.56,0,0,1.19,7.93-2.63,12.38C604,261.34,599.28,263.87,596.13,257.9Z"/><path class="stenaria23" d="M596.13,253.5s-3.57-11.43-18.77-15.06c0,0-11.81-2.34-15.43,5.06,0,0-2.6,2.68,8.32,2.77a26.27,26.27,0,0,1,20.66,15.1s6,5.9,9,.06Z"/><path class="stenaria24" d="M598.08,257.73s-3.1-14.06-20.83-13.61c0,0-4.5.29.84,4.55,0,0,8.13,1.72,13.67,13.42,0,0,3.65,4.12,6.79.66C598.55,262.75,599.3,259.38,598.08,257.73Z"/><path class="stenaria22" d="M587.27,253.72s2.2-4.63,7.24,3.15c0,0,4.52,5.56,3,6.92,0,0-4.82,1.4-6.64-2.42C590.91,261.37,586.79,255.5,587.27,253.72Z"/><path class="stenaria25" d="M638.51,271.84s-1.35-10.83-21.07-17.1c0,0-11.65-2.67-14.84,7.4,0,0-2.24,6.54,12.86,3.48,0,0,12.24.45,19.15,6.6C634.61,272.22,639.29,277.76,638.51,271.84Z"/><path class="stenaria26" d="M590.16,265.92l-2.64,9.76s-1.64,4.31,2.31,2.05l11-8.93s8-3.09,6.67-5.34c0,0-4.61-9.33-15.52-4.19C592,259.27,590.59,260.81,590.16,265.92Z"/><path class="stenaria12" d="M601.27,261.79s1.5-9.11,6.86-9.57c0,0,4.35-.25,3.84,3.42"/><path class="stenaria12" d="M597.72,260.83s5.17-8.6,4.43-16.41"/><path class="stenaria16" d="M599.84,237.14s4,4.42,1.71,9.5"/><path class="stenaria16" d="M614.62,238.75s-9.25,6.07-7.46,11.78"/><path class="stenaria12" d="M597.07,259.7s3.73-8.51,1.87-10.44"/><path class="stenaria27" d="M610.27,254.87s8.66.51,7,4.82A6.43,6.43,0,0,1,612,261.6s-5.8.33-3,2.5c0,0,6,.67,6.65,1.8,0,0-8.78,1.48-11.89-.57,0,0-3.63-3,1.63-7.82A8.09,8.09,0,0,1,610.27,254.87Z"/><circle class="stenaria28" cx="598.62" cy="248.7" r="1.84"/><ellipse class="stenaria28" cx="612.57" cy="256.04" rx="2.07" ry="1.61" transform="translate(205.69 780.68) rotate(-74.89)"/><path class="stenaria29" d="M594.56,259.61s-2.83,5.78,5,6.93a13.42,13.42,0,0,0,7-.86s3.33-1.89-1.69-5.47C604.82,260.21,598,255,594.56,259.61Z"/></g><g id="flower_3-5" data-name="flower 3"><path class="stenaria4" d="M428.67,110.24s-7.76-.95-3.18-19c0,0,2-15.07,8-19.35,0,0,2.88.24,3.94,6.57,0,0,1.43,15.66,2.63,18.67,0,0,1.6,8.55-3.43,13.06A13.87,13.87,0,0,1,428.67,110.24Z"/><path class="stenaria5" d="M436.61,115.85s-1.94-5.55-4.76-.92c0,0-2.15,5.41,1.85,4.45C433.7,119.38,439.15,118.53,436.61,115.85Z"/><path class="stenaria6" d="M428.47,107.46s-1.72-7.11,1.73-8.42c0,0,2,.46,1.18,4.9,0,0-.36,4.32,1.66,1,0,0,2.25-4.31,3.79-1.86,0,0,1.54,6.4-1.15,7.9l-5.8.37Z"/><path class="stenaria7" d="M392.11,109.9s-1.73-5.23,7.61-7.49c0,0,19-5.06,26.72,1.54,0,0,7.72,6.61,6.34,12.59,0,0,.83,7.33-9.78,2.36,0,0-6.29-4.59-18.59-6.8,0,0-5.75-2.37-10-.41C394.43,111.69,392.64,114,392.11,109.9Z"/><path class="stenaria8" d="M417.14,102.44s-2.27,6.19,3,8.68c0,0,5.89-1,7,1.6,0,0,.73,8.4,4,7.56,0,0,4.35-2.47-1.15-12.46C430,107.82,423.71,98.49,417.14,102.44Z"/><path class="stenaria9" d="M430.17,109.64s-4-1.82-2.59,4.41c0,0,1.66,5.34,4.81,4.76C432.39,118.81,433.38,111.22,430.17,109.64Z"/><path class="stenaria10" d="M432.78,116.54s2.78-.2,3.14-4.52c0,0-.73-5-4.08-3.25,0,0-.77.56.7,3.78Z"/><path class="stenaria11" d="M431.55,117.31s-.4-5.55-2.73-5.46c0,0-2.33.09.2,2.77C429,114.62,430.33,118.07,431.55,117.31Z"/><path class="stenaria12" d="M433.09,119.76s-1.6-8.56-4.79-12c0,0-1.32-1.56-1.4-5.78"/><path class="stenaria13" d="M435.56,116.34s-3.07-4.91,2.52-11c0,0,6.6-5.83,17.78-2.42,0,0,14.61,4,16.13,8.34,0,0,1.53,2.45-.8,2.55,0,0-9,1.7-14.21,1.55a14.33,14.33,0,0,0-5.89.95S441.17,122,436.2,119Z"/><path class="stenaria14" d="M437.62,107.37a3.94,3.94,0,0,1,5.88.93s.21.89-2.46,1.54c0,0-3,1.19,2.32,1.79,0,0,2.44.35,2.56-1.09,0,0,3.47-3.19.54,2.22,0,0-1.58,3.21-4.69,4,0,0-2.47,1.48,3.36,2.22a13.43,13.43,0,0,1-8.93.07s-2.4-4.64-1.09-8.7A6.42,6.42,0,0,1,437.62,107.37Z"/><path class="stenaria15" d="M471.57,110.51a15.8,15.8,0,0,0-13.41-3.87s-2.23.54,3.2,1.58c0,0,8,1.84,4.65,1.7,0,0-8.65-.73-8.22,1,0,0-.12,1.44,3.54,1,0,0,7.48.13,2.33,3,0,0,5.31-.61,7.53-1.14C471.19,113.85,473.56,113.85,471.57,110.51Z"/><path class="stenaria12" d="M434,104s1.51,9.09-2.29,10.46"/><path class="stenaria16" d="M422.75,94.49s5.33,6.81,4.55,10.25"/><path class="stenaria16" d="M437.84,94.61s-4.93,5-3,11.07"/><path class="stenaria17" d="M435.92,112s1.57-1.32,1.64,2.89c0,0,.1,2.33,1.54,2.46,0,0,3.29,1.69,2.24,2.35,0,0-3.48.3-5.14-.71C436.2,119,433.47,113.55,435.92,112Z"/><path class="stenaria18" d="M426.56,118s-5.88-.93-4.27,5.74c0,0,2.14,10.78,1.57,12.33,0,0-.35,2.44,1.38,7.67,0,0,1.4,5.78,3.18,5.35,0,0,3-3.09,4.29-9.51,0,0,1.5-7.42,3.4-9.3,0,0,4.94-6.84,3.53-10.73C439.64,119.59,435.56,116.34,426.56,118Z"/><path class="stenaria5" d="M427.66,132.37s-2.26,6.19-1.51,9.3c0,0,.6,4.56.12,4.44,0,0,.8,5.23,2.3-2.2,0,0-.41-3.66.6-5.32a11.13,11.13,0,0,0-.51-6S428.23,130.82,427.66,132.37Z"/><path class="stenaria19" d="M437.6,119.15s-5.14,9.7-4.39,12.82c0,0,1.09,2.56-.5,7.65,0,0,1.54-6.87,2.47-8.08,0,0,6.19-6.72,4.46-11.95C439.64,119.59,438.13,117.62,437.6,119.15Z"/></g><g id="flower_2-7" data-name="flower 2"><path class="stenaria20" d="M470.08,75.71s.07-3.43-4.06-4.12c0,0-3.12-1.27-6.14,3.53,0,0-10.83,11.32-7.88,21.19,0,0,5.3,14,13.21,2.27C465.21,98.58,471.39,86.86,470.08,75.71Z"/><path class="stenaria21" d="M452.29,87.75s5.08-8.13,9.21-7.44a6.1,6.1,0,0,1-.09,5.15s-2.73,5.31-.5,5.05c0,0,1.82-.37,3.38-7.72,0,0,2-4.46,3.29.54,0,0,1.48,3.77,1.08,6.25,0,0-3.6,14.6-10.69,13.54C458,103.12,449.26,99.45,452.29,87.75Z"/><path class="stenaria22" d="M460.13,99.8s4.44-5.28,4.14-10.54"/><path class="stenaria22" d="M454.74,97.37s-.78-7.87,3.64-9.27c0,0,2-.33,2,4.42,0,0,.13,2.19,2-3.77,0,0,1.83-2.53,1.88.51,0,0,1.08,7.2-2.39,11.23C461.88,100.49,457.59,102.79,454.74,97.37Z"/><path class="stenaria23" d="M454.74,93.38s-3.25-10.38-17-13.67c0,0-10.72-2.12-14,4.59,0,0-2.35,2.43,7.56,2.52A23.81,23.81,0,0,1,450,100.52s5.46,5.36,8.19,0Z"/><path class="stenaria24" d="M456.51,97.21s-2.82-12.75-18.91-12.35c0,0-4.09.27.76,4.13,0,0,7.38,1.56,12.41,12.19,0,0,3.31,3.73,6.17.59C456.94,101.77,457.61,98.71,456.51,97.21Z"/><path class="stenaria22" d="M446.69,93.58s2-4.21,6.57,2.85c0,0,4.11,5,2.77,6.28,0,0-4.38,1.28-6-2.19C450,100.52,446.26,95.19,446.69,93.58Z"/><path class="stenaria25" d="M493.21,110S492,100.19,474.08,94.5c0,0-10.57-2.43-13.47,6.72,0,0-2,5.93,11.67,3.15,0,0,11.11.41,17.38,6C489.66,110.36,493.91,115.4,493.21,110Z"/><path class="stenaria26" d="M449.32,104.65l-2.4,8.86s-1.48,3.91,2.09,1.85l10-8.1s7.23-2.8,6-4.84c0,0-4.19-8.47-14.08-3.81C451,98.61,449.71,100,449.32,104.65Z"/><path class="stenaria12" d="M459.4,100.9s1.37-8.27,6.23-8.68c0,0,3.95-.23,3.48,3.09"/><path class="stenaria12" d="M456.18,100s4.7-7.8,4-14.89"/><path class="stenaria16" d="M458.1,78.52s3.67,4,1.56,8.63"/><path class="stenaria16" d="M471.52,80s-8.39,5.5-6.77,10.69"/><path class="stenaria12" d="M455.59,99s3.38-7.72,1.7-9.47"/><path class="stenaria27" d="M467.57,94.62s7.86.46,6.38,4.38a5.88,5.88,0,0,1-4.79,1.73s-5.26.3-2.77,2.27c0,0,5.45.61,6,1.63,0,0-8,1.34-10.78-.52,0,0-3.3-2.69,1.48-7.09A7.3,7.3,0,0,1,467.57,94.62Z"/><circle class="stenaria28" cx="456.99" cy="89.02" r="1.67"/><ellipse class="stenaria28" cx="469.66" cy="95.68" rx="1.88" ry="1.46" transform="translate(254.85 524.15) rotate(-74.89)"/><path class="stenaria29" d="M453.31,98.92s-2.57,5.25,4.49,6.29a12.21,12.21,0,0,0,6.36-.78s3-1.71-1.54-5C462.62,99.47,456.47,94.69,453.31,98.92Z"/></g><g id="flower_3-6" data-name="flower 3"><path class="stenaria4" d="M243.15,517.9s4.06-5.78-10.82-13.65c0,0-11.32-7.79-17.84-6.35,0,0-1.59,2.09,2,6.64,0,0,9.63,10.44,10.92,13.07,0,0,4.77,6.26,10.84,5.62A12.64,12.64,0,0,0,243.15,517.9Z"/><path class="stenaria5" d="M242.09,526.63s-2.54-4.68,2.27-3.75c0,0,4.94,1.83,1.86,3.93C246.22,526.81,242.36,530,242.09,526.63Z"/><path class="stenaria6" d="M241.41,516.08s-3.73-5.46-6.7-3.94c0,0-.9,1.61,2.56,3.76,0,0,3.13,2.37-.32,1.72,0,0-4.26-1.1-3.54,1.41,0,0,3.35,4.92,6,4l3.76-3.66Z"/><path class="stenaria7" d="M265.07,493.17s-2.45-4.33-9.63.57c0,0-14.92,9.68-15.16,18.86,0,0-.25,9.17,4.6,11.87,0,0,4.41,5,7.51-5.12,0,0,.73-7,6.71-16.59,0,0,1.89-5.3,5.77-6.95C264.87,495.81,267.51,496,265.07,493.17Z"/><path class="stenaria8" d="M244.9,505.43s5.53,2.24,4,7.3c0,0-4.21,3.37-3.15,5.66,0,0,5.2,5.57,2.65,7.26,0,0-4.29,1.42-7.66-8.33C240.72,517.32,238.27,507.46,244.9,505.43Z"/><path class="stenaria9" d="M241.83,518.54s1.19-3.78,4.53.94c0,0,2.58,4.35.28,6.11C246.64,525.59,241,521.65,241.83,518.54Z"/><path class="stenaria10" d="M244.88,524.47s-1.82,1.74-4.94-.63c0,0-2.9-3.53.29-4.71,0,0,.85-.18,2.12,2.76Z"/><path class="stenaria11" d="M246.14,524.12s-3.48-3.64-2-5.14c0,0,1.48-1.51,1.74,1.81C245.87,520.79,247.4,523.76,246.14,524.12Z"/><path class="stenaria12" d="M246.85,526.63s-4.77-6.25-5.16-10.49c0,0-.25-1.84-3-4.44"/><path class="stenaria13" d="M243.06,526.21s-1.43-5-8.88-5c0,0-7.91.89-12.39,10.46,0,0-6.18,12.22-4.19,15.87,0,0,.72,2.52,2.19,1,0,0,6.6-5,9.66-8.59a13,13,0,0,1,4.21-3.37s9.82-3.2,10.8-8.38Z"/><path class="stenaria14" d="M235.79,522.16a3.56,3.56,0,0,0-2.93,4.51s.47.68,2.52-.72c0,0,2.62-1.29-.21,2.64,0,0-1.24,1.85-2.28,1.06,0,0-4.24.39,1.17,1.71a7.26,7.26,0,0,0,5.49-.75s2.49-.75-.54,3.6a12.11,12.11,0,0,0,5.45-6s-1.66-4.42-5.17-6A5.84,5.84,0,0,0,235.79,522.16Z"/><path class="stenaria15" d="M217.33,546.84a14.32,14.32,0,0,1,5.53-11.35s1.71-1.16-.88,3.11c0,0-3.6,6.46-1.68,4.15,0,0,4.75-6.25,5.68-4.88,0,0,1,.79-1.46,3,0,0-4.45,5.09.6,3.37,0,0-3.62,3.2-5.33,4.36C219.79,548.6,218.36,550.19,217.33,546.84Z"/><path class="stenaria12" d="M235.75,517.69s5.17,6.52,8.39,4.8"/><path class="stenaria16" d="M236.18,504.38s1.33,7.71,4.1,9.27"/><path class="stenaria16" d="M227.11,514.57s6.3-.3,9.23,4.72"/><path class="stenaria17" d="M239.94,523.84s-1.83.25.95,2.86c0,0,1.51,1.47.71,2.51,0,0-.85,3.24.22,2.93,0,0,2.32-2.15,2.64-3.88C244.46,528.26,242.46,523.12,239.94,523.84Z"/><path class="stenaria18" d="M249.66,521.21s2.94-4.5,6.43.62c0,0,5.94,8,7.32,8.52,0,0,1.85,1.25,4.3,5.58,0,0,3,4.44,1.67,5.37,0,0-3.9.16-9-2.88,0,0-5.89-3.5-8.3-3.36,0,0-7.57-.83-9.33-4.14C242.77,530.92,243.06,526.21,249.66,521.21Z"/><path class="stenaria5" d="M258.59,530.64s5.53,2.23,7.17,4.62c0,0,2.69,3.17,2.9,2.77,0,0,3,3.7-2.87.21,0,0-2.21-2.5-3.93-2.82a10.08,10.08,0,0,1-3.72-4S257.21,530.08,258.59,530.64Z"/><path class="stenaria19" d="M243.71,529.29s9.62,2.43,11.25,4.83c0,0,1.06,2.28,5.44,4.3,0,0-5.54-3.14-6.92-3.25,0,0-8.26.08-10.71-4.25C242.77,530.92,242.36,528.72,243.71,529.29Z"/></g><g id="flower_2-8" data-name="flower 2"><path class="stenaria20" d="M194.89,524.75s-2.35-2-.3-5.23c0,0,1-2.86,6.08-2,0,0,14.16-.4,19,7.56,0,0,6.15,12-6.48,10.23C213.18,535.33,201.57,532.38,194.89,524.75Z"/><path class="stenaria21" d="M213.75,520.1s-8.53-1.51-10.58,1.67a5.54,5.54,0,0,0,3.52,3.06s5.21,1.39,3.68,2.73c0,0-1.35,1-7.23-2.42,0,0-4.22-1.33-1.63,2.54,0,0,1.63,3.28,3.54,4.51,0,0,12,6.44,15.56,1C220.61,533.23,223.43,525.17,213.75,520.1Z"/><path class="stenaria22" d="M217.08,532.66s-6.24-.21-9.58-3.61"/><path class="stenaria22" d="M218.72,527.58s-4.82-5.29-8.43-3.18c0,0-1.42,1.12,1.76,4,0,0,1.39,1.42-3.76-.92,0,0-2.8-.31-.79,1.56,0,0,4.17,5.09,9,5.21C216.47,534.26,220.62,532.78,218.72,527.58Z"/><path class="stenaria23" d="M216,525.16s-5-8.47,1.16-19.71c0,0,5.07-8.48,11.57-6.61,0,0,3.06-.11-2.89,6.59a21.53,21.53,0,0,0-2.18,20.88s.28,6.91-4.93,5.53Z"/><path class="stenaria24" d="M217.54,528.67s-6.85-9.62,3.17-20.16c0,0,2.66-2.59,2.31,3,0,0-3.42,5.89.65,15.71,0,0,.5,4.48-3.34,4.49C220.33,531.72,217.87,530.32,217.54,528.67Z"/><path class="stenaria22" d="M221.05,519.89s-4-1.21-2.07,6.13c0,0,.9,5.82,2.53,5.66,0,0,3.51-2.16,2.19-5.37C223.7,526.31,222.39,520.57,221.05,519.89Z"/><path class="stenaria25" d="M203.88,561.05s-5.84-6.79,1.18-22.24c0,0,4.79-8.56,12.68-5,0,0,5.21,2.23-5,9.74,0,0-6.46,7.7-6.52,15.29C206.26,558.88,207.06,564.78,203.88,561.05Z"/><path class="stenaria26" d="M226.88,528.36l7.39,3.76s3.53,1.38,0,2.53l-11.47,1.77s-6.26,3.15-6.92,1.12c0,0-3.14-7.94,6-11.75C221.85,525.79,223.53,525.8,226.88,528.36Z"/><path class="stenaria12" d="M218.25,532.84s-6.37-4.09-9.59-1.08c0,0-2.55,2.51,0,4.21"/><path class="stenaria12" d="M219.62,530.16s-8.07-1.58-12.42-6.33"/><path class="stenaria16" d="M204,518.41s.47,4.89,4.84,6.27"/><path class="stenaria16" d="M196.88,528.3s8.79-2.29,11.28,1.94"/><path class="stenaria12" d="M219.29,529.14s-7.23-2.41-7.38-4.6"/><path class="stenaria27" d="M209.09,534.52s-4.46,5.55-.93,6.93a5.27,5.27,0,0,0,4.06-2.16s3.4-3.35,3.21-.49c0,0-2.9,4-2.57,5,0,0,5.73-4.53,6.19-7.55,0,0,.2-3.84-5.65-3.31A6.64,6.64,0,0,0,209.09,534.52Z"/><circle class="stenaria28" cx="211.75" cy="524.03" r="1.51"/><ellipse class="stenaria28" cx="208.54" cy="536.56" rx="1.32" ry="1.7" transform="translate(-364.22 478.81) rotate(-63)"/><path class="stenaria29" d="M220.62,527.56s5.08,1.46,1.5,6.83a11,11,0,0,1-4.38,3.79s-3,1-2.4-4C215.34,534.14,215.87,527.12,220.62,527.56Z"/></g><g id="flower_1-10" data-name="flower 1"><path class="stenaria30" d="M326,465.42s-1.33-2.61-3.63-.43a6,6,0,0,0-3.39,4.5S317.94,489,323.13,490l4.18,9.48,12.29-7.12-5.05-6.17s1.17-2.46-1.89-7.73Z"/><path class="stenaria31" d="M300.72,496.33s-4.37,9.29-2,10c0,0,.67,1.3,5-3.91,0,0,6.6-7.39,21.83-1.5l7.2,1.27s-4.75-11.6-13.52-13.46C319.19,488.71,309.36,485.51,300.72,496.33Z"/><path class="stenaria32" d="M323.13,490s-11.33-.94-8.73,4.68c0,0,4,3.86,7.57,5,0,0,8.28,2.56,10.74,2.45C332.71,502.17,328.48,493.08,323.13,490Z"/><path class="stenaria33" d="M334.62,486.05s-4.51-13.61-8.14-14c0,0-2.11.57,2,14.53,0,0-.62,5.24-4.38-7.87,0,0-1.58-3.87-3.13-1.19,0,0-1.76,8,2.2,12.52l3.78,9.43L339.64,492Z"/><path class="stenaria34" d="M335.44,484.31s8.29-11.28,27.05-4.15c0,0,3.57,2.67-2.17,2.81,0,0-13.89,0-19.06,9.18,0,0-1.69,3.88-2.5,3.79L333.5,499A22,22,0,0,1,335.44,484.31Z"/><path class="stenaria12" d="M332.46,497.51a99.37,99.37,0,0,1-1.78-17.85"/><path class="stenaria12" d="M330.31,500s-3.45-12.25-6.5-17.52"/><path class="stenaria12" d="M330,501.91s-4.93-3.85-5.28-15.67"/><path class="stenaria12" d="M333.1,498.94s1.8-10,.68-15.24"/><path class="stenaria16" d="M335.18,471s-6.24,6.75-4.47,11.39"/><path class="stenaria16" d="M320.93,477.48s4.29,1.74,2.37,7.64"/><path class="stenaria35" d="M339.69,498.5s4.65,12.4,3.53,18.39c0,0-.78,3.18-2.91.47,0,0-6.6-9.77-10-12.21,0,0-9.05-6.38-2.32-8,0,0,9-3.43,11.17-1.13A6.2,6.2,0,0,0,339.69,498.5Z"/></g><g id="flower_2-9" data-name="flower 2"><path class="stenaria20" d="M310.77,493.26s-2.88-2-5.82,1.1c0,0-2.86,1.92-.51,7.22,0,0,3.42,15.66,13.48,18.79,0,0,14.87,3.47,9.46-9.91C327.38,510.46,321,498.52,310.77,493.26Z"/><path class="stenaria21" d="M310.82,515.24s-4-9-1.05-12.07a6.28,6.28,0,0,1,4.32,3s2.94,5.35,4,3.31c0,0,.73-1.76-4.62-7.28,0,0-2.62-4.27,2.34-2.48,0,0,4,.89,5.92,2.65,0,0,10.34,11.39,5.39,16.8C327.11,519.19,319,524.49,310.82,515.24Z"/><path class="stenaria22" d="M325.52,515.46s-1.94-6.78-6.58-9.53"/><path class="stenaria22" d="M320.38,518.65s-7.12-3.83-5.79-8.38c0,0,.85-1.87,4.89.84,0,0,1.94,1.14-2-3.87,0,0-1.1-3,1.5-1.31,0,0,6.72,3.2,8.17,8.44C327.11,514.37,326.61,519.32,320.38,518.65Z"/><path class="stenaria23" d="M317,516.37s-10.65-3.17-21.32,6.66c0,0-7.92,7.88-4.1,14.5,0,0,.72,3.39,6.45-5a24.35,24.35,0,0,1,22.33-8.09s7.67-1.58,4.72-6.92Z"/><path class="stenaria24" d="M321.26,517.06s-12.43-4.89-21.27,9c0,0-2.12,3.62,3.94,1.71,0,0,5.53-5.37,17.42-3.57,0,0,5.06-.67,4-4.89C325.37,519.3,323.16,517,321.26,517.06Z"/><path class="stenaria22" d="M312.57,523.31s-2.43-4.1,6.18-3.94c0,0,6.62-.61,6.9,1.23,0,0-1.41,4.44-5.3,3.87C320.35,524.47,313.69,524.6,312.57,523.31Z"/><path class="stenaria25" d="M353.08,493.23s-9-4.56-24.09,7.37c0,0-8.09,7.59-2,15.27,0,0,3.87,5.11,9.34-8.1,0,0,6.69-9.2,15-11.33C351.34,496.44,358.05,495.7,353.08,493.23Z"/><path class="stenaria26" d="M323.47,527.41l6.14,7.08s2.48,3.5,2.77-.71l-1.19-13.08s1.76-7.73-.65-7.9c0,0-9.58-1.28-11.27,9.78C319.27,522.58,319.75,524.43,323.47,527.41Z"/><path class="stenaria12" d="M326,516.71s-6.24-5.88-3.81-10.24c0,0,2.06-3.48,4.61-1.19"/><path class="stenaria12" d="M323.46,519s-3.94-8.44-10.34-11.92"/><path class="stenaria16" d="M306.31,505s5.5-.82,8.21,3.6"/><path class="stenaria16" d="M315.21,494.49s-.12,10.26,5.21,11.85"/><path class="stenaria12" d="M322.26,518.86s-4.63-7.28-7.08-6.85"/><path class="stenaria27" d="M325.37,506.19s4.88-6.41,7.36-2.91a6,6,0,0,1-1.27,5.05s-2.74,4.64.35,3.65c0,0,3.63-4.28,4.83-4.19,0,0-3.41,7.52-6.6,8.86,0,0-4.17,1.26-5.17-5.31A7.53,7.53,0,0,1,325.37,506.19Z"/><circle class="stenaria28" cx="314.58" cy="511.97" r="1.71"/><ellipse class="stenaria28" cx="327.47" cy="505.02" rx="1.49" ry="1.92" transform="translate(-250.87 338.27) rotate(-40.96)"/><path class="stenaria29" d="M320.88,520.75s3,5.18,7.91-.22a12.61,12.61,0,0,0,3-5.84s.26-3.54-5.09-1.53C326.67,513.16,319.1,515.66,320.88,520.75Z"/></g><g id="flower_3-7" data-name="flower 3"><path class="stenaria4" d="M261.4,531.4s-6.13,4.85-15.75-11.09c0,0-9.31-12-8.12-19.32,0,0,2.2-1.87,7.45,1.82,0,0,12.14,10,15.12,11.25,0,0,7.21,4.88,6.88,11.62A13.89,13.89,0,0,1,261.4,531.4Z"/><path class="stenaria5" d="M271,529.69s-5.32-2.52-4,2.74c0,0,2.33,5.34,4.46,1.81C271.44,534.24,274.66,529.78,271,529.69Z"/><path class="stenaria6" d="M259.29,529.59s-6.27-3.78-4.78-7.15c0,0,1.73-1.09,4.31,2.6,0,0,2.82,3.3,1.89-.47,0,0-1.48-4.63,1.34-4,0,0,5.64,3.4,4.81,6.38l-3.81,4.37Z"/><path class="stenaria7" d="M235.46,557.16s-4.93-2.44,0-10.67c0,0,9.76-17.08,19.89-17.93,0,0,10.12-.84,13.4,4.34,0,0,5.8,4.57-5.19,8.62,0,0-7.69,1.25-17.9,8.44,0,0-5.73,2.43-7.31,6.82C238.37,556.78,238.75,559.68,235.46,557.16Z"/><path class="stenaria8" d="M247.75,534.12s2.81,6,8.3,3.94c0,0,3.47-4.86,6.05-3.83,0,0,6.49,5.38,8.19,2.46,0,0,1.3-4.82-9.67-7.93C260.62,528.76,249.56,526.67,247.75,534.12Z"/><path class="stenaria9" d="M262,529.91s-4.1,1.55,1.32,4.94c0,0,5,2.58,6.76-.07C270.11,534.78,265.41,528.74,262,529.91Z"/><path class="stenaria10" d="M268.77,532.9s1.81-2.11-1-5.41c0,0-4.07-3-5.18.62,0,0-.14.94,3.18,2.16Z"/><path class="stenaria11" d="M268.46,534.32s-4.23-3.62-5.8-1.9c0,0-1.58,1.73,2.11,1.81C264.77,534.23,268.14,535.73,268.46,534.32Z"/><path class="stenaria12" d="M271.28,535s-7.21-4.88-11.92-5c0,0-2-.16-5.09-3.07"/><path class="stenaria13" d="M270.58,530.79s-5.64-1.27-6-9.5c0,0,.49-8.79,10.77-14.34,0,0,13.12-7.59,17.27-5.62,0,0,2.83.63,1.25,2.36,0,0-5.11,7.6-8.88,11.2a14.42,14.42,0,0,0-3.46,4.86s-2.93,11-8.58,12.46Z"/><path class="stenaria14" d="M265.65,523a3.94,3.94,0,0,1,4.8-3.52s.78.47-.64,2.83c0,0-1.26,3,2.91-.39,0,0,2-1.49,1-2.59,0,0,.17-4.71,2,1.18,0,0,1.17,3.38-.48,6.12,0,0-.68,2.8,3.94-.83a13.42,13.42,0,0,1-6.23,6.4s-5-1.56-7-5.34A6.5,6.5,0,0,1,265.65,523Z"/><path class="stenaria15" d="M291.75,501.07a15.82,15.82,0,0,0-12.18,6.83s-1.18,2,3.37-1.17c0,0,6.92-4.38,4.48-2.11,0,0-6.6,5.63-5,6.58,0,0,.94,1.1,3.22-1.8,0,0,5.35-5.23,3.76.44,0,0,3.3-4.19,4.48-6.15C293.85,503.69,295.52,502,291.75,501.07Z"/><path class="stenaria12" d="M260.71,523.24s7.53,5.31,5.83,9"/><path class="stenaria16" d="M246,524.55s8.59,1,10.49,4"/><path class="stenaria16" d="M256.73,513.9s.06,7,5.78,9.89"/><path class="stenaria17" d="M267.76,527.49s.16-2,3.22.87c0,0,1.72,1.57,2.82.63,0,0,3.52-1.15,3.25.06,0,0-2.23,2.69-4.12,3.16C272.93,532.21,267.13,530.31,267.76,527.49Z"/><path class="stenaria18" d="M265.47,538.39s-4.79,3.52,1.08,7.06c0,0,9.17,6.06,9.88,7.55,0,0,1.48,2,6.42,4.41,0,0,5.09,3.07,6,1.5,0,0-.07-4.32-3.75-9.74,0,0-4.22-6.28-4.22-8.95,0,0-1.4-8.32-5.16-10.05C275.76,530.17,270.58,530.79,265.47,538.39Z"/><path class="stenaria5" d="M276.43,547.67s2.82,6,5.56,7.62c0,0,3.66,2.77,3.24,3,0,0,4.28,3.1.06-3.18,0,0-2.9-2.28-3.37-4.17a11.15,11.15,0,0,0-4.62-3.85S275.73,546.18,276.43,547.67Z"/><path class="stenaria19" d="M274,531.31s3.29,10.48,6,12.13c0,0,2.59,1,5.09,5.73,0,0-3.8-5.91-4-7.43,0,0-.43-9.13-5.37-11.57C275.76,530.17,273.31,529.86,274,531.31Z"/></g><g id="flower_2-10" data-name="flower 2"><path class="stenaria20" d="M266,477.67s-2.4-2.46-5.79,0c0,0-3.09,1.32-1.81,6.84,0,0,.45,15.67,9.54,20.5,0,0,13.65,6,10.9-7.8C278.79,497.21,274.8,484.58,266,477.67Z"/><path class="stenaria21" d="M262,498.79s-2.21-9.33,1.19-11.78a6.1,6.1,0,0,1,3.59,3.69s1.86,5.67,3.24,3.9c0,0,1-1.56-3.11-7.83,0,0-1.74-4.58,2.7-2,0,0,3.72,1.59,5.2,3.62,0,0,7.86,12.83,2.12,17.12C276.93,505.55,268.2,509.17,262,498.79Z"/><path class="stenaria22" d="M276.08,501.68s-.62-6.87-4.58-10.35"/><path class="stenaria22" d="M270.57,503.82s-6.15-5-4-9.12c0,0,1.15-1.63,4.54,1.7,0,0,1.66,1.45-1.25-4.09,0,0-.51-3.08,1.68-1,0,0,5.88,4.29,6.31,9.59C277.81,500.92,276.43,505.59,270.57,503.82Z"/><path class="stenaria23" d="M267.73,501s-9.66-5-21.7,2.51c0,0-9,6.13-6.58,13.19,0,0,.08,3.39,7.1-3.6a23.85,23.85,0,0,1,22.93-3.72s7.65-.11,5.79-5.79Z"/><path class="stenaria24" d="M271.7,502.44s-11.05-7-22.07,4.77c0,0-2.69,3.1,3.47,2.36,0,0,6.3-4.15,17.39-.26,0,0,5,.27,4.75-4C275.24,505.34,273.54,502.71,271.7,502.44Z"/><path class="stenaria22" d="M262.22,506.87s-1.59-4.38,6.64-2.67c0,0,6.48.63,6.42,2.45,0,0-2.17,4-5.8,2.74C269.48,509.39,263.06,508.31,262.22,506.87Z"/><path class="stenaria25" d="M306.61,485.34s-7.86-6-24.49,2.69c0,0-9.15,5.82-4.69,14.32,0,0,2.79,5.61,10.45-6.09,0,0,8.1-7.62,16.48-8.16C304.36,488.1,310.93,488.61,306.61,485.34Z"/><path class="stenaria26" d="M271.94,512.79l4.62,7.92s1.73,3.81,2.79-.18l1.23-12.78s3.1-7.11.81-7.71c0,0-9-3-12.6,7.34C268.79,507.38,268.91,509.24,271.94,512.79Z"/><path class="stenaria12" d="M276.35,503s-4.92-6.79-1.79-10.54c0,0,2.61-3,4.65-.3"/><path class="stenaria12" d="M273.47,504.65s-2.25-8.82-7.77-13.32"/><path class="stenaria16" d="M259.52,488.17s5.44.22,7.23,5"/><path class="stenaria16" d="M270,479.66s-2,9.84,2.85,12.33"/><path class="stenaria12" d="M272.33,504.35s-3.12-7.83-5.55-7.86"/><path class="stenaria27" d="M277.63,492.75s5.86-5.27,7.59-1.46a5.84,5.84,0,0,1-2.13,4.62s-3.48,4-.33,3.57c0,0,4.26-3.45,5.4-3.15,0,0-4.64,6.61-8,7.31,0,0-4.23.46-4-6A7.33,7.33,0,0,1,277.63,492.75Z"/><circle class="stenaria28" cx="266.21" cy="496.34" r="1.67"/><ellipse class="stenaria28" cx="279.85" cy="492.01" rx="1.46" ry="1.88" transform="translate(-209.68 207.84) rotate(-30.23)"/><path class="stenaria29" d="M270.67,505.92s1.93,5.52,7.63,1.23a12.3,12.3,0,0,0,3.92-5.08s.9-3.35-4.62-2.39C277.6,499.68,269.88,500.7,270.67,505.92Z"/></g><g id="flower_3-8" data-name="flower 3"><path class="stenaria4" d="M324.59,146.85s7-1.17,2.11-17.28c0,0-2.41-13.53-8-17.16,0,0-2.59.34-3.29,6.1,0,0-.67,14.2-1.63,17,0,0-1.09,7.79,3.63,11.66A12.55,12.55,0,0,0,324.59,146.85Z"/><path class="stenaria5" d="M317.65,152.24s1.53-5.1,4.26-1c0,0,2.16,4.8-1.49,4.09C320.42,155.31,315.47,154.76,317.65,152.24Z"/><path class="stenaria6" d="M324.66,144.34s1.27-6.5-1.9-7.54c0,0-1.78.5-.87,4.47,0,0,.51,3.89-1.45,1,0,0-2.21-3.8-3.5-1.52,0,0-1.14,5.84,1.36,7.08l5.25.1Z"/><path class="stenaria7" d="M357.59,145.07s1.36-4.79-7.16-6.45c0,0-17.38-3.81-24.08,2.47,0,0-6.7,6.27-5.22,11.62,0,0-.45,6.65,8.93,1.74,0,0,5.5-4.41,16.52-6.89,0,0,5.09-2.38,9-.77C355.57,146.79,357.29,148.81,357.59,145.07Z"/><path class="stenaria8" d="M334.7,139.34s2.29,5.51-2.4,8c0,0-5.35-.62-6.24,1.74,0,0-.31,7.61-3.3,7,0,0-4-2.05.54-11.29C323.3,144.73,328.6,136.05,334.7,139.34Z"/><path class="stenaria9" d="M323.21,146.37s3.53-1.81,2.52,3.88c0,0-1.28,4.89-4.15,4.49C321.58,154.74,320.38,147.93,323.21,146.37Z"/><path class="stenaria10" d="M321.13,152.71s-2.51-.07-3-4c0,0,.46-4.55,3.55-3.1,0,0,.72.47-.48,3.44Z"/><path class="stenaria11" d="M322.27,153.35s.14-5,2.25-5c0,0,2.11,0-.07,2.52C324.45,150.83,323.41,154,322.27,153.35Z"/><path class="stenaria12" d="M321,155.63s1.09-7.79,3.84-11c0,0,1.13-1.46,1-5.28"/><path class="stenaria13" d="M318.62,152.64s2.57-4.55-2.72-9.8c0,0-6.19-5-16.15-1.47,0,0-13,4.2-14.23,8.18,0,0-1.29,2.28.82,2.27,0,0,8.2,1.18,12.9.83a13,13,0,0,1,5.35.62s9.19,4.74,13.56,1.8Z"/><path class="stenaria14" d="M316.39,144.62a3.55,3.55,0,0,0-5.26,1.08s-.16.81,2.27,1.29c0,0,2.77,1-2,1.71,0,0-2.18.42-2.35-.88,0,0-3.26-2.74-.4,2a7.27,7.27,0,0,0,4.4,3.38s2.28,1.24-2.95,2.14a12.11,12.11,0,0,0,8.07-.3s2-4.28.64-7.9A5.84,5.84,0,0,0,316.39,144.62Z"/><path class="stenaria15" d="M285.86,148.82a14.31,14.31,0,0,1,12-4s2,.4-2.83,1.55c0,0-7.13,2-4.13,1.73,0,0,7.78-1,7.47.61,0,0,.16,1.3-3.16,1.07,0,0-6.75.41-2,2.8,0,0-4.81-.34-6.84-.73C286.34,151.82,284.2,151.92,285.86,148.82Z"/><path class="stenaria12" d="M319.54,141.44s-1,8.27,2.48,9.35"/><path class="stenaria16" d="M329.31,132.39s-4.55,6.37-3.7,9.44"/><path class="stenaria16" d="M315.69,133.11s4.64,4.27,3.13,9.88"/><path class="stenaria17" d="M318.12,148.75s-1.47-1.13-1.37,2.68c0,0,0,2.11-1.29,2.28,0,0-2.9,1.66-1.93,2.21,0,0,3.16.13,4.62-.85C318.15,155.07,320.39,150,318.12,148.75Z"/><path class="stenaria18" d="M326.82,153.82s5.26-1.08,4.08,5c0,0-1.5,9.82-.92,11.19,0,0,.41,2.19-.94,7,0,0-1,5.28-2.66,5,0,0-2.85-2.66-4.25-8.41,0,0-1.66-6.65-3.45-8.26,0,0-4.73-6-3.61-9.55C315.07,155.74,318.62,152.64,326.82,153.82Z"/><path class="stenaria5" d="M326.39,166.79s2.3,5.51,1.74,8.35c0,0-.36,4.14.08,4,0,0-.52,4.75-2.17-1.89,0,0,.22-3.33-.76-4.78a10.14,10.14,0,0,1,.22-5.44S325.82,165.42,326.39,166.79Z"/><path class="stenaria19" d="M316.88,155.26s5,8.56,4.48,11.4c0,0-.88,2.35.77,6.89,0,0-1.67-6.14-2.56-7.2,0,0-5.86-5.82-4.5-10.61C315.07,155.74,316.35,153.9,316.88,155.26Z"/></g><g id="flower_2-11" data-name="flower 2"><path class="stenaria20" d="M285.81,117.34s-.2-3.1,3.51-3.89c0,0,2.75-1.27,5.68,2.94,0,0,10.23,9.79,8,18.82,0,0-4.23,12.81-11.84,2.58C291.13,137.79,285.07,127.46,285.81,117.34Z"/><path class="stenaria21" d="M302.36,127.49s-4.91-7.13-8.62-6.35a5.52,5.52,0,0,0,.3,4.65s2.67,4.69.65,4.54c0,0-1.67-.26-3.36-6.84,0,0-2-3.94-3,.62,0,0-1.18,3.47-.72,5.69,0,0,3.84,13,10.2,11.8C297.85,141.6,305.57,137.94,302.36,127.49Z"/><path class="stenaria22" d="M295.77,138.69s-4.23-4.59-4.17-9.36"/><path class="stenaria22" d="M300.54,136.28s.38-7.14-3.67-8.23c0,0-1.79-.22-1.61,4.07,0,0,0,2-2-3.32,0,0-1.76-2.21-1.68.53,0,0-.68,6.55,2.61,10C294.21,139.38,298.18,141.29,300.54,136.28Z"/><path class="stenaria23" d="M300.38,132.67s2.51-9.5,14.83-13c0,0,9.6-2.34,12.84,3.59,0,0,2.22,2.1-6.72,2.57a21.56,21.56,0,0,0-16.39,13.13s-4.72,5.06-7.39.38Z"/><path class="stenaria24" d="M298.93,136.21s2-11.64,16.58-11.92c0,0,3.7.08-.52,3.76,0,0-6.6,1.71-10.72,11.51,0,0-2.84,3.5-5.54.78C298.73,140.34,298,137.6,298.93,136.21Z"/><path class="stenaria22" d="M307.65,132.53s-2-3.72-5.82,2.84c0,0-3.51,4.73-2.25,5.78,0,0,4,1,5.36-2.22C304.94,138.93,308.11,134,307.65,132.53Z"/><path class="stenaria25" d="M266.31,149.25s.71-8.93,16.64-14.79c0,0,9.45-2.61,12.44,5.53,0,0,2.08,5.27-10.41,3.32,0,0-10,.82-15.46,6.1C269.52,149.41,265.88,154.13,266.31,149.25Z"/><path class="stenaria26" d="M305.72,142.64l2.52,7.9s1.5,3.47-1.81,1.76l-9.32-6.92s-6.65-2.24-5.67-4.13c0,0,3.44-7.82,12.57-4C304,137.25,305.19,138.46,305.72,142.64Z"/><path class="stenaria12" d="M296.47,139.65s-1.57-7.41-6-7.59c0,0-3.57-.05-3,2.94"/><path class="stenaria12" d="M299.34,138.74s-4.55-6.86-4.23-13.29"/><path class="stenaria16" d="M296.74,119.39s-3.15,3.77-1.06,7.85"/><path class="stenaria16" d="M284.68,121.26s7.8,4.63,6.55,9.38"/><path class="stenaria12" d="M299.83,137.79s-3.36-6.84-1.91-8.49"/><path class="stenaria27" d="M288.84,134.31s-7.09.73-5.58,4.21a5.28,5.28,0,0,0,4.39,1.37s4.76.06,2.59,1.94c0,0-4.89.77-5.38,1.71,0,0,7.25.89,9.72-.9,0,0,2.87-2.56-1.63-6.35A6.61,6.61,0,0,0,288.84,134.31Z"/><circle class="stenaria28" cx="298.17" cy="128.83" r="1.51"/><ellipse class="stenaria28" cx="286.99" cy="135.35" rx="1.32" ry="1.7" transform="translate(-27.53 93.43) rotate(-17.66)"/><path class="stenaria29" d="M301.89,137.62s2.53,4.64-3.8,5.87a11.13,11.13,0,0,1-5.78-.45s-2.79-1.43,1.19-4.55C293.5,138.49,298.87,133.93,301.89,137.62Z"/></g><g id="flower_3-9" data-name="flower 3"><path class="stenaria4" d="M327.82,169.33s-7.76-1-3.18-19c0,0,2-15.07,8-19.35,0,0,2.88.24,3.94,6.57,0,0,1.43,15.66,2.63,18.67,0,0,1.6,8.55-3.43,13.06A13.87,13.87,0,0,1,327.82,169.33Z"/><path class="stenaria5" d="M335.76,174.94s-1.94-5.55-4.76-.92c0,0-2.15,5.41,1.85,4.45C332.85,178.47,338.3,177.62,335.76,174.94Z"/><path class="stenaria6" d="M327.62,166.55s-1.72-7.11,1.73-8.42c0,0,2,.46,1.18,4.9,0,0-.36,4.32,1.66,1,0,0,2.25-4.31,3.79-1.86,0,0,1.54,6.4-1.15,7.9l-5.8.37Z"/><path class="stenaria7" d="M291.26,169s-1.73-5.23,7.61-7.49c0,0,19-5.06,26.73,1.54,0,0,7.71,6.61,6.33,12.59,0,0,.83,7.33-9.78,2.36,0,0-6.29-4.59-18.59-6.8,0,0-5.75-2.37-10-.41C293.58,170.78,291.79,173.1,291.26,169Z"/><path class="stenaria8" d="M316.29,161.53s-2.27,6.19,3,8.68c0,0,5.88-1,7,1.6,0,0,.73,8.4,4,7.56,0,0,4.35-2.47-1.15-12.46C329.15,166.91,322.86,157.58,316.29,161.53Z"/><path class="stenaria9" d="M329.32,168.73s-4-1.82-2.59,4.41c0,0,1.66,5.34,4.81,4.76C331.54,177.9,332.53,170.31,329.32,168.73Z"/><path class="stenaria10" d="M331.93,175.63s2.78-.2,3.14-4.52c0,0-.73-5-4.08-3.25,0,0-.77.55.7,3.78Z"/><path class="stenaria11" d="M330.71,176.4s-.41-5.55-2.74-5.46c0,0-2.33.09.2,2.77C328.17,173.71,329.48,177.16,330.71,176.4Z"/><path class="stenaria12" d="M332.24,178.85s-1.6-8.56-4.79-12c0,0-1.32-1.56-1.4-5.78"/><path class="stenaria13" d="M334.71,175.43s-3.07-4.91,2.52-11c0,0,6.6-5.83,17.78-2.42,0,0,14.61,4,16.13,8.34,0,0,1.53,2.45-.8,2.55,0,0-9,1.7-14.21,1.55a14.34,14.34,0,0,0-5.89.95s-9.92,5.69-14.89,2.66Z"/><path class="stenaria14" d="M336.77,166.46a3.94,3.94,0,0,1,5.88.93s.21.89-2.46,1.54c0,0-3,1.19,2.32,1.79,0,0,2.44.35,2.56-1.09,0,0,3.47-3.19.54,2.22,0,0-1.58,3.21-4.69,4,0,0-2.47,1.48,3.36,2.22a13.43,13.43,0,0,1-8.93.07s-2.4-4.64-1.09-8.7A6.42,6.42,0,0,1,336.77,166.46Z"/><path class="stenaria15" d="M370.72,169.6a15.8,15.8,0,0,0-13.41-3.87s-2.23.54,3.2,1.58c0,0,8,1.84,4.65,1.7,0,0-8.65-.73-8.22,1.05,0,0-.12,1.44,3.54,1,0,0,7.49.13,2.33,3,0,0,5.31-.61,7.53-1.14C370.34,172.94,372.71,172.94,370.72,169.6Z"/><path class="stenaria12" d="M333.14,163.1s1.51,9.09-2.29,10.46"/><path class="stenaria16" d="M321.9,153.58s5.33,6.81,4.55,10.25"/><path class="stenaria16" d="M337,153.7s-4.92,5-3,11.07"/><path class="stenaria17" d="M335.07,171.11s1.57-1.32,1.65,2.89c0,0,.09,2.33,1.53,2.46,0,0,3.29,1.69,2.24,2.35,0,0-3.48.3-5.14-.71C335.35,178.1,332.62,172.64,335.07,171.11Z"/><path class="stenaria18" d="M325.71,177.13s-5.88-.93-4.27,5.74c0,0,2.14,10.78,1.57,12.33,0,0-.35,2.44,1.38,7.67,0,0,1.4,5.78,3.18,5.35,0,0,3-3.09,4.29-9.51,0,0,1.5-7.42,3.4-9.3,0,0,4.94-6.84,3.53-10.73C338.79,178.68,334.71,175.43,325.71,177.13Z"/><path class="stenaria5" d="M326.81,191.46s-2.26,6.19-1.51,9.3c0,0,.6,4.56.12,4.44,0,0,.8,5.22,2.3-2.2,0,0-.41-3.66.6-5.32a11.13,11.13,0,0,0-.51-6S327.38,189.91,326.81,191.46Z"/><path class="stenaria19" d="M336.75,178.24s-5.14,9.7-4.38,12.82c0,0,1.08,2.56-.51,7.65,0,0,1.54-6.87,2.47-8.08,0,0,6.19-6.72,4.46-11.95C338.79,178.68,337.28,176.71,336.75,178.24Z"/></g><g id="flower_2-12" data-name="flower 2"><path class="stenaria20" d="M369.24,134.8s.06-3.43-4.07-4.12c0,0-3.11-1.27-6.14,3.53,0,0-10.83,11.32-7.88,21.19,0,0,5.3,13.95,13.21,2.27C364.36,157.67,370.54,146,369.24,134.8Z"/><path class="stenaria21" d="M351.44,146.84s5.08-8.13,9.21-7.44a6.1,6.1,0,0,1-.09,5.15s-2.73,5.31-.5,5c0,0,1.83-.37,3.38-7.72,0,0,2-4.46,3.29.54,0,0,1.48,3.77,1.08,6.25,0,0-3.6,14.6-10.69,13.54C357.12,162.21,348.41,158.54,351.44,146.84Z"/><path class="stenaria22" d="M359.28,158.89s4.44-5.28,4.14-10.54"/><path class="stenaria22" d="M353.89,156.46s-.78-7.87,3.64-9.27c0,0,2-.33,2,4.42,0,0,.13,2.19,2-3.77,0,0,1.83-2.53,1.88.51,0,0,1.08,7.2-2.39,11.23C361,159.58,356.74,161.88,353.89,156.46Z"/><path class="stenaria23" d="M353.89,152.47s-3.25-10.38-17-13.67c0,0-10.72-2.12-14,4.59,0,0-2.35,2.43,7.56,2.52a23.81,23.81,0,0,1,18.75,13.7s5.46,5.36,8.19,0Z"/><path class="stenaria24" d="M355.66,156.3s-2.82-12.75-18.91-12.35c0,0-4.09.27.76,4.13,0,0,7.38,1.56,12.41,12.19,0,0,3.31,3.73,6.17.59C356.09,160.86,356.76,157.8,355.66,156.3Z"/><path class="stenaria22" d="M345.84,152.67s2-4.21,6.57,2.85c0,0,4.11,5,2.77,6.28,0,0-4.38,1.28-6-2.19C349.15,159.61,345.41,154.28,345.84,152.67Z"/><path class="stenaria25" d="M392.36,169.12s-1.24-9.84-19.13-15.53c0,0-10.57-2.43-13.47,6.72,0,0-2,5.93,11.67,3.15,0,0,11.11.41,17.38,6C388.81,169.45,393.06,174.49,392.36,169.12Z"/><path class="stenaria26" d="M348.47,163.74l-2.39,8.86s-1.49,3.91,2.08,1.85l10-8.1s7.23-2.8,6.05-4.84c0,0-4.19-8.47-14.08-3.81C350.1,157.7,348.86,159.1,348.47,163.74Z"/><path class="stenaria12" d="M358.55,160s1.37-8.27,6.23-8.69c0,0,4-.22,3.48,3.1"/><path class="stenaria12" d="M355.33,159.12s4.7-7.8,4-14.89"/><path class="stenaria16" d="M357.25,137.61s3.67,4,1.56,8.63"/><path class="stenaria16" d="M370.67,139.08s-8.39,5.5-6.77,10.69"/><path class="stenaria12" d="M354.74,158.09s3.38-7.72,1.7-9.47"/><path class="stenaria27" d="M366.72,153.71s7.87.46,6.38,4.37a5.87,5.87,0,0,1-4.79,1.74s-5.26.3-2.77,2.27c0,0,5.45.61,6,1.63,0,0-8,1.34-10.78-.52,0,0-3.3-2.69,1.48-7.09A7.34,7.34,0,0,1,366.72,153.71Z"/><circle class="stenaria28" cx="356.14" cy="148.11" r="1.67"/><ellipse class="stenaria28" cx="368.81" cy="154.77" rx="1.88" ry="1.46" transform="translate(123.25 470.48) rotate(-74.89)"/><path class="stenaria29" d="M352.46,158s-2.57,5.25,4.49,6.29a12.21,12.21,0,0,0,6.36-.78s3-1.71-1.54-5C361.77,158.56,355.62,153.78,352.46,158Z"/></g><g id="flower_3-10" data-name="flower 3"><path class="stenaria4" d="M282.21,186.84s7-1.17,2.11-17.28c0,0-2.42-13.53-8-17.16,0,0-2.59.34-3.29,6.1,0,0-.67,14.2-1.63,17,0,0-1.1,7.79,3.63,11.66A12.54,12.54,0,0,0,282.21,186.84Z"/><path class="stenaria5" d="M275.26,192.23s1.54-5.1,4.27-1c0,0,2.16,4.8-1.49,4.09C278,195.3,273.09,194.75,275.26,192.23Z"/><path class="stenaria6" d="M282.28,184.33s1.27-6.5-1.9-7.54c0,0-1.78.5-.87,4.47,0,0,.51,3.89-1.45,1,0,0-2.21-3.8-3.5-1.52,0,0-1.14,5.84,1.36,7.08l5.24.1Z"/><path class="stenaria7" d="M315.21,185.06s1.36-4.79-7.16-6.45c0,0-17.38-3.81-24.08,2.47,0,0-6.7,6.27-5.22,11.62,0,0-.45,6.65,8.93,1.74,0,0,5.5-4.41,16.51-6.89,0,0,5.1-2.38,9-.77C313.19,186.78,314.91,188.8,315.21,185.06Z"/><path class="stenaria8" d="M292.32,179.33s2.29,5.51-2.4,8c0,0-5.36-.62-6.24,1.74,0,0-.31,7.61-3.3,7,0,0-4-2,.54-11.29C280.92,184.72,286.22,176,292.32,179.33Z"/><path class="stenaria9" d="M280.83,186.36s3.53-1.81,2.52,3.88c0,0-1.28,4.89-4.15,4.49C279.2,194.73,278,187.92,280.83,186.36Z"/><path class="stenaria10" d="M278.75,192.7s-2.51-.07-3-4c0,0,.47-4.55,3.56-3.1,0,0,.72.47-.48,3.44Z"/><path class="stenaria11" d="M279.89,193.34s.14-5,2.25-5c0,0,2.11,0-.07,2.52C282.07,190.82,281,194,279.89,193.34Z"/><path class="stenaria12" d="M278.61,195.62s1.09-7.79,3.84-11.05c0,0,1.12-1.46,1-5.28"/><path class="stenaria13" d="M276.24,192.63s2.57-4.55-2.72-9.8c0,0-6.19-5-16.15-1.47,0,0-13,4.2-14.23,8.18,0,0-1.29,2.28.82,2.27,0,0,8.19,1.18,12.9.83a13,13,0,0,1,5.35.62s9.19,4.74,13.55,1.8Z"/><path class="stenaria14" d="M274,184.61a3.56,3.56,0,0,0-5.27,1.08s-.15.81,2.28,1.29c0,0,2.76,1-2,1.71,0,0-2.19.42-2.35-.88,0,0-3.26-2.74-.4,2a7.23,7.23,0,0,0,4.4,3.38s2.28,1.24-2.95,2.14a12.08,12.08,0,0,0,8.06-.3s2-4.28.64-7.9A5.79,5.79,0,0,0,274,184.61Z"/><path class="stenaria15" d="M243.48,188.81a14.31,14.31,0,0,1,12-4s2,.4-2.83,1.55c0,0-7.13,2-4.13,1.73,0,0,7.78-1,7.47.61,0,0,.16,1.3-3.16,1.07,0,0-6.76.42-2,2.8,0,0-4.81-.34-6.84-.73C244,191.81,241.82,191.91,243.48,188.81Z"/><path class="stenaria12" d="M277.16,181.43s-1,8.27,2.48,9.35"/><path class="stenaria16" d="M286.93,172.38s-4.55,6.37-3.7,9.44"/><path class="stenaria16" d="M273.31,173.1s4.64,4.27,3.13,9.88"/><path class="stenaria17" d="M275.73,188.74s-1.46-1.13-1.36,2.68c0,0,0,2.11-1.29,2.28,0,0-2.9,1.66-1.93,2.21,0,0,3.16.13,4.61-.85C275.76,195.06,278,190,275.73,188.74Z"/><path class="stenaria18" d="M284.44,193.81s5.26-1.08,4.07,5c0,0-1.49,9.82-.92,11.19,0,0,.42,2.19-.94,7,0,0-1,5.28-2.65,5,0,0-2.85-2.66-4.26-8.41,0,0-1.65-6.65-3.44-8.26,0,0-4.73-6-3.61-9.55C272.69,195.73,276.24,192.63,284.44,193.81Z"/><path class="stenaria5" d="M284,206.78s2.3,5.51,1.74,8.35c0,0-.36,4.14.08,4,0,0-.52,4.75-2.18-1.89,0,0,.23-3.33-.75-4.78a10.14,10.14,0,0,1,.22-5.44S283.44,205.41,284,206.78Z"/><path class="stenaria19" d="M274.5,195.25s5,8.56,4.48,11.4c0,0-.88,2.35.76,6.89,0,0-1.66-6.14-2.55-7.2,0,0-5.86-5.82-4.5-10.61C272.69,195.73,274,193.89,274.5,195.25Z"/></g><g id="flower_2-13" data-name="flower 2"><path class="stenaria20" d="M243.43,157.33s-.2-3.1,3.5-3.89c0,0,2.76-1.27,5.69,2.94,0,0,10.23,9.79,8,18.82,0,0-4.22,12.81-11.83,2.58C248.75,177.78,242.69,167.45,243.43,157.33Z"/><path class="stenaria21" d="M260,167.48s-4.92-7.13-8.62-6.35a5.54,5.54,0,0,0,.29,4.65s2.68,4.69.66,4.54c0,0-1.67-.26-3.37-6.84,0,0-2-3.94-2.95.63,0,0-1.18,3.46-.72,5.68,0,0,3.83,13.05,10.19,11.8C255.46,181.59,263.18,177.93,260,167.48Z"/><path class="stenaria22" d="M253.39,178.68s-4.23-4.59-4.17-9.36"/><path class="stenaria22" d="M258.16,176.27s.38-7.14-3.67-8.23c0,0-1.79-.22-1.61,4.08,0,0,0,2-2-3.33,0,0-1.76-2.21-1.68.53,0,0-.68,6.55,2.61,10.05C251.83,179.37,255.8,181.28,258.16,176.27Z"/><path class="stenaria23" d="M258,172.66s2.51-9.5,14.83-13c0,0,9.59-2.34,12.84,3.59,0,0,2.22,2.1-6.72,2.57a21.56,21.56,0,0,0-16.39,13.13s-4.72,5.06-7.39.38Z"/><path class="stenaria24" d="M256.55,176.2s2-11.64,16.58-11.91c0,0,3.7.07-.53,3.75,0,0-6.59,1.71-10.71,11.51,0,0-2.84,3.5-5.54.78C256.35,180.33,255.61,177.59,256.55,176.2Z"/><path class="stenaria22" d="M265.27,172.52s-2-3.72-5.82,2.84c0,0-3.51,4.73-2.25,5.78,0,0,4,1,5.36-2.22C262.56,178.92,265.73,174,265.27,172.52Z"/><path class="stenaria25" d="M223.92,189.24s.72-8.93,16.65-14.79c0,0,9.45-2.61,12.44,5.53,0,0,2.07,5.27-10.41,3.32,0,0-10,.82-15.46,6.11C227.14,189.41,223.5,194.12,223.92,189.24Z"/><path class="stenaria26" d="M263.34,182.63l2.52,7.9s1.5,3.47-1.81,1.76l-9.32-6.92s-6.65-2.24-5.67-4.13c0,0,3.44-7.82,12.57-4C261.63,177.24,262.8,178.45,263.34,182.63Z"/><path class="stenaria12" d="M254.09,179.64s-1.57-7.41-6-7.59c0,0-3.57-.05-3,2.94"/><path class="stenaria12" d="M257,178.73s-4.55-6.86-4.23-13.29"/><path class="stenaria16" d="M254.36,159.38s-3.15,3.77-1.06,7.85"/><path class="stenaria16" d="M242.3,161.25s7.8,4.63,6.55,9.38"/><path class="stenaria12" d="M257.45,177.78s-3.36-6.84-1.91-8.49"/><path class="stenaria27" d="M246.46,174.3s-7.09.73-5.59,4.21a5.31,5.31,0,0,0,4.4,1.37s4.76.06,2.59,1.94c0,0-4.9.77-5.39,1.71,0,0,7.25.9,9.73-.9,0,0,2.87-2.56-1.63-6.34A6.59,6.59,0,0,0,246.46,174.3Z"/><circle class="stenaria28" cx="255.78" cy="168.82" r="1.51"/><ellipse class="stenaria28" cx="244.61" cy="175.34" rx="1.32" ry="1.7" transform="translate(-41.66 82.46) rotate(-17.66)"/><path class="stenaria29" d="M259.51,177.61s2.53,4.64-3.81,5.87a11.09,11.09,0,0,1-5.77-.45s-2.79-1.43,1.19-4.55C251.12,178.48,256.49,173.92,259.51,177.61Z"/></g><g id="flower_3-11" data-name="flower 3"><path class="stenaria4" d="M285.44,209.32s-7.76-.95-3.18-19c0,0,2-15.07,8-19.35,0,0,2.88.24,3.94,6.57,0,0,1.43,15.66,2.63,18.67,0,0,1.6,8.55-3.43,13.06A13.87,13.87,0,0,1,285.44,209.32Z"/><path class="stenaria5" d="M293.38,214.93s-1.94-5.55-4.76-.92c0,0-2.15,5.41,1.85,4.45C290.47,218.46,295.91,217.61,293.38,214.93Z"/><path class="stenaria6" d="M285.24,206.54s-1.72-7.11,1.73-8.41c0,0,2,.45,1.18,4.89,0,0-.37,4.32,1.66,1,0,0,2.25-4.31,3.79-1.86,0,0,1.54,6.4-1.15,7.9l-5.8.37Z"/><path class="stenaria7" d="M248.88,209s-1.73-5.23,7.61-7.49c0,0,19-5.06,26.72,1.54,0,0,7.72,6.61,6.34,12.59,0,0,.83,7.33-9.78,2.36,0,0-6.29-4.59-18.59-6.8,0,0-5.75-2.37-10-.41C251.2,210.77,249.41,213.09,248.88,209Z"/><path class="stenaria8" d="M273.91,201.52s-2.27,6.19,3,8.68c0,0,5.89-1,7,1.6,0,0,.73,8.4,4,7.56,0,0,4.34-2.47-1.16-12.46C286.76,206.9,280.48,197.57,273.91,201.52Z"/><path class="stenaria9" d="M286.94,208.72s-4-1.82-2.59,4.41c0,0,1.65,5.35,4.81,4.76C289.16,217.89,290.15,210.3,286.94,208.72Z"/><path class="stenaria10" d="M289.55,215.62s2.78-.2,3.14-4.52c0,0-.73-5-4.08-3.25,0,0-.77.56.7,3.78Z"/><path class="stenaria11" d="M288.32,216.39s-.4-5.55-2.73-5.46c0,0-2.33.09.2,2.77C285.79,213.7,287.1,217.15,288.32,216.39Z"/><path class="stenaria12" d="M289.86,218.84s-1.6-8.56-4.79-12c0,0-1.32-1.56-1.4-5.78"/><path class="stenaria13" d="M292.33,215.42s-3.07-4.91,2.52-11c0,0,6.6-5.83,17.77-2.42,0,0,14.62,4,16.14,8.34,0,0,1.53,2.45-.8,2.55,0,0-9,1.7-14.21,1.55a14.33,14.33,0,0,0-5.89,1s-9.92,5.69-14.89,2.66Z"/><path class="stenaria14" d="M294.39,206.45a3.94,3.94,0,0,1,5.88.93s.21.89-2.46,1.54c0,0-3,1.19,2.32,1.79,0,0,2.44.35,2.56-1.09,0,0,3.46-3.19.54,2.22,0,0-1.58,3.21-4.69,4,0,0-2.47,1.49,3.36,2.22a13.43,13.43,0,0,1-8.93.07s-2.4-4.64-1.1-8.7A6.47,6.47,0,0,1,294.39,206.45Z"/><path class="stenaria15" d="M328.34,209.59a15.8,15.8,0,0,0-13.41-3.87s-2.23.54,3.2,1.58c0,0,8,1.84,4.65,1.7,0,0-8.65-.73-8.22,1.05,0,0-.12,1.44,3.54,1,0,0,7.48.13,2.33,3,0,0,5.31-.61,7.53-1.14C328,212.93,330.33,212.93,328.34,209.59Z"/><path class="stenaria12" d="M290.76,203.09s1.51,9.09-2.29,10.46"/><path class="stenaria16" d="M279.52,193.57s5.33,6.81,4.55,10.25"/><path class="stenaria16" d="M294.6,193.69s-4.92,5-3,11.07"/><path class="stenaria17" d="M292.69,211.1s1.57-1.32,1.64,2.89c0,0,.1,2.33,1.54,2.46,0,0,3.29,1.69,2.24,2.35,0,0-3.48.3-5.14-.71C293,218.09,290.24,212.63,292.69,211.1Z"/><path class="stenaria18" d="M283.33,217.12s-5.88-.93-4.27,5.74c0,0,2.14,10.78,1.57,12.33,0,0-.35,2.44,1.38,7.67,0,0,1.4,5.78,3.18,5.35,0,0,3-3.09,4.29-9.51,0,0,1.5-7.42,3.4-9.29,0,0,4.94-6.85,3.53-10.74C296.41,218.67,292.33,215.42,283.33,217.12Z"/><path class="stenaria5" d="M284.43,231.45s-2.26,6.19-1.51,9.3c0,0,.6,4.56.12,4.44,0,0,.8,5.23,2.3-2.2,0,0-.41-3.66.6-5.32a11.13,11.13,0,0,0-.51-6S285,229.9,284.43,231.45Z"/><path class="stenaria19" d="M294.37,218.23s-5.14,9.7-4.39,12.82c0,0,1.09,2.56-.5,7.65,0,0,1.54-6.87,2.47-8.08,0,0,6.19-6.72,4.46-12C296.41,218.67,294.9,216.7,294.37,218.23Z"/></g><g id="flower_2-14" data-name="flower 2"><path class="stenaria20" d="M326.85,174.79s.07-3.43-4.07-4.12c0,0-3.11-1.27-6.13,3.53,0,0-10.83,11.32-7.88,21.19,0,0,5.3,14,13.21,2.27C322,197.66,328.16,185.94,326.85,174.79Z"/><path class="stenaria21" d="M309.06,186.83s5.08-8.13,9.21-7.44a6.1,6.1,0,0,1-.09,5.15s-2.73,5.31-.5,5.05c0,0,1.82-.37,3.38-7.72,0,0,2-4.46,3.29.54,0,0,1.48,3.77,1.08,6.25,0,0-3.6,14.6-10.69,13.54C314.74,202.2,306,198.53,309.06,186.83Z"/><path class="stenaria22" d="M316.9,198.88s4.44-5.28,4.14-10.54"/><path class="stenaria22" d="M311.51,196.45s-.78-7.87,3.64-9.27c0,0,2-.33,2,4.42,0,0,.13,2.2,2-3.77,0,0,1.83-2.53,1.88.51,0,0,1.08,7.2-2.39,11.23C318.65,199.57,314.36,201.87,311.51,196.45Z"/><path class="stenaria23" d="M311.51,192.46s-3.25-10.38-17-13.67c0,0-10.72-2.12-14,4.59,0,0-2.35,2.43,7.55,2.52a23.82,23.82,0,0,1,18.76,13.7s5.46,5.36,8.19.05Z"/><path class="stenaria24" d="M313.28,196.29s-2.82-12.75-18.91-12.35c0,0-4.09.27.76,4.13,0,0,7.38,1.56,12.41,12.19,0,0,3.31,3.73,6.17.59C313.71,200.85,314.38,197.79,313.28,196.29Z"/><path class="stenaria22" d="M303.46,192.66s2-4.21,6.57,2.85c0,0,4.11,5.05,2.77,6.28,0,0-4.38,1.28-6-2.19C306.77,199.6,303,194.27,303.46,192.66Z"/><path class="stenaria25" d="M350,209.11s-1.23-9.84-19.12-15.53c0,0-10.57-2.43-13.48,6.72,0,0-2,5.93,11.68,3.15,0,0,11.11.42,17.38,6C346.43,209.44,350.68,214.48,350,209.11Z"/><path class="stenaria26" d="M306.09,203.73l-2.4,8.86s-1.48,3.91,2.09,1.85l10-8.1s7.24-2.8,6.06-4.84c0,0-4.19-8.47-14.08-3.81C307.72,197.69,306.48,199.09,306.09,203.73Z"/><path class="stenaria12" d="M316.17,200s1.37-8.27,6.23-8.68c0,0,4-.23,3.48,3.09"/><path class="stenaria12" d="M313,199.11s4.69-7.8,4-14.89"/><path class="stenaria16" d="M314.87,177.6s3.66,4,1.56,8.63"/><path class="stenaria16" d="M328.29,179.07s-8.4,5.5-6.77,10.69"/><path class="stenaria12" d="M312.36,198.08s3.38-7.72,1.69-9.47"/><path class="stenaria27" d="M324.34,193.7s7.86.46,6.37,4.38a5.85,5.85,0,0,1-4.78,1.73s-5.26.3-2.77,2.27c0,0,5.45.61,6,1.63,0,0-8,1.34-10.78-.52,0,0-3.3-2.69,1.48-7.09A7.3,7.3,0,0,1,324.34,193.7Z"/><circle class="stenaria28" cx="313.76" cy="188.1" r="1.67"/><ellipse class="stenaria28" cx="326.43" cy="194.76" rx="1.88" ry="1.46" transform="matrix(0.26, -0.97, 0.97, 0.26, 53.31, 459.13)"/><path class="stenaria29" d="M310.08,198s-2.57,5.25,4.49,6.29a12.26,12.26,0,0,0,6.36-.77s3-1.72-1.54-5C319.39,198.55,313.23,193.77,310.08,198Z"/></g><g id="flower_3-12" data-name="flower 3"><path class="stenaria4" d="M277.3,314.18s-10.56,1.85-11.74-23.67c0,0-3.37-20.59,2.84-28.61,0,0,3.88-.83,7.79,7.06,0,0,8.12,20,10.88,23.46,0,0,5.51,10.59.7,18.52A19.14,19.14,0,0,1,277.3,314.18Z"/><path class="stenaria5" d="M290,318.38s-4.77-6.51-6.62.69c0,0-.67,8,4.2,5.11C287.55,324.18,294.36,320.9,290,318.38Z"/><path class="stenaria6" d="M275.94,310.62s-5.1-8.66-1.09-11.74c0,0,2.8-.19,3.5,5.95,0,0,1.25,5.82,2.58.67,0,0,1.24-6.56,4.23-3.95,0,0,4.58,7.79,1.64,10.83l-7.46,2.79Z"/><path class="stenaria7" d="M229.17,328.29s-4.36-6.17,7-12.85c0,0,23-14.23,35.71-8.62,0,0,12.76,5.6,13.33,14,0,0,4,9.29-11.9,7,0,0-10.09-3.53-27.11-1.53,0,0-8.5-.83-13.27,3.44C232.93,329.73,231.49,333.48,229.17,328.29Z"/><path class="stenaria8" d="M259.05,308.53s-.51,9,7.45,10.19c0,0,7.35-3.6,9.8-.67,0,0,4.3,10.74,8.26,8.33,0,0,4.72-5-6.48-15.89C278.08,310.49,266.12,300.74,259.05,308.53Z"/><path class="stenaria9" d="M279,312.8s-6-.81-1.65,6.82c0,0,4.3,6.36,8.21,4.34C285.6,324,283.87,313.59,279,312.8Z"/><path class="stenaria10" d="M285.21,320.82s3.57-1.37,2.32-7.19c0,0-2.95-6.27-6.65-2.64,0,0-.79,1,2.42,4.68Z"/><path class="stenaria11" d="M283.91,322.31s-2.74-7.12-5.76-6.07c0,0-3,1.05,1.36,3.56C279.51,319.8,282.6,323.81,283.91,322.31Z"/><path class="stenaria12" d="M286.9,324.92s-5.51-10.59-11.08-13.87c0,0-2.35-1.53-4.13-7"/><path class="stenaria13" d="M288.78,319.45s-6-5.22-1-15.4c0,0,6.33-10.28,22.37-10.25,0,0,20.78-.57,24.5,4.52,0,0,3,2.61,0,3.66,0,0-11.14,5.83-18.05,7.7a19.81,19.81,0,0,0-7.35,3.6s-10.75,11.42-18.49,9.42Z"/><path class="stenaria14" d="M287.92,306.85s3.05-4.71,8.08-1.11c0,0,.64,1.08-2.61,3,0,0-3.47,2.76,3.75,1.43,0,0,3.35-.51,2.93-2.45,0,0,3.28-5.57,1.59,2.7,0,0-.79,4.84-4.58,7.07,0,0-2.65,2.93,5.3,1.57a18.44,18.44,0,0,1-11.7,3.65s-5-5.14-4.9-11A8.86,8.86,0,0,1,287.92,306.85Z"/><path class="stenaria15" d="M333.74,297.46a21.7,21.7,0,0,0-19.16.26s-2.7,1.59,4.84.79c0,0,11.2-.76,6.78.39,0,0-11.65,2.48-10.38,4.64,0,0,.42,1.94,5.06-.06,0,0,9.88-2.82,4.26,3,0,0,6.72-2.91,9.43-4.5C334.57,302,337.68,301,333.74,297.46Z"/><path class="stenaria12" d="M281.81,303.89s5.6,11.32,1.16,14.63"/><path class="stenaria16" d="M263.26,295.87s9.72,6.81,10.06,11.63"/><path class="stenaria16" d="M283.11,290s-4.48,8.47.51,15.72"/><path class="stenaria17" d="M287.53,313.63s1.53-2.36,3.31,3.15c0,0,1.05,3,3,2.61,0,0,5,.91,3.89,2.19,0,0-4.46,1.78-7,1.12C290.68,322.7,284.92,316.62,287.53,313.63Z"/><path class="stenaria18" d="M277.64,325.27s-8.09,1.12-3.31,9.23c0,0,7.09,13.3,7,15.56,0,0,.5,3.34,4.86,9.52,0,0,4.14,7,6.3,5.76,0,0,2.74-5.25,1.85-14.19,0,0-1-10.35.76-13.56,0,0,3.76-10.95.36-15.5C295.43,322.09,288.78,319.45,277.64,325.27Z"/><path class="stenaria5" d="M284.8,343.63s-.51,9,1.71,12.83c0,0,2.61,5.74,1.93,5.78,0,0,3.13,6.53,2.15-3.81,0,0-2-4.64-1.34-7.22a15.4,15.4,0,0,0-3.05-7.67S284.92,341.38,284.8,343.63Z"/><path class="stenaria19" d="M292.58,322.33s-2.88,14.78-.66,18.57c0,0,2.45,2.93,2.39,10.25,0,0-.72-9.63,0-11.6,0,0,5.45-11.28,1.1-17.46C295.43,322.09,292.67,320.11,292.58,322.33Z"/></g><g id="flower_3-13" data-name="flower 3"><path class="stenaria4" d="M378.74,214.43s-8.26-1.34-2.61-20.46c0,0,2.77-16,9.4-20.37,0,0,3.07.38,3.94,7.2,0,0,.88,16.81,2,20.07,0,0,1.35,9.22-4.22,13.84A14.93,14.93,0,0,1,378.74,214.43Z"/><path class="stenaria5" d="M387,220.76s-1.85-6-5.05-1.18c0,0-2.53,5.7,1.79,4.83C383.75,224.41,389.61,223.73,387,220.76Z"/><path class="stenaria6" d="M378.65,211.45s-1.55-7.68,2.2-8.93c0,0,2.11.57,1.06,5.28,0,0-.57,4.61,1.73,1.15,0,0,2.59-4.52,4.13-1.83,0,0,1.39,6.91-1.56,8.4l-6.22.15Z"/><path class="stenaria7" d="M339.65,212.54s-1.64-5.66,8.45-7.69c0,0,20.55-4.63,28.53,2.76,0,0,8,7.39,6.25,13.73,0,0,.58,7.87-10.56,2.12,0,0-6.54-5.18-19.6-8.05,0,0-6.06-2.78-10.66-.85C342.06,214.56,340,217,339.65,212.54Z"/><path class="stenaria8" d="M366.73,205.6s-2.68,6.54,2.89,9.41c0,0,6.34-.77,7.4,2,0,0,.43,9,4,8.25,0,0,4.75-2.46-.72-13.37C380.26,211.9,373.93,201.66,366.73,205.6Z"/><path class="stenaria9" d="M380.38,213.85s-4.19-2.12-3,4.61c0,0,1.55,5.78,4.95,5.29C382.37,223.75,383.74,215.67,380.38,213.85Z"/><path class="stenaria10" d="M382.88,221.34s3-.1,3.55-4.71c0,0-.58-5.38-4.23-3.65,0,0-.85.57.59,4.08Z"/><path class="stenaria11" d="M381.54,222.11s-.2-6-2.7-6c0,0-2.49,0,.1,3C378.94,219.13,380.19,222.88,381.54,222.11Z"/><path class="stenaria12" d="M383.08,224.8s-1.36-9.22-4.63-13.06c0,0-1.34-1.73-1.25-6.24"/><path class="stenaria13" d="M385.86,221.24s-3.08-5.38,3.16-11.62c0,0,7.29-6,19.11-1.85,0,0,15.47,4.89,16.91,9.59,0,0,1.54,2.69-1,2.69,0,0-9.7,1.45-15.27,1.07a15.37,15.37,0,0,0-6.33.78s-10.85,5.67-16,2.22Z"/><path class="stenaria14" d="M388.44,211.73a4.22,4.22,0,0,1,6.25,1.24s.19,1-2.69,1.54c0,0-3.27,1.16,2.4,2,0,0,2.6.47,2.79-1.06,0,0,3.84-3.27.48,2.4,0,0-1.82,3.36-5.18,4,0,0-2.7,1.48,3.5,2.51a14.38,14.38,0,0,1-9.55-.3s-2.38-5.07-.81-9.35A6.9,6.9,0,0,1,388.44,211.73Z"/><path class="stenaria15" d="M424.63,216.5a17,17,0,0,0-14.19-4.7s-2.4.49,3.36,1.83c0,0,8.46,2.29,4.9,2,0,0-9.22-1.15-8.83.77,0,0-.2,1.54,3.74,1.25,0,0,8,.45,2.37,3.3,0,0,5.7-.43,8.1-.91C424.08,220.05,426.62,220.15,424.63,216.5Z"/><path class="stenaria12" d="M384.69,208s1.25,9.78-2.88,11.08"/><path class="stenaria16" d="M373.06,197.34s5.43,7.5,4.45,11.14"/><path class="stenaria16" d="M389.2,198.09s-5.47,5.09-3.64,11.72"/><path class="stenaria17" d="M386.43,216.63s1.73-1.35,1.64,3.17c0,0,0,2.49,1.54,2.68,0,0,3.44,2,2.3,2.61,0,0-3.74.18-5.47-1C386.44,224.12,383.74,218.17,386.43,216.63Z"/><path class="stenaria18" d="M376.16,222.69s-6.24-1.24-4.8,6c0,0,1.84,11.62,1.17,13.25,0,0-.48,2.6,1.16,8.26,0,0,1.25,6.24,3.17,5.86,0,0,3.36-3.18,5-10,0,0,1.91-7.87,4-9.8,0,0,5.57-7.11,4.22-11.33C390.09,224.89,385.86,221.24,376.16,222.69Z"/><path class="stenaria5" d="M376.75,238.06s-2.68,6.53-2,9.89c0,0,.46,4.9-.06,4.76,0,0,.65,5.61,2.56-2.26,0,0-.29-3.94.86-5.67a12,12,0,0,0-.29-6.44S377.42,236.42,376.75,238.06Z"/><path class="stenaria19" d="M387.93,224.33s-5.9,10.17-5.23,13.53c0,0,1.06,2.78-.85,8.16,0,0,1.93-7.28,3-8.54,0,0,6.91-6.93,5.27-12.59C390.09,224.89,388.56,222.72,387.93,224.33Z"/></g><g id="flower_3-14" data-name="flower 3"><path class="stenaria4" d="M324.58,198.13s-6.39,3.4-12.47-12.73c0,0-6.47-12.49-4.16-18.93,0,0,2.32-1.34,6.47,2.9,0,0,9.38,11.12,11.88,12.77,0,0,5.75,5.64,4.32,11.73A12.91,12.91,0,0,1,324.58,198.13Z"/><path class="stenaria5" d="M333.58,198.18s-4.42-3.18-4.1,1.83c0,0,1.24,5.25,3.76,2.39C333.24,202.4,336.92,198.88,333.58,198.18Z"/><path class="stenaria6" d="M323,196.14s-5.07-4.49-3.14-7.31c0,0,1.75-.71,3.48,3.09,0,0,2,3.47,1.8-.11,0,0-.58-4.47,1.89-3.42,0,0,4.56,4,3.31,6.6l-4.2,3.35Z"/><path class="stenaria7" d="M296.67,217.24s-4.09-3.05,1.8-9.71c0,0,11.74-13.91,21.1-13,0,0,9.35.93,11.47,6.2,0,0,4.51,5.12-6.17,7,0,0-7.21-.15-17.7,4.69,0,0-5.63,1.24-7.8,5C299.37,217.37,299.24,220.08,296.67,217.24Z"/><path class="stenaria8" d="M311.7,198.32s1.56,5.91,6.9,5c0,0,4-3.84,6.15-2.48,0,0,5,6,7,3.62,0,0,2-4.17-7.47-8.84C324.31,195.6,314.6,191.85,311.7,198.32Z"/><path class="stenaria9" d="M325.41,196.88s-4,.73.37,4.72c0,0,4.08,3.18,6.17,1.07C332,202.67,328.67,196.38,325.41,196.88Z"/><path class="stenaria10" d="M331,200.74s2-1.62,0-5.1c0,0-3.21-3.4-4.82-.3,0,0-.29.83,2.53,2.5Z"/><path class="stenaria11" d="M330.52,202s-3.25-4-5-2.7c0,0-1.72,1.31,1.63,2C327.18,201.27,330,203.2,330.52,202Z"/><path class="stenaria12" d="M333,203s-5.74-5.65-10-6.59c0,0-1.83-.48-4.12-3.64"/><path class="stenaria13" d="M333,199.12s-4.93-2.1-3.89-9.66c0,0,1.91-7.92,12.21-11.25,0,0,13.2-4.7,16.65-2.22,0,0,2.47,1,.75,2.36,0,0-5.93,6.06-10,8.7a13.5,13.5,0,0,0-4,3.85s-4.51,9.57-9.89,9.9Z"/><path class="stenaria14" d="M329.86,191.21a3.64,3.64,0,0,1,4.95-2.4s.63.56-1.05,2.47c0,0-1.65,2.49,2.71.13,0,0,2-1,1.36-2.18,0,0,.94-4.26,1.59,1.4a7.43,7.43,0,0,1-1.47,5.49s-1.08,2.43,3.73-.1a12.41,12.41,0,0,1-6.74,4.78s-4.28-2.25-5.44-6A6,6,0,0,1,329.86,191.21Z"/><path class="stenaria15" d="M357.28,175.62a14.63,14.63,0,0,0-12.23,4.17s-1.4,1.58,3.27-.5c0,0,7-2.83,4.43-1.17,0,0-7,4-5.69,5.14,0,0,.67,1.16,3.23-1.1,0,0,5.75-3.86,3.36,1,0,0,3.7-3.27,5.11-4.85C358.76,178.35,360.56,177.09,357.28,175.62Z"/><path class="stenaria12" d="M325.32,190.59s6,6.09,3.8,9.14"/><path class="stenaria16" d="M311.75,189.33s7.66,2.34,8.88,5.35"/><path class="stenaria16" d="M323.26,181.42s-1.11,6.37,3.61,10"/><path class="stenaria17" d="M331,195.64s.49-1.83,2.78,1.33c0,0,1.3,1.72,2.46,1.05,0,0,3.4-.46,3,.59,0,0-2.48,2.08-4.28,2.19C334.94,200.8,330,198.1,331,195.64Z"/><path class="stenaria18" d="M327.11,205.18s-4.95,2.4-.19,6.61c0,0,7.33,7,7.72,8.52,0,0,1,2,5.11,5.08,0,0,4.12,3.65,5.24,2.38,0,0,.66-3.94-1.78-9.49,0,0-2.79-6.42-2.34-8.85,0,0,.12-7.8-3-10C337.86,199.42,333,199.12,327.11,205.18Z"/><path class="stenaria5" d="M335.54,215.46s1.56,5.9,3.78,7.86c0,0,2.87,3.14,2.44,3.31,0,0,3.38,3.53.59-2.89,0,0-2.26-2.57-2.37-4.36a10.36,10.36,0,0,0-3.56-4.28S335.15,214,335.54,215.46Z"/><path class="stenaria19" d="M336.08,200.16s1.24,10.09,3.46,12.05c0,0,2.18,1.37,3.67,6.07,0,0-2.47-6-2.4-7.43,0,0,1.13-8.38-2.95-11.43C337.86,199.42,335.67,198.73,336.08,200.16Z"/></g><g id="flower_3-15" data-name="flower 3"><path class="stenaria4" d="M388.15,163.71s-4.66-5.53,9.82-14.87c0,0,10.86-9,17.64-8.05,0,0,1.8,2-1.48,6.94,0,0-8.9,11.51-10,14.3,0,0-4.31,6.8-10.56,6.69A12.85,12.85,0,0,1,388.15,163.71Z"/><path class="stenaria5" d="M390,172.52s2.18-5-2.64-3.62c0,0-4.88,2.31-1.55,4.18C385.8,173.08,390,175.94,390,172.52Z"/><path class="stenaria6" d="M389.76,161.71s3.32-5.9,6.48-4.61c0,0,1.06,1.56-2.28,4.06,0,0-3,2.69.48,1.72,0,0,4.24-1.49,3.74,1.13,0,0-3,5.31-5.76,4.63l-4.16-3.4Z"/><path class="stenaria7" d="M363.6,140.44s2.12-4.64,9.87-.28c0,0,16.07,8.56,17.13,17.89,0,0,1.06,9.34-3.64,12.52,0,0-4.06,5.49-8.12-4.56,0,0-1.36-7.08-8.3-16.33,0,0-2.4-5.23-6.5-6.57C364,143.11,361.36,143.55,363.6,140.44Z"/><path class="stenaria8" d="M385.25,151.16s-5.44,2.77-3.41,7.79c0,0,4.59,3.07,3.71,5.49,0,0-4.8,6.15-2.05,7.64,0,0,4.49,1.07,7.07-9.17C390.57,162.91,392.19,152.64,385.25,151.16Z"/><path class="stenaria9" d="M389.54,164.26s-1.55-3.75-4.53,1.35c0,0-2.25,4.66.25,6.26C385.26,171.87,390.72,167.35,389.54,164.26Z"/><path class="stenaria10" d="M387,170.57s2,1.62,5-1.08c0,0,2.65-3.85-.71-4.77,0,0-.88-.11-1.92,3Z"/><path class="stenaria11" d="M385.65,170.32s3.22-4,1.59-5.42c0,0-1.64-1.4-1.62,2C385.62,166.91,384.33,170.07,385.65,170.32Z"/><path class="stenaria12" d="M385.14,173s4.31-6.8,4.33-11.16c0,0,.09-1.89,2.7-4.8"/><path class="stenaria13" d="M389,172.19s1-5.26,8.62-5.84c0,0,8.14.21,13.56,9.57,0,0,7.38,11.92,5.67,15.82,0,0-.51,2.63-2.14,1.22,0,0-7.17-4.52-10.61-7.9a13.28,13.28,0,0,0-4.59-3.07s-10.31-2.4-11.76-7.59Z"/><path class="stenaria14" d="M396,167.42a3.64,3.64,0,0,1,3.39,4.33s-.41.74-2.63-.51c0,0-2.79-1.08.44,2.68,0,0,1.43,1.77,2.42.87,0,0,4.36,0-1,1.85a7.45,7.45,0,0,1-5.67-.28s-2.6-.55.88,3.62a12.44,12.44,0,0,1-6.09-5.58s1.3-4.66,4.74-6.58A5.94,5.94,0,0,1,396,167.42Z"/><path class="stenaria15" d="M417,190.94a14.61,14.61,0,0,0-6.64-11.07s-1.85-1,1.17,3.09c0,0,4.25,6.27,2.08,4.08,0,0-5.4-5.95-6.23-4.48,0,0-1,.9,1.76,2.93,0,0,5,4.81-.31,3.5,0,0,4,2.94,5.82,4C414.68,193,416.28,194.46,417,190.94Z"/><path class="stenaria12" d="M395.68,162.85s-4.71,7.11-8.14,5.64"/><path class="stenaria16" d="M394.06,149.31s-.68,8-3.37,9.82"/><path class="stenaria16" d="M404.21,158.91s-6.46.25-9,5.62"/><path class="stenaria17" d="M391.94,169.49s1.89.09-.71,3c0,0-1.41,1.64-.51,2.63,0,0,1.16,3.22,0,3,0,0-2.56-2-3-3.72C387.72,174.4,389.31,169,391.94,169.49Z"/><path class="stenaria18" d="M381.79,167.67s-3.39-4.34-6.5,1.2c0,0-5.35,8.65-6.71,9.34,0,0-1.77,1.43-3.89,6.06,0,0-2.7,4.8-1.23,5.63,0,0,4-.19,8.9-3.74,0,0,5.7-4.08,8.17-4.15,0,0,7.65-1.52,9.15-5C389.68,177,389,172.19,381.79,167.67Z"/><path class="stenaria5" d="M373.52,178.07s-5.45,2.77-6.9,5.35c0,0-2.46,3.46-2.72,3.08,0,0-2.74,4,3,0,0,0,2-2.74,3.76-3.23a10.38,10.38,0,0,0,3.44-4.38S374.88,177.38,373.52,178.07Z"/><path class="stenaria19" d="M388.58,175.38s-9.6,3.33-11.05,5.92c0,0-.88,2.42-5.17,4.86,0,0,5.37-3.68,6.77-3.91,0,0,8.43-.65,10.55-5.29C389.68,177,389.9,174.68,388.58,175.38Z"/>
        </g>
    </g>
    </g>
</svg>