<svg id="Layer_1" data-name="Layer 1" xmlns="http://www.w3.org/2000/svg" viewBox="0 0 1054.53 1096.35"><defs><style>.cls-1{fill:#aab58c;}.cls-2{fill:#4e6845;}.cls-3,.cls-4,.cls-5{fill:none;}.cls-4{stroke:#f9f0e4;stroke-width:3px;}.cls-4,.cls-5{stroke-miterlimit:10;}.cls-5{stroke:#2a4024;stroke-width:13px;}.cls-6,.cls-9{font-size:100px;font-family:AlvaroCondensed, Alvaro;}.cls-6{fill:#2a4024;}.cls-7{letter-spacing:-0.01em;}.cls-8{letter-spacing:0em;}.cls-9{fill:#bf5111;}</style></defs><title>amazon_deforestationmanp</title><g id="amazon"><path class="cls-1" d="M424.19,34.65a3,3,0,0,0,4.5.5,2.76,2.76,0,0,0,.5-3.5c-.9-1.7-3.8-2.1-5-.5A2.85,2.85,0,0,0,424.19,34.65Z"/><path class="cls-1" d="M421.69,113.15c1.3.3,2.4.8,3.5,0s.4-2.2,1-3.5c.8-1.6,2.7-1.7,3-3.5.3-1.6.3-3-1-4s-2.5-.5-4,0-3.1.9-3.5,2.5c-.4,1.4,1.2,2.1,1,3.5-.3,1.8-3.7,1.9-3,3.5C419.19,112.85,420.39,112.75,421.69,113.15Z"/><path class="cls-1" d="M764.39,362.15a56,56,0,0,1-2-7c-.6-3.1.4-5.2-1-8a13.14,13.14,0,0,0-3-4c-2.2-2.2-3.6-3.6-6.5-4.5s-4.6.2-7.5,0c-3.4-.3-6.1.9-8.5-1.5-1.1-1.1-.8-2.5-2-3.5-1.7-1.4-3.7.2-5.5-1-1.4-.9-1.7-2.1-2.6-3.4-.1-.2-.3-.4-.4-.6-1.5-2-2.5-3-4-5a41.69,41.69,0,0,0-3-4c-2-2.1-3.7-2.7-6-4.5-2-1.5-2.9-2.7-5-4-1.9-1.2-3.5-1-5-2.5s-.9-3.4-2.5-4.5c-2.2-1.6-4.3-.4-7,0s-4.3,1.4-7,2c-3.1.6-4.9,1.3-8.1,1a21.39,21.39,0,0,1-5.5-1.5c-2-.7-3-1.4-5-2-2.3-.8-3.7-.7-6-1.5-2.7-.9-3.7-3.1-6.5-3a11.08,11.08,0,0,0-2.5.5,33.83,33.83,0,0,0-8.6,3c-1.4.7-2,2.6-3.5,2-1.9-.7,2.1-2.6,2.5-4.5a7,7,0,0,0-.5-5.5c-.9-1.7-2.2-2.1-3.5-3.5s-1.5-2.8-3-4c-2-1.6-4-.9-6-2.5-1.4-1.1-1.6-2.4-3-3.5-3-2.2-6.3.3-9.6-1.5-2.1-1.2-2.3-3.1-4.5-4-2-.8-3.4-.1-5.5-.5s-3-1.3-5-1.5c-2.8-.3-4.8-.7-7,1-1.3,1-1.6,2.1-2.5,3.5-1.6,2.6-1.5,4.7-3.5,7-1.5,1.7-2.9,2-4.5,3.5-1.2,1.1-1.7,2-3,3s-2.3,1.9-4,2c-1.2.1-2.2.4-3-.5s0-2.2,0-3.5l-.5.5c1-1.2,1.2-2.3,2.5-3,1.5-.9,2.9.2,4.5-.5,2.4-1,3.1-2.8,4.5-5,1.6-2.5,1.8-4.3,3-7,1-2.2,3.2-3.3,2.5-5.5a4.52,4.52,0,0,0-2-2.5c-2.1-1.5-4-.1-6.5-.5-2-.3-3-.9-5-1-2.4-.2-3.7.4-6,.5-2.5.1-4-.2-6.5,0-1.8.1-3.1-.5-4.5.5s-1.5,2-2,3.5c-1.1,3,.3,4.9,0,8-.1,1.6.4,2.8-.5,4-1.3,1.7-3.6,0-5.5,1-1.4.7-1.8,1.6-3,2.5-1.5,1.2-2.1,2.4-4,3-2.1.6-3.5-.5-5.5-.5s2.2-2.1,3.5-3.5,1.8-2.2,3-3.5c1.4-1.5,2.8-1.9,4-3.5,1.6-2.2,1.4-4.1,2.5-6.6s1.6-4.4,3.5-6.5,4.3-1.8,6-4a5,5,0,0,0,1-1.7c.6-1.4.7-2.8,1.5-4.3,1.7-3,4.3-3.8,5.5-7,.9-2.4,2.5-4.4,1-6.5-1.1-1.6-2.8-1.2-4.5-2-2.7-1.2-5.5-.4-7-3-1.1-1.9-.2-3.4-.5-5.5-.3-2.8-.1-4.9-.6-7.1a10.67,10.67,0,0,0-1.4-3.4c-.9-1.5-2.2-1.9-3-3.5-1.5-2.8-.9-4.9-1-8-.1-1.8.9-3,0-4.5-1.1-1.8-3.4-.7-5-2l-1,1c-1.4,2.3-2.2,3.7-3.5,6a68.85,68.85,0,0,0-3.5,6.6c-.9,1.8-1.4,3.3-2,4.7.6-1.5,1.1-2.9,2-4.7,1.3-2.6,2.1-4,3.5-6.6,1.3-2.4,2.2-3.7,3.5-6l1-1c-2-1.6-2.2-3.3-3.5-5.5-1.5-2.5-.9-5.2-3.5-6.5-2.1-1.1-3.9.9-6,0-1.7-.7-1.9-2.2-3.5-3-2.3-1.2-4.4.4-6.5-1-1.9-1.2-1.8-3.1-3.5-4.5a15.51,15.51,0,0,0-4.2-2.5h0c-.6-.2-1.2-.4-1.9-.6-3.4-.9-5.6.6-9.1,0-2.6-.5-3.9-1.5-6.5-2a20.51,20.51,0,0,0-5.5-.5,27.68,27.68,0,0,0-5,1c-2.3.4-3.7,1.2-6,1-2.5-.2-4.1-.4-6-2s-1.5-3.6-3-5.5c-1.7-2.2-3.6-2.5-5.5-4.5-1.3-1.3-1.3-2.9-3-3.5-1.3-.5-2.2.3-3.5,0-2.2-.5-3.8-1.1-5-3-1.4-2.1.2-4.1-.5-6.5-.9-2.9-2.1-4.2-4-6.5a38.25,38.25,0,0,0-4.5-4.5c-2.2-1.9-3.4-3.2-6-4.5h0a12,12,0,0,0-3.5-1.5c-3.3-.8-5.5,2.3-8.6,1-1.9-.8-3.6-1.5-4-3.5-.4-2.4,2.7-2.8,3.5-5,.9-2.4,1.5-4.2.5-6.5s-3.1-2.9-5.5-4a15.16,15.16,0,0,0-5-1.5c-2.5-.3-4,.3-6.5.5l.5-.5c-1,.2-1.5.7-2.5.5a3.51,3.51,0,0,1-2.5-2.5c-.9-2-.2-3.7,1-5.5,1.7-2.5,7.7-.1,7-3-.4-1.8-2-2.1-3.5-3a8.14,8.14,0,0,0-4-1.5c-2.7-.2-4.1,1.3-6.5,2.5-1.4.7-2,1.5-3.5,2-2.6.9-4.4-.9-7,0-1.7.6-2.3,1.7-4,2.5-1.9.9-3.4.3-5,1.5-1.8,1.4-1,3.9-3,5-3,1.8-5.3-1.2-8.6-2.5a36.83,36.83,0,0,1-6.5-3.5c-1.2-.7-1.7-1.5-3-2-2.5-1-4.3-.1-7,0-3.7.1-5.8.6-9.6.5-4.3-.1-8.6,2.6-11.1-1-1.4-2-.1-3.8-1-6a8.68,8.68,0,0,0-2-3.5c-1.9-1.8-3.9-1.2-6.5-1.5s-5,1.8-7,0c-2.4-2.1,1.9-5.6,0-8a6.08,6.08,0,0,0-4.5-2.5c-2.4-.4-5.6-.9-6,1.5-.4,2.1,2.3,2.3,3.5,4,.9,1.3,2.3,2,2,3.5-.3,1.8-2.3,1.8-4,2.5-2.9,1.2-5.2-.3-8,1-2.3,1.1-3.1,2.4-5,4-2.2,1.9-3.4,7-5.5,5-1.6-1.5.6-3.5,0-5.5-.4-1.4-1.8-2-2.5-2.9h0A1.75,1.75,0,0,1,288,96a4.36,4.36,0,0,1,1.5-2.5c1.2-1.3,2.6-1,4-2,2.6-1.7,5-2.5,5.5-5.5.3-1.6.5-2.8-.5-4-1.2-1.6-3-1.1-5-1-2.5.1-4.4.2-6,2s0,3.9-1.5,5.5c-2,2.2-4.9-.2-7.5,1s-3,3.6-5.5,5c-3,1.8-5.1,1.8-8.6,2.5-2.7.6-4.9-.8-7,1-1.1.9-.9,2.1-2,3s-2.1,1.1-3.5,1.5c-2.3.7-3.8-.3-6,.5a10.52,10.52,0,0,0-4.5,3c-3.7,3.6-3.5,7.5-4,12.6-.2,2.3,1.5,4.3,0,6-1.7,1.9-4.4-.9-6.5.5a7,7,0,0,0-3,4.5c-.5,1.9.9,3.3,0,5-1.3,2.6-5.5,0-7,2.5-1,1.7,1.2,4-.5,5s-3-.4-4.5-1.5v1c-.4,2.2-.1,3.6-1,5.5a10.83,10.83,0,0,1-4,4.5,29.86,29.86,0,0,1-4,2l-1.1,1a3.91,3.91,0,0,1,1.6,1c1.9,2.1-.3,4.6,1,7,.9,1.9,2.7,2.1,3.5,4,1.3,2.9-.5,4.9-.5,8.1-.1,4.1.4,6.4.5,10.6.1,2.7,1.2,4.6,0,7-.9,1.7-2.5,1.9-3.5,3.5-1.6,2.7-.8,4.9-.9,7.8a6.15,6.15,0,0,1-.1,1.3c-.7,5.1-1.7,7.9-2,13.1-.2,3.5,2.4,6.4,0,9.1-2.1,2.4-5.4-.3-8,1.5-3.3,2.2-4.1,5.1-4.5,9.1-.2,1.4.2,2.2,0,3.5l-.5,2.5h0l.5-2.5c-.7,4-3,6.1-6.5,8.1-3,1.6-6.4-1.1-8.6,1.5-1.5,1.7-.9,3.4-1.5,5.5-.9,3.3-.2,6-2.5,8.5a8.69,8.69,0,0,1-3.5,2.5c-1.6.7-2.9.2-4.5,1-3.3,1.6-4.1,4.2-5.5,7.5-1.3,3.1-1.3,5.2-1.5,8.6-.2,2.6-.5,4,0,6.6.4,2.3,1.3,3.4,2,5.5.6,1.8.3,3.1,1.5,4.5,1.6,2,3.7,1.6,6,2.5,2.7,1.1,7-.4,7,2.5.1,2-1.7,2.6-3,4-.7.8-1.4,1.4-2,2l-.1.2c-.9.7-1.8,1.4-2.9,2.4-2.2,2-4.3,2.4-5.5,5-.7,1.5-.4,2.5-1,4-.8,2.1-2.1,2.9-3,5-.8,1.9-2,3-1.5,5s2.9,1.7,3.5,3.5-.6,3.1-.5,5c.1,2.4,1.4,3.6,1.5,6,.1,2.6-1.9,4.1-1,6.5.9,2.6,3.1,3.2,5.5,4.5a21.2,21.2,0,0,0,6,2c2.5.6,4.4-.5,6.5,1,2.8,1.9,1.7,5,3,8.1,2.5,5.9,3.8,9.4,7.6,14.6,2.3,3.2,4.8,4.1,6.5,7.5,1.1,2.2.9,3.8,2,6a12.23,12.23,0,0,0,2.4,3.3,19.84,19.84,0,0,1,4.1,4.8c2.4,4.3,1.7,7.5,3.5,12.1,1.5,3.8,2.8,5.8,4.5,9.6s2.4,6.3,4.5,10.1c2.3,4,4.6,5.7,7,9.5a54.66,54.66,0,0,1,4,7c1.4,2.9,1.6,4.7,3,7.5.9,1.8,1.7,2.7,2.5,4.5,1.6,3.7.2,6.5,2,10.1,1.4,2.7,3.1,3.7,5,6,2.4,2.9,3.5,4.8,6,7.5a72.83,72.83,0,0,0,7,6.6c2.5,2.1,4,3.1,6.5,5,2.7,2,3.9,3.9,7,5,2.4.9,4.1.1,6.5,1,3.3,1.2,4.1,3.7,7,5.5,3.5,2.1,6,2,9.6,4,2.5,1.4,3.5,2.8,6,4,2.1,1,3.9.4,5.5,2,2.5,2.3-.3,5.7,1.5,8.6,1.7,2.6,3.9,3.3,6.5,4.1l2.1.4c1-1.8,1.6-2.7,2.5-4.5s.8-3,2-4.5c1.4-1.6,2.8-1.7,4.5-3a37,37,0,0,0,6.5-6l.1-.1.2-.2-.3.3a41,41,0,0,1-6.5,6c-1.7,1.3-3.2,1.4-4.5,3s-1.2,2.8-2,4.5-1.5,2.8-2.5,4.5l-2.1-.4c.8.3,1.7.5,2.6.9,1.9.7,3.6.1,5,1.5,1.8,1.8.3,4.1,1,6.5.8,2.9,2,4.2,3,7a52.5,52.5,0,0,1,2.5,11.1c.8,5.6-.8,9.1.5,14.6.5,2,1.2,3,1.5,5,.6,4.2-1.2,6.5-2,10.6-.7,3.5-1.2,5.5-2,9.1-.7,3-2.4,4.5-2,7.5.3,2.4,1.8,3.3,2.5,5.5a28.76,28.76,0,0,1,1,5.1,63,63,0,0,1,.5,7.5c.1,3.5-1.3,5.8,0,9.1.8,2,2.7,2.4,3,4.5s-1.2,3-1.5,5a24.09,24.09,0,0,0,0,6c.1,2.6.3,4,.5,6.5.3,3.6.6,5.5,1,9.1.2,1.8.4,2.8.5,4.5a63,63,0,0,1-.5,7.5c-.2,3.5,1.2,5.9-.5,9.1-1.2,2.2-4,2.1-4.5,4.5a5.58,5.58,0,0,0,.5,4c.7,1.7,2.3,1.9,3,3.5,1,2.3.1,4,0,6.5-.1,2,.2,3.2-.5,5s-2.4,2.2-3,4c-1,2.8.5,4.6,1,7.5a63.11,63.11,0,0,0,2,8.6c1,3,2.1,4.5,3,7.5s.4,5,1.5,8c.9,2.5,2.6,3.4,3,6s-.1,4.1-1,6.5c-.8,2.1-2.2,2.9-3,5-1.6,4-.8,6.8-.5,11.1.2,3,.8,4.6,1,7.6v.2a51.43,51.43,0,0,1,0,6.8c-.2,3.9-1.1,6.1-1,10.1,0,2.4.7,3.7.5,6-.2,2.6-1,4-1.5,6.5-.7,3.5-2.4,5.6-1.5,9.1.7,2.5,2.4,3.3,3.5,5.5a26.41,26.41,0,0,1,3,8.1c.7,3.7-.7,5.9,0,9.6.5,2.4,2.3,3.6,2,6s-2.8,2.8-3,5c-.3,2.5,1.9,3.6,2.5,6,.5,2.1,0,3.4.5,5.5.6,2.3,1.5,3.4,2.5,5.5,1.1,2.4,1.3,4.1,3,6,1,1.1,1.5,2.2,3,2.5,2.1.5,2.8-2.5,5-2.5a5.27,5.27,0,0,1,4,1.5c1.6,1.4.7,3.4,2,5,1.1,1.3,2.5,1.2,3.5,2.5a5.72,5.72,0,0,1,1.5,3c.4,2-1.6,3-1.5,5,.1,1.7,1.5,2.3,1.5,4,.1,2.1-1.7,3-2,5-.2,1.4-.8,2.4,0,3.5s2.4.1,3.5,1c2.5,1.9-2.2,5.4-.5,8a9.48,9.48,0,0,0,2,2c1.4,1.2,3,1,4.2,2.1l.4.4a6.37,6.37,0,0,1,1.5,4c.2,2-.4,3.1-1,5-.5,1.4-1,2.1-1.5,3.5-.9,2.3-2.5,3.6-2,6,.3,1.5,1.4,2.1,2,3.5,1.3,3.3.4,5.5.5,9.1.1,3.1,1.1,5.1,0,8-.7,2-3.1,2.4-3,4.5s2,2.3,3,4c.9,1.5.6,3,2,4,1.8,1.2,3.5-.6,5.5,0,1.8.5,3.9.7,4,2.5.2,2-2.9,1.4-4,3-1.3,1.8-1.2,3.3-1.5,5.5-.4,2.4-1.2,4.2-.5,6.1a4.05,4.05,0,0,0,.5.9c.8,1.3,1.8,1.5,3,2.5,1.6,1.4,3,1.7,4,3.5,1.4,2.4-.4,4.5.5,7.1a6.56,6.56,0,0,0,1.5,3c.9.9,2,.7,3,1.5,2.1,1.8,1.2,4.1,2.5,6.5,1,1.9,1.3,3.3,3,4.5,1.4,1,2.7.6,4,1.5,2,1.4,1.9,3.3,3.5,5s3.4,1.6,4.5,3.5c.9,1.6.5,2.8,1,4.5a15.12,15.12,0,0,0,2,4.5c1,1.4,1.4,2.8,3,3,1.8.3,2.3-1.8,4-2.5a13.26,13.26,0,0,1,7-1.5,13.45,13.45,0,0,1,3.5.5,20.35,20.35,0,0,1,5.5,1.5c2.4,1.1,5.4,1.4,5.5,4a4.53,4.53,0,0,1-3,4.5c-1.8.8-3.3.4-5-.5-2.4-1.2-1.6-4.5-4-5.5s-5.3-1.7-6.5.5a3.68,3.68,0,0,0-.5,2.5c.1,2.1,1.4,3.2,3,4.5s5-.1,5,2-5.4-.7-5.5,1.5,3,1.6,5,2.5c2.7,1.3,4.1,2.4,7,3,1.9.4,3.1,1,5,.5a4.57,4.57,0,0,0,3-1.5h0c1.1-1.4-.3-2.8,0-4.5.5-2.8,1.4-4.2,3-6.5.7-1.1,1.3-1.5,2-2.5a20.68,20.68,0,0,0,1.5-2.5c1.4-2.2,1.6-4.5,4-5.5,2-.9,3.4,0,5.5,0,2.5,0,5.3,2.2,6.5,0l-6-3c-2.5-1-3.9-1.7-6.5-2.5-4-1.3-6.7-4.1-10.6-2.5-1.3.5-1.8,1.4-3,2-5.1,2.6-9.5,2.1-14.6-.5-2.5-1.3-3-3.3-5.5-4.5-1.7-.8-3.3-.1-4.5-1.5s-.8-2.7-1-4.5a6.73,6.73,0,0,1,.1-2,5.92,5.92,0,0,0-.1,1.9c.2,1.8-.2,3.2,1,4.5s2.9.7,4.5,1.5c2.5,1.2,3.1,3.3,5.5,4.5,5.1,2.6,9.5,3.1,14.6.5,1.3-.6,1.7-1.5,3-2,3.9-1.6,6.5,1.2,10.6,2.5,2.6.9,4,1.5,6.5,2.5l6,3c1.2-2.1-.6-4.1-2.5-5.5s-5.1,1.2-6-1c-.5-1.1.3-1.9,0-3-.5-2-2.3-2.3-3.5-4a15.13,15.13,0,0,1-2-3.5,12.27,12.27,0,0,1,0-10.1,9.73,9.73,0,0,1,2.5-4c1.2-1.1,2.5-.8,3.5-2,1.4-1.7.9-3.3,1-5.5.2-2.5-.5-4-.5-6.5,0-2.2-.4-3.6.5-5.5.8-1.6,1.7-2.2,3-3.5a38.11,38.11,0,0,1,5-4c1.9-1.4,3.7-1.5,5-3.5,1.9-2.8,1.4-5.3.5-8.5-.4-1.5-.5-2.5-1.5-3.5-1.3-1.3-2.7-1.2-4.5-1.5s-3.1.6-5,0a10.25,10.25,0,0,1-3.5-2c-2.2-1.5-2.8-3.1-5-4.5-1.1-.7-1.9-.8-3-1.5a10.49,10.49,0,0,1-4-3.5c-1.4-2.2-1.5-3.9-1.5-6.5,0-2.2,0-3.6,1-5.5,1.4-2.6,3.4-3.1,6-4.5s6,.2,7.5-2.5c.9-1.6.1-2.8.5-4.5.1-.5.3-.9.4-1.3.6-1.3,1.4-2.2,1.6-3.8.2-2.7-2.1-3.9-2-6.5.1-1.6.8-2.4,1-4,.2-2.2-1.8-3.8-.5-5.5,1.1-1.5,3.9.2,4.5-1.5.7-1.9-2-2.3-3-4-.7-1.1-1.6-1.7-1.5-3,.1-2.4,5.4-.2,5.5-2.5a3.33,3.33,0,0,0-1.5-3c-1.5-1.3-3.1-.1-5-.5-1.6-.3-3,.2-4-1s-.4-2.4-.5-4c-.1-1.8.8-3,0-4.5s-2.2-1.5-3.5-2.5c-1.8-1.3-3.7-1.4-4.5-3.5a4.9,4.9,0,0,1,1-5.5c2-2.2,4.7-1.1,7.6-.5,3.3.6,4.3,3.2,7.5,4a25.6,25.6,0,0,0,5.5.5,24.09,24.09,0,0,0,6,0c2.5-.4,4.6,0,6-2a6.3,6.3,0,0,0,1-3c.3-1.8-.3-2.8-.5-4.5l-1,1c-.6-3.7-1.3-5.8-1.5-9.6s-.9-6.1.5-9.6c.8-2,1.2-3.5,3-4.5,2.4-1.3,4.3.4,7,1,2.2.5,3.3,1.6,5.5,1.5s3.3-1.4,5.5-2c2.7-.8,4.3-.7,7.1-1.5,3.2-.9,4.8-2.1,8-3s5.6.1,8.6-1.5c3.9-2.2,4.3-5.7,6.5-9.6a65.28,65.28,0,0,0,3.5-7c1-2.3,2.4-3.6,2.5-6v-.5a10,10,0,0,0-1.5-5c-1.2-2.7-2.8-3.7-4.5-6-1.4-1.9-2.9-2.7-3.5-5-.5-1.9.5-3.1,0-5-.4-1.7-1.4-2.4-2-4s0-2.8-1-4c-1.9-2.5-5.1,1-8.1,0a10.53,10.53,0,0,1-6-4.5c-1.4-2.1-2.5-3.6-2-6,.3-1.5.6-2.9,2-3.5h0c1.9-.8,2.9,1.3,4.5,2.5,1.1.9,1.3,1.9,2.5,2.5,1.4.7,2.5.2,4,.5,1.8.3,2.8.6,4.5,1l6.5,3c1.8,1.4,2.3,3,4.5,3.5,2.4.5,3.8-.6,6-1.5,1.6-.6,2.3-2,4-2,1.5,0,2.2.8,3.5,1.5s2,1.8,3.5,2c3.1.5,3.9-2.9,6.5-4.5,1.7-1.1,2.9-1.3,4.5-2.5,2.1-1.6,3.7-2.5,4.5-5,.7-2-.6-3.5,0-5.5.9-3.1,3.7-3.4,5.5-6a35.18,35.18,0,0,0,2.6-4.3l-1.1.3c-3.8-1.7-7-1.4-9.8-4.3,2.7,2.9,6,2.6,9.8,4.3l1.1-.3c.7-1.4,1.2-2.9,1.9-4.7,1.1-3,.9-5,2-8.1.9-2.6.8-4.8,3-6.5,1.8-1.4,4,.1,5.5-1.5,1.2-1.2.7-2.6,1.5-4,1.4-2.4,3.7-2.6,5-5,1.5-2.6.9-4.6,1.5-7.6a66.81,66.81,0,0,1,2-8,36.4,36.4,0,0,1,2.5-6.5c1.6-3.3,3.1-4.9,5-8,1.2-2,1.8-3.1,3-5,2.1-3.4,4.3-4.8,5.5-8.6,1.6-4.8,0-8,0-13.1,0-2.2.5-3.4,0-5.5-.6-2.6-2.6-3.5-3.5-6-1.6-4.7-1.7-8.2.5-12.6a19,19,0,0,1,3-4,38.25,38.25,0,0,1,4.5-4.5c1.7-1.5,2.8-2.1,4.5-3.5a53.73,53.73,0,0,0,4.5-3.5c2.1-2.1,2.2-4.2,4.5-6a16.83,16.83,0,0,1,6.5-3c3.2-.9,5.5.5,8.6-1,2.6-1.3,3.3-3.2,5.5-5.1.3-.2.5-.4.8-.6,1.3-1.1,2.3-1.8,3.8-2.9,1.9-1.4,2.9-2.5,5-3.5a20.35,20.35,0,0,1,5.5-1.5c4.4-.8,7.1.3,11.6,0,3.7-.2,6.7,1.4,9.6-1,1.3-1.1,1.6-2.1,2.5-3.5.8-1.2,1.2-1.9,2-3a21.5,21.5,0,0,1,4-4.5c1.6-1.4,3.2-1.4,4.5-3,2-2.5,1-4.9,1.5-8s-1.2-5.8,1-8c1.4-1.4,3-.8,4.5-2a7.84,7.84,0,0,0,2.5-3.5c1.1-2.7-1.4-5,0-7.6.8-1.5,1.7-2,3-3,1.6-1.2,3.1-1.1,4.5-2.5,4.3-4-.2-9.2,0-15.1.1-3.7-1.3-6.3.5-9.6,1.2-2.2,3.7-2.2,4.5-4.5,1-2.8-1.4-4.5-1.5-7.5-.1-2.6-.6-4.2.5-6.5.8-1.6,2.2-1.9,3-3.5,2.1-4-1.1-7-1.5-11.6-.3-2.7-.2-4.3-.5-7a59,59,0,0,0-1-7.5c-.6-2.6-2.1-3.9-2-6.5.1-2.3,1.7-3.4,2.3-5.3a5.07,5.07,0,0,0,.2-1.3c.1-2.7-2.1-3.9-2-6.5a9.08,9.08,0,0,1,3-7c1.4-1.4,2.7-1.7,4.5-2.5s3-.4,4.5-1.5c2.1-1.6,1.5-3.9,3-6a36.12,36.12,0,0,0,2.5-3c1.7-2.5,1.8-4.3,3-7,1.7-3.8,2.7-5.9,4.5-9.6.8-1.6.5-3.1,2-4,1.2-.7,2.2,0,3.5-.5,2.5-1.1,2.5-3.4,4-5.5,2.2-3,3.3-4.7,5.5-7.5,2.1-2.6,3.4-4,5.5-6.5,1.2-1.4,2.2-1.9,3-3.5,1.1-2.3.3-4,.5-6.5.2-3.1-.1-5,.5-8.1.5-2.6,1.3-4,2-6.5.9-3.5,2.3-5.4,2-9.1C766.59,366.25,765.19,365,764.39,362.15Zm-268.7,351.7a13.58,13.58,0,0,1-1.2,1.2,13.58,13.58,0,0,0,1.2-1.2Zm-12.2-61.2c0,2.1.5,3.9.1,5.7C484,656.65,483.49,654.75,483.49,652.65Zm-65.3-58.5Zm-92.1-125.8a16.26,16.26,0,0,0,1.5,6.5c.9,2.1,3.3,2.8,3,5h0c.3-2.3-2.1-2.9-3-5a16.26,16.26,0,0,1-1.5-6.5Zm-26.2-47.8h0c0,1.9-1.2,3.6-1.2,5.1C298.69,424.15,300,422.45,299.89,420.55Zm-41.7-49.3a13.68,13.68,0,0,0,.2-2.8,13.68,13.68,0,0,1-.2,2.8c-.3,1.5-.9,2.5-1,3.7C257.29,373.65,257.89,372.75,258.19,371.25Zm9-248.1c-.1,2.6,3.3,2.7,4.5,5s.7,3.7,1.5,6c.9,2.7,2.4,3.8,3,6.5a7.14,7.14,0,0,1,.2,2,15,15,0,0,0-.2-2c-.6-2.7-2.1-3.9-3-6.5-.8-2.3-.4-3.9-1.5-6-1.2-2.3-4.6-2.3-4.5-5Zm36.3,135.9h0a8.07,8.07,0,0,0-.7,3.2A6.42,6.42,0,0,1,303.49,259.05Zm3,65.9c-.8,2-3.4.7-5.5.5-1.2-.1-1.8-.3-3-.5l-1,1c-.4.6-.7,1.2-1,1.7a10.62,10.62,0,0,1,1-1.7l.5-1h.5c1.2.2,1.8.4,3,.5,2.1.1,4.7,1.5,5.5-.5a2.77,2.77,0,0,0,.1-.9A2.77,2.77,0,0,1,306.49,325Zm-7.6,87.5a8.81,8.81,0,0,0,.3-2.1,8.81,8.81,0,0,1-.3,2.1,5.1,5.1,0,0,0-.1,2.1A7.74,7.74,0,0,1,298.89,412.45Zm-29.1-14.6c0,.1-.1.1,0,0-.1.1,0,.1,0,0Zm-.5-61.3a2.27,2.27,0,0,0-.6,1.2,1.73,1.73,0,0,1,.6-1.2c1.6-1.7,3.9,1,6,0,1.8-.8,2.1-2.1,3.5-3.5l.1-.1-.1.1c-1.4,1.4-1.7,2.7-3.5,3.5C273.09,337.55,270.79,334.75,269.29,336.55Zm36-34.9c-.3,1.3-2,2.6-2.8,4.1a41.35,41.35,0,0,1-3,5c-.8,1.1-1.7,1.6-2.3,2.8.7-1.1,1.5-1.6,2.3-2.8a25.5,25.5,0,0,0,3-5C303.29,304.25,305,303.05,305.29,301.65Zm-8.5,12.5a9.58,9.58,0,0,0-.9,4.2A10.23,10.23,0,0,1,296.79,314.15Zm8.7,7.3h0c-.2-2.9,1.8-4.2,2.5-7,.7-3.1.2-5,1-8.1.7-2.6,2-3.9,2.5-6.5a14.07,14.07,0,0,0,.3-2.8,14.07,14.07,0,0,1-.3,2.8c-.5,2.7-1.8,3.9-2.5,6.5-.8,3.1-.3,5-1,8.1C307.29,317.25,305.29,318.55,305.49,321.45Zm8-67.5a3.9,3.9,0,0,0,.4-2.3,3.78,3.78,0,0,1-.4,2.3c-1.2,2.6-4.7-.1-7,1.5a.1.1,0,0,0-.1.1.1.1,0,0,0,.1-.1C308.79,253.85,312.39,256.55,313.49,254Zm-9,3.4a2.18,2.18,0,0,1,.4-.5C304.79,257.05,304.59,257.15,304.49,257.35Zm-9.4,71.6c-.1,0-.1.1-.1.2-.2.1-.3.3-.6.4a2.38,2.38,0,0,1-1.4.3,3.93,3.93,0,0,0,1.4-.3A4.35,4.35,0,0,0,295.09,329Zm-2.8-32.9a2,2,0,0,1,.8.1A2,2,0,0,0,292.29,296.05Zm.5,33.7a11.09,11.09,0,0,1-2.2-.7,5.55,5.55,0,0,0-2.2-.6c-2-.2-3.2-.7-5,0-.1,0-.1.1-.2.1.1,0,.1-.1.2-.1,1.9-.7,3.1-.2,5,0C290.09,328.55,291.39,329.65,292.79,329.75Zm-10.8-.6a12.88,12.88,0,0,0-1.6,1.7A12.88,12.88,0,0,1,282,329.15Zm-14.8,19.9c.9-2.7,1.7-4.2,2-7h0c-.3,2.8-1.1,4.3-2,7-1.2,3.6-1,6.3-3.5,9.1-1.3,1.4-2.8,1.5-4,3a7,7,0,0,0-1.4,4.7,7,7,0,0,1,1.4-4.7c1.2-1.5,2.7-1.6,4-3C266.29,355.35,266.09,352.65,267.19,349.05Zm.3,51.6a7.27,7.27,0,0,1,.9-.8,9,9,0,0,0-1,.9A.1.1,0,0,0,267.49,400.65Zm1.9-1.7-.3.3Zm112.1-181.2a9.66,9.66,0,0,1-.1,2.4,19.27,19.27,0,0,0,.1-2.4Zm-.5,4.5v0Zm0,2.1Zm92,354.2c-.1-1.9,1.2-2.7,1.5-4.5a13.68,13.68,0,0,0,.2-2.8,9,9,0,0,1-.2,2.8c-.3,1.8-1.6,2.6-1.5,4.5Zm-.4-17c1.8.3,3.5,1.4,4.4-.1a1.47,1.47,0,0,0,.2-1.1,1.13,1.13,0,0,1-.2,1.1c-.9,1.5-2.6.4-4.4.1Zm-34.7-79.8c-.1,2.6-2.4,4.6-2.1,7C435.49,486.35,437.79,484.25,437.89,481.75Zm-1.9-6.4v0Zm0-249a.37.37,0,0,0,.1.3A.37.37,0,0,0,436,226.35Zm5.2,6.9c0,.4-.1.8-.1,1.2A4.87,4.87,0,0,1,441.19,233.25Zm-3.4-13.5a10.55,10.55,0,0,1-.6,2.4A9.38,9.38,0,0,0,437.79,219.75Zm-1.8,5.5Zm.5-1.5c0-.1,0-.1.1-.2A.35.35,0,0,1,436.49,223.75Zm-.9,247.9c0,.1.1.3.1.4a4.18,4.18,0,0,0-.4-1A.86.86,0,0,1,435.59,471.65Zm.3,1.9a2,2,0,0,0-.1-.8A2,2,0,0,1,435.89,473.55Zm29.1,40.6c0,.6-.1,1.2-.1,1.8a10.87,10.87,0,0,1,.1-1.8c.1-1.6,1.5-2.6,1.7-3.8C466.49,511.55,465.09,512.65,465,514.15Zm13.1,24.7c-.5,3.7-.4,5.9-1,9.6-.4,2.5-1.7,4.2-2.1,6.3.3-2.1,1.6-3.8,2.1-6.3.6-3.8.5-6,1-9.6.3-2.1,1.2-3.6,1.3-5.2C479.29,535.25,478.29,536.75,478.09,538.85Zm5.9-301.2h0c-.1.1-.2.1-.4.2l.4-.2Zm-.4.2Zm-4.6-3.4a8.8,8.8,0,0,1,1.5.5A4.42,4.42,0,0,0,479,234.45Zm2.1.7c.6.3,1.3.6,2,.9A19.47,19.47,0,0,1,481.09,235.15Zm-5.1-.8a6,6,0,0,1,2.3-.1A6.1,6.1,0,0,0,476,234.35Zm-33.2,270.7v-2.7a24.3,24.3,0,0,1,0,2.7ZM441.09,209c1.1-1.2,2.6-2,3.1-3.2C443.69,207,442.19,207.65,441.09,209Zm-5-14.4a4.68,4.68,0,0,0,.2,1.6A4.68,4.68,0,0,1,436.09,194.55Zm0-7.6a5.2,5.2,0,0,1,.7,2.5A7.17,7.17,0,0,0,436.09,187Zm-65.7,231.1c0-1.3,0-2.3.1-3.3-.1,1-.1,2-.1,3.3Zm-40.6,88.4h0a6.6,6.6,0,0,0-.1-1.4h0C329.69,505.45,329.79,506,329.79,506.45Zm-.1,1.1Zm7.8,184.2a4.48,4.48,0,0,0-.1,1.1A4.1,4.1,0,0,1,337.49,691.75Zm28-66.1c.2,2.2,1.8,4.1,1.8,6.7a26.17,26.17,0,0,1-.2,4.1,24.87,24.87,0,0,0,.2-4C367.29,629.75,365.69,627.85,365.49,625.65Zm5.8-9.1c.2-1.7-.4-3.2-.4-5.2-.2-6.1-.9-9.5-1.5-15.6l-.7.5.7-.5c.6,6.1,1.3,9.5,1.5,15.6C371,613.35,371.49,614.85,371.29,616.55Zm-6-17.8c-1-2.2-1.7-3.3-2.5-5.5-1-2.5-2-3.9-2-6.5v-.1c0,2.7,1.1,4.1,2,6.5.9,2.2,1.6,3.3,2.5,5.6l.3-.2Zm.2-29.2a18.25,18.25,0,0,0-.1-4c0-.2-.1-.4-.1-.6,0,.2.1.3.1.5A19.16,19.16,0,0,1,365.49,569.55Zm4.9-158.1h0a7.49,7.49,0,0,1,.2-2.1A7.49,7.49,0,0,0,370.39,411.45Zm47.8,180.7v-2c.1-2.2.3-3.4.5-5.5.3-3.9,0-6.2.5-10.1.6-4.2.5-6.8,2.5-10.6,1.5-2.7,2.5-4.4,5-6,2.1-1.3,3.7-1.2,6-2,3.9-1.4,6-2.4,10.1-3.5a29.2,29.2,0,0,1,6.5-1.5c4.3-.4,6.9.2,11.1,1.5,2.9.9,4.6,1.3,7,3s3.1,3.4,5,5.5h0c-2-2.1-2.7-3.8-5-5.5s-4.2-2.1-7-3c-4.2-1.3-6.7-1.9-11.1-1.5a29.2,29.2,0,0,0-6.5,1.5c-4,1.1-6.1,2.2-10.1,3.5-2.4.8-4,.7-6,2-2.6,1.7-3.6,3.3-5,6-2,3.7-1.9,6.4-2.5,10.6-.5,3.9-.2,6.1-.5,10.1-.2,2.2-.4,3.4-.5,5.5Zm59.9-5.6c.3,1.3-.8,2.3-1.1,3.4.3-1.1,1.4-2,1.1-3.4Zm30.2,15.1h0c-.1-1.4.1-2.6.1-3.8C508.39,599.05,508.19,600.25,508.29,601.65Zm0,1.9c0,1.1-.1,2.2-.1,3.3C508.19,605.65,508.29,604.65,508.29,603.55Zm0,10.3a13.33,13.33,0,0,1,0-2Zm29.1,37.6c0-.5.1-.9.1-1.4A6.15,6.15,0,0,1,537.39,651.45Zm-12.5-12.1c.4-2.9,2.1-4.2,2.5-7a15,15,0,0,0,.2-2,15,15,0,0,1-.2,2c-.4,2.9-2.1,4.2-2.5,7a20.27,20.27,0,0,0-.4,3.1A20.27,20.27,0,0,1,524.89,639.35Zm1.5,15.2c0-1.4.1-2.5.1-3.6,0,1.1-.1,2.2-.1,3.6Zm-25.2,52.8-2.3,2.3,2.3-2.3Zm-12.1-476.5c1.1-.9,2.2-.4,3.5-1,1.9-.9,2-2.9,4-3.5,2.3-.7,3.8.2,6,1a24.65,24.65,0,0,1,4.5,2.5h0c1.6.9,2.2,2.1,4,2.5s2.8-.2,4.5-.5c2.2-.4,3.3-1.4,5.5-1.5,2.6-.2,4,1.5,6.5,1a9.29,9.29,0,0,0,6-4c1.2-1.5,1.2-2.8,2-4.5l.6-1.5a3.55,3.55,0,0,1-.4.9l-.3.6c-.8,1.8-.9,3-2,4.5a8.83,8.83,0,0,1-6,4c-2.5.5-4-1.2-6.5-1-2.2.2-3.3,1.1-5.5,1.5-1.7.3-2.8.9-4.5.5s-2.4-1.6-4-2.5a24.65,24.65,0,0,0-4.5-2.5c-2.2-.8-3.8-1.7-6-1-2,.6-2.2,2.6-4,3.5-1.1.6-2.3.1-3.4,1-1.4,1.2-.4,3.1-1.5,4.5a4.84,4.84,0,0,1-1.6,1.3,4.84,4.84,0,0,0,1.6-1.3C488.79,234,487.69,232.05,489.09,230.85ZM508.79,616a.75.75,0,0,1-.1-.5A.9.9,0,0,1,508.79,616Zm-23.2-379.1c.1,0,.1-.1.2-.1C485.69,236.85,485.69,236.85,485.59,236.85Zm-2.3-.6h0c-.4-.8-.7-1.4-1-2.1A20.92,20.92,0,0,1,483.29,236.25Zm-8.3-61.8c-.8,2-2,2.9-2,5a4,4,0,0,0,1,2.5,4.3,4.3,0,0,1-1-2.5C473,177.45,474.29,176.45,475,174.45Zm-8.6,15.5c-.6,1-.5,2.5-.9,3.9C465.89,192.35,465.79,191,466.39,190Zm-1.2,5c-1.4,4.4-2.7,7.7-1.2,12.2.8,2.6,1.2,4.6,3.5,6,1.7,1.1,3.5-.2,5,1,1.8,1.4,1.2,3.4,2,5.5a44.58,44.58,0,0,0,2,5.5c1.2,2.4,2.6,3.3,4,5.5.1.1.1.2.2.3-.1-.1-.1-.2-.2-.3-1.4-2.3-2.8-3.2-4-5.5-1.1-2-1.2-3.4-2-5.5s-.2-4.1-2-5.5c-1.6-1.2-3.3,0-5-1-2.3-1.4-2.7-3.4-3.5-6C462.49,202.65,463.79,199.35,465.19,195Zm-8.3,48a3.18,3.18,0,0,1,1-1c2.4-1.4,4.4.4,7-.5,2.9-1,3.9-2.9,6.5-4.5l.2-.2-.2.2c-2.7,1.6-3.6,3.6-6.5,4.5-2.6.9-4.7-.9-7,.5a3.18,3.18,0,0,0-1,1c-.5.8-.8,1.7-1.3,2.4C456.09,244.65,456.39,243.75,456.89,243Zm-12.6-38.5c-.4-1.8-2.4-1.9-3.8-3.2C441.79,202.55,443.79,202.75,444.29,204.45Zm-12.5-55.1c1.3-2.5,3.3-2.8,5.5-4.5,1.5-1.2,3.3-1.2,4-3a2.6,2.6,0,0,0,.2-1.7,2.53,2.53,0,0,1-.2,1.7c-.7,1.8-2.5,1.8-4,3-2.2,1.7-4.2,2-5.5,4.5a8.53,8.53,0,0,0-1.3,4.1A7.1,7.1,0,0,1,431.79,149.35Zm-1.5,11.5c1.5-.8,3.3-.8,3.5-2.5h0c-.3,1.7-2.1,1.8-3.5,2.5-2.5,1.4-5.1-.1-7,2a5,5,0,0,0-1,1.9,4.39,4.39,0,0,1,1-1.9C425.09,160.75,427.69,162.25,430.29,160.85Zm-8.1,4.3a6,6,0,0,0,0,1.9A4.06,4.06,0,0,1,422.19,165.15Zm.9,6.5c-.2-1.3-.6-2.6-.8-3.7,0-.2,0-.3-.1-.4A41.77,41.77,0,0,1,423.09,171.65Zm-47.7,31.5c1.2-.7,2.1-.5,3.5-.5,2.6,0,4,1.1,6.5,1.5,2,.3,3.1.1,5,.5a14,14,0,0,1,3.5,1c2.3,1,2.5,3.9,5,4,3.2.1,2.6-4.7,5.5-6,1.5-.7,2.5-.5,4-1,2.8-.9,4.2-2,7-3,1.7-.6,2.9-.6,4.5-1.5,2.1-1.1,2.9-2.3,4.5-4a62.55,62.55,0,0,0,4-5v-.5l.5-1-.5,1.5c-1.6,2-2.3,3.2-4,5s-2.5,2.9-4.5,4c-1.6.9-2.8.9-4.5,1.5-2.8,1-4.2,2.1-7,3-1.6.5-2.6.3-4,1-2.9,1.4-2.3,6.1-5.5,6-2.5-.1-2.7-3-5-4a14,14,0,0,0-3.5-1c-1.9-.4-3.1-.2-5-.5-2.6-.4-3.9-1.5-6.5-1.5-1.3,0-2.3-.2-3.5.5a2,2,0,0,0-.8.8A2,2,0,0,1,375.39,203.15ZM349.79,250c2.9,1.2,4.4,2.4,7.5,3s5.1,1,8,0c3.3-1.1,4.3-3.4,7-5.5,3.5-2.8,5.7-4.1,9.1-7,2.2-1.9,3.7-2.7,5.5-5s4.8-4.4,4.4-6.9c.4,2.5-2.5,4.5-4.4,6.9s-3.3,3.1-5.5,5c-3.4,2.9-5.5,4.3-9.1,7-2.8,2.2-3.7,4.4-7,5.5-3,1-5,.6-8,0s-4.6-1.8-7.5-3c-2.4-1-4.4-.5-6-2.5-1.3-1.6-.8-3.1-1.5-5-1.1-3-.3-6.9-3.5-7.5-2.3-.5-3.4,1.5-5.5,2.5l-11.1,1c-3.7-.4-6.2-2.7-9.6-1a7.35,7.35,0,0,0-3,2.5c-1.4,1.8-2.8,3.7-2.7,5.7-.1-1.9,1.3-3.9,2.7-5.7a8.93,8.93,0,0,1,3-2.5c3.3-1.7,5.8.6,9.6,1l11.1-1c2.2-1,3.2-3,5.5-2.5,3.2.6,2.4,4.5,3.5,7.5h0c.7,1.9.2,3.4,1.5,5,1.5,2,3.6,1.5,6,2.5l-1-1.5v0Zm-9.6-37.2c.6-3.2-3.1-4.1-4.5-7-.4-.8-.8-1.5-1.1-2.1.3.6.7,1.3,1.1,2.1,1.4,2.9,5.1,3.8,4.5,7Zm-7.1-13.1h0a6.55,6.55,0,0,1-.1-2.4A20.08,20.08,0,0,0,333.09,199.65Zm1,3c0-.1-.1-.1-.1-.2s0-.1-.1-.2C334,202.35,334,202.45,334.09,202.65Zm9.6,26.2c1.4,2.3,1.4,3.9,2,6.5s.4,4.4,1,7c0,.1.1.2.1.3,0-.1-.1-.2-.1-.3-.7-2.7-.4-4.3-1-7s-.6-4.3-2-6.5c-1.9-3-5.3-2.5-7-5.5a10.17,10.17,0,0,1-1.6-4,9.62,9.62,0,0,0,1.6,4C338.39,226.35,341.89,225.85,343.69,228.85ZM313.49,172c2.8,1.4,4.9,0,8.1,0,3.7,0,5.9.6,9.6,0,2.4-.4,3.8-2.4,6-1.5a5,5,0,0,1,2.5,2,3.45,3.45,0,0,1,.7,2.3,3.1,3.1,0,0,0-.7-2.3,4.52,4.52,0,0,0-2.5-2c-2.3-.9-3.6,1.2-6,1.5-3.7.6-5.8,0-9.6,0-3.2,0-5.3,1.5-8.1,0a9.13,9.13,0,0,1-3-2.5v0A10.27,10.27,0,0,0,313.49,172Zm-14.1-12.1c3,.4,5.1-.3,7.5,1.5a5.15,5.15,0,0,1,1.3,1.7,4,4,0,0,0-1.3-1.6c-2.3-1.8-4.5-1.2-7.5-1.6-5.3-.7-8.4,1.2-13.6,0-2.8-.6-4.9-.5-7-2.5-2.6-2.5-2.1-5.4-2.5-9.1a14.08,14.08,0,0,1-.1-2,14.08,14.08,0,0,0,.1,2c.4,3.6-.1,6.5,2.5,9.1,2.1,2,4.2,1.9,7,2.5C291,161.05,294.19,159.25,299.39,159.85Zm10.1,7.7a3.09,3.09,0,0,1-.2-.8A1.88,1.88,0,0,0,309.49,167.55Zm-.6-2.4c-.1-.5-.2-.9-.3-1.3C308.69,164.25,308.79,164.65,308.89,165.15Zm-44.2,131.6c-1.7-2.1-2.1-3.7-3.5-6C262.59,293.05,263,294.65,264.69,296.75ZM232,265.55Zm2,10.6c-.8,2.9-.7,4.7-1.5,7.5-.9,3-1.2,5-3,7.5-1.6,2.1-3.1,2.7-5,4.5-1.6,1.5-2.1,2.9-4,4-2.1,1.2-3.7.7-6,1.5s-3.3,1.7-5.5,2.5-3.9.7-6,2-2.8,3-4.5,5a62.55,62.55,0,0,0-4.5,6c-2,3.2-3.6,4.9-4.5,8.6a4.58,4.58,0,0,0-.1,2,7.58,7.58,0,0,1,.1-2.1c.9-3.7,2.5-5.4,4.5-8.6a55.2,55.2,0,0,1,4.5-6c1.7-2,2.3-3.6,4.5-5s3.7-1.1,6-2,3.3-1.7,5.5-2.5,3.9-.3,6-1.5c1.9-1.1,2.4-2.5,4-4,1.9-1.8,3.5-2.4,5-4.5,1.9-2.6,2.1-4.5,3-7.5.9-2.8.7-4.5,1.5-7.4.5-1.8,1.5-2.7,1.5-4.5h0C235.59,273.45,234.49,274.35,234,276.15Zm12-1a11.54,11.54,0,0,0-.9-2.6,14.81,14.81,0,0,0-2.5-3.5,14,14,0,0,1,2.5,3.5,11.54,11.54,0,0,1,.9,2.6,7.66,7.66,0,0,0,1.1,2.5A6.19,6.19,0,0,1,246,275.15ZM267.29,401a.9.9,0,0,0-.1,1h0A1.64,1.64,0,0,1,267.29,401Zm54.3,38.2c-.7-2.1-.2-3.5-1-5.5-1.1-2.7-2.7-3.7-4.4-5.9h0c1.7,2.2,3.4,3.2,4.4,5.9.8,2,.3,3.4,1,5.5,1,3,3,4,4,7,.8,2.5.7,4,1,6.5a64.07,64.07,0,0,1,.6,7,64.07,64.07,0,0,0-.6-7c-.3-2.6-.2-4.1-1-6.5C324.59,443.15,322.59,442.15,321.59,439.15Zm1,51.3h0c.1,3,2.6,3.9,4,6.5,1,1.9,1.9,2.9,2.5,5a22.5,22.5,0,0,1,.5,2.2h0a22.5,22.5,0,0,0-.5-2.2c-.6-2.1-1.5-3.1-2.5-5C325.19,494.45,322.59,493.45,322.59,490.45Zm19.1,246.1c-1.2-6.4-1.6-10.1-2.5-16.6s-2-10.1-2-16.6c0-3.1-.2-5.6-.1-8.1-.1,2.4.1,4.8.1,7.8v.2c.1,6.5,1.1,10.1,2,16.6s1.3,10.2,2.5,16.7c1,5.7,2.2,8.8,3,14.5.7,4.9.2,7.7,1,12.6,1.1,6.2,3.6,9.3,4.5,15.6.6,4.1.1,6.5.5,10.6.2,2.5,1.9,4.6,1.8,6.6.1-2-1.6-4.1-1.8-6.6a50.61,50.61,0,0,1-.2-5.3,34.5,34.5,0,0,0-.3-5.3c-.9-6.3-3.5-9.3-4.5-15.6-.8-4.9-.3-7.7-1-12.6C343.89,745.45,342.69,742.35,341.69,736.55Zm3.6,78.8c0,.2-.1.4-.1.6A1.76,1.76,0,0,1,345.29,815.35Zm1.1-10.5c-.1,1.6.1,3.3-.1,5.2h0C346.39,808.15,346.19,806.35,346.39,804.85Zm-.2,16.3a.37.37,0,0,1-.1-.3.44.44,0,0,1,.1.3c1.2,2,2.9,2.2,4.5,4,3.3,3.6,7.7,5.8,6.5,10.6h0c1.1-4.7-3.3-7-6.6-10.5C349.09,823.45,347.49,823.15,346.19,821.15Zm-1-2.9c0,.2.1.4.1.6C345.29,818.65,345.19,818.45,345.19,818.25Zm28.7,105c-1.7-1.4-.5-3.6-1.5-5.5-1.3-2.6-3.8-2.9-5-5.5-1.1-2.3.2-4.3-1-6.5s-3.6-2.3-5-4.5c-2.1-3.3-.1-6.3-1.5-10.1-.8-2.1-1.6-3-2.5-5a27.92,27.92,0,0,1-2-5.5c-.4-1.7-.2-2.8-.5-4.5-.7-3.9-2.8-5.7-3-9.6-.1-2.4.4-3.7.5-6,.3-5.5-1.8-9.6-1.4-14.1-.4,4.4,1.7,8.6,1.4,14-.1,2.4-.7,3.7-.5,6,.2,3.9,2.3,5.7,3,9.6.3,1.7.1,2.8.5,4.5a27.92,27.92,0,0,0,2,5.5c.9,2,1.8,3,2.5,5,1.4,3.7-.6,6.7,1.5,10.1,1.4,2.2,3.8,2.2,5,4.5s-.1,4.2,1,6.5c1.2,2.7,3.7,2.9,5,5.5,1,2-.2,4.1,1.5,5.6.2.1.3.1.5.2a.37.37,0,0,1-.3-.1C374,923.35,374,923.35,373.89,923.25Zm1.1,3.9a2.07,2.07,0,0,0-.6,1A2.07,2.07,0,0,1,375,927.15Zm4.6-2.7a1.08,1.08,0,0,0-.2-.7,1.38,1.38,0,0,0-.3-.4c-.6-.5-1.5-.2-2.4,0a5.24,5.24,0,0,1-1.7.2c1.6.1,3.6-1.4,4.5.1A2.49,2.49,0,0,1,379.59,924.45Zm-.1.2c0,.1-.1.1-.1.2A.35.35,0,0,0,379.49,924.65Zm-5.1,3.6h0c-.1,3.3,6.3.9,7.6,4a3.66,3.66,0,0,1,.2,2.5,4.53,4.53,0,0,0-.3-2.5C380.69,929.25,374.29,931.65,374.39,928.25Zm10.1,32.7a8.73,8.73,0,0,1,.5,5.5h0a10.39,10.39,0,0,0-.5-5.5c-.6-1.9-3.3-2.6-2.5-4.5h0C381.29,958.35,383.89,959.05,384.49,961Zm1,17.2c-.6-2.9-3.5-4.1-3-7h0c-.5,2.8,2.4,4,3,7,.6,2.8,1.1,5.1.5,7.5C386.59,983.25,386.09,981,385.49,978.15Zm.5-23.7h0c.5-1.6-1.4-2.4-2-4a22.13,22.13,0,0,1-1.5-5c-.6-3.1-.4-4.9-.5-8a6.15,6.15,0,0,1,.1-1.4,6.15,6.15,0,0,0-.1,1.4c.1,3.2-.1,5,.5,8a22.13,22.13,0,0,0,1.5,5C384.59,952.05,386.49,952.75,386,954.45Zm-5.9,36.8Zm-.6.9a1.91,1.91,0,0,0-.5,1,.6.6,0,0,1,.1-.4C379.09,992.45,379.29,992.35,379.49,992.15Zm4,13.1c-2.1-1.6-1.1-4-2-6.5-.9-2.2-2.8-3.2-2.5-5.5h0c-.3,2.3,1.7,3.3,2.5,5.5.9,2.4-.1,4.8,2,6.5,2,1.5,4.9-1.5,6.5.5a1.75,1.75,0,0,1,.4,1.5,2.3,2.3,0,0,0-.4-1.4C388.29,1003.85,385.49,1006.85,383.49,1005.25Zm21,12.9a4.29,4.29,0,0,0-.4-3.3,5.63,5.63,0,0,0-3.5-2.5c-1.5-.5-2.5.1-4,0-2.6-.1-4.9,1.4-6.5-.5a1.75,1.75,0,0,1-.4-1.5,2.3,2.3,0,0,0,.4,1.4c1.7,1.9,4,.4,6.5.5,1.6.1,2.5-.5,4,0a5.63,5.63,0,0,1,3.5,2.5A3.81,3.81,0,0,1,404.49,1018.15Zm9.7-426c-2-1.3-3.7-1-6-1a11.48,11.48,0,0,0-5.5,1c-2.4,1.1-3.2,2.6-5,4.5-1,1.1-1,2.6-2.5,3-1.8.4-2.4-1.7-4-2.5-2.4-1.3-4-1.5-6.5-2.5-2.8-1.1-4.1-2.9-7-3a10.54,10.54,0,0,0-6,1.5,9.56,9.56,0,0,0-2.8,2.4c-.5.6-1.1,1.3-1.7,2.1h-.1c.7-.7,1.2-1.5,1.8-2.1a8.43,8.43,0,0,1,2.8-2.4,9.81,9.81,0,0,1,6-1.5c3,.1,4.3,1.9,7,3,2.5,1,4.1,1.3,6.5,2.5,1.6.9,2.2,3,4,2.5,1.5-.4,1.5-1.9,2.5-3,1.8-1.9,2.6-3.4,5-4.5a11.48,11.48,0,0,1,5.5-1c2.3-.1,4-.4,6,1,1.3.8,1.5,1.8,2.5,3h0C415.69,594,415.39,593,414.19,592.15Zm50.3,36.7c-2.1-.6-3.6.1-5.5-1-2.3-1.3-2.2-3.6-4-5.5-2.9-3-5.7-3.5-9.1-6-2-1.5-2.9-2.6-5-4-5.7-3.8-13.8.2-16.6-6-.6-1.3-.3-2.3-1-3.5-.9-1.7-2.3-2-3.5-3.5a27.89,27.89,0,0,1-2.8-4.2h0a34.05,34.05,0,0,0,2.8,4.2c1.2,1.5,2.6,1.8,3.5,3.5.7,1.3.4,2.2,1,3.5,2.8,6.3,10.9,2.2,16.6,6,2.1,1.4,3,2.5,5,4,3.4,2.5,6.1,3,9.1,6,1.9,1.9,1.7,4.2,4,5.5,1.8,1.1,3.4.4,5.5,1,3.7,1,5.6,2.3,9.1,4,2.6,1.3,3.8,2.6,6.5,3.5,1.7.6,3,0,4.5,1a5.16,5.16,0,0,1,2.5,5h0a5.16,5.16,0,0,0-2.5-5c-1.5-1-2.8-.4-4.5-1-2.8-.9-3.9-2.2-6.5-3.5C470.09,631.15,468.19,629.85,464.49,628.85Zm13.6,41.3c-.1-.7-.2-1.3-.3-2a7.47,7.47,0,0,0,.3,2c.4,1.9,1.2,2.7,2,4.5h0C479.29,672.85,478.39,672.05,478.09,670.15Zm10.5,2c-2.2,0-3.4.4-5.5.5h0c2.2-.1,3.4-.5,5.5-.5a46.49,46.49,0,0,1,7.5.5c2.2.2,3.4.4,5.5.5,3.1.1,5.1.6,8-.5a20.65,20.65,0,0,0,4-2.5c2.2-1.4,3.5-2,5.5-3.5,2.8-2.1,5.2-2.8,6.5-6a8.35,8.35,0,0,0,.6-2.9,7,7,0,0,1-.6,3c-1.3,3.2-3.8,4-6.5,6a63.73,63.73,0,0,1-5.5,3.5,24.18,24.18,0,0,1-4,2.5c-2.9,1.2-4.9.6-8,.5-2.2-.1-3.4-.3-5.5-.5A46.47,46.47,0,0,0,488.59,672.15Zm10.3,37.5-2.2,2.2h0Zm11.4,3.7c1.8.5,3.1.6,4.5,2C513.39,714.05,512.19,713.85,510.29,713.35Zm5.8,4.7a8.8,8.8,0,0,0-.5-1.5A4.42,4.42,0,0,1,516.09,718.05Zm17.8,12.4c1.5.8,2.5,1.1,4,2C536.39,731.55,535.49,731.35,533.89,730.45Z"/><path class="cls-1" d="M500.19,1071.15h0c-1.6-.6-1.9-2.1-3.5-2.5-1.3-.4-2.2.1-3.5,0-2.8-.2-4.4-1-7-2a38.75,38.75,0,0,1-5.5-2.5,41.35,41.35,0,0,1-5-3,33.42,33.42,0,0,1-4-3.5c-1.4-1.3-1.9-2.5-3.5-3.5-1.8-1.1-3.8.2-5-1.5s.9-3.3,0-5c-1-1.9-2.5-2.5-4.5-3-1.5-.4-2.5.1-3.9.4l1.8.2c1.6,2.2,2.8,3.1,4,5.5a30.2,30.2,0,0,1,2,6c.7,2.1.7,3.4,1.5,5.5,1,2.7,1.6,4.4,3.5,6.5s3.4,2.5,5.5,4l3.3,1.1a7.59,7.59,0,0,1,1.8-.6c3.3-.7,5.3,0,8.6,1,1.8.6,2.7,1.4,4.5,2,3.2,1,5.2,1.6,8.6,1,2.5-.4,5.1-.2,6-2.5.5-1.3.7-2.4,0-3.5C504.59,1069.35,502.19,1071.85,500.19,1071.15Z"/><path class="cls-1" d="M456.39,898.55c.7,1.4,2,1.5,3.5,2,1.7.6,3.1,1.6,4.5.5a3.09,3.09,0,0,0,1-3.5c-.4-1.4-2-1.2-2.5-2.5-.6-1.5,1.7-3,.5-4-.7-.7-1.5-.4-2.5-.5-1.8-.2-3.4-.9-4.5.5-1,1.2,0,2.4,0,4C456.39,896.45,455.79,897.35,456.39,898.55Z"/><path class="cls-1" d="M420.69,86.45c1.4.2,2.3-2.9,1-3.5a1.91,1.91,0,0,0-2.5,1A2,2,0,0,0,420.69,86.45Z"/><path class="cls-1" d="M427.19,47.15a3.07,3.07,0,0,0,3,3s1.1,1.3,2-1.5c.6-1.7,1.7-3.7,0-4.5a3.19,3.19,0,0,0-3,0A3.28,3.28,0,0,0,427.19,47.15Z"/><path class="cls-1" d="M422.19,27.05c1.7.3,3.3,0,4-1.5a2.74,2.74,0,0,0-.5-3.5c-1-.9-2.3-.6-3.5,0-1.5.8-3.1,2.6-2,4A2.46,2.46,0,0,0,422.19,27.05Z"/><path class="cls-1" d="M26.69,264.55c-1.5-1.8-2.8-3.5-5-3a3.7,3.7,0,0,0-3,2.5c-.5,1.5.3,2.5,1,4,.6,1.3,2.1,1.6,2,3s-1.9,1.6-2.5,3c-.7,1.6-1.3,2.9-.5,4.5a3.9,3.9,0,0,0,2,2c1.6.8,2.9.3,4.5-.5a6.25,6.25,0,0,0,3-3c1.2-2.2.8-4,.5-6.5S28.29,266.45,26.69,264.55Z"/><path class="cls-1" d="M33.79,273.65c-.8,1.2-.1,2.6,1,3.5,1.2,1.1,3,1.7,4,.5s.3-3-1-4S34.59,272.35,33.79,273.65Z"/><path class="cls-1" d="M46.89,274.65c-1.2,1-2,3.6-.5,4a2.45,2.45,0,0,0,2-.5c1.5-.8,3.4-2.1,2.5-3.5S48,273.55,46.89,274.65Z"/><path class="cls-1" d="M345.19,910.15c2-1.2.4-3.7.5-6,.1-1.8.4-2.8,0-4.5s-1.4-2.4-2-4c-.7-1.9,0-3.3-1-5a5.85,5.85,0,0,0-3-3,3.92,3.92,0,0,0-3.5,0,3.84,3.84,0,0,0-2.5,3c-.4,1.6.5,2.5,1,4,.6,1.7,1.7,2.3,2,4,.4,1.9-.4,3-.5,5-.1,2.2-1.6,4.1,0,5.5,1.3,1.2,2.8.3,4.5.5S343.69,911.05,345.19,910.15Z"/><path class="cls-1" d="M360.79,927.25a2.82,2.82,0,0,0-2.5-1.5c-1.2-.2-1.8.6-3,1,0,0,2.4.7,1.5,2.8s2.5,1.3,2.5,1.3v.5C359.39,933,361.59,928.75,360.79,927.25Z"/><path class="cls-1" d="M349.19,929.75c-1.7.6-2.2,1.9-3,3.5-.7,1.4-1.5,2.5-1,4,.7,2.3,3.2,2.5,5.5,2.5s5.2-.2,5.5-2.5c.2-1.2-.4-1.9-1-3C353.89,931.65,352,928.75,349.19,929.75Z"/><path class="cls-1" d="M353.79,959c2.2.2,3.9.5,5.5-1,2.3-2.1,1.5-5.6-.5-8a6.75,6.75,0,0,0-4-2.5c-1.5-.4-2.7-.8-4,0s-1,2-2,3-1.9,1.2-3,2c-2.3,1.6-7.5,2.5-5.5,4.5,1.2,1.3,2.8.5,4.5.5s2.4-.6,4-.5C350.89,957.15,351.69,958.75,353.79,959Z"/><path class="cls-1" d="M356.79,984.05c1-.8,1-1.8,1-3,0-1.7-.3-3.6-2-4-1.2-.3-1.9.6-3,1-1.6.7-4.1.3-4,2s2.1,1.3,3.5,2C354,983,355.29,985.25,356.79,984.05Z"/><path class="cls-1" d="M363.29,989.15c-1.6-.9-2.8.3-4.5.5-2.7.3-5.6-1.9-7,.5-1.5,2.6,3.7,3.6,4,6.5.2,1.6-1.2,2.6-.5,4,.8,1.6,2.3,1.7,4,2s3.3.9,4-.5-1.9-2-2-3.5a5.51,5.51,0,0,1,1-3.5c.8-1.4,3-1.3,3-3C365.39,990.75,364.59,989.85,363.29,989.15Z"/><path class="cls-1" d="M373.89,1031.85c-.6,1.8.8,4.7,2.5,4,1.1-.4,1.2-1.4,1.5-2.5.4-1.3,1-2.6,0-3.5C376.59,1028.65,374.39,1030.25,373.89,1031.85Z"/><path class="cls-1" d="M400.09,1048a19.31,19.31,0,0,0-4-1.5c-1.9-.6-3-1.1-5-1-1.6.1-3.8-.6-4,1-.2,1.1.8,1.6,1.5,2.5a8.43,8.43,0,0,0,5,3.5c2.3.6,3.7-.3,6-.5,2-.2,4.2,1.3,5-.5C405.49,1049.45,402,1049.05,400.09,1048Z"/><path class="cls-1" d="M412.69,1060.55c-1.1-.9-.9-2.1-2-3-1.4-1.2-2.9-2.5-4.5-1.5-1.8,1.1-1,4,.5,5.5,1.3,1.3,3.4-.4,4.5,1,.8,1.1-.4,2.5.5,3.5a3.22,3.22,0,0,0,5-.5,3.18,3.18,0,0,0,0-3.5C415.79,1060.65,413.89,1061.65,412.69,1060.55Z"/><path class="cls-1" d="M440.79,1055.05c-.2-1.3-.3-2.6-1.5-3s-2.2.5-3,1.5a3.69,3.69,0,0,0,0,5,2.93,2.93,0,0,0,3,1C441.09,1059.05,441.09,1056.85,440.79,1055.05Z"/><path class="cls-1" d="M495.69,1082.75a17.26,17.26,0,0,0-4.5,1c-2.1.8-5.1.7-5,3,.1,2.5,3.6,2,6,2,1.8,0,2.8-.7,4.5-1,2.1-.4,4.6,1,5.5-1a3.21,3.21,0,0,0-.5-3.5C500.39,1081.25,498,1082.55,495.69,1082.75Z"/><path class="cls-1" d="M487.09,1076.15h0c-1.4-1.4-3-.9-5-1a16.8,16.8,0,0,0-4.5.5,23.68,23.68,0,0,0-6.5,1.5c-1.5.6-2,1.5-3.5,2-1.9.7-3.1.3-5,.5l2.5,4c2.4.2,3.7-.1,6,.5,2.1.5,2.9,1.7,5,2,1.4.2,2.5.9,3.5,0,1.1-1.1-1.3-2.7-.5-4,1.1-1.8,3.4.4,5.5,0,1.4-.2,2.6.1,3.5-1C489.39,1079.65,488.49,1077.55,487.09,1076.15Z"/><path class="cls-1" d="M474,1074.65a12.25,12.25,0,0,0,2.3-.9l-3.3-1.1c-2.2-1.6-3.8-2-5.5-4a17.84,17.84,0,0,1-3.5-6.5,56.18,56.18,0,0,1-1.5-5.5,30.2,30.2,0,0,0-2-6c-1.2-2.4-2.5-3.4-4-5.5l-1.8-.2c-.4.1-.8.1-1.2.2-2,.1-3.1,0-5,0-1.2,0-1.9-.4-3,0-2.3.7-3.1,2.7-3.5,5-.3,1.7.3,2.8.5,4.5l3,1.5a22.11,22.11,0,0,1,2.5-.5c2-.3,4.4-2.4,5-.5a3.28,3.28,0,0,1-.5,2.5c-.8,1.7-2.8,1.4-3.5,3a4.05,4.05,0,0,0-.5,3c.5,2,2.7,1.7,4.5,2.5,2.1,1,6.2-.2,5.5,2-.6,1.8-2.7,1.3-4.5,1.5a9.53,9.53,0,0,1-5.5-1,20.68,20.68,0,0,0-2.5-1.5c-2-.8-3.4-.1-5.5,0-3.1.1-7-2.5-8,.5-.6,1.7-.5,3.5,1,4.5,1.3.9,2.5-.2,4,0,2.5.3,3.6,1.4,6,2a43.76,43.76,0,0,0,8,1c2.7.2,4.4-.8,7,0,1.7.5,2.3,1.8,4,2,2.3.2,3.3-1.5,5.5-2S471.69,1075.25,474,1074.65Z"/><path class="cls-1" d="M549.49,1025.35c-1.4-.1-2.2.6-3.5,1s-2.6-.2-3,1,2.2,1.2,2.5,2.5c.6,2.3-5.2,2.5-4,4.5a3.24,3.24,0,0,0,4.5,1c1-.6.8-1.6,1.5-2.5,1-1.3,2-1.7,3-3,.9-1.1,2.4-1.7,2-3S550.79,1025.45,549.49,1025.35Z"/><path class="cls-1" d="M565.09,1027.85c-2-.3-3.1-1.3-5-1a6.17,6.17,0,0,0-4,2c-1.7,1.8-3.3,4.4-1.5,6,1.2,1.1,2.5.7,4,.5,1.2-.2,2.1-.1,3-1,.7-.8.3-1.7,1-2.5,1.1-1.2,2.6-.2,4-1,1.2-.7,2.8-1.2,2.5-2.5C568.79,1026.85,566.69,1028.05,565.09,1027.85Z"/><path class="cls-2" d="M514.79,177.05c16.1,14.11,26.26,12.66,26.26,12.66,4,6.34,2.81,8.26,11.72,15.52,1,15.17,5.94,12.2,6.83,30.62,3.51,2.77,11.65,2.09,11.65,8.92-3.56,11.17-11.15,21.66-11.15,21.66,47.63-7.13,29.83,11,16.49,20.72-2.44,2.24-2,6-2,6,3.38-.59,7.66-1.33,12.35-6.15,5.18-5.33,10.81-14.68,14.77-13.05,10.88,1.7,28,10.7,28,10.7,19.53,8.62,10.12,20.38,10.12,20.38,2.34,1.43,12.75-11.39,21.05-2.51,13.27,3.78,16.53,4.43,16.53,4.43-11.7-4.4-20.6,14.6-20.6,14.6-4,19.6-23.6,27.3-23.6,27.3.6,22.5-18.4,44.9-18.4,44.9-20.2,38-28.8,29.5-28.8,29.5,21.9,14.5,6.3,27,6.3,27-42.6,26.5-51.2,6.9-51.2,6.9-8.1-14.4-13.2-16.1-13.2-16.1-27.1-1.2-4,18.9-4,18.9-12.7,18.3-38-23.5-38-23.5-20.7-8.6-30.1,11.5-30.1,11.5,1.5,17.9-37.2,59.7-37.2,59.7-17.5,18.7,3.7,20.9,3.7,20.9-4.9,21.3-51.7-15.2-51.7-15.2-8.8,9-26.3-18.8-26.3-18.8-11.5-20.7-42.9-31.7-42.9-31.7-12.9-4.6-13.2,5.6-13.2,5.6-17.5,13.7-89-107.5-89-107.5-7.5-8.6-9.5-2.9-9.5-2.9-20.5-2.9,9.5-67.2,9.5-67.2,5.2-26.1,20.2-45.4,20.2-45.4,2.3-11.3,5.8-4.3,5.8-4.3,17.9,4,28.8-32.1,28.8-32.1,2.9-11.9,18.2,8.8,18.2,8.8,17.6,7.3,77.2-27.8,77.2-27.8,4.5.2,16.3-24.8,16.3-24.8,3.5-12,9.3-3.5,9.3-3.5.1-13.2,20.7-11.4,20.7-11.4,23.6-5.6,13.2,15.8,13.2,15.8,2.3-12.2,21.9-12.7,21.9-12.7,8.3-11.4-11.4-6.7-11.4-6.7-1.86-10.52,5.81-10.79,12.69-10.63a84.33,84.33,0,0,0,9.61-.37c7.33,7.05,12.4,12.15,15.92,15.91-3.28,12.38,7.63,9.07,8.24,10.48.94,2.22,12.38,15.05,16.53,15.46C496.13,175.65,514.79,177.05,514.79,177.05Z"/><path class="cls-3" d="M516.48,232.82c2.19-.39,3.29-1.34,5.52-1.5,2.56-.18,4,1.51,6.51,1a9,9,0,0,0,6-4c1.15-1.53,1.24-2.74,2-4.51,1.43-3.29,2-5.27,3.51-8.51,1.25-2.62,2.1-4,3.51-6.54,1.33-2.36,2.14-3.66,3.51-6l1-1c-2-1.57-2.2-3.31-3.51-5.52-1.46-2.48-.94-5.18-3.5-6.51-2.09-1.08-3.86.92-6,0-1.67-.71-1.93-2.18-3.52-3-2.29-1.18-4.34.37-6.52-1-1.89-1.18-1.81-3.07-3.5-4.51a12.41,12.41,0,0,0-4.16-2.44l.14,1.44c-1,2.15-1.43,3.4-2.5,5.51-.91,1.79-1.74,2.64-2.51,4.5-2.09,5.08-2.24,8.7-1,14,.77,3.33,2.75,4.7,3.51,8,.6,2.67,1.21,4.36.5,7-.6,2.2-1.83,3.07-3,5-1.55,2.55-2.45,4-4,6.51H508c1.58.94,2.21,2.11,4,2.5s2.77-.17,4.51-.49"/><path class="cls-3" d="M556.08,751.2c-1.93-2.28-1.66-4.36-3-7-1.54-3.06-1.38-6.15-4.51-7.53-1.62-.71-2.83.08-4.51-.5-2.62-.9-3.14-3-5.51-4.51-1.49-.91-2.47-1.17-4-2-2-1.08-3.43-1.37-5-3-1.83-1.89-.59-5-3-6a4.86,4.86,0,0,0-5.52,1c-.83.78-.45,2.07-1.5,2.51-1.78.75-1.25-2.73-2-4.5-.82-2-.51-3.52-2-5s-2.65-1.51-4.51-2a13,13,0,0,0-4.52-.49c-2,.06-3.06.61-5,1l-4-2-1,2c-.79,1-1.72,1.28-2,2.5-.33,1.39.77,2.11,1,3.51.58,3.5-1,5.49-1,9,0,2.56.51,4,.5,6.51,0,3.56-1.75,5.57-1,9,.5,2.31,2.06,3.2,2.51,5.51a14.59,14.59,0,0,1,0,5c-.27,2.4-1.37,3.6-1.51,6a14.24,14.24,0,0,0,.51,5c.58,2.29,1.53,3.35,2.5,5.51l2-.5c1.86-.78,2.93,1.25,4.51,2.5,1.08.87,1.27,1.88,2.5,2.52,1.4.71,2.46.23,4,.49,1.77.3,2.75.61,4.51,1l6.52,3c1.75,1.37,2.33,3,4.51,3.52,2.35.54,3.76-.64,6-1.51,1.62-.64,2.26-2,4-2,1.49,0,2.18.84,3.51,1.5s2,1.76,3.51,2c3.05.47,3.88-2.92,6.52-4.52,1.72-1,2.91-1.28,4.51-2.51,2.09-1.59,3.66-2.52,4.52-5,.68-2-.64-3.46,0-5.51.92-3,3.67-3.43,5.51-6a30.26,30.26,0,0,0,2.61-4.32l-1.11.31c-3.91-1.79-7.24-1.27-10-4.53"/><path class="cls-3" d="M538,652.44c-.23-2.14.67-3.71-.5-5.51a6.68,6.68,0,0,0-3.51-2.52c-2.17-.9-3.67-.3-6-.49l-2.51,1c.29.82.69,1.19,1,2,1,2.56.53,4.27.5,7,0,2.34.37,3.83-.5,6-1.29,3.22-3.75,3.94-6.52,6-2,1.53-3.36,2.16-5.52,3.51-1.56,1-2.29,1.83-4,2.5-2.91,1.15-4.88.6-8,.51-2.16-.07-3.37-.33-5.52-.51a65.32,65.32,0,0,0-7.52-.49c-2.16,0-3.36.43-5.51.49-1.37,0-2.15,0-3.52,0l.51,2c-.78-1.76-1.65-2.63-2-4.51-.53-2.71-.68-4.81,1-7,1-1.34,2.43-1.22,3.52-2.51,2.39-2.86.32-5.84,1-9.52a19.63,19.63,0,0,1,1-4.51c.7-1.7,2.34-2.17,2.51-4a5.19,5.19,0,0,0-2.51-5c-1.46-1-2.8-.43-4.5-1-2.74-.93-3.93-2.23-6.52-3.52-3.45-1.71-5.31-3-9-4-2.12-.58-3.63.09-5.52-1-2.31-1.34-2.17-3.59-4-5.52-2.92-3-5.63-3.48-9-6-2-1.5-2.94-2.62-5-4-5.71-3.81-13.71.24-16.54-6-.59-1.3-.33-2.25-1-3.52-.91-1.7-2.27-2-3.51-3.51a47.06,47.06,0,0,1-3-4.51v.51c-1-1.17-1.25-2.15-2.51-3-2-1.33-3.64-1-6-1a11.93,11.93,0,0,0-5.52,1c-2.39,1.1-3.23,2.59-5,4.52-1,1.12-1,2.64-2.51,3-1.79.43-2.38-1.66-4-2.52-2.41-1.25-4-1.48-6.52-2.51-2.76-1.11-4-2.86-7-3a10.19,10.19,0,0,0-6,1.5,9.27,9.27,0,0,0-2.77,2.38,31.06,31.06,0,0,1-2.24,2.63l3-2.5c.6,6.05,1.33,9.46,1.51,15.53.08,2.74,1,4.49,0,7s-4,2.43-5,5c-1.31,3.32,1.46,5.47,1.51,9a25.28,25.28,0,0,1-1,8c-.88,3.3-2.1,4.91-3.51,8-1.33,3-1.95,4.69-3.51,7.52-2,3.71-3.72,5.47-6,9-3.23,5-4.76,8-8,13-2.47,3.77-4.82,5.37-6.52,9.52-2.27,5.57-1.58,9.36-1.51,15.31v.24c.06,6.5,1.13,10.1,2,16.54s1.35,10.12,2.5,16.55c1,5.7,2.23,8.81,3,14.53.67,4.86.18,7.71,1,12.55,1.06,6.22,3.63,9.28,4.51,15.53.58,4.09.15,6.43.5,10.54.29,3.33,3.17,6,1,8.52-1,1.21-2.36.93-3.52,2-2.75,2.6-1.58,5.75-2,9.52-.2,1.85-.65,3.47-.91,5a8,8,0,0,0,.91,6c1.23,2,2.91,2.29,4.51,4,3.29,3.53,7.63,5.82,6.52,10.53-.7,3-3.57,3.32-5,6-3.42,6.38.46,11.33,0,18.55-.14,2.35-.64,3.66-.49,6,.24,3.9,2.33,5.7,3,9.54.3,1.73.13,2.78.5,4.51a26.4,26.4,0,0,0,2,5.51c.87,2,1.75,2.95,2.51,5,1.36,3.7-.61,6.68,1.5,10,1.41,2.22,3.77,2.19,5,4.52s-.06,4.17,1,6.51c1.2,2.65,3.69,2.93,5,5.51,1,2-.22,4.11,1.5,5.52s4.41-1.35,5.52.5-2.72,1.92-4.32,3.26a1.69,1.69,0,0,0-.7,1.25c-.13,3.32,6.27.94,7.53,4,.73,1.8-.05,3,0,5,.07,3.15-.13,5,.5,8a24.73,24.73,0,0,0,1.5,5c.66,1.64,2.56,2.36,2,4s-3.37.38-4,2c-.74,1.88,1.89,2.61,2.5,4.51a9.32,9.32,0,0,1,.5,5.51c-.44,2-2.21,2.52-2.5,4.52-.44,2.94,2.38,4.1,3,7,.81,3.84,1.44,6.63-.5,10-1.51,2.66-5.62,2-6,5-.3,2.33,1.66,3.31,2.51,5.52.94,2.47-.1,4.88,2,6.5s4.85-1.42,6.51.51-1.52,4.23,0,6c1.66,1.94,4,.43,6.52.49,1.56.05,2.52-.46,4,0a5.72,5.72,0,0,1,3.51,2.52c1.54,2.26-.36,4.3,0,7,.24,1.79-.19,3.17,1,4.51s2.85.67,4.5,1.5c2.49,1.24,3.05,3.24,5.52,4.51,5,2.59,9.47,3.06,14.54.49,1.26-.63,1.7-1.45,3-2,3.9-1.62,6.51,1.2,10.52,2.51,2.6.85,4,1.53,6.52,2.5l6,3c1.16-2-.64-4.07-2.5-5.51s-5.05,1.16-6-1c-.49-1.08.3-1.87,0-3-.53-2-2.33-2.3-3.52-4a15.18,15.18,0,0,1-2-3.5,12.18,12.18,0,0,1,0-10,9.25,9.25,0,0,1,2.51-4c1.16-1.08,2.5-.79,3.51-2,1.39-1.69.87-3.33,1-5.52.16-2.54-.54-4-.5-6.52,0-2.16-.39-3.54.5-5.51.75-1.64,1.73-2.23,3-3.51a38,38,0,0,1,5-4c1.91-1.43,3.69-1.53,5-3.52,1.85-2.77,1.37-5.31.5-8.52-.38-1.45-.45-2.45-1.5-3.52-1.3-1.32-2.68-1.2-4.51-1.5s-3.14.56-5,0a11.18,11.18,0,0,1-3.5-2c-2.18-1.48-2.78-3.12-5-4.51-1.12-.68-1.9-.8-3-1.5a10.76,10.76,0,0,1-4-3.51c-1.41-2.2-1.48-3.91-1.5-6.52,0-2.19,0-3.59,1-5.52,1.4-2.58,3.43-3.13,6-4.49s6,.18,7.52-2.52c.86-1.55.09-2.79.5-4.51a6.34,6.34,0,0,1,.45-1.25c.59-1.26,1.43-2.14,1.55-3.76.22-2.65-2.11-3.87-2-6.52.07-1.62.84-2.4,1-4,.21-2.15-1.79-3.79-.51-5.52,1.11-1.48,3.89.25,4.51-1.49s-2-2.33-3-4c-.67-1.11-1.56-1.69-1.5-3,.13-2.37,5.4-.16,5.52-2.52a3.47,3.47,0,0,0-1.51-3c-1.49-1.29-3.08-.15-5-.5-1.58-.29-2.95.2-4-1s-.41-2.44-.51-4c-.11-1.75.83-2.95,0-4.5s-2.16-1.51-3.51-2.5c-1.79-1.33-3.73-1.43-4.51-3.53a5,5,0,0,1,1-5.51c2-2.19,4.64-1.07,7.53-.49,3.25.63,4.29,3.2,7.51,4a23.11,23.11,0,0,0,5.52.49,25.17,25.17,0,0,0,6,0c2.44-.39,4.59,0,6-2a6,6,0,0,0,1-3c.25-1.75-.3-2.75-.5-4.51l-1,1c-.59-3.71-1.31-5.77-1.51-9.53s-.93-6.09.5-9.52c.82-2,1.16-3.5,3-4.51,2.41-1.34,4.31.43,7,1,2.18.47,3.29,1.58,5.52,1.49s3.31-1.35,5.5-2c2.69-.78,4.34-.73,7-1.49,3.21-.92,4.8-2.13,8-3s5.58.14,8.52-1.51c3.92-2.21,4.29-5.63,6.52-9.52a61.28,61.28,0,0,0,3.51-7c1-2.33,2.35-3.63,2.49-6a4.1,4.1,0,0,0,0-.49c0-2-.64-3.17-1.51-5-1.23-2.66-2.8-3.64-4.51-6-1.4-1.94-2.87-2.72-3.51-5-.53-1.88.48-3.11,0-5-.43-1.7-1.41-2.36-2-4s0-2.75-1-4c-1.93-2.46-5.07,1-8,0a10.51,10.51,0,0,1-6-4.51c-1.4-2-2.5-3.59-2-6,.32-1.54.56-2.91,2-3.51l-2,.5c-1-2.15-1.92-3.23-2.5-5.51a14.47,14.47,0,0,1-.5-5c.14-2.4,1.24-3.6,1.51-6a14.59,14.59,0,0,0,0-5c-.46-2.31-2-3.2-2.51-5.51-.75-3.46,1-5.47,1-9,0-2.55-.51-4-.5-6.52,0-3.54,1.59-5.53,1-9-.24-1.4-1.33-2.12-1-3.5s1.22-1.53,2-2.51l1-2c1.75-1.75,2.74-2.76,4.51-4.51l2.49-4.25,1-1.76c1.56-1.76,2.73-2.55,4-4.51s1.28-3.5,2.5-5.51c1-1.68,1.87-2.42,3-4,1.63-2.3,2.07-4,4-6a35.94,35.94,0,0,1,3.51-3c1.37-1.16,2.41-1.58,3.52-3s.62-3,2-4,2.5-.46,4-1c2.8-1,5.2-1.34,6.52-4,.86-1.76.47-3,.5-5,0-3.17-.69-4.9-1-8"/><path class="cls-3" d="M434.26,1058.56c1.05-1.41-.29-2.78,0-4.5.46-2.77,1.43-4.21,3-6.52.7-1,1.29-1.49,2-2.52s.9-1.54,1.51-2.5c1.43-2.25,1.58-4.44,4-5.52,2-.87,3.37,0,5.51,0,2.54,0,5.27,2.22,6.52,0l-6-3c-2.53-1-3.92-1.66-6.51-2.51-4-1.31-6.63-4.13-10.53-2.51-1.31.54-1.75,1.37-3,2-5.08,2.57-9.5,2.09-14.55-.49-2.47-1.29-3-3.27-5.52-4.52-1.65-.83-3.27-.12-4.5-1.5s-.77-2.72-1-4.51c-.36-2.71,1.54-4.76,0-7a5.8,5.8,0,0,0-3.51-2.52c-1.49-.45-2.45,0-4,0-2.55-.07-4.85,1.45-6.52-.48-1.52-1.79,1.53-4.24,0-6s-4.5,1.07-6.5-.5-1.07-4-2-6.51c-.85-2.21-2.81-3.18-2.51-5.51a2,2,0,0,1,.09-.44c.72-2.54,4.5-2.05,5.93-4.58,1.93-3.4,1.31-6.19.49-10-.61-2.92-3.44-4.08-3-7,.29-2,2.07-2.55,2.51-4.51a9.43,9.43,0,0,0-.51-5.52c-.6-1.91-3.23-2.63-2.5-4.51.64-1.62,3.46-.34,4-2s-1.34-2.39-2-4a24.82,24.82,0,0,1-1.5-5c-.63-3.06-.43-4.87-.5-8-.05-2,.73-3.2,0-5-1.25-3.08-7.66-.7-7.52-4,.11-2.64,6.37-2.26,5-4.51a1.5,1.5,0,0,0-.32-.38c-.61-.51-1.5-.24-2.43,0a3.19,3.19,0,0,1-2.59,0l-.17-.13c-1.73-1.41-.5-3.53-1.51-5.51-1.32-2.6-3.81-2.87-5-5.52-1.06-2.33.21-4.24-1-6.51s-3.6-2.3-5-4.52c-2.11-3.33-.14-6.32-1.5-10-.75-2-1.64-3-2.5-5a25.85,25.85,0,0,1-2-5.51c-.38-1.73-.21-2.78-.5-4.51-.67-3.85-2.77-5.64-3-9.54-.15-2.34.36-3.65.5-6,.45-7.23-3.43-12.18,0-18.56,1.44-2.68,4.31-3,5-6,1.1-4.71-3.24-7-6.53-10.53-1.6-1.72-3.27-2-4.51-4-2.26-3.66-.48-6.75,0-11,.42-3.77-.75-6.92,2-9.52,1.16-1.08,2.5-.79,3.52-2,2.16-2.57-.72-5.18-1-8.52-.17-2-.15-3.66-.16-5.27a36.83,36.83,0,0,0-.34-5.27c-.87-6.25-3.45-9.31-4.51-15.53-.82-4.84-.33-7.68-1-12.55-.79-5.73-2-8.84-3-14.53-1.16-6.42-1.63-10.09-2.5-16.55s-2-10-2-16.54c0-6.08-.78-9.9,1.51-15.55,1.7-4.16,4.06-5.76,6.52-9.52,3.26-5,4.79-8,8-13,2.3-3.55,4-5.31,6-9,1.57-2.83,2.18-4.57,3.52-7.52,1.41-3.11,2.62-4.72,3.51-8a25.56,25.56,0,0,0,1-8c0-3.56-2.81-5.71-1.5-9,1-2.57,3.95-2.44,5-5s.07-4.29,0-7c-.19-6.07-.92-9.48-1.52-15.53l-4,3c-1-2.14-1.67-3.31-2.51-5.52-1-2.47-2-3.85-2-6.51,0-3.09,1.63-4.55,2.51-7.53a45.78,45.78,0,0,0,1.5-5.51c.57-3.08,1-4.91.51-8a14.51,14.51,0,0,0-2.51-7c-1.24-1.84-3.05-2-4-4-1.27-2.63.2-4.58,0-7.51a44.42,44.42,0,0,0-2.5-13.53c-1.56-4.55-1.37-8.6-5.52-11-2.4-1.42-4.82.23-7-1.5-1.92-1.53-1.41-3.67-3-5.52-1.46-1.69-2.7-2.2-4.51-3.5-2.64-1.91-4.29-2.76-7-4.52l.6.44a15.39,15.39,0,0,1-1.1,4.08c-1.11,2.71-2.57,3.83-4.52,6a38.35,38.35,0,0,1-6.51,6c-1.69,1.28-3.17,1.38-4.52,3-1.22,1.48-1.14,2.78-2,4.5s-1.53,2.76-2.51,4.51l-2.08-.38c.82.27,1.69.53,2.58.87,1.91.73,3.57.07,5,1.51,1.82,1.81.32,4,1,6.52.79,2.87,2,4.2,3,7a50.51,50.51,0,0,1,2.5,11c.8,5.63-.75,9,.5,14.55.46,2,1.23,3,1.51,5,.56,4.14-1.16,6.42-2,10.52-.73,3.53-1.14,5.53-2,9-.73,3-2.39,4.49-2,7.52.3,2.34,1.8,3.26,2.5,5.49a28,28,0,0,1,1,5,58.71,58.71,0,0,1,.49,7.51c.13,3.52-1.26,5.74,0,9,.76,2,2.72,2.41,3,4.5s-1.19,3-1.5,5a26.93,26.93,0,0,0,0,6c.1,2.55.27,4,.5,6.52.33,3.53.61,5.49,1,9,.2,1.77.43,2.74.5,4.51.14,2.93-.32,4.59-.5,7.53-.21,3.52,1.15,5.9-.5,9-1.17,2.21-4,2.08-4.51,4.52a5.87,5.87,0,0,0,.5,4c.69,1.65,2.28,1.85,3,3.5,1,2.32.14,4,0,6.51-.11,2,.21,3.19-.5,5s-2.36,2.16-3,4c-1,2.79.48,4.61,1,7.52a56.79,56.79,0,0,0,2,8.53c1,3,2.12,4.49,3,7.52s.45,5,1.5,8c.87,2.47,2.61,3.43,3,6s-.1,4.11-1,6.51c-.8,2.14-2.19,2.89-3,5-1.56,4-.76,6.74-.5,11,.18,2.95.81,4.58,1,7.53a2.09,2.09,0,0,1,0,.25,56.65,56.65,0,0,1,0,6.77c-.16,3.92-1.06,6.09-1,10,0,2.36.65,3.67.5,6-.17,2.6-1,3.95-1.51,6.51-.7,3.5-2.43,5.59-1.5,9,.66,2.46,2.34,3.26,3.51,5.51a25.67,25.67,0,0,1,3,8c.7,3.64-.7,5.88,0,9.53.48,2.42,2.33,3.55,2,6-.29,2.28-2.79,2.75-3,5-.26,2.54,1.92,3.55,2.5,6,.49,2.1,0,3.43.51,5.51.58,2.3,1.49,3.38,2.5,5.52,1.13,2.37,1.26,4,3,6,1,1.14,1.52,2.16,3,2.51,2.13.49,2.83-2.52,5-2.51a5.43,5.43,0,0,1,4,1.5c1.59,1.39.66,3.41,2,5,1.08,1.29,2.46,1.2,3.51,2.51a6,6,0,0,1,1.51,3c.35,2-1.64,3-1.51,5,.11,1.66,1.45,2.33,1.51,4,.07,2.11-1.69,2.94-2,5-.2,1.36-.8,2.41,0,3.52s2.39.13,3.51,1c2.47,1.93-2.2,5.38-.5,8a7.84,7.84,0,0,0,2,2c1.42,1.16,2.95,1,4.16,2.13a3.22,3.22,0,0,1,.35.38,6.65,6.65,0,0,1,1.5,4c.21,2-.39,3.11-1,5-.47,1.42-1,2.12-1.51,3.52-.9,2.3-2.49,3.59-2,6,.31,1.54,1.42,2.05,2,3.52,1.31,3.26.41,5.5.51,9,.07,3.13,1.08,5.08,0,8-.73,2-3.13,2.4-3,4.51s2,2.34,3,4c.91,1.49.57,3,2,4,1.75,1.24,3.46-.64,5.52,0,1.76.54,3.84.67,4,2.51s-2.88,1.41-4,3c-1.3,1.82-1.18,3.31-1.5,5.5-.35,2.35-1.2,4.16-.48,6.1a4.86,4.86,0,0,0,.48.93c.81,1.29,1.84,1.52,3,2.51,1.58,1.34,3,1.7,4,3.5,1.36,2.39-.41,4.44.51,7a6.73,6.73,0,0,0,1.49,3c.93.91,2,.66,3,1.49,2.09,1.76,1.23,4.12,2.51,6.52,1,1.86,1.31,3.26,3,4.51,1.35,1,2.65.56,4,1.51,2,1.35,1.86,3.28,3.5,5s3.4,1.59,4.52,3.52c.91,1.56.45,2.8,1,4.52a14.22,14.22,0,0,0,2,4.49c1,1.36,1.37,2.75,3,3,1.83.29,2.34-1.75,4-2.5a13.8,13.8,0,0,1,7-1.5,17.45,17.45,0,0,1,3.52.49,20.09,20.09,0,0,1,5.51,1.5c2.42,1.11,5.33,1.36,5.52,4a4.5,4.5,0,0,1-3,4.5c-1.8.8-3.25.37-5-.49-2.38-1.16-1.58-4.44-4-5.51s-5.24-1.71-6.51.49a4,4,0,0,0-.51,2.51c.11,2.11,1.37,3.18,3,4.51s5-.1,5,2-5.36-.73-5.52,1.51,3,1.56,5,2.49c2.7,1.27,4.12,2.36,7,3,1.91.44,3.09,1,5,.49,1.28-.33,2.22-.47,3-1.52"/><path class="cls-3" d="M427.75,557.68c-2.58,1.66-3.56,3.34-5,6-2,3.7-1.92,6.34-2.5,10.52-.54,3.88-.21,6.12-.5,10-.17,2.14-.43,3.36-.51,5.51-.06,1.57,0,2.45,0,4l-1.5.49a45.84,45.84,0,0,0,3,4.51c1.24,1.5,2.6,1.8,3.51,3.51.68,1.27.42,2.22,1,3.52,2.83,6.24,10.83,2.2,16.54,6,2.08,1.4,3,2.52,5,4,3.38,2.53,6.09,3,9,6,1.85,1.93,1.71,4.19,4,5.51,1.89,1.1,3.4.44,5.52,1,3.71,1,5.57,2.29,9,4,2.59,1.29,3.78,2.59,6.52,3.52,1.7.56,3,0,4.5,1a5.18,5.18,0,0,1,2.51,5c-.17,1.84-1.81,2.31-2.51,4a19.63,19.63,0,0,0-1,4.51c-.68,3.68,1.4,6.66-1,9.52-1.09,1.29-2.5,1.17-3.52,2.5-1.67,2.22-1.52,4.32-1,7,.35,1.89,1.22,2.74,2,4.51l-.51-2c1.37,0,2.15,0,3.52,0,2.15-.07,3.35-.45,5.51-.49a63.15,63.15,0,0,1,7.52.49c2.15.18,3.36.45,5.52.51,3.13.09,5.1.64,8-.51,1.72-.68,2.45-1.53,4-2.5,2.16-1.36,3.48-2,5.52-3.51,2.77-2.08,5.23-2.81,6.52-6,.87-2.19.47-3.67.5-6,0-2.75.49-4.47-.5-7-.32-.81-.72-1.17-1-2-.78-2.21-.35-3.69,0-6,.44-2.87,2.1-4.14,2.51-7a18.94,18.94,0,0,0-.5-7.52c-.51-2.43.1-4.73-2-6-1.34-.82-2.43-.53-4-.5-2,0-3,1-5,1-2.23-.05-3.77-.12-5.51-1.5-2.83-2.23-1.67-5.43-2-9-.26-2.73.19-4.29,0-7s.91-5-1-7-4-.88-6.52-1.5c-1.57-.37-2.42-.75-4-1-2.91-.46-4.6,0-7.53,0-2,0-3.06.13-5,0-2.76-.15-6,1.57-7-1-.68-1.67,1.42-2.75,1-4.51-.34-1.37-1.26-1.82-2-3-1.22-1.91-2.86-2.73-3-5-.12-1.85,1.17-2.69,1.5-4.51.74-4.09-.92-6.42-1.5-10.53l-.5-2.51c-2-2.14-2.65-3.82-5-5.52s-4.16-2.13-7-3c-4.15-1.25-6.71-1.9-11-1.5a33.22,33.22,0,0,0-6.51,1.5c-4,1.1-6.11,2.18-10,3.53-2.34.77-3.94.65-6,2"/><path class="cls-4" d="M778.65,545.9a1.79,1.79,0,0,0,.32-2.2,2,2,0,0,0-3.15-.32,1.79,1.79,0,0,0,0,2.21,1.92,1.92,0,0,0,2.83.31"/><path class="cls-4" d="M774.24,594.72c.84.21,1.51.51,2.21,0s.22-1.4.63-2.2c.51-1,1.66-1.1,1.89-2.21a2.3,2.3,0,0,0-.63-2.52c-.78-.59-1.58-.28-2.52,0s-1.92.56-2.21,1.58c-.24.86.77,1.32.63,2.2-.17,1.12-2.32,1.16-1.88,2.21.31.76,1.08.75,1.88.94"/><path class="cls-4" d="M773.61,578c.89.11,1.44-1.82.63-2.21a1.17,1.17,0,0,0-1.57.64,1.2,1.2,0,0,0,.94,1.57"/><path class="cls-4" d="M779.6,555.35s.67.83,1.26-1c.35-1,1-2.34,0-2.83a2,2,0,0,0-1.89,0,2,2,0,0,0,.63,3.78"/><path class="cls-4" d="M774.56,540.86a2.14,2.14,0,0,0,2.52-1,1.74,1.74,0,0,0-.32-2.2,1.86,1.86,0,0,0-2.2,0c-1,.51-1.92,1.64-1.26,2.52a1.74,1.74,0,0,0,1.26.63"/></g><rect class="cls-5" x="139.9" y="113.58" width="537.49" height="444.1"/><text class="cls-6" transform="translate(582.07 854.37)">south<tspan x="0" y="80">ameri</tspan><tspan class="cls-7" x="148.6" y="80">c</tspan><tspan class="cls-8" x="179.7" y="80">a</tspan></text><text class="cls-9" transform="translate(710.52 280.96)">the amazon</text></svg>