<svg id="Layer_1" data-name="Layer 1" xmlns="http://www.w3.org/2000/svg" xmlns:xlink="http://www.w3.org/1999/xlink" viewBox="0 0 1381.71 1018.7"><defs><style>.cls-1,.cls-16,.cls-5{fill:none;}.cls-2{fill:#aab58c;}.cls-3{fill:#4e6845;}.cls-10,.cls-11,.cls-13,.cls-17,.cls-18,.cls-4{fill:#bf5111;}.cls-16,.cls-5{stroke:#2a4024;stroke-miterlimit:10;}.cls-5{stroke-width:3px;}.cls-6{clip-path:url(#clip-path);}.cls-10,.cls-11,.cls-13,.cls-17,.cls-18,.cls-7{isolation:isolate;font-family:AlvaroCondensed, Alvaro;}.cls-7{font-size:35px;fill:#2a4024;}.cls-8{letter-spacing:-0.01em;}.cls-9{letter-spacing:-0.01em;}.cls-10{font-size:24.38px;}.cls-11{font-size:34px;}.cls-12{letter-spacing:-0.03em;}.cls-13{font-size:22.63px;}.cls-14{letter-spacing:-0.01em;}.cls-15{letter-spacing:-0.01em;}.cls-16{stroke-width:7px;}.cls-17{font-size:38.1px;}.cls-18{font-size:53.14px;}</style><clipPath id="clip-path" transform="translate(363.8)"><rect class="cls-1" x="501.9" y="574.3" width="451.8" height="565.3"/></clipPath></defs><title>florida_pinerocklands</title><path class="cls-2" d="M1.2,61.8l5.4-6.6,6.2-6.6,3.7-5.2.4-3.9-1.3-3.3L11,32.5,6,27.2l-4.6-2L0,22.6l.7-7.8L2,10.9l.4-4L193,6.7l13.5-.3,3.6,3.5,2.8,3.5,6.3,8.6.4,4,.2,6.4,174.3-4.9,5.1,5.3.3,5.6,1.5.9-.4,4.7.5,3.2,4.5,2.8,5.4,2.1,8,.8,1-1.5,4-7.6,3.6-3.6-1.2-4.9-3.1-10.6-.5-3.2-4.3-6,1-10.3,1.1-3.1,3.2.3L427,3.5l.1-1.5,4-2,2.1,2.6,4.6,2,6.6,5.4,3.9,1.1,7.1.7,8-.2,3.1.3,6.1,19.9,8.6,18.3,22.5,55.5,15.7,27,7,10.2,11.9,17,.1,7.2,4.6,18.7,4.8,16.4,9.4,18.4,8.1,23.1,37.1,52.9,1.9,13.7L616,371l-1.3,38.9-4.2-6-2.1,22.5-7,15.9-7.9,8.7-6.7,12.7-3.2.5-28.2,15.4-13.2-1.3-6.7,4.1-14.1-.6-12-5.9,3.7-5.9,6,.6,7.6,3.9,4.2-2.8-7.7-11.1,3-6.1,6.6-2.6,2.3-7-7.9-.7.5-5.5,3-6.9-4.1-6.8-28.1-5.9-31.4-21.3-9.9-21.7,4.3-28.3.7-6.9-8.6,7.8-6.8,5.6-3-1.1-2.6-30.9,4.4-5.1,1.5-16-3.2,8.5-3.5,2.9-5,1.9-8.6-1.6-1.5-.9,4.4,12.4-5,1.9-4.5-2.8-10.8-12.2v8l-10.3-25.7-9.2-12-5.3-2.9,2.7-3.7,9.3-6.3,9.9-11.8.8-8.7,2.6-3.6.5-5.6-8.7-8L398,244.9l-6.4-7.7-4.1,1.2-.2,2.2,4.7,9.2,1.1,4.9-5,2.7-3.4,2.9-4.6-2-6.5-22.9,3.4-18.8,1.8-27.7L377,157.7l-11.1-17-30.3-22.8-13.5-7.6-3.1-1.1,1.1-11.8-1.8-5.7L305,89.6l-5-5.3-7.8-1.5-4.4-3.6-4-7.5-12-6.7-8.2-.8-4.8,1.1-8.4,5.6L232.3,87.5l-9.5.7L209,100.4l-10.4,1.4L183,109.1l-15,.2-5.9-3.7-6.6-4.6-1.7-15.3-.1,1.6,2.9,2.7.9,7.2,5.1,4.5,6.5-1.8,1.5-15.7L169.1,75l-5.7-6.3-11-.2-5.5-.5.5-4.9,16.9-3.4-5.2-3.8L134,54.3l-7.7-.7-2.2-1.8.4-3.9,5.8-2.6.2-2.3-7.2-.7-5.9,2.6-4.2,2,3.3,7.5-7.7-3.1-2.2-1.8L80,50.2l-9.2,2.1-14.6,1-4.2,2,.3-3.2,2-4.6-1.2-4.1-2.9-3.5L37,44.3l-.2,2.6,1.8,4.8-.2,2.5-5.2,4.3L3.6,61.2l-2.4.6Zm0,0,5.4-6.6,6.2-6.6,3.7-5.2.4-3.9-1.3-3.3L11,32.5,6,27.2l-4.6-2L0,22.6l.7-7.8L2,10.9l.4-4L193,6.7l13.5-.3,3.6,3.5,2.8,3.5,6.3,8.6.4,4,.2,6.4,174.3-4.9,5.1,5.3.3,5.6,1.5.9-.4,4.7.5,3.2,4.5,2.8,5.4,2.1,8,.8,1-1.5,4-7.6,3.6-3.6-1.2-4.9-3.1-10.6-.5-3.2-4.3-6,1-10.3,1.1-3.1,3.2.3L427,3.5l.1-1.5,4-2,2.1,2.6,4.6,2,6.6,5.4,3.9,1.1,7.1.7,8-.2,3.1.3,6.1,19.9,8.6,18.3,22.5,55.5,15.7,27,7,10.2,11.9,17,.1,7.2,4.6,18.7,4.8,16.4,9.4,18.4,8.1,23.1,37.1,52.9,1.9,13.7L616,371l-1.3,38.9-4.2-6-2.1,22.5-7,15.9-7.9,8.7-6.7,12.7-3.2.5-28.2,15.4-13.2-1.3-6.7,4.1-14.1-.6-12-5.9,3.7-5.9,6,.6,7.6,3.9,4.2-2.8-7.7-11.1,3-6.1,6.6-2.6,2.3-7-7.9-.7.5-5.5,3-6.9-4.1-6.8-28.1-5.9-31.4-21.3-9.9-21.7,4.3-28.3.7-6.9-8.6,7.8-6.8,5.6-3-1.1-2.6-30.9,4.4-5.1,1.5-16-3.2,8.5-3.5,2.9-5,1.9-8.6-1.6-1.5-.9,4.4,12.4-5,1.9-4.5-2.8-10.8-12.2v8l-10.3-25.7-9.2-12-5.3-2.9,2.7-3.7,9.3-6.3,9.9-11.8.8-8.7,2.6-3.6.5-5.6-8.7-8L398,244.9l-6.4-7.7-4.1,1.2-.2,2.2,4.7,9.2,1.1,4.9-5,2.7-3.4,2.9-4.6-2-6.5-22.9,3.4-18.8,1.8-27.7L377,157.7l-11.1-17-30.3-22.8-13.5-7.6-3.1-1.1,1.1-11.8-1.8-5.7L305,89.6l-5-5.3-7.8-1.5-4.4-3.6-4-7.5-12-6.7-8.2-.8-4.8,1.1-8.4,5.6L232.3,87.5l-9.5.7L209,100.4l-10.4,1.4L183,109.1l-15,.2-5.9-3.7-6.6-4.6-1.7-15.3-.1,1.6,2.9,2.7.9,7.2,5.1,4.5,6.5-1.8,1.5-15.7L169.1,75l-5.7-6.3-11-.2-5.5-.5.5-4.9,16.9-3.4-5.2-3.8L134,54.3l-7.7-.7-2.2-1.8.4-3.9,5.8-2.6.2-2.3-7.2-.7-5.9,2.6-4.2,2,3.3,7.5-7.7-3.1-2.2-1.8L80,50.2l-9.2,2.1-14.6,1-4.2,2,.3-3.2,2-4.6-1.2-4.1-2.9-3.5L37,44.3l-.2,2.6,1.8,4.8-.2,2.5-5.2,4.3L3.6,61.2l-2.4.6Zm527.4,89.9,4.5,2.8,4.8,8.4,6.3,8.6,3.4,5.9,6,11.7,3.6,4.3,4.1,6.8,3.5,5.1,2.8,3.5M530.6,315l-7.3,10.4-2.8,4.5-4.2,2.8-4.5,5.1-4.1,1.2-2,4.6,1.6,8.1,5,6.1,5.5.5,6.5-1.7,3.1.3,3.6,3.4-1.8,2.2,2.1,2.6,11.4,5.9,9.4,1.7,6.9-4.1.3-3.2-1.2-5.7-5.3-2.9,1.2-3.9,4.3-1.2.6-6.3-3.2-10.6-2.2-9.8-4.2-6-5.6-7.7-4.6-2-4.9,1.1-1.7,1.4-1.9,3.2Zm0,0-7.3,10.4-2.8,4.5-4.2,2.8-4.5,5.1-4.1,1.2-2,4.6,1.6,8.1,5,6.1,5.5.5,6.5-1.7,3.1.3,3.6,3.4-1.8,2.2,2.1,2.6,11.4,5.9,9.4,1.7,6.9-4.1.3-3.2-1.2-5.7-5.3-2.9,1.2-3.9,4.3-1.2.6-6.3-3.2-10.6-2.2-9.8-4.2-6-5.6-7.7-4.6-2-4.9,1.1-1.7,1.4-1.9,3.2Zm22.5,189.1,4.3-3.6m-21.5,9.1-9,2.3M502.4,520l10.5-1.4m-19.8,6.8-6.4-.6m122-71.9-10.2,15-6.8,4.9-7,7.3-5.9,3.4-6.9,5.7-1,2.3,3.3-1.3,6.7-4.1,8.4-4.8,8.6-7.1,7-7.3,3.7-6,3-6.1-1.3-2.5-1.6.6Zm0,0-10.2,15-6.8,4.9-7,7.3-5.9,3.4-6.9,5.7-1,2.3,3.3-1.3,6.7-4.1,8.4-4.8,8.6-7.1,7-7.3,3.7-6,3-6.1-1.3-2.5-1.6.6Z" transform="translate(363.8)"/><path class="cls-3" d="M602.7,392.5s-.4,2-1.1,1c0,0-1.1-.7-1.5.9a1.71,1.71,0,0,0,.3,2.3s3.3,3.6,2.2,5.1c0,0-2.9,1.1-2.7,2.9,0,0,0,2.1.8,1l1-1.6s.3-.6,1.3,0l1.1.7s.7.3.3,1.4a1.64,1.64,0,0,1-2,.7s-2.1-.7-2.2.3c0,0-.5.4,2.5,1.7,0,0,2.2.9,1.4,2.2a2.52,2.52,0,0,0-1.5,3.3s1,3.2-.8,3.2c0,0-1,.6-1,.8,0,0-1.6-.2-2,.6l-2.1.3s-.9-.3-1.9,1.4c0,0-2,.7-2.5,0,0,0-1.6-.3-1.3,1.5,0,0,.1,1.4-.3,1.6a1.24,1.24,0,0,0,.8,1.6,1.44,1.44,0,0,1,.1,1.8,1.1,1.1,0,0,0,.3,1.1s.7,1.6-.5,2c0,0-.5.2-.7,0,0,0-1.1-.5-.9,1.4a1.76,1.76,0,0,1-1.7,1.5,1.72,1.72,0,0,0-1.6,2.2s.2,1.5-.4,2a2.47,2.47,0,0,0-.3,1.9,3.19,3.19,0,0,1-1.8,2.4s-2.1,1.1-.8,4.2l.1,2.6s-.8,1.2.8,2.8c0,0,.9,2.2,0,2.9,0,0-2.3.6-1.6,2.5,0,0-1.5,1.3-.1,2.1,0,0,1.2.2,1.6-.7a3.54,3.54,0,0,1,1.9-.4s1.6-.4,2.8-3.8c0,0,.5-1.1,1-1.1a2.81,2.81,0,0,0,.9-2.4s.7-1.6,1.3-1.9c0,0,1.6-1.2,1.5-2.2,0,0,.3-1,1,0a1,1,0,0,0,1.9-.1s1-1.2.2-4c0,0-.4-.5.9-2.2,0,0,1.1-2,1.4-2,0,0,1.9-3.1,1.5-4.8a2.47,2.47,0,0,1,.6-2.9,5.8,5.8,0,0,0,1.3-3.4s.4-6.9,2.7-6.7l1.6-1.5s1.5-.9,1-4.4l-.1-3.5s0-1.8.4-1.9c0,0,1.7-2.8,1.1-4.6a2.59,2.59,0,0,1,.2-2.1s.3-4.5-1.3-5.8c0,0-2.2-.9-2-2.5,0,0-.1-1.9-.8-2.3,0,0-.7-.2-1,.8s-1,.1-1,.1S602.9,392.1,602.7,392.5Z" transform="translate(363.8)"/><path class="cls-4" d="M590.4,431.2s-.3-.8.1-.9c0,0-.1-.8-.8.1,0,0-.2,1.1.6,1.2C590.3,431.7,590.7,431.8,590.4,431.2Z" transform="translate(363.8)"/><path class="cls-4" d="M597.4,432s-.2-.4.1-.5c0,0,0-.5-.5-.2,0,0-.4.7.1.9Z" transform="translate(363.8)"/><path class="cls-4" d="M591.7,431s-1,.1-.6.6c0,0,.4.3,1.1-.2Z" transform="translate(363.8)"/><rect class="cls-4" x="586.9" y="451.49" width="0.9" height="1" transform="translate(304.14 90.53) rotate(-8.39)"/><path class="cls-4" d="M593.4,435.6s-.7.3-.9-.6c0,0-.1-.9-.6-.3,0,0-.6.3-.1.7,0,0,.3,0,.4.5,0,0,0,.5.6.3,0,0,1.3-.1,1.3-.5S593.4,435.6,593.4,435.6Z" transform="translate(363.8)"/><path class="cls-4" d="M593.9,433.2a.4.4,0,0,1-.5.3s-.4-.1-.4-.4c0,0-.6-.3-.7.1,0,0-.7.7-.5.9a.58.58,0,0,0,.9-.3s.4,0,.2.3a.87.87,0,0,1,.1.9s.1.5.6.2c0,0,.1.5.3.2,0,0,.1-.2-.3-.9l.7-.2s.2-.6-.5-.2c0,0-.5-.3.3-.4a.3.3,0,0,0,.3-.4S594.4,432.7,593.9,433.2Z" transform="translate(363.8)"/><polygon class="cls-4" points="964.2 431.8 964.1 431.3 963.7 431.4 963.8 432.1 964.2 431.8"/><circle class="cls-4" cx="952.2" cy="437" r="0.2"/><circle class="cls-4" cx="955.2" cy="436.2" r="0.2"/><circle class="cls-4" cx="955.4" cy="437" r="0.2"/><circle class="cls-4" cx="955.3" cy="438.4" r="0.5"/><circle class="cls-4" cx="956.2" cy="440.3" r="0.4"/><circle class="cls-4" cx="954.8" cy="440.6" r="0.3"/><circle class="cls-4" cx="955.2" cy="441.4" r="0.4"/><circle class="cls-4" cx="952.2" cy="444.2" r="0.3"/><circle class="cls-4" cx="954.6" cy="443.8" r="0.2"/><circle class="cls-4" cx="955.5" cy="443.3" r="0.2"/><circle class="cls-4" cx="951.4" cy="445.3" r="0.2"/><circle class="cls-4" cx="950.5" cy="446.4" r="0.2"/><circle class="cls-4" cx="954.7" cy="446.6" r="0.2"/><circle class="cls-4" cx="948.7" cy="447.7" r="0.2"/><circle class="cls-4" cx="948.3" cy="448.2" r="0.2"/><circle class="cls-4" cx="949.2" cy="448" r="0.2"/><circle class="cls-4" cx="949.9" cy="448.1" r="0.1"/><circle class="cls-4" cx="950.4" cy="449.8" r="0.3"/><circle class="cls-4" cx="951.2" cy="450.4" r="0.2"/><circle class="cls-4" cx="952.7" cy="451.1" r="0.2"/><circle class="cls-4" cx="948.6" cy="451.7" r="0.3"/><circle class="cls-4" cx="950.4" cy="453.2" r="0.2"/><circle class="cls-4" cx="949.5" cy="441.3" r="0.2"/><circle class="cls-4" cx="949.6" cy="441.7" r="0.2"/><circle class="cls-4" cx="958.1" cy="444.3" r="0.2"/><circle class="cls-4" cx="958" cy="443" r="0.3"/><circle class="cls-4" cx="958" cy="439" r="0.2"/><circle class="cls-4" cx="958.9" cy="439.2" r="0.3"/><circle class="cls-4" cx="958.3" cy="440.4" r="0.2"/><circle class="cls-4" cx="956.6" cy="431.6" r="0.3"/><circle class="cls-4" cx="957.8" cy="430.7" r="0.1"/><circle class="cls-4" cx="957.4" cy="433.2" r="0.2"/><circle class="cls-4" cx="963.8" cy="433" r="0.2"/><circle class="cls-4" cx="963.1" cy="433.7" r="0.3"/><circle class="cls-4" cx="962.4" cy="435.4" r="0.1"/><circle class="cls-4" cx="963.9" cy="430.9" r="0.2"/><circle class="cls-4" cx="959.6" cy="428.8" r="0.2"/><circle class="cls-4" cx="962" cy="425.3" r="0.2"/><circle class="cls-4" cx="961.7" cy="421.9" r="0.3"/><rect class="cls-5" x="931.2" y="381.66" width="72.57" height="90.24"/><g class="cls-6"><path class="cls-2" d="M-361.5,137.1l10.2-12.6,11.7-12.5,7-9.9.7-7.5-2.4-6.3-8.5-6.9-9.7-10-8.7-3.9-2.6-4.8,1.4-14.9,2.4-7.3.7-7.7L3.1,32.5l25.7-.6,6.9,6.7,5.4,6.6,12,16.3.8,7.6.4,12.1,331.5-9.4,9.6,10,.5,10.6,2.9,1.8-.9,9,.9,6.1,8.5,5.3,10.2,4,15.3,1.5,1.8-2.9,7.6-14.4,6.9-6.9-2.2-9.3L441,66.5l-1-6.1L431.8,49l1.9-19.5,2.1-5.9,6.2.6,6,2.1.3-2.8,7.5-3.8,4.1,4.9,8.7,3.9,12.6,10.3,7.3,2.1L502,42.2l15.1-.3,6,.6,11.5,37.7L550.9,115l42.7,105.3,29.8,51.2,13.2,19.4,22.6,32.4.2,13.6,8.7,35.6,9.1,31.1,17.8,35,15.5,43.8L781,583.1l3.6,26.1,22.2,115.6-2.5,73.9-7.9-11.3-4.1,42.8-13.3,30-15,16.5-12.7,24.2-6.1.9-53.5,29.3-25.2-2.4-12.7,7.8-26.8-1-22.8-11.1,7-11.3,11.4,1.1,14.4,7.4,8.1-5.3-14.5-21,5.6-11.6,12.6-4.9,4.3-13.2-15-1.4,1-10.5,5.8-13.1L637,827.7l-53.4-11.1-59.7-40.5-18.8-41.2,8.1-53.8,1.2-13.1-16.3,14.9-12.9,10.7-5.8-2-4.9-58.8,8.4-9.7,2.9-30.4-6.1,16.1-6.6,5.4-9.4,3.7-16.3-3.1-2.9-1.8,8.3,23.5-9.4,3.7-8.6-5.4-20.5-23.2.1,15.2L395,578.2l-17.5-22.9-10.1-5.5,5.2-7.1,17.8-12,18.8-22.5,1.6-16.5,5-6.8,1-10.6-16.6-15.2-7,26.5L381,470.9l-7.7,2.3-.4,4.2,8.9,17.5,2.1,9.3-9.5,5.1-6.5,5.4-8.7-3.8-12.5-43.6,6.4-35.7,3.5-52.6-3.4-59.3-21-32.3-57.6-43.3-25.7-14.5-5.8-2.1,2.1-22.5-3.5-10.9-25.2-3.9-9.6-10L192,177.3l-8.4-6.8-7.7-14.3L153,143.4l-15.6-1.5-9.2,2.2-16,10.6L77.8,186.2l-18.1,1.3L33.5,210.7l-19.7,2.7-29.7,13.8-28.5.3-11.3-7.1-12.6-8.8-3.2-29-.3,3,5.5,5.1,1.7,13.8,9.7,8.5,12.3-3.4,2.8-29.8-2.8-17.6-10.9-12-21-.4-10.4-1,.9-9.3,32.1-6.4-9.8-7.2-47.7-3-14.6-1.4-4.2-3.4.7-7.4,10.9-4.9.4-4.5-13.6-1.3-11.2,5-8,3.8,6.3,14.2-14.7-5.9-4.3-3.4-50.5,1.3-17.2,4.4-27.7,1.9-8,3.8.6-6,3.9-8.7-2.3-7.8-5.5-6.6-25.2,8.2-.5,4.9,3.5,9.1-.4,4.7-9.8,8.1-56.2,5.2-4.5.9Zm0,0,10.2-12.6,11.7-12.5,7-9.9.7-7.5-2.4-6.3-8.5-6.9-9.7-10-8.7-3.9-2.6-4.8,1.4-14.9,2.4-7.3.7-7.7L3.1,32.5l25.7-.6,6.9,6.7,5.4,6.6,12,16.3.8,7.6.4,12.1,331.5-9.4,9.6,10,.5,10.6,2.9,1.8-.9,9,.9,6.1,8.5,5.3,10.2,4,15.3,1.5,1.8-2.9,7.6-14.4,6.9-6.9-2.2-9.3L441,66.5l-1-6.1L431.8,49l1.9-19.5,2.1-5.9,6.2.6,6,2.1.3-2.8,7.5-3.8,4.1,4.9,8.7,3.9,12.6,10.3,7.3,2.1L502,42.2l15.1-.3,6,.6,11.5,37.7L550.9,115l42.7,105.3,29.8,51.2,13.2,19.4,22.6,32.4.2,13.6,8.7,35.6,9.1,31.1,17.8,35,15.5,43.8L781,583.1l3.6,26.1,22.2,115.6-2.5,73.9-7.9-11.3-4.1,42.8-13.3,30-15,16.5-12.7,24.2-6.1.9-53.5,29.3-25.2-2.4-12.7,7.8-26.8-1-22.8-11.1,7-11.3,11.4,1.1,14.4,7.4,8.1-5.3-14.5-21,5.6-11.6,12.6-4.9,4.3-13.2-15-1.4,1-10.5,5.8-13.1L637,827.7l-53.4-11.1-59.7-40.5-18.8-41.2,8.1-53.8,1.2-13.1-16.3,14.9-12.9,10.7-5.8-2-4.9-58.8,8.4-9.7,2.9-30.4-6.1,16.1-6.6,5.4-9.4,3.7-16.3-3.1-2.9-1.8,8.3,23.5-9.4,3.7-8.6-5.4-20.5-23.2.1,15.2L395,578.2l-17.5-22.9-10.1-5.5,5.2-7.1,17.8-12,18.8-22.5,1.6-16.5,5-6.8,1-10.6-16.6-15.2-7,26.5L381,470.9l-7.7,2.3-.4,4.2,8.9,17.5,2.1,9.3-9.5,5.1-6.5,5.4-8.7-3.8-12.5-43.6,6.4-35.7,3.5-52.6-3.4-59.3-21-32.3-57.6-43.3-25.7-14.5-5.8-2.1,2.1-22.5-3.5-10.9-25.2-3.9-9.6-10L192,177.3l-8.4-6.8-7.7-14.3L153,143.4l-15.6-1.5-9.2,2.2-16,10.6L77.8,186.2l-18.1,1.3L33.5,210.7l-19.7,2.7-29.7,13.8-28.5.3-11.3-7.1-12.6-8.8-3.2-29-.3,3,5.5,5.1,1.7,13.8,9.7,8.5,12.3-3.4,2.8-29.8-2.8-17.6-10.9-12-21-.4-10.4-1,.9-9.3,32.1-6.4-9.8-7.2-47.7-3-14.6-1.4-4.2-3.4.7-7.4,10.9-4.9.4-4.5-13.6-1.3-11.2,5-8,3.8,6.3,14.2-14.7-5.9-4.3-3.4-50.5,1.3-17.2,4.4-27.7,1.9-8,3.8.6-6,3.9-8.7-2.3-7.8-5.5-6.6-25.2,8.2-.5,4.9,3.5,9.1-.4,4.7-9.8,8.1-56.2,5.2-4.5.9ZM641.1,308l8.5,5.3,9,16,12,16.3,6.5,11.2,11.5,22.3,6.8,8.2,7.8,12.8,6.6,9.7,5.4,6.6M644.9,618.5l-14,19.9-5.3,8.6-8,5.3-8.5,9.8-7.8,2.3-3.8,8.7,3.1,15.4,9.5,11.6,10.5,1,12.4-3.2,6,.6,6.9,6.4-3.4,4.2,4.1,4.9,21.6,11.1,17.8,3.2,13.1-7.8.6-6-2.3-10.8-10-5.5,2.2-7.4,8.2-2.2,1.1-12-6.1-20.2-4.3-18.6-8-11.3-10.7-14.6-8.7-3.9-9.3,2.1-3.3,2.7-3.6,5.7Zm0,0-14,19.9-5.3,8.6-8,5.3-8.5,9.8-7.8,2.3-3.8,8.7,3.1,15.4,9.5,11.6,10.5,1,12.4-3.2,6,.6,6.9,6.4-3.4,4.2,4.1,4.9,21.6,11.1,17.8,3.2,13.1-7.8.6-6-2.3-10.8-10-5.5,2.2-7.4,8.2-2.2,1.1-12-6.1-20.2-4.3-18.6-8-11.3-10.7-14.6-8.7-3.9-9.3,2.1-3.3,2.7-3.6,5.7Zm42.8,359.6,8.2-6.8M655,988.6,638,993m-46.8,15.3,19.9-2.7m-37.4,13.1-12.1-1.2M793.5,880.7l-19.3,28.4-13,9.4-13.4,13.9-11.2,6.5-13.1,10.9-1.9,4.4,6.3-2.4,12.8-7.9,16-9.1,16.4-13.6,13.4-13.9,7.1-11.4,5.6-11.6-2.6-4.8-3.1,1.2Zm0,0-19.3,28.4-13,9.4-13.4,13.9-11.2,6.5-13.1,10.9-1.9,4.4,6.3-2.4,12.8-7.9,16-9.1,16.4-13.6,13.4-13.9,7.1-11.4,5.6-11.6-2.6-4.8-3.1,1.2Z" transform="translate(363.8)"/><path class="cls-3" d="M782.1,765.9s-.8,3.8-2.1,1.9c0,0-2.1-1.3-2.9,1.8a3.12,3.12,0,0,0,.7,4.4s6.3,6.8,4.1,9.8c0,0-5.5,2.1-5,5.5,0,0,.1,4,1.6,1.9l2-3s.6-1.2,2.4-.1l2.1,1.3s1.4.6.6,2.6a3.16,3.16,0,0,1-3.8,1.4s-3.9-1.3-4.2.6c0,0-1,.7,4.7,3.3,0,0,4.3,1.8,2.7,4.1,0,0-4.3,1.4-2.8,6.3,0,0,2,6.1-1.5,6.1,0,0-2,1.1-1.9,1.6,0,0-3-.4-3.8,1.1l-3.9.6s-1.7-.6-3.6,2.7c0,0-3.8,1.4-4.8-.1,0,0-3-.6-2.5,2.8,0,0,.1,2.6-.6,3a2.38,2.38,0,0,0,1.5,3,2.57,2.57,0,0,1,.2,3.4s-.3,1.4.6,2c0,0,1.2,3-1,3.9,0,0-1,.4-1.3-.1,0,0-2-1-1.7,2.7,0,0-.2,2.4-3.3,2.9,0,0-3.9.3-3.1,4.2,0,0,.4,2.9-.8,3.8a4.62,4.62,0,0,0-.5,3.5s-.5,3.5-3.3,4.5c0,0-3.9,2.2-1.5,7.9l.2,5s-1.5,2.4,1.6,5.4c0,0,1.7,4.3,0,5.6,0,0-4.4,1.2-3,4.7,0,0-2.8,2.5-.2,4,0,0,2.2.5,3-1.2,0,0,2.2-1.1,3.6-.8,0,0,3.1-.7,5.3-7.2,0,0,1-2,1.8-2.1,0,0,1.7-1.1,1.7-4.5,0,0,1.4-3.1,2.4-3.6,0,0,3.1-2.3,2.9-4.1,0,0,.5-1.9,1.9,0,0,0,2,2.6,3.7-.3,0,0,1.9-2.3.3-7.6,0,0-.7-1,1.8-4.3,0,0,2.1-3.8,2.6-3.8,0,0,3.7-5.9,2.9-9.2,0,0-1.4-2.5,1.1-5.5a10.81,10.81,0,0,0,2.5-6.5s.7-13.2,5-12.7l3-2.8s2.9-1.8,2-8.3l-.2-6.6s0-3.5.8-3.6c0,0,3.2-5.3,2.2-8.8a4.76,4.76,0,0,1,.5-4.1s.6-8.6-2.4-11.1c0,0-4.3-1.8-3.9-4.8,0,0-.3-3.7-1.4-4.3,0,0-1.4-.3-1.9,1.6s-1.8.3-1.8.3S782.4,765.2,782.1,765.9Z" transform="translate(363.8)"/><path class="cls-4" d="M758.7,839.6s-.5-1.5.1-1.7c0,0-.2-1.5-1.5.2,0,0-.4,2,1.1,2.3C758.4,840.4,759.1,840.6,758.7,839.6Z" transform="translate(363.8)"/><path class="cls-4" d="M771.9,841.1s-.4-.7.2-1c0,0,0-1-1-.3,0,0-.8,1.2.3,1.7Z" transform="translate(363.8)"/><path class="cls-4" d="M761.1,839.1s-1.8.3-1.1,1.1c0,0,.8.6,2-.3Z" transform="translate(363.8)"/><rect class="cls-4" x="751.91" y="878.19" width="1.7" height="1.9" transform="translate(243.59 119.24) rotate(-8.39)"/><path class="cls-4" d="M764.4,847.8a1.24,1.24,0,0,1-1.7-1s-.2-1.7-1.1-.5c0,0-1.2.6-.3,1.3,0,0,.6-.1.8.9,0,0,0,.9,1.2.5,0,0,2.5-.2,2.4-.9S764.4,847.8,764.4,847.8Z" transform="translate(363.8)"/><path class="cls-4" d="M765.3,843.4a.71.71,0,0,1-.9.5s-.8-.2-.8-.7c0,0-1.1-.5-1.4.2,0,0-1.4,1.4-.9,1.7a1.13,1.13,0,0,0,1.7-.6s.8,0,.5.6a1.3,1.3,0,0,1,.2,1.6s.1.9,1.2.4c0,0,.2.9.5.4,0,0,.2-.4-.6-1.6l1.4-.3s.4-1.1-1-.4c0,0-.9-.6.5-.8a.59.59,0,0,0,.6-.8C766.3,843.5,766.2,842.4,765.3,843.4Z" transform="translate(363.8)"/><polygon class="cls-4" points="1141.5 840.6 1141.3 839.7 1140.4 839.8 1140.6 841.2 1141.5 840.6"/><circle class="cls-4" cx="1118.6" cy="850.6" r="0.4"/><circle class="cls-4" cx="1124.3" cy="849" r="0.4"/><circle class="cls-4" cx="1124.7" cy="850.4" r="0.4"/><circle class="cls-4" cx="1124.5" cy="853.2" r="0.9"/><circle class="cls-4" cx="1126.1" cy="856.9" r="0.7"/><circle class="cls-4" cx="1123.6" cy="857.4" r="0.6"/><circle class="cls-4" cx="1124.3" cy="859" r="0.7"/><circle class="cls-4" cx="1118.7" cy="864.2" r="0.5"/><circle class="cls-4" cx="1123.2" cy="863.5" r="0.4"/><circle class="cls-4" cx="1124.9" cy="862.4" r="0.4"/><circle class="cls-4" cx="1117.1" cy="866.4" r="0.5"/><circle class="cls-4" cx="1115.4" cy="868.4" r="0.5"/><circle class="cls-4" cx="1123.3" cy="868.8" r="0.5"/><circle class="cls-4" cx="1111.9" cy="870.9" r="0.3"/><circle class="cls-4" cx="1111.1" cy="871.8" r="0.4"/><circle class="cls-4" cx="1113" cy="871.5" r="0.4"/><circle class="cls-4" cx="1114.3" cy="871.7" r="0.2"/><circle class="cls-4" cx="1115.2" cy="874.8" r="0.6"/><circle class="cls-4" cx="1116.7" cy="876.1" r="0.4"/><circle class="cls-4" cx="1119.6" cy="877.3" r="0.3"/><circle class="cls-4" cx="1111.7" cy="878.5" r="0.6"/><circle class="cls-4" cx="1115.3" cy="881.4" r="0.5"/><circle class="cls-4" cx="1113.4" cy="858.7" r="0.4"/><circle class="cls-4" cx="1113.8" cy="859.4" r="0.3"/><circle class="cls-4" cx="1129.9" cy="864.5" r="0.5"/><circle class="cls-4" cx="1129.7" cy="862" r="0.6"/><circle class="cls-4" cx="1129.7" cy="854.4" r="0.3"/><circle class="cls-4" cx="1131.5" cy="854.7" r="0.6"/><circle class="cls-4" cx="1130.3" cy="857" r="0.3"/><circle class="cls-4" cx="1126.9" cy="840.2" r="0.6"/><circle class="cls-4" cx="1129.3" cy="838.5" r="0.3"/><circle class="cls-4" cx="1128.5" cy="843.3" r="0.4"/><circle class="cls-4" cx="1140.7" cy="843" r="0.5"/><circle class="cls-4" cx="1139.3" cy="844.3" r="0.5"/><circle class="cls-4" cx="1138.1" cy="847.5" r="0.2"/><circle class="cls-4" cx="1140.8" cy="838.9" r="0.4"/><circle class="cls-4" cx="1132.6" cy="834.9" r="0.4"/><circle class="cls-4" cx="1137.3" cy="828.2" r="0.3"/><circle class="cls-4" cx="1136.6" cy="821.8" r="0.6"/></g><text class="cls-7" transform="translate(945.74 241.12)">f<tspan class="cls-8" x="8.68" y="0">l</tspan><tspan x="16.97" y="0">ori</tspan><tspan class="cls-9" x="45.6" y="0">d</tspan><tspan x="56.49" y="0">a</tspan></text><text class="cls-10" transform="translate(961.4 466.04)">miami</text><text class="cls-11" transform="translate(1030.94 428.6)">the pine<tspan x="-12.22" y="27">rocklands</tspan></text><text class="cls-10" transform="translate(777.96 255.22)"><tspan class="cls-12">t</tspan><tspan x="7.04" y="0">am</tspan><tspan class="cls-12" x="25.13" y="0">p</tspan><tspan x="32.18" y="0">a</tspan></text><text class="cls-10" transform="translate(896.85 345.27)">lake okeechobee</text><text class="cls-10" transform="translate(1015.39 667.2)">lake okeechobee</text><text class="cls-10" transform="translate(797.16 702.4)">fort meyers</text><text class="cls-10" transform="translate(741.69 368.91)">fort meyers</text><text class="cls-13" transform="translate(951.01 500.53) scale(1.08 1)">f<tspan class="cls-14" x="5.61" y="0">l</tspan><tspan x="10.98" y="0">ori</tspan><tspan class="cls-15" x="29.49" y="0">d</tspan><tspan x="36.53" y="0">a ke</tspan><tspan class="cls-14" x="60.63" y="0">y</tspan><tspan x="67.58" y="0">s</tspan></text><text class="cls-13" transform="translate(1104.94 964.1) scale(1.08 1)">f<tspan class="cls-14" x="5.61" y="0">l</tspan><tspan x="10.98" y="0">ori</tspan><tspan class="cls-15" x="29.49" y="0">d</tspan><tspan x="36.53" y="0">a ke</tspan><tspan class="cls-14" x="60.63" y="0">y</tspan><tspan x="67.58" y="0">s</tspan></text><rect class="cls-16" x="1087.34" y="749.03" width="120.02" height="151.35"/><text class="cls-17" transform="translate(1141.14 891.23)">miami</text><text class="cls-18" transform="translate(1249.84 832.7)">the pine<tspan x="-19.11" y="42.2">rocklands</tspan></text><path class="cls-4" d="M723.54,471.9s175.17,21.25,147.59,224.87C871.13,696.77,926.05,491.5,723.54,471.9Z" transform="translate(363.8)"/><path class="cls-4" d="M871.11,696.74l-16.88-13.17s12,23.58,8,42.28h0c7.09-17.76,30.2-30.66,30.2-30.66Z" transform="translate(363.8)"/></svg>