
<svg version="1.1" id="Layer_1" xmlns="http://www.w3.org/2000/svg" xmlns:xlink="http://www.w3.org/1999/xlink" x="0px" y="0px"
	 viewBox="0 0 827.8 1080" style="enable-background:new 0 0 827.8 1080;" xml:space="preserve">
	<style type="text/css">
		.florida0{fill:#AAB58C;}
		.florida1{fill:#4E6845;}
		.florida2{fill:#BF5111;}
		.florida3{clip-path:url(#SVGID_2_);}
		.florida4{fill:#2A4024;}
		.florida5{font-family:'AlvaroCondensed';}
		.florida6{font-size:50.8473px;}
		.florida7{font-size:24.3764px;}
		.florida8{font-size:22.6336px;}
		.florida9{fill:none;stroke:#F9F0E4;stroke-width:3;stroke-miterlimit:10;}
	</style>
	<g id="florida_1_">
		<path class="florida0" d="M1.2,73.5l5.4-6.6l6.2-6.6l3.7-5.2l0.4-3.9l-1.3-3.3L11,44.2l-5-5.3l-4.6-2L0,34.3l0.7-7.8L2,22.6l0.4-4
			L193,18.4l13.5-0.3l3.6,3.5l2.8,3.5l6.3,8.6l0.4,4l0.2,6.4l174.3-4.9l5.1,5.3l0.3,5.6L401,51l-0.4,4.7l0.5,3.2l4.5,2.8l5.4,2.1
			l8,0.8l1-1.5l4-7.6l3.6-3.6l-1.2-4.9l-3.1-10.6l-0.5-3.2l-4.3-6l1-10.3l1.1-3.1l3.2,0.3l3.2,1.1l0.1-1.5l4-2l2.1,2.6l4.6,2l6.6,5.4
			l3.9,1.1l7.1,0.7l8-0.2l3.1,0.3l6.1,19.9l8.6,18.3l22.5,55.5l15.7,27l7,10.2l11.9,17l0.1,7.2l4.6,18.7l4.8,16.4l9.4,18.4l8.1,23.1
			l37.1,52.9l1.9,13.7l11.7,60.8l-1.3,38.9l-4.2-6l-2.1,22.5l-7,15.9l-7.9,8.7l-6.7,12.7l-3.2,0.5l-28.2,15.4l-13.2-1.3l-6.7,4.1
			l-14.1-0.6l-12-5.9l3.7-5.9l6,0.6l7.6,3.9l4.2-2.8l-7.7-11.1l3-6.1l6.6-2.6l2.3-7l-7.9-0.7l0.5-5.5l3-6.9l-4.1-6.8l-28.1-5.9
			l-31.4-21.3l-9.9-21.7l4.3-28.3l0.7-6.9l-8.6,7.8l-6.8,5.6l-3-1.1l-2.6-30.9l4.4-5.1l1.5-16l-3.2,8.5l-3.5,2.9l-5,1.9l-8.6-1.6
			l-1.5-0.9l4.4,12.4l-5,1.9l-4.5-2.8L409.4,323v8l-10.3-25.7l-9.2-12l-5.3-2.9l2.7-3.7l9.3-6.3l9.9-11.8l0.8-8.7l2.6-3.6l0.5-5.6
			l-8.7-8l-3.7,13.9l-6.4-7.7l-4.1,1.2l-0.2,2.2l4.7,9.2l1.1,4.9l-5,2.7l-3.4,2.9l-4.6-2l-6.5-22.9l3.4-18.8l1.8-27.7l-1.8-31.2
			l-11.1-17l-30.3-22.8l-13.5-7.6l-3.1-1.1l1.1-11.8l-1.8-5.7l-13.3-2.1l-5-5.3l-7.8-1.5l-4.4-3.6l-4-7.5l-12-6.7l-8.2-0.8l-4.8,1.1
			l-8.4,5.6l-18.1,16.6l-9.5,0.7L209,112.1l-10.4,1.4l-15.6,7.3l-15,0.2l-5.9-3.7l-6.6-4.6l-1.7-15.3l-0.1,1.6l2.9,2.7l0.9,7.2
			l5.1,4.5l6.5-1.8l1.5-15.7l-1.5-9.2l-5.7-6.3l-11-0.2l-5.5-0.5l0.5-4.9l16.9-3.4l-5.2-3.8L134,66l-7.7-0.7l-2.2-1.8l0.4-3.9
			l5.8-2.6l0.2-2.3l-7.2-0.7l-5.9,2.6l-4.2,2l3.3,7.5l-7.7-3.1l-2.2-1.8L80,61.9L70.8,64l-14.6,1L52,67l0.3-3.2l2-4.6l-1.2-4.1
			l-2.9-3.5L37,56l-0.2,2.6l1.8,4.8l-0.2,2.5l-5.2,4.3L3.6,72.9L1.2,73.5L1.2,73.5z M1.2,73.5l5.4-6.6l6.2-6.6l3.7-5.2l0.4-3.9
			l-1.3-3.3L11,44.2l-5-5.3l-4.6-2L0,34.3l0.7-7.8L2,22.6l0.4-4L193,18.4l13.5-0.3l3.6,3.5l2.8,3.5l6.3,8.6l0.4,4l0.2,6.4l174.3-4.9
			l5.1,5.3l0.3,5.6L401,51l-0.4,4.7l0.5,3.2l4.5,2.8l5.4,2.1l8,0.8l1-1.5l4-7.6l3.6-3.6l-1.2-4.9l-3.1-10.6l-0.5-3.2l-4.3-6l1-10.3
			l1.1-3.1l3.2,0.3l3.2,1.1l0.1-1.5l4-2l2.1,2.6l4.6,2l6.6,5.4l3.9,1.1l7.1,0.7l8-0.2l3.1,0.3l6.1,19.9l8.6,18.3l22.5,55.5l15.7,27
			l7,10.2l11.9,17l0.1,7.2l4.6,18.7l4.8,16.4l9.4,18.4l8.1,23.1l37.1,52.9l1.9,13.7l11.7,60.8l-1.3,38.9l-4.2-6l-2.1,22.5l-7,15.9
			l-7.9,8.7l-6.7,12.7l-3.2,0.5l-28.2,15.4l-13.2-1.3l-6.7,4.1l-14.1-0.6l-12-5.9l3.7-5.9l6,0.6l7.6,3.9l4.2-2.8l-7.7-11.1l3-6.1
			l6.6-2.6l2.3-7l-7.9-0.7l0.5-5.5l3-6.9l-4.1-6.8l-28.1-5.9l-31.4-21.3l-9.9-21.7l4.3-28.3l0.7-6.9l-8.6,7.8l-6.8,5.6l-3-1.1
			l-2.6-30.9l4.4-5.1l1.5-16l-3.2,8.5l-3.5,2.9l-5,1.9l-8.6-1.6l-1.5-0.9l4.4,12.4l-5,1.9l-4.5-2.8L409.4,323v8l-10.3-25.7l-9.2-12
			l-5.3-2.9l2.7-3.7l9.3-6.3l9.9-11.8l0.8-8.7l2.6-3.6l0.5-5.6l-8.7-8l-3.7,13.9l-6.4-7.7l-4.1,1.2l-0.2,2.2l4.7,9.2l1.1,4.9l-5,2.7
			l-3.4,2.9l-4.6-2l-6.5-22.9l3.4-18.8l1.8-27.7l-1.8-31.2l-11.1-17l-30.3-22.8l-13.5-7.6l-3.1-1.1l1.1-11.8l-1.8-5.7l-13.3-2.1
			l-5-5.3l-7.8-1.5l-4.4-3.6l-4-7.5l-12-6.7l-8.2-0.8l-4.8,1.1l-8.4,5.6l-18.1,16.6l-9.5,0.7L209,112.1l-10.4,1.4l-15.6,7.3l-15,0.2
			l-5.9-3.7l-6.6-4.6l-1.7-15.3l-0.1,1.6l2.9,2.7l0.9,7.2l5.1,4.5l6.5-1.8l1.5-15.7l-1.5-9.2l-5.7-6.3l-11-0.2l-5.5-0.5l0.5-4.9
			l16.9-3.4l-5.2-3.8L134,66l-7.7-0.7l-2.2-1.8l0.4-3.9l5.8-2.6l0.2-2.3l-7.2-0.7l-5.9,2.6l-4.2,2l3.3,7.5l-7.7-3.1l-2.2-1.8L80,61.9
			L70.8,64l-14.6,1L52,67l0.3-3.2l2-4.6l-1.2-4.1l-2.9-3.5L37,56l-0.2,2.6l1.8,4.8l-0.2,2.5l-5.2,4.3L3.6,72.9L1.2,73.5L1.2,73.5z
			M528.6,163.4l4.5,2.8l4.8,8.4l6.3,8.6l3.4,5.9l6,11.7l3.6,4.3l4.1,6.8l3.5,5.1l2.8,3.5 M530.6,326.7l-7.3,10.4l-2.8,4.5l-4.2,2.8
			l-4.5,5.1l-4.1,1.2l-2,4.6l1.6,8.1l5,6.1l5.5,0.5l6.5-1.7l3.1,0.3l3.6,3.4l-1.8,2.2l2.1,2.6l11.4,5.9l9.4,1.7l6.9-4.1l0.3-3.2
			l-1.2-5.7l-5.3-2.9l1.2-3.9l4.3-1.2l0.6-6.3l-3.2-10.6l-2.2-9.8l-4.2-6l-5.6-7.7l-4.6-2l-4.9,1.1l-1.7,1.4L530.6,326.7L530.6,326.7
			z M530.6,326.7l-7.3,10.4l-2.8,4.5l-4.2,2.8l-4.5,5.1l-4.1,1.2l-2,4.6l1.6,8.1l5,6.1l5.5,0.5l6.5-1.7l3.1,0.3l3.6,3.4l-1.8,2.2
			l2.1,2.6l11.4,5.9l9.4,1.7l6.9-4.1l0.3-3.2l-1.2-5.7l-5.3-2.9l1.2-3.9l4.3-1.2l0.6-6.3l-3.2-10.6l-2.2-9.8l-4.2-6l-5.6-7.7l-4.6-2
			l-4.9,1.1l-1.7,1.4L530.6,326.7L530.6,326.7z M553.1,515.8l4.3-3.6 M535.9,521.3l-9,2.3 M502.4,531.7l10.5-1.4 M493.1,537.1
			l-6.4-0.6 M608.7,464.6l-10.2,15l-6.8,4.9l-7,7.3l-5.9,3.4l-6.9,5.7l-1,2.3l3.3-1.3l6.7-4.1l8.4-4.8l8.6-7.1l7-7.3l3.7-6l3-6.1
			l-1.3-2.5L608.7,464.6L608.7,464.6z M608.7,464.6l-10.2,15l-6.8,4.9l-7,7.3l-5.9,3.4l-6.9,5.7l-1,2.3l3.3-1.3l6.7-4.1l8.4-4.8
			l8.6-7.1l7-7.3l3.7-6l3-6.1l-1.3-2.5L608.7,464.6L608.7,464.6z"/>
		<g>
			<path class="florida1" d="M602.7,404.2c0,0-0.4,2-1.1,1c0,0-1.1-0.7-1.5,0.9c0,0-0.9,1.3,0.3,2.3c0,0,3.3,3.6,2.2,5.1
				c0,0-2.9,1.1-2.7,2.9c0,0,0,2.1,0.8,1l1-1.6c0,0,0.3-0.6,1.3,0l1.1,0.7c0,0,0.7,0.3,0.3,1.4c0,0-0.7,1.2-2,0.7
				c0,0-2.1-0.7-2.2,0.3c0,0-0.5,0.4,2.5,1.7c0,0,2.2,0.9,1.4,2.2c0,0-2.3,0.8-1.5,3.3c0,0,1,3.2-0.8,3.2c0,0-1,0.6-1,0.8
				c0,0-1.6-0.2-2,0.6l-2.1,0.3c0,0-0.9-0.3-1.9,1.4c0,0-2,0.7-2.5,0c0,0-1.6-0.3-1.3,1.5c0,0,0.1,1.4-0.3,1.6c0,0-0.4,1.2,0.8,1.6
				c0,0,0.8,0.9,0.1,1.8c0,0-0.2,0.7,0.3,1.1c0,0,0.7,1.6-0.5,2c0,0-0.5,0.2-0.7,0c0,0-1.1-0.5-0.9,1.4c0,0-0.1,1.3-1.7,1.5
				c0,0-2.1,0.2-1.6,2.2c0,0,0.2,1.5-0.4,2c0,0-0.6,0.9-0.3,1.9c0,0-0.3,1.9-1.8,2.4c0,0-2.1,1.1-0.8,4.2l0.1,2.6
				c0,0-0.8,1.2,0.8,2.8c0,0,0.9,2.2,0,2.9c0,0-2.3,0.6-1.6,2.5c0,0-1.5,1.3-0.1,2.1c0,0,1.2,0.2,1.6-0.7c0,0,1.2-0.6,1.9-0.4
				c0,0,1.6-0.4,2.8-3.8c0,0,0.5-1.1,1-1.1c0,0,0.9-0.6,0.9-2.4c0,0,0.7-1.6,1.3-1.9c0,0,1.6-1.2,1.5-2.2c0,0,0.3-1,1,0
				c0,0,1,1.4,1.9-0.1c0,0,1-1.2,0.2-4c0,0-0.4-0.5,0.9-2.2c0,0,1.1-2,1.4-2c0,0,1.9-3.1,1.5-4.8c0,0-0.8-1.3,0.6-2.9
				c0,0,1.3-1.5,1.3-3.4c0,0,0.4-6.9,2.7-6.7l1.6-1.5c0,0,1.5-0.9,1-4.4l-0.1-3.5c0,0,0-1.8,0.4-1.9c0,0,1.7-2.8,1.1-4.6
				c0,0-0.4-0.9,0.2-2.1c0,0,0.3-4.5-1.3-5.8c0,0-2.2-0.9-2-2.5c0,0-0.1-1.9-0.8-2.3c0,0-0.7-0.2-1,0.8s-1,0.1-1,0.1
				S602.9,403.8,602.7,404.2z"/>
			<g>
				<path class="florida2" d="M590.4,442.9c0,0-0.3-0.8,0.1-0.9c0,0-0.1-0.8-0.8,0.1c0,0-0.2,1.1,0.6,1.2
					C590.3,443.4,590.7,443.5,590.4,442.9z"/>
				<path class="florida2" d="M597.4,443.7c0,0-0.2-0.4,0.1-0.5c0,0,0-0.5-0.5-0.2c0,0-0.4,0.7,0.1,0.9L597.4,443.7z"/>
				<path class="florida2" d="M591.7,442.7c0,0-1,0.1-0.6,0.6c0,0,0.4,0.3,1.1-0.2L591.7,442.7z"/>
				
					<rect x="586.9" y="463.2" transform="matrix(0.9893 -0.1459 0.1459 0.9893 -61.3672 90.6557)" class="florida2" width="0.9" height="1"/>
				<path class="florida2" d="M593.4,447.3c0,0-0.7,0.3-0.9-0.6c0,0-0.1-0.9-0.6-0.3c0,0-0.6,0.3-0.1,0.7c0,0,0.3,0,0.4,0.5
					c0,0,0,0.5,0.6,0.3c0,0,1.3-0.1,1.3-0.5S593.4,447.3,593.4,447.3z"/>
				<path class="florida2" d="M593.9,444.9c0,0-0.1,0.4-0.5,0.3c0,0-0.4-0.1-0.4-0.4c0,0-0.6-0.3-0.7,0.1c0,0-0.7,0.7-0.5,0.9
					c0,0,0.6,0.4,0.9-0.3c0,0,0.4,0,0.2,0.3c0,0,0.3,0.3,0.1,0.9c0,0,0.1,0.5,0.6,0.2c0,0,0.1,0.5,0.3,0.2c0,0,0.1-0.2-0.3-0.9
					l0.7-0.2c0,0,0.2-0.6-0.5-0.2c0,0-0.5-0.3,0.3-0.4c0,0,0.4,0,0.3-0.4C594.4,445,594.4,444.4,593.9,444.9z"/>
				<polygon class="florida2" points="600.4,443.5 600.3,443 599.9,443.1 600,443.8 			"/>
				<circle class="florida2" cx="588.4" cy="448.7" r="0.2"/>
				<circle class="florida2" cx="591.4" cy="447.9" r="0.2"/>
				<circle class="florida2" cx="591.6" cy="448.7" r="0.2"/>
				<circle class="florida2" cx="591.5" cy="450.1" r="0.5"/>
				<circle class="florida2" cx="592.4" cy="452" r="0.4"/>
				<circle class="florida2" cx="591" cy="452.3" r="0.3"/>
				<circle class="florida2" cx="591.4" cy="453.1" r="0.4"/>
				<circle class="florida2" cx="588.4" cy="455.9" r="0.3"/>
				<circle class="florida2" cx="590.8" cy="455.5" r="0.2"/>
				<circle class="florida2" cx="591.7" cy="455" r="0.2"/>
				<circle class="florida2" cx="587.6" cy="457" r="0.2"/>
				<circle class="florida2" cx="586.7" cy="458.1" r="0.2"/>
				<circle class="florida2" cx="590.9" cy="458.3" r="0.2"/>
				<circle class="florida2" cx="584.9" cy="459.4" r="0.2"/>
				<circle class="florida2" cx="584.5" cy="459.9" r="0.2"/>
				<circle class="florida2" cx="585.4" cy="459.7" r="0.2"/>
				<circle class="florida2" cx="586.1" cy="459.8" r="0.1"/>
				<circle class="florida2" cx="586.6" cy="461.5" r="0.3"/>
				<circle class="florida2" cx="587.4" cy="462.1" r="0.2"/>
				<circle class="florida2" cx="588.9" cy="462.8" r="0.2"/>
				<circle class="florida2" cx="584.8" cy="463.4" r="0.3"/>
				<circle class="florida2" cx="586.6" cy="464.9" r="0.2"/>
				<circle class="florida2" cx="585.7" cy="453" r="0.2"/>
				<circle class="florida2" cx="585.8" cy="453.4" r="0.2"/>
				<circle class="florida2" cx="594.3" cy="456" r="0.2"/>
				<circle class="florida2" cx="594.2" cy="454.7" r="0.3"/>
				<circle class="florida2" cx="594.2" cy="450.7" r="0.2"/>
				<circle class="florida2" cx="595.1" cy="450.9" r="0.3"/>
				<circle class="florida2" cx="594.5" cy="452.1" r="0.2"/>
				<circle class="florida2" cx="592.8" cy="443.3" r="0.3"/>
				<circle class="florida2" cx="594" cy="442.4" r="0.1"/>
				<circle class="florida2" cx="593.6" cy="444.9" r="0.2"/>
				<circle class="florida2" cx="600" cy="444.7" r="0.2"/>
				<circle class="florida2" cx="599.3" cy="445.4" r="0.3"/>
				<circle class="florida2" cx="598.6" cy="447.1" r="0.1"/>
				<circle class="florida2" cx="600.1" cy="442.6" r="0.2"/>
				<circle class="florida2" cx="595.8" cy="440.5" r="0.2"/>
				<circle class="florida2" cx="598.2" cy="437" r="0.2"/>
				<circle class="florida2" cx="597.9" cy="433.6" r="0.3"/>
			</g>
		</g>
		<g>
			<g>
				<defs>
					<rect id="SVGID_1_" x="501.9" y="586" width="451.8" height="565.3"/>
				</defs>
				<clipPath id="SVGID_2_">
					<use xlink:href="#SVGID_1_"  style="overflow:visible;"/>
				</clipPath>
				<g class="florida3">
					<path class="florida0" d="M-361.5,148.8l10.2-12.6l11.7-12.5l7-9.9l0.7-7.5l-2.4-6.3l-8.5-6.9l-9.7-10l-8.7-3.9l-2.6-4.8l1.4-14.9
						l2.4-7.3l0.7-7.7L3.1,44.2l25.7-0.6l6.9,6.7l5.4,6.6l12,16.3l0.8,7.6l0.4,12.1l331.5-9.4l9.6,10l0.5,10.6l2.9,1.8l-0.9,9
						l0.9,6.1l8.5,5.3l10.2,4l15.3,1.5l1.8-2.9l7.6-14.4l6.9-6.9l-2.2-9.3L441,78.2l-1-6.1l-8.2-11.4l1.9-19.5l2.1-5.9l6.2,0.6l6,2.1
						l0.3-2.8l7.5-3.8l4.1,4.9l8.7,3.9l12.6,10.3l7.3,2.1l13.5,1.3l15.1-0.3l6,0.6l11.5,37.7l16.3,34.8L593.6,232l29.8,51.2
						l13.2,19.4l22.6,32.4l0.2,13.6l8.7,35.6l9.1,31.1l17.8,35l15.5,43.8L781,594.8l3.6,26.1l22.2,115.6l-2.5,73.9l-7.9-11.3
						l-4.1,42.8l-13.3,30l-15,16.5l-12.7,24.2l-6.1,0.9l-53.5,29.3l-25.2-2.4l-12.7,7.8l-26.8-1l-22.8-11.1l7-11.3l11.4,1.1l14.4,7.4
						l8.1-5.3l-14.5-21l5.6-11.6l12.6-4.9l4.3-13.2l-15-1.4l1-10.5l5.8-13.1l-7.9-12.9l-53.4-11.1l-59.7-40.5l-18.8-41.2l8.1-53.8
						l1.2-13.1l-16.3,14.9l-12.9,10.7l-5.8-2l-4.9-58.8l8.4-9.7l2.9-30.4l-6.1,16.1l-6.6,5.4l-9.4,3.7l-16.3-3.1l-2.9-1.8l8.3,23.5
						l-9.4,3.7l-8.6-5.4l-20.5-23.2l0.1,15.2L395,589.9L377.5,567l-10.1-5.5l5.2-7.1l17.8-12l18.8-22.5l1.6-16.5l5-6.8l1-10.6
						l-16.6-15.2l-7,26.5L381,482.6l-7.7,2.3l-0.4,4.2l8.9,17.5l2.1,9.3l-9.5,5.1l-6.5,5.4l-8.7-3.8L346.7,479l6.4-35.7l3.5-52.6
						l-3.4-59.3l-21-32.3l-57.6-43.3l-25.7-14.5l-5.8-2.1l2.1-22.5l-3.5-10.9l-25.2-3.9l-9.6-10L192,189l-8.4-6.8l-7.7-14.3
						L153,155.1l-15.6-1.5l-9.2,2.2l-16,10.6l-34.4,31.5l-18.1,1.3l-26.2,23.2l-19.7,2.7l-29.7,13.8l-28.5,0.3l-11.3-7.1l-12.6-8.8
						l-3.2-29l-0.3,3l5.5,5.1l1.7,13.8l9.7,8.5l12.3-3.4l2.8-29.8l-2.8-17.6l-10.9-12l-21-0.4l-10.4-1l0.9-9.3l32.1-6.4l-9.8-7.2
						l-47.7-3l-14.6-1.4l-4.2-3.4l0.7-7.4l10.9-4.9l0.4-4.5l-13.6-1.3l-11.2,5l-8,3.8l6.3,14.2l-14.7-5.9l-4.3-3.4l-50.5,1.3
						l-17.2,4.4l-27.7,1.9l-8,3.8l0.6-6l3.9-8.7l-2.3-7.8l-5.5-6.6l-25.2,8.2l-0.5,4.9l3.5,9.1l-0.4,4.7l-9.8,8.1l-56.2,5.2
						L-361.5,148.8L-361.5,148.8z M-361.5,148.8l10.2-12.6l11.7-12.5l7-9.9l0.7-7.5l-2.4-6.3l-8.5-6.9l-9.7-10l-8.7-3.9l-2.6-4.8
						l1.4-14.9l2.4-7.3l0.7-7.7L3.1,44.2l25.7-0.6l6.9,6.7l5.4,6.6l12,16.3l0.8,7.6l0.4,12.1l331.5-9.4l9.6,10l0.5,10.6l2.9,1.8
						l-0.9,9l0.9,6.1l8.5,5.3l10.2,4l15.3,1.5l1.8-2.9l7.6-14.4l6.9-6.9l-2.2-9.3L441,78.2l-1-6.1l-8.2-11.4l1.9-19.5l2.1-5.9
						l6.2,0.6l6,2.1l0.3-2.8l7.5-3.8l4.1,4.9l8.7,3.9l12.6,10.3l7.3,2.1l13.5,1.3l15.1-0.3l6,0.6l11.5,37.7l16.3,34.8L593.6,232
						l29.8,51.2l13.2,19.4l22.6,32.4l0.2,13.6l8.7,35.6l9.1,31.1l17.8,35l15.5,43.8L781,594.8l3.6,26.1l22.2,115.6l-2.5,73.9
						l-7.9-11.3l-4.1,42.8l-13.3,30l-15,16.5l-12.7,24.2l-6.1,0.9l-53.5,29.3l-25.2-2.4l-12.7,7.8l-26.8-1l-22.8-11.1l7-11.3
						l11.4,1.1l14.4,7.4l8.1-5.3l-14.5-21l5.6-11.6l12.6-4.9l4.3-13.2l-15-1.4l1-10.5l5.8-13.1l-7.9-12.9l-53.4-11.1l-59.7-40.5
						l-18.8-41.2l8.1-53.8l1.2-13.1l-16.3,14.9l-12.9,10.7l-5.8-2l-4.9-58.8l8.4-9.7l2.9-30.4l-6.1,16.1l-6.6,5.4l-9.4,3.7l-16.3-3.1
						l-2.9-1.8l8.3,23.5l-9.4,3.7l-8.6-5.4l-20.5-23.2l0.1,15.2L395,589.9L377.5,567l-10.1-5.5l5.2-7.1l17.8-12l18.8-22.5l1.6-16.5
						l5-6.8l1-10.6l-16.6-15.2l-7,26.5L381,482.6l-7.7,2.3l-0.4,4.2l8.9,17.5l2.1,9.3l-9.5,5.1l-6.5,5.4l-8.7-3.8L346.7,479l6.4-35.7
						l3.5-52.6l-3.4-59.3l-21-32.3l-57.6-43.3l-25.7-14.5l-5.8-2.1l2.1-22.5l-3.5-10.9l-25.2-3.9l-9.6-10L192,189l-8.4-6.8l-7.7-14.3
						L153,155.1l-15.6-1.5l-9.2,2.2l-16,10.6l-34.4,31.5l-18.1,1.3l-26.2,23.2l-19.7,2.7l-29.7,13.8l-28.5,0.3l-11.3-7.1l-12.6-8.8
						l-3.2-29l-0.3,3l5.5,5.1l1.7,13.8l9.7,8.5l12.3-3.4l2.8-29.8l-2.8-17.6l-10.9-12l-21-0.4l-10.4-1l0.9-9.3l32.1-6.4l-9.8-7.2
						l-47.7-3l-14.6-1.4l-4.2-3.4l0.7-7.4l10.9-4.9l0.4-4.5l-13.6-1.3l-11.2,5l-8,3.8l6.3,14.2l-14.7-5.9l-4.3-3.4l-50.5,1.3
						l-17.2,4.4l-27.7,1.9l-8,3.8l0.6-6l3.9-8.7l-2.3-7.8l-5.5-6.6l-25.2,8.2l-0.5,4.9l3.5,9.1l-0.4,4.7l-9.8,8.1l-56.2,5.2
						L-361.5,148.8L-361.5,148.8z M641.1,319.7l8.5,5.3l9,16l12,16.3l6.5,11.2l11.5,22.3l6.8,8.2l7.8,12.8l6.6,9.7l5.4,6.6
						M644.9,630.2l-14,19.9l-5.3,8.6l-8,5.3l-8.5,9.8l-7.8,2.3l-3.8,8.7l3.1,15.4l9.5,11.6l10.5,1l12.4-3.2l6,0.6l6.9,6.4l-3.4,4.2
						l4.1,4.9l21.6,11.1L686,740l13.1-7.8l0.6-6l-2.3-10.8l-10-5.5l2.2-7.4l8.2-2.2l1.1-12l-6.1-20.2l-4.3-18.6l-8-11.3l-10.7-14.6
						l-8.7-3.9l-9.3,2.1l-3.3,2.7L644.9,630.2L644.9,630.2z M644.9,630.2l-14,19.9l-5.3,8.6l-8,5.3l-8.5,9.8l-7.8,2.3l-3.8,8.7
						l3.1,15.4l9.5,11.6l10.5,1l12.4-3.2l6,0.6l6.9,6.4l-3.4,4.2l4.1,4.9l21.6,11.1L686,740l13.1-7.8l0.6-6l-2.3-10.8l-10-5.5
						l2.2-7.4l8.2-2.2l1.1-12l-6.1-20.2l-4.3-18.6l-8-11.3l-10.7-14.6l-8.7-3.9l-9.3,2.1l-3.3,2.7L644.9,630.2L644.9,630.2z
						M687.7,989.8l8.2-6.8 M655,1000.3l-17,4.4 M591.2,1020l19.9-2.7 M573.7,1030.4l-12.1-1.2 M793.5,892.4l-19.3,28.4l-13,9.4
						l-13.4,13.9l-11.2,6.5l-13.1,10.9l-1.9,4.4l6.3-2.4l12.8-7.9l16-9.1l16.4-13.6l13.4-13.9l7.1-11.4l5.6-11.6l-2.6-4.8
						L793.5,892.4L793.5,892.4z M793.5,892.4l-19.3,28.4l-13,9.4l-13.4,13.9l-11.2,6.5l-13.1,10.9l-1.9,4.4l6.3-2.4l12.8-7.9l16-9.1
						l16.4-13.6l13.4-13.9l7.1-11.4l5.6-11.6l-2.6-4.8L793.5,892.4L793.5,892.4z"/>
					<g>
						<path class="florida1" d="M782.1,777.6c0,0-0.8,3.8-2.1,1.9c0,0-2.1-1.3-2.9,1.8c0,0-1.8,2.4,0.7,4.4c0,0,6.3,6.8,4.1,9.8
							c0,0-5.5,2.1-5,5.5c0,0,0.1,4,1.6,1.9l2-3c0,0,0.6-1.2,2.4-0.1l2.1,1.3c0,0,1.4,0.6,0.6,2.6c0,0-1.3,2.3-3.8,1.4
							c0,0-3.9-1.3-4.2,0.6c0,0-1,0.7,4.7,3.3c0,0,4.3,1.8,2.7,4.1c0,0-4.3,1.4-2.8,6.3c0,0,2,6.1-1.5,6.1c0,0-2,1.1-1.9,1.6
							c0,0-3-0.4-3.8,1.1l-3.9,0.6c0,0-1.7-0.6-3.6,2.7c0,0-3.8,1.4-4.8-0.1c0,0-3-0.6-2.5,2.8c0,0,0.1,2.6-0.6,3c0,0-0.7,2.2,1.5,3
							c0,0,1.6,1.6,0.2,3.4c0,0-0.3,1.4,0.6,2c0,0,1.2,3-1,3.9c0,0-1,0.4-1.3-0.1c0,0-2-1-1.7,2.7c0,0-0.2,2.4-3.3,2.9
							c0,0-3.9,0.3-3.1,4.2c0,0,0.4,2.9-0.8,3.8c0,0-1.1,1.8-0.5,3.5c0,0-0.5,3.5-3.3,4.5c0,0-3.9,2.2-1.5,7.9l0.2,5
							c0,0-1.5,2.4,1.6,5.4c0,0,1.7,4.3,0,5.6c0,0-4.4,1.2-3,4.7c0,0-2.8,2.5-0.2,4c0,0,2.2,0.5,3-1.2c0,0,2.2-1.1,3.6-0.8
							c0,0,3.1-0.7,5.3-7.2c0,0,1-2,1.8-2.1c0,0,1.7-1.1,1.7-4.5c0,0,1.4-3.1,2.4-3.6c0,0,3.1-2.3,2.9-4.1c0,0,0.5-1.9,1.9,0
							c0,0,2,2.6,3.7-0.3c0,0,1.9-2.3,0.3-7.6c0,0-0.7-1,1.8-4.3c0,0,2.1-3.8,2.6-3.8c0,0,3.7-5.9,2.9-9.2c0,0-1.4-2.5,1.1-5.5
							c0,0,2.5-2.8,2.5-6.5c0,0,0.7-13.2,5-12.7l3-2.8c0,0,2.9-1.8,2-8.3l-0.2-6.6c0,0,0-3.5,0.8-3.6c0,0,3.2-5.3,2.2-8.8
							c0,0-0.8-1.7,0.5-4.1c0,0,0.6-8.6-2.4-11.1c0,0-4.3-1.8-3.9-4.8c0,0-0.3-3.7-1.4-4.3c0,0-1.4-0.3-1.9,1.6
							c-0.5,1.9-1.8,0.3-1.8,0.3S782.4,776.9,782.1,777.6z"/>
						<g>
							<path class="florida2" d="M758.7,851.3c0,0-0.5-1.5,0.1-1.7c0,0-0.2-1.5-1.5,0.2c0,0-0.4,2,1.1,2.3
								C758.4,852.1,759.1,852.3,758.7,851.3z"/>
							<path class="florida2" d="M771.9,852.8c0,0-0.4-0.7,0.2-1c0,0,0-1-1-0.3c0,0-0.8,1.2,0.3,1.7L771.9,852.8z"/>
							<path class="florida2" d="M761.1,850.8c0,0-1.8,0.3-1.1,1.1c0,0,0.8,0.6,2-0.3L761.1,850.8z"/>
							
								<rect x="751.9" y="889.9" transform="matrix(0.9893 -0.1459 0.1459 0.9893 -121.919 119.3605)" class="florida2" width="1.7" height="1.9"/>
							<path class="florida2" d="M764.4,859.5c0,0-1.4,0.5-1.7-1c0,0-0.2-1.7-1.1-0.5c0,0-1.2,0.6-0.3,1.3c0,0,0.6-0.1,0.8,0.9
								c0,0,0,0.9,1.2,0.5c0,0,2.5-0.2,2.4-0.9C765.5,859,764.4,859.5,764.4,859.5z"/>
							<path class="florida2" d="M765.3,855.1c0,0-0.2,0.7-0.9,0.5c0,0-0.8-0.2-0.8-0.7c0,0-1.1-0.5-1.4,0.2c0,0-1.4,1.4-0.9,1.7
								c0,0,1.1,0.7,1.7-0.6c0,0,0.8,0,0.5,0.6c0,0,0.7,0.6,0.2,1.6c0,0,0.1,0.9,1.2,0.4c0,0,0.2,0.9,0.5,0.4c0,0,0.2-0.4-0.6-1.6
								l1.4-0.3c0,0,0.4-1.1-1-0.4c0,0-0.9-0.6,0.5-0.8c0,0,0.8,0,0.6-0.8C766.3,855.2,766.2,854.1,765.3,855.1z"/>
							<polygon class="florida2" points="777.7,852.3 777.5,851.4 776.6,851.5 776.8,852.9 						"/>
							<circle class="florida2" cx="754.8" cy="862.3" r="0.4"/>
							<circle class="florida2" cx="760.5" cy="860.7" r="0.4"/>
							<circle class="florida2" cx="760.9" cy="862.1" r="0.4"/>
							<circle class="florida2" cx="760.7" cy="864.9" r="0.9"/>
							<circle class="florida2" cx="762.3" cy="868.6" r="0.7"/>
							<circle class="florida2" cx="759.8" cy="869.1" r="0.6"/>
							<circle class="florida2" cx="760.5" cy="870.7" r="0.7"/>
							<circle class="florida2" cx="754.9" cy="875.9" r="0.5"/>
							<circle class="florida2" cx="759.4" cy="875.2" r="0.4"/>
							<circle class="florida2" cx="761.1" cy="874.1" r="0.4"/>
							<circle class="florida2" cx="753.3" cy="878.1" r="0.5"/>
							<circle class="florida2" cx="751.6" cy="880.1" r="0.5"/>
							<circle class="florida2" cx="759.5" cy="880.5" r="0.5"/>
							<circle class="florida2" cx="748.1" cy="882.6" r="0.3"/>
							<circle class="florida2" cx="747.3" cy="883.5" r="0.4"/>
							<circle class="florida2" cx="749.2" cy="883.2" r="0.4"/>
							<circle class="florida2" cx="750.5" cy="883.4" r="0.2"/>
							<circle class="florida2" cx="751.4" cy="886.5" r="0.6"/>
							<circle class="florida2" cx="752.9" cy="887.8" r="0.4"/>
							<circle class="florida2" cx="755.8" cy="889" r="0.3"/>
							<circle class="florida2" cx="747.9" cy="890.2" r="0.6"/>
							<circle class="florida2" cx="751.5" cy="893.1" r="0.5"/>
							<circle class="florida2" cx="749.6" cy="870.4" r="0.4"/>
							<circle class="florida2" cx="750" cy="871.1" r="0.3"/>
							<circle class="florida2" cx="766.1" cy="876.2" r="0.5"/>
							<circle class="florida2" cx="765.9" cy="873.7" r="0.6"/>
							<circle class="florida2" cx="765.9" cy="866.1" r="0.3"/>
							<circle class="florida2" cx="767.7" cy="866.4" r="0.6"/>
							<circle class="florida2" cx="766.5" cy="868.7" r="0.3"/>
							<circle class="florida2" cx="763.1" cy="851.9" r="0.6"/>
							<circle class="florida2" cx="765.5" cy="850.2" r="0.3"/>
							<circle class="florida2" cx="764.7" cy="855" r="0.4"/>
							<circle class="florida2" cx="776.9" cy="854.7" r="0.5"/>
							<circle class="florida2" cx="775.5" cy="856" r="0.5"/>
							<circle class="florida2" cx="774.3" cy="859.2" r="0.2"/>
							<circle class="florida2" cx="777" cy="850.6" r="0.4"/>
							<circle class="florida2" cx="768.8" cy="846.6" r="0.4"/>
							<circle class="florida2" cx="773.5" cy="839.9" r="0.3"/>
							<circle class="florida2" cx="772.8" cy="833.5" r="0.6"/>
						</g>
					</g>
				</g>
			</g>
		</g>
		<g>
			<text transform="matrix(1 0 0 1 581.944 252.8223)" class="florida4 florida5 florida6">florida</text>
		</g>
		<g>
			<text transform="matrix(1 0 0 1 785.41 856.2888)" class="florida2 florida5 florida7">miami</text>
		</g>
		<g>
			<text transform="matrix(1 0 0 1 609.0067 445.4445)" class="florida2 florida5 florida7">miami</text>
		</g>
		<g>
			<text transform="matrix(1 0 0 1 414.1612 266.925)" class="florida2 florida5 florida7">tampa</text>
		</g>
		<g>
			<text transform="matrix(1 0 0 1 533.0493 356.9653)" class="florida2 florida5 florida7">lake okeechobee</text>
		</g>
		<g>
			<text transform="matrix(1 0 0 1 651.5886 678.9001)" class="florida2 florida5 florida7">lake okeechobee</text>
		</g>
		<g>
			<text transform="matrix(1 0 0 1 433.362 714.1006)" class="florida2 florida5 florida7">fort meyers</text>
		</g>
		<g>
			<text transform="matrix(1 0 0 1 377.8918 380.6109)" class="florida2 florida5 florida7">fort meyers</text>
		</g>
		<g>
			<text transform="matrix(1.077 0 0 1 587.212 512.2319)" class="florida2 florida5 florida8">florida keys</text>
		</g>
		<g>
			<text transform="matrix(1.077 0 0 1 741.1358 975.7998)" class="florida2 florida5 florida8">florida keys</text>
		</g>
	</g>
</svg>
