<svg id="Layer_1" data-name="Layer 1" xmlns="http://www.w3.org/2000/svg" viewBox="0 0 1255.02 713.4"><defs><style>.cls-1{fill:#aab58c;}.cls-2{fill:#4e6845;}.cls-3,.cls-9{fill:#bf5111;}.cls-4{fill:none;stroke:#2a4024;stroke-miterlimit:10;stroke-width:5px;}.cls-5,.cls-9{isolation:isolate;font-size:100px;font-family:AlvaroCondensed, Alvaro;}.cls-5{fill:#2a4024;}.cls-6{letter-spacing:-0.01em;}.cls-7{letter-spacing:0em;}.cls-8{letter-spacing:0em;}</style></defs><title>amazon_deforestationmanp</title><path class="cls-1" d="M79.85,113.72l7-8.51,8-8.51L99.58,90l.52-5-1.68-4.26-5.93-4.77L86,69.1l-5.93-2.57L78.3,63.17l.91-10.06,1.67-5,.52-5.15,245.79-.26,17.41-.39,4.64,4.51,3.62,4.52L361,62.4l.52,5.16.25,8.25,224.78-6.32,6.57,6.84.39,7.22,1.93,1.16-.51,6.06.64,4.13,5.81,3.61,7,2.7,10.32,1,1.29-1.94,5.16-9.8,4.64-4.64-1.55-6.32-4-13.67-.64-4.13L618,54l1.29-13.29,1.42-4,4.13.38L629,38.54l.13-1.93L634.24,34,637,37.38,642.88,40l8.51,7,5,1.42,9.16.91L675.89,49l4,.38L687.76,75l11.09,23.6,29,71.57L748.11,205l9,13.15,15.34,21.92.13,9.29,5.93,24.11,6.19,21.15,12.13,23.73,10.44,29.79,47.85,68.22,2.45,17.66,15.08,78.41L871,562.63l-5.42-7.74-2.71,29-9,20.51-10.19,11.22L835,632l-4.13.64-36.36,19.86-17-1.68-8.64,5.29-18.18-.77-15.47-7.61,4.77-7.61,7.73.77,9.8,5,5.42-3.61L753,628l3.87-7.87,8.51-3.35,3-9-10.19-.9.64-7.09,3.87-8.9-5.28-8.77-36.24-7.61L680.67,547,667.9,519l5.54-36.5.91-8.89L663.26,483.7l-8.77,7.23-3.87-1.42-3.35-39.85,5.67-6.58,1.93-20.63-4.12,11-4.52,3.74-6.44,2.45-11.09-2.06-1.94-1.16,5.68,16L626,454.82l-5.81-3.61-13.92-15.74v10.32L593,412.65l-11.86-15.48-6.83-3.74,3.48-4.77,12-8.12,12.77-15.22,1-11.22,3.35-4.64.65-7.22-11.22-10.32-4.77,17.93-8.26-9.93L578,341.46l-.26,2.84,6.06,11.86,1.42,6.32L578.79,366l-4.39,3.73-5.93-2.57-8.38-29.54,4.38-24.24,2.33-35.72-2.33-40.24-14.31-21.92-39.07-29.4-17.41-9.8-4-1.42,1.42-15.22-2.32-7.35-17.15-2.71-6.45-6.83-10.06-1.94-5.68-4.64-5.15-9.67-15.48-8.64-10.57-1-6.19,1.42-10.84,7.22-23.34,21.41-12.25.9L347.83,163.5l-13.42,1.81-20.11,9.41L295,175l-7.61-4.77-8.51-5.93-2.19-19.74-.13,2.07,3.74,3.48,1.16,9.28,6.58,5.81,8.38-2.32,1.94-20.25-1.94-11.86L289,122.62l-14.18-.26-7.1-.64.65-6.32L290.18,111l-6.7-4.9-32.37-2.07-9.93-.9-2.84-2.32.52-5,7.48-3.35.25-3-9.28-.9-7.61,3.35-5.42,2.58,4.26,9.67-9.93-4-2.84-2.32-34.3.9-11.86,2.71-18.83,1.29-5.42,2.58.39-4.13,2.58-5.93L146.78,90,143,85.48l-17,5.68-.26,3.35,2.32,6.19-.26,3.22-6.7,5.55L83,113l-3.1.77Zm0,0,7-8.51,8-8.51L99.58,90l.52-5-1.68-4.26-5.93-4.77L86,69.1l-5.93-2.57L78.3,63.17l.91-10.06,1.67-5,.52-5.15,245.79-.26,17.41-.39,4.64,4.51,3.62,4.52L361,62.4l.52,5.16.25,8.25,224.78-6.32,6.57,6.84.39,7.22,1.93,1.16-.51,6.06.64,4.13,5.81,3.61,7,2.7,10.32,1,1.29-1.94,5.16-9.8,4.64-4.64-1.55-6.32-4-13.67-.64-4.13L618,54l1.29-13.29,1.42-4,4.13.38L629,38.54l.13-1.93L634.24,34,637,37.38,642.88,40l8.51,7,5,1.42,9.16.91L675.89,49l4,.38L687.76,75l11.09,23.6,29,71.57L748.11,205l9,13.15,15.34,21.92.13,9.29,5.93,24.11,6.19,21.15,12.13,23.73,10.44,29.79,47.85,68.22,2.45,17.66,15.08,78.41L871,562.63l-5.42-7.74-2.71,29-9,20.51-10.19,11.22L835,632l-4.13.64-36.36,19.86-17-1.68-8.64,5.29-18.18-.77-15.47-7.61,4.77-7.61,7.73.77,9.8,5,5.42-3.61L753,628l3.87-7.87,8.51-3.35,3-9-10.19-.9.64-7.09,3.87-8.9-5.28-8.77-36.24-7.61L680.67,547,667.9,519l5.54-36.5.91-8.89L663.26,483.7l-8.77,7.23-3.87-1.42-3.35-39.85,5.67-6.58,1.93-20.63-4.12,11-4.52,3.74-6.44,2.45-11.09-2.06-1.94-1.16,5.68,16L626,454.82l-5.81-3.61-13.92-15.74v10.32L593,412.65l-11.86-15.48-6.83-3.74,3.48-4.77,12-8.12,12.77-15.22,1-11.22,3.35-4.64.65-7.22-11.22-10.32-4.77,17.93-8.26-9.93L578,341.46l-.26,2.84,6.06,11.86,1.42,6.32L578.79,366l-4.39,3.73-5.93-2.57-8.38-29.54,4.38-24.24,2.33-35.72-2.33-40.24-14.31-21.92-39.07-29.4-17.41-9.8-4-1.42,1.42-15.22-2.32-7.35-17.15-2.71-6.45-6.83-10.06-1.94-5.68-4.64-5.15-9.67-15.48-8.64-10.57-1-6.19,1.42-10.84,7.22-23.34,21.41-12.25.9L347.83,163.5l-13.42,1.81-20.11,9.41L295,175l-7.61-4.77-8.51-5.93-2.19-19.74-.13,2.07,3.74,3.48,1.16,9.28,6.58,5.81,8.38-2.32,1.94-20.25-1.94-11.86L289,122.62l-14.18-.26-7.1-.64.65-6.32L290.18,111l-6.7-4.9-32.37-2.07-9.93-.9-2.84-2.32.52-5,7.48-3.35.25-3-9.28-.9-7.61,3.35-5.42,2.58,4.26,9.67-9.93-4-2.84-2.32-34.3.9-11.86,2.71-18.83,1.29-5.42,2.58.39-4.13,2.58-5.93L146.78,90,143,85.48l-17,5.68-.26,3.35,2.32,6.19-.26,3.22-6.7,5.55L83,113l-3.1.77ZM760,229.66l5.81,3.61L772,244.1l8.12,11.09,4.39,7.61,7.73,15.09,4.65,5.54,5.28,8.77,4.52,6.58,3.61,4.51m-47.72,137-9.41,13.42-3.61,5.8-5.42,3.61-5.8,6.58L733,471.19l-2.58,5.94,2.07,10.44,6.44,7.87,7.1.64,8.38-2.19,4,.39,4.64,4.38-2.32,2.84,2.71,3.35,14.7,7.61,12.12,2.19,8.9-5.28.38-4.13L798,497.89l-6.84-3.74,1.55-5,5.55-1.55.77-8.12-4.13-13.67-2.83-12.64-5.42-7.74-7.22-9.93-5.93-2.58-6.32,1.42-2.2,1.81-2.45,4.12Zm0,0-9.41,13.42-3.61,5.8-5.42,3.61-5.8,6.58L733,471.19l-2.58,5.94,2.07,10.44,6.44,7.87,7.1.64,8.38-2.19,4,.39,4.64,4.38-2.32,2.84,2.71,3.35,14.7,7.61,12.12,2.19,8.9-5.28.38-4.13L798,497.89l-6.84-3.74,1.55-5,5.55-1.55.77-8.12-4.13-13.67-2.83-12.64-5.42-7.74-7.22-9.93-5.93-2.58-6.32,1.42-2.2,1.81-2.45,4.12Zm29,243.86,5.54-4.64M769.39,691.2l-11.61,3m-31.59,10.45,13.54-1.81m-25.54,8.77-8.25-.77m157.33-92.72-13.15,19.34-8.77,6.32-9,9.41-7.61,4.39-8.9,7.35-1.29,3,4.26-1.68,8.64-5.29,10.83-6.19,11.09-9.15,9-9.42,4.77-7.74,3.87-7.86-1.68-3.23-2.06.78Zm0,0-13.15,19.34-8.77,6.32-9,9.41-7.61,4.39-8.9,7.35-1.29,3,4.26-1.68,8.64-5.29,10.83-6.19,11.09-9.15,9-9.42,4.77-7.74,3.87-7.86-1.68-3.23-2.06.78Z"/><path class="cls-2" d="M855.53,540.19s-.51,2.58-1.42,1.29c0,0-1.41-.91-1.93,1.16a2.2,2.2,0,0,0,.39,3s4.25,4.65,2.83,6.58c0,0-3.74,1.42-3.48,3.74,0,0,0,2.71,1,1.29l1.29-2.06s.39-.78,1.68,0l1.42.9s.9.39.38,1.8a2.12,2.12,0,0,1-2.57.91s-2.71-.91-2.84.38c0,0-.65.52,3.22,2.2,0,0,2.84,1.16,1.81,2.83a3.25,3.25,0,0,0-1.94,4.26s1.29,4.13-1,4.13c0,0-1.29.77-1.29,1,0,0-2.06-.26-2.58.77l-2.7.39s-1.17-.39-2.46,1.8c0,0-2.57.91-3.22,0,0,0-2.06-.38-1.68,1.94,0,0,.13,1.8-.38,2.06a1.59,1.59,0,0,0,1,2.06,1.87,1.87,0,0,1,.13,2.33,1.4,1.4,0,0,0,.39,1.41s.9,2.07-.65,2.58c0,0-.64.26-.9,0,0,0-1.42-.64-1.16,1.81a2.27,2.27,0,0,1-2.2,1.93s-2.7.26-2.06,2.84c0,0,.26,1.93-.51,2.58a3.16,3.16,0,0,0-.39,2.45s-.39,2.45-2.32,3.09c0,0-2.71,1.42-1,5.42l.12,3.35s-1,1.55,1,3.61c0,0,1.16,2.84,0,3.74,0,0-3,.78-2.07,3.23,0,0-1.93,1.67-.13,2.71,0,0,1.55.25,2.07-.91a4.54,4.54,0,0,1,2.45-.51s2.06-.52,3.61-4.9c0,0,.64-1.42,1.29-1.42,0,0,1.16-.78,1.16-3.1,0,0,.9-2.06,1.68-2.45,0,0,2.06-1.54,1.93-2.83,0,0,.39-1.29,1.29,0a1.35,1.35,0,0,0,2.45-.13s1.29-1.55.26-5.16c0,0-.52-.65,1.16-2.84,0,0,1.42-2.58,1.8-2.58,0,0,2.45-4,1.94-6.19,0,0-1-1.67.77-3.74a7.46,7.46,0,0,0,1.68-4.38s.51-8.9,3.48-8.64l2.06-1.94s1.94-1.16,1.29-5.67l-.13-4.51s0-2.32.52-2.45c0,0,2.19-3.61,1.42-5.94a3.3,3.3,0,0,1,.26-2.7s.38-5.81-1.68-7.48c0,0-2.84-1.16-2.58-3.23,0,0-.13-2.45-1-3,0,0-.9-.26-1.29,1s-1.29.13-1.29.13S855.79,539.67,855.53,540.19Z"/><path class="cls-3" d="M839.67,590.09s-.39-1,.13-1.16c0,0-.13-1-1,.13,0,0-.26,1.42.77,1.55C839.54,590.74,840.06,590.87,839.67,590.09Z"/><path class="cls-3" d="M848.7,591.13s-.26-.52.13-.65c0,0,0-.64-.65-.26,0,0-.51.91.13,1.16Z"/><path class="cls-3" d="M841.35,589.84s-1.29.12-.78.77c0,0,.52.39,1.42-.26Z"/><rect class="cls-3" x="835.15" y="616.26" width="1.16" height="1.29" transform="translate(-81.06 128.53) rotate(-8.39)"/><path class="cls-3" d="M843.54,595.77s-.9.38-1.16-.78c0,0-.13-1.16-.77-.38,0,0-.78.38-.13.9,0,0,.38,0,.51.64,0,0,0,.65.78.39,0,0,1.67-.13,1.67-.64S843.54,595.77,843.54,595.77Z"/><path class="cls-3" d="M844.18,592.67a.51.51,0,0,1-.64.39s-.52-.13-.52-.52c0,0-.77-.38-.9.13,0,0-.9.91-.64,1.16a.75.75,0,0,0,1.16-.38s.51,0,.25.38A1.12,1.12,0,0,1,843,595s.13.65.78.26c0,0,.13.65.38.26,0,0,.13-.26-.38-1.16l.9-.26s.26-.77-.64-.26c0,0-.65-.38.38-.51a.39.39,0,0,0,.39-.52S844.83,592,844.18,592.67Z"/><polygon class="cls-3" points="852.57 590.87 852.44 590.22 851.92 590.35 852.05 591.25 852.57 590.87"/><circle class="cls-3" cx="837.09" cy="597.57" r="0.26"/><circle class="cls-3" cx="840.96" cy="596.54" r="0.26"/><circle class="cls-3" cx="841.22" cy="597.57" r="0.26"/><circle class="cls-3" cx="841.09" cy="599.38" r="0.64"/><circle class="cls-3" cx="842.25" cy="601.83" r="0.52"/><circle class="cls-3" cx="840.44" cy="602.22" r="0.39"/><circle class="cls-3" cx="840.96" cy="603.25" r="0.52"/><circle class="cls-3" cx="837.09" cy="606.86" r="0.39"/><circle class="cls-3" cx="840.19" cy="606.34" r="0.26"/><circle class="cls-3" cx="841.35" cy="605.7" r="0.26"/><circle class="cls-3" cx="836.06" cy="608.28" r="0.26"/><circle class="cls-3" cx="834.9" cy="609.7" r="0.26"/><circle class="cls-3" cx="840.32" cy="609.95" r="0.26"/><circle class="cls-3" cx="832.58" cy="611.37" r="0.26"/><circle class="cls-3" cx="832.06" cy="612.02" r="0.26"/><circle class="cls-3" cx="833.22" cy="611.76" r="0.26"/><circle class="cls-3" cx="834.13" cy="611.89" r="0.13"/><circle class="cls-3" cx="834.77" cy="614.08" r="0.39"/><circle class="cls-3" cx="835.8" cy="614.85" r="0.26"/><circle class="cls-3" cx="837.74" cy="615.76" r="0.26"/><circle class="cls-3" cx="832.45" cy="616.53" r="0.39"/><circle class="cls-3" cx="834.77" cy="618.46" r="0.26"/><circle class="cls-3" cx="833.61" cy="603.12" r="0.26"/><circle class="cls-3" cx="833.74" cy="603.63" r="0.26"/><circle class="cls-3" cx="844.7" cy="606.99" r="0.26"/><circle class="cls-3" cx="844.57" cy="605.31" r="0.39"/><circle class="cls-3" cx="844.57" cy="600.15" r="0.26"/><circle class="cls-3" cx="845.73" cy="600.41" r="0.39"/><circle class="cls-3" cx="844.96" cy="601.96" r="0.26"/><circle class="cls-3" cx="842.77" cy="590.61" r="0.39"/><circle class="cls-3" cx="844.31" cy="589.45" r="0.13"/><circle class="cls-3" cx="843.8" cy="592.67" r="0.26"/><circle class="cls-3" cx="852.05" cy="592.42" r="0.26"/><circle class="cls-3" cx="851.15" cy="593.32" r="0.39"/><circle class="cls-3" cx="850.25" cy="595.51" r="0.13"/><circle class="cls-3" cx="852.18" cy="589.71" r="0.26"/><circle class="cls-3" cx="846.63" cy="587" r="0.26"/><circle class="cls-3" cx="849.73" cy="582.49" r="0.26"/><circle class="cls-3" cx="849.34" cy="578.1" r="0.39"/><rect class="cls-4" x="810.01" y="526.21" width="81.29" height="116.37"/><text class="cls-5" transform="translate(376.37 542.65)">f<tspan class="cls-6" x="24.8" y="0">l</tspan><tspan class="cls-7" x="48.5" y="0">ori</tspan><tspan class="cls-6" x="130.3" y="0">d</tspan><tspan class="cls-8" x="161.4" y="0">a</tspan></text><text class="cls-9" transform="translate(911.19 586.74)">the pine<tspan x="0" y="80">rocklands</tspan></text></svg>