<svg id="Layer_1" data-name="Layer 1" xmlns="http://www.w3.org/2000/svg" xmlns:xlink="http://www.w3.org/1999/xlink" viewBox="0 0 905.49 1136.1">
    <defs>
        <style>
            .amazon-1,.amazon-7{fill:none;}.amazon-2,.amazon-3{fill:#aab58c;}.amazon-2,.amazon-7{stroke:#f9f0e4;stroke-miterlimit:10;stroke-width:3px;}.amazon-20,.amazon-4{fill:#4e6845;}.amazon-5,.amazon-8{fill:#2a4024;}.amazon-15,.amazon-22,.amazon-6{fill:#bf5111;}.amazon-15,.amazon-8{isolation:isolate;}.amazon-8{font-size:35px;}.amazon-15,.amazon-20,.amazon-22,.amazon-8{font-family:AlvaroCondensed, Alvaro;}.amazon-9{letter-spacing:-0.03em;}.amazon-10{letter-spacing:-0.01em;}.amazon-11{letter-spacing:-0.02em;}.amazon-12{letter-spacing:0em;}.amazon-13{letter-spacing:-0.02em;}.amazon-14{letter-spacing:-0.01em;}.amazon-15{font-size:24.38px;}.amazon-16{letter-spacing:-0.01em;}.amazon-17{letter-spacing:-0.01em;}.amazon-18{letter-spacing:0em;}.amazon-19{letter-spacing:-0.03em;}.amazon-20,.amazon-22{font-size:50.85px;}.amazon-21{letter-spacing:-0.03em;}.amazon-23{clip-path:url(#clip-path);}
        </style>
            <clipPath id="clip-path"><rect class="amazon-1" x="1561.67" y="614.05" width="451.8" height="565.3"/></clipPath>
    </defs>
    <title>amazon_deforestationmanp</title>
        <g id="amazon"><path class="amazon-2" d="M424.19,74.4a3,3,0,0,0,4.5.5,2.76,2.76,0,0,0,.5-3.5c-.9-1.7-3.8-2.1-5-.5A2.85,2.85,0,0,0,424.19,74.4Z"/><path class="amazon-3" d="M421.69,152.9c1.3.3,2.4.8,3.5,0s.4-2.2,1-3.5c.8-1.6,2.7-1.7,3-3.5.3-1.6.3-3-1-4s-2.5-.5-4,0-3.1.9-3.5,2.5c-.4,1.4,1.2,2.1,1,3.5-.3,1.8-3.7,1.9-3,3.5C419.19,152.6,420.39,152.5,421.69,152.9Z"/><path class="amazon-3" d="M764.39,401.9a56,56,0,0,1-2-7c-.6-3.1.4-5.2-1-8a13.14,13.14,0,0,0-3-4c-2.2-2.2-3.6-3.6-6.5-4.5s-4.6.2-7.5,0c-3.4-.3-6.1.9-8.5-1.5-1.1-1.1-.8-2.5-2-3.5-1.7-1.4-3.7.2-5.5-1-1.4-.9-1.7-2.1-2.6-3.4-.1-.2-.3-.4-.4-.6-1.5-2-2.5-3-4-5a41.69,41.69,0,0,0-3-4c-2-2.1-3.7-2.7-6-4.5-2-1.5-2.9-2.7-5-4-1.9-1.2-3.5-1-5-2.5s-.9-3.4-2.5-4.5c-2.2-1.6-4.3-.4-7,0s-4.3,1.4-7,2c-3.1.6-4.9,1.3-8.1,1a21.39,21.39,0,0,1-5.5-1.5c-2-.7-3-1.4-5-2-2.3-.8-3.7-.7-6-1.5-2.7-.9-3.7-3.1-6.5-3a11.08,11.08,0,0,0-2.5.5,33.83,33.83,0,0,0-8.6,3c-1.4.7-2,2.6-3.5,2-1.9-.7,2.1-2.6,2.5-4.5a7,7,0,0,0-.5-5.5c-.9-1.7-2.2-2.1-3.5-3.5s-1.5-2.8-3-4c-2-1.6-4-.9-6-2.5-1.4-1.1-1.6-2.4-3-3.5-3-2.2-6.3.3-9.6-1.5-2.1-1.2-2.3-3.1-4.5-4-2-.8-3.4-.1-5.5-.5s-3-1.3-5-1.5c-2.8-.3-4.8-.7-7,1-1.3,1-1.6,2.1-2.5,3.5-1.6,2.6-1.5,4.7-3.5,7-1.5,1.7-2.9,2-4.5,3.5-1.2,1.1-1.7,2-3,3s-2.3,1.9-4,2c-1.2.1-2.2.4-3-.5s0-2.2,0-3.5l-.5.5c1-1.2,1.2-2.3,2.5-3,1.5-.9,2.9.2,4.5-.5,2.4-1,3.1-2.8,4.5-5,1.6-2.5,1.8-4.3,3-7,1-2.2,3.2-3.3,2.5-5.5a4.52,4.52,0,0,0-2-2.5c-2.1-1.5-4-.1-6.5-.5-2-.3-3-.9-5-1-2.4-.2-3.7.4-6,.5-2.5.1-4-.2-6.5,0-1.8.1-3.1-.5-4.5.5s-1.5,2-2,3.5c-1.1,3,.3,4.9,0,8-.1,1.6.4,2.8-.5,4-1.3,1.7-3.6,0-5.5,1-1.4.7-1.8,1.6-3,2.5-1.5,1.2-2.1,2.4-4,3-2.1.6-3.5-.5-5.5-.5s2.2-2.1,3.5-3.5,1.8-2.2,3-3.5c1.4-1.5,2.8-1.9,4-3.5,1.6-2.2,1.4-4.1,2.5-6.6s1.6-4.4,3.5-6.5,4.3-1.8,6-4a5,5,0,0,0,1-1.7c.6-1.4.7-2.8,1.5-4.3,1.7-3,4.3-3.8,5.5-7,.9-2.4,2.5-4.4,1-6.5-1.1-1.6-2.8-1.2-4.5-2-2.7-1.2-5.5-.4-7-3-1.1-1.9-.2-3.4-.5-5.5-.3-2.8-.1-4.9-.6-7.1a10.67,10.67,0,0,0-1.4-3.4c-.9-1.5-2.2-1.9-3-3.5-1.5-2.8-.9-4.9-1-8-.1-1.8.9-3,0-4.5-1.1-1.8-3.4-.7-5-2l-1,1c-1.4,2.3-2.2,3.7-3.5,6a68.85,68.85,0,0,0-3.5,6.6c-.9,1.8-1.4,3.3-2,4.7.6-1.5,1.1-2.9,2-4.7,1.3-2.6,2.1-4,3.5-6.6,1.3-2.4,2.2-3.7,3.5-6l1-1c-2-1.6-2.2-3.3-3.5-5.5-1.5-2.5-.9-5.2-3.5-6.5-2.1-1.1-3.9.9-6,0-1.7-.7-1.9-2.2-3.5-3-2.3-1.2-4.4.4-6.5-1-1.9-1.2-1.8-3.1-3.5-4.5a15.51,15.51,0,0,0-4.2-2.5h0c-.6-.2-1.2-.4-1.9-.6-3.4-.9-5.6.6-9.1,0-2.6-.5-3.9-1.5-6.5-2a20.51,20.51,0,0,0-5.5-.5,27.68,27.68,0,0,0-5,1c-2.3.4-3.7,1.2-6,1-2.5-.2-4.1-.4-6-2s-1.5-3.6-3-5.5c-1.7-2.2-3.6-2.5-5.5-4.5-1.3-1.3-1.3-2.9-3-3.5-1.3-.5-2.2.3-3.5,0-2.2-.5-3.8-1.1-5-3-1.4-2.1.2-4.1-.5-6.5-.9-2.9-2.1-4.2-4-6.5a38.25,38.25,0,0,0-4.5-4.5c-2.2-1.9-3.4-3.2-6-4.5h0a12,12,0,0,0-3.5-1.5c-3.3-.8-5.5,2.3-8.6,1-1.9-.8-3.6-1.5-4-3.5-.4-2.4,2.7-2.8,3.5-5,.9-2.4,1.5-4.2.5-6.5s-3.1-2.9-5.5-4a15.16,15.16,0,0,0-5-1.5c-2.5-.3-4,.3-6.5.5l.5-.5c-1,.2-1.5.7-2.5.5a3.51,3.51,0,0,1-2.5-2.5c-.9-2-.2-3.7,1-5.5,1.7-2.5,7.7-.1,7-3-.4-1.8-2-2.1-3.5-3a8.14,8.14,0,0,0-4-1.5c-2.7-.2-4.1,1.3-6.5,2.5-1.4.7-2,1.5-3.5,2-2.6.9-4.4-.9-7,0-1.7.6-2.3,1.7-4,2.5-1.9.9-3.4.3-5,1.5-1.8,1.4-1,3.9-3,5-3,1.8-5.3-1.2-8.6-2.5a36.83,36.83,0,0,1-6.5-3.5c-1.2-.7-1.7-1.5-3-2-2.5-1-4.3-.1-7,0-3.7.1-5.8.6-9.6.5-4.3-.1-8.6,2.6-11.1-1-1.4-2-.1-3.8-1-6a8.68,8.68,0,0,0-2-3.5c-1.9-1.8-3.9-1.2-6.5-1.5s-5,1.8-7,0c-2.4-2.1,1.9-5.6,0-8a6.08,6.08,0,0,0-4.5-2.5c-2.4-.4-5.6-.9-6,1.5-.4,2.1,2.3,2.3,3.5,4,.9,1.3,2.3,2,2,3.5-.3,1.8-2.3,1.8-4,2.5-2.9,1.2-5.2-.3-8,1-2.3,1.1-3.1,2.4-5,4-2.2,1.9-3.4,7-5.5,5-1.6-1.5.6-3.5,0-5.5-.4-1.4-1.8-2-2.5-2.9h0a1.75,1.75,0,0,1-.5-1.6,4.36,4.36,0,0,1,1.5-2.5c1.2-1.3,2.6-1,4-2,2.6-1.7,5-2.5,5.5-5.5.3-1.6.5-2.8-.5-4-1.2-1.6-3-1.1-5-1-2.5.1-4.4.2-6,2s0,3.9-1.5,5.5c-2,2.2-4.9-.2-7.5,1s-3,3.6-5.5,5c-3,1.8-5.1,1.8-8.6,2.5-2.7.6-4.9-.8-7,1-1.1.9-.9,2.1-2,3s-2.1,1.1-3.5,1.5c-2.3.7-3.8-.3-6,.5a10.52,10.52,0,0,0-4.5,3c-3.7,3.6-3.5,7.5-4,12.6-.2,2.3,1.5,4.3,0,6-1.7,1.9-4.4-.9-6.5.5a7,7,0,0,0-3,4.5c-.5,1.9.9,3.3,0,5-1.3,2.6-5.5,0-7,2.5-1,1.7,1.2,4-.5,5s-3-.4-4.5-1.5v1c-.4,2.2-.1,3.6-1,5.5a10.83,10.83,0,0,1-4,4.5,29.86,29.86,0,0,1-4,2l-1.1,1a3.91,3.91,0,0,1,1.6,1c1.9,2.1-.3,4.6,1,7,.9,1.9,2.7,2.1,3.5,4,1.3,2.9-.5,4.9-.5,8.1-.1,4.1.4,6.4.5,10.6.1,2.7,1.2,4.6,0,7-.9,1.7-2.5,1.9-3.5,3.5-1.6,2.7-.8,4.9-.9,7.8a6.15,6.15,0,0,1-.1,1.3c-.7,5.1-1.7,7.9-2,13.1-.2,3.5,2.4,6.4,0,9.1-2.1,2.4-5.4-.3-8,1.5-3.3,2.2-4.1,5.1-4.5,9.1-.2,1.4.2,2.2,0,3.5l-.5,2.5h0l.5-2.5c-.7,4-3,6.1-6.5,8.1-3,1.6-6.4-1.1-8.6,1.5-1.5,1.7-.9,3.4-1.5,5.5-.9,3.3-.2,6-2.5,8.5a8.69,8.69,0,0,1-3.5,2.5c-1.6.7-2.9.2-4.5,1-3.3,1.6-4.1,4.2-5.5,7.5-1.3,3.1-1.3,5.2-1.5,8.6-.2,2.6-.5,4,0,6.6.4,2.3,1.3,3.4,2,5.5.6,1.8.3,3.1,1.5,4.5,1.6,2,3.7,1.6,6,2.5,2.7,1.1,7-.4,7,2.5.1,2-1.7,2.6-3,4-.7.8-1.4,1.4-2,2l-.1.2c-.9.7-1.8,1.4-2.9,2.4-2.2,2-4.3,2.4-5.5,5-.7,1.5-.4,2.5-1,4-.8,2.1-2.1,2.9-3,5-.8,1.9-2,3-1.5,5s2.9,1.7,3.5,3.5-.6,3.1-.5,5c.1,2.4,1.4,3.6,1.5,6,.1,2.6-1.9,4.1-1,6.5.9,2.6,3.1,3.2,5.5,4.5a21.2,21.2,0,0,0,6,2c2.5.6,4.4-.5,6.5,1,2.8,1.9,1.7,5,3,8.1,2.5,5.9,3.8,9.4,7.6,14.6,2.3,3.2,4.8,4.1,6.5,7.5,1.1,2.2.9,3.8,2,6a12.23,12.23,0,0,0,2.4,3.3,19.84,19.84,0,0,1,4.1,4.8c2.4,4.3,1.7,7.5,3.5,12.1,1.5,3.8,2.8,5.8,4.5,9.6s2.4,6.3,4.5,10.1c2.3,4,4.6,5.7,7,9.5a54.66,54.66,0,0,1,4,7c1.4,2.9,1.6,4.7,3,7.5.9,1.8,1.7,2.7,2.5,4.5,1.6,3.7.2,6.5,2,10.1,1.4,2.7,3.1,3.7,5,6,2.4,2.9,3.5,4.8,6,7.5a72.83,72.83,0,0,0,7,6.6c2.5,2.1,4,3.1,6.5,5,2.7,2,3.9,3.9,7,5,2.4.9,4.1.1,6.5,1,3.3,1.2,4.1,3.7,7,5.5,3.5,2.1,6,2,9.6,4,2.5,1.4,3.5,2.8,6,4,2.1,1,3.9.4,5.5,2,2.5,2.3-.3,5.7,1.5,8.6,1.7,2.6,3.9,3.3,6.5,4.1l2.1.4c1-1.8,1.6-2.7,2.5-4.5s.8-3,2-4.5c1.4-1.6,2.8-1.7,4.5-3a37,37,0,0,0,6.5-6l.1-.1.2-.2-.3.3a41,41,0,0,1-6.5,6c-1.7,1.3-3.2,1.4-4.5,3s-1.2,2.8-2,4.5-1.5,2.8-2.5,4.5l-2.1-.4c.8.3,1.7.5,2.6.9,1.9.7,3.6.1,5,1.5,1.8,1.8.3,4.1,1,6.5.8,2.9,2,4.2,3,7a52.5,52.5,0,0,1,2.5,11.1c.8,5.6-.8,9.1.5,14.6.5,2,1.2,3,1.5,5,.6,4.2-1.2,6.5-2,10.6-.7,3.5-1.2,5.5-2,9.1-.7,3-2.4,4.5-2,7.5.3,2.4,1.8,3.3,2.5,5.5a28.76,28.76,0,0,1,1,5.1,63,63,0,0,1,.5,7.5c.1,3.5-1.3,5.8,0,9.1.8,2,2.7,2.4,3,4.5s-1.2,3-1.5,5a24.09,24.09,0,0,0,0,6c.1,2.6.3,4,.5,6.5.3,3.6.6,5.5,1,9.1.2,1.8.4,2.8.5,4.5a63,63,0,0,1-.5,7.5c-.2,3.5,1.2,5.9-.5,9.1-1.2,2.2-4,2.1-4.5,4.5a5.58,5.58,0,0,0,.5,4c.7,1.7,2.3,1.9,3,3.5,1,2.3.1,4,0,6.5-.1,2,.2,3.2-.5,5s-2.4,2.2-3,4c-1,2.8.5,4.6,1,7.5a63.11,63.11,0,0,0,2,8.6c1,3,2.1,4.5,3,7.5s.4,5,1.5,8c.9,2.5,2.6,3.4,3,6s-.1,4.1-1,6.5c-.8,2.1-2.2,2.9-3,5-1.6,4-.8,6.8-.5,11.1.2,3,.8,4.6,1,7.6v.2a51.43,51.43,0,0,1,0,6.8c-.2,3.9-1.1,6.1-1,10.1,0,2.4.7,3.7.5,6-.2,2.6-1,4-1.5,6.5-.7,3.5-2.4,5.6-1.5,9.1.7,2.5,2.4,3.3,3.5,5.5a26.41,26.41,0,0,1,3,8.1c.7,3.7-.7,5.9,0,9.6.5,2.4,2.3,3.6,2,6s-2.8,2.8-3,5c-.3,2.5,1.9,3.6,2.5,6,.5,2.1,0,3.4.5,5.5.6,2.3,1.5,3.4,2.5,5.5,1.1,2.4,1.3,4.1,3,6,1,1.1,1.5,2.2,3,2.5,2.1.5,2.8-2.5,5-2.5a5.27,5.27,0,0,1,4,1.5c1.6,1.4.7,3.4,2,5,1.1,1.3,2.5,1.2,3.5,2.5a5.72,5.72,0,0,1,1.5,3c.4,2-1.6,3-1.5,5,.1,1.7,1.5,2.3,1.5,4,.1,2.1-1.7,3-2,5-.2,1.4-.8,2.4,0,3.5s2.4.1,3.5,1c2.5,1.9-2.2,5.4-.5,8a9.48,9.48,0,0,0,2,2c1.4,1.2,3,1,4.2,2.1l.4.4a6.37,6.37,0,0,1,1.5,4c.2,2-.4,3.1-1,5-.5,1.4-1,2.1-1.5,3.5-.9,2.3-2.5,3.6-2,6,.3,1.5,1.4,2.1,2,3.5,1.3,3.3.4,5.5.5,9.1.1,3.1,1.1,5.1,0,8-.7,2-3.1,2.4-3,4.5s2,2.3,3,4c.9,1.5.6,3,2,4,1.8,1.2,3.5-.6,5.5,0,1.8.5,3.9.7,4,2.5.2,2-2.9,1.4-4,3-1.3,1.8-1.2,3.3-1.5,5.5-.4,2.4-1.2,4.2-.5,6.1a4.05,4.05,0,0,0,.5.9c.8,1.3,1.8,1.5,3,2.5,1.6,1.4,3,1.7,4,3.5,1.4,2.4-.4,4.5.5,7.1a6.56,6.56,0,0,0,1.5,3c.9.9,2,.7,3,1.5,2.1,1.8,1.2,4.1,2.5,6.5,1,1.9,1.3,3.3,3,4.5,1.4,1,2.7.6,4,1.5,2,1.4,1.9,3.3,3.5,5s3.4,1.6,4.5,3.5c.9,1.6.5,2.8,1,4.5a15.12,15.12,0,0,0,2,4.5c1,1.4,1.4,2.8,3,3,1.8.3,2.3-1.8,4-2.5a13.26,13.26,0,0,1,7-1.5,13.45,13.45,0,0,1,3.5.5,20.35,20.35,0,0,1,5.5,1.5c2.4,1.1,5.4,1.4,5.5,4a4.53,4.53,0,0,1-3,4.5c-1.8.8-3.3.4-5-.5-2.4-1.2-1.6-4.5-4-5.5s-5.3-1.7-6.5.5a3.68,3.68,0,0,0-.5,2.5c.1,2.1,1.4,3.2,3,4.5s5-.1,5,2-5.4-.7-5.5,1.5,3,1.6,5,2.5c2.7,1.3,4.1,2.4,7,3,1.9.4,3.1,1,5,.5a4.57,4.57,0,0,0,3-1.5h0c1.1-1.4-.3-2.8,0-4.5.5-2.8,1.4-4.2,3-6.5.7-1.1,1.3-1.5,2-2.5a20.68,20.68,0,0,0,1.5-2.5c1.4-2.2,1.6-4.5,4-5.5,2-.9,3.4,0,5.5,0,2.5,0,5.3,2.2,6.5,0l-6-3c-2.5-1-3.9-1.7-6.5-2.5-4-1.3-6.7-4.1-10.6-2.5-1.3.5-1.8,1.4-3,2-5.1,2.6-9.5,2.1-14.6-.5-2.5-1.3-3-3.3-5.5-4.5-1.7-.8-3.3-.1-4.5-1.5s-.8-2.7-1-4.5a6.73,6.73,0,0,1,.1-2,5.92,5.92,0,0,0-.1,1.9c.2,1.8-.2,3.2,1,4.5s2.9.7,4.5,1.5c2.5,1.2,3.1,3.3,5.5,4.5,5.1,2.6,9.5,3.1,14.6.5,1.3-.6,1.7-1.5,3-2,3.9-1.6,6.5,1.2,10.6,2.5,2.6.9,4,1.5,6.5,2.5l6,3c1.2-2.1-.6-4.1-2.5-5.5s-5.1,1.2-6-1c-.5-1.1.3-1.9,0-3-.5-2-2.3-2.3-3.5-4a15.13,15.13,0,0,1-2-3.5,12.27,12.27,0,0,1,0-10.1,9.73,9.73,0,0,1,2.5-4c1.2-1.1,2.5-.8,3.5-2,1.4-1.7.9-3.3,1-5.5.2-2.5-.5-4-.5-6.5,0-2.2-.4-3.6.5-5.5.8-1.6,1.7-2.2,3-3.5a38.11,38.11,0,0,1,5-4c1.9-1.4,3.7-1.5,5-3.5,1.9-2.8,1.4-5.3.5-8.5-.4-1.5-.5-2.5-1.5-3.5-1.3-1.3-2.7-1.2-4.5-1.5s-3.1.6-5,0a10.25,10.25,0,0,1-3.5-2c-2.2-1.5-2.8-3.1-5-4.5-1.1-.7-1.9-.8-3-1.5a10.49,10.49,0,0,1-4-3.5c-1.4-2.2-1.5-3.9-1.5-6.5,0-2.2,0-3.6,1-5.5,1.4-2.6,3.4-3.1,6-4.5s6,.2,7.5-2.5c.9-1.6.1-2.8.5-4.5.1-.5.3-.9.4-1.3.6-1.3,1.4-2.2,1.6-3.8.2-2.7-2.1-3.9-2-6.5.1-1.6.8-2.4,1-4,.2-2.2-1.8-3.8-.5-5.5,1.1-1.5,3.9.2,4.5-1.5.7-1.9-2-2.3-3-4-.7-1.1-1.6-1.7-1.5-3,.1-2.4,5.4-.2,5.5-2.5a3.33,3.33,0,0,0-1.5-3c-1.5-1.3-3.1-.1-5-.5-1.6-.3-3,.2-4-1s-.4-2.4-.5-4c-.1-1.8.8-3,0-4.5s-2.2-1.5-3.5-2.5c-1.8-1.3-3.7-1.4-4.5-3.5a4.9,4.9,0,0,1,1-5.5c2-2.2,4.7-1.1,7.6-.5,3.3.6,4.3,3.2,7.5,4a25.6,25.6,0,0,0,5.5.5,24.09,24.09,0,0,0,6,0c2.5-.4,4.6,0,6-2a6.3,6.3,0,0,0,1-3c.3-1.8-.3-2.8-.5-4.5l-1,1c-.6-3.7-1.3-5.8-1.5-9.6s-.9-6.1.5-9.6c.8-2,1.2-3.5,3-4.5,2.4-1.3,4.3.4,7,1,2.2.5,3.3,1.6,5.5,1.5s3.3-1.4,5.5-2c2.7-.8,4.3-.7,7.1-1.5,3.2-.9,4.8-2.1,8-3s5.6.1,8.6-1.5c3.9-2.2,4.3-5.7,6.5-9.6a65.28,65.28,0,0,0,3.5-7c1-2.3,2.4-3.6,2.5-6v-.5a10,10,0,0,0-1.5-5c-1.2-2.7-2.8-3.7-4.5-6-1.4-1.9-2.9-2.7-3.5-5-.5-1.9.5-3.1,0-5-.4-1.7-1.4-2.4-2-4s0-2.8-1-4c-1.9-2.5-5.1,1-8.1,0a10.53,10.53,0,0,1-6-4.5c-1.4-2.1-2.5-3.6-2-6,.3-1.5.6-2.9,2-3.5h0c1.9-.8,2.9,1.3,4.5,2.5,1.1.9,1.3,1.9,2.5,2.5,1.4.7,2.5.2,4,.5,1.8.3,2.8.6,4.5,1l6.5,3c1.8,1.4,2.3,3,4.5,3.5,2.4.5,3.8-.6,6-1.5,1.6-.6,2.3-2,4-2,1.5,0,2.2.8,3.5,1.5s2,1.8,3.5,2c3.1.5,3.9-2.9,6.5-4.5,1.7-1.1,2.9-1.3,4.5-2.5,2.1-1.6,3.7-2.5,4.5-5,.7-2-.6-3.5,0-5.5.9-3.1,3.7-3.4,5.5-6a35.18,35.18,0,0,0,2.6-4.3l-1.1.3c-3.8-1.7-7-1.4-9.8-4.3,2.7,2.9,6,2.6,9.8,4.3l1.1-.3c.7-1.4,1.2-2.9,1.9-4.7,1.1-3,.9-5,2-8.1.9-2.6.8-4.8,3-6.5,1.8-1.4,4,.1,5.5-1.5,1.2-1.2.7-2.6,1.5-4,1.4-2.4,3.7-2.6,5-5,1.5-2.6.9-4.6,1.5-7.6a66.81,66.81,0,0,1,2-8,36.4,36.4,0,0,1,2.5-6.5c1.6-3.3,3.1-4.9,5-8,1.2-2,1.8-3.1,3-5,2.1-3.4,4.3-4.8,5.5-8.6,1.6-4.8,0-8,0-13.1,0-2.2.5-3.4,0-5.5-.6-2.6-2.6-3.5-3.5-6-1.6-4.7-1.7-8.2.5-12.6a19,19,0,0,1,3-4,38.25,38.25,0,0,1,4.5-4.5c1.7-1.5,2.8-2.1,4.5-3.5a53.73,53.73,0,0,0,4.5-3.5c2.1-2.1,2.2-4.2,4.5-6a16.83,16.83,0,0,1,6.5-3c3.2-.9,5.5.5,8.6-1,2.6-1.3,3.3-3.2,5.5-5.1.3-.2.5-.4.8-.6,1.3-1.1,2.3-1.8,3.8-2.9,1.9-1.4,2.9-2.5,5-3.5a20.35,20.35,0,0,1,5.5-1.5c4.4-.8,7.1.3,11.6,0,3.7-.2,6.7,1.4,9.6-1,1.3-1.1,1.6-2.1,2.5-3.5.8-1.2,1.2-1.9,2-3a21.5,21.5,0,0,1,4-4.5c1.6-1.4,3.2-1.4,4.5-3,2-2.5,1-4.9,1.5-8s-1.2-5.8,1-8c1.4-1.4,3-.8,4.5-2a7.84,7.84,0,0,0,2.5-3.5c1.1-2.7-1.4-5,0-7.6.8-1.5,1.7-2,3-3,1.6-1.2,3.1-1.1,4.5-2.5,4.3-4-.2-9.2,0-15.1.1-3.7-1.3-6.3.5-9.6,1.2-2.2,3.7-2.2,4.5-4.5,1-2.8-1.4-4.5-1.5-7.5-.1-2.6-.6-4.2.5-6.5.8-1.6,2.2-1.9,3-3.5,2.1-4-1.1-7-1.5-11.6-.3-2.7-.2-4.3-.5-7a59,59,0,0,0-1-7.5c-.6-2.6-2.1-3.9-2-6.5.1-2.3,1.7-3.4,2.3-5.3a5.07,5.07,0,0,0,.2-1.3c.1-2.7-2.1-3.9-2-6.5a9.08,9.08,0,0,1,3-7c1.4-1.4,2.7-1.7,4.5-2.5s3-.4,4.5-1.5c2.1-1.6,1.5-3.9,3-6a36.12,36.12,0,0,0,2.5-3c1.7-2.5,1.8-4.3,3-7,1.7-3.8,2.7-5.9,4.5-9.6.8-1.6.5-3.1,2-4,1.2-.7,2.2,0,3.5-.5,2.5-1.1,2.5-3.4,4-5.5,2.2-3,3.3-4.7,5.5-7.5,2.1-2.6,3.4-4,5.5-6.5,1.2-1.4,2.2-1.9,3-3.5,1.1-2.3.3-4,.5-6.5.2-3.1-.1-5,.5-8.1.5-2.6,1.3-4,2-6.5.9-3.5,2.3-5.4,2-9.1C766.59,406,765.19,404.7,764.39,401.9ZM495.69,753.6a13.58,13.58,0,0,1-1.2,1.2,13.58,13.58,0,0,0,1.2-1.2Zm-12.2-61.2c0,2.1.5,3.9.1,5.7C484,696.4,483.49,694.5,483.49,692.4Zm-65.3-58.5Zm-92.1-125.8a16.26,16.26,0,0,0,1.5,6.5c.9,2.1,3.3,2.8,3,5h0c.3-2.3-2.1-2.9-3-5a16.26,16.26,0,0,1-1.5-6.5Zm-26.2-47.8h0c0,1.9-1.2,3.6-1.2,5.1C298.69,463.9,300,462.2,299.89,460.3ZM258.19,411a13.68,13.68,0,0,0,.2-2.8,13.68,13.68,0,0,1-.2,2.8c-.3,1.5-.9,2.5-1,3.7C257.29,413.4,257.89,412.5,258.19,411Zm9-248.1c-.1,2.6,3.3,2.7,4.5,5s.7,3.7,1.5,6c.9,2.7,2.4,3.8,3,6.5a7.14,7.14,0,0,1,.2,2,15,15,0,0,0-.2-2c-.6-2.7-2.1-3.9-3-6.5-.8-2.3-.4-3.9-1.5-6-1.2-2.3-4.6-2.3-4.5-5Zm36.3,135.9h0a8.07,8.07,0,0,0-.7,3.2A6.42,6.42,0,0,1,303.49,298.8Zm3,65.9c-.8,2-3.4.7-5.5.5-1.2-.1-1.8-.3-3-.5l-1,1c-.4.6-.7,1.2-1,1.7a10.62,10.62,0,0,1,1-1.7l.5-1h.5c1.2.2,1.8.4,3,.5,2.1.1,4.7,1.5,5.5-.5a2.77,2.77,0,0,0,.1-.9A2.77,2.77,0,0,1,306.49,364.7Zm-7.6,87.5a8.81,8.81,0,0,0,.3-2.1,8.81,8.81,0,0,1-.3,2.1,5.1,5.1,0,0,0-.1,2.1A7.74,7.74,0,0,1,298.89,452.2Zm-29.1-14.6c0,.1-.1.1,0,0-.1.1,0,.1,0,0Zm-.5-61.3a2.27,2.27,0,0,0-.6,1.2,1.73,1.73,0,0,1,.6-1.2c1.6-1.7,3.9,1,6,0,1.8-.8,2.1-2.1,3.5-3.5l.1-.1-.1.1c-1.4,1.4-1.7,2.7-3.5,3.5C273.09,377.3,270.79,374.5,269.29,376.3Zm36-34.9c-.3,1.3-2,2.6-2.8,4.1a41.35,41.35,0,0,1-3,5c-.8,1.1-1.7,1.6-2.3,2.8.7-1.1,1.5-1.6,2.3-2.8a25.5,25.5,0,0,0,3-5C303.29,344,305,342.8,305.29,341.4Zm-8.5,12.5a9.58,9.58,0,0,0-.9,4.2A10.23,10.23,0,0,1,296.79,353.9Zm8.7,7.3h0c-.2-2.9,1.8-4.2,2.5-7,.7-3.1.2-5,1-8.1.7-2.6,2-3.9,2.5-6.5a14.07,14.07,0,0,0,.3-2.8,14.07,14.07,0,0,1-.3,2.8c-.5,2.7-1.8,3.9-2.5,6.5-.8,3.1-.3,5-1,8.1C307.29,357,305.29,358.3,305.49,361.2Zm8-67.5a3.9,3.9,0,0,0,.4-2.3,3.78,3.78,0,0,1-.4,2.3c-1.2,2.6-4.7-.1-7,1.5a.1.1,0,0,0-.1.1.1.1,0,0,0,.1-.1C308.79,293.6,312.39,296.3,313.49,293.7Zm-9,3.4a2.18,2.18,0,0,1,.4-.5C304.79,296.8,304.59,296.9,304.49,297.1Zm-9.4,71.6c-.1,0-.1.1-.1.2-.2.1-.3.3-.6.4a2.38,2.38,0,0,1-1.4.3,3.93,3.93,0,0,0,1.4-.3A4.35,4.35,0,0,0,295.09,368.7Zm-2.8-32.9a2,2,0,0,1,.8.1A2,2,0,0,0,292.29,335.8Zm.5,33.7a11.09,11.09,0,0,1-2.2-.7,5.55,5.55,0,0,0-2.2-.6c-2-.2-3.2-.7-5,0-.1,0-.1.1-.2.1.1,0,.1-.1.2-.1,1.9-.7,3.1-.2,5,0C290.09,368.3,291.39,369.4,292.79,369.5Zm-10.8-.6a12.88,12.88,0,0,0-1.6,1.7A12.88,12.88,0,0,1,282,368.9Zm-14.8,19.9c.9-2.7,1.7-4.2,2-7h0c-.3,2.8-1.1,4.3-2,7-1.2,3.6-1,6.3-3.5,9.1-1.3,1.4-2.8,1.5-4,3a7,7,0,0,0-1.4,4.7,7,7,0,0,1,1.4-4.7c1.2-1.5,2.7-1.6,4-3C266.29,395.1,266.09,392.4,267.19,388.8Zm.3,51.6a7.27,7.27,0,0,1,.9-.8,9,9,0,0,0-1,.9A.1.1,0,0,0,267.49,440.4Zm1.9-1.7-.3.3Zm112.1-181.2a9.66,9.66,0,0,1-.1,2.4,19.27,19.27,0,0,0,.1-2.4ZM381,262v0Zm0,2.1Zm92,354.2c-.1-1.9,1.2-2.7,1.5-4.5a13.68,13.68,0,0,0,.2-2.8,9,9,0,0,1-.2,2.8c-.3,1.8-1.6,2.6-1.5,4.5Zm-.4-17c1.8.3,3.5,1.4,4.4-.1a1.47,1.47,0,0,0,.2-1.1,1.13,1.13,0,0,1-.2,1.1c-.9,1.5-2.6.4-4.4.1Zm-34.7-79.8c-.1,2.6-2.4,4.6-2.1,7C435.49,526.1,437.79,524,437.89,521.5Zm-1.9-6.4v0Zm0-249a.37.37,0,0,0,.1.3A.37.37,0,0,0,436,266.1Zm5.2,6.9c0,.4-.1.8-.1,1.2A4.87,4.87,0,0,1,441.19,273Zm-3.4-13.5a10.55,10.55,0,0,1-.6,2.4A9.38,9.38,0,0,0,437.79,259.5ZM436,265Zm.5-1.5c0-.1,0-.1.1-.2A.35.35,0,0,1,436.49,263.5Zm-.9,247.9c0,.1.1.3.1.4a4.18,4.18,0,0,0-.4-1A.86.86,0,0,1,435.59,511.4Zm.3,1.9a2,2,0,0,0-.1-.8A2,2,0,0,1,435.89,513.3ZM465,553.9c0,.6-.1,1.2-.1,1.8a10.87,10.87,0,0,1,.1-1.8c.1-1.6,1.5-2.6,1.7-3.8C466.49,551.3,465.09,552.4,465,553.9Zm13.1,24.7c-.5,3.7-.4,5.9-1,9.6-.4,2.5-1.7,4.2-2.1,6.3.3-2.1,1.6-3.8,2.1-6.3.6-3.8.5-6,1-9.6.3-2.1,1.2-3.6,1.3-5.2C479.29,575,478.29,576.5,478.09,578.6ZM484,277.4h0c-.1.1-.2.1-.4.2l.4-.2Zm-.4.2Zm-4.6-3.4a8.8,8.8,0,0,1,1.5.5A4.42,4.42,0,0,0,479,274.2Zm2.1.7c.6.3,1.3.6,2,.9A19.47,19.47,0,0,1,481.09,274.9Zm-5.1-.8a6,6,0,0,1,2.3-.1A6.1,6.1,0,0,0,476,274.1Zm-33.2,270.7v-2.7a24.3,24.3,0,0,1,0,2.7Zm-1.7-296.1c1.1-1.2,2.6-2,3.1-3.2C443.69,246.7,442.19,247.4,441.09,248.7Zm-5-14.4a4.68,4.68,0,0,0,.2,1.6A4.68,4.68,0,0,1,436.09,234.3Zm0-7.6a5.2,5.2,0,0,1,.7,2.5A7.17,7.17,0,0,0,436.09,226.7Zm-65.7,231.1c0-1.3,0-2.3.1-3.3-.1,1-.1,2-.1,3.3Zm-40.6,88.4h0a6.6,6.6,0,0,0-.1-1.4h0C329.69,545.2,329.79,545.7,329.79,546.2Zm-.1,1.1Zm7.8,184.2a4.48,4.48,0,0,0-.1,1.1A4.1,4.1,0,0,1,337.49,731.5Zm28-66.1c.2,2.2,1.8,4.1,1.8,6.7a26.17,26.17,0,0,1-.2,4.1,24.87,24.87,0,0,0,.2-4C367.29,669.5,365.69,667.6,365.49,665.4Zm5.8-9.1c.2-1.7-.4-3.2-.4-5.2-.2-6.1-.9-9.5-1.5-15.6l-.7.5.7-.5c.6,6.1,1.3,9.5,1.5,15.6C371,653.1,371.49,654.6,371.29,656.3Zm-6-17.8c-1-2.2-1.7-3.3-2.5-5.5-1-2.5-2-3.9-2-6.5v-.1c0,2.7,1.1,4.1,2,6.5.9,2.2,1.6,3.3,2.5,5.6l.3-.2Zm.2-29.2a18.25,18.25,0,0,0-.1-4c0-.2-.1-.4-.1-.6,0,.2.1.3.1.5A19.16,19.16,0,0,1,365.49,609.3Zm4.9-158.1h0a7.49,7.49,0,0,1,.2-2.1A7.49,7.49,0,0,0,370.39,451.2Zm47.8,180.7v-2c.1-2.2.3-3.4.5-5.5.3-3.9,0-6.2.5-10.1.6-4.2.5-6.8,2.5-10.6,1.5-2.7,2.5-4.4,5-6,2.1-1.3,3.7-1.2,6-2,3.9-1.4,6-2.4,10.1-3.5a29.2,29.2,0,0,1,6.5-1.5c4.3-.4,6.9.2,11.1,1.5,2.9.9,4.6,1.3,7,3s3.1,3.4,5,5.5h0c-2-2.1-2.7-3.8-5-5.5s-4.2-2.1-7-3c-4.2-1.3-6.7-1.9-11.1-1.5a29.2,29.2,0,0,0-6.5,1.5c-4,1.1-6.1,2.2-10.1,3.5-2.4.8-4,.7-6,2-2.6,1.7-3.6,3.3-5,6-2,3.7-1.9,6.4-2.5,10.6-.5,3.9-.2,6.1-.5,10.1-.2,2.2-.4,3.4-.5,5.5Zm59.9-5.6c.3,1.3-.8,2.3-1.1,3.4.3-1.1,1.4-2,1.1-3.4Zm30.2,15.1h0c-.1-1.4.1-2.6.1-3.8C508.39,638.8,508.19,640,508.29,641.4Zm0,1.9c0,1.1-.1,2.2-.1,3.3C508.19,645.4,508.29,644.4,508.29,643.3Zm0,10.3a13.33,13.33,0,0,1,0-2Zm29.1,37.6c0-.5.1-.9.1-1.4A6.15,6.15,0,0,1,537.39,691.2Zm-12.5-12.1c.4-2.9,2.1-4.2,2.5-7a15,15,0,0,0,.2-2,15,15,0,0,1-.2,2c-.4,2.9-2.1,4.2-2.5,7a20.27,20.27,0,0,0-.4,3.1A20.27,20.27,0,0,1,524.89,679.1Zm1.5,15.2c0-1.4.1-2.5.1-3.6,0,1.1-.1,2.2-.1,3.6Zm-25.2,52.8-2.3,2.3,2.3-2.3Zm-12.1-476.5c1.1-.9,2.2-.4,3.5-1,1.9-.9,2-2.9,4-3.5,2.3-.7,3.8.2,6,1a24.65,24.65,0,0,1,4.5,2.5h0c1.6.9,2.2,2.1,4,2.5s2.8-.2,4.5-.5c2.2-.4,3.3-1.4,5.5-1.5,2.6-.2,4,1.5,6.5,1a9.29,9.29,0,0,0,6-4c1.2-1.5,1.2-2.8,2-4.5l.6-1.5a3.55,3.55,0,0,1-.4.9l-.3.6c-.8,1.8-.9,3-2,4.5a8.83,8.83,0,0,1-6,4c-2.5.5-4-1.2-6.5-1-2.2.2-3.3,1.1-5.5,1.5-1.7.3-2.8.9-4.5.5s-2.4-1.6-4-2.5a24.65,24.65,0,0,0-4.5-2.5c-2.2-.8-3.8-1.7-6-1-2,.6-2.2,2.6-4,3.5-1.1.6-2.3.1-3.4,1-1.4,1.2-.4,3.1-1.5,4.5a4.84,4.84,0,0,1-1.6,1.3,4.84,4.84,0,0,0,1.6-1.3C488.79,273.7,487.69,271.8,489.09,270.6Zm19.7,385.1a.75.75,0,0,1-.1-.5A.9.9,0,0,1,508.79,655.7Zm-23.2-379.1c.1,0,.1-.1.2-.1C485.69,276.6,485.69,276.6,485.59,276.6Zm-2.3-.6h0c-.4-.8-.7-1.4-1-2.1A20.92,20.92,0,0,1,483.29,276ZM475,214.2c-.8,2-2,2.9-2,5a4,4,0,0,0,1,2.5,4.3,4.3,0,0,1-1-2.5C473,217.2,474.29,216.2,475,214.2Zm-8.6,15.5c-.6,1-.5,2.5-.9,3.9C465.89,232.1,465.79,230.7,466.39,229.7Zm-1.2,5c-1.4,4.4-2.7,7.7-1.2,12.2.8,2.6,1.2,4.6,3.5,6,1.7,1.1,3.5-.2,5,1,1.8,1.4,1.2,3.4,2,5.5a44.58,44.58,0,0,0,2,5.5c1.2,2.4,2.6,3.3,4,5.5.1.1.1.2.2.3-.1-.1-.1-.2-.2-.3-1.4-2.3-2.8-3.2-4-5.5-1.1-2-1.2-3.4-2-5.5s-.2-4.1-2-5.5c-1.6-1.2-3.3,0-5-1-2.3-1.4-2.7-3.4-3.5-6C462.49,242.4,463.79,239.1,465.19,234.7Zm-8.3,48a3.18,3.18,0,0,1,1-1c2.4-1.4,4.4.4,7-.5,2.9-1,3.9-2.9,6.5-4.5l.2-.2-.2.2c-2.7,1.6-3.6,3.6-6.5,4.5-2.6.9-4.7-.9-7,.5a3.18,3.18,0,0,0-1,1c-.5.8-.8,1.7-1.3,2.4C456.09,284.4,456.39,283.5,456.89,282.7Zm-12.6-38.5c-.4-1.8-2.4-1.9-3.8-3.2C441.79,242.3,443.79,242.5,444.29,244.2Zm-12.5-55.1c1.3-2.5,3.3-2.8,5.5-4.5,1.5-1.2,3.3-1.2,4-3a2.6,2.6,0,0,0,.2-1.7,2.53,2.53,0,0,1-.2,1.7c-.7,1.8-2.5,1.8-4,3-2.2,1.7-4.2,2-5.5,4.5a8.53,8.53,0,0,0-1.3,4.1A7.1,7.1,0,0,1,431.79,189.1Zm-1.5,11.5c1.5-.8,3.3-.8,3.5-2.5h0c-.3,1.7-2.1,1.8-3.5,2.5-2.5,1.4-5.1-.1-7,2a5,5,0,0,0-1,1.9,4.39,4.39,0,0,1,1-1.9C425.09,200.5,427.69,202,430.29,200.6Zm-8.1,4.3a6,6,0,0,0,0,1.9A4.06,4.06,0,0,1,422.19,204.9Zm.9,6.5c-.2-1.3-.6-2.6-.8-3.7,0-.2,0-.3-.1-.4A41.77,41.77,0,0,1,423.09,211.4Zm-47.7,31.5c1.2-.7,2.1-.5,3.5-.5,2.6,0,4,1.1,6.5,1.5,2,.3,3.1.1,5,.5a14,14,0,0,1,3.5,1c2.3,1,2.5,3.9,5,4,3.2.1,2.6-4.7,5.5-6,1.5-.7,2.5-.5,4-1,2.8-.9,4.2-2,7-3,1.7-.6,2.9-.6,4.5-1.5,2.1-1.1,2.9-2.3,4.5-4a62.55,62.55,0,0,0,4-5v-.5l.5-1-.5,1.5c-1.6,2-2.3,3.2-4,5s-2.5,2.9-4.5,4c-1.6.9-2.8.9-4.5,1.5-2.8,1-4.2,2.1-7,3-1.6.5-2.6.3-4,1-2.9,1.4-2.3,6.1-5.5,6-2.5-.1-2.7-3-5-4a14,14,0,0,0-3.5-1c-1.9-.4-3.1-.2-5-.5-2.6-.4-3.9-1.5-6.5-1.5-1.3,0-2.3-.2-3.5.5a2,2,0,0,0-.8.8A2,2,0,0,1,375.39,242.9Zm-25.6,46.8c2.9,1.2,4.4,2.4,7.5,3s5.1,1,8,0c3.3-1.1,4.3-3.4,7-5.5,3.5-2.8,5.7-4.1,9.1-7,2.2-1.9,3.7-2.7,5.5-5s4.8-4.4,4.4-6.9c.4,2.5-2.5,4.5-4.4,6.9s-3.3,3.1-5.5,5c-3.4,2.9-5.5,4.3-9.1,7-2.8,2.2-3.7,4.4-7,5.5-3,1-5,.6-8,0s-4.6-1.8-7.5-3c-2.4-1-4.4-.5-6-2.5-1.3-1.6-.8-3.1-1.5-5-1.1-3-.3-6.9-3.5-7.5-2.3-.5-3.4,1.5-5.5,2.5l-11.1,1c-3.7-.4-6.2-2.7-9.6-1a7.35,7.35,0,0,0-3,2.5c-1.4,1.8-2.8,3.7-2.7,5.7-.1-1.9,1.3-3.9,2.7-5.7a8.93,8.93,0,0,1,3-2.5c3.3-1.7,5.8.6,9.6,1l11.1-1c2.2-1,3.2-3,5.5-2.5,3.2.6,2.4,4.5,3.5,7.5h0c.7,1.9.2,3.4,1.5,5,1.5,2,3.6,1.5,6,2.5l-1-1.5v0Zm-9.6-37.2c.6-3.2-3.1-4.1-4.5-7-.4-.8-.8-1.5-1.1-2.1.3.6.7,1.3,1.1,2.1,1.4,2.9,5.1,3.8,4.5,7Zm-7.1-13.1h0a6.55,6.55,0,0,1-.1-2.4A20.08,20.08,0,0,0,333.09,239.4Zm1,3c0-.1-.1-.1-.1-.2s0-.1-.1-.2C334,242.1,334,242.2,334.09,242.4Zm9.6,26.2c1.4,2.3,1.4,3.9,2,6.5s.4,4.4,1,7c0,.1.1.2.1.3,0-.1-.1-.2-.1-.3-.7-2.7-.4-4.3-1-7s-.6-4.3-2-6.5c-1.9-3-5.3-2.5-7-5.5a10.17,10.17,0,0,1-1.6-4,9.62,9.62,0,0,0,1.6,4C338.39,266.1,341.89,265.6,343.69,268.6Zm-30.2-56.9c2.8,1.4,4.9,0,8.1,0,3.7,0,5.9.6,9.6,0,2.4-.4,3.8-2.4,6-1.5a5,5,0,0,1,2.5,2,3.45,3.45,0,0,1,.7,2.3,3.1,3.1,0,0,0-.7-2.3,4.52,4.52,0,0,0-2.5-2c-2.3-.9-3.6,1.2-6,1.5-3.7.6-5.8,0-9.6,0-3.2,0-5.3,1.5-8.1,0a9.13,9.13,0,0,1-3-2.5v0A10.27,10.27,0,0,0,313.49,211.7Zm-14.1-12.1c3,.4,5.1-.3,7.5,1.5a5.15,5.15,0,0,1,1.3,1.7,4,4,0,0,0-1.3-1.6c-2.3-1.8-4.5-1.2-7.5-1.6-5.3-.7-8.4,1.2-13.6,0-2.8-.6-4.9-.5-7-2.5-2.6-2.5-2.1-5.4-2.5-9.1a14.08,14.08,0,0,1-.1-2,14.08,14.08,0,0,0,.1,2c.4,3.6-.1,6.5,2.5,9.1,2.1,2,4.2,1.9,7,2.5C291,200.8,294.19,199,299.39,199.6Zm10.1,7.7a3.09,3.09,0,0,1-.2-.8A1.88,1.88,0,0,0,309.49,207.3Zm-.6-2.4c-.1-.5-.2-.9-.3-1.3C308.69,204,308.79,204.4,308.89,204.9Zm-44.2,131.6c-1.7-2.1-2.1-3.7-3.5-6C262.59,332.8,263,334.4,264.69,336.5ZM232,305.3Zm-64.9,45.8c1.4,1.4,2.5,1.9,3.5,3.5a8.53,8.53,0,0,1,1.6,3.7c-.1-1.3-.9-2.3-1.6-3.6-1-1.7-2.1-2.2-3.5-3.6Zm21.6,21.7c-1.4,2-3.1,3.6-5.5,3s-1.4-4.1-3.5-5.5-3.6-1.1-6-1.5c-1.7-.3-3.2.7-4.5-.5a3.25,3.25,0,0,1-1-2.4,3,3,0,0,0,1,2.3c1.3,1.2,2.8.2,4.5.5,2.4.4,4.1.1,6,1.5,2.1,1.5,1,4.9,3.5,5.5s4.1-1,5.5-2.9a4.49,4.49,0,0,0,.7-1.8A2.74,2.74,0,0,1,188.69,372.8ZM234,315.9c-.8,2.9-.7,4.7-1.5,7.5-.9,3-1.2,5-3,7.5-1.6,2.1-3.1,2.7-5,4.5-1.6,1.5-2.1,2.9-4,4-2.1,1.2-3.7.7-6,1.5s-3.3,1.7-5.5,2.5-3.9.7-6,2-2.8,3-4.5,5a62.55,62.55,0,0,0-4.5,6c-2,3.2-3.6,4.9-4.5,8.6a4.58,4.58,0,0,0-.1,2,7.58,7.58,0,0,1,.1-2.1c.9-3.7,2.5-5.4,4.5-8.6a55.2,55.2,0,0,1,4.5-6c1.7-2,2.3-3.6,4.5-5s3.7-1.1,6-2,3.3-1.7,5.5-2.5,3.9-.3,6-1.5c1.9-1.1,2.4-2.5,4-4,1.9-1.8,3.5-2.4,5-4.5,1.9-2.6,2.1-4.5,3-7.5.9-2.8.7-4.5,1.5-7.4.5-1.8,1.5-2.7,1.5-4.5h0C235.59,313.2,234.49,314.1,234,315.9Zm12-1a11.54,11.54,0,0,0-.9-2.6,14.81,14.81,0,0,0-2.5-3.5,14,14,0,0,1,2.5,3.5,11.54,11.54,0,0,1,.9,2.6,7.66,7.66,0,0,0,1.1,2.5A6.19,6.19,0,0,1,246,314.9Zm21.3,125.8a.9.9,0,0,0-.1,1h0A1.64,1.64,0,0,1,267.29,440.7Zm54.3,38.2c-.7-2.1-.2-3.5-1-5.5-1.1-2.7-2.7-3.7-4.4-5.9h0c1.7,2.2,3.4,3.2,4.4,5.9.8,2,.3,3.4,1,5.5,1,3,3,4,4,7,.8,2.5.7,4,1,6.5a64.07,64.07,0,0,1,.6,7,64.07,64.07,0,0,0-.6-7c-.3-2.6-.2-4.1-1-6.5C324.59,482.9,322.59,481.9,321.59,478.9Zm1,51.3h0c.1,3,2.6,3.9,4,6.5,1,1.9,1.9,2.9,2.5,5a22.5,22.5,0,0,1,.5,2.2h0a22.5,22.5,0,0,0-.5-2.2c-.6-2.1-1.5-3.1-2.5-5C325.19,534.2,322.59,533.2,322.59,530.2Zm19.1,246.1c-1.2-6.4-1.6-10.1-2.5-16.6s-2-10.1-2-16.6c0-3.1-.2-5.6-.1-8.1-.1,2.4.1,4.8.1,7.8v.2c.1,6.5,1.1,10.1,2,16.6s1.3,10.2,2.5,16.7c1,5.7,2.2,8.8,3,14.5.7,4.9.2,7.7,1,12.6,1.1,6.2,3.6,9.3,4.5,15.6.6,4.1.1,6.5.5,10.6.2,2.5,1.9,4.6,1.8,6.6.1-2-1.6-4.1-1.8-6.6a50.61,50.61,0,0,1-.2-5.3,34.5,34.5,0,0,0-.3-5.3c-.9-6.3-3.5-9.3-4.5-15.6-.8-4.9-.3-7.7-1-12.6C343.89,785.2,342.69,782.1,341.69,776.3Zm3.6,78.8c0,.2-.1.4-.1.6A1.76,1.76,0,0,1,345.29,855.1Zm1.1-10.5c-.1,1.6.1,3.3-.1,5.2h0C346.39,847.9,346.19,846.1,346.39,844.6Zm-.2,16.3a.37.37,0,0,1-.1-.3.44.44,0,0,1,.1.3c1.2,2,2.9,2.2,4.5,4,3.3,3.6,7.7,5.8,6.5,10.6h0c1.1-4.7-3.3-7-6.6-10.5C349.09,863.2,347.49,862.9,346.19,860.9Zm-1-2.9c0,.2.1.4.1.6C345.29,858.4,345.19,858.2,345.19,858Zm28.7,105c-1.7-1.4-.5-3.6-1.5-5.5-1.3-2.6-3.8-2.9-5-5.5-1.1-2.3.2-4.3-1-6.5s-3.6-2.3-5-4.5c-2.1-3.3-.1-6.3-1.5-10.1-.8-2.1-1.6-3-2.5-5a27.92,27.92,0,0,1-2-5.5c-.4-1.7-.2-2.8-.5-4.5-.7-3.9-2.8-5.7-3-9.6-.1-2.4.4-3.7.5-6,.3-5.5-1.8-9.6-1.4-14.1-.4,4.4,1.7,8.6,1.4,14-.1,2.4-.7,3.7-.5,6,.2,3.9,2.3,5.7,3,9.6.3,1.7.1,2.8.5,4.5a27.92,27.92,0,0,0,2,5.5c.9,2,1.8,3,2.5,5,1.4,3.7-.6,6.7,1.5,10.1,1.4,2.2,3.8,2.2,5,4.5s-.1,4.2,1,6.5c1.2,2.7,3.7,2.9,5,5.5,1,2-.2,4.1,1.5,5.6.2.1.3.1.5.2a.37.37,0,0,1-.3-.1C374,963.1,374,963.1,373.89,963Zm1.1,3.9a2.07,2.07,0,0,0-.6,1A2.07,2.07,0,0,1,375,966.9Zm4.6-2.7a1.08,1.08,0,0,0-.2-.7,1.38,1.38,0,0,0-.3-.4c-.6-.5-1.5-.2-2.4,0a5.24,5.24,0,0,1-1.7.2c1.6.1,3.6-1.4,4.5.1A2.49,2.49,0,0,1,379.59,964.2Zm-.1.2c0,.1-.1.1-.1.2A.35.35,0,0,0,379.49,964.4Zm-5.1,3.6h0c-.1,3.3,6.3.9,7.6,4a3.66,3.66,0,0,1,.2,2.5,4.53,4.53,0,0,0-.3-2.5C380.69,969,374.29,971.4,374.39,968Zm10.1,32.7a8.73,8.73,0,0,1,.5,5.5h0a10.39,10.39,0,0,0-.5-5.5c-.6-1.9-3.3-2.6-2.5-4.5h0C381.29,998.1,383.89,998.8,384.49,1000.7Zm1,17.2c-.6-2.9-3.5-4.1-3-7h0c-.5,2.8,2.4,4,3,7,.6,2.8,1.1,5.1.5,7.5C386.59,1023,386.09,1020.7,385.49,1017.9Zm.5-23.7h0c.5-1.6-1.4-2.4-2-4a22.13,22.13,0,0,1-1.5-5c-.6-3.1-.4-4.9-.5-8a6.15,6.15,0,0,1,.1-1.4,6.15,6.15,0,0,0-.1,1.4c.1,3.2-.1,5,.5,8a22.13,22.13,0,0,0,1.5,5C384.59,991.8,386.49,992.5,386,994.2Zm-5.9,36.8Zm-.6.9a1.91,1.91,0,0,0-.5,1,.6.6,0,0,1,.1-.4C379.09,1032.2,379.29,1032.1,379.49,1031.9Zm4,13.1c-2.1-1.6-1.1-4-2-6.5-.9-2.2-2.8-3.2-2.5-5.5h0c-.3,2.3,1.7,3.3,2.5,5.5.9,2.4-.1,4.8,2,6.5,2,1.5,4.9-1.5,6.5.5a1.75,1.75,0,0,1,.4,1.5,2.3,2.3,0,0,0-.4-1.4C388.29,1043.6,385.49,1046.6,383.49,1045Zm21,12.9a4.29,4.29,0,0,0-.4-3.3,5.63,5.63,0,0,0-3.5-2.5c-1.5-.5-2.5.1-4,0-2.6-.1-4.9,1.4-6.5-.5a1.75,1.75,0,0,1-.4-1.5,2.3,2.3,0,0,0,.4,1.4c1.7,1.9,4,.4,6.5.5,1.6.1,2.5-.5,4,0a5.63,5.63,0,0,1,3.5,2.5A3.81,3.81,0,0,1,404.49,1057.9Zm9.7-426c-2-1.3-3.7-1-6-1a11.48,11.48,0,0,0-5.5,1c-2.4,1.1-3.2,2.6-5,4.5-1,1.1-1,2.6-2.5,3-1.8.4-2.4-1.7-4-2.5-2.4-1.3-4-1.5-6.5-2.5-2.8-1.1-4.1-2.9-7-3a10.54,10.54,0,0,0-6,1.5,9.56,9.56,0,0,0-2.8,2.4c-.5.6-1.1,1.3-1.7,2.1h-.1c.7-.7,1.2-1.5,1.8-2.1a8.43,8.43,0,0,1,2.8-2.4,9.81,9.81,0,0,1,6-1.5c3,.1,4.3,1.9,7,3,2.5,1,4.1,1.3,6.5,2.5,1.6.9,2.2,3,4,2.5,1.5-.4,1.5-1.9,2.5-3,1.8-1.9,2.6-3.4,5-4.5a11.48,11.48,0,0,1,5.5-1c2.3-.1,4-.4,6,1,1.3.8,1.5,1.8,2.5,3h0C415.69,633.7,415.39,632.7,414.19,631.9Zm50.3,36.7c-2.1-.6-3.6.1-5.5-1-2.3-1.3-2.2-3.6-4-5.5-2.9-3-5.7-3.5-9.1-6-2-1.5-2.9-2.6-5-4-5.7-3.8-13.8.2-16.6-6-.6-1.3-.3-2.3-1-3.5-.9-1.7-2.3-2-3.5-3.5a27.89,27.89,0,0,1-2.8-4.2h0a34.05,34.05,0,0,0,2.8,4.2c1.2,1.5,2.6,1.8,3.5,3.5.7,1.3.4,2.2,1,3.5,2.8,6.3,10.9,2.2,16.6,6,2.1,1.4,3,2.5,5,4,3.4,2.5,6.1,3,9.1,6,1.9,1.9,1.7,4.2,4,5.5,1.8,1.1,3.4.4,5.5,1,3.7,1,5.6,2.3,9.1,4,2.6,1.3,3.8,2.6,6.5,3.5,1.7.6,3,0,4.5,1a5.16,5.16,0,0,1,2.5,5h0a5.16,5.16,0,0,0-2.5-5c-1.5-1-2.8-.4-4.5-1-2.8-.9-3.9-2.2-6.5-3.5C470.09,670.9,468.19,669.6,464.49,668.6Zm13.6,41.3c-.1-.7-.2-1.3-.3-2a7.47,7.47,0,0,0,.3,2c.4,1.9,1.2,2.7,2,4.5h0C479.29,712.6,478.39,711.8,478.09,709.9Zm10.5,2c-2.2,0-3.4.4-5.5.5h0c2.2-.1,3.4-.5,5.5-.5a46.49,46.49,0,0,1,7.5.5c2.2.2,3.4.4,5.5.5,3.1.1,5.1.6,8-.5a20.65,20.65,0,0,0,4-2.5c2.2-1.4,3.5-2,5.5-3.5,2.8-2.1,5.2-2.8,6.5-6a8.35,8.35,0,0,0,.6-2.9,7,7,0,0,1-.6,3c-1.3,3.2-3.8,4-6.5,6a63.73,63.73,0,0,1-5.5,3.5,24.18,24.18,0,0,1-4,2.5c-2.9,1.2-4.9.6-8,.5-2.2-.1-3.4-.3-5.5-.5A46.47,46.47,0,0,0,488.59,711.9Zm10.3,37.5-2.2,2.2h0Zm11.4,3.7c1.8.5,3.1.6,4.5,2C513.39,753.8,512.19,753.6,510.29,753.1Zm5.8,4.7a8.8,8.8,0,0,0-.5-1.5A4.42,4.42,0,0,1,516.09,757.8Zm17.8,12.4c1.5.8,2.5,1.1,4,2C536.39,771.3,535.49,771.1,533.89,770.2Z"/><path class="amazon-3" d="M500.19,1110.9h0c-1.6-.6-1.9-2.1-3.5-2.5-1.3-.4-2.2.1-3.5,0-2.8-.2-4.4-1-7-2a38.75,38.75,0,0,1-5.5-2.5,41.35,41.35,0,0,1-5-3,33.42,33.42,0,0,1-4-3.5c-1.4-1.3-1.9-2.5-3.5-3.5-1.8-1.1-3.8.2-5-1.5s.9-3.3,0-5c-1-1.9-2.5-2.5-4.5-3-1.5-.4-2.5.1-3.9.4l1.8.2c1.6,2.2,2.8,3.1,4,5.5a30.2,30.2,0,0,1,2,6c.7,2.1.7,3.4,1.5,5.5,1,2.7,1.6,4.4,3.5,6.5s3.4,2.5,5.5,4l3.3,1.1a7.59,7.59,0,0,1,1.8-.6c3.3-.7,5.3,0,8.6,1,1.8.6,2.7,1.4,4.5,2,3.2,1,5.2,1.6,8.6,1,2.5-.4,5.1-.2,6-2.5.5-1.3.7-2.4,0-3.5C504.59,1109.1,502.19,1111.6,500.19,1110.9Z"/><path class="amazon-3" d="M456.39,938.3c.7,1.4,2,1.5,3.5,2,1.7.6,3.1,1.6,4.5.5a3.09,3.09,0,0,0,1-3.5c-.4-1.4-2-1.2-2.5-2.5-.6-1.5,1.7-3,.5-4-.7-.7-1.5-.4-2.5-.5-1.8-.2-3.4-.9-4.5.5-1,1.2,0,2.4,0,4C456.39,936.2,455.79,937.1,456.39,938.3Z"/><path class="amazon-2" d="M420.69,126.2c1.4.2,2.3-2.9,1-3.5a1.91,1.91,0,0,0-2.5,1A2,2,0,0,0,420.69,126.2Z"/><path class="amazon-2" d="M427.19,86.9a3.07,3.07,0,0,0,3,3s1.1,1.3,2-1.5c.6-1.7,1.7-3.7,0-4.5a3.19,3.19,0,0,0-3,0A3.28,3.28,0,0,0,427.19,86.9Z"/><path class="amazon-2" d="M422.19,66.8c1.7.3,3.3,0,4-1.5a2.74,2.74,0,0,0-.5-3.5c-1-.9-2.3-.6-3.5,0-1.5.8-3.1,2.6-2,4A2.46,2.46,0,0,0,422.19,66.8Z"/><path class="amazon-2" d="M26.69,304.3c-1.5-1.8-2.8-3.5-5-3a3.7,3.7,0,0,0-3,2.5c-.5,1.5.3,2.5,1,4,.6,1.3,2.1,1.6,2,3s-1.9,1.6-2.5,3c-.7,1.6-1.3,2.9-.5,4.5a3.9,3.9,0,0,0,2,2c1.6.8,2.9.3,4.5-.5a6.25,6.25,0,0,0,3-3c1.2-2.2.8-4,.5-6.5S28.29,306.2,26.69,304.3Z"/><path class="amazon-2" d="M33.79,313.4c-.8,1.2-.1,2.6,1,3.5,1.2,1.1,3,1.7,4,.5s.3-3-1-4S34.59,312.1,33.79,313.4Z"/><path class="amazon-2" d="M46.89,314.4c-1.2,1-2,3.6-.5,4a2.45,2.45,0,0,0,2-.5c1.5-.8,3.4-2.1,2.5-3.5S48,313.3,46.89,314.4Z"/><path class="amazon-3" d="M345.19,949.9c2-1.2.4-3.7.5-6,.1-1.8.4-2.8,0-4.5s-1.4-2.4-2-4c-.7-1.9,0-3.3-1-5a5.85,5.85,0,0,0-3-3,3.92,3.92,0,0,0-3.5,0,3.84,3.84,0,0,0-2.5,3c-.4,1.6.5,2.5,1,4,.6,1.7,1.7,2.3,2,4,.4,1.9-.4,3-.5,5-.1,2.2-1.6,4.1,0,5.5,1.3,1.2,2.8.3,4.5.5S343.69,950.8,345.19,949.9Z"/><path class="amazon-3" d="M360.79,967a2.82,2.82,0,0,0-2.5-1.5c-1.2-.2-1.8.6-3,1,0,0,2.4.7,1.5,2.8s2.5,1.3,2.5,1.3v.5C359.39,972.7,361.59,968.5,360.79,967Z"/><path class="amazon-3" d="M349.19,969.5c-1.7.6-2.2,1.9-3,3.5-.7,1.4-1.5,2.5-1,4,.7,2.3,3.2,2.5,5.5,2.5s5.2-.2,5.5-2.5c.2-1.2-.4-1.9-1-3C353.89,971.4,352,968.5,349.19,969.5Z"/><path class="amazon-3" d="M353.79,998.7c2.2.2,3.9.5,5.5-1,2.3-2.1,1.5-5.6-.5-8a6.75,6.75,0,0,0-4-2.5c-1.5-.4-2.7-.8-4,0s-1,2-2,3-1.9,1.2-3,2c-2.3,1.6-7.5,2.5-5.5,4.5,1.2,1.3,2.8.5,4.5.5s2.4-.6,4-.5C350.89,996.9,351.69,998.5,353.79,998.7Z"/><path class="amazon-3" d="M356.79,1023.8c1-.8,1-1.8,1-3,0-1.7-.3-3.6-2-4-1.2-.3-1.9.6-3,1-1.6.7-4.1.3-4,2s2.1,1.3,3.5,2C354,1022.7,355.29,1025,356.79,1023.8Z"/><path class="amazon-3" d="M363.29,1028.9c-1.6-.9-2.8.3-4.5.5-2.7.3-5.6-1.9-7,.5-1.5,2.6,3.7,3.6,4,6.5.2,1.6-1.2,2.6-.5,4,.8,1.6,2.3,1.7,4,2s3.3.9,4-.5-1.9-2-2-3.5a5.51,5.51,0,0,1,1-3.5c.8-1.4,3-1.3,3-3C365.39,1030.5,364.59,1029.6,363.29,1028.9Z"/><path class="amazon-3" d="M373.89,1071.6c-.6,1.8.8,4.7,2.5,4,1.1-.4,1.2-1.4,1.5-2.5.4-1.3,1-2.6,0-3.5C376.59,1068.4,374.39,1070,373.89,1071.6Z"/><path class="amazon-3" d="M400.09,1087.7a19.31,19.31,0,0,0-4-1.5c-1.9-.6-3-1.1-5-1-1.6.1-3.8-.6-4,1-.2,1.1.8,1.6,1.5,2.5a8.43,8.43,0,0,0,5,3.5c2.3.6,3.7-.3,6-.5,2-.2,4.2,1.3,5-.5C405.49,1089.2,402,1088.8,400.09,1087.7Z"/><path class="amazon-3" d="M412.69,1100.3c-1.1-.9-.9-2.1-2-3-1.4-1.2-2.9-2.5-4.5-1.5-1.8,1.1-1,4,.5,5.5,1.3,1.3,3.4-.4,4.5,1,.8,1.1-.4,2.5.5,3.5a3.22,3.22,0,0,0,5-.5,3.18,3.18,0,0,0,0-3.5C415.79,1100.4,413.89,1101.4,412.69,1100.3Z"/><path class="amazon-3" d="M440.79,1094.8c-.2-1.3-.3-2.6-1.5-3s-2.2.5-3,1.5a3.69,3.69,0,0,0,0,5,2.93,2.93,0,0,0,3,1C441.09,1098.8,441.09,1096.6,440.79,1094.8Z"/><path class="amazon-3" d="M495.69,1122.5a17.26,17.26,0,0,0-4.5,1c-2.1.8-5.1.7-5,3,.1,2.5,3.6,2,6,2,1.8,0,2.8-.7,4.5-1,2.1-.4,4.6,1,5.5-1a3.21,3.21,0,0,0-.5-3.5C500.39,1121,498,1122.3,495.69,1122.5Z"/><path class="amazon-3" d="M487.09,1115.9h0c-1.4-1.4-3-.9-5-1a16.8,16.8,0,0,0-4.5.5,23.68,23.68,0,0,0-6.5,1.5c-1.5.6-2,1.5-3.5,2-1.9.7-3.1.3-5,.5l2.5,4c2.4.2,3.7-.1,6,.5,2.1.5,2.9,1.7,5,2,1.4.2,2.5.9,3.5,0,1.1-1.1-1.3-2.7-.5-4,1.1-1.8,3.4.4,5.5,0,1.4-.2,2.6.1,3.5-1C489.39,1119.4,488.49,1117.3,487.09,1115.9Z"/><path class="amazon-3" d="M474,1114.4a12.25,12.25,0,0,0,2.3-.9l-3.3-1.1c-2.2-1.6-3.8-2-5.5-4a17.84,17.84,0,0,1-3.5-6.5,56.18,56.18,0,0,1-1.5-5.5,30.2,30.2,0,0,0-2-6c-1.2-2.4-2.5-3.4-4-5.5l-1.8-.2c-.4.1-.8.1-1.2.2-2,.1-3.1,0-5,0-1.2,0-1.9-.4-3,0-2.3.7-3.1,2.7-3.5,5-.3,1.7.3,2.8.5,4.5l3,1.5a22.11,22.11,0,0,1,2.5-.5c2-.3,4.4-2.4,5-.5a3.28,3.28,0,0,1-.5,2.5c-.8,1.7-2.8,1.4-3.5,3a4.05,4.05,0,0,0-.5,3c.5,2,2.7,1.7,4.5,2.5,2.1,1,6.2-.2,5.5,2-.6,1.8-2.7,1.3-4.5,1.5a9.53,9.53,0,0,1-5.5-1,20.68,20.68,0,0,0-2.5-1.5c-2-.8-3.4-.1-5.5,0-3.1.1-7-2.5-8,.5-.6,1.7-.5,3.5,1,4.5,1.3.9,2.5-.2,4,0,2.5.3,3.6,1.4,6,2a43.76,43.76,0,0,0,8,1c2.7.2,4.4-.8,7,0,1.7.5,2.3,1.8,4,2,2.3.2,3.3-1.5,5.5-2S471.69,1115,474,1114.4Z"/><path class="amazon-3" d="M549.49,1065.1c-1.4-.1-2.2.6-3.5,1s-2.6-.2-3,1,2.2,1.2,2.5,2.5c.6,2.3-5.2,2.5-4,4.5a3.24,3.24,0,0,0,4.5,1c1-.6.8-1.6,1.5-2.5,1-1.3,2-1.7,3-3,.9-1.1,2.4-1.7,2-3S550.79,1065.2,549.49,1065.1Z"/><path class="amazon-3" d="M565.09,1067.6c-2-.3-3.1-1.3-5-1a6.17,6.17,0,0,0-4,2c-1.7,1.8-3.3,4.4-1.5,6,1.2,1.1,2.5.7,4,.5,1.2-.2,2.1-.1,3-1,.7-.8.3-1.7,1-2.5,1.1-1.2,2.6-.2,4-1,1.2-.7,2.8-1.2,2.5-2.5C568.79,1066.6,566.69,1067.8,565.09,1067.6Z"/><path class="amazon-4" d="M514.79,216.8c16.1,14.11,26.26,12.66,26.26,12.66,4,6.34,2.81,8.26,11.72,15.52,1,15.17,5.94,12.21,6.83,30.63,3.51,2.77,11.65,2.08,11.65,8.92-3.56,11.16-11.15,21.65-11.15,21.65,47.63-7.13,29.83,11,16.49,20.72-2.44,2.24-2,6-2,6,3.38-.59,7.66-1.33,12.35-6.15,5.18-5.33,10.81-14.68,14.77-13.05,10.88,1.7,28,10.7,28,10.7,19.53,8.62,10.12,20.38,10.12,20.38,2.34,1.43,12.75-11.38,21.05-2.51,13.27,3.78,16.53,4.43,16.53,4.43-11.7-4.4-20.6,14.6-20.6,14.6-4,19.6-23.6,27.3-23.6,27.3.6,22.5-18.4,44.9-18.4,44.9C594.59,471.5,586,463,586,463c21.9,14.5,6.3,27,6.3,27-42.6,26.5-51.2,6.9-51.2,6.9-8.1-14.4-13.2-16.1-13.2-16.1-27.1-1.2-4,18.9-4,18.9-12.7,18.3-38-23.5-38-23.5-20.7-8.6-30.1,11.5-30.1,11.5,1.5,17.9-37.2,59.7-37.2,59.7-17.5,18.7,3.7,20.9,3.7,20.9-4.9,21.3-51.7-15.2-51.7-15.2-8.8,9-26.3-18.8-26.3-18.8-11.5-20.7-42.9-31.7-42.9-31.7-12.9-4.6-13.2,5.6-13.2,5.6-17.5,13.7-89-107.5-89-107.5-7.5-8.6-9.5-2.9-9.5-2.9-20.5-2.9,9.5-67.2,9.5-67.2,5.2-26.1,20.2-45.4,20.2-45.4,2.3-11.3,5.8-4.3,5.8-4.3,17.9,4,28.8-32.1,28.8-32.1,2.9-11.9,18.2,8.8,18.2,8.8,17.6,7.3,77.2-27.8,77.2-27.8,4.5.2,16.3-24.8,16.3-24.8,3.5-12,9.3-3.5,9.3-3.5.1-13.2,20.7-11.4,20.7-11.4,23.6-5.6,13.2,15.8,13.2,15.8,2.3-12.2,21.9-12.7,21.9-12.7,8.3-11.4-11.4-6.7-11.4-6.7-1.86-10.51,5.81-10.79,12.69-10.63a84.33,84.33,0,0,0,9.61-.37c7.33,7.05,12.4,12.15,15.92,15.91-3.28,12.38,7.63,9.07,8.24,10.48.94,2.22,12.38,15.05,16.53,15.46C496.13,215.4,514.79,216.8,514.79,216.8Z"/><path class="amazon-5" d="M572,309.8s-9.9-4.8-9.9,4c0,0-.4,7.9,9.9,3.2C572,316.9,580.19,310.2,572,309.8Z"/><path class="amazon-5" d="M471.69,285.1s-16.5-7.2-16.2,6.4c0,0,1.3,9.8,18.5,2C474,293.4,478.49,288.9,471.69,285.1Z"/><path class="amazon-5" d="M460.19,255.5s-16,10-16,0c0,0-10.3-8.8-7.6,7.9,0,0,.5,23,23.6,7.5C460.19,270.9,478.29,251.1,460.19,255.5Z"/><path class="amazon-5" d="M553.39,318.4s-10.3-4.7-15.1,4.4c0,0-17.8-5.5-29.7,8.7,0,0-32.9,28.9-42.6-2,0,0-5.9-16.7-5.8,1,0,0-6.8,26.4,13.9,27.6,0,0,26.8.7,37.2-9.2,0,0,25.9-25.7,16.4,4.4,0,0-14.7,6.9-8.3,21.7,0,0,2.4,7.6,11.1-5.3,0,0,54.7-8.1,54.7-22.4,0,0-3.6-18.6-20.2-2.8,0,0-38.1,22.1-23-.8C541.89,343.9,568.09,326.3,553.39,318.4Z"/><path class="amazon-5" d="M599.19,399.9c-9.1-6.2-2.2-14.3-2.2-14.3,17.2-25.9,0-13,0-13s-29.3,31.1-37.3,14.1c0,0-18.6-4.4,0,11.9,0,0,13.9,13.8,28.9,7.1,0,0,17,0-3.6,25,0,0-22.1,21.7-16.2,36.8,0,0,17.3,35.3-11.9,24.2a5.69,5.69,0,0,1-3.3-1.4c-2.3-3.2-3.9-8.4-4.4-15.8a85.62,85.62,0,0,1,2.2-14.2s5.9-19.8-6.4-19.8c0,0-8.3-17.8-8.5-36.8s-12.5-4.4-12.5-4.4-9.5,7.1,5.2,28.1c0,0,12.3,21.5-7.1,12.2,0,0-38.1-19.5-50.3-2,0,0-13.2,22.4,3,34.2l-2.8,2.3a18.69,18.69,0,0,1,6.3-.2h0a48.82,48.82,0,0,0,5.5,1.3,14.58,14.58,0,0,1,1.9.7s25.3,41.8,38,23.5c0,0-23-20.1,4-18.9,0,0,5.2,1.7,13.2,16.1,0,0,7.7,17.4,44.4-2.9,12.3-7.8-3.2-24-3.2-24-8.6-9.8,1.2-12.1,1.2-12.1,12.8,0,10.1-19.2,10.1-19.2,0-9.4,9.4-16.5,9.4-16.5C615,408.3,599.19,399.9,599.19,399.9Z"/><path class="amazon-5" d="M460.19,474.1s-26-16.6-17.3-34.1c0,0,5.2-14.1-17.6-1.4,0,0-3.2-17.1-19.5-7.9,0,0-1.1,21.7-20.3,13.5,0,0-11.7-3.9-17.8,0,0,0,9.5-13.9-2.2-13.9,0,0-8.8-3.1-13.1,11.2,0,0-2.1,7.1-7.5-4,0,0-11.7-10.5-11.7-.9,0,0-1.1,13.4,8.5,17.6,0,0,12.1,7.5-3.2,8.5,0,0-18.1-1.4-11.4,4.6,0,0,5.3,9.9,22.4,1.7,0,0,39.4-31.7,39.4-11.4,0,0-5.3,9.2,5.7,7.6,0,0,12.4-8.9,17.4-2.5,0,0,4.6,4.3,9.6,0,0,0,5.7-5.7,4.6,11.3,0,0,2.8,4.3-12.4,3.9,0,0-23.1,2.5-10.7,11.7,0,0,10.3,5.7,26.3-4.3,0,0,3.3-8.5,8.4,7.8,0,0,1.9,16.7,15.9,3.4l1.7-9.2C455.59,487.5,466.59,475.6,460.19,474.1Z"/><path class="amazon-5" d="M224.89,280.8c-9.5,1.6-21.6,34.2-21.6,34.2-2.4,13.5-12,33.9-12,33.9-6.3,15.4,4.1,14.8,4.1,14.8,17.8-.6,13.5-27.3,13.5-27.3-2.1-1.6,0-12,0-12,1.8-12.1,13.9-11.4,13.9-11.4,9.2-.8,5-12.8,5-12.8-6.3-15.5,6-7,6-7,9.9,5.1,30-6.1,30-6.1,11.2-12.1-10.1-16.5-10.1-16.5C243,272.4,224.89,280.8,224.89,280.8Z"/><path class="amazon-5" d="M216.39,401.3c7.1,1.1,7.3,24.5,7.3,24.5.2,14.9,6.9,11.8,6.9,11.8,8.9.8,1.4-11.8,1.4-11.8-6.7-9.2.1-13.1.1-13.1-.2-14.9-8.6-16-8.6-16-6-7.1-11.2-4.3-11.2-4.3C205.79,395.6,216.39,401.3,216.39,401.3Z"/><path class="amazon-5" d="M284.89,414.7s-10.3-1.3-6,7.6c0,0,.3,6,9.1,0C288,422.3,289.59,414.2,284.89,414.7Z"/><path class="amazon-5" d="M255.39,428.1s-11.7,1.3-8.3,8.4c0,0,.5,7.1,11.2,0C258.29,436.5,262.89,427.8,255.39,428.1Z"/><path class="amazon-5" d="M321.69,426.5s-15.8-12.1-17.2,0c0,0-2.7,8.2,9.5,7.3C313.89,433.9,329.29,435.1,321.69,426.5Z"/><path class="amazon-5" d="M473,405.6s-10.5-11-10.8,0c0,0-5.4,13,10.8,9C473,414.6,479.29,410.2,473,405.6Z"/><path class="amazon-6" d="M572,309.8s-9.9-4.8-9.9,4c0,0-.4,7.9,9.9,3.2C572,316.9,580.19,310.2,572,309.8Z"/><path class="amazon-6" d="M471.69,285.1s-16.5-7.2-16.2,6.4c0,0,1.3,9.8,18.5,2C474,293.4,478.49,288.9,471.69,285.1Z"/><path class="amazon-6" d="M460.19,255.5s-16,10-16,0c0,0-10.3-8.8-7.6,7.9,0,0,.5,23,23.6,7.5C460.19,270.9,478.29,251.1,460.19,255.5Z"/><path class="amazon-6" d="M553.39,318.4s-10.3-4.7-15.1,4.4c0,0-17.8-5.5-29.7,8.7,0,0-32.9,28.9-42.6-2,0,0-5.9-16.7-5.8,1,0,0-6.8,26.4,13.9,27.6,0,0,26.8.7,37.2-9.2,0,0,25.9-25.7,16.4,4.4,0,0-14.7,6.9-8.3,21.7,0,0,2.4,7.6,11.1-5.3,0,0,54.7-8.1,54.7-22.4,0,0-3.6-18.6-20.2-2.8,0,0-38.1,22.1-23-.8C541.89,343.9,568.09,326.3,553.39,318.4Z"/><path class="amazon-6" d="M599.19,399.9c-9.1-6.2-2.2-14.3-2.2-14.3,17.2-25.9,0-13,0-13s-29.3,31.1-37.3,14.1c0,0-18.6-4.4,0,11.9,0,0,13.9,13.8,28.9,7.1,0,0,17,0-3.6,25,0,0-22.1,21.7-16.2,36.8,0,0,17.3,35.3-11.9,24.2a5.69,5.69,0,0,1-3.3-1.4c-2.3-3.2-3.9-8.4-4.4-15.8a85.62,85.62,0,0,1,2.2-14.2s5.9-19.8-6.4-19.8c0,0-8.3-17.8-8.5-36.8s-12.5-4.4-12.5-4.4-9.5,7.1,5.2,28.1c0,0,12.3,21.5-7.1,12.2,0,0-38.1-19.5-50.3-2,0,0-13.2,22.4,3,34.2l-2.8,2.3a18.69,18.69,0,0,1,6.3-.2h0a48.82,48.82,0,0,0,5.5,1.3,14.58,14.58,0,0,1,1.9.7s25.3,41.8,38,23.5c0,0-23-20.1,4-18.9,0,0,5.2,1.7,13.2,16.1,0,0,7.7,17.4,44.4-2.9,12.3-7.8-3.2-24-3.2-24-8.6-9.8,1.2-12.1,1.2-12.1,12.8,0,10.1-19.2,10.1-19.2,0-9.4,9.4-16.5,9.4-16.5C615,408.3,599.19,399.9,599.19,399.9Z"/><path class="amazon-6" d="M460.19,474.1s-26-16.6-17.3-34.1c0,0,5.2-14.1-17.6-1.4,0,0-3.2-17.1-19.5-7.9,0,0-1.1,21.7-20.3,13.5,0,0-11.7-3.9-17.8,0,0,0,9.5-13.9-2.2-13.9,0,0-8.8-3.1-13.1,11.2,0,0-2.1,7.1-7.5-4,0,0-11.7-10.5-11.7-.9,0,0-1.1,13.4,8.5,17.6,0,0,12.1,7.5-3.2,8.5,0,0-18.1-1.4-11.4,4.6,0,0,5.3,9.9,22.4,1.7,0,0,39.4-31.7,39.4-11.4,0,0-5.3,9.2,5.7,7.6,0,0,12.4-8.9,17.4-2.5,0,0,4.6,4.3,9.6,0,0,0,5.7-5.7,4.6,11.3,0,0,2.8,4.3-12.4,3.9,0,0-23.1,2.5-10.7,11.7,0,0,10.3,5.7,26.3-4.3,0,0,3.3-8.5,8.4,7.8,0,0,1.9,16.7,15.9,3.4l1.7-9.2C455.59,487.5,466.59,475.6,460.19,474.1Z"/><path class="amazon-6" d="M224.89,280.8c-9.5,1.6-21.6,34.2-21.6,34.2-2.4,13.5-12,33.9-12,33.9-6.3,15.4,4.1,14.8,4.1,14.8,17.8-.6,13.5-27.3,13.5-27.3-2.1-1.6,0-12,0-12,1.8-12.1,13.9-11.4,13.9-11.4,9.2-.8,5-12.8,5-12.8-6.3-15.5,6-7,6-7,9.9,5.1,30-6.1,30-6.1,11.2-12.1-10.1-16.5-10.1-16.5C243,272.4,224.89,280.8,224.89,280.8Z"/><path class="amazon-6" d="M216.39,401.3c7.1,1.1,7.3,24.5,7.3,24.5.2,14.9,6.9,11.8,6.9,11.8,8.9.8,1.4-11.8,1.4-11.8-6.7-9.2.1-13.1.1-13.1-.2-14.9-8.6-16-8.6-16-6-7.1-11.2-4.3-11.2-4.3C205.79,395.6,216.39,401.3,216.39,401.3Z"/><path class="amazon-6" d="M284.89,414.7s-10.3-1.3-6,7.6c0,0,.3,6,9.1,0C288,422.3,289.59,414.2,284.89,414.7Z"/><path class="amazon-6" d="M255.39,428.1s-11.7,1.3-8.3,8.4c0,0,.5,7.1,11.2,0C258.29,436.5,262.89,427.8,255.39,428.1Z"/><path class="amazon-6" d="M321.69,426.5s-15.8-12.1-17.2,0c0,0-2.7,8.2,9.5,7.3C313.89,433.9,329.29,435.1,321.69,426.5Z"/><path class="amazon-6" d="M473,405.6s-10.5-11-10.8,0c0,0-5.4,13,10.8,9C473,414.6,479.29,410.2,473,405.6Z"/><path class="amazon-7" d="M516.48,272.57c2.19-.39,3.29-1.34,5.52-1.5,2.56-.18,4,1.51,6.51,1a9.08,9.08,0,0,0,6-4c1.15-1.53,1.24-2.74,2-4.5,1.43-3.3,2-5.28,3.51-8.52,1.25-2.62,2.1-4,3.51-6.53,1.33-2.36,2.14-3.67,3.51-6l1-1c-2-1.57-2.2-3.31-3.51-5.52-1.46-2.48-.94-5.18-3.5-6.51-2.09-1.08-3.86.92-6,0-1.67-.71-1.93-2.18-3.52-3-2.29-1.19-4.34.36-6.52-1-1.89-1.18-1.81-3.07-3.5-4.51a12.41,12.41,0,0,0-4.16-2.44l.14,1.44c-1,2.15-1.43,3.4-2.5,5.51-.91,1.79-1.74,2.64-2.51,4.51-2.09,5.07-2.24,8.69-1,14,.77,3.33,2.75,4.7,3.51,8,.6,2.67,1.21,4.36.5,7-.6,2.19-1.83,3.06-3,5-1.55,2.55-2.45,4-4,6.51H508c1.58.94,2.21,2.11,4,2.51s2.77-.18,4.51-.5"/><path class="amazon-7" d="M442.28,176.82a13.73,13.73,0,0,0-3.5-1.51c-3.25-.81-5.46,2.33-8.53,1-1.91-.81-3.64-1.46-4-3.5-.43-2.35,2.69-2.77,3.51-5s1.54-4.19.5-6.51-3.11-2.89-5.51-4a15,15,0,0,0-5-1.5c-2.54-.32-4,.31-6.53.51l.51-.51c-1,.2-1.53.72-2.51.51-1.36-.29-1.94-1.25-2.5-2.51-.9-2-.22-3.7,1-5.52,1.66-2.47,7.68-.1,7-3-.4-1.76-2-2.1-3.52-3a8.56,8.56,0,0,0-4-1.51c-2.72-.23-4.08,1.29-6.52,2.51-1.41.7-2,1.49-3.51,2-2.59.88-4.44-.9-7,0-1.74.6-2.33,1.73-4,2.5-1.86.86-3.38.29-5,1.5-1.83,1.37-1,3.87-3,5-3,1.75-5.33-1.16-8.52-2.51a39.77,39.77,0,0,1-6.52-3.51c-1.2-.74-1.71-1.47-3-2-2.53-1.05-4.29-.06-7,0-3.72.08-5.8.55-9.53.5-4.31-.06-8.57,2.55-11-1-1.35-2-.13-3.81-1-6a8,8,0,0,0-2-3.51c-1.92-1.77-3.93-1.2-6.52-1.51s-5,1.81-7,0c-2.37-2,1.9-5.54,0-8a6.32,6.32,0,0,0-4.52-2.51c-2.39-.4-5.58-.87-6,1.5-.38,2,2.32,2.3,3.5,4,.9,1.3,2.27,2,2,3.51-.32,1.82-2.31,1.79-4,2.51-2.9,1.23-5.16-.31-8,1-2.28,1-3.11,2.4-5,4-2.22,1.88-3.38,7-5.52,5-1.58-1.46.63-3.46,0-5.52-.42-1.35-1.77-2-2.53-2.87l-1.48.37c-3.13,1-5.82.07-8,2.5-1.9,2.11-1.39,4.24-2,7-.51,2.33-.39,3.73-1,6a20,20,0,0,1-2.51,6.51c-1.25,2-3.9,2.16-4,4.52-.13,2.63,3.3,2.68,4.51,5,1.11,2.14.72,3.73,1.51,6,.91,2.65,2.39,3.79,3,6.52s-.35,4.61,0,7.52c.44,3.63-.14,6.5,2.5,9,2.11,2,4.19,1.87,7,2.51,5.15,1.16,8.3-.66,13.54,0,3,.38,5.12-.29,7.52,1.51,2.21,1.66,1.63,4.25,2.57,6.52a5.28,5.28,0,0,0,.94,1.5,9.13,9.13,0,0,0,3,2.5c2.79,1.42,4.9,0,8,0,3.71,0,5.84.55,9.52,0,2.39-.35,3.76-2.38,6-1.5a5,5,0,0,1,2.51,2c2.31,3.15-1.95,5.77-3,9.52-.87,3.11-1.36,4.86-2,8-.77,3.68-2.15,5.82-1.5,9.53.43,2.5,1.34,3.75,2.5,6,1.48,2.9,5.08,3.81,4.52,7-.48,2.72-4.48,2.31-5,5-.43,2.18.42,3.57,1.51,5.51,1.71,3,5.17,2.56,7,5.51,1.4,2.25,1.41,3.92,2,6.51s.35,4.34,1,7a32.92,32.92,0,0,0,2,6l1,1.5c2.92,1.2,4.42,2.42,7.52,3s5.05,1,8,0c3.31-1.09,4.28-3.37,7-5.51,3.51-2.76,5.64-4.13,9-7,2.21-1.89,3.72-2.73,5.51-5,2.16-2.74,5.66-4.93,4-8s-6.65,1.64-9-1-.13-5.22-.5-8.53c-.3-2.56-.2-4.07-1-6.52-1.15-3.5-8.21-6.17-5-8,1.19-.7,2.13-.48,3.51-.5,2.6,0,3.94,1.11,6.51,1.5,1.95.31,3.09.11,5,.51a13.82,13.82,0,0,1,3.51,1c2.28,1,2.51,3.92,5,4,3.18.11,2.63-4.66,5.51-6,1.46-.68,2.47-.52,4-1,2.84-.89,4.22-2,7-3,1.73-.64,2.88-.62,4.51-1.51,2.06-1.12,2.88-2.31,4.51-4s2.45-3.06,4-5v-.49c-1.18-3.14-1.94-4.86-3-8s-2-5.11-2.51-8.54c-.21-1.42-.63-2.75-.91-4-.39-1.81-.46-3.46.91-5,1.89-2.13,4.51-.65,7-2,1.48-.79,3.25-.84,3.52-2.51s-2.47-1.79-3-3.5c-.66-2.08,0-3.59,1-5.52,1.3-2.45,3.32-2.81,5.51-4.51,1.54-1.2,3.3-1.19,4-3,.51-1.26,0-2.13,0-3.5v-2.5"/><path class="amazon-7" d="M556.08,791c-1.93-2.27-1.66-4.36-3-7-1.54-3.05-1.38-6.15-4.51-7.53-1.62-.71-2.83.08-4.51-.5-2.62-.9-3.14-3-5.51-4.5-1.49-.92-2.47-1.18-4-2-2-1.08-3.43-1.37-5-3-1.83-1.89-.59-5-3-6a4.86,4.86,0,0,0-5.52,1c-.83.78-.45,2.07-1.5,2.51-1.78.75-1.25-2.73-2-4.5-.82-2-.51-3.52-2-5s-2.65-1.51-4.51-2a13,13,0,0,0-4.52-.49c-2,.06-3.06.61-5,1l-4-2-1,2c-.79,1-1.72,1.28-2,2.5-.33,1.39.77,2.11,1,3.51.58,3.5-1,5.49-1,9,0,2.56.51,4,.5,6.51,0,3.56-1.75,5.57-1,9,.5,2.32,2.06,3.2,2.51,5.51a14.59,14.59,0,0,1,0,5c-.27,2.4-1.37,3.6-1.51,6a14.24,14.24,0,0,0,.51,5c.58,2.29,1.53,3.36,2.5,5.51l2-.5c1.86-.78,2.93,1.25,4.51,2.5,1.08.87,1.27,1.88,2.5,2.52,1.4.71,2.46.23,4,.49,1.77.3,2.75.61,4.51,1l6.52,3c1.75,1.37,2.33,3,4.51,3.52,2.35.54,3.76-.64,6-1.51,1.62-.64,2.26-2,4-2,1.49,0,2.18.84,3.51,1.5s2,1.76,3.51,2c3.05.47,3.88-2.92,6.52-4.51,1.72-1,2.91-1.29,4.51-2.51,2.09-1.6,3.66-2.53,4.52-5,.68-2-.64-3.46,0-5.51.92-3,3.67-3.43,5.51-6a30.26,30.26,0,0,0,2.61-4.32l-1.11.31c-3.91-1.79-7.24-1.26-10-4.53"/><path class="amazon-7" d="M315.94,467.59l1.6.11-.09-.11h-1.51"/><path class="amazon-7" d="M476.87,567.36c-1-1.66-.72-3.08-2-4.52-2.06-2.3-5.55-.11-7.52-2.5-1.66-2-1.67-3.91-1.5-6.51.13-2,2.57-3.28,1.5-5s-3.05-.67-5-1c-4.84-.81-7.64-.62-12.54-1l-6-2c0-.47,0-.87,0-1.25a31.51,31.51,0,0,0,0-3.76c-.18-2.37.2-4-1-6-1.35-2.3-4.24-1.67-5.51-4-1.8-3.3,2.43-5.88,1.51-9.53-.38-1.43-1-2.09-1.51-3.5-.73-2.27.11-3.91-1-6a9.14,9.14,0,0,0-4-4c-1.93-1.11-3.33-1.1-5.52-1.5-2.51-.45-4.2.57-6.51-.5-1.9-.86-2.34-2.28-4-3.51a35.31,35.31,0,0,0-5-3c-2.85-1.55-4.75-1.84-7.52-3.52-2.28-1.37-3.05-3-5.52-4a10.62,10.62,0,0,0-5-1c-1.8,0-2.71,1.16-4.51,1a7.36,7.36,0,0,1-4.51-2c-1.63-1.34-1.42-3.12-3-4.49-2.05-1.8-4.73-.47-6.51-2.52s-1-4.26-1.52-7c-.55-3.3-.7-5.19-1-8.51-.28-3.14-.42-4.9-.5-8-.08-2.53.23-4,0-6.52-.13-1.38.73-2.92-.5-3.51s-1.8,1-3,1.5a17.56,17.56,0,0,1-5.52,1.5c-1.56.17-2.46-.2-4,0a11.75,11.75,0,0,0-6.52,2.51c-2.1,1.64-1.91,3.88-4,5.52a11.59,11.59,0,0,1-2.51,1.5c-2.52,1.2-4.85-.28-7,1.5-1,.8-1.16,1.58-2,2.51-1.57,1.74-2.35,3.08-4.51,4-3.06,1.31-5.19-.29-8.52-.51-2.36-.15-3.91-.24-5.93-.38,1.73,2.26,3.36,3.23,4.42,5.9.81,2,.32,3.44,1,5.51,1,3,3,4,4,7,.8,2.44.72,4,1,6.51.41,3.7.8,5.82.5,9.53-.2,2.37-1.05,3.63-1,6A15.72,15.72,0,0,0,329,514.7c.88,2.11,3.32,2.75,3,5s-3,2.18-4.52,4c-1.83,2.24-3.56,3.63-3.5,6.51s2.57,3.91,4,6.52c1,1.92,1.91,2.93,2.51,5A20.8,20.8,0,0,1,331,544c0,.24.07.47.09.73a11.64,11.64,0,0,1,.06,1.43c0,.25,0,.49,0,.73s0,.19,0,.28l-.56-.35.56.42a15,15,0,0,1-1.07,4.1c-1.1,2.7-2.56,3.83-4.51,6l1.68-1.33c2.73,1.75,2.7,1.76,5.34,3.67,1.8,1.3,2.63,3.5,4.1,5.17a65.8,65.8,0,0,0,7.18,6.36c2.19,1.74,4.61,4.67,7,6.09,4.15,2.45,1.86,1.47,3.43,6,1.74,5.08,1.74,1.08,2.09,6.43.18,2.92,1.64,4.88,2.92,7.52,1,2,3.61,1.34,4.84,3.17,1.64,2.41,2.08,1.65,2.51,4.51.46,3.11.06,4.94-.5,8a44,44,0,0,1-1.51,5.51c-.87,3-2.54,4.44-2.5,7.52,0,2.67,1.05,4,2,6.52.84,2.21,1.52,3.37,2.5,5.52l1-.5a31.08,31.08,0,0,0,2.24-2.64,9.24,9.24,0,0,1,2.77-2.37,10.19,10.19,0,0,1,6-1.5c3,.14,4.26,1.89,7,3,2.53,1,4.11,1.25,6.52,2.51,1.63.86,2.22,3,4,2.52,1.48-.38,1.47-1.89,2.51-3,1.78-1.94,2.62-3.42,5-4.52a11.93,11.93,0,0,1,5.52-1c2.37,0,4.05-.33,6,1,1.26.86,1.53,1.85,2.51,3l1.5-1c0-1.56-.06-2.45,0-4,.08-2.14.34-3.37.51-5.51.29-3.9,0-6.14.5-10,.58-4.19.47-6.83,2.5-10.53,1.46-2.68,2.44-4.37,5-6,2.07-1.33,3.67-1.22,6-2,3.92-1.35,6-2.42,10-3.52a32.68,32.68,0,0,1,6.51-1.5c4.32-.41,6.88.24,11,1.5,2.86.86,4.6,1.27,7,3s3.06,3.37,5,5.51l-.51.51c2,0,4,1.65,5,0s-1.65-2.62-2-4.51c-.63-3.35,1.43-5.16,2-8.52.63-3.68.54-5.82,1-9.53.33-2.75,1.86-4.4,1-7-.62-1.83-2-2.31-3-4"/><path class="amazon-7" d="M762.13,395.39c-.64-3.07.37-5.16-1-8a13.69,13.69,0,0,0-3-4c-2.16-2.22-3.56-3.6-6.53-4.5-2.8-.85-4.59.23-7.52,0-3.36-.28-6.12.87-8.51-1.5-1.13-1.12-.8-2.52-2-3.51-1.68-1.4-3.68.18-5.51-1-1.42-.92-1.74-2.09-2.58-3.39a6,6,0,0,0-.44-.63c-1.52-2-2.48-3-4-5a42.93,42.93,0,0,0-3-4c-2-2.13-3.7-2.7-6-4.5a56,56,0,0,0-5-4c-1.86-1.17-3.46-1-5-2.51s-.88-3.34-2.51-4.51c-2.23-1.6-4.31-.38-7,0s-4.24,1.43-7,2c-3.09.64-4.9,1.32-8,1a23.43,23.43,0,0,1-5.51-1.5c-2-.68-3-1.35-5-2-2.3-.75-3.73-.72-6-1.5-2.64-.91-3.72-3.11-6.52-3a11.54,11.54,0,0,0-2.5.5,32.25,32.25,0,0,0-8.52,3c-1.41.7-2,2.58-3.51,2-1.88-.73,2.07-2.55,2.5-4.51a7.4,7.4,0,0,0-.5-5.51c-.86-1.74-2.24-2.05-3.51-3.51s-1.5-2.76-3-4c-2-1.64-4-.94-6-2.51-1.42-1.12-1.56-2.44-3-3.51-3-2.24-6.25.32-9.54-1.51-2-1.14-2.33-3.1-4.51-4-2-.84-3.39-.09-5.51-.51s-3-1.29-5-1.5c-2.75-.31-4.82-.67-7,1-1.34,1-1.61,2.08-2.51,3.5-1.63,2.59-1.49,4.73-3.5,7-1.49,1.68-2.86,2-4.52,3.51-1.23,1.12-1.66,2-3,3s-2.27,1.85-4,2c-1.18.09-2.19.35-3-.5s0-2.15,0-3.52l-.5.5c1-1.18,1.19-2.25,2.51-3,1.54-.88,2.88.19,4.51-.49,2.42-1,3.07-2.82,4.52-5,1.62-2.49,1.79-4.29,3-7,1-2.16,3.22-3.26,2.5-5.51a4.58,4.58,0,0,0-2-2.51c-2.07-1.52-4-.14-6.53-.51-2-.28-3-.86-5-1-2.35-.15-3.66.41-6,.51-2.54.11-4-.17-6.51,0-1.77.12-3.06-.52-4.51.49s-1.47,2-2,3.52c-1.06,2.95.26,4.91,0,8-.13,1.57.44,2.75-.5,4-1.3,1.74-3.58,0-5.52,1-1.35.71-1.81,1.55-3,2.5-1.54,1.22-2.14,2.43-4,3-2.06.62-3.5-.5-5.51-.5s2.2-2.09,3.51-3.52,1.75-2.22,3-3.5c1.44-1.49,2.76-1.85,4-3.51,1.63-2.18,1.37-4,2.51-6.53s1.56-4.39,3.5-6.52,4.26-1.8,6-4a6.46,6.46,0,0,0,1-1.69c.55-1.38.65-2.75,1.53-4.33,1.7-3,4.26-3.77,5.52-7,.92-2.4,2.47-4.41,1-6.52-1.1-1.58-2.74-1.22-4.51-2-2.72-1.19-5.5-.45-7-3-1.11-1.87-.24-3.38-.5-5.52-.35-2.76-.15-4.93-.62-7.11a10.72,10.72,0,0,0-1.39-3.42c-1-1.54-2.15-1.93-3-3.51-1.51-2.77-.86-4.86-1-8-.07-1.76.9-3,0-4.51-1.07-1.81-3.34-.71-5-2l-1,1c-1.37,2.34-2.18,3.64-3.51,6-1.41,2.52-2.26,3.92-3.51,6.53-1.46,3-2,5-3.25,7.92-.09.19-.17.4-.26.59-.76,1.77-.85,3-2,4.51a9.1,9.1,0,0,1-6,4c-2.51.51-4-1.18-6.51-1-2.23.15-3.32,1.1-5.52,1.5-1.74.31-2.78.89-4.51.49s-2.42-1.56-4-2.5a24.39,24.39,0,0,0-4.51-2.51c-2.23-.81-3.75-1.72-6-1-2,.63-2.16,2.59-4,3.51-1.28.62-2.41.1-3.5,1-1.43,1.2-.35,3.06-1.51,4.51s-2.45,1.53-4,2.51l1.49-1c-3.51-1-5.46-3.37-9-2.52-1.95.47-2.79,1.47-4.5,2.52-2.64,1.6-3.59,3.54-6.52,4.51-2.61.87-4.64-.86-7,.5-1.81,1-1.47,3.64-3.51,4-1.65.29-2.46-.87-4-1.49-2.2-.91-3.72-1-5.51-2.51-1.95-1.66-2.62-3.14-3.52-5.52-1-2.59,1-5.13-1-7-1.09-1-2.45-.45-3.51-1.51-1.63-1.63-.49-3.49.35-5.6a9.35,9.35,0,0,0,.66-2.42c.26-2.73-.61-4.5.5-7,.67-1.54,1.5-2.15,2.5-3.51,1.33-1.78,3.8-2.3,3.51-4.5s-2.56-2-4-3.52c-1.75-1.79-3.31-2.61-4-5s.84-3.68.5-6c-.2-1.41,0-2.47-1-3.51-1.76-1.88-4,.61-6.52,1l-.5,1.49c-1.56,2-2.29,3.2-4,5s-2.45,2.88-4.51,4c-1.63.88-2.78.86-4.51,1.5-2.8,1-4.18,2.13-7,3-1.55.48-2.56.32-4,1-2.88,1.35-2.33,6.12-5.51,6-2.5-.09-2.72-3-5-4a14.26,14.26,0,0,0-3.51-1c-1.93-.41-3.07-.2-5-.5-2.57-.4-3.91-1.55-6.51-1.5-1.38,0-2.32-.19-3.51.49-3.2,1.85,3.86,4.52,5,8,.81,2.44.72,3.95,1,6.51a16.59,16.59,0,0,1-.43,4.43,4.51,4.51,0,0,0,.93,4.1c2.37,2.63,7.35-2.13,9,1s-1.85,5.27-4,8c-1.79,2.29-3.3,3.13-5.51,5-3.39,2.9-5.52,4.26-9,7-2.74,2.15-3.71,4.43-7,5.51-3,1-4.95.59-8,0s-4.6-1.81-7.52-3c-2.35-1-4.41-.53-6-2.51-1.29-1.59-.81-3.09-1.51-5-1.1-3-.34-6.88-3.51-7.52-2.31-.48-3.36,1.53-5.51,2.5l-11,1c-3.72-.4-6.2-2.69-9.53-1a8.19,8.19,0,0,0-3,2.5c-1.89,2.39-3.74,5-2,7.53,1.3,1.89,4.25.1,5.51,2a4.3,4.3,0,0,1,.5,4.51c-1.15,2.55-4.71-.1-7,1.5a8,8,0,0,0-2.37,2.33,8.58,8.58,0,0,0-.63,1.18c-1,2.33-.77,4.1,0,6.52s2.79,3.16,4,5.51c1.68,3.25,1.82,5.44,2.5,9a71.94,71.94,0,0,1,1,9c.33,4.1,1.32,6.5.5,10.53-.55,2.67-1.82,3.88-2.51,6.52-.79,3.05-.26,5-1,8-.69,2.83-2.73,4.12-2.5,7,.1,1.42,1.49,2.18,1,3.51-.76,2-3.35.67-5.51.51a28.23,28.23,0,0,1-3-.51l-1,1c-.84,1.18-1,2.34-1.95,3.15a3.77,3.77,0,0,1-.55.37c-1.37.74-2.5.16-3.79-.37a6.93,6.93,0,0,0-2.24-.63c-1.94-.15-3.16-.65-5,0a4.93,4.93,0,0,0-1.21.63c-1.35,1-1.89,2.48-3.3,3.88s-1.74,2.69-3.5,3.5c-2.14,1-4.44-1.72-6,0s.25,3.39,0,5.52c-.34,2.83-1.12,4.32-2,7-1.18,3.59-1,6.24-3.51,9-1.32,1.43-2.78,1.48-4,3-2.47,3.08-.79,6.13-1.51,10-.35,2-1.33,3-1,5,.4,2.35,2.19,3,3.5,5a25.75,25.75,0,0,1,2.51,4c1,2.21.35,3.89,1.51,6,1,1.82,2.33,2.31,3.51,4,.64.93,1.34,1.38,1.5,2.5.25,1.83-3.25,2.33-2.51,4s2.77.55,4.51,1c2,.5,3.38.29,5,1.49,1.83,1.37,1.27,3.56,3,5,2.19,1.83,4.2,1.69,7,2,1.94.22,3.16.64,5,0,2.22-.76,2.75-2.44,4.5-4,0,0,4-1.51,2.51,5-.7,3.07,1,4.87,1,8,0,2.55-2.24,4.65-.5,6.52s4,.2,6.52,0a34.15,34.15,0,0,1,4-.5c2,0,3.06.61,5,1h-.51c2.94.2,4.59.31,7.53.49,3.33.22,5.46,1.82,8.52.51,2.16-.93,2.94-2.27,4.51-4a19,19,0,0,1,2-2.51c2.17-1.78,4.5-.3,7-1.5a11.63,11.63,0,0,0,2.51-1.51c2.1-1.63,1.91-3.87,4-5.51a11.75,11.75,0,0,1,6.52-2.51c1.55-.2,2.45.17,4,0a17.56,17.56,0,0,0,5.52-1.5c1.21-.49,1.82-2.07,3-1.5s.37,2.13.5,3.51c.23,2.53-.08,4,0,6.52.08,3.13.22,4.89.5,8,.29,3.32.44,5.21,1,8.52.48,2.76-.32,4.91,1.51,7s4.47.72,6.52,2.52c1.59,1.38,1.38,3.15,3,4.49a7.47,7.47,0,0,0,4.51,2c1.8.16,2.71-1,4.51-1a10.62,10.62,0,0,1,5,1c2.47,1,3.24,2.63,5.52,4,2.77,1.68,4.67,2,7.52,3.52a36.28,36.28,0,0,1,5,3c1.68,1.23,2.12,2.64,4,3.51,2.31,1.08,4,.05,6.51.5,2.19.4,3.59.39,5.52,1.5a9.14,9.14,0,0,1,4,4,4.93,4.93,0,0,1,.32.76c.61,1.76,0,3.28.68,5.27.46,1.4,1.13,2.06,1.51,3.5.92,3.65-3.31,6.23-1.51,9.53,1.27,2.34,4.16,1.71,5.51,4,1.21,2.05.83,3.64,1,6,.15,1.94,0,3.05,0,5l6,2c4.9.4,7.7.2,12.54,1,2,.32,4-.71,5,1s-1.37,3-1.5,5c-.17,2.6-.16,4.5,1.5,6.51,2,2.38,5.46.2,7.52,2.5,1.28,1.44,1,2.87,2,4.52s2.39,2.16,3,4c.87,2.63-.66,4.28-1,7-.47,3.7-.38,5.84-1,9.52-.58,3.36-2.64,5.17-2,8.53.36,1.89,3,2.88,2,4.5s-3.06,0-5,0l1,2c.58,4.11,2.24,6.44,1.5,10.53-.33,1.82-1.62,2.66-1.5,4.51.14,2.28,1.78,3.1,3,5,.76,1.18,1.68,1.64,2,3,.41,1.76-1.69,2.85-1,4.51,1,2.57,4.26.85,7,1,2,.13,3.06,0,5,0,2.93,0,4.62-.46,7.53,0,1.58.26,2.43.64,4,1,2.53.62,4.71-.37,6.52,1.5s.8,4.27,1,7-.26,4.28,0,7c.19,1.94-.07,3.76.1,5.39a4.86,4.86,0,0,0,1.91,3.63c1.74,1.38,3.28,1.45,5.51,1.5,2,0,3-1,5-1,1.57,0,2.66-.32,4,.5,2.11,1.29,1.5,3.59,2,6a18.94,18.94,0,0,1,.5,7.52c-.41,2.88-2.07,4.15-2.51,7-.35,2.33-.78,3.81,0,6l2.51-1c2.35.19,3.85-.41,6,.49a6.58,6.58,0,0,1,3.51,2.52c1.17,1.8.27,3.36.5,5.51.32,3.14,1.05,4.87,1,8,0,2,.37,3.24-.5,5-1.32,2.67-3.71,3-6.52,4-1.51.55-2.73,0-4,1s-.94,2.62-2,4-2.14,1.84-3.51,3a35,35,0,0,0-3.51,3c-1.94,2.05-2.38,3.72-4,6-1.15,1.59-2,2.33-3,4-1.23,2-1.23,3.54-2.51,5.51s-2.45,2.74-4,4.5l-3.51,6-4.5,4.5,4,2c1.95-.39,3-.94,5-1a13.29,13.29,0,0,1,4.52.49c1.86.49,3.14.64,4.51,2s1.18,3.07,2,5c.76,1.77.23,5.25,2,4.5,1-.44.67-1.72,1.5-2.51a4.86,4.86,0,0,1,5.52-1c2.42,1,1.18,4.13,3,6,1.58,1.63,3,1.92,5,3,1.54.83,2.52,1.09,4,2,2.37,1.45,2.89,3.6,5.51,4.5,1.68.58,2.89-.2,4.51.5,3.13,1.39,3,4.48,4.51,7.53,1.35,2.65,1.08,4.74,3,7,2.79,3.26,6.12,2.74,10,4.51l1.11-.31a46.57,46.57,0,0,0,1.9-4.7c1.09-3,.91-5,2-8,1-2.64.79-4.81,3-6.52,1.78-1.34,4,.13,5.52-1.5,1.15-1.21.68-2.56,1.5-4,1.38-2.4,3.68-2.6,5-5,1.44-2.63.86-4.6,1.5-7.53a79.68,79.68,0,0,1,2-8,44.65,44.65,0,0,1,2.51-6.51c1.61-3.33,3.09-4.87,5-8,1.18-1.94,1.8-3.06,3-5,2.08-3.37,4.26-4.78,5.52-8.53,1.62-4.82,0-8,0-13,0-2.15.49-3.42,0-5.51-.63-2.64-2.63-3.44-3.5-6-1.58-4.64-1.75-8.19.49-12.54a18.13,18.13,0,0,1,3-4,36.87,36.87,0,0,1,4.51-4.5c1.67-1.47,2.75-2.14,4.51-3.51a41.84,41.84,0,0,0,4.51-3.51c2.1-2.06,2.23-4.2,4.52-6s3.83-2.21,6.51-3c3.21-1,5.51.47,8.53-1,2.61-1.27,3.28-3.15,5.51-5,.27-.21.52-.43.75-.62,1.3-1.05,2.25-1.76,3.76-2.88,1.92-1.42,2.85-2.52,5-3.51a19.65,19.65,0,0,1,5.51-1.5c4.43-.8,7,.25,11.53,0,3.73-.21,6.66,1.4,9.53-1,1.28-1.09,1.55-2.13,2.5-3.52.8-1.16,1.17-1.88,2-3a23.21,23.21,0,0,1,4-4.5c1.6-1.39,3.2-1.37,4.51-3,2-2.5,1-4.88,1.5-8s-1.2-5.78,1-8c1.35-1.38,3-.77,4.5-2A8,8,0,0,0,703,609c1.14-2.71-1.42-5,0-7.53a9.18,9.18,0,0,1,3-3c1.6-1.24,3.06-1.14,4.52-2.52,4.25-4-.19-9.17,0-15,.11-3.72-1.27-6.26.49-9.53,1.19-2.19,3.68-2.17,4.52-4.5,1-2.81-1.36-4.53-1.51-7.53-.12-2.54-.6-4.21.51-6.51.78-1.63,2.17-1.92,3-3.52,2.08-4-1.09-7-1.51-11.52-.26-2.73-.22-4.29-.5-7a55.47,55.47,0,0,0-1-7.52c-.58-2.61-2.09-3.87-2-6.52.07-2.27,1.7-3.39,2.3-5.26a4.87,4.87,0,0,0,.21-1.25c.08-2.66-2.09-3.88-2-6.53a9.12,9.12,0,0,1,3-7c1.45-1.4,2.67-1.71,4.52-2.51,1.69-.74,3-.39,4.5-1.51,2.1-1.57,1.51-3.87,3-6,.87-1.24,1.64-1.74,2.5-3,1.68-2.46,1.79-4.31,3-7,1.67-3.75,2.69-5.84,4.51-9.52.77-1.58.53-3.08,2-4,1.17-.75,2.25,0,3.51-.51,2.44-1.05,2.44-3.36,4-5.51,2.14-2.94,3.26-4.66,5.51-7.52,2.07-2.61,3.35-4,5.52-6.52,1.16-1.37,2.22-1.89,3-3.5,1.11-2.3.32-4,.5-6.52.22-3.13-.09-4.94.5-8,.51-2.6,1.31-3.94,2-6.51,1-3.48,2.34-5.43,2-9-.28-2.9-1.63-4.25-2.51-7a58.61,58.61,0,0,1-2-7"/><path class="amazon-7" d="M343.52,283.1c.7,1.92.22,3.42,1.51,5,1.6,2,3.66,1.53,6,2.5l-1-1.51a62.29,62.29,0,0,1-2-6c-.65-2.68-.39-4.31-1-7s-.6-4.26-2-6.51c-1.85-2.95-5.31-2.48-7-5.51-1.09-1.94-1.94-3.33-1.51-5.52.54-2.71,4.54-2.29,5-5,.56-3.21-3-4.12-4.52-7-.65-1.28-1.22-2.24-1.67-3.26a11.33,11.33,0,0,1-.83-2.77c-.65-3.71.73-5.84,1.5-9.52.65-3.16,1.14-4.92,2-8,1.05-3.75,5.31-6.38,3-9.52a5,5,0,0,0-2.51-2c-2.25-.88-3.62,1.15-6,1.5-3.68.55-5.81,0-9.52,0-3.13,0-5.24,1.42-8,0a9,9,0,0,1-3-2.51c-2.3-2.53-.78-6-3.51-8-2.4-1.79-4.55-1.12-7.52-1.5-5.24-.66-8.39,1.16-13.54,0-2.83-.64-4.91-.5-7-2.51-2.64-2.52-2.06-5.39-2.5-9-.35-2.91.64-4.65,0-7.52s-2.1-3.86-3-6.51c-.79-2.28-.4-3.87-1.51-6-1.21-2.33-4.64-2.39-4.51-5,.11-2.35,2.76-2.51,4-4.51a20.06,20.06,0,0,0,2.51-6.51c.61-2.31.49-3.7,1-6,.61-2.78.1-4.9,2-7,2.21-2.43,4.91-1.53,8-2.51l1.48-.36a2,2,0,0,1-.48-1.65,4.44,4.44,0,0,1,1.51-2.5c1.2-1.26,2.54-1,4-2,2.55-1.68,5-2.53,5.52-5.52.28-1.56.47-2.77-.51-4-1.22-1.57-3-1.07-5-1-2.47.08-4.36.16-6,2-1.48,1.66,0,3.9-1.5,5.51-2,2.15-4.83-.24-7.51,1s-3,3.54-5.52,5c-3,1.75-5.13,1.79-8.52,2.5-2.71.56-4.91-.79-7,1-1.08.92-.94,2.1-2,3a8,8,0,0,1-3.5,1.51c-2.27.64-3.81-.31-6,.5a11.08,11.08,0,0,0-4.52,3c-3.64,3.61-3.51,7.43-4,12.54-.22,2.33,1.53,4.24,0,6-1.65,1.94-4.37-.88-6.52.5a6.93,6.93,0,0,0-3,4.52c-.54,1.87.9,3.27,0,5-1.34,2.58-5.52,0-7,2.51-1,1.68,1.19,4-.5,5s-3-.43-4.51-1.49v1c-.39,2.15-.06,3.54-1,5.51a10.71,10.71,0,0,1-4,4.51,24,24,0,0,1-4,2l-1.11,1a3.75,3.75,0,0,1,1.61,1c1.85,2.05-.25,4.55,1,7,.94,1.86,2.67,2.1,3.51,4,1.25,2.87-.46,4.89-.5,8-.06,4.1.42,6.41.5,10.53.05,2.73,1.22,4.56,0,7-.87,1.72-2.5,1.86-3.51,3.5-1.63,2.65-.82,4.9-.9,7.79,0,.39,0,.81-.11,1.25-.65,5.11-1.68,7.9-2,13-.22,3.51,2.36,6.41,0,9-2.13,2.37-5.38-.28-8,1.5-3.27,2.21-4.06,5.13-4.52,9-.16,1.35.23,2.16,0,3.5l-.5,2.52c1.76,1.37,3,1.86,4.51,3.51,1.82,2,1.37,4.33,3.51,6,1.65,1.31,3,1.26,5,2,2.14.82,3.51.89,5.52,2,2.19,1.2,2.57,3.42,5,4,1.91.47,3.13.09,5-.49s2.5-2.54,4.51-2.51c2.64,0,3.06,2.74,5,4.52,2.16,1.93,3.36,3,5.51,5l.5-.49c1.76,0,2.84-.54,4.52,0,1.86.58,2.65,1.59,4,3a14.68,14.68,0,0,1,2.52,3.52c1,1.83.76,3.31,2,5,2.51,3.48,8,.72,10,4.52.73,1.42.38,2.52,1,4,.82,2,1.89,2.71,3,4.51,1.45,2.3,1.79,3.91,3.52,6,1.05,1.28,1.5,2.3,3,3,1.94.93,3.37-.11,5.52,0,2,.1,3.16,1.17,5,.49s1.62-3.08,3.51-3.51,2.67,1.28,4.52,1.51c3,.37,5.6-3.81,7.51-1.51.79,1,.11,2.15,1,3,1.14,1.09,2.43.38,4,.49,2.34.17,4.74-2,6,0s-1.41,3.43-2.51,5.54a34.3,34.3,0,0,1-3,5c-.91,1.23-1.81,1.65-2.51,3a9.19,9.19,0,0,0-1,4.51c-.09,2.62.92,4,1.51,6.51h.5a25.92,25.92,0,0,0,3,.51c2.16.15,4.75,1.53,5.51-.51.5-1.32-.89-2.08-1-3.51-.23-2.89,1.81-4.19,2.5-7,.74-3.07.21-5,1-8,.69-2.64,2-3.85,2.51-6.52.82-4-.17-6.42-.5-10.53a71.94,71.94,0,0,0-1-9c-.68-3.58-.82-5.78-2.5-9-1.22-2.35-3.21-3-4-5.51s-1-4.19,0-6.52a7.51,7.51,0,0,1,3-3.5c2.31-1.6,5.87,1.05,7-1.51a4.28,4.28,0,0,0-.5-4.5c-1.26-1.92-4.21-.13-5.51-2-1.74-2.5.11-5.14,2-7.53a8.19,8.19,0,0,1,3-2.5c3.33-1.7,5.81.61,9.53,1l11-1c2.15-1,3.2-3,5.51-2.51,3.17.64,2.41,4.49,3.51,7.52"/><path class="amazon-7" d="M538,692.19c-.23-2.14.67-3.71-.5-5.51a6.68,6.68,0,0,0-3.51-2.52c-2.17-.9-3.67-.29-6-.49l-2.51,1c.29.82.69,1.19,1,2,1,2.56.53,4.27.5,7,0,2.34.37,3.83-.5,6-1.29,3.22-3.75,3.94-6.52,6-2,1.52-3.36,2.15-5.52,3.5-1.56,1-2.29,1.83-4,2.5-2.91,1.15-4.88.6-8,.51-2.16-.07-3.37-.33-5.52-.51a65.32,65.32,0,0,0-7.52-.49c-2.16,0-3.36.43-5.51.49-1.37,0-2.15,0-3.52,0l.51,2c-.78-1.76-1.65-2.63-2-4.51-.53-2.71-.68-4.81,1-7,1-1.34,2.43-1.22,3.52-2.5,2.39-2.87.32-5.85,1-9.53a19.43,19.43,0,0,1,1-4.5c.7-1.71,2.34-2.18,2.51-4a5.19,5.19,0,0,0-2.51-5c-1.46-1-2.8-.43-4.5-1-2.74-.93-3.93-2.23-6.52-3.52-3.45-1.71-5.31-3-9-4-2.12-.58-3.63.09-5.52-1-2.31-1.34-2.17-3.58-4-5.52-2.92-3-5.63-3.48-9-6-2-1.5-2.94-2.62-5-4-5.71-3.82-13.71.23-16.54-6-.59-1.31-.33-2.26-1-3.53-.91-1.7-2.27-2-3.51-3.5a48.49,48.49,0,0,1-3-4.52v.51c-1-1.17-1.25-2.15-2.51-3-2-1.33-3.64-1-6-1a11.8,11.8,0,0,0-5.52,1c-2.39,1.11-3.23,2.59-5,4.52-1,1.12-1,2.64-2.51,3-1.79.43-2.38-1.66-4-2.51-2.41-1.26-4-1.49-6.52-2.51-2.76-1.11-4-2.87-7-3a10.19,10.19,0,0,0-6,1.5,9.27,9.27,0,0,0-2.77,2.38,31.06,31.06,0,0,1-2.24,2.63l3-2.5c.6,6.06,1.33,9.46,1.51,15.54.08,2.74,1,4.49,0,7s-4,2.43-5,5c-1.31,3.32,1.46,5.47,1.51,9a25.22,25.22,0,0,1-1,8c-.88,3.3-2.1,4.91-3.51,8-1.33,2.95-1.95,4.68-3.51,7.51-2,3.71-3.72,5.47-6,9-3.23,5-4.76,8-8,13-2.47,3.77-4.82,5.37-6.52,9.52-2.27,5.57-1.58,9.36-1.51,15.31v.24c.06,6.5,1.13,10.1,2,16.54s1.35,10.12,2.5,16.55c1,5.7,2.23,8.81,3,14.54.67,4.85.18,7.7,1,12.54,1.06,6.22,3.63,9.28,4.51,15.53.58,4.09.15,6.43.5,10.54.29,3.34,3.17,6,1,8.52-1,1.21-2.36.93-3.52,2-2.75,2.61-1.58,5.75-2,9.52-.2,1.85-.65,3.47-.91,5a8,8,0,0,0,.91,6c1.23,2,2.91,2.29,4.51,4,3.29,3.53,7.63,5.82,6.52,10.53-.7,3-3.57,3.33-5,6-3.42,6.38.46,11.33,0,18.55-.14,2.35-.64,3.66-.49,6,.24,3.9,2.33,5.7,3,9.54.3,1.73.13,2.78.5,4.51a26.4,26.4,0,0,0,2,5.51c.87,2,1.75,2.95,2.51,5,1.36,3.7-.61,6.68,1.5,10,1.41,2.22,3.77,2.19,5,4.52s-.06,4.18,1,6.51c1.2,2.65,3.69,2.93,5,5.52,1,2-.22,4.1,1.5,5.51s4.41-1.35,5.52.5-2.72,1.92-4.32,3.26a1.69,1.69,0,0,0-.7,1.26c-.13,3.31,6.27.93,7.53,4,.73,1.8-.05,3,0,5,.07,3.15-.13,5,.5,8a25,25,0,0,0,1.5,5c.66,1.63,2.56,2.35,2,4s-3.37.38-4,2c-.74,1.88,1.89,2.61,2.5,4.51a9.32,9.32,0,0,1,.5,5.51c-.44,2-2.21,2.52-2.5,4.52-.44,2.94,2.38,4.1,3,7,.81,3.84,1.44,6.63-.5,10-1.51,2.65-5.62,2-6,5-.3,2.33,1.66,3.3,2.51,5.51.94,2.48-.1,4.88,2,6.5s4.85-1.42,6.51.51c1.53,1.78-1.52,4.23,0,6s4,.42,6.52.48c1.56,0,2.52-.45,4,0a5.72,5.72,0,0,1,3.51,2.52c1.54,2.26-.36,4.3,0,7,.24,1.79-.19,3.17,1,4.51s2.85.67,4.5,1.5c2.49,1.25,3.05,3.24,5.52,4.51,5,2.6,9.47,3.07,14.54.5,1.26-.64,1.7-1.46,3-2,3.9-1.62,6.51,1.2,10.52,2.51,2.6.85,4,1.53,6.52,2.5l6,3c1.16-2-.64-4.07-2.5-5.51s-5.05,1.16-6-1c-.49-1.08.3-1.87,0-3-.53-2-2.33-2.3-3.52-4a15.18,15.18,0,0,1-2-3.5,12.18,12.18,0,0,1,0-10,9.25,9.25,0,0,1,2.51-4c1.16-1.08,2.5-.79,3.51-2,1.39-1.69.87-3.33,1-5.52.16-2.54-.54-4-.5-6.52,0-2.16-.39-3.54.5-5.51.75-1.63,1.73-2.23,3-3.5a37.31,37.31,0,0,1,5-4c1.91-1.43,3.69-1.53,5-3.52,1.85-2.77,1.37-5.31.5-8.51-.38-1.46-.45-2.46-1.5-3.53-1.3-1.32-2.68-1.2-4.51-1.5s-3.14.56-5,0a11.34,11.34,0,0,1-3.5-2c-2.18-1.49-2.78-3.13-5-4.52-1.12-.68-1.9-.8-3-1.5a10.67,10.67,0,0,1-4-3.51c-1.41-2.2-1.48-3.91-1.5-6.52,0-2.19,0-3.59,1-5.51,1.4-2.59,3.43-3.14,6-4.5s6,.18,7.52-2.52c.86-1.55.09-2.79.5-4.5a6.21,6.21,0,0,1,.45-1.26c.59-1.26,1.43-2.14,1.55-3.76.22-2.65-2.11-3.87-2-6.52.07-1.62.84-2.4,1-4,.21-2.15-1.79-3.79-.51-5.51,1.11-1.49,3.89.24,4.51-1.5s-2-2.33-3-4c-.67-1.11-1.56-1.69-1.5-3,.13-2.37,5.4-.16,5.52-2.52a3.47,3.47,0,0,0-1.51-3c-1.49-1.29-3.08-.15-5-.5-1.58-.29-2.95.2-4-1s-.41-2.44-.51-4c-.11-1.75.83-2.95,0-4.5s-2.16-1.51-3.51-2.5c-1.79-1.33-3.73-1.43-4.51-3.53a5,5,0,0,1,1-5.51c2-2.19,4.64-1.07,7.53-.49,3.25.64,4.29,3.2,7.51,4a23.11,23.11,0,0,0,5.52.49,25.17,25.17,0,0,0,6,0c2.44-.39,4.59,0,6-2a6,6,0,0,0,1-3c.25-1.75-.3-2.75-.5-4.51l-1,1c-.59-3.71-1.31-5.77-1.51-9.53s-.93-6.09.5-9.52c.82-2,1.16-3.49,3-4.51,2.41-1.34,4.31.43,7,1,2.18.47,3.29,1.58,5.52,1.5s3.31-1.36,5.5-2c2.69-.78,4.34-.73,7-1.49,3.21-.92,4.8-2.12,8-3s5.58.15,8.52-1.51c3.92-2.21,4.29-5.63,6.52-9.52a61.28,61.28,0,0,0,3.51-7c1-2.33,2.35-3.62,2.49-6a4.35,4.35,0,0,0,0-.5c0-2-.64-3.17-1.51-5-1.23-2.66-2.8-3.64-4.51-6-1.4-1.94-2.87-2.72-3.51-5-.53-1.88.48-3.11,0-5-.43-1.7-1.41-2.36-2-4s0-2.75-1-4c-1.93-2.46-5.07,1-8,0a10.51,10.51,0,0,1-6-4.51c-1.4-2-2.5-3.59-2-6,.32-1.54.56-2.91,2-3.51l-2,.5c-1-2.15-1.92-3.22-2.5-5.51a14.45,14.45,0,0,1-.5-5c.14-2.4,1.24-3.6,1.51-6a14.59,14.59,0,0,0,0-5c-.46-2.31-2-3.2-2.51-5.51-.75-3.46,1-5.47,1-9,0-2.55-.51-4-.5-6.52,0-3.54,1.59-5.53,1-9-.24-1.4-1.33-2.12-1-3.5.29-1.22,1.22-1.53,2-2.5l1-2c1.75-1.75,2.74-2.76,4.51-4.51l2.49-4.25,1-1.76c1.56-1.76,2.73-2.55,4-4.5s1.28-3.51,2.5-5.51c1-1.69,1.87-2.43,3-4,1.63-2.3,2.07-4,4-6a37.37,37.37,0,0,1,3.51-3c1.37-1.16,2.41-1.58,3.52-3s.62-3,2-4,2.5-.46,4-1c2.8-1,5.2-1.35,6.52-4,.86-1.76.47-3,.5-5,0-3.17-.69-4.9-1-8"/><path class="amazon-7" d="M500.94,1108.81c-1.58-.58-1.89-2-3.5-2.52-1.32-.36-2.16.13-3.52,0-2.84-.25-4.36-1-7-2a39.66,39.66,0,0,1-5.52-2.51,34.13,34.13,0,0,1-5-3,36.21,36.21,0,0,1-4-3.52c-1.42-1.32-1.86-2.5-3.52-3.51s-3.82.16-5-1.5.89-3.27,0-5c-1-1.89-2.45-2.53-4.51-3-1.5-.35-2.52.1-3.84.35l1.83.16c1.56,2.14,2.81,3.13,4,5.51a30.1,30.1,0,0,1,2,6c.64,2.13.7,3.43,1.5,5.51,1,2.7,1.59,4.36,3.51,6.51,1.77,2,3.37,2.45,5.52,4l3.27,1.1a7.77,7.77,0,0,1,1.75-.6c3.26-.67,5.32,0,8.51,1,1.84.58,2.68,1.41,4.52,2,3.19,1,5.23,1.59,8.52,1,2.5-.45,5.05-.16,6-2.51a3.49,3.49,0,0,0,0-3.51c-1.16-1.81-3.5.74-5.51,0"/><path class="amazon-7" d="M457.32,936.86c.74,1.38,2,1.49,3.51,2,1.68.57,3.14,1.62,4.52.49a3.11,3.11,0,0,0,1-3.49c-.35-1.35-2-1.22-2.5-2.52-.56-1.46,1.66-3,.5-4-.74-.68-1.52-.42-2.51-.5-1.76-.16-3.4-.87-4.51.5-1,1.21,0,2.43,0,4,0,1.38-.63,2.3,0,3.53"/><path class="amazon-7" d="M485.89,277.59a12.41,12.41,0,0,1-1.78-.67c.23.52.49,1.07.79,1.67l1-1"/><path class="amazon-7" d="M432.76,190.35c-1,1.94-1.67,3.44-1,5.52.55,1.71,3.29,1.73,3,3.51s-2,1.7-3.52,2.51c-2.51,1.35-5.13-.13-7,2-2.33,2.63-.5,5.54,0,9s1.42,5.23,2.51,8.53,1.83,4.89,3,8l.5-1c2.55-.4,4.76-2.89,6.52-1,1,1,.8,2.09,1,3.51.34,2.33-1.16,3.75-.5,6s2.26,3.22,4,5c1.45,1.49,3.74,1.45,4,3.52s-2.18,2.72-3.51,4.5c-1,1.36-1.83,2-2.51,3.51-1.1,2.52-.23,4.29-.49,7-.31,3.14-3.24,5.78-1,8,1.06,1.06,2.42.49,3.51,1.51,2,1.88,0,4.43,1,7,.9,2.38,1.57,3.87,3.52,5.52,1.79,1.51,3.31,1.6,5.51,2.51,1.55.62,2.36,1.78,4,1.49,2-.36,1.7-3,3.51-4,2.38-1.37,4.41.37,7-.5,2.93-1,3.88-2.92,6.52-4.51,1.71-1.05,2.55-2,4.5-2.52,2.9-.7,4.74.76,7.24,1.85a47.66,47.66,0,0,0-2.73-5.35c-1.39-2.26-2.78-3.16-4-5.51a37.88,37.88,0,0,1-2-5.52c-.78-2.15-.21-4.09-2-5.51-1.57-1.24-3.32,0-5-1-2.31-1.41-2.68-3.42-3.51-6-1.55-4.87,0-8.16,1.5-13,.64-2,.08-4.19,2-5s3,2.6,5,2c2.61-.76,2.66-3.79,2.5-6.51-.12-2.1-2-2.91-2-5s1.22-3.07,2-5h1.51c-1.88-1.58-1.47-3.61-3-5.52-1.75-2.15-3.56-2.53-5.52-4.51-1.26-1.28-1.32-2.86-3-3.51-1.29-.49-2.17.28-3.51,0-2.24-.45-3.76-1.1-5-3-1.39-2.13.24-4.08-.5-6.52-.86-2.85-2.14-4.19-4-6.52a32,32,0,0,0-4.51-4.5,27.15,27.15,0,0,0-6-4.51v2.51c0,1.36.51,2.23,0,3.5-.71,1.81-2.47,1.81-4,3-2.19,1.69-4.21,2.05-5.51,4.5"/><path class="amazon-7" d="M160,335.74c.61,1.75.35,3.07,1.51,4.51,1.59,2,3.65,1.58,6,2.51,2.71,1.05,6.93-.41,7,2.5.06,2-1.7,2.55-3,4a22,22,0,0,1-2,2l-.48.52c1.37,1.37,2.49,1.86,3.51,3.51s2,3,1.5,5-2.85,1.69-3.51,3.51-.93,3.67.5,5,2.77.21,4.52.5c2.38.41,4,.12,6,1.5s1,4.92,3.5,5.51,4.1-1,5.53-3c1.7-2.4-.24-4.67.49-7.52.94-3.64,2.47-5.37,4.51-8.53a57.31,57.31,0,0,1,4.52-6c1.67-2,2.3-3.59,4.51-5s3.72-1.11,6-2,3.28-1.73,5.51-2.52,3.93-.27,6-1.49c1.92-1.1,2.42-2.48,4-4,1.9-1.81,3.46-2.38,5-4.5,1.86-2.55,2.12-4.5,3-7.52.85-2.87.69-4.64,1.5-7.52.51-1.79,1.54-2.66,1.51-4.51-.05-2.72-2.15-3.67-3.51-6l1.5,1c-2.15-2-3.35-3.07-5.51-5-2-1.78-2.38-4.48-5-4.52-2,0-2.58,1.92-4.51,2.51s-3.1,1-5,.49c-2.44-.58-2.82-2.8-5-4-2-1.11-3.38-1.19-5.52-2-2-.75-3.36-.7-5-2-2.14-1.69-1.69-4-3.51-6-1.5-1.65-2.75-2.14-4.51-3.51l.5-2.51c-.67,4-3,6.09-6.52,8-3,1.62-6.34-1.07-8.52,1.51-1.44,1.7-.9,3.36-1.5,5.52-.94,3.32-.18,5.95-2.51,8.51a9.33,9.33,0,0,1-3.51,2.51c-1.64.75-2.9.21-4.51,1-3.27,1.59-4.12,4.16-5.52,7.51-1.3,3.12-1.25,5.16-1.5,8.52a22,22,0,0,0,0,6.53c.42,2.28,1.25,3.36,2,5.53"/><path class="amazon-7" d="M434.26,1098.31c1.05-1.41-.29-2.78,0-4.5.46-2.77,1.43-4.21,3-6.52.7-1,1.29-1.49,2-2.52s.9-1.54,1.51-2.5c1.43-2.25,1.58-4.44,4-5.51,2-.88,3.37,0,5.51,0,2.54,0,5.27,2.21,6.52,0l-6-3c-2.53-1-3.92-1.66-6.51-2.51-4-1.31-6.63-4.13-10.53-2.51-1.31.54-1.75,1.38-3,2-5.08,2.57-9.5,2.09-14.55-.49-2.47-1.28-3-3.27-5.52-4.52-1.65-.83-3.27-.12-4.5-1.5s-.77-2.72-1-4.51c-.36-2.71,1.54-4.75,0-7a5.8,5.8,0,0,0-3.51-2.52c-1.49-.45-2.45,0-4,0-2.55-.07-4.85,1.45-6.52-.48-1.52-1.79,1.53-4.24,0-6s-4.5,1.07-6.5-.5-1.07-4-2-6.5c-.85-2.22-2.81-3.19-2.51-5.52a2,2,0,0,1,.09-.44c.72-2.54,4.5-2,5.93-4.58,1.93-3.4,1.31-6.19.49-10-.61-2.91-3.44-4.08-3-7,.29-2,2.07-2.55,2.51-4.51a9.39,9.39,0,0,0-.51-5.51c-.6-1.92-3.23-2.64-2.5-4.52.64-1.62,3.46-.34,4-2s-1.34-2.39-2-4a24.92,24.92,0,0,1-1.5-5c-.63-3.06-.43-4.88-.5-8-.05-2,.73-3.21,0-5-1.25-3.08-7.66-.7-7.52-4,.11-2.64,6.37-2.26,5-4.51a1.7,1.7,0,0,0-.32-.38c-.61-.5-1.5-.24-2.43,0a3.19,3.19,0,0,1-2.59,0,1,1,0,0,0-.17-.12c-1.73-1.42-.5-3.54-1.51-5.52-1.32-2.59-3.81-2.87-5-5.52-1.06-2.33.21-4.24-1-6.51s-3.6-2.3-5-4.52c-2.11-3.33-.14-6.32-1.5-10-.75-2-1.64-3-2.5-5a25.65,25.65,0,0,1-2-5.51c-.38-1.73-.21-2.78-.5-4.51-.67-3.84-2.77-5.64-3-9.53-.15-2.35.36-3.66.5-6,.45-7.23-3.43-12.18,0-18.55,1.44-2.69,4.31-3,5-6,1.1-4.71-3.24-7-6.53-10.53-1.6-1.71-3.27-2-4.51-4-2.26-3.65-.48-6.75,0-11,.42-3.77-.75-6.92,2-9.52,1.16-1.08,2.5-.79,3.52-2,2.16-2.56-.72-5.18-1-8.52-.17-2-.15-3.66-.16-5.27a36.83,36.83,0,0,0-.34-5.27c-.87-6.25-3.45-9.31-4.51-15.53-.82-4.84-.33-7.68-1-12.54-.79-5.74-2-8.85-3-14.54-1.16-6.42-1.63-10.08-2.5-16.55s-2-10-2-16.54c0-6.08-.78-9.9,1.51-15.55,1.7-4.16,4.06-5.75,6.52-9.52,3.26-5,4.79-8,8-13,2.3-3.56,4-5.32,6-9,1.57-2.83,2.18-4.57,3.52-7.51,1.41-3.12,2.62-4.73,3.51-8a25.56,25.56,0,0,0,1-8c0-3.56-2.81-5.71-1.5-9,1-2.57,3.95-2.44,5-5s.07-4.28,0-7c-.19-6.07-.92-9.48-1.52-15.53l-4,3c-1-2.14-1.67-3.31-2.51-5.52-1-2.47-2-3.85-2-6.51,0-3.09,1.63-4.55,2.51-7.52a46.44,46.44,0,0,0,1.5-5.52c.57-3.08,1-4.91.51-8a14.51,14.51,0,0,0-2.51-7c-1.24-1.84-3.05-2-4-4-1.27-2.64.2-4.58,0-7.52a44.42,44.42,0,0,0-2.5-13.53c-1.56-4.55-1.37-8.59-5.52-11-2.4-1.41-4.82.23-7-1.5-1.92-1.53-1.41-3.67-3-5.51-1.46-1.69-2.7-2.21-4.51-3.51-2.64-1.91-4.29-2.76-7-4.51l.6.43a15.55,15.55,0,0,1-1.1,4.09c-1.11,2.7-2.57,3.82-4.52,6a38.7,38.7,0,0,1-6.51,6c-1.69,1.28-3.17,1.38-4.52,3-1.22,1.48-1.14,2.78-2,4.5s-1.53,2.76-2.51,4.51l-2.08-.38c.82.27,1.69.54,2.58.87,1.91.73,3.57.08,5,1.51,1.82,1.81.32,4,1,6.52.79,2.87,2,4.2,3,7a50.46,50.46,0,0,1,2.5,11c.8,5.62-.75,9,.5,14.54.46,2,1.23,3,1.51,5,.56,4.14-1.16,6.43-2,10.52-.73,3.53-1.14,5.53-2,9-.73,3-2.39,4.5-2,7.52.3,2.34,1.8,3.26,2.5,5.49a28,28,0,0,1,1,5,58.71,58.71,0,0,1,.49,7.51c.13,3.52-1.26,5.74,0,9,.76,2,2.72,2.41,3,4.5s-1.19,3-1.5,5a26.93,26.93,0,0,0,0,6c.1,2.55.27,4,.5,6.52.33,3.53.61,5.49,1,9,.2,1.77.43,2.74.5,4.52.14,2.92-.32,4.58-.5,7.52-.21,3.52,1.15,5.9-.5,9-1.17,2.2-4,2.07-4.51,4.51a5.87,5.87,0,0,0,.5,4c.69,1.65,2.28,1.85,3,3.5,1,2.32.14,4,0,6.52-.11,2,.21,3.18-.5,5s-2.36,2.16-3,4c-1,2.79.48,4.61,1,7.52a56.51,56.51,0,0,0,2,8.53c1,3,2.12,4.49,3,7.52s.45,5,1.5,8c.87,2.47,2.61,3.43,3,6s-.1,4.11-1,6.52c-.8,2.13-2.19,2.88-3,5-1.56,4-.76,6.74-.5,11,.18,2.95.81,4.57,1,7.53a1.85,1.85,0,0,1,0,.24,56.65,56.65,0,0,1,0,6.77c-.16,3.92-1.06,6.09-1,10,0,2.36.65,3.67.5,6-.17,2.6-1,3.95-1.51,6.51-.7,3.5-2.43,5.59-1.5,9,.66,2.46,2.34,3.26,3.51,5.51a25.76,25.76,0,0,1,3,8c.7,3.64-.7,5.88,0,9.53.48,2.42,2.33,3.56,2,6-.29,2.27-2.79,2.74-3,5-.26,2.53,1.92,3.54,2.5,6,.49,2.1,0,3.43.51,5.51.58,2.3,1.49,3.38,2.5,5.52,1.13,2.37,1.26,4,3,6,1,1.13,1.52,2.15,3,2.5,2.13.49,2.83-2.52,5-2.5a5.38,5.38,0,0,1,4,1.49c1.59,1.4.66,3.41,2,5,1.08,1.29,2.46,1.2,3.51,2.51a6,6,0,0,1,1.51,3c.35,2-1.64,3-1.51,5,.11,1.66,1.45,2.33,1.51,4,.07,2.11-1.69,2.94-2,5-.2,1.37-.8,2.41,0,3.52s2.39.13,3.51,1c2.47,1.93-2.2,5.39-.5,8a7.84,7.84,0,0,0,2,2c1.42,1.16,2.95,1,4.16,2.13a4.26,4.26,0,0,1,.35.38,6.65,6.65,0,0,1,1.5,4c.21,2-.39,3.11-1,5-.47,1.42-1,2.12-1.51,3.52-.9,2.3-2.49,3.59-2,6,.31,1.55,1.42,2.05,2,3.52,1.31,3.26.41,5.5.51,9,.07,3.13,1.08,5.08,0,8-.73,2-3.13,2.4-3,4.51s2,2.34,3,4c.91,1.49.57,3,2,4,1.75,1.25,3.46-.64,5.52,0,1.76.55,3.84.67,4,2.51s-2.88,1.41-4,3c-1.3,1.82-1.18,3.31-1.5,5.51s-1.2,4.15-.48,6.09a4.34,4.34,0,0,0,.48.93c.81,1.29,1.84,1.52,3,2.51,1.58,1.35,3,1.7,4,3.5,1.36,2.39-.41,4.44.51,7a6.68,6.68,0,0,0,1.49,3c.93.91,2,.66,3,1.49,2.09,1.76,1.23,4.12,2.51,6.52,1,1.86,1.31,3.26,3,4.51,1.35,1,2.65.56,4,1.51,2,1.35,1.86,3.28,3.5,5s3.4,1.59,4.52,3.52c.91,1.56.45,2.8,1,4.52a14.22,14.22,0,0,0,2,4.49c1,1.36,1.37,2.75,3,3,1.83.29,2.34-1.75,4-2.5a13.8,13.8,0,0,1,7-1.5,17.47,17.47,0,0,1,3.52.5,20.07,20.07,0,0,1,5.51,1.49c2.42,1.11,5.33,1.37,5.52,4a4.5,4.5,0,0,1-3,4.5c-1.8.8-3.25.37-5-.49-2.38-1.16-1.58-4.44-4-5.51s-5.24-1.71-6.51.49a4,4,0,0,0-.51,2.51c.11,2.11,1.37,3.18,3,4.51s5-.1,5,2-5.36-.73-5.52,1.51,3,1.56,5,2.49c2.7,1.27,4.12,2.36,7,3,1.91.44,3.09,1,5,.49,1.28-.33,2.22-.47,3-1.52"/><path class="amazon-7" d="M346.53,948.4c2-1.22.42-3.67.5-6,.07-1.77.41-2.81,0-4.52s-1.42-2.35-2-4c-.67-1.87,0-3.26-1-5-.83-1.44-1.45-2.43-3-3a4.18,4.18,0,0,0-3.51,0,4.05,4.05,0,0,0-2.51,3c-.38,1.57.46,2.5,1,4s1.66,2.3,2,4c.39,1.91-.4,3-.51,5-.11,2.15-1.56,4,0,5.52,1.29,1.2,2.76.3,4.52.5s3,1.41,4.51.5"/><path class="amazon-7" d="M362.07,965.45a2.9,2.9,0,0,0-2.5-1.49c-1.23-.16-1.84.59-3,1,0,0,2.35.67,1.51,2.77s2.5,1.25,2.5,1.25c0,.19,0,.31,0,.5.08,1.66,2.3-2.54,1.51-4"/><path class="amazon-7" d="M350.54,967.91c-1.71.59-2.21,1.91-3,3.51s-1.47,2.47-1,4c.68,2.27,3.15,2.51,5.51,2.51s5.2-.16,5.52-2.51c.16-1.22-.42-1.92-1-3-1.4-2.57-3.24-5.46-6-4.51"/><path class="amazon-7" d="M355.05,997c2.17.22,3.92.47,5.51-1,2.3-2.13,1.45-5.55-.5-8a6.7,6.7,0,0,0-4-2.51c-1.51-.39-2.65-.77-4,0s-1,2-2,3a18.79,18.79,0,0,1-3,2c-2.27,1.61-7.46,2.53-5.51,4.51,1.23,1.27,2.74.53,4.51.5,1.57,0,2.44-.64,4-.5,2.1.2,2.92,1.79,5,2"/><path class="amazon-7" d="M358.06,1022.05c1-.76,1-1.77,1-3,0-1.74-.31-3.57-2-4-1.2-.3-1.86.55-3,1-1.62.65-4.13.25-4,2,.1,1.56,2.1,1.29,3.5,2,1.72.86,3,3.16,4.52,2"/><path class="amazon-7" d="M364.57,1027.11c-1.55-.85-2.74.32-4.51.5-2.72.26-5.6-1.85-7,.5-1.55,2.55,3.69,3.55,4,6.51.16,1.57-1.2,2.6-.51,4,.77,1.57,2.29,1.74,4,2,1.56.24,3.31.91,4-.49s-1.84-2-2-3.51a5.36,5.36,0,0,1,1-3.52c.81-1.44,2.95-1.34,3-3a3.23,3.23,0,0,0-2-3"/><path class="amazon-7" d="M375.1,1069.71c-.55,1.77.79,4.7,2.51,4,1.06-.41,1.17-1.4,1.51-2.5.39-1.32,1-2.59,0-3.52-1.28-1.18-3.49.35-4,2"/><path class="amazon-7" d="M401.18,1085.72a18.64,18.64,0,0,0-4-1.5c-1.91-.55-3-1.1-5-1-1.62.08-3.75-.58-4,1-.18,1.11.79,1.61,1.51,2.51a8.56,8.56,0,0,0,5,3.5c2.28.61,3.68-.28,6-.49,2-.18,4.18,1.28,5-.5.95-2-2.54-2.47-4.5-3.52"/><path class="amazon-7" d="M413.71,1098.31c-1.08-.9-.92-2.1-2-3-1.42-1.19-2.94-2.47-4.51-1.49-1.84,1.12-1,4,.5,5.5,1.28,1.28,3.41-.43,4.51,1,.85,1.08-.43,2.47.5,3.5a3.31,3.31,0,0,0,5-.5,3.14,3.14,0,0,0,0-3.52c-.86-1.43-2.74-.42-4-1.5"/><path class="amazon-7" d="M440.27,1089.74c-1.24-.42-2.18.48-3,1.5a3.72,3.72,0,0,0,0,5,3,3,0,0,0,3,1c1.8-.49,1.78-2.67,1.51-4.5-.19-1.3-.26-2.59-1.51-3"/><path class="amazon-7" d="M496.43,1120.35a14.76,14.76,0,0,0-4.51,1c-2.14.8-5.07.74-5,3,.06,2.47,3.54,2,6,2,1.8,0,2.74-.64,4.52-1,2.13-.43,4.63,1,5.5-1a3.36,3.36,0,0,0-.49-3.52c-1.36-1.92-3.68-.71-6-.5"/><path class="amazon-7" d="M487.9,1113.8c-1.4-1.4-3-.93-5-1a20.27,20.27,0,0,0-4.51.52c-2.58.4-4.13.46-6.52,1.49-1.45.64-2,1.49-3.51,2-1.86.65-3.06.3-5,.5l2.51,4c2.34.2,3.73,0,6,.51,2.05.49,2.93,1.7,5,2,1.36.2,2.53.94,3.51,0,1.14-1.09-1.32-2.68-.5-4,1.13-1.84,3.4.36,5.51,0,1.41-.24,2.6.08,3.52-1,1.29-1.52.4-3.59-1-5"/><path class="amazon-7" d="M468.85,1112.83c2.31-.5,3.74.07,6-.49a11.8,11.8,0,0,0,2.27-.9l-3.27-1.11c-2.15-1.56-3.75-2-5.52-4-1.92-2.15-2.48-3.81-3.51-6.52-.8-2.07-.86-3.37-1.5-5.51a30.54,30.54,0,0,0-2-6c-1.2-2.37-2.45-3.36-4-5.51l-1.83-.15a8.49,8.49,0,0,1-1.17.15c-2,.1-3.06,0-5,0-1.17,0-1.89-.35-3,0-2.28.71-3.06,2.66-3.52,5-.34,1.74.31,2.74.5,4.51l3,1.51c1-.21,1.52-.35,2.5-.5,1.94-.33,4.39-2.37,5-.5a3.13,3.13,0,0,1-.5,2.5c-.75,1.64-2.74,1.38-3.51,3a3.94,3.94,0,0,0-.5,3c.54,1.94,2.69,1.66,4.51,2.5,2.09,1,6.2-.17,5.52,2-.56,1.77-2.67,1.34-4.51,1.5a9.69,9.69,0,0,1-5.52-1c-1-.45-1.44-1.1-2.5-1.5-2-.75-3.37-.06-5.52,0-3.13.09-7-2.45-8,.5-.61,1.71-.47,3.47,1,4.52,1.28.9,2.45-.2,4,0,2.46.3,3.61,1.42,6,2a39.19,39.19,0,0,0,8,1c2.73.15,4.39-.77,7,0,1.68.49,2.27,1.81,4,2,2.27.25,3.28-1.52,5.51-2"/><path class="amazon-7" d="M484.9,278.59l-.11-.21-.39.21h.5"/><path class="amazon-7" d="M468.35,254c1.7,1,3.45-.23,5,1,1.79,1.41,1.22,3.36,2,5.5a37.46,37.46,0,0,0,2,5.52c1.22,2.35,2.61,3.26,4,5.51a70.93,70.93,0,0,1,3.41,6.81c1.39-.77,2.58-1,3.61-2.31s.08-3.31,1.51-4.5c1.09-.91,2.22-.38,3.5-1,1.87-.91,2-2.88,4-3.5,2.26-.73,3.78.18,6,1a25.6,25.6,0,0,1,4.51,2.51h.5c1.56-2.54,2.46-4,4-6.51,1.18-1.95,2.41-2.82,3-5,.72-2.66.1-4.35-.5-7-.76-3.33-2.74-4.7-3.51-8-1.24-5.34-1.09-9,1-14,.77-1.87,1.6-2.72,2.51-4.51,1.07-2.11,1.53-3.36,2.5-5.51l-.14-1.44c-.56-.2-1.17-.38-1.86-.56-3.4-.94-5.56.59-9,0-2.62-.46-3.9-1.52-6.51-2a19.37,19.37,0,0,0-5.52-.5,36.11,36.11,0,0,0-5,1c-2.34.43-3.65,1.18-6,1s-4.13-.42-6-2h-1.51c-.78,1.95-2,2.92-2,5s1.88,2.91,2,5c.16,2.72.11,5.75-2.5,6.51-2,.59-3.08-2.83-5-2s-1.37,3-2,5c-1.52,4.87-3,8.16-1.5,13,.83,2.59,1.2,4.59,3.51,6"/><path class="amazon-7" d="M278.85,552.31c3.45,2.07,6,2,9.53,4,2.45,1.39,3.47,2.78,6,4,2.06,1,3.86.44,5.51,2,2.45,2.33-.33,5.68,1.51,8.52,1.67,2.56,3.84,3.3,6.44,4.14l2.08.38c1-1.75,1.61-2.71,2.51-4.51s.78-3,2-4.51,2.83-1.72,4.51-3a38.44,38.44,0,0,0,6.52-6c1.95-2.18,3.41-3.3,4.51-6a13.08,13.08,0,0,0,.51-9.53c-.6-2.09-1.47-3.1-2.51-5-1.44-2.61-4-3.52-4-6.52s1.67-4.27,3.5-6.51c1.5-1.82,4.2-1.68,4.52-4s-2.13-2.91-3-5a15.72,15.72,0,0,1-1.51-6.52c0-2.38.81-3.65,1-6,.3-3.71-.09-5.83-.5-9.53-.28-2.54-.2-4.07-1-6.51-1-3-3-4-4-7-.69-2.07-.2-3.48-1-5.51-1.08-2.72-2.75-3.66-4.51-6h-1c-2-.39-3-1-5-1a36.42,36.42,0,0,0-4,.5c-2.54.2-4.79,1.86-6.52,0s.53-4,.5-6.52c0-3.15-1.71-4.95-1-8,1.51-6.51-2.51-5-2.51-5-1.75,1.55-2.28,3.24-4.5,4-1.85.63-3.07.21-5,0-2.83-.32-4.84-.18-7-2-1.74-1.47-1.18-3.65-3-5-1.63-1.21-3-1-5-1.5-1.74-.46-3.79.65-4.51-1a1.08,1.08,0,0,1,.25-1.25c.76-.84,2.43-1.46,2.26-2.76-.16-1.12-.86-1.57-1.5-2.5-1.18-1.71-2.52-2.2-3.51-4-1.16-2.12-.52-3.81-1.51-6a24.93,24.93,0,0,0-2.51-4c-1.31-2-3.1-2.66-3.5-5-.34-2,.64-3,1-5,.72-3.9-1-7,1.51-10,1.23-1.53,2.69-1.57,4-3,2.55-2.79,2.33-5.43,3.51-9,.89-2.7,1.67-4.19,2-7,.25-2.14-1.46-3.94,0-5.52,1.58-1.73,3.88,1,6,0,1.76-.81,2.14-2.14,3.5-3.51,1.76-1.76,2.17-3.67,4.51-4.51,1.85-.65,3.07-.15,5,0,2.38.17,3.93,2.14,6,1,1.47-.8,1.52-2.13,2.5-3.51l.5-1c-.59-2.53-1.6-3.89-1.51-6.51a9.16,9.16,0,0,1,1-4.51c.7-1.35,1.6-1.77,2.51-3a34.3,34.3,0,0,0,3-5c1.1-2.11,3.8-3.56,2.51-5.54s-3.68.17-6,0c-1.57-.12-2.86.6-4-.49-.9-.86-.22-2.05-1-3-1.91-2.3-4.55,1.88-7.51,1.51-1.85-.23-2.71-1.9-4.52-1.51s-1.69,2.85-3.51,3.51-3.05-.4-5-.49c-2.15-.11-3.58.93-5.52,0-1.5-.72-1.95-1.73-3-3-1.73-2.09-2.07-3.71-3.52-6-1.12-1.8-2.19-2.56-3-4.51-.61-1.49-.26-2.59-1-4-2-3.81-7.52-1-10-4.52-1.24-1.69-1-3.17-2-5a14.88,14.88,0,0,0-2.52-3.52c-1.35-1.41-2.14-2.42-4-3-1.68-.54-2.76,0-4.52,0l-2-.51c1.36,2.35,3.46,3.3,3.51,6,0,1.85-1,2.72-1.51,4.5-.81,2.88-.65,4.66-1.5,7.52-.89,3-1.15,5-3,7.53-1.55,2.12-3.11,2.69-5,4.5-1.6,1.54-2.1,2.91-4,4-2.08,1.22-3.73.71-6,1.49s-3.32,1.65-5.51,2.52-3.94.67-6,2-2.84,3-4.51,5a57.31,57.31,0,0,0-4.52,6c-2,3.16-3.57,4.88-4.51,8.53-.73,2.85,1.21,5.12-.49,7.52-1.43,2-3.14,3.57-5.53,3s-1.42-4.05-3.5-5.51-3.63-1.1-6-1.51c-1.75-.29-3.22.71-4.52-.49s-1.17-3.17-.5-5,3-1.64,3.51-3.5-.45-3.27-1.5-5-2.14-2.14-3.51-3.51l.48-.52c-.92.78-1.84,1.48-3,2.53-2.16,1.94-4.24,2.39-5.52,5-.7,1.46-.41,2.52-1,4-.82,2.13-2.1,2.92-3,5-.82,1.87-2,3-1.51,5s2.85,1.68,3.51,3.5-.61,3.05-.5,5c.13,2.4,1.38,3.59,1.5,6s-1.87,4.11-1,6.52c.94,2.62,3.07,3.2,5.52,4.51a21.6,21.6,0,0,0,6,2c2.5.61,4.4-.46,6.52,1,2.74,1.91,1.71,4.94,3,8,2.49,5.87,3.79,9.36,7.53,14.53,2.26,3.15,4.74,4.07,6.51,7.52,1.14,2.21.92,3.8,2,6a11.84,11.84,0,0,0,2.4,3.26,20,20,0,0,1,4.12,4.76c2.35,4.29,1.74,7.47,3.5,12,1.49,3.84,2.8,5.79,4.52,9.53s2.36,6.32,4.51,10c2.31,4,4.54,5.63,7,9.51a58.89,58.89,0,0,1,4,7c1.37,2.85,1.61,4.68,3,7.52.89,1.81,1.72,2.67,2.51,4.52,1.56,3.66.16,6.48,2,10,1.41,2.71,3.08,3.65,5,6,2.38,2.91,3.46,4.78,6,7.52a65.61,65.61,0,0,0,7,6.53c2.46,2,3.95,3.09,6.52,5s3.87,3.85,7,5c2.42.9,4.13.07,6.52,1,3.25,1.2,4,3.66,7,5.45"/><path class="amazon-7" d="M427.75,597.44c-2.58,1.65-3.56,3.33-5,6-2,3.7-1.92,6.35-2.5,10.52-.54,3.88-.21,6.12-.5,10-.17,2.14-.43,3.36-.51,5.51-.06,1.57,0,2.45,0,4l-1.5.49a45.84,45.84,0,0,0,3,4.51c1.24,1.5,2.6,1.81,3.51,3.51.68,1.27.42,2.22,1,3.52,2.83,6.24,10.83,2.2,16.54,6,2.08,1.4,3,2.52,5,4,3.38,2.53,6.09,3,9,6,1.85,1.93,1.71,4.19,4,5.51,1.89,1.1,3.4.44,5.52,1,3.71,1,5.57,2.29,9,4,2.59,1.29,3.78,2.59,6.52,3.52,1.7.57,3,0,4.5,1a5.18,5.18,0,0,1,2.51,5c-.17,1.84-1.81,2.31-2.51,4a19.75,19.75,0,0,0-1,4.51c-.68,3.68,1.4,6.66-1,9.52-1.09,1.29-2.5,1.17-3.52,2.51-1.67,2.21-1.52,4.31-1,7,.35,1.89,1.22,2.75,2,4.51l-.51-2c1.37,0,2.15,0,3.52,0,2.15-.07,3.35-.45,5.51-.49a63.15,63.15,0,0,1,7.52.49c2.15.18,3.36.45,5.52.51,3.13.09,5.1.64,8-.51,1.72-.68,2.45-1.52,4-2.5,2.16-1.35,3.48-2,5.52-3.51,2.77-2.07,5.23-2.8,6.52-6,.87-2.18.47-3.67.5-6,0-2.75.49-4.47-.5-7-.32-.82-.72-1.18-1-2-.78-2.22-.35-3.7,0-6,.44-2.87,2.1-4.14,2.51-7a18.94,18.94,0,0,0-.5-7.52c-.51-2.43.1-4.73-2-6-1.34-.82-2.43-.52-4-.49-2,0-3,1-5,1-2.23-.05-3.77-.12-5.51-1.5-2.83-2.23-1.67-5.43-2-9-.26-2.73.19-4.29,0-7s.91-5-1-7-4-.88-6.52-1.5c-1.57-.37-2.42-.75-4-1-2.91-.46-4.6,0-7.53,0-2,0-3.06.13-5,0-2.76-.15-6,1.57-7-1-.68-1.68,1.42-2.76,1-4.52-.34-1.37-1.26-1.81-2-3-1.22-1.91-2.86-2.73-3-5-.12-1.85,1.17-2.69,1.5-4.51.74-4.09-.92-6.42-1.5-10.53l-.5-2.51c-2-2.14-2.65-3.82-5-5.51s-4.16-2.14-7-3c-4.15-1.25-6.71-1.9-11-1.5a33.22,33.22,0,0,0-6.51,1.5c-4,1.1-6.11,2.18-10,3.53-2.34.77-3.94.65-6,2"/><path class="amazon-7" d="M546.56,1073.21c1-.61.82-1.59,1.5-2.52,1-1.32,2-1.7,3-3,.89-1.08,2.43-1.66,2-3s-1.7-1.37-3-1.51-2.15.58-3.51,1c-1.18.37-2.62-.17-3,1s2.14,1.18,2.52,2.5c.61,2.28-5.23,2.5-4,4.52a3.25,3.25,0,0,0,4.52,1"/><path class="amazon-7" d="M559.1,1073.21c1.22-.16,2.13-.13,3-1s.29-1.74,1-2.52c1.1-1.18,2.63-.17,4-1,1.18-.71,2.78-1.15,2.5-2.51-.31-1.54-2.46-.25-4-.5-2-.31-3-1.31-5-1a6,6,0,0,0-4,2c-1.65,1.77-3.29,4.4-1.51,6,1.17,1.06,2.45.7,4,.51"/><text class="amazon-8" transform="translate(575.63 560.34)">brazil</text><text class="amazon-8" transform="translate(374.99 577.1)">bolivia</text><text class="amazon-8" transform="translate(422.07 665.4)"><tspan class="amazon-9">p</tspan><tspan x="10.12" y="0">ar</tspan><tspan class="amazon-10" x="33.35" y="0">a</tspan><tspan x="44.94" y="0">gu</tspan><tspan class="amazon-11" x="67.48" y="0">a</tspan><tspan class="amazon-12" x="78.68" y="0">y</tspan></text><text class="amazon-8" transform="translate(456.82 172.65)">gu<tspan class="amazon-13" x="22.54" y="0">y</tspan><tspan x="32.9" y="0">ana</tspan></text><text class="amazon-8" transform="translate(562.09 242)">french<tspan x="0" y="29">guiana</tspan></text><text class="amazon-8" transform="translate(487.11 209.03)">suriname</text><text class="amazon-8" transform="translate(292.23 182.51)">venezuela</text><text class="amazon-8" transform="translate(194.03 240.91)">co<tspan class="amazon-14" x="22.54" y="0">l</tspan><tspan x="30.83" y="0">ombia</tspan></text><text class="amazon-8" transform="translate(554.31 836.2)">urugu<tspan class="amazon-11" x="56.35" y="0">a</tspan><tspan class="amazon-12" x="67.55" y="0">y</tspan></text><text class="amazon-8" transform="translate(167.09 504.04)">peru</text><text class="amazon-8" transform="translate(71.49 328.51)">ecuador</text><text class="amazon-15" transform="translate(215.14 483.48)">lima</text><text class="amazon-15" transform="translate(622.07 626.32)">rio de <tspan class="amazon-16" x="41.63" y="0">j</tspan><tspan x="49.21" y="0">anero</tspan></text><text class="amazon-15" transform="translate(566.25 654)">s<tspan class="amazon-17" x="7.85" y="0">a</tspan><tspan class="amazon-18" x="15.92" y="0">o </tspan><tspan class="amazon-19" x="27.67" y="0">p</tspan><tspan x="34.71" y="0">au</tspan><tspan class="amazon-17" x="50.9" y="0">l</tspan><tspan x="56.67" y="0">o</tspan></text><text class="amazon-15" transform="translate(155.1 194.44)"><tspan class="amazon-19">p</tspan><tspan x="7.04" y="0">anama</tspan></text><text class="amazon-8" transform="translate(380.99 836.2)">argentina</text><text class="amazon-8" transform="translate(247.09 770.2)">chile</text><g id="legend"><text class="amazon-20" transform="translate(632.75 98.87)">n<tspan class="amazon-21" x="16.58" y="0">a</tspan><tspan x="32.29" y="0">tural forest</tspan></text><text class="amazon-22" transform="translate(632.75 150.24)">defores<tspan class="amazon-21" x="103.32" y="0">ta</tspan><tspan x="133.72" y="0">tion</tspan></text><rect class="amazon-4" x="582.07" y="64.07" width="36.51" height="36.51"/><rect class="amazon-6" x="582.07" y="113.74" width="36.51" height="36.51"/></g><path class="amazon-7" d="M778.65,585.65a1.79,1.79,0,0,0,.32-2.2,2,2,0,0,0-3.15-.32,1.79,1.79,0,0,0,0,2.21,1.91,1.91,0,0,0,2.83.31"/><path class="amazon-7" d="M774.24,634.47c.84.21,1.51.51,2.21,0s.22-1.4.63-2.2c.51-1,1.66-1.1,1.89-2.21a2.3,2.3,0,0,0-.63-2.52c-.78-.59-1.58-.28-2.52,0s-1.92.56-2.21,1.58c-.24.86.77,1.32.63,2.2-.17,1.12-2.32,1.16-1.88,2.21.31.76,1.08.75,1.88.94"/><path class="amazon-7" d="M773.61,617.78c.89.11,1.44-1.82.63-2.2a1.16,1.16,0,0,0-1.57.63,1.2,1.2,0,0,0,.94,1.57"/><path class="amazon-7" d="M779.6,595.1s.67.83,1.26-1c.35-1,1-2.34,0-2.83a2,2,0,0,0-1.89,0,2,2,0,0,0,.63,3.78"/><path class="amazon-7" d="M774.56,580.61a2.14,2.14,0,0,0,2.52-1,1.74,1.74,0,0,0-.32-2.2,1.86,1.86,0,0,0-2.2,0c-1,.51-1.92,1.64-1.26,2.52a1.74,1.74,0,0,0,1.26.63"/></g><g class="amazon-23"><path class="amazon-3" d="M698.27,176.85l10.2-12.6,11.7-12.5,7-9.9.7-7.5-2.4-6.3-8.5-6.9-9.7-10-8.7-3.9-2.6-4.8,1.4-14.9,2.4-7.3.7-7.7,362.4-.3,25.7-.6,6.9,6.7,5.4,6.6,12,16.3.8,7.6.4,12.1,331.5-9.4,9.6,10,.5,10.6,2.9,1.8-.9,9,.9,6.1,8.5,5.3,10.2,4,15.3,1.5,1.8-2.9,7.6-14.4,6.9-6.9-2.2-9.3-5.9-20.1-1-6.1-8.2-11.4,1.9-19.5,2.1-5.9,6.2.6,6,2.1.3-2.8,7.5-3.8,4.1,4.9,8.7,3.9,12.6,10.3,7.3,2.1,13.5,1.3,15.1-.3,6,.6,11.5,37.7,16.3,34.8,42.7,105.3,29.8,51.2,13.2,19.4,22.6,32.4.2,13.6,8.7,35.6,9.1,31.1,17.8,35,15.5,43.8,70.5,100.7,3.6,26.1,22.2,115.6-2.5,73.9-7.9-11.3-4.1,42.8-13.3,30-15,16.5-12.7,24.2-6.1.9-53.5,29.3-25.2-2.4-12.7,7.8-26.8-1-22.8-11.1,7-11.3,11.4,1.1,14.4,7.4,8.1-5.3-14.5-21,5.6-11.6,12.6-4.9,4.3-13.2-15-1.4,1-10.5,5.8-13.1-7.9-12.9-53.4-11.1-59.7-40.5-18.8-41.2,8.1-53.8,1.2-13.1-16.3,14.9-12.9,10.7-5.8-2-4.9-58.8,8.4-9.7,2.9-30.4-6.1,16.1-6.6,5.4-9.4,3.7-16.3-3.1-2.9-1.8,8.3,23.5-9.4,3.7-8.6-5.4-20.5-23.2.1,15.2-19.4-48.6-17.5-22.9-10.1-5.5,5.2-7.1,17.8-12L1469,548l1.6-16.5,5-6.8,1-10.6-16.6-15.2-7,26.5-12.2-14.7-7.7,2.3-.4,4.2,8.9,17.5,2.1,9.3-9.5,5.1-6.5,5.4-8.7-3.8-12.5-43.6,6.4-35.7,3.5-52.6-3.4-59.3-21-32.3-57.6-43.3-25.7-14.5-5.8-2.1,2.1-22.5-3.5-10.9-25.2-3.9-9.6-10-14.9-2.9-8.4-6.8-7.7-14.3-22.9-12.8-15.6-1.5-9.2,2.2-16,10.6-34.4,31.5-18.1,1.3-26.2,23.2-19.7,2.7-29.7,13.8-28.5.3-11.3-7.1-12.6-8.8-3.2-29-.3,3,5.5,5.1,1.7,13.8,9.7,8.5,12.3-3.4,2.8-29.8-2.8-17.6-10.9-12-21-.4-10.4-1,.9-9.3,32.1-6.4-9.8-7.2-47.7-3-14.6-1.4-4.2-3.4.7-7.4,10.9-4.9.4-4.5-13.6-1.3-11.2,5-8,3.8,6.3,14.2-14.7-5.9-4.3-3.4-50.5,1.3-17.2,4.4-27.7,1.9-8,3.8.6-6,3.9-8.7-2.3-7.8-5.5-6.6-25.2,8.2-.5,4.9,3.5,9.1-.4,4.7-9.8,8.1-56.2,5.2-4.5.9Zm0,0,10.2-12.6,11.7-12.5,7-9.9.7-7.5-2.4-6.3-8.5-6.9-9.7-10-8.7-3.9-2.6-4.8,1.4-14.9,2.4-7.3.7-7.7,362.4-.3,25.7-.6,6.9,6.7,5.4,6.6,12,16.3.8,7.6.4,12.1,331.5-9.4,9.6,10,.5,10.6,2.9,1.8-.9,9,.9,6.1,8.5,5.3,10.2,4,15.3,1.5,1.8-2.9,7.6-14.4,6.9-6.9-2.2-9.3-5.9-20.1-1-6.1-8.2-11.4,1.9-19.5,2.1-5.9,6.2.6,6,2.1.3-2.8,7.5-3.8,4.1,4.9,8.7,3.9,12.6,10.3,7.3,2.1,13.5,1.3,15.1-.3,6,.6,11.5,37.7,16.3,34.8,42.7,105.3,29.8,51.2,13.2,19.4,22.6,32.4.2,13.6,8.7,35.6,9.1,31.1,17.8,35,15.5,43.8,70.5,100.7,3.6,26.1,22.2,115.6-2.5,73.9-7.9-11.3-4.1,42.8-13.3,30-15,16.5-12.7,24.2-6.1.9-53.5,29.3-25.2-2.4-12.7,7.8-26.8-1-22.8-11.1,7-11.3,11.4,1.1,14.4,7.4,8.1-5.3-14.5-21,5.6-11.6,12.6-4.9,4.3-13.2-15-1.4,1-10.5,5.8-13.1-7.9-12.9-53.4-11.1-59.7-40.5-18.8-41.2,8.1-53.8,1.2-13.1-16.3,14.9-12.9,10.7-5.8-2-4.9-58.8,8.4-9.7,2.9-30.4-6.1,16.1-6.6,5.4-9.4,3.7-16.3-3.1-2.9-1.8,8.3,23.5-9.4,3.7-8.6-5.4-20.5-23.2.1,15.2-19.4-48.6-17.5-22.9-10.1-5.5,5.2-7.1,17.8-12L1469,548l1.6-16.5,5-6.8,1-10.6-16.6-15.2-7,26.5-12.2-14.7-7.7,2.3-.4,4.2,8.9,17.5,2.1,9.3-9.5,5.1-6.5,5.4-8.7-3.8-12.5-43.6,6.4-35.7,3.5-52.6-3.4-59.3-21-32.3-57.6-43.3-25.7-14.5-5.8-2.1,2.1-22.5-3.5-10.9-25.2-3.9-9.6-10-14.9-2.9-8.4-6.8-7.7-14.3-22.9-12.8-15.6-1.5-9.2,2.2-16,10.6-34.4,31.5-18.1,1.3-26.2,23.2-19.7,2.7-29.7,13.8-28.5.3-11.3-7.1-12.6-8.8-3.2-29-.3,3,5.5,5.1,1.7,13.8,9.7,8.5,12.3-3.4,2.8-29.8-2.8-17.6-10.9-12-21-.4-10.4-1,.9-9.3,32.1-6.4-9.8-7.2-47.7-3-14.6-1.4-4.2-3.4.7-7.4,10.9-4.9.4-4.5-13.6-1.3-11.2,5-8,3.8,6.3,14.2-14.7-5.9-4.3-3.4-50.5,1.3-17.2,4.4-27.7,1.9-8,3.8.6-6,3.9-8.7-2.3-7.8-5.5-6.6-25.2,8.2-.5,4.9,3.5,9.1-.4,4.7-9.8,8.1-56.2,5.2-4.5.9Zm1002.6,170.9,8.5,5.3,9,16,12,16.3,6.5,11.2,11.5,22.3,6.8,8.2,7.8,12.8,6.6,9.7,5.4,6.6m-70.3,202.1-14,19.9-5.3,8.6-8,5.3-8.5,9.8-7.8,2.3-3.8,8.7,3.1,15.4,9.5,11.6,10.5,1,12.4-3.2,6,.6,6.9,6.4-3.4,4.2,4.1,4.9,21.6,11.1,17.8,3.2,13.1-7.8.6-6-2.3-10.8-10-5.5,2.2-7.4,8.2-2.2,1.1-12-6.1-20.2-4.3-18.6-8-11.3-10.7-14.6-8.7-3.9-9.3,2.1-3.3,2.7-3.6,5.7Zm0,0-14,19.9-5.3,8.6-8,5.3-8.5,9.8-7.8,2.3-3.8,8.7,3.1,15.4,9.5,11.6,10.5,1,12.4-3.2,6,.6,6.9,6.4-3.4,4.2,4.1,4.9,21.6,11.1,17.8,3.2,13.1-7.8.6-6-2.3-10.8-10-5.5,2.2-7.4,8.2-2.2,1.1-12-6.1-20.2-4.3-18.6-8-11.3-10.7-14.6-8.7-3.9-9.3,2.1-3.3,2.7-3.6,5.7Zm42.8,359.6,8.2-6.8m-40.9,17.3-17,4.4m-46.8,15.3,19.9-2.7m-37.4,13.1-12.1-1.2m231.9-136.8-19.3,28.4-13,9.4-13.4,13.9-11.2,6.5-13.1,10.9-1.9,4.4,6.3-2.4,12.8-7.9,16-9.1,16.4-13.6,13.4-13.9,7.1-11.4,5.6-11.6-2.6-4.8-3.1,1.2Zm0,0-19.3,28.4-13,9.4-13.4,13.9-11.2,6.5-13.1,10.9-1.9,4.4,6.3-2.4,12.8-7.9,16-9.1,16.4-13.6,13.4-13.9,7.1-11.4,5.6-11.6-2.6-4.8-3.1,1.2Z"/>
    </g>
</svg>